<svg width="603" height="194" viewBox="0 0 603 194" fill="none" xmlns="http://www.w3.org/2000/svg">
<circle cx="118.868" cy="26.737" r="23.4211" stroke="#52006A" stroke-width="2.34211"/>
<circle cx="118.868" cy="167.263" r="23.4211" stroke="#52006A" stroke-width="2.34211"/>
<circle cx="25.1842" cy="120.421" r="23.4211" stroke="#52006A" stroke-width="2.34211"/>
<circle cx="165.711" cy="120.421" r="23.4211" stroke="#52006A" stroke-width="2.34211"/>
<circle cx="226.605" cy="97.0002" r="23.4211" stroke="#FF7600" stroke-width="2.34211"/>
<circle cx="367.132" cy="97.0002" r="23.4211" stroke="#FF7600" stroke-width="2.34211"/>
<circle cx="296.868" cy="26.737" r="23.4211" stroke="#FF7600" stroke-width="2.34211"/>
<circle cx="296.868" cy="167.263" r="23.4211" stroke="#FF7600" stroke-width="2.34211"/>
<path d="M1.76318 120.421C1.76318 107.486 12.2491 97 25.1842 97H165.711C178.646 97 189.132 107.486 189.132 120.421C189.132 133.356 178.646 143.842 165.711 143.842H25.1842C12.2491 143.842 1.76318 133.356 1.76318 120.421Z" stroke="#52006A" stroke-width="2.34211"/>
<path d="M118.868 190.684C105.933 190.684 95.4473 180.198 95.4473 167.263L95.4473 26.7367C95.4473 13.8016 105.933 3.31567 118.868 3.31567C131.803 3.31567 142.289 13.8016 142.289 26.7367L142.289 167.263C142.289 180.198 131.803 190.684 118.868 190.684Z" stroke="#52006A" stroke-width="2.34211"/>
<path d="M8.9562 136.81C-0.190287 127.664 -0.190285 112.834 8.95621 103.688L102.135 10.5089C111.282 1.36239 126.111 1.36237 135.258 10.5089C144.404 19.6554 144.404 34.4848 135.258 43.6312L42.0786 136.81C32.9321 145.957 18.1027 145.957 8.9562 136.81Z" stroke="#52006A" stroke-width="2.34211"/>
<circle cx="531.079" cy="26.737" r="23.4211" stroke="#52006A" stroke-width="2.34211"/>
<circle cx="531.079" cy="167.263" r="23.4211" stroke="#52006A" stroke-width="2.34211"/>
<circle cx="437.395" cy="120.421" r="23.4211" stroke="#52006A" stroke-width="2.34211"/>
<circle cx="577.921" cy="120.421" r="23.4211" stroke="#52006A" stroke-width="2.34211"/>
<path d="M413.974 120.421C413.974 107.486 424.46 97 437.395 97H577.921C590.856 97 601.342 107.486 601.342 120.421C601.342 133.356 590.856 143.842 577.921 143.842H437.395C424.46 143.842 413.974 133.356 413.974 120.421Z" stroke="#52006A" stroke-width="2.34211"/>
<path d="M531.079 190.684C518.144 190.684 507.658 180.198 507.658 167.263L507.658 26.7367C507.658 13.8016 518.144 3.31567 531.079 3.31567C544.014 3.31567 554.5 13.8016 554.5 26.7367L554.5 167.263C554.5 180.198 544.014 190.684 531.079 190.684Z" stroke="#52006A" stroke-width="2.34211"/>
<path d="M421.167 136.81C412.02 127.664 412.02 112.834 421.167 103.688L514.346 10.5089C523.492 1.36239 538.322 1.36237 547.468 10.5089C556.614 19.6554 556.614 34.4848 547.468 43.6312L454.289 136.81C445.143 145.957 430.313 145.957 421.167 136.81Z" stroke="#52006A" stroke-width="2.34211"/>
<circle cx="296.868" cy="97.0001" r="93.6842" stroke="#FF7600" stroke-width="2.34211"/>
<circle cx="296.868" cy="97.0003" r="46.8421" stroke="#FF7600" stroke-width="2.34211"/>
<line x1="0.591797" y1="2.14487" x2="601.342" y2="2.14492" stroke="#52006A" stroke-width="2.34211"/>
<line x1="0.591797" y1="191.855" x2="601.342" y2="191.855" stroke="#52006A" stroke-width="2.34211"/>
</svg>
