<svg width="54" height="53" viewBox="0 0 54 53" fill="none" xmlns="http://www.w3.org/2000/svg">
<path d="M29.5931 30.4253L31.955 32.7872L36.6788 28.0634M24.0906 5.74737C23.4984 5.74737 22.9776 5.35022 22.8276 4.77745C22.3984 3.13945 20.9081 1.93091 19.1354 1.93091C17.3627 1.93091 15.8724 3.13945 15.4432 4.77745C15.2931 5.35022 14.7723 5.74737 14.1802 5.74737H10.1416V10.3417H28.1292V5.74737H24.0906Z" stroke="#52006A" stroke-width="2.03252" stroke-miterlimit="10" stroke-linecap="round" stroke-linejoin="round"/>
<path d="M38.9738 24.4143C40.7972 26.2378 41.5716 28.7134 41.2958 31.0907C41.0927 32.8436 40.3188 34.5427 38.9738 35.8877C37.6287 37.2327 35.9297 38.0065 34.1767 38.2098C31.7995 38.4856 29.3239 37.7113 27.5004 35.8877C24.3319 32.7192 24.3319 27.5828 27.5004 24.4143C30.6689 21.2458 35.8053 21.2458 38.9738 24.4143Z" stroke="#52006A" stroke-width="2.03252" stroke-miterlimit="10" stroke-linecap="round" stroke-linejoin="round"/>
<path d="M43.403 37.377L40.4619 40.3191L37.3115 37.1687C37.905 36.8242 38.464 36.3963 38.9731 35.8882C39.4704 35.3921 39.9009 34.8332 40.2536 34.2256L43.403 37.377Z" stroke="#52006A" stroke-width="2.03252" stroke-miterlimit="10" stroke-linecap="round" stroke-linejoin="round"/>
<path d="M43.4567 37.3237L40.4098 40.3705L41.2586 41.8653C41.7439 42.7199 42.342 43.5053 43.037 44.2002L46.8707 48.034C48.0441 49.2074 49.9466 49.2074 51.1201 48.034C52.2936 46.8605 52.2936 44.958 51.1201 43.7846L47.2864 39.9508C46.5914 39.2559 45.8061 38.6577 44.9515 38.1725L43.4567 37.3237ZM12.2402 10.3417V12.3607C12.2402 13.6627 13.2957 14.7182 14.5978 14.7182H23.6734C24.9754 14.7182 26.0309 13.6627 26.0309 12.3607V10.3417H12.2402Z" stroke="#52006A" stroke-width="2.03252" stroke-miterlimit="10" stroke-linecap="round" stroke-linejoin="round"/>
<path d="M27.5001 24.4141C24.3315 27.5827 24.3315 32.7193 27.5001 35.8878C28.7056 37.0933 30.1973 37.8408 31.7569 38.128C32.555 38.276 33.3707 38.3036 34.177 38.2099C34.8955 38.1271 35.5997 37.9482 36.2705 37.6779V48.7663C36.2705 50.3804 34.9619 51.689 33.3478 51.689H4.92378C3.30965 51.689 2 50.3804 2 48.7663V8.67045C2 7.05632 3.30965 5.74768 4.92378 5.74768H10.1423V10.3422H28.1291V5.74768H33.3476C34.9618 5.74768 36.2704 7.05632 36.2704 8.67045V22.624C34.8333 22.0455 33.2637 21.8948 31.7568 22.173C30.1973 22.4602 28.7056 23.2075 27.5001 24.4141Z" stroke="#52006A" stroke-width="2.03252" stroke-miterlimit="10" stroke-linecap="round" stroke-linejoin="round"/>
<path d="M6.42871 34.7901V47.3686H31.7568V38.128C30.1974 37.8408 28.7056 37.0933 27.5 35.8878C24.3314 32.7192 24.3314 27.5826 27.5 24.4142C28.7055 23.2076 30.1973 22.4602 31.7568 22.173V10.3412H6.42871V25.8913" stroke="#52006A" stroke-width="2.03252" stroke-miterlimit="10" stroke-linecap="round" stroke-linejoin="round"/>
<path d="M19.4142 40.0352H26.2479M19.4142 30.711H21.3459M19.4142 21.3869H25.1354M10.8516 37.6832H15.3533V42.3871H10.8516V37.6832ZM10.8516 28.3591H15.3533V33.063H10.8516V28.3591ZM10.8516 19.0349H15.3533V23.7388H10.8516V19.0349Z" stroke="#52006A" stroke-width="2.03252" stroke-miterlimit="10" stroke-linecap="round" stroke-linejoin="round"/>
</svg>
