<svg width="58" height="46" viewBox="0 0 58 46" fill="none" xmlns="http://www.w3.org/2000/svg">
<path d="M45.2978 29.4255L48.0278 31.4764M20.8023 6.08008H25.5257V12.4528H20.8023V6.08008ZM10.8391 23.0968H15.5626V29.4695H10.8391V23.0968ZM33.3602 20.4396C35.2401 17.949 38.7889 17.4465 41.2861 19.3216C43.7831 21.1966 44.2838 24.7332 42.4039 27.2238C40.5271 29.7144 36.9783 30.2138 34.4812 28.3419C31.9841 26.4669 31.4834 22.9304 33.3602 20.4396ZM48.0656 31.423C48.982 30.2075 50.7297 29.9626 51.9483 30.8765L55.5034 33.5429C56.7189 34.4569 56.9676 36.2001 56.0513 37.4123C55.1349 38.6278 53.3873 38.876 52.1718 37.962L48.6166 35.2923C47.398 34.3784 47.1493 32.6385 48.0656 31.423ZM1.85206 40.1104H44.4758C44.7278 40.1104 44.9324 40.3176 44.9324 40.5689V43.7317C44.9324 43.983 44.7277 44.1903 44.4758 44.1903H1.85206C1.60013 44.1903 1.39551 43.983 1.39551 43.7317V40.5689C1.39551 40.3176 1.60024 40.1104 1.85206 40.1104Z" stroke="#52006A" stroke-width="1.66627" stroke-miterlimit="10" stroke-linecap="round" stroke-linejoin="round"/>
<path d="M3.2373 40.1104V33.989M3.2373 30.151V23.995C3.2373 23.5019 3.64354 23.0968 4.13787 23.0968H22.2631C22.7574 23.0968 23.1636 23.5019 23.1636 23.995V40.1104M45.9902 19.287C47.7378 22.3964 47.5992 26.3727 45.31 29.4066C42.2241 33.4991 36.3955 34.3188 32.2956 31.2408C28.1925 28.1629 27.3675 22.3493 30.4534 18.2568C33.5394 14.1644 39.368 13.3447 43.4711 16.4226" stroke="#52006A" stroke-width="1.66627" stroke-miterlimit="10" stroke-linecap="round" stroke-linejoin="round"/>
<path d="M43.0902 31.5141V40.1104M23.1638 23.995C23.1638 23.5019 23.5701 23.0968 24.0644 23.0968H28.6145M16.4472 6.08008H32.2265C32.7209 6.08008 33.127 6.4852 33.127 6.97831V15.8636M13.2007 23.0968V12.6379" stroke="#52006A" stroke-width="1.66627" stroke-miterlimit="10" stroke-linecap="round" stroke-linejoin="round"/>
<path fill-rule="evenodd" clip-rule="evenodd" d="M6.44 4.06057C8.31677 1.56994 11.8656 1.07051 14.3627 2.94561C16.8597 4.81749 17.3604 8.3572 15.4805 10.8478C13.6037 13.3384 10.0549 13.8379 7.55784 11.9659C5.06078 10.0908 4.56012 6.55119 6.44 4.06057Z" stroke="#52006A" stroke-width="1.66627" stroke-miterlimit="10" stroke-linecap="round" stroke-linejoin="round"/>
<path d="M8.81104 7.07251L10.5272 8.8282L17.0423 1.97195" stroke="#52006A" stroke-width="1.66627" stroke-miterlimit="10" stroke-linecap="round" stroke-linejoin="round"/>
</svg>
