<svg width="50" height="51" viewBox="0 0 50 51" fill="none" xmlns="http://www.w3.org/2000/svg">
<path d="M9.19665 25.9782H14.6435C14.7583 25.9782 14.8684 25.9325 14.9496 25.8513C15.0308 25.7701 15.0765 25.66 15.0765 25.5452C15.0765 25.4304 15.0308 25.3202 14.9496 25.239C14.8684 25.1578 14.7583 25.1122 14.6435 25.1122H9.19665C9.08182 25.1122 8.97169 25.1578 8.89049 25.239C8.80929 25.3202 8.76367 25.4304 8.76367 25.5452C8.76367 25.66 8.80929 25.7701 8.89049 25.8513C8.97169 25.9325 9.08182 25.9782 9.19665 25.9782ZM20.809 25.1122H17.8562C17.7413 25.1122 17.6312 25.1578 17.55 25.239C17.4688 25.3202 17.4232 25.4304 17.4232 25.5452C17.4232 25.66 17.4688 25.7701 17.55 25.8513C17.6312 25.9325 17.7413 25.9782 17.8562 25.9782H20.809C20.9239 25.9782 21.034 25.9325 21.1152 25.8513C21.1964 25.7701 21.242 25.66 21.242 25.5452C21.242 25.4304 21.1964 25.3202 21.1152 25.239C21.034 25.1578 20.9239 25.1122 20.809 25.1122ZM20.809 28.8357H9.19665C9.08182 28.8357 8.97169 28.8814 8.89049 28.9626C8.80929 29.0438 8.76367 29.1539 8.76367 29.2687C8.76367 29.3835 8.80929 29.4937 8.89049 29.5749C8.97169 29.6561 9.08182 29.7017 9.19665 29.7017H20.809C20.9239 29.7017 21.034 29.6561 21.1152 29.5749C21.1964 29.4937 21.242 29.3835 21.242 29.2687C21.242 29.1539 21.1964 29.0438 21.1152 28.9626C21.034 28.8814 20.9239 28.8357 20.809 28.8357ZM9.19665 32.4467C9.08182 32.4467 8.97169 32.4923 8.89049 32.5735C8.80929 32.6547 8.76367 32.7648 8.76367 32.8797C8.76367 32.9945 8.80929 33.1046 8.89049 33.1858C8.97169 33.267 9.08182 33.3126 9.19665 33.3126H12.9376C13.0524 33.3126 13.1625 33.267 13.2437 33.1858C13.3249 33.1046 13.3705 32.9945 13.3705 32.8797C13.3705 32.7648 13.3249 32.6547 13.2437 32.5735C13.1625 32.4923 13.0524 32.4467 12.9376 32.4467H9.19665ZM20.809 32.4467H16.5572C16.4424 32.4467 16.3323 32.4923 16.2511 32.5735C16.1699 32.6547 16.1243 32.7648 16.1243 32.8797C16.1243 32.9945 16.1699 33.1046 16.2511 33.1858C16.3323 33.267 16.4424 33.3126 16.5572 33.3126H20.809C20.9239 33.3126 21.034 33.267 21.1152 33.1858C21.1964 33.1046 21.242 32.9945 21.242 32.8797C21.242 32.7648 21.1964 32.6547 21.1152 32.5735C21.034 32.4923 20.9239 32.4467 20.809 32.4467Z" fill="#52006A"/>
<path d="M49.134 3.85343H46.1465V0.865938C46.1465 0.636277 46.0553 0.416022 45.8929 0.253627C45.7305 0.0912325 45.5102 0 45.2806 0H34.9498C32.8292 0.00274208 30.7561 0.627791 28.9874 1.79765C27.2187 2.96752 25.8323 4.63075 25 6.58113C24.1668 4.63141 22.7801 2.96881 21.0117 1.79908C19.2432 0.629357 17.1705 0.00385859 15.0502 0H4.71943C4.48977 0 4.26951 0.0912325 4.10711 0.253627C3.94471 0.416022 3.85348 0.636277 3.85348 0.865938V3.85343H0.865951C0.636286 3.85343 0.416028 3.94466 0.253631 4.10705C0.0912338 4.26945 0 4.4897 0 4.71936V42.431C0 42.6606 0.0912338 42.8809 0.253631 43.0433C0.416028 43.2057 0.636286 43.2969 0.865951 43.2969C5.0052 43.2969 11.7163 43.2363 12.5216 43.2969C12.6426 43.3093 12.7644 43.3093 12.8853 43.2969C13.5929 43.2145 14.3099 43.283 14.9891 43.498C15.6682 43.7129 16.2941 44.0694 16.8254 44.5439C17.8732 45.583 18.3582 47.2716 18.2802 49.549C18.2761 49.6652 18.2955 49.7811 18.3371 49.8897C18.3788 49.9983 18.4419 50.0974 18.5227 50.1811C18.6032 50.2656 18.6999 50.3329 18.807 50.379C18.9142 50.4251 19.0295 50.4491 19.1462 50.4496H30.8365C30.9532 50.4491 31.0685 50.4251 31.1757 50.379C31.2828 50.3329 31.3795 50.2656 31.46 50.1811C31.5408 50.0974 31.6039 49.9983 31.6456 49.8897C31.6872 49.7811 31.7066 49.6652 31.7025 49.549C31.6822 48.9061 31.7199 48.2627 31.815 47.6266L30.0831 47.3755C30.022 47.8293 29.9844 48.286 29.9706 48.7437H20.0208C20.1087 46.74 19.4023 44.7826 18.0551 43.2969C17.3595 42.6592 16.5372 42.1753 15.6419 41.8769C14.7466 41.5784 13.7985 41.4722 12.8594 41.565H12.7641C11.8982 41.4611 9.48216 41.4698 1.76654 41.565V5.5853H3.85348V38.5689C3.85348 38.7985 3.94471 39.0188 4.10711 39.1812C4.26951 39.3436 4.48977 39.4348 4.71943 39.4348H15.4312C18.185 39.5734 21.5362 40.777 21.822 45.7562C21.8352 45.9767 21.9323 46.1838 22.0933 46.3352C22.2542 46.4865 22.467 46.5706 22.6879 46.5702H27.3121C27.533 46.5706 27.7458 46.4865 27.9067 46.3352C28.0677 46.1838 28.1648 45.9767 28.178 45.7562C28.198 45.2532 28.2559 44.7524 28.3512 44.2581L26.6193 43.8771C26.5463 44.1999 26.4913 44.5266 26.4548 44.8556H23.4759C22.9304 40.5259 20.0641 37.9281 15.5178 37.7203H5.58538V1.73188H15.0502C17.4595 1.73646 19.7687 2.69615 21.4715 4.40055C23.1743 6.10495 24.1318 8.41499 24.134 10.8242V14.7989H25.8659V10.8242C25.8659 8.41429 26.8227 6.10292 28.526 4.39802C30.2293 2.69313 32.5398 1.73417 34.9498 1.73188H44.4146V20.5314H46.1465V5.5853H48.2681V30.7754H50V4.71936C50 4.4897 49.9088 4.26945 49.7464 4.10705C49.584 3.94466 49.3637 3.85343 49.134 3.85343Z" fill="#52006A"/>
<path d="M40.8046 10.1141H29.2181C29.1033 10.1141 28.9932 10.1597 28.912 10.2409C28.8308 10.3221 28.7852 10.4322 28.7852 10.5471C28.7852 10.6619 28.8308 10.772 28.912 10.8532C28.9932 10.9344 29.1033 10.98 29.2181 10.98H40.8046C40.9194 10.98 41.0295 10.9344 41.1107 10.8532C41.1919 10.772 41.2375 10.6619 41.2375 10.5471C41.2375 10.4322 41.1919 10.3221 41.1107 10.2409C41.0295 10.1597 40.9194 10.1141 40.8046 10.1141ZM37.0636 18.5137H40.8046C40.9187 18.5115 41.0275 18.4652 41.1083 18.3844C41.189 18.3037 41.2353 18.1949 41.2375 18.0807C41.2375 17.9659 41.1919 17.8558 41.1107 17.7746C41.0295 17.6934 40.9194 17.6478 40.8046 17.6478H37.0636C36.9488 17.6478 36.8387 17.6934 36.7575 17.7746C36.6763 17.8558 36.6307 17.9659 36.6307 18.0807C36.6307 18.1956 36.6763 18.3057 36.7575 18.3869C36.8387 18.4681 36.9488 18.5137 37.0636 18.5137ZM29.2181 18.5137H33.4786C33.5927 18.5115 33.7016 18.4652 33.7823 18.3844C33.863 18.3037 33.9094 18.1949 33.9116 18.0807C33.9116 17.9659 33.866 17.8558 33.7848 17.7746C33.7036 17.6934 33.5934 17.6478 33.4786 17.6478H29.2181C29.1033 17.6478 28.9932 17.6934 28.912 17.7746C28.8308 17.8558 28.7852 17.9659 28.7852 18.0807C28.7852 18.1956 28.8308 18.3057 28.912 18.3869C28.9932 18.4681 29.1033 18.5137 29.2181 18.5137ZM41.1163 14.3485C41.1163 14.2337 41.0707 14.1236 40.9895 14.0424C40.9083 13.9612 40.7982 13.9156 40.6833 13.9156H34.7775C34.6627 13.9156 34.5526 13.9612 34.4714 14.0424C34.3902 14.1236 34.3446 14.2337 34.3446 14.3485C34.3446 14.4634 34.3902 14.5735 34.4714 14.6547C34.5526 14.7359 34.6627 14.7815 34.7775 14.7815H40.6833C40.7982 14.7815 40.9083 14.7359 40.9895 14.6547C41.0707 14.5735 41.1163 14.4634 41.1163 14.3485ZM29.2181 14.7815H32.1797C32.2938 14.7793 32.4027 14.733 32.4834 14.6522C32.5641 14.5715 32.6104 14.4627 32.6127 14.3485C32.6127 14.2337 32.567 14.1236 32.4858 14.0424C32.4046 13.9612 32.2945 13.9156 32.1797 13.9156H29.2181C29.1033 13.9156 28.9932 13.9612 28.912 14.0424C28.8308 14.1236 28.7852 14.2337 28.7852 14.3485C28.7852 14.4634 28.8308 14.5735 28.912 14.6547C28.9932 14.7359 29.1033 14.7815 29.2181 14.7815Z" fill="#52006A"/>
<path d="M44.3113 22.6269C44.1039 22.0721 43.7494 21.5841 43.2859 21.2153C42.8223 20.8465 42.2672 20.6108 41.6799 20.5334C41.0927 20.456 40.4954 20.5398 39.9522 20.7759C39.4089 21.012 38.9401 21.3914 38.596 21.8736C38.1502 21.4314 37.5874 21.1256 36.9739 20.9922C36.3603 20.8587 35.7214 20.9031 35.1322 21.1202C34.4349 21.3811 33.8481 21.8732 33.4696 22.5144C32.8114 22.0252 31.994 21.8002 31.1783 21.8835C30.3625 21.9668 29.6075 22.3525 29.0619 22.9646L27.4512 18.6349C27.2071 17.9881 26.764 17.4355 26.1856 17.0567C25.6073 16.6778 24.9236 16.4924 24.2331 16.5271C23.5426 16.5618 22.881 16.8147 22.3435 17.2496C21.806 17.6844 21.4204 18.2787 21.2423 18.9467V9.10097C21.2423 8.98614 21.1967 8.87601 21.1155 8.79481C21.0343 8.71362 20.9242 8.668 20.8094 8.668H8.43493C8.3201 8.668 8.20997 8.71362 8.12877 8.79481C8.04757 8.87601 8.00195 8.98614 8.00195 9.10097V21.4406C8.00417 21.5547 8.0505 21.6636 8.13122 21.7443C8.21194 21.825 8.32079 21.8713 8.43493 21.8736H11.0328C11.1469 21.8713 11.2558 21.825 11.3365 21.7443C11.4172 21.6636 11.4635 21.5547 11.4658 21.4406C11.4658 21.3258 11.4201 21.2156 11.3389 21.1344C11.2577 21.0532 11.1476 21.0076 11.0328 21.0076H8.8679V9.52528H20.3764V21.0076H14.0117C13.8968 21.0076 13.7867 21.0532 13.7055 21.1344C13.6243 21.2156 13.5787 21.3258 13.5787 21.4406C13.5787 21.5554 13.6243 21.6655 13.7055 21.7467C13.7867 21.8279 13.8968 21.8736 14.0117 21.8736H20.8094C20.9242 21.8736 21.0343 21.8279 21.1155 21.7467C21.1967 21.6655 21.2423 21.5554 21.2423 21.4406V20.5746C21.2423 20.6872 21.2943 20.7998 21.3376 20.9124L25.1651 31.1737C24.6178 31.1066 24.0624 31.1611 23.5385 31.3332C23.0146 31.5054 22.5352 31.7909 22.1343 32.1696C21.6694 32.6764 21.3831 33.3215 21.319 34.0063C21.2549 34.6911 21.4165 35.378 21.7792 35.9624C22.1776 36.7331 24.1433 38.6295 27.8409 42.1885C29.1312 43.4268 30.4994 44.7343 31.7983 46.0073C32.7564 47.0138 33.909 47.8153 35.1862 48.3631C36.4633 48.9109 37.8385 49.1935 39.2281 49.1939C40.455 49.1913 41.6717 48.9714 42.8218 48.5445C44.0086 48.1656 45.1047 47.5464 46.0418 46.7256C46.9788 45.9047 47.7369 44.8997 48.2687 43.7731C50.5808 38.5775 47.6625 31.2343 45.3244 25.32C44.9867 24.3848 44.6317 23.4755 44.3113 22.6269ZM46.7186 43.0717C46.2766 43.9948 45.6472 44.8158 44.8704 45.4822C44.0937 46.1486 43.1866 46.6459 42.207 46.9425C40.6376 47.5283 38.9305 47.6395 37.2984 47.2622C35.6662 46.885 34.1811 46.036 33.0279 44.8209C31.7203 43.5393 30.3435 42.2231 29.0532 40.9848C27.0348 39.1665 25.1181 37.2383 23.312 35.209C23.1255 34.9465 23.0296 34.6303 23.039 34.3084C23.0484 33.9865 23.1625 33.6764 23.3639 33.4252C23.553 33.2494 23.7752 33.1129 24.0175 33.0237C24.2598 32.9345 24.5175 32.8944 24.7754 32.9056C25.156 32.9083 25.5324 32.9848 25.8838 33.1308L27.5118 37.4604C27.5737 37.6262 27.685 37.769 27.8305 37.8696C27.976 37.9702 28.1489 38.0239 28.3258 38.0233C28.4291 38.0242 28.5318 38.0066 28.6289 37.9713C28.736 37.9318 28.8342 37.8715 28.918 37.7939C29.0017 37.7163 29.0692 37.6229 29.1167 37.5191C29.1642 37.4153 29.1907 37.3031 29.1946 37.189C29.1986 37.0749 29.18 36.9612 29.1398 36.8543L27.4079 32.1609L22.9569 20.3495C22.8497 20.0648 22.8297 19.7546 22.8993 19.4585C22.969 19.1623 23.1252 18.8936 23.348 18.6865C23.5709 18.4795 23.8503 18.3434 24.1508 18.2957C24.4513 18.2479 24.7591 18.2907 25.0352 18.4185C25.2188 18.5028 25.3837 18.6228 25.5205 18.7714C25.6573 18.9201 25.7631 19.0945 25.8319 19.2844L28.4297 26.2898L30.8544 32.7671C30.9163 32.9328 31.0275 33.0756 31.1731 33.1762C31.3186 33.2769 31.4915 33.3305 31.6684 33.3299C31.7724 33.3299 31.8754 33.3093 31.9715 33.2693C32.1841 33.1877 32.3561 33.0257 32.4501 32.8182C32.5441 32.6107 32.5526 32.3746 32.4737 32.1609L30.0837 25.675C29.9439 25.2991 29.9562 24.8835 30.1179 24.5165C30.2796 24.1495 30.5779 23.8599 30.9496 23.7093C31.3265 23.5646 31.7452 23.5744 32.1148 23.7365C32.4845 23.8987 32.7753 24.2001 32.924 24.5753L33.1925 25.294L35.3487 31.0438C35.4106 31.2096 35.5218 31.3524 35.6673 31.453C35.8129 31.5536 35.9857 31.6073 36.1627 31.6067C36.2659 31.6064 36.3683 31.5888 36.4658 31.5547C36.6802 31.4816 36.8575 31.3273 36.9595 31.1249C37.0615 30.9225 37.0801 30.6882 37.0113 30.4723L34.8464 24.7138C34.7759 24.5251 34.7433 24.3243 34.7504 24.1229C34.7575 23.9215 34.8042 23.7235 34.8878 23.5401C34.9714 23.3568 35.0904 23.1917 35.2378 23.0544C35.3852 22.917 35.5582 22.81 35.747 22.7395C36.1283 22.5971 36.5505 22.612 36.9207 22.7809C37.1041 22.8645 37.2691 22.9834 37.4065 23.1308C37.5439 23.2783 37.6509 23.4513 37.7214 23.6401L38.1977 24.913L39.8689 29.4419C39.9309 29.6076 40.0421 29.7504 40.1876 29.851C40.3331 29.9517 40.506 30.0053 40.6829 30.0047C40.7862 30.0044 40.8886 29.9868 40.986 29.9528C41.0931 29.9133 41.1914 29.853 41.2751 29.7753C41.3588 29.6977 41.4263 29.6043 41.4738 29.5005C41.5213 29.3967 41.5478 29.2845 41.5518 29.1704C41.5557 29.0563 41.5371 28.9426 41.4969 28.8357L39.817 24.3588C39.7379 24.1726 39.6972 23.9723 39.6972 23.77C39.6972 23.5676 39.7379 23.3674 39.817 23.1811C39.8983 22.9956 40.0173 22.8291 40.1664 22.6919C40.3154 22.5548 40.4913 22.4501 40.6829 22.3845C41.0599 22.2421 41.4777 22.253 41.8467 22.4148C42.2157 22.5767 42.5067 22.8766 42.6573 23.2504C42.9777 24.1163 43.3414 25.0256 43.7138 25.9781C45.9739 31.5721 48.7363 38.5515 46.7186 43.0717Z" fill="#52006A"/>
<mask id="path-5-outside-1_2994_15398" maskUnits="userSpaceOnUse" x="9.69141" y="9.22681" width="9" height="7" fill="black">
<rect fill="white" x="9.69141" y="9.22681" width="9" height="7"/>
<path d="M12.2743 14.0199C12.0366 14.0203 11.8019 13.967 11.5877 13.8641C11.3734 13.7612 11.1851 13.6113 11.0368 13.4256C10.8885 13.2398 10.784 13.023 10.7311 12.7913C10.6782 12.5596 10.6782 12.3189 10.7312 12.0872C10.7841 11.8555 10.8887 11.6387 11.0371 11.453C11.1854 11.2673 11.3738 11.1175 11.588 11.0146C11.8023 10.9118 12.0371 10.8586 12.2748 10.859C12.5125 10.8594 12.747 10.9134 12.9609 11.017C12.9783 10.9873 12.9965 10.9579 13.0158 10.9291C13.0272 10.9115 13.0419 10.8963 13.0592 10.8844C13.0765 10.8725 13.096 10.8642 13.1166 10.86C13.1371 10.8557 13.1583 10.8556 13.1789 10.8596C13.1995 10.8636 13.2191 10.8717 13.2366 10.8834C13.254 10.895 13.269 10.9101 13.2805 10.9276C13.2921 10.9451 13.3001 10.9647 13.304 10.9853C13.3079 11.006 13.3076 11.0272 13.3033 11.0477C13.2989 11.0682 13.2905 11.0877 13.2785 11.1049C13.2376 11.1661 13.202 11.2307 13.1723 11.298C13.1631 11.3188 13.1496 11.3374 13.1327 11.3524C13.1158 11.3675 13.0958 11.3788 13.0741 11.3855C13.0524 11.3921 13.0295 11.3941 13.007 11.3911C12.9845 11.3882 12.9629 11.3804 12.9437 11.3684C12.7676 11.2582 12.567 11.1931 12.3598 11.1789C12.1525 11.1647 11.945 11.2018 11.7555 11.287C11.566 11.3721 11.4004 11.5026 11.2734 11.667C11.1464 11.8314 11.0619 12.0246 11.0273 12.2294C10.9928 12.4343 11.0093 12.6445 11.0754 12.8414C11.1414 13.0384 11.255 13.216 11.4061 13.3585C11.5572 13.5011 11.7411 13.6042 11.9416 13.6588C12.142 13.7133 12.3529 13.7176 12.5554 13.6713C12.5756 13.6667 12.5966 13.6661 12.617 13.6696C12.6375 13.6731 12.6571 13.6806 12.6747 13.6916C12.6922 13.7027 12.7075 13.7171 12.7195 13.734C12.7315 13.751 12.74 13.7701 12.7446 13.7904C12.7493 13.8106 12.7498 13.8316 12.7463 13.852C12.7428 13.8725 12.7354 13.8921 12.7243 13.9097C12.7132 13.9272 12.6988 13.9425 12.6819 13.9545C12.6649 13.9665 12.6458 13.975 12.6255 13.9796C12.5103 14.0061 12.3925 14.0196 12.2743 14.0199ZM16.3839 14.0199C16.2657 14.0196 16.1479 14.0061 16.0327 13.9796C15.9918 13.9703 15.9562 13.9452 15.9339 13.9097C15.9116 13.8742 15.9043 13.8313 15.9136 13.7904C15.9229 13.7495 15.948 13.714 15.9835 13.6916C16.019 13.6693 16.0619 13.662 16.1028 13.6713C16.3056 13.718 16.5167 13.714 16.7175 13.6596C16.9183 13.6052 17.1025 13.5021 17.254 13.3594C17.4054 13.2168 17.5192 13.039 17.5855 12.8418C17.6517 12.6446 17.6683 12.4341 17.6337 12.229C17.5991 12.0238 17.5144 11.8304 17.3872 11.6658C17.2599 11.5013 17.094 11.3706 16.9042 11.2855C16.7144 11.2004 16.5065 11.1634 16.299 11.1779C16.0914 11.1923 15.8907 11.2578 15.7145 11.3684C15.6953 11.3804 15.6737 11.3882 15.6512 11.3911C15.6287 11.3941 15.6058 11.3921 15.5841 11.3855C15.5624 11.3788 15.5424 11.3675 15.5255 11.3524C15.5086 11.3374 15.4951 11.3188 15.4859 11.298C15.3871 11.0735 15.2252 10.8826 15.0198 10.7485C14.8144 10.6144 14.5744 10.543 14.3291 10.5429C14.04 10.5416 13.7594 10.6409 13.5353 10.8237C13.5192 10.8368 13.5007 10.8466 13.4808 10.8525C13.4608 10.8584 13.44 10.8604 13.4193 10.8582C13.3987 10.856 13.3786 10.8498 13.3604 10.8399C13.3421 10.83 13.326 10.8166 13.3129 10.8005C13.2998 10.7844 13.2901 10.7658 13.2842 10.7459C13.2783 10.726 13.2764 10.7051 13.2785 10.6845C13.2807 10.6638 13.2869 10.6438 13.2969 10.6255C13.3068 10.6073 13.3202 10.5912 13.3363 10.5781C13.5138 10.4346 13.7203 10.3312 13.9415 10.2752C14.1628 10.2191 14.3936 10.2117 14.618 10.2534C14.8424 10.2951 15.0551 10.385 15.2414 10.5168C15.4277 10.6486 15.5832 10.8193 15.6973 11.017C15.9112 10.9134 16.1457 10.8594 16.3834 10.859C16.6211 10.8586 16.8559 10.9118 17.0702 11.0146C17.2844 11.1175 17.4728 11.2673 17.6211 11.453C17.7695 11.6387 17.8741 11.8555 17.927 12.0872C17.98 12.3189 17.9801 12.5596 17.9271 12.7913C17.8742 13.023 17.7697 13.2398 17.6214 13.4256C17.4731 13.6113 17.2848 13.7612 17.0705 13.8641C16.8563 13.967 16.6216 14.0203 16.3839 14.0199ZM16.5419 15.4424C16.515 15.4423 16.4885 15.4355 16.465 15.4223C16.4415 15.4092 16.4217 15.3903 16.4075 15.3674C16.3934 15.3445 16.3853 15.3183 16.3841 15.2914C16.3829 15.2645 16.3886 15.2378 16.4006 15.2137L16.6289 14.7574C15.8744 14.5848 15.1031 14.4965 14.3291 14.4941C13.5552 14.4965 12.7839 14.5848 12.0295 14.7574L12.2585 15.2137C12.2678 15.2322 12.2733 15.2525 12.2748 15.2732C12.2763 15.2939 12.2736 15.3147 12.2671 15.3344C12.2605 15.3541 12.2501 15.3723 12.2365 15.388C12.2229 15.4036 12.2063 15.4165 12.1877 15.4258C12.1691 15.435 12.1489 15.4406 12.1282 15.442C12.1075 15.4435 12.0867 15.4409 12.067 15.4343C12.0473 15.4277 12.0291 15.4173 12.0134 15.4037C11.9977 15.3901 11.9849 15.3735 11.9756 15.355L11.6595 14.7228C11.6491 14.702 11.6434 14.6792 11.6428 14.656C11.6423 14.6327 11.6468 14.6097 11.6562 14.5884C11.6655 14.5671 11.6795 14.5482 11.697 14.5329C11.7145 14.5177 11.7352 14.5065 11.7575 14.5001C13.4455 14.0706 15.2143 14.0706 16.9023 14.5001C16.9246 14.5065 16.9453 14.5177 16.9628 14.5329C16.9803 14.5482 16.9942 14.5671 17.0036 14.5884C17.013 14.6097 17.0175 14.6327 17.0169 14.656C17.0164 14.6792 17.0107 14.702 17.0003 14.7228L16.6842 15.355C16.671 15.3814 16.6507 15.4035 16.6255 15.419C16.6004 15.4344 16.5714 15.4425 16.5419 15.4424Z"/>
</mask>
<path d="M12.2743 14.0199C12.0366 14.0203 11.8019 13.967 11.5877 13.8641C11.3734 13.7612 11.1851 13.6113 11.0368 13.4256C10.8885 13.2398 10.784 13.023 10.7311 12.7913C10.6782 12.5596 10.6782 12.3189 10.7312 12.0872C10.7841 11.8555 10.8887 11.6387 11.0371 11.453C11.1854 11.2673 11.3738 11.1175 11.588 11.0146C11.8023 10.9118 12.0371 10.8586 12.2748 10.859C12.5125 10.8594 12.747 10.9134 12.9609 11.017C12.9783 10.9873 12.9965 10.9579 13.0158 10.9291C13.0272 10.9115 13.0419 10.8963 13.0592 10.8844C13.0765 10.8725 13.096 10.8642 13.1166 10.86C13.1371 10.8557 13.1583 10.8556 13.1789 10.8596C13.1995 10.8636 13.2191 10.8717 13.2366 10.8834C13.254 10.895 13.269 10.9101 13.2805 10.9276C13.2921 10.9451 13.3001 10.9647 13.304 10.9853C13.3079 11.006 13.3076 11.0272 13.3033 11.0477C13.2989 11.0682 13.2905 11.0877 13.2785 11.1049C13.2376 11.1661 13.202 11.2307 13.1723 11.298C13.1631 11.3188 13.1496 11.3374 13.1327 11.3524C13.1158 11.3675 13.0958 11.3788 13.0741 11.3855C13.0524 11.3921 13.0295 11.3941 13.007 11.3911C12.9845 11.3882 12.9629 11.3804 12.9437 11.3684C12.7676 11.2582 12.567 11.1931 12.3598 11.1789C12.1525 11.1647 11.945 11.2018 11.7555 11.287C11.566 11.3721 11.4004 11.5026 11.2734 11.667C11.1464 11.8314 11.0619 12.0246 11.0273 12.2294C10.9928 12.4343 11.0093 12.6445 11.0754 12.8414C11.1414 13.0384 11.255 13.216 11.4061 13.3585C11.5572 13.5011 11.7411 13.6042 11.9416 13.6588C12.142 13.7133 12.3529 13.7176 12.5554 13.6713C12.5756 13.6667 12.5966 13.6661 12.617 13.6696C12.6375 13.6731 12.6571 13.6806 12.6747 13.6916C12.6922 13.7027 12.7075 13.7171 12.7195 13.734C12.7315 13.751 12.74 13.7701 12.7446 13.7904C12.7493 13.8106 12.7498 13.8316 12.7463 13.852C12.7428 13.8725 12.7354 13.8921 12.7243 13.9097C12.7132 13.9272 12.6988 13.9425 12.6819 13.9545C12.6649 13.9665 12.6458 13.975 12.6255 13.9796C12.5103 14.0061 12.3925 14.0196 12.2743 14.0199ZM16.3839 14.0199C16.2657 14.0196 16.1479 14.0061 16.0327 13.9796C15.9918 13.9703 15.9562 13.9452 15.9339 13.9097C15.9116 13.8742 15.9043 13.8313 15.9136 13.7904C15.9229 13.7495 15.948 13.714 15.9835 13.6916C16.019 13.6693 16.0619 13.662 16.1028 13.6713C16.3056 13.718 16.5167 13.714 16.7175 13.6596C16.9183 13.6052 17.1025 13.5021 17.254 13.3594C17.4054 13.2168 17.5192 13.039 17.5855 12.8418C17.6517 12.6446 17.6683 12.4341 17.6337 12.229C17.5991 12.0238 17.5144 11.8304 17.3872 11.6658C17.2599 11.5013 17.094 11.3706 16.9042 11.2855C16.7144 11.2004 16.5065 11.1634 16.299 11.1779C16.0914 11.1923 15.8907 11.2578 15.7145 11.3684C15.6953 11.3804 15.6737 11.3882 15.6512 11.3911C15.6287 11.3941 15.6058 11.3921 15.5841 11.3855C15.5624 11.3788 15.5424 11.3675 15.5255 11.3524C15.5086 11.3374 15.4951 11.3188 15.4859 11.298C15.3871 11.0735 15.2252 10.8826 15.0198 10.7485C14.8144 10.6144 14.5744 10.543 14.3291 10.5429C14.04 10.5416 13.7594 10.6409 13.5353 10.8237C13.5192 10.8368 13.5007 10.8466 13.4808 10.8525C13.4608 10.8584 13.44 10.8604 13.4193 10.8582C13.3987 10.856 13.3786 10.8498 13.3604 10.8399C13.3421 10.83 13.326 10.8166 13.3129 10.8005C13.2998 10.7844 13.2901 10.7658 13.2842 10.7459C13.2783 10.726 13.2764 10.7051 13.2785 10.6845C13.2807 10.6638 13.2869 10.6438 13.2969 10.6255C13.3068 10.6073 13.3202 10.5912 13.3363 10.5781C13.5138 10.4346 13.7203 10.3312 13.9415 10.2752C14.1628 10.2191 14.3936 10.2117 14.618 10.2534C14.8424 10.2951 15.0551 10.385 15.2414 10.5168C15.4277 10.6486 15.5832 10.8193 15.6973 11.017C15.9112 10.9134 16.1457 10.8594 16.3834 10.859C16.6211 10.8586 16.8559 10.9118 17.0702 11.0146C17.2844 11.1175 17.4728 11.2673 17.6211 11.453C17.7695 11.6387 17.8741 11.8555 17.927 12.0872C17.98 12.3189 17.9801 12.5596 17.9271 12.7913C17.8742 13.023 17.7697 13.2398 17.6214 13.4256C17.4731 13.6113 17.2848 13.7612 17.0705 13.8641C16.8563 13.967 16.6216 14.0203 16.3839 14.0199ZM16.5419 15.4424C16.515 15.4423 16.4885 15.4355 16.465 15.4223C16.4415 15.4092 16.4217 15.3903 16.4075 15.3674C16.3934 15.3445 16.3853 15.3183 16.3841 15.2914C16.3829 15.2645 16.3886 15.2378 16.4006 15.2137L16.6289 14.7574C15.8744 14.5848 15.1031 14.4965 14.3291 14.4941C13.5552 14.4965 12.7839 14.5848 12.0295 14.7574L12.2585 15.2137C12.2678 15.2322 12.2733 15.2525 12.2748 15.2732C12.2763 15.2939 12.2736 15.3147 12.2671 15.3344C12.2605 15.3541 12.2501 15.3723 12.2365 15.388C12.2229 15.4036 12.2063 15.4165 12.1877 15.4258C12.1691 15.435 12.1489 15.4406 12.1282 15.442C12.1075 15.4435 12.0867 15.4409 12.067 15.4343C12.0473 15.4277 12.0291 15.4173 12.0134 15.4037C11.9977 15.3901 11.9849 15.3735 11.9756 15.355L11.6595 14.7228C11.6491 14.702 11.6434 14.6792 11.6428 14.656C11.6423 14.6327 11.6468 14.6097 11.6562 14.5884C11.6655 14.5671 11.6795 14.5482 11.697 14.5329C11.7145 14.5177 11.7352 14.5065 11.7575 14.5001C13.4455 14.0706 15.2143 14.0706 16.9023 14.5001C16.9246 14.5065 16.9453 14.5177 16.9628 14.5329C16.9803 14.5482 16.9942 14.5671 17.0036 14.5884C17.013 14.6097 17.0175 14.6327 17.0169 14.656C17.0164 14.6792 17.0107 14.702 17.0003 14.7228L16.6842 15.355C16.671 15.3814 16.6507 15.4035 16.6255 15.419C16.6004 15.4344 16.5714 15.4425 16.5419 15.4424Z" fill="#52006A"/>
<path d="M12.2743 14.0199C12.0366 14.0203 11.8019 13.967 11.5877 13.8641C11.3734 13.7612 11.1851 13.6113 11.0368 13.4256C10.8885 13.2398 10.784 13.023 10.7311 12.7913C10.6782 12.5596 10.6782 12.3189 10.7312 12.0872C10.7841 11.8555 10.8887 11.6387 11.0371 11.453C11.1854 11.2673 11.3738 11.1175 11.588 11.0146C11.8023 10.9118 12.0371 10.8586 12.2748 10.859C12.5125 10.8594 12.747 10.9134 12.9609 11.017C12.9783 10.9873 12.9965 10.9579 13.0158 10.9291C13.0272 10.9115 13.0419 10.8963 13.0592 10.8844C13.0765 10.8725 13.096 10.8642 13.1166 10.86C13.1371 10.8557 13.1583 10.8556 13.1789 10.8596C13.1995 10.8636 13.2191 10.8717 13.2366 10.8834C13.254 10.895 13.269 10.9101 13.2805 10.9276C13.2921 10.9451 13.3001 10.9647 13.304 10.9853C13.3079 11.006 13.3076 11.0272 13.3033 11.0477C13.2989 11.0682 13.2905 11.0877 13.2785 11.1049C13.2376 11.1661 13.202 11.2307 13.1723 11.298C13.1631 11.3188 13.1496 11.3374 13.1327 11.3524C13.1158 11.3675 13.0958 11.3788 13.0741 11.3855C13.0524 11.3921 13.0295 11.3941 13.007 11.3911C12.9845 11.3882 12.9629 11.3804 12.9437 11.3684C12.7676 11.2582 12.567 11.1931 12.3598 11.1789C12.1525 11.1647 11.945 11.2018 11.7555 11.287C11.566 11.3721 11.4004 11.5026 11.2734 11.667C11.1464 11.8314 11.0619 12.0246 11.0273 12.2294C10.9928 12.4343 11.0093 12.6445 11.0754 12.8414C11.1414 13.0384 11.255 13.216 11.4061 13.3585C11.5572 13.5011 11.7411 13.6042 11.9416 13.6588C12.142 13.7133 12.3529 13.7176 12.5554 13.6713C12.5756 13.6667 12.5966 13.6661 12.617 13.6696C12.6375 13.6731 12.6571 13.6806 12.6747 13.6916C12.6922 13.7027 12.7075 13.7171 12.7195 13.734C12.7315 13.751 12.74 13.7701 12.7446 13.7904C12.7493 13.8106 12.7498 13.8316 12.7463 13.852C12.7428 13.8725 12.7354 13.8921 12.7243 13.9097C12.7132 13.9272 12.6988 13.9425 12.6819 13.9545C12.6649 13.9665 12.6458 13.975 12.6255 13.9796C12.5103 14.0061 12.3925 14.0196 12.2743 14.0199ZM16.3839 14.0199C16.2657 14.0196 16.1479 14.0061 16.0327 13.9796C15.9918 13.9703 15.9562 13.9452 15.9339 13.9097C15.9116 13.8742 15.9043 13.8313 15.9136 13.7904C15.9229 13.7495 15.948 13.714 15.9835 13.6916C16.019 13.6693 16.0619 13.662 16.1028 13.6713C16.3056 13.718 16.5167 13.714 16.7175 13.6596C16.9183 13.6052 17.1025 13.5021 17.254 13.3594C17.4054 13.2168 17.5192 13.039 17.5855 12.8418C17.6517 12.6446 17.6683 12.4341 17.6337 12.229C17.5991 12.0238 17.5144 11.8304 17.3872 11.6658C17.2599 11.5013 17.094 11.3706 16.9042 11.2855C16.7144 11.2004 16.5065 11.1634 16.299 11.1779C16.0914 11.1923 15.8907 11.2578 15.7145 11.3684C15.6953 11.3804 15.6737 11.3882 15.6512 11.3911C15.6287 11.3941 15.6058 11.3921 15.5841 11.3855C15.5624 11.3788 15.5424 11.3675 15.5255 11.3524C15.5086 11.3374 15.4951 11.3188 15.4859 11.298C15.3871 11.0735 15.2252 10.8826 15.0198 10.7485C14.8144 10.6144 14.5744 10.543 14.3291 10.5429C14.04 10.5416 13.7594 10.6409 13.5353 10.8237C13.5192 10.8368 13.5007 10.8466 13.4808 10.8525C13.4608 10.8584 13.44 10.8604 13.4193 10.8582C13.3987 10.856 13.3786 10.8498 13.3604 10.8399C13.3421 10.83 13.326 10.8166 13.3129 10.8005C13.2998 10.7844 13.2901 10.7658 13.2842 10.7459C13.2783 10.726 13.2764 10.7051 13.2785 10.6845C13.2807 10.6638 13.2869 10.6438 13.2969 10.6255C13.3068 10.6073 13.3202 10.5912 13.3363 10.5781C13.5138 10.4346 13.7203 10.3312 13.9415 10.2752C14.1628 10.2191 14.3936 10.2117 14.618 10.2534C14.8424 10.2951 15.0551 10.385 15.2414 10.5168C15.4277 10.6486 15.5832 10.8193 15.6973 11.017C15.9112 10.9134 16.1457 10.8594 16.3834 10.859C16.6211 10.8586 16.8559 10.9118 17.0702 11.0146C17.2844 11.1175 17.4728 11.2673 17.6211 11.453C17.7695 11.6387 17.8741 11.8555 17.927 12.0872C17.98 12.3189 17.9801 12.5596 17.9271 12.7913C17.8742 13.023 17.7697 13.2398 17.6214 13.4256C17.4731 13.6113 17.2848 13.7612 17.0705 13.8641C16.8563 13.967 16.6216 14.0203 16.3839 14.0199ZM16.5419 15.4424C16.515 15.4423 16.4885 15.4355 16.465 15.4223C16.4415 15.4092 16.4217 15.3903 16.4075 15.3674C16.3934 15.3445 16.3853 15.3183 16.3841 15.2914C16.3829 15.2645 16.3886 15.2378 16.4006 15.2137L16.6289 14.7574C15.8744 14.5848 15.1031 14.4965 14.3291 14.4941C13.5552 14.4965 12.7839 14.5848 12.0295 14.7574L12.2585 15.2137C12.2678 15.2322 12.2733 15.2525 12.2748 15.2732C12.2763 15.2939 12.2736 15.3147 12.2671 15.3344C12.2605 15.3541 12.2501 15.3723 12.2365 15.388C12.2229 15.4036 12.2063 15.4165 12.1877 15.4258C12.1691 15.435 12.1489 15.4406 12.1282 15.442C12.1075 15.4435 12.0867 15.4409 12.067 15.4343C12.0473 15.4277 12.0291 15.4173 12.0134 15.4037C11.9977 15.3901 11.9849 15.3735 11.9756 15.355L11.6595 14.7228C11.6491 14.702 11.6434 14.6792 11.6428 14.656C11.6423 14.6327 11.6468 14.6097 11.6562 14.5884C11.6655 14.5671 11.6795 14.5482 11.697 14.5329C11.7145 14.5177 11.7352 14.5065 11.7575 14.5001C13.4455 14.0706 15.2143 14.0706 16.9023 14.5001C16.9246 14.5065 16.9453 14.5177 16.9628 14.5329C16.9803 14.5482 16.9942 14.5671 17.0036 14.5884C17.013 14.6097 17.0175 14.6327 17.0169 14.656C17.0164 14.6792 17.0107 14.702 17.0003 14.7228L16.6842 15.355C16.671 15.3814 16.6507 15.4035 16.6255 15.419C16.6004 15.4344 16.5714 15.4425 16.5419 15.4424Z" stroke="#52006A" stroke-width="0.2" mask="url(#path-5-outside-1_2994_15398)"/>
<path d="M16.2986 20.1074C16.3536 20.1076 16.4065 20.0859 16.4456 20.0471L16.4458 20.047L16.8935 19.5998L16.8936 19.5998C16.9326 19.5608 16.9545 19.5079 16.9545 19.4527C16.9545 19.3975 16.9326 19.3446 16.8936 19.3056L16.8936 19.3056L16.3731 18.7853L16.3731 18.7853L16.3725 18.7847C16.3332 18.7468 16.2807 18.7258 16.2261 18.7263C16.1716 18.7268 16.1194 18.7487 16.0808 18.7872C16.0422 18.8258 16.0203 18.878 16.0199 18.9326C16.0194 18.9871 16.0404 19.0397 16.0783 19.0789L16.0783 19.0789L16.0789 19.0795L16.4516 19.4521L16.2987 19.605L15.0284 18.3348L15.1815 18.1823L15.7626 18.7634L15.7626 18.7634L15.7632 18.764C15.8025 18.8019 15.855 18.8229 15.9096 18.8224C15.9641 18.8219 16.0163 18.8001 16.0549 18.7615C16.0935 18.7229 16.1153 18.6707 16.1158 18.6162C16.1163 18.5616 16.0953 18.5091 16.0574 18.4698L16.0574 18.4698L16.0568 18.4692L15.328 17.7405L15.328 17.7405L15.327 17.7395C15.2875 17.7022 15.2352 17.6814 15.1809 17.6814C15.1266 17.6814 15.0743 17.7022 15.0348 17.7395L15.0348 17.7395L15.0338 17.7405L14.5868 18.1876C14.5478 18.2266 14.5259 18.2795 14.5259 18.3347C14.5259 18.3899 14.5478 18.4428 14.5868 18.4818L14.5868 18.4818L16.1516 20.0464C16.1906 20.0854 16.2434 20.1074 16.2986 20.1074ZM16.2986 20.1074L16.2987 20.0574L16.2987 20.1074C16.2986 20.1074 16.2986 20.1074 16.2986 20.1074ZM15.9021 14.3707L15.8721 14.4107L15.9121 14.4407L16.165 14.6304L16.205 14.6604L16.235 14.6204L16.7092 13.9882L16.7392 13.9482L16.6992 13.9182L16.4463 13.7285L16.4063 13.6985L16.3763 13.7385L15.9021 14.3707ZM12.1181 13.9168L12.0781 13.9468L12.1081 13.9868L12.5823 14.619L12.6123 14.6589L12.6522 14.629L12.9051 14.4393L12.9451 14.4093L12.9151 14.3693L12.441 13.7371L12.411 13.6971L12.371 13.7271L12.1181 13.9168ZM11.2762 12.4394V12.4395C11.2762 12.4947 11.2981 12.5476 11.3371 12.5866C11.3761 12.6256 11.4291 12.6475 11.4842 12.6475C11.5394 12.6475 11.5923 12.6256 11.6313 12.5866C11.6704 12.5476 11.6923 12.4947 11.6923 12.4395C11.6923 12.2851 11.7536 12.137 11.8628 12.0278C11.972 11.9186 12.1201 11.8573 12.2745 11.8573C12.3297 11.8573 12.3826 11.8354 12.4216 11.7964C12.4607 11.7574 12.4826 11.7044 12.4826 11.6493C12.4826 11.5941 12.4607 11.5412 12.4216 11.5021C12.3826 11.4631 12.3297 11.4412 12.2745 11.4412L12.2745 11.4412C12.0098 11.4415 11.756 11.5467 11.5689 11.7339C11.3817 11.921 11.2764 12.1748 11.2762 12.4394Z" fill="#52006A" stroke="#52006A" stroke-width="0.1"/>
<path d="M12.4646 17.0295L12.4645 17.0294C12.2185 16.7827 12.0803 16.4485 12.0803 16.1C12.0803 15.7516 12.2185 15.4174 12.4645 15.1706L12.4656 15.1696L12.4656 15.1696C12.5051 15.1323 12.5574 15.1115 12.6117 15.1115C12.6661 15.1115 12.7183 15.1323 12.7579 15.1696L12.7589 15.1706L12.7589 15.1706L15.33 17.7411L15.3301 17.7411C15.3691 17.7801 15.391 17.833 15.391 17.8882C15.391 17.9434 15.3691 17.9963 15.3301 18.0353L15.33 18.0353L14.5477 18.8176C14.5477 18.8176 14.5477 18.8176 14.5477 18.8176C14.5282 18.837 14.5052 18.8524 14.4798 18.8629L12.4646 17.0295ZM12.4646 17.0295L14.2528 18.8176C14.2528 18.8176 14.2528 18.8176 14.2528 18.8176C14.2918 18.8566 14.3447 18.8785 14.3998 18.8786M12.4646 17.0295L14.3998 18.8786M14.3998 18.8786C14.3999 18.8786 14.3999 18.8786 14.3999 18.8786L14.3999 18.8286L14.3998 18.8786ZM12.5231 20.2756H12.5232C12.5783 20.2755 12.6311 20.2536 12.6701 20.2146C12.6701 20.2146 12.6701 20.2146 12.6701 20.2146L13.7877 19.0969L13.7877 19.0969C13.8267 19.0579 13.8486 19.005 13.8486 18.9498C13.8486 18.8946 13.8267 18.8417 13.7877 18.8027L13.7877 18.8027L13.3407 18.3557L13.3407 18.3557C13.3017 18.3167 13.2488 18.2948 13.1936 18.2948C13.1385 18.2948 13.0855 18.3167 13.0465 18.3557L13.0465 18.3557L12.7879 18.6143L12.7879 18.6143L12.7873 18.6149C12.7494 18.6542 12.7285 18.7067 12.7289 18.7613C12.7294 18.8158 12.7513 18.868 12.7899 18.9066C12.8284 18.9451 12.8806 18.967 12.9352 18.9675C12.9897 18.968 13.0423 18.947 13.0815 18.9091L13.0815 18.9091L13.0821 18.9085L13.1938 18.797L13.3466 18.9498L12.5231 19.7733L12.3702 19.6204L12.7384 19.2524C12.7385 19.2523 12.7386 19.2522 12.7387 19.2521C12.7584 19.2329 12.7742 19.2101 12.785 19.1849C12.7959 19.1595 12.8016 19.1322 12.8019 19.1045C12.8021 19.0769 12.7969 19.0495 12.7864 19.024C12.7759 18.9984 12.7605 18.9752 12.741 18.9556C12.7214 18.9361 12.6982 18.9206 12.6726 18.9102C12.6471 18.8997 12.6197 18.8945 12.592 18.8947C12.5644 18.8949 12.5371 18.9007 12.5117 18.9116C12.4865 18.9224 12.4636 18.9382 12.4445 18.9579L11.9289 19.4733L11.9289 19.4733C11.8899 19.5123 11.868 19.5652 11.868 19.6204C11.868 19.6756 11.8899 19.7285 11.9289 19.7675L11.9289 19.7675L12.376 20.2146C12.376 20.2146 12.376 20.2146 12.376 20.2146C12.415 20.2536 12.468 20.2755 12.5231 20.2756ZM12.4994 16.1752C12.4834 15.9835 12.5291 15.7924 12.6291 15.6293L14.8881 17.8882L14.3999 18.3763L12.759 16.7353C12.6091 16.585 12.5172 16.3866 12.4994 16.1752Z" fill="#52006A" stroke="#52006A" stroke-width="0.1"/>
<path d="M14.6124 17.2341L14.5771 17.2695L14.6125 17.3048L14.836 17.5282L14.8713 17.5635L14.9067 17.5281L15.126 17.3088L15.1614 17.2734L15.1261 17.2381L14.9026 17.0144L14.8672 16.979L14.8318 17.0144L14.6124 17.2341ZM13.2674 18.5788L13.232 18.6141L13.2674 18.6495L13.4909 18.873L13.5262 18.9083L13.5616 18.873L14.0373 18.3972L14.0727 18.3619L14.0373 18.3265L13.8138 18.1031L13.7785 18.0677L13.7431 18.1031L13.2674 18.5788Z" fill="#52006A" stroke="#52006A" stroke-width="0.1"/>
<path d="M15.166 17.6442C15.205 17.6832 15.2579 17.7051 15.3131 17.7051H15.3131H15.9836H15.9836L15.2013 17.6088M15.166 17.6442L15.2013 17.6088M15.166 17.6442L15.166 17.6442L15.2013 17.6088M15.166 17.6442L14.4953 16.9737L14.5307 16.9384M15.2013 17.6088L14.5307 16.9384M14.5307 16.9384L14.4953 16.9737" fill="#52006A" stroke="#52006A" stroke-width="0.1"/>
<path d="M15.5106 16.7913L15.5106 16.7913L16.1813 16.1207L16.1819 16.1201L16.1819 16.1201C16.2211 16.0822 16.2737 16.0612 16.3283 16.0617C16.3828 16.0621 16.435 16.084 16.4736 16.1226C16.5121 16.1612 16.534 16.2133 16.5345 16.2679C16.535 16.3224 16.514 16.375 16.4761 16.4142L16.4755 16.4149L16.4755 16.4149L15.805 17.0855C15.7857 17.1048 15.7627 17.1201 15.7374 17.1306L15.5106 16.7913ZM15.5106 16.7913C15.4816 16.8204 15.4617 16.8574 15.4537 16.8978C15.4457 16.9381 15.4498 16.98 15.4656 17.018C15.4813 17.056 15.508 17.0885 15.5422 17.1113C15.5764 17.1342 15.6166 17.1464 15.6577 17.1464L15.5106 16.7913ZM15.2108 16.6993H15.2107C15.1696 16.6993 15.1294 16.6871 15.0952 16.6642M15.2108 16.6993L15.0952 16.6642M15.2108 16.6993C15.2382 16.6993 15.2652 16.6938 15.2905 16.6833C15.3157 16.6729 15.3386 16.6575 15.3579 16.6381L16.0283 15.9677L16.0284 15.9678L16.0295 15.9666C16.0664 15.9272 16.0866 15.8749 16.0857 15.8209C16.0848 15.7669 16.063 15.7153 16.0248 15.6771C15.9865 15.6389 15.935 15.6171 15.8809 15.6163C15.8269 15.6154 15.7747 15.6356 15.7353 15.6726L15.7353 15.6726L15.7341 15.6737L15.0637 16.3441L15.0637 16.3442M15.2108 16.6993L15.0637 16.3442M15.0952 16.6642C15.061 16.6414 15.0343 16.6089 15.0186 16.5709C15.0028 16.5328 14.9987 16.491 15.0067 16.4507C15.0148 16.4103 15.0346 16.3732 15.0637 16.3442M15.0952 16.6642L15.0637 16.3442" fill="#52006A" stroke="#52006A" stroke-width="0.1"/>
</svg>
