<svg width="52" height="52" viewBox="0 0 52 52" fill="none" xmlns="http://www.w3.org/2000/svg">
<path d="M13.6114 20.9619C16.7913 17.8145 21.1683 15.8704 26.0002 15.8704C35.7181 15.8704 43.5961 23.7344 43.5961 33.4351C43.5961 43.1358 35.7181 50.9999 26.0002 50.9999C16.2823 50.9999 8.4043 43.1359 8.4043 33.4352C8.4043 29.8241 9.49595 26.4674 11.3679 23.6762" stroke="#52006A" stroke-width="1.50906" stroke-miterlimit="10" stroke-linecap="round" stroke-linejoin="round"/>
<path d="M26.0001 46.9607C33.486 46.9607 39.5545 40.9051 39.5545 33.4352C39.5545 25.9653 33.486 19.9098 26.0001 19.9098C18.5143 19.9098 12.4458 25.9653 12.4458 33.4352C12.4458 40.9051 18.5143 46.9607 26.0001 46.9607Z" stroke="#52006A" stroke-width="1.50906" stroke-miterlimit="10" stroke-linecap="round" stroke-linejoin="round"/>
<path d="M28.0099 28.2765V26.8932C28.0099 25.7836 27.1095 24.8832 25.9998 24.8832C25.4445 24.8832 24.9425 25.1085 24.5783 25.4717C24.2151 25.8359 23.9897 26.3379 23.9897 26.8932V28.2765" stroke="#52006A" stroke-width="1.50906" stroke-miterlimit="10" stroke-linecap="round" stroke-linejoin="round"/>
<path d="M32.3795 32.2438C32.7154 33.0559 32.9008 33.9462 32.9008 34.8797V35.5698H19.0986V34.8797C19.0986 31.0683 22.1884 27.9787 25.9996 27.9787C27.607 27.9787 29.086 28.5282 30.259 29.4496" stroke="#52006A" stroke-width="1.50906" stroke-miterlimit="10" stroke-linecap="round" stroke-linejoin="round"/>
<path d="M18.7796 39.077H33.2203C34.1888 39.077 34.9739 38.2919 34.9739 37.3233C34.9739 36.3548 34.1888 35.5697 33.2203 35.5697H18.7796C17.8111 35.5697 17.0259 36.3548 17.0259 37.3233C17.0259 38.2919 17.8111 39.077 18.7796 39.077ZM7.51175 8.93771L8.78328 11.5142C8.83382 11.6166 8.90849 11.7051 9.00087 11.7722C9.09325 11.8393 9.20056 11.883 9.31356 11.8994L12.1568 12.3126C12.7345 12.3965 12.9651 13.1063 12.5471 13.5138L10.4896 15.5192C10.4078 15.5989 10.3467 15.6973 10.3114 15.8059C10.2761 15.9145 10.2678 16.03 10.2871 16.1425L10.7728 18.9743C10.8715 19.5496 10.2677 19.9883 9.75099 19.7167L7.20793 18.3797C7.10686 18.3265 6.99439 18.2988 6.88021 18.2988C6.76603 18.2988 6.65356 18.3265 6.55249 18.3797L4.00943 19.7167C3.49283 19.9883 2.88901 19.5496 2.9876 18.9743L3.47332 16.1425C3.49262 16.03 3.48427 15.9145 3.44899 15.8059C3.41371 15.6973 3.35256 15.5989 3.2708 15.5192L1.21346 13.5138C0.795447 13.1063 1.02613 12.3965 1.6037 12.3126L4.44696 11.8994C4.55995 11.883 4.66727 11.8393 4.75964 11.7722C4.85202 11.7051 4.9267 11.6166 4.97724 11.5142L6.24877 8.93771C6.50712 8.41427 7.2534 8.41427 7.51175 8.93771ZM45.7512 8.93771L47.0227 11.5142C47.0733 11.6166 47.148 11.7051 47.2403 11.7722C47.3327 11.8393 47.44 11.883 47.553 11.8994L50.3963 12.3126C50.9739 12.3965 51.2045 13.1063 50.7865 13.5138L48.7291 15.5192C48.6473 15.5989 48.5861 15.6973 48.5509 15.8059C48.5156 15.9145 48.5072 16.03 48.5266 16.1425L49.0123 18.9743C49.111 19.5496 48.5071 19.9883 47.9904 19.7167L45.4474 18.3797C45.3463 18.3265 45.2338 18.2988 45.1197 18.2988C45.0055 18.2988 44.893 18.3265 44.792 18.3797L42.2489 19.7167C41.7323 19.9883 41.1285 19.5496 41.2271 18.9743L41.7128 16.1425C41.7321 16.03 41.7237 15.9145 41.6885 15.8059C41.6532 15.6973 41.592 15.5989 41.5103 15.5192L39.4528 13.5138C39.0348 13.1063 39.2655 12.3965 39.8432 12.3126L42.6864 11.8994C42.7994 11.883 42.9067 11.8393 42.9991 11.7722C43.0915 11.7051 43.1662 11.6166 43.2167 11.5142L44.4882 8.93771C44.7466 8.41427 45.4929 8.41427 45.7512 8.93771ZM26.6315 1.39243L27.903 3.96889C27.9535 4.07128 28.0282 4.15984 28.1206 4.22695C28.213 4.29405 28.3203 4.33769 28.4333 4.3541L31.2766 4.76728C31.8542 4.85118 32.0848 5.56104 31.6668 5.96849L29.6093 7.97392C29.5276 8.05361 29.4664 8.152 29.4311 8.26059C29.3959 8.36918 29.3875 8.48473 29.4068 8.59726L29.8925 11.4291C29.9912 12.0043 29.3874 12.443 28.8707 12.1714L26.3277 10.8344C26.2266 10.7813 26.1141 10.7535 25.9999 10.7535C25.8858 10.7535 25.7733 10.7813 25.6722 10.8344L23.1292 12.1714C22.6126 12.443 22.0087 12.0043 22.1073 11.4291L22.593 8.59726C22.6123 8.48473 22.604 8.36919 22.5687 8.2606C22.5334 8.15201 22.4723 8.05362 22.3905 7.97392L20.3331 5.96849C19.9151 5.56104 20.1458 4.85118 20.7234 4.76728L23.5667 4.3541C23.6797 4.33769 23.787 4.29405 23.8794 4.22695C23.9718 4.15984 24.0464 4.07128 24.097 3.96889L25.3685 1.39243C25.6268 0.868987 26.3731 0.868987 26.6315 1.39243Z" stroke="#52006A" stroke-width="1.50906" stroke-miterlimit="10" stroke-linecap="round" stroke-linejoin="round"/>
</svg>
