<svg width="48" height="48" viewBox="0 0 48 48" fill="none" xmlns="http://www.w3.org/2000/svg">
<g clip-path="url(#clip0_2214_53002)">
<path d="M0.754883 6.67462H47.2459V8.1735H0.754883V6.67462Z" fill="#52006A"/>
<path fill-rule="evenodd" clip-rule="evenodd" d="M4.46445 3.35849C4.86833 3.35849 5.18708 3.68812 5.18708 4.08112C5.18708 4.48499 4.86833 4.81461 4.46445 4.81461C4.06058 4.81461 3.74146 4.48499 3.74146 4.08112C3.74146 3.68812 4.06058 3.35849 4.46445 3.35849ZM10.799 3.35849C11.2028 3.35849 11.5216 3.68812 11.5216 4.08112C11.5216 4.48499 11.2028 4.81461 10.799 4.81461C10.3947 4.81461 10.0655 4.48499 10.0655 4.08112C10.0658 3.68812 10.3951 3.35849 10.799 3.35849ZM7.6317 3.35849C8.03558 3.35849 8.35433 3.68812 8.35433 4.08112C8.35433 4.48499 8.03558 4.81461 7.6317 4.81461C7.22783 4.81461 6.89821 4.48499 6.89821 4.08112C6.89821 3.68812 7.22783 3.35849 7.6317 3.35849Z" fill="#52006A"/>
<path d="M42.5896 3.33713C43.0039 3.33713 43.3336 3.66675 43.3336 4.08113C43.3336 4.4955 43.0039 4.836 42.5896 4.836H17.0701C16.6557 4.836 16.3152 4.49588 16.3152 4.08113C16.3152 3.66675 16.6553 3.33713 17.0701 3.33713H42.5896Z" fill="#52006A"/>
<path d="M32.8236 23.5215C32.8236 22.0973 33.4829 21.183 34.3442 20.7581C34.684 20.5988 35.056 20.5136 35.4385 20.5136C35.8214 20.5136 36.193 20.5988 36.5335 20.7686C37.405 21.1935 38.0856 22.1186 38.0856 23.5215V30.7598C38.2769 30.8021 38.6275 30.8873 38.9564 30.972C40.2434 31.2698 41.3162 31.5251 43.0278 32.1308C43.6863 32.3648 44.314 32.8538 44.7707 33.4493C45.2166 34.044 45.5039 34.7456 45.5039 35.4368V45.2786C45.5039 46.767 44.2713 48 42.772 48H35.5446C34.2906 48 32.9297 47.2027 32.1434 46.2356L26.8082 39.7095C25.9255 38.6681 25.7451 37.5623 26.0001 36.6806C26.1167 36.2768 26.3402 35.9153 26.6271 35.628C26.914 35.3408 27.2864 35.1285 27.7007 35.022C28.7526 34.746 29.8364 35.2241 30.6017 35.9471L32.8232 37.8814V35.9471V33.7995L32.8236 23.5215ZM34.9922 22.1081C34.6202 22.2994 34.3229 22.7565 34.3229 23.5219V33.7999V35.9475V39.54C34.3229 39.7099 34.2591 39.891 34.1309 40.029C33.8657 40.3373 33.3869 40.3691 33.079 40.1033L29.6241 37.0744C29.1032 36.66 28.2955 36.0855 27.6794 36.6915C27.0839 37.2761 27.4986 38.2114 27.9554 38.7428L33.259 45.2475C33.5571 45.6409 34.5137 46.5019 35.5442 46.5019H42.7716C43.4519 46.5019 43.9941 45.9491 43.9941 45.2794V35.4368C43.9941 35.0753 43.8351 34.6928 43.5798 34.3523C43.2925 33.9803 42.9104 33.6825 42.5271 33.5449C40.912 32.9708 39.8597 32.7263 38.6057 32.4285C38.3935 32.3753 38.1801 32.3224 37.6491 32.1945C37.3296 32.1202 37.0645 31.9395 36.8837 31.7055C36.6925 31.4614 36.5856 31.1636 36.5856 30.8445V23.5215C36.5856 22.7775 36.2781 22.3099 35.8847 22.1186C35.7355 22.0444 35.5866 22.0121 35.4381 22.0121C35.2896 22.0121 35.1411 22.0444 34.9922 22.1081Z" fill="#52006A"/>
<path d="M10.9263 11.7023H15.7409H20.5349C21.0239 11.7023 21.4807 11.9044 21.7998 12.2336C22.1294 12.5528 22.3312 13.0095 22.3312 13.4985V27.3161C22.3312 27.8051 22.1291 28.2619 21.7998 28.581V28.5915C21.4807 28.9106 21.0239 29.1128 20.5349 29.1128H6.13268C5.6328 29.1128 5.18655 28.9106 4.8573 28.5915V28.581C4.52805 28.2619 4.32593 27.8051 4.32593 27.3161V13.4985C4.32593 13.0095 4.52805 12.5528 4.8573 12.2336C5.18655 11.904 5.63318 11.7023 6.13268 11.7023H10.9263ZM15.1567 25.3819C14.7423 25.3819 14.4022 25.0418 14.4022 24.627C14.4022 24.2123 14.7423 23.883 15.1567 23.883H18.0161C18.4304 23.883 18.7601 24.2123 18.7601 24.627C18.7601 25.0418 18.4304 25.3819 18.0161 25.3819H15.1567ZM16.4853 13.2011V18.3135C16.4853 18.5366 16.4216 18.7493 16.3046 18.93C16.1876 19.1108 16.0177 19.2593 15.8051 19.3549C15.3907 19.5356 14.9122 19.4614 14.5721 19.1531L13.3604 18.069L12.0742 19.1955C11.7341 19.4824 11.2559 19.5566 10.8412 19.3654C10.6391 19.2803 10.4797 19.1318 10.3522 18.951C10.2352 18.7598 10.1714 18.5471 10.1714 18.324V13.2011H6.13268C6.04755 13.2011 5.9733 13.233 5.92005 13.2863C5.8668 13.3395 5.83493 13.4138 5.83493 13.4989V27.3165C5.83493 27.4016 5.8668 27.4759 5.92005 27.5291C5.9733 27.5824 6.04755 27.6143 6.13268 27.6143H20.5349C20.6201 27.6143 20.6943 27.5824 20.7476 27.5291C20.8008 27.4755 20.8327 27.4013 20.8327 27.3165V13.4985C20.8327 13.4134 20.8008 13.3391 20.7476 13.2859C20.6943 13.2326 20.6201 13.2008 20.5349 13.2008L16.4853 13.2011ZM14.9868 13.2011H11.6707V17.5481L12.6164 16.7299C12.8186 16.5491 13.1159 16.4535 13.3818 16.4535C13.6473 16.4535 13.9237 16.5491 14.1363 16.7408L14.9868 17.5166V13.2011Z" fill="#52006A"/>
<path d="M33.2446 24.3506C33.659 24.3506 33.9999 24.6802 33.9999 25.0946C33.9999 25.5094 33.6594 25.8495 33.2446 25.8495H28.0281C26.7734 25.8495 25.7542 24.8291 25.7542 23.5747V19.6845C25.7542 18.4301 26.7846 17.4097 28.0281 17.4097H41.1018C42.3453 17.4097 43.3657 18.4301 43.3657 19.6845V23.5747C43.3657 24.8291 42.3453 25.8495 41.1018 25.8495H37.4999C37.0855 25.8495 36.7454 25.5097 36.7454 25.0946C36.7454 24.6802 37.0851 24.3506 37.4999 24.3506H41.1018C41.5267 24.3506 41.8672 24 41.8672 23.5747V19.6845C41.8672 19.2592 41.5267 18.9086 41.1018 18.9086H28.0281C27.6033 18.9086 27.2527 19.2592 27.2527 19.6845V23.5747C27.2527 24 27.6036 24.3506 28.0281 24.3506H33.2446Z" fill="#52006A"/>
<path d="M5.08043 35.9895C4.66605 35.9895 4.32593 35.6494 4.32593 35.2346C4.32593 34.8199 4.66605 34.4906 5.08043 34.4906H8.66243C9.0768 34.4906 9.4173 34.8202 9.4173 35.2346C9.4173 35.649 9.07718 35.9895 8.66243 35.9895H5.08043ZM5.08043 32.8219C4.66605 32.8219 4.32593 32.4817 4.32593 32.0779C4.32593 31.6635 4.66605 31.323 5.08043 31.323H14.7847C15.1991 31.323 15.5287 31.6631 15.5287 32.0779C15.5287 32.4817 15.1994 32.8219 14.7847 32.8219H5.08043Z" fill="#52006A"/>
<path d="M27 38.4233C27.4039 38.4233 27.744 38.7634 27.744 39.1781C27.744 39.5929 27.4039 39.9221 27 39.9221H2.13637C1.51987 39.9221 0.988125 39.6668 0.605625 39.2524C0.223125 38.8485 0 38.2853 0 37.6898V2.20013C0 0.999 0.999 0 2.20012 0H45.7886C47.001 0 48 0.999 48 2.20013V37.6898C48 38.2957 47.7341 38.859 47.3092 39.2629C46.8949 39.6668 46.3316 39.9221 45.7249 39.9221C45.3105 39.9221 44.9704 39.5925 44.9704 39.1781C44.9704 38.7638 45.3101 38.4233 45.7249 38.4233C45.927 38.4233 46.1182 38.3381 46.2675 38.1893C46.4051 38.0513 46.5011 37.8705 46.5011 37.6898V2.20013C46.5011 1.81763 46.1816 1.4985 45.7886 1.4985H2.20012C1.81725 1.4985 1.4985 1.81763 1.4985 2.20013V37.6898C1.4985 37.9024 1.57275 38.1041 1.70062 38.232C1.81762 38.349 1.96613 38.4233 2.13637 38.4233H27Z" fill="#52006A"/>
</g>
<defs>
<clipPath id="clip0_2214_53002">
<rect width="48" height="48" fill="white"/>
</clipPath>
</defs>
</svg>
