<svg width="55" height="54" viewBox="0 0 55 54" fill="none" xmlns="http://www.w3.org/2000/svg">
<path d="M49.4375 43.1072V32.0625C49.4375 31.8387 49.3486 31.6241 49.1904 31.4659C49.0321 31.3076 48.8175 31.2188 48.5937 31.2188H36.7812C36.5575 31.2188 36.3428 31.3076 36.1846 31.4659C36.0264 31.6241 35.9375 31.8387 35.9375 32.0625V43.0312H34.25V32.0625C34.25 31.8387 34.1611 31.6241 34.0029 31.4659C33.8446 31.3076 33.63 31.2188 33.4062 31.2188H21.5937C21.37 31.2188 21.1553 31.3076 20.9971 31.4659C20.8389 31.6241 20.75 31.8387 20.75 32.0625V43.0312H19.0625V32.0625C19.0625 31.8387 18.9736 31.6241 18.8154 31.4659C18.6571 31.3076 18.4425 31.2188 18.2187 31.2188H6.40624C6.18246 31.2188 5.96785 31.3076 5.80961 31.4659C5.65138 31.6241 5.56249 31.8387 5.56249 32.0625V43.1072C4.31715 43.3252 3.19847 44.0013 2.42647 45.0025C1.65447 46.0037 1.28503 47.2576 1.39081 48.5174C1.49659 49.7773 2.06993 50.9519 2.99808 51.8104C3.92622 52.6688 5.14198 53.1489 6.40624 53.1562H48.5937C49.858 53.1489 51.0737 52.6688 52.0019 51.8104C52.93 50.9519 53.5034 49.7773 53.6092 48.5174C53.7149 47.2576 53.3455 46.0037 52.5735 45.0025C51.8015 44.0013 50.6828 43.3252 49.4375 43.1072ZM41.8437 32.9062H43.5312V35.4375H41.8437V32.9062ZM37.625 32.9062H40.1562V36.2812C40.1562 36.505 40.2451 36.7196 40.4034 36.8779C40.5616 37.0361 40.7762 37.125 41 37.125H44.375C44.5988 37.125 44.8134 37.0361 44.9716 36.8779C45.1298 36.7196 45.2187 36.505 45.2187 36.2812V32.9062H47.75V43.0312H37.625V32.9062ZM26.6562 32.9062H28.3437V35.4375H26.6562V32.9062ZM22.4375 32.9062H24.9687V36.2812C24.9687 36.505 25.0576 36.7196 25.2159 36.8779C25.3741 37.0361 25.5887 37.125 25.8125 37.125H29.1875C29.4113 37.125 29.6259 37.0361 29.7841 36.8779C29.9423 36.7196 30.0312 36.505 30.0312 36.2812V32.9062H32.5625V43.0312H22.4375V32.9062ZM11.4687 32.9062H13.1562V35.4375H11.4687V32.9062ZM7.24999 32.9062H9.78124V36.2812C9.78124 36.505 9.87013 36.7196 10.0284 36.8779C10.1866 37.0361 10.4012 37.125 10.625 37.125H14C14.2238 37.125 14.4384 37.0361 14.5966 36.8779C14.7548 36.7196 14.8437 36.505 14.8437 36.2812V32.9062H17.375V43.0312H7.24999V32.9062ZM48.5937 51.4688H6.40624C5.51113 51.4688 4.65268 51.1132 4.01975 50.4802C3.38681 49.8473 3.03124 48.9889 3.03124 48.0938C3.03124 47.1986 3.38681 46.3402 4.01975 45.7073C4.65268 45.0743 5.51113 44.7188 6.40624 44.7188H48.5937C49.4888 44.7188 50.3473 45.0743 50.9802 45.7073C51.6132 46.3402 51.9687 47.1986 51.9687 48.0938C51.9687 48.9889 51.6132 49.8473 50.9802 50.4802C50.3473 51.1132 49.4888 51.4688 48.5937 51.4688Z" fill="#52006A"/>
<path d="M6.82813 45.5625C6.32749 45.5625 5.8381 45.711 5.42184 45.9891C5.00558 46.2672 4.68114 46.6626 4.48956 47.1251C4.29797 47.5876 4.24784 48.0966 4.34551 48.5876C4.44318 49.0786 4.68426 49.5296 5.03826 49.8836C5.39226 50.2376 5.84329 50.4787 6.3343 50.5764C6.82532 50.674 7.33427 50.6239 7.79679 50.4323C8.25932 50.2407 8.65465 49.9163 8.93278 49.5C9.21092 49.0838 9.35938 48.5944 9.35938 48.0938C9.35938 47.4224 9.09269 46.7786 8.61799 46.3039C8.14329 45.8292 7.49946 45.5625 6.82813 45.5625ZM6.82813 48.9375C6.66125 48.9375 6.49812 48.888 6.35936 48.7953C6.22061 48.7026 6.11246 48.5708 6.0486 48.4166C5.98474 48.2625 5.96803 48.0928 6.00059 47.9291C6.03314 47.7655 6.1135 47.6151 6.2315 47.4971C6.34951 47.3791 6.49985 47.2988 6.66352 47.2662C6.82719 47.2337 6.99684 47.2504 7.15102 47.3142C7.30519 47.3781 7.43697 47.4862 7.52968 47.625C7.62239 47.7637 7.67188 47.9269 7.67188 48.0938C7.67188 48.3175 7.58298 48.5321 7.42475 48.6904C7.26651 48.8486 7.0519 48.9375 6.82813 48.9375Z" fill="#52006A"/>
<path d="M48.1719 45.5625C47.6712 45.5625 47.1819 45.711 46.7656 45.9891C46.3493 46.2672 46.0249 46.6626 45.8333 47.1251C45.6417 47.5876 45.5916 48.0966 45.6893 48.5876C45.7869 49.0786 46.028 49.5296 46.382 49.8836C46.736 50.2376 47.187 50.4787 47.6781 50.5764C48.1691 50.674 48.678 50.6239 49.1405 50.4323C49.6031 50.2407 49.9984 49.9163 50.2765 49.5C50.5547 49.0838 50.7031 48.5944 50.7031 48.0938C50.7031 47.4224 50.4364 46.7786 49.9617 46.3039C49.487 45.8292 48.8432 45.5625 48.1719 45.5625ZM48.1719 48.9375C48.005 48.9375 47.8419 48.888 47.7031 48.7953C47.5644 48.7026 47.4562 48.5708 47.3924 48.4166C47.3285 48.2625 47.3118 48.0928 47.3443 47.9291C47.3769 47.7655 47.4573 47.6151 47.5753 47.4971C47.6933 47.3791 47.8436 47.2988 48.0073 47.2662C48.1709 47.2337 48.3406 47.2504 48.4948 47.3142C48.6489 47.3781 48.7807 47.4862 48.8734 47.625C48.9661 47.7637 49.0156 47.9269 49.0156 48.0938C49.0156 48.3175 48.9267 48.5321 48.7685 48.6904C48.6103 48.8486 48.3957 48.9375 48.1719 48.9375Z" fill="#52006A"/>
<path d="M12.3125 10.9688C13.3138 10.9688 14.2926 10.6718 15.1251 10.1156C15.9576 9.55929 16.6065 8.76864 16.9896 7.84359C17.3728 6.91854 17.4731 5.90064 17.2777 4.91861C17.0824 3.93658 16.6002 3.03453 15.8922 2.32652C15.1842 1.61852 14.2822 1.13636 13.3001 0.941027C12.3181 0.745689 11.3002 0.845944 10.3752 1.22911C9.45011 1.61228 8.65946 2.26115 8.10319 3.09368C7.54691 3.9262 7.25 4.90498 7.25 5.90625C7.25134 7.2485 7.78514 8.53539 8.73425 9.4845C9.68336 10.4336 10.9703 10.9674 12.3125 10.9688ZM12.3125 2.53125C12.98 2.53125 13.6325 2.72919 14.1875 3.10004C14.7426 3.47089 15.1751 3.998 15.4306 4.6147C15.686 5.2314 15.7529 5.91 15.6227 6.56468C15.4924 7.21937 15.171 7.82074 14.699 8.29274C14.227 8.76474 13.6256 9.08618 12.9709 9.2164C12.3162 9.34663 11.6376 9.27979 11.0209 9.02435C10.4042 8.7689 9.87714 8.33632 9.50629 7.7813C9.13544 7.22629 8.9375 6.57376 8.9375 5.90625C8.9375 5.01115 9.29308 4.1527 9.92601 3.51977C10.5589 2.88683 11.4174 2.53125 12.3125 2.53125Z" fill="#52006A"/>
<path d="M23.2813 10.9687H31.7188C31.863 10.9695 32.005 10.9333 32.1313 10.8637C32.2575 10.794 32.3638 10.6931 32.4399 10.5706C32.5161 10.4482 32.5596 10.3083 32.5663 10.1642C32.573 10.0202 32.5427 9.87682 32.4782 9.74783L28.2595 1.31033C28.1815 1.17957 28.0709 1.07129 27.9385 0.996102C27.8062 0.920909 27.6565 0.881378 27.5043 0.881378C27.3521 0.881378 27.2024 0.920909 27.0701 0.996102C26.9377 1.07129 26.8271 1.17957 26.7491 1.31033L22.5304 9.74783C22.4663 9.87618 22.4359 10.0188 22.4422 10.1621C22.4485 10.3055 22.4913 10.4448 22.5665 10.567C22.6416 10.6893 22.7467 10.7903 22.8718 10.8606C22.9969 10.9309 23.1379 10.9681 23.2813 10.9687ZM27.5001 3.57411L30.3536 9.28124H24.6465L27.5001 3.57411Z" fill="#52006A"/>
<path d="M39.5656 7.36678L39.1175 9.98241C39.0911 10.1375 39.1085 10.2968 39.1678 10.4425C39.2271 10.5882 39.3259 10.7144 39.4531 10.8069C39.5804 10.8994 39.7309 10.9545 39.8878 10.9659C40.0447 10.9774 40.2017 10.9447 40.341 10.8717L42.6874 9.63732L45.0364 10.8717C45.1758 10.9447 45.3327 10.9774 45.4896 10.9659C45.6465 10.9545 45.797 10.8994 45.9243 10.8069C46.0515 10.7144 46.1503 10.5882 46.2097 10.4425C46.269 10.2968 46.2864 10.1375 46.2599 9.98241L45.8118 7.36678L47.712 5.51053C47.8236 5.40045 47.9023 5.26145 47.9393 5.10912C47.9763 4.9568 47.9702 4.79717 47.9216 4.64815C47.8729 4.49912 47.7838 4.36659 47.664 4.26541C47.5443 4.16423 47.3987 4.0984 47.2437 4.07532L44.6188 3.69394L43.4468 1.31372C43.3691 1.18237 43.2585 1.07352 43.126 0.997911C42.9934 0.922302 42.8434 0.882538 42.6908 0.882538C42.5382 0.882538 42.3882 0.922302 42.2557 0.997911C42.1231 1.07352 42.0125 1.18237 41.9348 1.31372L40.7561 3.69394L38.1312 4.07532C37.9753 4.09782 37.8288 4.16351 37.7083 4.26497C37.5878 4.36643 37.4981 4.49959 37.4494 4.64939C37.4006 4.79919 37.3948 4.95963 37.4325 5.11257C37.4703 5.26551 37.5501 5.40483 37.6629 5.51475L39.5656 7.36678ZM41.4404 5.30044C41.5756 5.28065 41.704 5.22831 41.8145 5.14791C41.9251 5.06752 42.0144 4.96148 42.0749 4.83891L42.6874 3.59353L43.3025 4.83891C43.363 4.96148 43.4523 5.06752 43.5629 5.14791C43.6734 5.22831 43.8018 5.28065 43.937 5.30044L45.3098 5.49957L44.3167 6.46819C44.2189 6.56372 44.1457 6.68159 44.1035 6.81167C44.0613 6.94175 44.0514 7.08014 44.0746 7.21491L44.3083 8.58263L43.0798 7.93716C42.9588 7.8736 42.8241 7.84039 42.6874 7.84039C42.5507 7.84039 42.4161 7.8736 42.2951 7.93716L41.0666 8.58263L41.3003 7.21491C41.3235 7.08014 41.3135 6.94175 41.2714 6.81167C41.2292 6.68159 41.156 6.56372 41.0582 6.46819L40.0651 5.49957L41.4404 5.30044Z" fill="#52006A"/>
<path d="M11.4689 14.3438V24.3236L10.0505 22.2986L8.66846 23.2647L11.6216 27.4835C11.6994 27.5945 11.8028 27.6852 11.9231 27.7478C12.0434 27.8104 12.177 27.8431 12.3126 27.8431C12.4482 27.8431 12.5818 27.8104 12.7021 27.7478C12.8224 27.6852 12.9258 27.5945 13.0036 27.4835L15.9568 23.2647L14.5747 22.2978L13.1564 24.3236V14.3438H11.4689Z" fill="#52006A"/>
<path d="M26.6564 14.3438V24.3236L25.238 22.2986L23.856 23.2656L26.8091 27.4843C26.8869 27.5954 26.9903 27.686 27.1106 27.7486C27.2309 27.8112 27.3645 27.8439 27.5001 27.8439C27.6357 27.8439 27.7693 27.8112 27.8896 27.7486C28.0099 27.686 28.1133 27.5954 28.1911 27.4843L31.1443 23.2656L29.7622 22.2986L28.3439 24.3236V14.3438H26.6564Z" fill="#52006A"/>
<path d="M41.8439 14.3438V24.3236L40.4255 22.2986L39.0435 23.2656L41.9966 27.4843C42.0744 27.5954 42.1778 27.686 42.2981 27.7486C42.4184 27.8112 42.552 27.8439 42.6876 27.8439C42.8232 27.8439 42.9568 27.8112 43.0771 27.7486C43.1974 27.686 43.3008 27.5954 43.3786 27.4843L46.3318 23.2656L44.9497 22.2986L43.5314 24.3236V14.3438H41.8439Z" fill="#52006A"/>
</svg>
