<svg width="50" height="50" viewBox="0 0 50 50" fill="none" xmlns="http://www.w3.org/2000/svg">
<path d="M7.49353 28.3357H19.9945V30.0025H7.49353V28.3357ZM12.4939 25.002H21.6613V26.6688H12.4939V25.002ZM7.49353 20.835H24.9949V22.5018H7.49353V20.835ZM12.4939 17.5014H32.4956V19.1682H12.4939V17.5014ZM7.49353 35.8363H18.3277V37.5031H7.49353V35.8363ZM12.4939 32.5027H18.3277V34.1695H12.4939V32.5027ZM7.49353 43.3369H19.9945V45.0037H7.49353V43.3369ZM12.4939 40.0033H18.3277V41.6701H12.4939V40.0033ZM23.2206 10.2464C23.1255 9.94068 22.9695 9.65743 22.762 9.4137C22.5544 9.16996 22.2997 8.9708 22.013 8.82822L20.3887 8.01566C20.2453 7.94402 20.1303 7.82607 20.0623 7.6809C19.9943 7.53573 19.9772 7.37185 20.014 7.21581C20.0507 7.05976 20.1391 6.92069 20.2647 6.82112C20.3904 6.72156 20.546 6.66733 20.7063 6.66721H20.9496C21.1383 6.66743 21.3192 6.74249 21.4526 6.87592C21.5861 7.00934 21.6611 7.19024 21.6613 7.37894V7.50061H23.3281V7.37894C23.3263 6.87434 23.1637 6.38345 22.864 5.97749C22.5643 5.57154 22.143 5.27162 21.6613 5.12125V4.16701H19.9945V5.12125C18.7445 5.51003 18.0465 6.83848 18.4352 8.08847C18.5303 8.39416 18.6864 8.67741 18.8939 8.92114C19.1014 9.16487 19.3562 9.36403 19.6428 9.50661L21.2671 10.3192C21.4106 10.3908 21.5256 10.5088 21.5936 10.6539C21.6616 10.7991 21.6786 10.963 21.6419 11.119C21.6051 11.2751 21.5168 11.4141 21.3912 11.5137C21.2655 11.6133 21.1099 11.6675 20.9496 11.6676H20.7063C20.5176 11.6674 20.3367 11.5923 20.2032 11.4589C20.0698 11.3255 19.9948 11.1446 19.9945 10.9559V10.8342H18.3277V10.9559C18.3296 11.4605 18.4922 11.9514 18.7919 12.3573C19.0916 12.7633 19.5129 13.0632 19.9945 13.2136V14.1678H21.6613V13.2136C22.9113 12.8248 23.6094 11.4964 23.2206 10.2464Z" fill="#52006A"/>
<path d="M37.9665 24.1815C37.5391 24.0236 37.1039 23.8877 36.6626 23.7744V7.50061H40.8296C41.0506 7.50061 41.2626 7.4128 41.4189 7.25651C41.5752 7.10022 41.663 6.88824 41.663 6.66721V3.3336C41.663 1.49252 40.1705 0 38.3294 0H6.66014C4.81906 0 3.32654 1.49252 3.32654 3.3336V48.3372C3.32654 48.5583 3.41434 48.7703 3.57064 48.9266C3.72693 49.0828 3.93891 49.1707 4.15994 49.1707H28.7328C35.6333 51.7204 43.2944 48.1935 45.8442 41.2929C48.394 34.3924 44.867 26.7313 37.9665 24.1815ZM36.6626 3.3336C36.6626 2.41301 37.4088 1.6668 38.3294 1.6668C39.25 1.6668 39.9962 2.41301 39.9962 3.3336V5.83381H36.6626V3.3336ZM4.99334 47.5038V3.3336C4.99334 2.41301 5.73955 1.6668 6.66014 1.6668H35.4592C35.1592 2.1713 34.9993 2.74668 34.9958 3.3336V23.4511C27.7018 22.5188 21.0331 27.6761 20.1008 34.9701C19.4785 39.8396 21.5862 44.6564 25.5849 47.5038H4.99334ZM33.329 48.3372C26.8851 48.3372 21.6614 43.1135 21.6614 36.6696C21.6614 30.2258 26.8851 25.002 33.329 25.002C39.7699 25.0089 44.9897 30.2287 44.9966 36.6696C44.9966 43.1135 39.7729 48.3372 33.329 48.3372Z" fill="#52006A"/>
<path d="M9.1604 17.5014H10.8272V19.1682H9.1604V17.5014ZM9.1604 25.002H10.8272V26.6688H9.1604V25.002ZM9.1604 32.5026H10.8272V34.1694H9.1604V32.5026ZM9.1604 40.0033H10.8272V41.6701H9.1604V40.0033Z" fill="#52006A"/>
<path d="M34.9948 30.1565C35.6085 30.3149 36.1967 30.5591 36.7422 30.8818L37.2936 30.3304C37.3984 30.2254 37.5229 30.1422 37.66 30.0854C37.7971 30.0286 37.944 29.9994 38.0923 29.9995C38.2406 29.9995 38.3874 30.0287 38.5244 30.0855C38.6614 30.1422 38.7859 30.2255 38.8907 30.3304L39.6892 31.1288C39.7941 31.2336 39.8773 31.3581 39.9341 31.4951C39.9908 31.6321 40.0201 31.779 40.0201 31.9273C40.0201 32.0756 39.9909 32.2225 39.9341 32.3596C39.8773 32.4966 39.7941 32.6211 39.6892 32.726L39.1378 33.2774C39.4605 33.8228 39.7046 34.4111 39.8631 35.0248H40.6415C41.2651 35.0248 41.7708 35.5304 41.7708 36.1541V37.2834C41.7708 37.9071 41.2651 38.4128 40.6415 38.4128H39.8631C39.7046 39.0264 39.4605 39.6146 39.1378 40.1601L39.6892 40.7115C39.7941 40.8164 39.8773 40.9409 39.9341 41.0779C39.9909 41.215 40.0201 41.3619 40.0201 41.5102C40.0201 41.6585 39.9908 41.8054 39.9341 41.9424C39.8773 42.0794 39.7941 42.2039 39.6892 42.3087L38.8907 43.1071C38.7859 43.212 38.6614 43.2952 38.5244 43.352C38.3874 43.4088 38.2406 43.438 38.0923 43.438C37.944 43.438 37.797 43.4088 37.66 43.3521C37.5229 43.2953 37.3984 43.212 37.2936 43.1071L36.7422 42.5557C36.1967 42.8784 35.6085 43.1226 34.9948 43.281V44.0594C34.9948 44.6831 34.4891 45.1888 33.8655 45.1888H32.7361C32.1124 45.1888 31.6068 44.6831 31.6068 44.0594V43.281C30.9931 43.1226 30.4049 42.8784 29.8594 42.5557L29.308 43.1071C29.2032 43.212 29.0787 43.2953 28.9416 43.352C28.8046 43.4088 28.6577 43.438 28.5093 43.438C28.361 43.438 28.2142 43.4088 28.0772 43.352C27.9402 43.2952 27.8157 43.212 27.7109 43.1071L26.9124 42.3087C26.8075 42.2038 26.7243 42.0794 26.6675 41.9424C26.6108 41.8054 26.5815 41.6585 26.5815 41.5102C26.5815 41.3619 26.6107 41.215 26.6675 41.0779C26.7243 40.9409 26.8075 40.8164 26.9124 40.7115L27.4639 40.1601C27.1411 39.6146 26.897 39.0264 26.7385 38.4128H25.9602C25.3365 38.4128 24.8308 37.9071 24.8308 37.2834V36.1541C24.8308 35.5304 25.3365 35.0248 25.9602 35.0248H26.7385C26.897 34.4111 27.1411 33.8228 27.4639 33.2774L26.9124 32.726C26.8075 32.6211 26.7243 32.4966 26.6675 32.3596C26.6107 32.2225 26.5815 32.0756 26.5815 31.9273C26.5815 31.779 26.6108 31.6321 26.6675 31.4951C26.7243 31.3581 26.8075 31.2337 26.9124 31.1288L27.7109 30.3304C27.8157 30.2255 27.9402 30.1422 28.0772 30.0855C28.2142 30.0287 28.361 29.9995 28.5093 29.9995C28.6577 29.9994 28.8046 30.0287 28.9416 30.0854C29.0787 30.1422 29.2032 30.2254 29.308 30.3304L29.8594 30.8818C30.4049 30.5591 30.9931 30.3149 31.6068 30.1565V29.3781C31.6068 28.7544 32.1124 28.2488 32.7361 28.2488H33.8655C34.4891 28.2488 34.9948 28.7544 34.9948 29.3781V30.1565Z" stroke="#52006A" stroke-width="1.5488" stroke-miterlimit="10" stroke-linecap="round" stroke-linejoin="round"/>
<path d="M33.3008 33.3307C35.1708 33.3307 36.6889 34.8488 36.6889 36.7188C36.6889 38.5886 35.1708 40.1068 33.3008 40.1068C31.4309 40.1068 29.9128 38.5886 29.9128 36.7188C29.9128 34.8488 31.4309 33.3307 33.3008 33.3307Z" stroke="#52006A" stroke-width="1.5488" stroke-miterlimit="10" stroke-linecap="round" stroke-linejoin="round"/>
</svg>
