<svg xmlns="http://www.w3.org/2000/svg" width="56" height="56" viewBox="0 0 56 56" fill="none">
  <g clip-path="url(#clip0_2798_26383)">
    <path d="M33.529 45.3626L28.3623 42.7793C28.2504 42.7234 28.1271 42.6942 28.002 42.6942C27.8769 42.6942 27.7536 42.7234 27.6417 42.7793L22.475 45.3626C22.3412 45.4295 22.2287 45.5324 22.15 45.6596C22.0714 45.7869 22.0297 45.9336 22.0297 46.0832V52.111C22.0297 52.2606 22.0713 52.4072 22.15 52.5345C22.2287 52.6618 22.3412 52.7646 22.475 52.8315L27.6417 55.4148C27.7536 55.4708 27.8769 55.4999 28.002 55.4999C28.1271 55.4999 28.2504 55.4708 28.3623 55.4148L33.529 52.8315C33.6628 52.7646 33.7753 52.6618 33.854 52.5345C33.9327 52.4072 33.9743 52.2606 33.9743 52.111V46.0832C33.9743 45.9336 33.9327 45.7869 33.854 45.6596C33.7753 45.5324 33.6628 45.4295 33.529 45.3626ZM28.002 44.4007L31.3671 46.0833L28.002 47.7658L24.6369 46.0833L28.002 44.4007ZM23.641 47.3869L27.1963 49.1646V53.3908L23.641 51.6132V47.3869ZM28.8077 53.3908V49.1646L32.363 47.387V51.6132L28.8077 53.3908ZM47.3067 45.3626L42.14 42.7793C42.0282 42.7234 41.9048 42.6942 41.7797 42.6942C41.6547 42.6942 41.5313 42.7234 41.4194 42.7793L36.2528 45.3626C36.1189 45.4295 36.0064 45.5324 35.9277 45.6596C35.8491 45.7869 35.8074 45.9336 35.8074 46.0832V52.111C35.8074 52.2606 35.849 52.4072 35.9277 52.5345C36.0064 52.6618 36.1189 52.7646 36.2528 52.8315L41.4194 55.4148C41.5313 55.4708 41.6546 55.4999 41.7797 55.4999C41.9048 55.4999 42.0282 55.4708 42.14 55.4148L47.3067 52.8315C47.4405 52.7646 47.5531 52.6618 47.6317 52.5345C47.7104 52.4072 47.752 52.2606 47.7521 52.111V46.0832C47.752 45.9336 47.7104 45.7869 47.6317 45.6596C47.5531 45.5324 47.4405 45.4295 47.3067 45.3626ZM41.7797 44.4007L45.1448 46.0833L41.7797 47.766L38.4145 46.0834L41.7797 44.4007ZM37.4187 47.3869L40.9741 49.1646V53.3908L37.4187 51.6132V47.3869ZM42.5854 53.3908V49.1646L46.1407 47.3869V51.6132L42.5854 53.3908ZM19.7513 45.3626L14.5846 42.7793C14.4727 42.7234 14.3494 42.6942 14.2243 42.6942C14.0992 42.6942 13.9759 42.7234 13.864 42.7793L8.69732 45.3626C8.56351 45.4295 8.45097 45.5324 8.37231 45.6596C8.29364 45.7869 8.25197 45.9336 8.25195 46.0832V52.111C8.25195 52.2606 8.29361 52.4072 8.37227 52.5345C8.45094 52.6618 8.56349 52.7646 8.69732 52.8315L13.864 55.4148C13.9759 55.4708 14.0992 55.4999 14.2243 55.4999C14.3494 55.4999 14.4727 55.4708 14.5846 55.4148L19.7513 52.8315C19.8851 52.7646 19.9976 52.6618 20.0763 52.5345C20.1549 52.4072 20.1966 52.2606 20.1966 52.111V46.0832C20.1966 45.9336 20.1549 45.7869 20.0763 45.6596C19.9976 45.5324 19.8851 45.4295 19.7513 45.3626ZM14.2243 44.4007L17.5895 46.0833L14.2243 47.7658L10.8592 46.0833L14.2243 44.4007ZM9.86328 47.3869L13.4186 49.1645V53.3907L9.86328 51.6131V47.3869ZM15.03 53.3908V49.1646L18.5853 47.3869V51.6132L15.03 53.3908ZM27.0855 40.4763V34.4485C27.0855 34.2989 27.0438 34.1523 26.9652 34.025C26.8865 33.8977 26.7739 33.7949 26.6401 33.728L21.4734 31.1446C21.3616 31.0886 21.2382 31.0595 21.1131 31.0595C20.9881 31.0595 20.8647 31.0886 20.7529 31.1446L15.5862 33.728C15.4524 33.7949 15.3398 33.8977 15.2611 34.025C15.1825 34.1523 15.1408 34.2989 15.1408 34.4485V40.4763C15.1408 40.6259 15.1825 40.7726 15.2611 40.8999C15.3398 41.0271 15.4524 41.13 15.5862 41.1969L20.7529 43.7802C20.8647 43.8361 20.9881 43.8653 21.1131 43.8653C21.2382 43.8653 21.3616 43.8361 21.4734 43.7802L26.6401 41.1969C26.7739 41.13 26.8865 41.0271 26.9652 40.8999C27.0438 40.7726 27.0855 40.6259 27.0855 40.4763ZM21.1131 32.766L24.4782 34.4485L21.1131 36.1311L17.748 34.4485L21.1131 32.766ZM21.1131 42.159L16.7521 39.9784V35.7522L20.3075 37.5298V38.7328C20.3075 39.1779 20.6682 39.5385 21.1131 39.5385C21.5581 39.5385 21.9188 39.1779 21.9188 38.7328V37.5298L25.4742 35.7522V39.9784L21.1131 42.159ZM40.8632 40.4763V34.4485C40.8632 34.2989 40.8215 34.1523 40.7429 34.025C40.6642 33.8977 40.5517 33.7949 40.4178 33.728L35.2512 31.1446C35.1393 31.0886 35.0159 31.0595 34.8909 31.0595C34.7658 31.0595 34.6424 31.0886 34.5306 31.1446L29.3639 33.728C29.2301 33.7949 29.1175 33.8977 29.0389 34.025C28.9602 34.1523 28.9185 34.2989 28.9185 34.4485V40.4763C28.9185 40.6259 28.9602 40.7726 29.0389 40.8999C29.1175 41.0271 29.2301 41.13 29.3639 41.1969L34.5306 43.7802C34.6424 43.8361 34.7658 43.8653 34.8909 43.8653C35.0159 43.8653 35.1393 43.8361 35.2512 43.7802L40.4178 41.1969C40.5517 41.13 40.6642 41.0271 40.7429 40.8999C40.8215 40.7726 40.8632 40.6259 40.8632 40.4763ZM34.8909 32.766L38.256 34.4485L34.8909 36.1311L31.5258 34.4485L34.8909 32.766ZM30.5299 35.7522L34.0852 37.5298V41.756L30.5299 39.9784V35.7522ZM35.6965 41.756V37.5298L39.2519 35.7522V39.9784L35.6965 41.756ZM18.3452 14.0867L18.9186 14.1293C19.1259 14.8847 19.4278 15.611 19.817 16.2908L19.4339 16.7405C18.8965 17.3711 18.9344 18.3242 19.5204 18.9102L20.7279 20.1177C21.3171 20.7068 22.2733 20.742 22.9044 20.1982L23.3429 19.8201C24.0225 20.2099 24.7486 20.5123 25.504 20.7201L25.5507 21.3048C25.6168 22.1308 26.3176 22.7779 27.1462 22.7779H28.8538C29.6872 22.7779 30.3884 22.1268 30.4498 21.2958L30.4924 20.7223C31.2478 20.515 31.9741 20.2131 32.6539 19.8239L33.1036 20.207C33.7344 20.7444 34.6874 20.7065 35.2733 20.1205L36.4806 18.9132C37.07 18.3239 37.1054 17.3677 36.5613 16.7364L36.1834 16.2979C36.5731 15.6183 36.8754 14.8922 37.0832 14.1369L37.6678 14.0902C38.4938 14.0242 39.1409 13.3234 39.1409 12.4946V10.7873C39.1409 9.95388 38.4898 9.25284 37.6588 9.19118L37.0853 9.14864C36.878 8.39322 36.5762 7.667 36.1869 6.98721L36.5701 6.53743C37.1074 5.90665 37.0694 4.9536 36.4835 4.36773L35.2762 3.16041C34.6869 2.57099 33.7308 2.53564 33.0995 3.07974L32.6609 3.45775C31.9813 3.068 31.2552 2.76565 30.4999 2.55788L30.4532 1.97308C30.3872 1.147 29.6865 0.5 28.8578 0.5H27.1503C26.3168 0.5 25.6156 1.15108 25.5542 1.9821L25.5116 2.55563C24.7562 2.76295 24.03 3.06479 23.3501 3.45399L22.9003 3.07082C22.2694 2.53339 21.3164 2.57142 20.7306 3.1574L19.5232 4.36472C18.9339 4.95403 18.8985 5.9103 19.4426 6.54141L19.8205 6.9799C19.4308 7.65952 19.1285 8.38564 18.9207 9.14102L18.336 9.18775C17.51 9.2537 16.863 9.95463 16.863 10.7833V12.4908C16.8631 13.3239 17.5141 14.0251 18.3452 14.0867ZM18.4744 10.7931L19.6316 10.7006C19.8056 10.6867 19.9703 10.6167 20.1011 10.5011C20.2319 10.3855 20.3216 10.2305 20.3567 10.0596C20.5551 9.09343 20.9357 8.17981 21.4878 7.34417C21.5846 7.19779 21.6309 7.02383 21.6197 6.84872C21.6085 6.67362 21.5405 6.50695 21.426 6.37404L20.6699 5.49684L21.8632 4.3037L22.7505 5.05974C22.8833 5.17289 23.0493 5.23987 23.2234 5.2506C23.3976 5.26134 23.5705 5.21524 23.7162 5.11925C24.5532 4.56785 25.4672 4.18833 26.4328 3.99132C26.6047 3.95624 26.7605 3.86598 26.8764 3.73427C26.9924 3.60256 27.0622 3.4366 27.0752 3.2616L27.1605 2.11133H28.848L28.9404 3.26858C28.9544 3.44255 29.0244 3.60729 29.14 3.73804C29.2556 3.86878 29.4105 3.95846 29.5814 3.99357C30.5477 4.19209 31.4613 4.57258 32.2967 5.12462C32.4431 5.22135 32.6171 5.26765 32.7922 5.25648C32.9673 5.24531 33.134 5.17729 33.2669 5.06274L34.144 4.30671L35.3372 5.49984L34.5812 6.38715C34.468 6.51997 34.401 6.68593 34.3903 6.86008C34.3796 7.03424 34.4257 7.20717 34.5217 7.35287C35.0729 8.1898 35.4525 9.10374 35.6496 10.0694C35.6847 10.2413 35.7749 10.3971 35.9066 10.513C36.0383 10.629 36.2043 10.6987 36.3793 10.7117L37.5296 10.797V12.4845L36.3725 12.5769C36.1986 12.5908 36.0338 12.6608 35.903 12.7764C35.7723 12.892 35.6826 13.0469 35.6474 13.2179C35.449 14.1839 35.0684 15.0976 34.5163 15.9333C34.4196 16.0797 34.3733 16.2536 34.3844 16.4287C34.3956 16.6038 34.4636 16.7704 34.5782 16.9033L35.3342 17.7805L34.141 18.9737L33.2537 18.2176C33.1208 18.1044 32.9548 18.0375 32.7807 18.0267C32.6065 18.016 32.4335 18.0621 32.2878 18.1581C31.451 18.7095 30.5371 19.089 29.5713 19.286C29.3994 19.3211 29.2436 19.4114 29.1276 19.5431C29.0117 19.6749 28.9419 19.8409 28.929 20.0159L28.8437 21.1661H27.1562L27.0637 20.0089C27.0498 19.8349 26.9798 19.6702 26.8642 19.5394C26.7486 19.4086 26.5936 19.3189 26.4227 19.2838C25.4565 19.0854 24.5429 18.7048 23.7074 18.1526C23.561 18.0559 23.387 18.0096 23.2119 18.0208C23.0368 18.0319 22.8702 18.1 22.7373 18.2145L21.8602 18.9705L20.667 17.7773L21.4231 16.89C21.5362 16.7572 21.6032 16.5912 21.614 16.417C21.6247 16.2428 21.5786 16.0699 21.4826 15.9242C20.9312 15.0875 20.5517 14.1735 20.3546 13.2078C20.3196 13.0358 20.2293 12.88 20.0976 12.7641C19.9658 12.6481 19.7998 12.5784 19.6248 12.5654L18.4745 12.4801L18.4744 10.7931ZM28.002 24.6111C27.7883 24.6111 27.5834 24.6959 27.4323 24.847C27.2812 24.9981 27.1963 25.203 27.1963 25.4167V29.0275L26.0633 27.5166C25.9998 27.432 25.9202 27.3607 25.8292 27.3068C25.7382 27.2528 25.6374 27.2174 25.5327 27.2024C25.4279 27.1875 25.3213 27.1933 25.2188 27.2195C25.1163 27.2458 25.02 27.292 24.9353 27.3555C24.8507 27.419 24.7794 27.4985 24.7255 27.5895C24.6716 27.6806 24.6361 27.7813 24.6212 27.8861C24.6062 27.9908 24.612 28.0975 24.6383 28.2C24.6645 28.3024 24.7107 28.3988 24.7742 28.4834L27.3575 31.9278C27.4325 32.0278 27.5298 32.1091 27.6417 32.165C27.7536 32.2209 27.8769 32.25 28.002 32.25C28.1271 32.25 28.2504 32.2209 28.3623 32.165C28.4742 32.1091 28.5715 32.0278 28.6465 31.9278L31.2298 28.4834C31.358 28.3125 31.4131 28.0976 31.3829 27.8861C31.3526 27.6745 31.2396 27.4837 31.0687 27.3555C30.8977 27.2273 30.6829 27.1722 30.4714 27.2024C30.2598 27.2327 30.069 27.3457 29.9408 27.5166L28.8077 29.0274V25.4166C28.8076 25.203 28.7227 24.9981 28.5717 24.847C28.4206 24.6959 28.2157 24.6111 28.002 24.6111Z" fill="#52006A"/>
    <path d="M28.003 16.7501C30.8213 16.7501 33.1142 14.4572 33.1142 11.6389C33.1142 11.0141 32.9931 10.3883 32.7544 9.77922C32.6765 9.58027 32.5227 9.42044 32.3269 9.3349C32.1311 9.24935 31.9093 9.24509 31.7103 9.32305C31.5114 9.40101 31.3516 9.55481 31.266 9.75062C31.1805 9.94642 31.1762 10.1682 31.2542 10.3671C31.4192 10.7882 31.5029 11.2162 31.5029 11.639C31.5029 13.5688 29.9328 15.1389 28.003 15.1389C26.0731 15.1389 24.503 13.5688 24.503 11.639C24.503 9.70918 26.0731 8.1391 28.003 8.1391C28.4259 8.1391 28.8537 8.22278 29.2748 8.38778C29.473 8.46198 29.6924 8.45525 29.8856 8.36905C30.0789 8.28284 30.2305 8.12408 30.3076 7.92706C30.3848 7.73003 30.3814 7.51056 30.2981 7.31603C30.2148 7.12151 30.0584 6.96756 29.8625 6.88742C29.2533 6.64873 28.6276 6.52777 28.0028 6.52777C25.1845 6.52777 22.8916 8.82069 22.8916 11.639C22.8917 14.4573 25.1846 16.7501 28.003 16.7501Z" fill="#52006A"/>
  </g>
  <defs>
    <clipPath id="clip0_2798_26383">
      <rect width="55" height="55" fill="white" transform="translate(0.5 0.5)"/>
    </clipPath>
  </defs>
</svg>