<svg width="52" height="52" viewBox="0 0 52 52" fill="none" xmlns="http://www.w3.org/2000/svg">
<path d="M14.3339 12.6659H7.66718C5.82634 12.6659 4.33398 14.1582 4.33398 15.9992V44.3326" stroke="#52006A" stroke-width="1.5" stroke-miterlimit="10" stroke-linecap="round" stroke-linejoin="round"/>
<path d="M47.6659 44.3326V15.9992C47.6659 14.1582 46.1736 12.6659 44.3326 12.6659H37.666" stroke="#52006A" stroke-width="1.5" stroke-miterlimit="10" stroke-linecap="round" stroke-linejoin="round"/>
<path d="M37.666 15.9994H43.4995C43.609 15.9994 43.7173 16.0209 43.8184 16.0628C43.9195 16.1047 44.0114 16.166 44.0888 16.2434C44.1662 16.3208 44.2276 16.4127 44.2695 16.5138C44.3114 16.6149 44.3329 16.7233 44.3329 16.8327V44.3325" stroke="#52006A" stroke-width="1.5" stroke-miterlimit="10" stroke-linecap="round" stroke-linejoin="round"/>
<path d="M7.66602 21.9901V16.8327C7.66602 16.7233 7.68757 16.6149 7.72945 16.5138C7.77132 16.4127 7.8327 16.3208 7.91008 16.2435C7.98746 16.1661 8.07932 16.1047 8.18043 16.0628C8.28153 16.0209 8.38988 15.9994 8.49932 15.9994H14.3328" stroke="#52006A" stroke-width="1.5" stroke-miterlimit="10" stroke-linecap="round" stroke-linejoin="round"/>
<path d="M7.66602 44.3325V25.0083" stroke="#52006A" stroke-width="1.5" stroke-miterlimit="10" stroke-linecap="round" stroke-linejoin="round"/>
<path d="M42.8244 50.9993H4.21932C2.44135 50.9993 1 49.558 1 47.78V45.1375C1 44.924 1.08479 44.7193 1.23573 44.5684C1.38666 44.4174 1.59138 44.3326 1.80483 44.3326H50.1952C50.4086 44.3326 50.6133 44.4174 50.7643 44.5684C50.9152 44.7193 51 44.924 51 45.1375V47.78C51 49.558 49.5587 50.9993 47.7807 50.9993H45.8425" stroke="#52006A" stroke-width="1.5" stroke-miterlimit="10" stroke-linecap="round" stroke-linejoin="round"/>
<path d="M21 44.3326V46.8326C21 46.9421 21.0216 47.0504 21.0634 47.1515C21.1053 47.2526 21.1667 47.3445 21.2441 47.4219C21.4003 47.5781 21.6123 47.6659 21.8333 47.6659H30.1667C30.2761 47.6659 30.3845 47.6444 30.4856 47.6025C30.5867 47.5606 30.6786 47.4992 30.7559 47.4219C30.8333 47.3445 30.8947 47.2526 30.9366 47.1515C30.9784 47.0504 31 46.9421 31 46.8326V44.3326" stroke="#52006A" stroke-width="1.5" stroke-miterlimit="10" stroke-linecap="round" stroke-linejoin="round"/>
<path d="M6 49.3326V50.9993" stroke="#52006A" stroke-width="1.5" stroke-miterlimit="10" stroke-linecap="round" stroke-linejoin="round"/>
<path d="M9.33398 49.3326V50.9993" stroke="#52006A" stroke-width="1.5" stroke-miterlimit="10" stroke-linecap="round" stroke-linejoin="round"/>
<path d="M12.666 49.3326V50.9993" stroke="#52006A" stroke-width="1.5" stroke-miterlimit="10" stroke-linecap="round" stroke-linejoin="round"/>
<path d="M17.6674 25.9993H16.0007C15.0802 25.9993 14.334 25.2531 14.334 24.3326V2.66598C14.334 1.74545 15.0802 0.999273 16.0007 0.999273H32.6674C33.5878 0.999273 34.334 1.74545 34.334 2.66598V4.35863" stroke="#52006A" stroke-width="1.5" stroke-miterlimit="10" stroke-linecap="round" stroke-linejoin="round"/>
<path d="M36.0564 29.3326H19.2757C18.3866 29.3326 17.666 28.6119 17.666 27.723V5.94225C17.666 5.05331 18.3866 4.33259 19.2757 4.33259H36.0564C36.9453 4.33259 37.666 5.05331 37.666 5.94225V27.723C37.666 28.6119 36.9453 29.3326 36.0564 29.3326Z" stroke="#52006A" stroke-width="1.5" stroke-miterlimit="10" stroke-linecap="round" stroke-linejoin="round"/>
<path d="M30.1959 10.9993H25.1388C24.9254 10.9993 24.7206 10.9145 24.5697 10.7636C24.4188 10.6126 24.334 10.4079 24.334 10.1945V8.47082C24.334 8.25737 24.4188 8.05266 24.5697 7.90172C24.7206 7.75079 24.9254 7.666 25.1388 7.666H30.1959C30.4093 7.666 30.614 7.75079 30.765 7.90172C30.9159 8.05266 31.0007 8.25737 31.0007 8.47082V10.1945C31.0007 10.4079 30.9159 10.6126 30.765 10.7636C30.614 10.9145 30.4093 10.9993 30.1959 10.9993Z" stroke="#52006A" stroke-width="1.5" stroke-miterlimit="10" stroke-linecap="round" stroke-linejoin="round"/>
<path d="M21 14.3326H34.3333" stroke="#52006A" stroke-width="1.5" stroke-miterlimit="10" stroke-linecap="round" stroke-linejoin="round"/>
<path d="M21 17.6659H34.3333" stroke="#52006A" stroke-width="1.5" stroke-miterlimit="10" stroke-linecap="round" stroke-linejoin="round"/>
<path d="M22.666 20.9993H32.6659" stroke="#52006A" stroke-width="1.5" stroke-miterlimit="10" stroke-linecap="round" stroke-linejoin="round"/>
<path d="M22.9227 37.7554L25.3868 40.7124C25.7056 41.095 26.2932 41.095 26.612 40.7124L29.0761 37.7554C29.5089 37.236 29.1396 36.4475 28.4635 36.4475C28.252 36.4475 28.0492 36.3635 27.8996 36.2139C27.75 36.0644 27.666 35.8616 27.666 35.6501V33.9116C27.666 33.7001 27.582 33.4973 27.4324 33.3477C27.2829 33.1982 27.0801 33.1142 26.8686 33.1142H25.1302C24.9187 33.1142 24.7159 33.1982 24.5663 33.3477C24.4168 33.4973 24.3328 33.7001 24.3328 33.9116V35.6501C24.3328 35.8616 24.2487 36.0644 24.0992 36.2139C23.9496 36.3635 23.7468 36.4475 23.5353 36.4475C22.8591 36.4475 22.4898 37.236 22.9227 37.7554Z" stroke="#52006A" stroke-width="1.5" stroke-miterlimit="10" stroke-linecap="round" stroke-linejoin="round"/>
</svg>
