<svg width="50" height="50" viewBox="0 0 50 50" fill="none" xmlns="http://www.w3.org/2000/svg">
<path d="M37.8407 23.9955H23.5985C23.1214 26.2477 21.6206 28.1212 19.6055 29.1066C19.6417 29.1101 19.6783 29.1122 19.7154 29.1122H37.8407C38.4873 29.1122 39.0114 28.5881 39.0114 27.9415V25.1662C39.0114 24.5196 38.4872 23.9955 37.8407 23.9955Z" stroke="#52006A" stroke-width="1.46484" stroke-miterlimit="10" stroke-linecap="round" stroke-linejoin="round"/>
<path d="M35.6573 29.1121H19.5951C18.6413 29.5766 17.5728 29.8411 16.4436 29.8538C16.3894 29.9904 16.3615 30.1359 16.3613 30.2828V33.0581C16.3613 33.7047 16.8854 34.2288 17.532 34.2288H35.6573C36.3039 34.2288 36.828 33.7047 36.828 33.0581V30.2828C36.8279 29.6362 36.3038 29.1121 35.6573 29.1121ZM19.4627 34.5484H29.1248C31.3335 34.5484 33.1239 36.3389 33.1239 38.5476V39.1402C33.1239 39.2138 33.1064 39.2829 33.0772 39.3455H37.8412C38.4878 39.3455 39.0119 38.8214 39.0119 38.1748V35.3995C39.0119 34.7529 38.4878 34.2288 37.8412 34.2288H19.7158C19.3631 34.2288 19.0477 34.3856 18.833 34.6322C19.0384 34.577 19.25 34.5488 19.4627 34.5484Z" stroke="#52006A" stroke-width="1.46484" stroke-miterlimit="10" stroke-linecap="round" stroke-linejoin="round"/>
<path d="M18.6465 12.4023C18.8191 13.6333 19.2159 14.8221 19.8173 15.9099C21.2992 16.6946 22.4822 17.9672 23.1526 19.5145C24.7669 20.579 26.7002 21.1991 28.7785 21.1991C34.4303 21.1991 39.0118 16.6175 39.0118 10.9657C39.0118 5.31397 34.4303 0.732422 28.7785 0.732422C23.8048 0.732422 19.6604 4.28106 18.7376 8.98438M32.6356 39.6284H27.5217C26.5604 39.6284 25.7813 40.4076 25.7813 41.3688C25.7813 42.33 26.5605 43.1091 27.5217 43.1091H34.7376C35.1992 43.1091 35.6418 42.9257 35.9683 42.5993L38.7667 39.8009C38.5525 39.5242 38.2183 39.3454 37.8413 39.3454H33.0773C32.9995 39.5122 32.8316 39.6284 32.6356 39.6284Z" stroke="#52006A" stroke-width="1.46484" stroke-miterlimit="10" stroke-linecap="round" stroke-linejoin="round"/>
<path d="M31.8499 8.61514C31.8499 7.61006 31.0352 6.79521 30.03 6.79521H27.5276C26.5226 6.79521 25.7077 7.60996 25.7077 8.61514V9.1459C25.7077 10.151 26.5225 10.9657 27.5276 10.9657H30.03C31.0351 10.9657 31.8499 11.7805 31.8499 12.7856V13.3164C31.8499 14.3215 31.0352 15.1363 30.03 15.1363H27.5276C26.5226 15.1363 25.7077 14.3216 25.7077 13.3164M28.7788 5.12695V6.79521M28.7788 15.1363V16.8046M34.4277 14.7875C35.9845 12.4882 35.9845 9.44336 34.4277 7.14404M23.13 7.14404C21.5732 9.44336 21.5732 12.4882 23.13 14.7875M31.4001 48.1891H36.5517C37.1991 48.1891 37.8201 47.9318 38.278 47.474L47.3952 38.3568C47.4868 38.2653 47.5382 38.1411 47.5382 38.0116C47.5382 37.8821 47.4868 37.7579 47.3952 37.6663L47.3481 37.6192C45.5813 35.852 42.7162 35.8518 40.9491 37.6188L35.9686 42.5994C35.6422 42.9258 35.1995 43.1092 34.7379 43.1092H27.522C26.5607 43.1092 25.7816 42.33 25.7816 41.3688C25.7816 40.4077 26.5608 39.6285 27.522 39.6285H32.6359C32.7654 39.6285 32.8896 39.5771 32.9812 39.4855C33.0728 39.3939 33.1242 39.2697 33.1242 39.1402V38.5477C33.1242 36.339 31.3338 34.5485 29.1251 34.5485H19.463C18.8652 34.5486 18.2883 34.7678 17.8414 35.1648L14.4111 38.2126V48.1891H27.9821" stroke="#52006A" stroke-width="1.46484" stroke-miterlimit="10" stroke-linecap="round" stroke-linejoin="round"/>
<path d="M16.3589 29.856C20.4468 29.856 23.7607 26.542 23.7607 22.4541C23.7607 18.3662 20.4468 15.0522 16.3589 15.0522C12.271 15.0522 8.95703 18.3662 8.95703 22.4541C8.95703 26.542 12.271 29.856 16.3589 29.856Z" stroke="#52006A" stroke-width="1.46484" stroke-miterlimit="10" stroke-linecap="round" stroke-linejoin="round"/>
<path d="M12.7453 22.092L15.5993 24.946L20.023 20.5223M2.46191 41.6992V48.291C2.46191 48.8304 2.89912 49.2676 3.43848 49.2676H13.4341C13.9734 49.2676 14.4106 48.8304 14.4106 48.291V36.6035C14.4106 36.0642 13.9734 35.627 13.4341 35.627H3.43848C2.89912 35.627 2.46191 36.0642 2.46191 36.6035V38.2813" stroke="#52006A" stroke-width="1.46484" stroke-miterlimit="10" stroke-linecap="round" stroke-linejoin="round"/>
</svg>
