<svg width="50" height="50" viewBox="0 0 50 50" fill="none" xmlns="http://www.w3.org/2000/svg">
<path d="M25 11.1328C17.3536 11.1328 11.1328 17.3536 11.1328 25C11.1328 32.6464 17.3536 38.8672 25 38.8672C32.6464 38.8672 38.8672 32.6464 38.8672 25C38.8672 17.3536 32.6464 11.1328 25 11.1328ZM25 36.9141C18.4306 36.9141 13.0859 31.5694 13.0859 25C13.0859 18.4306 18.4306 13.0859 25 13.0859C31.5694 13.0859 36.9141 18.4306 36.9141 25C36.9141 31.5694 31.5694 36.9141 25 36.9141ZM49.4815 0.114056C49.325 0.0309459 49.1487 -0.00800754 48.9717 0.00136791C48.7947 0.0107433 48.6236 0.0680945 48.4767 0.167279C43.6825 3.40663 40.8203 8.79492 40.8203 14.581V27.252C40.8203 28.6111 41.3496 29.8889 42.3105 30.8499L44.1406 32.68V47.0703C44.1406 48.6857 45.4549 50 47.0703 50C48.6857 50 50 48.6857 50 47.0703V0.976556C50 0.615326 49.8006 0.283587 49.4815 0.114056ZM48.0469 47.0703C48.0469 47.6088 47.6088 48.0469 47.0703 48.0469C46.5318 48.0469 46.0938 47.6088 46.0938 47.0703V32.2754C46.0938 32.0164 45.9908 31.7681 45.8077 31.5849L43.6916 29.4687C43.0995 28.8767 42.7734 28.0894 42.7734 27.252V14.581C42.7734 10.0907 44.7149 5.8706 48.0469 2.95869V47.0703Z" fill="#52006A"/>
<path d="M22.7596 17.2552C22.5479 16.7592 21.9738 16.5288 21.4779 16.7404C19.8585 17.43 18.4778 18.5808 17.5078 20.0495C16.5378 21.5182 16.0214 23.2399 16.0229 25C16.0229 25.5393 16.4602 25.9766 16.9995 25.9766C17.5389 25.9766 17.9761 25.5393 17.9761 25C17.9749 23.6227 18.379 22.2755 19.1381 21.1262C19.8971 19.9769 20.9776 19.0764 22.2448 18.5368C22.7408 18.3251 22.9713 17.7513 22.7596 17.2552ZM25 16.0229L24.9507 16.023C24.4113 16.0267 23.9771 16.4668 23.9807 17.0062C23.9843 17.5433 24.4208 17.9762 24.9571 17.9762H24.9638L25 17.9761C25.5394 17.9761 25.9766 17.5389 25.9766 16.9995C25.9766 16.4602 25.5394 16.0229 25 16.0229ZM38.5374 12.1562C36.812 10.3382 34.7782 8.90771 32.4926 7.90459C30.1258 6.86592 27.6049 6.33926 25 6.33926C22.0234 6.33926 19.1781 7.01953 16.5432 8.36133C16.0626 8.60606 15.8713 9.19404 16.116 9.67471C16.3608 10.1552 16.9488 10.3464 17.4295 10.1018C19.7873 8.90117 22.3344 8.29238 25 8.29238C29.6285 8.29238 33.9331 10.142 37.1207 13.5007C37.2119 13.597 37.3217 13.6736 37.4435 13.726C37.5654 13.7783 37.6966 13.8052 37.8292 13.805C38.0794 13.8053 38.3201 13.7092 38.5013 13.5367C38.8925 13.1654 38.9086 12.5474 38.5374 12.1562ZM39.4854 35.1933C39.0623 34.8589 38.4482 34.9307 38.1138 35.3537C34.9211 39.3918 30.1413 41.7076 25 41.7076C21.7822 41.7076 18.6585 40.7912 15.9665 39.0574C15.5132 38.7653 14.9087 38.8963 14.6167 39.3496C14.3247 39.8031 14.4556 40.4074 14.909 40.6994C17.917 42.6367 21.4064 43.6606 25 43.6606C30.7422 43.6606 36.0804 41.0744 39.6458 36.5649C39.9803 36.142 39.9086 35.5278 39.4854 35.1933ZM13.2771 36.9066L13.2628 36.8901C13.2576 36.8838 13.2524 36.8773 13.2471 36.8711C12.8997 36.4584 12.2837 36.4057 11.8711 36.7529C11.4585 37.1004 11.4056 37.7163 11.753 38.129L11.7625 38.1402L11.763 38.1398C11.7733 38.1529 11.7841 38.166 11.7952 38.1789C11.8868 38.2859 12.0006 38.3717 12.1286 38.4305C12.2566 38.4892 12.3958 38.5196 12.5366 38.5193C12.7699 38.5196 12.9955 38.436 13.1723 38.2838C13.5814 37.9324 13.6284 37.3159 13.2771 36.9066ZM12.1094 0C11.57 0 11.1328 0.437207 11.1328 0.976562V11.5234H9.37422C9.37432 11.518 9.375 11.5127 9.375 11.5071V0.976562C9.375 0.437207 8.93779 0 8.39844 0C7.85908 0 7.42188 0.437207 7.42188 0.976562V11.5071C7.42188 11.5126 7.42266 11.518 7.42266 11.5234H5.66328C5.66338 11.518 5.66406 11.5127 5.66406 11.5071V0.976562C5.66406 0.437207 5.22686 0 4.6875 0C4.14814 0 3.71094 0.437207 3.71094 0.976562V11.5071C3.71094 11.5126 3.71172 11.518 3.71172 11.5234H1.95312V0.976562C1.95312 0.437207 1.51592 0 0.976562 0C0.437207 0 0 0.437207 0 0.976562V12.8906C0 15.2861 1.45352 17.4481 3.61328 18.3827V47.0703C3.61328 48.6857 4.92754 50 6.54297 50C8.1584 50 9.47266 48.6857 9.47266 47.0703V18.3827C11.6324 17.4481 13.0859 15.2861 13.0859 12.8906V0.976562C13.0859 0.437207 12.6487 0 12.1094 0ZM8.225 16.7598C8.0216 16.8185 7.84282 16.9418 7.71558 17.111C7.58833 17.2803 7.51953 17.4862 7.51953 17.698V47.0703C7.51953 47.6088 7.08145 48.0469 6.54297 48.0469C6.00449 48.0469 5.56641 47.6088 5.56641 47.0703V17.698C5.56641 17.4862 5.4976 17.2803 5.37036 17.111C5.24312 16.9418 5.06433 16.8185 4.86094 16.7598C3.33916 16.32 2.22607 15.0138 1.99727 13.4766H11.0886C10.8599 15.0138 9.74678 16.32 8.225 16.7598Z" fill="#52006A"/>
</svg>
