<svg width="54" height="54" viewBox="0 0 54 54" fill="none" xmlns="http://www.w3.org/2000/svg">
<path d="M49.0233 22.1058H40.0299V9.99859H40.0288C40.0288 9.84021 39.9688 9.68391 39.8539 9.5659L32.7341 2.24113C32.6761 2.18191 32.6068 2.13491 32.5304 2.10291C32.4539 2.07091 32.3718 2.05455 32.289 2.0548V2.05273H7.66363C5.19479 2.05273 3.18555 4.05369 3.18555 6.51322V39.2366C3.18555 40.515 3.74246 41.7272 4.69687 42.5708C4.36238 43.3854 4.19042 44.2575 4.19068 45.138C4.19068 48.8925 7.25785 51.9473 11.0279 51.9473C13.2576 51.9473 15.242 50.878 16.4904 49.2279C17.0266 49.2724 17.5804 49.2952 18.1415 49.2952C21.3784 49.2952 24.8617 48.523 24.8617 46.8263V43.6981H28.0055V48.7217C28.0055 49.7082 28.8088 50.5115 29.7953 50.5115H49.0233C50.0108 50.5115 50.8131 49.7082 50.8131 48.7217V23.8956C50.8141 22.9091 50.0108 22.1058 49.0233 22.1058ZM32.9101 4.20379L37.9399 9.3775H35.3158C33.9897 9.3775 32.9101 8.30508 32.9101 6.98629V4.20379ZM11.0279 50.7051C7.94312 50.7051 5.43287 48.2083 5.43287 45.138C5.43287 42.0677 7.94312 39.5709 11.0279 39.5709C14.1127 39.5709 16.6229 42.0677 16.6229 45.138C16.6229 48.2083 14.1127 50.7051 11.0279 50.7051ZM12.6634 33.5639C13.9657 34.215 16.1022 34.5225 18.1415 34.5225C20.1807 34.5225 22.3173 34.215 23.6195 33.5639V35.7409C23.5212 36.0825 21.6962 36.9748 18.1415 36.9748C14.5805 36.9748 12.7556 36.0794 12.6634 35.7481V33.5639ZM12.6665 32.0526C12.7959 31.7048 14.6261 30.8259 18.1415 30.8259C21.6569 30.8259 23.487 31.7048 23.6175 32.0526C23.4881 32.4004 21.6579 33.2793 18.1415 33.2793C14.6251 33.2793 12.7959 32.4014 12.6665 32.0526ZM17.8196 44.3627C17.7181 43.4724 17.4438 42.634 17.0308 41.8814C17.3951 41.9011 17.7657 41.9125 18.1415 41.9125C20.1807 41.9125 22.3173 41.605 23.6195 40.9539V43.1308C23.5253 43.4714 21.6993 44.3658 18.1415 44.3658C18.0338 44.3658 17.9272 44.3637 17.8196 44.3627ZM12.6634 37.2594C13.9657 37.9105 16.1022 38.218 18.1415 38.218C20.1807 38.218 22.3173 37.9105 23.6195 37.2594V39.4364C23.5233 39.778 21.6983 40.6713 18.1415 40.6713C17.4293 40.6713 16.7378 40.632 16.0805 40.5574C15.182 39.5761 13.9998 38.8567 12.6634 38.5296V37.2594ZM18.1415 48.053C17.8299 48.053 17.5204 48.0458 17.215 48.0313C17.568 47.286 17.7875 46.4672 17.8465 45.6049C17.9448 45.6059 18.0431 45.608 18.1415 45.608C20.1807 45.608 22.3183 45.3005 23.6195 44.6494V46.817C23.5274 47.1576 21.7024 48.053 18.1415 48.053ZM24.8617 42.4559V32.0526C24.8617 30.356 21.3784 29.5837 18.1415 29.5837C14.9046 29.5837 11.4213 30.356 11.4213 32.0526V38.3412C11.2908 38.3339 11.1594 38.3288 11.0279 38.3288C8.6315 38.3288 6.52082 39.5637 5.30037 41.4259C4.74656 40.8349 4.42773 40.0544 4.42773 39.2355V6.51322C4.4267 4.73897 5.87902 3.29492 7.66363 3.29492H31.6679V6.98629C31.6679 8.98932 33.3045 10.6197 35.3158 10.6197H38.7887V22.1058H29.7953C28.8077 22.1058 28.0055 22.9091 28.0055 23.8956V42.4559H24.8617ZM49.5719 48.7207C49.5719 49.0229 49.3266 49.2683 49.0243 49.2683H29.7953C29.493 49.2683 29.2477 49.0229 29.2477 48.7207V23.8956C29.2477 23.5933 29.493 23.348 29.7953 23.348H49.0233C49.3256 23.348 49.5709 23.5933 49.5709 23.8956V48.7207H49.5719ZM46.5576 24.8355H32.261C31.5581 24.8355 30.9867 25.4069 30.9867 26.1098V32.4739C30.9867 33.1768 31.5581 33.7482 32.261 33.7482H46.5576C47.2604 33.7482 47.8318 33.1768 47.8318 32.4739V26.1098C47.8318 25.4079 47.2604 24.8355 46.5576 24.8355ZM46.5896 32.4749C46.5896 32.4915 46.5731 32.507 46.5576 32.507H32.261C32.2445 32.507 32.2289 32.4915 32.2289 32.4749V26.1108C32.2289 26.0942 32.2455 26.0787 32.261 26.0787H46.5576C46.5741 26.0787 46.5896 26.0942 46.5896 26.1108V32.4749ZM35.3592 35.3786H31.6089C31.2662 35.3786 30.9878 35.657 30.9878 35.9996V38.2294C30.9878 38.572 31.2662 38.8505 31.6089 38.8505H35.3592C35.7019 38.8505 35.9803 38.572 35.9803 38.2294V35.9996C35.9803 35.657 35.7019 35.3786 35.3592 35.3786ZM34.7381 37.6093H32.23V36.6218H34.7381V37.6093ZM41.2855 35.3786H37.5341C37.1915 35.3786 36.913 35.657 36.913 35.9996V38.2294C36.913 38.572 37.1915 38.8505 37.5341 38.8505H41.2855C41.6281 38.8505 41.9066 38.572 41.9066 38.2294V35.9996C41.9066 35.657 41.6281 35.3786 41.2855 35.3786ZM40.6644 37.6093H38.1552V36.6218H40.6644V37.6093ZM47.2107 35.3786H43.4593C43.1167 35.3786 42.8382 35.657 42.8382 35.9996V38.2294C42.8382 38.572 43.1167 38.8505 43.4593 38.8505H47.2107C47.5534 38.8505 47.8318 38.572 47.8318 38.2294V35.9996C47.8318 35.657 47.5544 35.3786 47.2107 35.3786ZM46.5896 37.6093H44.0804V36.6218H46.5896V37.6093ZM35.3592 39.9643H31.6089C31.2662 39.9643 30.9878 40.2428 30.9878 40.5854V42.8151C30.9878 43.1578 31.2662 43.4362 31.6089 43.4362H35.3592C35.7019 43.4362 35.9803 43.1578 35.9803 42.8151V40.5854C35.9803 40.2428 35.7019 39.9643 35.3592 39.9643ZM34.7381 42.1951H32.23V41.2075H34.7381V42.1951ZM41.2855 39.9643H37.5341C37.1915 39.9643 36.913 40.2428 36.913 40.5854V42.8151C36.913 43.1578 37.1915 43.4362 37.5341 43.4362H41.2855C41.6281 43.4362 41.9066 43.1578 41.9066 42.8151V40.5854C41.9066 40.2428 41.6281 39.9643 41.2855 39.9643ZM40.6644 42.1951H38.1552V41.2075H40.6644V42.1951ZM47.2107 39.9643H43.4593C43.1167 39.9643 42.8382 40.2428 42.8382 40.5854V42.8151C42.8382 43.1578 43.1167 43.4362 43.4593 43.4362H47.2107C47.5534 43.4362 47.8318 43.1578 47.8318 42.8151V40.5854C47.8318 40.2428 47.5544 39.9643 47.2107 39.9643ZM46.5896 42.1951H44.0804V41.2075H46.5896V42.1951ZM35.3592 44.55H31.6089C31.2662 44.55 30.9878 44.8285 30.9878 45.1711V47.4009C30.9878 47.7435 31.2662 48.022 31.6089 48.022H35.3592C35.7019 48.022 35.9803 47.7435 35.9803 47.4009V45.1711C35.9803 44.8285 35.7019 44.55 35.3592 44.55ZM34.7381 46.7798H32.23V45.7922H34.7381V46.7798ZM41.2855 44.55H37.5341C37.1915 44.55 36.913 44.8285 36.913 45.1711V47.4009C36.913 47.7435 37.1915 48.022 37.5341 48.022H41.2855C41.6281 48.022 41.9066 47.7435 41.9066 47.4009V45.1711C41.9066 44.8285 41.6281 44.55 41.2855 44.55ZM40.6644 46.7798H38.1552V45.7922H40.6644V46.7798ZM47.2107 44.55H43.4593C43.1167 44.55 42.8382 44.8285 42.8382 45.1711V47.4009C42.8382 47.7435 43.1167 48.022 43.4593 48.022H47.2107C47.5534 48.022 47.8318 47.7435 47.8318 47.4009V45.1711C47.8318 44.8285 47.5544 44.55 47.2107 44.55ZM46.5896 46.7798H44.0804V45.7922H46.5896V46.7798ZM13.21 46.5489C13.21 47.4506 12.5527 48.2145 11.649 48.4702V49.2962C11.649 49.6389 11.3705 49.9173 11.0279 49.9173C10.6853 49.9173 10.4068 49.6389 10.4068 49.2962V48.4898C9.70807 48.318 9.13045 47.8449 8.88615 47.2031C8.8276 47.0493 8.83254 46.8784 8.8999 46.7282C8.96726 46.5779 9.09151 46.4606 9.24535 46.4019C9.39924 46.3434 9.57007 46.3483 9.72031 46.4157C9.87055 46.483 9.9879 46.6073 10.0466 46.7611C10.1718 47.0893 10.5579 47.318 10.9865 47.318C11.5175 47.318 11.9668 46.9651 11.9668 46.5479C11.9668 46.3636 11.915 46.1576 11.798 46.1111L10.8126 45.7198L10.0103 45.4454C9.30332 45.2043 8.84578 44.5293 8.84578 43.7261C8.84578 42.8244 9.50311 42.0605 10.4068 41.8048V40.9788C10.4068 40.6361 10.6853 40.3577 11.0279 40.3577C11.3705 40.3577 11.649 40.6361 11.649 40.9788V41.7851C12.3477 41.957 12.9253 42.43 13.1696 43.0718C13.2918 43.3927 13.1303 43.7509 12.8104 43.873C12.4906 43.9952 12.1314 43.8337 12.0092 43.5138C11.884 43.1857 11.4979 42.9569 11.0693 42.9569C10.5383 42.9569 10.089 43.3099 10.089 43.7271C10.089 43.9372 10.1739 44.1898 10.413 44.2716L11.2297 44.55C11.2391 44.5531 11.2484 44.5563 11.2577 44.5604L12.2577 44.9569C12.8539 45.1939 13.21 45.7891 13.21 46.5489ZM9.53002 10.9137C9.53002 9.59695 10.5621 8.49348 11.9388 8.21398V6.67367C11.9388 6.33104 12.2173 6.05258 12.5599 6.05258C12.9026 6.05258 13.181 6.33104 13.181 6.67367V8.19225C14.2679 8.37133 15.183 9.06074 15.5495 10.0224C15.608 10.1763 15.6031 10.3471 15.5357 10.4974C15.4684 10.6476 15.3441 10.7649 15.1903 10.8236C15.0364 10.8822 14.8655 10.8772 14.7153 10.8099C14.5651 10.7425 14.4477 10.6183 14.389 10.4644C14.1479 9.82986 13.4212 9.38682 12.622 9.38682C11.6024 9.38682 10.7722 10.0711 10.7722 10.9126C10.7722 11.3526 10.9637 11.8888 11.4999 12.072L12.7607 12.5026C12.7701 12.5057 12.7794 12.5088 12.7887 12.513L14.3321 13.1248C15.1199 13.4374 15.5898 14.2376 15.5898 15.2675C15.5898 16.5843 14.5578 17.6877 13.181 17.9672V19.5075C13.181 19.8502 12.9026 20.1286 12.5599 20.1286C12.2173 20.1286 11.9388 19.8502 11.9388 19.5075V17.989C10.8519 17.8099 9.93684 17.1205 9.57039 16.1588C9.44824 15.8379 9.60973 15.4797 9.93063 15.3576C10.2505 15.2354 10.6097 15.3969 10.7318 15.7168C10.973 16.3513 11.6997 16.7944 12.4978 16.7944C13.5174 16.7944 14.3476 16.1102 14.3476 15.2686C14.3476 15.0812 14.3135 14.4549 13.8746 14.281L12.3456 13.6744L11.0993 13.249C10.1459 12.9239 9.53002 12.0068 9.53002 10.9137ZM19.0286 9.82055C19.0286 9.47791 19.3071 9.19945 19.6497 9.19945H27.3047C27.6473 9.19945 27.9258 9.47791 27.9258 9.82055C27.9258 10.1632 27.6473 10.4416 27.3047 10.4416H19.6497C19.3071 10.4416 19.0286 10.1632 19.0286 9.82055ZM19.0286 14.25C19.0286 13.9073 19.3071 13.6289 19.6497 13.6289H33.8313C34.174 13.6289 34.4524 13.9073 34.4524 14.25C34.4524 14.5926 34.174 14.8711 33.8313 14.8711H19.6497C19.3071 14.8711 19.0286 14.5937 19.0286 14.25ZM19.0286 18.6805C19.0286 18.3378 19.3071 18.0594 19.6497 18.0594H25.0346C25.3772 18.0594 25.6557 18.3378 25.6557 18.6805C25.6557 19.0231 25.3772 19.3015 25.0346 19.3015H19.6497C19.3071 19.3015 19.0286 19.0231 19.0286 18.6805ZM33.9949 19.3015H27.5345C27.1919 19.3015 26.9134 19.0231 26.9134 18.6805C26.9134 18.3378 27.1919 18.0594 27.5345 18.0594H33.9949C34.3375 18.0594 34.616 18.3378 34.616 18.6805C34.616 19.0231 34.3386 19.3015 33.9949 19.3015ZM8.4224 22.7269C8.4224 22.3842 8.70086 22.1058 9.0435 22.1058H25.4248C25.7675 22.1058 26.0459 22.3842 26.0459 22.7269C26.0459 23.0695 25.7675 23.348 25.4248 23.348H9.0435C8.69982 23.348 8.4224 23.0695 8.4224 22.7269ZM19.216 27.3903C19.216 27.7329 18.9375 28.0113 18.5949 28.0113H9.0435C8.70086 28.0113 8.4224 27.7329 8.4224 27.3903C8.4224 27.0476 8.70086 26.7692 9.0435 26.7692H18.5949C18.9375 26.7692 19.216 27.0466 19.216 27.3903ZM26.5252 27.3903C26.5252 27.7329 26.2468 28.0113 25.9041 28.0113H21.3339C20.9913 28.0113 20.7128 27.7329 20.7128 27.3903C20.7128 27.0476 20.9913 26.7692 21.3339 26.7692H25.9041C26.2478 26.7692 26.5252 27.0466 26.5252 27.3903Z" fill="#52006A"/>
</svg>
