<svg width="19" height="15" viewBox="0 0 19 15" fill="none" xmlns="http://www.w3.org/2000/svg">
<path d="M17.706 2.25H0.77C0.347 2.25 0 1.744 0 1.125C0 0.506 0.346 0 0.77 0H17.706C18.129 0 18.476 0.506 18.476 1.125C18.476 1.744 18.129 2.25 17.706 2.25Z" fill="#201747"/>
<path d="M17.706 8.625H0.77C0.347 8.625 0 8.119 0 7.5C0 6.881 0.346 6.375 0.77 6.375H17.706C18.129 6.375 18.476 6.881 18.476 7.5C18.476 8.119 18.129 8.625 17.706 8.625Z" fill="#201747"/>
<path d="M17.706 15H0.77C0.347 15 0 14.494 0 13.875C0 13.256 0.346 12.75 0.77 12.75H17.706C18.129 12.75 18.476 13.256 18.476 13.875C18.476 14.494 18.129 15 17.706 15Z" fill="#201747"/>
</svg>
