<svg width="360" height="217" viewBox="0 0 360 217" fill="none" xmlns="http://www.w3.org/2000/svg">
<mask id="mask0_3406_492" style="mask-type:alpha" maskUnits="userSpaceOnUse" x="0" y="0" width="360" height="217">
<rect x="0.245395" y="0.263949" width="358.767" height="216.438" rx="9.5746" fill="white" stroke="#52006A" stroke-width="0.490789"/>
</mask>
<g mask="url(#mask0_3406_492)">
<path d="M51.0176 59.881L49.9459 46.3759C49.8794 45.5058 49.1432 44.8245 48.2708 44.8245H46.1537V47.9612C46.1537 48.3496 45.8393 48.6641 45.4508 48.6641C45.0628 48.6641 44.7479 48.3496 44.7479 47.9612V44.8245H38.2815V47.9612C38.2815 48.3496 37.9666 48.6641 37.5786 48.6641C37.1901 48.6641 36.8757 48.3496 36.8757 47.9612V44.8245H34.7586C33.8861 44.8245 33.15 45.5058 33.0835 46.374L32.0113 59.8829C31.9284 60.9649 32.3037 62.0417 33.0408 62.8373C33.7779 63.633 34.8228 64.0898 35.9076 64.0898H47.1218C48.2066 64.0898 49.2515 63.633 49.9886 62.8373C50.7257 62.0416 51.101 60.9648 51.0176 59.881ZM44.6814 53.0036L41.0461 56.6389C40.9809 56.7043 40.9034 56.7562 40.8181 56.7916C40.7328 56.8269 40.6413 56.8451 40.549 56.845C40.4566 56.8451 40.3651 56.8269 40.2798 56.7916C40.1945 56.7562 40.117 56.7043 40.0518 56.6389L38.348 54.9351C38.0734 54.6605 38.0734 54.2158 38.348 53.9412C38.6226 53.6666 39.0678 53.6666 39.3419 53.9412L40.549 55.1478L43.6876 52.0093C43.9617 51.7351 44.4069 51.7351 44.6815 52.0093C44.956 52.2839 44.956 52.729 44.6814 53.0036ZM41.5147 40.0898C38.9567 40.0898 36.8757 42.1713 36.8757 44.7293V44.8244H38.2815V44.7293C38.2815 42.9463 39.7318 41.4956 41.5148 41.4956C43.2977 41.4956 44.748 42.9463 44.748 44.7293V44.8244H46.1537V44.7293C46.1537 42.1713 44.0727 40.0898 41.5147 40.0898Z" fill="#52006A"/>
</g>
</svg>
