<svg xmlns="http://www.w3.org/2000/svg" width="52" height="52" viewBox="0 0 52 52" fill="none">
  <path d="M45.2399 49.2076L43.1599 47.8816L41.0799 49.1556C40.8207 49.3118 40.5217 49.3893 40.2193 49.3786C39.9169 49.3679 39.6241 49.2695 39.3767 49.0953C39.1292 48.9211 38.9378 48.6788 38.8256 48.3977C38.7135 48.1167 38.6855 47.8091 38.7451 47.5124L39.3327 45.1204L37.4711 43.5604C37.2511 43.3491 37.0979 43.0779 37.0305 42.7803C36.9631 42.4828 36.9844 42.1721 37.0917 41.8866C37.1991 41.601 37.3878 41.3532 37.6345 41.1738C37.8812 40.9944 38.1751 40.8913 38.4799 40.8772L40.7627 40.612L41.7195 38.3812C42.1979 37.2632 44.0543 37.2632 44.5847 38.3812L45.4843 40.612L47.8711 40.8772C49.2543 40.8772 49.7847 42.6816 48.7759 43.5292L46.9715 45.1204L47.4915 47.4604C47.5634 47.7532 47.5489 48.0606 47.4497 48.3454C47.3506 48.6302 47.1711 48.8801 46.9328 49.0649C46.6946 49.2498 46.4079 49.3617 46.1075 49.387C45.807 49.4123 45.5057 49.35 45.2399 49.2076ZM3.58786 32.5676C2.53494 29.0908 2.32056 25.4141 2.96229 21.8384C3.60402 18.2628 5.0836 14.8901 7.27986 11.9964C9.44142 9.10023 12.2444 6.74406 15.4691 5.11262C18.6938 3.48118 22.2526 2.61881 25.8664 2.59312C29.4802 2.56743 33.0508 3.37912 36.2984 4.96455C39.5459 6.54998 42.3821 8.86606 44.5847 11.7312C46.7711 14.5736 48.2684 17.8844 48.9586 21.4034C49.6489 24.9224 49.5134 28.5535 48.5627 32.0112C48.4992 32.245 48.3455 32.444 48.1354 32.5644C47.9252 32.6848 47.6758 32.7169 47.4421 32.6534C47.2083 32.59 47.0093 32.4363 46.8889 32.2261C46.7684 32.016 46.7364 31.7666 46.7999 31.5328C47.1875 30.0213 47.4192 28.474 47.4915 26.9152H46.1863C45.9343 26.9125 45.6936 26.8105 45.5164 26.6313C45.3392 26.4522 45.2398 26.2104 45.2399 25.9584C45.2506 25.7129 45.3565 25.4812 45.5351 25.3123C45.7137 25.1435 45.9509 25.0507 46.1967 25.0536H47.5747C47.3733 20.6394 45.8133 16.3951 43.1079 12.9012C42.7312 12.3893 42.323 11.9013 41.8859 11.44L40.9343 12.3916C40.8446 12.4769 40.7388 12.5433 40.623 12.5869C40.5072 12.6305 40.3839 12.6505 40.2603 12.6456C40.1367 12.6408 40.0153 12.6112 39.9033 12.5587C39.7913 12.5061 39.691 12.4316 39.6083 12.3396C39.5198 12.2587 39.4492 12.1603 39.4009 12.0507C39.3525 11.941 39.3276 11.8225 39.3276 11.7026C39.3276 11.5828 39.3525 11.4642 39.4009 11.3546C39.4492 11.2449 39.5198 11.1465 39.6083 11.0656L40.5599 10.0828C36.8427 6.6563 32.0288 4.6622 26.9775 4.45642V5.78762C26.987 5.91536 26.9701 6.04369 26.9278 6.1646C26.8855 6.2855 26.8187 6.39637 26.7316 6.49026C26.6444 6.58416 26.5389 6.65907 26.4215 6.71029C26.3041 6.76151 26.1774 6.78795 26.0493 6.78795C25.9212 6.78795 25.7945 6.76151 25.677 6.71029C25.5596 6.65907 25.4541 6.58416 25.3669 6.49026C25.2798 6.39637 25.213 6.2855 25.1707 6.1646C25.1284 6.04369 25.1115 5.91536 25.1211 5.78762V4.45642C20.0524 4.66091 15.2201 6.65426 11.4815 10.0828L12.4383 11.0396C12.5261 11.1262 12.5959 11.2294 12.6436 11.3433C12.6912 11.4571 12.7157 11.5792 12.7157 11.7026C12.7157 11.826 12.6912 11.9482 12.6436 12.062C12.5959 12.1758 12.5261 12.279 12.4383 12.3656C12.2518 12.5199 12.0173 12.6044 11.7753 12.6044C11.5332 12.6044 11.2987 12.5199 11.1123 12.3656L10.1555 11.44C9.66804 11.9817 9.20812 12.5474 8.77746 13.1352C6.1614 16.592 4.66125 20.7641 4.47706 25.0952H5.91226C6.14925 25.1031 6.3743 25.2011 6.54148 25.3692C6.70866 25.5374 6.80537 25.763 6.81186 26C6.81616 26.2453 6.72455 26.4825 6.55652 26.6613C6.38849 26.84 6.15732 26.946 5.91226 26.9568H4.47706C4.58136 28.6807 4.8672 30.3889 5.32986 32.0528C5.39719 32.2797 5.3735 32.5239 5.2638 32.7336C5.1541 32.9433 4.96703 33.102 4.74226 33.176C4.62431 33.2173 4.49901 33.2334 4.37446 33.2233C4.2499 33.2131 4.12885 33.177 4.01911 33.1173C3.90936 33.0575 3.81336 32.9754 3.73729 32.8762C3.66123 32.7771 3.60678 32.6631 3.57746 32.5416L3.58786 32.5676ZM12.4279 31.4496C11.3826 28.8293 11.1171 25.9627 11.6632 23.195C12.2094 20.4273 13.544 17.8764 15.5063 15.8496C17.4275 13.828 19.8945 12.4078 22.6075 11.7617C25.3205 11.1155 28.1628 11.2711 30.7891 12.2096C31.02 12.2879 31.2107 12.4542 31.3198 12.6723C31.4288 12.8904 31.4474 13.1427 31.3715 13.3744C31.292 13.6059 31.125 13.797 30.9063 13.9068C30.6876 14.0167 30.4346 14.0365 30.2015 13.962C27.9045 13.142 25.4187 13.0078 23.0468 13.5756C20.6749 14.1434 18.5193 15.3888 16.8427 17.16C15.1351 18.9276 13.9761 21.1519 13.5054 23.564C13.0348 25.9762 13.2728 28.473 14.1907 30.7528C14.2386 30.8684 14.263 30.9925 14.2624 31.1176C14.2618 31.2428 14.2363 31.3666 14.1873 31.4817C14.1383 31.5969 14.0669 31.7012 13.9771 31.7884C13.8873 31.8756 13.781 31.944 13.6645 31.9897C13.548 32.0353 13.4235 32.0573 13.2984 32.0542C13.1732 32.0512 13.05 32.0232 12.9358 31.972C12.8216 31.9207 12.7188 31.8472 12.6334 31.7557C12.5479 31.6642 12.4816 31.5566 12.4383 31.4392L12.4279 31.4496ZM18.3299 30.524C17.483 29.099 17.0484 27.4668 17.0744 25.8093C17.1004 24.1518 17.586 22.5341 18.4771 21.1363C19.3682 19.7385 20.6298 18.6154 22.1214 17.8923C23.613 17.1691 25.2761 16.8742 26.9255 17.0404C27.1716 17.0618 27.3992 17.1801 27.5582 17.3693C27.7171 17.5585 27.7944 17.803 27.7731 18.0492C27.7517 18.2954 27.6334 18.523 27.4442 18.682C27.255 18.8409 27.0104 18.9182 26.7643 18.8968C25.4565 18.7593 24.1362 18.9881 22.9509 19.5576C21.7657 20.127 20.762 21.0148 20.0521 22.1217C19.3423 23.2286 18.9541 24.5111 18.9309 25.8259C18.9078 27.1407 19.2506 28.436 19.9211 29.5672C19.985 29.6743 20.026 29.7934 20.0417 29.9171C20.0574 30.0408 20.0474 30.1664 20.0122 30.286C19.977 30.4056 19.9175 30.5167 19.8374 30.6123C19.7573 30.7078 19.6583 30.7857 19.5467 30.8412C19.4486 30.9096 19.3369 30.9559 19.2193 30.9769C19.1016 30.998 18.9808 30.9933 18.8651 30.9631C18.7495 30.933 18.6417 30.8781 18.5493 30.8023C18.4569 30.7265 18.382 30.6316 18.3299 30.524ZM26.0727 29.354C25.647 29.3713 25.2223 29.3024 24.824 29.1514C24.4256 29.0004 24.0619 28.7705 23.7547 28.4755C23.4474 28.1804 23.2029 27.8263 23.0359 27.4345C22.8689 27.0426 22.7829 26.621 22.7829 26.195C22.7829 25.769 22.8689 25.3475 23.0359 24.9556C23.2029 24.5637 23.4474 24.2096 23.7547 23.9146C24.0619 23.6195 24.4256 23.3896 24.824 23.2386C25.2223 23.0877 25.647 23.0187 26.0727 23.036C26.6208 23.041 27.1582 23.1879 27.6327 23.4624L34.3199 15.5012C34.4001 15.407 34.4981 15.3295 34.6083 15.2731C34.7185 15.2168 34.8387 15.1827 34.9621 15.1728C35.0855 15.1629 35.2096 15.1774 35.3273 15.2154C35.4451 15.2535 35.5542 15.3144 35.6485 15.3946C35.7427 15.4749 35.8202 15.5729 35.8766 15.6831C35.9329 15.7933 35.967 15.9135 35.9769 16.0368C35.9868 16.1602 35.9723 16.2843 35.9343 16.4021C35.8962 16.5199 35.8353 16.629 35.7551 16.7232L28.8859 24.8456C29.0563 25.2672 29.1463 25.7169 29.1511 26.1716C29.1593 26.5831 29.0861 26.9921 28.9356 27.3752C28.7851 27.7582 28.5603 28.1077 28.2742 28.4035C27.9881 28.6993 27.6462 28.9356 27.2684 29.0987C26.8906 29.2619 26.4842 29.3486 26.0727 29.354ZM26.0727 24.8976C25.7279 24.8976 25.3972 25.0346 25.1534 25.2784C24.9096 25.5222 24.7727 25.8528 24.7727 26.1976C24.7727 26.5424 24.9096 26.8731 25.1534 27.1169C25.3972 27.3607 25.7279 27.4976 26.0727 27.4976C26.2407 27.493 26.4061 27.4548 26.5591 27.3852C26.7121 27.3156 26.8496 27.2161 26.9635 27.0925C27.0774 26.9689 27.1654 26.8237 27.2223 26.6656C27.2791 26.5074 27.3038 26.3395 27.2947 26.1716C27.2981 26.0077 27.2692 25.8448 27.2097 25.692C27.1501 25.5393 27.0611 25.3998 26.9476 25.2815C26.8341 25.1632 26.6984 25.0684 26.5483 25.0025C26.3982 24.9366 26.2366 24.901 26.0727 24.8976ZM43.8515 46.1864L45.5467 47.1952L45.1255 45.3336C45.0426 45.0516 45.048 44.751 45.141 44.4721C45.2339 44.1933 45.41 43.9495 45.6455 43.7736L47.0339 42.64L45.1255 42.4788C44.86 42.4493 44.6072 42.35 44.3926 42.1911C44.1779 42.0321 44.0092 41.8193 43.9035 41.574L43.1599 39.7592L42.4163 41.5116C42.323 41.7917 42.1435 42.0351 41.9034 42.207C41.6634 42.3789 41.3751 42.4704 41.0799 42.4684L39.2859 42.64L40.6691 43.8568C40.8924 44.0426 41.0594 44.2871 41.1513 44.5627C41.2432 44.8384 41.2562 45.1342 41.1891 45.4168L40.7627 47.2264L42.3227 46.2176C42.5648 46.0964 42.8319 46.0332 43.1027 46.0332C43.3735 46.0332 43.6405 46.0964 43.8827 46.2176L43.8515 46.1864ZM9.62506 46.1864L11.2683 47.1952L10.9199 45.3336C10.837 45.0516 10.8424 44.751 10.9354 44.4721C11.0283 44.1933 11.2044 43.9495 11.4399 43.7736L12.8075 42.64L10.9199 42.4684C10.6237 42.4559 10.3395 42.3478 10.1099 42.1603C9.88025 41.9728 9.71746 41.7161 9.64586 41.4284L8.95946 39.78L8.21586 41.5324C8.12178 41.81 7.94349 42.0513 7.70583 42.2228C7.46816 42.3943 7.18294 42.4874 6.88986 42.4892L5.06466 42.64L6.44266 43.8568C6.666 44.0426 6.83302 44.2871 6.92489 44.5627C7.01677 44.8384 7.02985 45.1342 6.96266 45.4168L6.53626 47.2264L8.09626 46.2176C8.33839 46.0964 8.60546 46.0332 8.87626 46.0332C9.14706 46.0332 9.41413 46.0964 9.65626 46.2176L9.62506 46.1864ZM25.9999 35.62L24.6739 38.6984C24.5616 39.0229 24.351 39.3044 24.0715 39.5038C23.7919 39.7032 23.4572 39.8107 23.1139 39.8112L19.5623 40.1336L22.3703 42.3072C22.5972 42.5229 22.769 42.7899 22.8713 43.0858C22.9735 43.3817 23.0032 43.6979 22.9579 44.0076L22.1051 47.5644L25.0795 45.6508C25.3766 45.4618 25.7256 45.3707 26.0772 45.3903C26.4288 45.4099 26.7655 45.5392 27.0399 45.76L30.0143 47.5124L29.1199 44.0596C29.0413 43.737 29.0602 43.3984 29.174 43.0865C29.2878 42.7746 29.4916 42.5034 29.7595 42.3072L32.4115 39.9724L28.8547 39.8112C28.5173 39.7929 28.1937 39.6713 27.9277 39.463C27.6616 39.2546 27.4661 38.9696 27.3675 38.6464L25.9999 35.62ZM11.0031 49.2076L8.92306 47.8816L6.84306 49.1556C6.57612 49.3083 6.27002 49.3787 5.96321 49.3579C5.6564 49.3371 5.36258 49.2261 5.11865 49.0389C4.87473 48.8516 4.69158 48.5965 4.59223 48.3055C4.49288 48.0144 4.48176 47.7005 4.56026 47.4032L5.08026 45.1204L3.22386 43.5604C2.99685 43.3503 2.83744 43.0774 2.76588 42.7765C2.69432 42.4755 2.71384 42.1601 2.82196 41.8703C2.93009 41.5805 3.12193 41.3294 3.37312 41.1488C3.62431 40.9683 3.92349 40.8665 4.23266 40.8564L6.51026 40.5912L7.46706 38.3604C7.94546 37.2424 9.80186 37.2424 10.3323 38.3604L11.2319 40.5912L13.6239 40.8564C14.9499 40.8564 15.4803 42.6088 14.5755 43.5084L12.7191 45.0996L13.2391 47.4396C13.304 47.7344 13.2835 48.0417 13.1799 48.3252C13.0763 48.6087 12.8939 48.8568 12.6542 49.0403C12.4144 49.2238 12.1273 49.335 11.8266 49.361C11.5258 49.3869 11.2239 49.3265 10.9563 49.1868L11.0031 49.2076ZM29.0991 49.1036L25.9999 47.32L22.9787 49.1244C22.6758 49.3003 22.3286 49.385 21.9788 49.3684C21.629 49.3519 21.2914 49.2347 21.0065 49.0311C20.7216 48.8274 20.5015 48.5459 20.3726 48.2202C20.2437 47.8946 20.2115 47.5387 20.2799 47.1952L21.1847 43.6384L18.4235 41.4076C18.1627 41.177 17.9749 40.8753 17.8831 40.5396C17.7913 40.2038 17.7994 39.8486 17.9065 39.5174C18.0136 39.1862 18.215 38.8934 18.486 38.675C18.757 38.4566 19.0859 38.3219 19.4323 38.2876L22.9995 37.96L24.3775 34.7204C24.5093 34.3917 24.7365 34.1101 25.0298 33.9116C25.3231 33.7132 25.6691 33.6072 26.0233 33.6072C26.3774 33.6072 26.7234 33.7132 27.0167 33.9116C27.3101 34.1101 27.5373 34.3917 27.6691 34.7204L29.1199 37.96L32.6247 38.2772C32.9731 38.3079 33.3048 38.4406 33.5783 38.6589C33.8517 38.8771 34.0546 39.1712 34.1617 39.5042C34.2689 39.8372 34.2754 40.1945 34.1805 40.5312C34.0856 40.8679 33.8935 41.1691 33.6283 41.3972L30.9243 43.732L31.7719 47.1276C31.8514 47.4695 31.8295 47.8272 31.7089 48.1568C31.5882 48.4865 31.374 48.7738 31.0925 48.9835C30.811 49.1932 30.4745 49.3163 30.1241 49.3376C29.7737 49.359 29.4247 49.2776 29.1199 49.1036H29.0991Z" fill="#52006A"/>
</svg>