<svg width="50" height="50" viewBox="0 0 50 50" fill="none" xmlns="http://www.w3.org/2000/svg">
<path d="M40.0367 25.8555C39.9416 25.8369 39.8437 25.8373 39.7488 25.8568C39.6539 25.8763 39.5637 25.9144 39.4836 25.969C39.4035 26.0236 39.3351 26.0935 39.2822 26.1747C39.2293 26.2559 39.1931 26.3468 39.1756 26.4422C39.1582 26.5375 39.1598 26.6353 39.1804 26.73C39.201 26.8247 39.2402 26.9144 39.2957 26.9938C39.3513 27.0733 39.422 27.1409 39.5038 27.1928C39.5857 27.2447 39.677 27.2799 39.7726 27.2962C43.9123 28.0553 46.9168 31.6629 46.9168 35.8743C46.9168 40.1075 43.885 43.6454 39.8789 44.4319C39.871 44.4332 39.8631 44.4337 39.8552 44.4352C39.3083 44.5413 38.7526 44.595 38.1956 44.5956C33.3866 44.5956 29.4742 40.6832 29.4742 35.8743C29.4742 31.7045 32.4498 28.0604 36.6186 27.2962C36.8096 27.2611 36.9789 27.1517 37.0892 26.9918C37.1995 26.8319 37.2419 26.6348 37.2068 26.4438C37.1339 26.0458 36.7517 25.7822 36.3544 25.8555C34.0199 26.2835 31.9961 27.4885 30.5254 29.1725L25.9714 27.4088V24.867C27.6217 23.6036 28.7597 21.7049 29.018 19.5392C30.9783 19.4521 32.4398 17.8838 32.4398 16.017C32.4403 15.1599 32.1263 14.3324 31.5575 13.6913V10.4768C31.5576 4.6998 26.8578 0 21.0811 0C15.3043 0 10.6044 4.6998 10.6044 10.4767V13.7744C10.0333 14.4056 9.72246 15.1875 9.72246 16.0169C9.72246 17.8807 11.1799 19.4519 13.1438 19.539C13.4012 21.7184 14.5515 23.696 16.3631 24.9896V27.4087L6.0707 31.3989C6.0661 31.4007 6.06151 31.4025 6.05693 31.4044C5.87578 31.4789 1.61914 33.286 1.61914 38.2612V48.3408C1.61914 49.2557 2.36338 50 3.27832 50H39.0754C39.9858 50 40.7266 49.2594 40.7266 48.3488V45.7424C45.1229 44.6141 48.3817 40.6178 48.3817 35.8745C48.3817 30.9557 44.8721 26.7421 40.0367 25.8555ZM28.1137 29.8093L25.4751 35.0973C25.42 35.0582 23.9248 33.996 22.2277 32.7908L25.4721 28.7861L28.1137 29.8093ZM23.0567 35.1766L22.3023 36.312H20.038L19.2836 35.1766L21.1702 33.8367L23.0567 35.1766ZM17.8281 27.644V25.8159C19.8895 26.7027 22.3748 26.7509 24.5065 25.7562V27.6511L21.1701 31.7693L17.8281 27.644ZM30.975 16.0169C30.975 17.0529 30.2012 17.9539 29.076 18.0657V13.9686C30.2016 14.0812 30.975 14.9828 30.975 16.0169ZM13.0865 18.0658C11.9604 17.9543 11.1875 17.0524 11.1875 16.017C11.1875 14.9788 12.0889 14.1654 13.0865 14.0019V18.0658ZM13.1104 12.5217C12.769 12.5529 12.3656 12.6525 12.0693 12.7682V10.4767C12.0693 5.50762 16.1119 1.46494 21.081 1.46494C26.0499 1.46494 30.0927 5.50752 30.0927 10.4767V12.7039C29.7652 12.5877 29.4228 12.5186 29.0759 12.4984C29.0759 12.0373 29.0993 11.8834 28.7834 11.4754C28.5693 11.1985 28.191 10.796 27.4854 10.0445C26.3226 8.80459 26.316 8.75195 26.0213 8.60332C25.5735 8.37754 25.0432 8.41318 24.6304 8.68262C21.7013 10.5959 18.0453 11.6335 14.5859 11.3857C13.8771 11.3318 13.239 11.8288 13.1104 12.5217ZM14.5515 18.5993V12.8517C18.209 13.097 22.1493 12.0381 25.3832 9.94053C26.7187 11.3753 27.4194 12.1015 27.611 12.3483C27.611 19.6328 27.6121 18.4627 27.6085 18.7005C27.4976 22.4233 24.5184 25.0252 21.185 25.0252C17.3297 25.0254 14.5515 22.0508 14.5515 18.5993ZM16.8639 28.788L20.1089 32.7935C17.8799 34.3766 17.9282 34.3425 16.865 35.0975L14.2265 29.8095L16.8639 28.788ZM9.86465 48.5351V39.8226C9.86465 39.4181 9.53682 39.0901 9.13223 39.0901C8.72764 39.0901 8.39981 39.4181 8.39981 39.8226V48.5351H3.27832C3.22683 48.535 3.17747 48.5145 3.14106 48.4781C3.10465 48.4417 3.08416 48.3923 3.08408 48.3408V38.2614C3.08408 34.3208 6.4124 32.8452 6.60947 32.7614L12.8542 30.3404L15.6013 35.8459L15.6014 35.846C15.9773 36.5994 16.9389 36.8419 17.6272 36.3528L18.0884 36.0253L18.8744 37.2083L16.9573 48.5351H9.86465ZM32.4814 48.5351H25.3828L24.8915 45.6321C24.8755 45.5373 24.8409 45.4465 24.7898 45.3651C24.7386 45.2836 24.672 45.213 24.5936 45.1573C24.5152 45.1016 24.4265 45.0618 24.3328 45.0404C24.239 45.0189 24.142 45.0161 24.0471 45.0322C23.9523 45.0482 23.8615 45.0828 23.7801 45.1339C23.6986 45.185 23.628 45.2517 23.5723 45.3301C23.5166 45.4085 23.4768 45.4971 23.4554 45.5909C23.4339 45.6847 23.4311 45.7817 23.4472 45.8766L23.8971 48.5351H18.4432L20.2641 37.777H22.0763L22.8687 42.4584C22.8839 42.554 22.9179 42.6456 22.9688 42.7279C23.0196 42.8102 23.0863 42.8817 23.1649 42.9381C23.2435 42.9945 23.3325 43.0348 23.4268 43.0566C23.5211 43.0784 23.6187 43.0814 23.7142 43.0652C23.8096 43.0491 23.9008 43.0142 23.9827 42.9625C24.0645 42.9109 24.1353 42.8436 24.191 42.7644C24.2467 42.6853 24.2861 42.5959 24.307 42.5014C24.328 42.4069 24.3299 42.3092 24.3129 42.214L23.4656 37.2083L24.2517 36.0252L24.7128 36.3527C25.4008 36.8415 26.3623 36.6 26.7387 35.8459L29.4856 30.3407L29.6107 30.3892C28.545 32.0565 28.0092 33.9607 28.0092 35.8745C28.0092 39.375 29.7842 42.4686 32.4813 44.3028V48.5351H32.4814ZM39.2618 48.3489C39.2618 48.3983 39.2421 48.4456 39.2072 48.4806C39.1723 48.5155 39.125 48.5351 39.0756 48.5352H33.9464V45.131C35.2404 45.7273 36.6798 46.0608 38.1957 46.0608C38.5558 46.0608 38.9113 46.0418 39.2619 46.0052L39.2618 48.3489Z" fill="#52006A"/>
<path d="M39.4256 35.4221C39.1728 35.3027 38.9147 35.1949 38.6521 35.0988V33.0669C39.5862 33.1424 39.8732 33.7221 40.2914 33.4072C40.5188 33.236 41.0778 32.4183 39.9221 31.9939C39.5306 31.8507 39.0392 31.7911 38.6521 31.7911V31.4881C38.6521 31.3161 38.4397 31.1966 38.2596 31.1966C38.0564 31.1966 37.867 31.3204 37.867 31.4853V31.8085C35.3313 32.1432 35.4452 34.2766 35.8294 34.9892C36.2524 35.7756 37.02 36.0569 37.867 36.3804V38.6777C36.5645 38.5205 36.2265 37.2304 35.6101 38.0955C34.8748 39.1279 36.4854 40.0459 37.867 40.0459V40.3722C37.867 40.5436 38.064 40.6635 38.2596 40.6635C38.439 40.6635 38.6521 40.5454 38.6521 40.3749V40.017C41.2764 39.6113 41.5848 36.4392 39.4256 35.4221ZM37.9592 34.8449C37.2576 34.5645 37.0356 34.3391 37.0356 33.9098C37.0356 33.406 37.4628 33.18 37.9592 33.1016V34.8449ZM38.5595 38.6663V36.6575C39.2779 36.9723 39.4254 37.3146 39.4254 37.7197C39.4254 38.2583 39.068 38.5588 38.5595 38.6663Z" fill="#52006A"/>
<path d="M38.1958 28.2646C33.9997 28.2646 30.5859 31.6784 30.5859 35.8745C30.5859 40.0706 33.9997 43.4844 38.1958 43.4844C42.3919 43.4844 45.8057 40.0706 45.8057 35.8745C45.8057 31.6784 42.3919 28.2646 38.1958 28.2646ZM38.1958 42.0193C34.8075 42.0193 32.0509 39.2627 32.0509 35.8744C32.0509 32.4861 34.8074 29.7295 38.1958 29.7295C41.5841 29.7295 44.3407 32.4861 44.3407 35.8744C44.3407 39.2627 41.5841 42.0193 38.1958 42.0193Z" fill="#52006A"/>
</svg>
