<svg width="15" height="15" viewBox="0 0 15 15" fill="none" xmlns="http://www.w3.org/2000/svg">
<path d="M14.2225 2.1466L2.1246 13.9986C1.82244 14.2946 1.22047 14.176 0.787285 13.7338C0.354103 13.2916 0.247159 12.688 0.550034 12.3913L12.6479 0.539355C12.9501 0.243336 13.5521 0.361953 13.9852 0.804123C14.4184 1.24629 14.5247 1.85058 14.2225 2.1466Z" fill="#201747"/>
<path d="M0.549962 2.14611L12.6479 13.9981C12.95 14.2941 13.552 14.1755 13.9852 13.7333C14.4184 13.2911 14.5253 12.6876 14.2224 12.3908L2.12453 0.538867C1.82237 0.242848 1.22039 0.361465 0.787213 0.803635C0.354031 1.24581 0.2478 1.85009 0.549962 2.14611Z" fill="#201747"/>
</svg>
