<svg width="58" height="58" viewBox="0 0 58 58" fill="none" xmlns="http://www.w3.org/2000/svg">
<path d="M17.7949 13.4159H40.2038C40.4409 13.4159 40.6684 13.5101 40.836 13.6778C41.0037 13.8455 41.0979 14.0729 41.0979 14.3101C41.0979 14.5472 41.0037 14.7746 40.836 14.9423C40.6684 15.11 40.4409 15.2042 40.2038 15.2042H17.7949C17.5578 15.2042 17.3303 15.11 17.1627 14.9423C16.995 14.7746 16.9008 14.5472 16.9008 14.3101C16.9008 14.0729 16.995 13.8455 17.1627 13.6778C17.3303 13.5101 17.5578 13.4159 17.7949 13.4159ZM40.2038 17.6313H17.7949C17.5578 17.6313 17.3303 17.7255 17.1627 17.8931C16.995 18.0608 16.9008 18.2883 16.9008 18.5254C16.9008 18.7625 16.995 18.9899 17.1627 19.1576C17.3303 19.3253 17.5578 19.4195 17.7949 19.4195H40.2038C40.4409 19.4195 40.6684 19.3253 40.836 19.1576C41.0037 18.9899 41.0979 18.7625 41.0979 18.5254C41.0979 18.2883 41.0037 18.0608 40.836 17.8931C40.6684 17.7255 40.4409 17.6313 40.2038 17.6313ZM56.78 44.688L49.7575 46.0871C49.6423 46.1101 49.5238 46.1101 49.4086 46.0872C49.2935 46.0644 49.1839 46.019 49.0863 45.9538C48.8891 45.8221 48.7523 45.6174 48.706 45.3849L48.4454 44.0774L46.1563 46.3665C46.5657 47.6885 46.2247 49.1766 45.2282 50.1729C44.5165 50.8846 43.5672 51.2767 42.5554 51.2768C42.4487 51.2768 42.3428 51.2724 42.2377 51.2638C42.2463 51.3688 42.2507 51.4748 42.2507 51.5815C42.2507 52.5933 41.8587 53.5425 41.147 54.2542C40.4353 54.966 39.486 55.358 38.4741 55.358C37.4831 55.3581 36.5523 54.9822 35.8457 54.2982C35.6885 54.9799 35.3445 55.6044 34.8396 56.1093C33.3658 57.5832 30.9678 57.5832 29.4938 56.1096L27.8359 54.4517C27.6785 55.1331 27.3346 55.7576 26.8297 56.2623C26.1182 56.9739 25.1689 57.3659 24.157 57.3659C23.1451 57.3659 22.1959 56.9739 21.4842 56.2623L9.51111 44.2896L9.29294 45.385C9.27003 45.5001 9.22466 45.6097 9.15941 45.7073C9.09416 45.8049 9.01032 45.8887 8.91268 45.9539C8.81503 46.0191 8.70549 46.0645 8.59033 46.0873C8.47516 46.1102 8.35661 46.1102 8.24146 46.0872L1.2187 44.688C0.986154 44.6417 0.781529 44.5049 0.64984 44.3077C0.51815 44.1105 0.470181 43.8691 0.516484 43.6365L4.8343 21.9626C4.88068 21.7301 5.0175 21.5255 5.21467 21.3938C5.41184 21.2621 5.65324 21.2141 5.88579 21.2604L12.9084 22.6595C13.0525 22.6881 13.1872 22.7517 13.3007 22.8448C13.4143 22.9379 13.5031 23.0576 13.5593 23.1933V11.6182C13.5593 10.8876 13.8324 10.2283 14.3491 9.71171L22.6368 1.42389C23.1535 0.907197 23.8127 0.634155 24.5433 0.634155H41.7429C43.2296 0.634155 44.4391 1.84368 44.4391 3.33037V23.1934C44.4954 23.0577 44.5842 22.938 44.6978 22.8449C44.8113 22.7517 44.9461 22.6881 45.0902 22.6595L52.1127 21.2604C52.3452 21.2141 52.5867 21.2621 52.7839 21.3937C52.981 21.5254 53.1178 21.7301 53.1642 21.9626L57.482 43.6365C57.505 43.7517 57.505 43.8702 57.4822 43.9854C57.4593 44.1005 57.414 44.2101 57.3488 44.3077C57.2836 44.4054 57.1999 44.4892 57.1022 44.5545C57.0046 44.6197 56.8951 44.6651 56.78 44.688ZM44.4392 23.968V24.9979C44.5038 24.9774 44.568 24.9563 44.6319 24.9352L44.4392 23.968ZM41.743 2.4224H24.691V9.24476C24.691 10.6349 23.56 11.766 22.1698 11.766H15.3476V24.0153H24.5465L25.0022 23.6348H17.7949C17.5578 23.6348 17.3303 23.5406 17.1627 23.373C16.995 23.2053 16.9008 22.9779 16.9008 22.7407C16.9008 22.5036 16.995 22.2762 17.1627 22.1085C17.3303 21.9408 17.5578 21.8466 17.7949 21.8466H27.2387C28.8378 20.8768 30.788 20.8809 32.4825 21.8466H40.2039C40.441 21.8466 40.6685 21.9408 40.8361 22.1085C41.0038 22.2762 41.098 22.5036 41.098 22.7407C41.098 22.9779 41.0038 23.2053 40.8361 23.373C40.6685 23.5406 40.441 23.6348 40.2039 23.6348H34.9589C37.8898 25.5503 40.4289 25.8137 42.6511 25.4387V3.33026C42.651 2.82967 42.2437 2.4224 41.743 2.4224ZM16.6122 9.97771H22.1699C22.3643 9.97748 22.5506 9.90018 22.688 9.76277C22.8254 9.62537 22.9027 9.43907 22.9029 9.24476V3.6869L16.6122 9.97771ZM11.6823 24.2385L6.41332 23.1888L2.44499 43.109L7.71393 44.1587L11.6823 24.2385ZM44.365 46.6736L31.9941 34.1224C29.697 32.0352 28.1898 31.7301 27.8794 31.8544C27.8768 31.8639 27.8738 31.8774 27.8713 31.8958C27.8482 32.1412 27.8267 32.3857 27.8054 32.629C27.6369 34.5431 27.4778 36.3511 26.6765 37.9407C25.7492 39.7804 24.0983 40.9704 21.6296 41.5788C21.5136 41.6073 21.3931 41.6123 21.2752 41.5935C21.1573 41.5747 21.0443 41.5325 20.943 41.4693C20.8416 41.4062 20.7539 41.3234 20.6851 41.2259C20.6162 41.1283 20.5676 41.0179 20.5421 40.9013L18.4876 31.4872C18.2045 30.19 18.6888 28.9061 19.8164 27.9647L22.4049 25.8035H13.1939L9.93123 42.1807L22.7483 54.9978C23.1223 55.3717 23.6224 55.5776 24.1568 55.5776C24.6911 55.5776 25.1912 55.3717 25.565 54.9978C25.9391 54.6237 26.1451 54.1237 26.1451 53.5893C26.1451 53.0553 25.9392 52.5553 25.5655 52.1812L22.1535 48.7692C22.0705 48.6862 22.0046 48.5876 21.9597 48.4792C21.9147 48.3707 21.8916 48.2544 21.8916 48.137C21.8916 48.0195 21.9147 47.9033 21.9597 47.7948C22.0046 47.6863 22.0705 47.5877 22.1535 47.5047C22.3212 47.3371 22.5486 47.2429 22.7857 47.2429C23.0228 47.2429 23.2502 47.3371 23.4179 47.5047L30.7581 54.845C31.5348 55.6216 32.7985 55.6215 33.575 54.8449C33.949 54.4708 34.1548 53.9708 34.1548 53.4364C34.1548 52.9023 33.949 52.4021 33.575 52.0282L33.574 52.0271L26.7216 45.1746C26.5556 45.0066 26.4628 44.7797 26.4635 44.5435C26.4642 44.3074 26.5583 44.081 26.7253 43.914C26.8924 43.747 27.1187 43.6528 27.3549 43.6521C27.5911 43.6514 27.8179 43.7441 27.986 43.9101L37.0657 52.9898C37.4396 53.3639 37.9398 53.5698 38.474 53.5698C39.0082 53.5696 39.5084 53.3637 39.8825 52.9897C40.2564 52.6157 40.4623 52.1156 40.4623 51.5813C40.4623 51.0471 40.2564 50.547 39.8825 50.173L31.2896 41.5801C31.1236 41.412 31.0309 41.1852 31.0316 40.949C31.0323 40.7128 31.1264 40.4865 31.2934 40.3194C31.4604 40.1524 31.6867 40.0582 31.9229 40.0575C32.1591 40.0568 32.386 40.1496 32.554 40.3155L41.1469 48.9085C41.5208 49.2821 42.0213 49.4884 42.5552 49.4884C43.0895 49.4883 43.5896 49.2823 43.9638 48.9083C44.5466 48.3255 44.7034 47.4222 44.365 46.6736ZM48.0252 41.9687L44.9836 26.7011C41.6735 27.7545 37.3654 28.0756 32.2201 23.8305C30.8175 22.6733 29.0149 22.614 27.7349 23.6828L20.9623 29.3374C20.6105 29.6311 20.0481 30.2514 20.2346 31.1058L22.0841 39.5809C25.5046 38.3744 25.7361 35.7413 26.0238 32.4721C26.046 32.2209 26.0682 31.9683 26.092 31.7149C26.0927 31.7078 26.0935 31.7007 26.0944 31.6937C26.1793 30.9753 26.5984 30.4251 27.2443 30.1842C28.6136 29.6737 30.8462 30.6575 33.216 32.8167C33.2279 32.8275 33.2394 32.8386 33.2507 32.85L45.1109 44.8829L48.0252 41.9687ZM55.5537 43.109L51.5853 23.1889L46.3164 24.2386L50.2849 44.1587L55.5537 43.109ZM37.047 8.88107H37.303C37.4393 8.88107 37.5544 8.99619 37.5544 9.13243C37.5544 9.26867 37.4393 9.38379 37.303 9.38379H36.9424C36.8278 9.38379 36.7615 9.30913 36.7383 9.27706C36.6695 9.1819 36.5826 9.10123 36.4827 9.03965C36.3827 8.97807 36.2716 8.93679 36.1556 8.91817C36.0397 8.89956 35.9212 8.90396 35.807 8.93113C35.6928 8.95831 35.585 9.00772 35.4899 9.07655C35.3947 9.14535 35.3141 9.23222 35.2525 9.3322C35.1909 9.43217 35.1497 9.5433 35.131 9.65923C35.1124 9.77516 35.1168 9.89362 35.144 10.0078C35.1712 10.1221 35.2206 10.2298 35.2894 10.325C35.5365 10.6662 35.8827 10.9231 36.2809 11.0607V11.2565C36.2809 11.4937 36.3751 11.7211 36.5428 11.8888C36.7105 12.0564 36.9379 12.1506 37.1751 12.1506C37.4122 12.1506 37.6396 12.0564 37.8073 11.8888C37.975 11.7211 38.0692 11.4937 38.0692 11.2565V11.0226C38.8153 10.7192 39.3426 9.98621 39.3426 9.13232C39.3426 8.00774 38.4276 7.09272 37.303 7.09272H37.047C36.9107 7.09272 36.7957 6.9776 36.7957 6.84136C36.7957 6.70512 36.9107 6.59 37.047 6.59H37.4077C37.5222 6.59 37.5886 6.66466 37.6118 6.69674C37.6806 6.79189 37.7675 6.87257 37.8675 6.93414C37.9675 6.99572 38.0786 7.037 38.1945 7.05562C38.3105 7.07424 38.4289 7.06984 38.5431 7.04266C38.6574 7.01549 38.7651 6.96607 38.8603 6.89724C38.9554 6.82844 39.0361 6.74157 39.0976 6.6416C39.1592 6.54162 39.2005 6.43049 39.2191 6.31457C39.2377 6.19864 39.2333 6.08018 39.2062 5.96595C39.179 5.85172 39.1296 5.74396 39.0608 5.64883C38.8136 5.30757 38.4674 5.05068 38.0691 4.91308V4.71727C38.0691 4.48013 37.9749 4.25271 37.8072 4.08503C37.6395 3.91735 37.4121 3.82315 37.175 3.82315C36.9378 3.82315 36.7104 3.91735 36.5427 4.08503C36.375 4.25271 36.2808 4.48013 36.2808 4.71727V4.95108C35.5348 5.25452 35.0074 5.98748 35.0074 6.84136C35.0075 7.96616 35.9224 8.88107 37.047 8.88107Z" fill="#52006A"/>
</svg>
