<svg xmlns="http://www.w3.org/2000/svg" width="56" height="56" viewBox="0 0 56 56" fill="none">
  <path d="M28 10.2353C29.878 10.2353 31.4059 8.51157 31.4059 6.39297C31.4059 4.27438 29.878 2.55063 28 2.55063C26.122 2.55063 24.5941 4.27438 24.5941 6.39297C24.5941 8.51157 26.122 10.2353 28 10.2353ZM28 3.86313C29.1539 3.86313 30.0934 4.99844 30.0934 6.39297C30.0934 7.7875 29.1539 8.92282 28 8.92282C26.8461 8.92282 25.9066 7.7875 25.9066 6.39297C25.9066 4.99735 26.8461 3.86313 28 3.86313ZM8.97422 45.4081C10.8522 45.4081 12.3802 43.6844 12.3802 41.5658C12.3802 39.4472 10.8522 37.7234 8.97422 37.7234C7.09625 37.7234 5.56828 39.4472 5.56828 41.5658C5.56828 43.6855 7.09625 45.4081 8.97422 45.4081ZM8.97422 39.037C10.1281 39.037 11.0677 40.1723 11.0677 41.5669C11.0677 42.9614 10.1281 44.0967 8.97422 44.0967C7.82031 44.0967 6.88078 42.9614 6.88078 41.5669C6.88078 40.1712 7.82031 39.037 8.97422 39.037ZM48.5308 46.2886H45.5197C45.3852 46.2886 45.2517 46.2952 45.1194 46.3039L35.9034 37.088C36.132 36.9337 36.3278 36.7347 36.4787 36.4952C36.6997 36.1441 36.8036 35.7416 36.7839 35.3336C36.8561 35.3248 36.9283 35.3128 36.9994 35.2964C37.5244 35.1772 37.9717 34.8611 38.2572 34.4072C38.5427 33.9533 38.6345 33.4141 38.5153 32.8891C38.4902 32.7797 38.4552 32.6736 38.4136 32.5719C38.9933 32.352 39.5391 32.0184 40.017 31.5897L40.262 31.9462C40.3224 32.0338 40.4031 32.1054 40.4972 32.155C40.5913 32.2045 40.696 32.2305 40.8023 32.2306C40.9347 32.2306 41.0638 32.1912 41.1742 32.1147L44.3472 29.9305C44.4182 29.8817 44.4788 29.8193 44.5257 29.7471C44.5726 29.6748 44.6048 29.594 44.6205 29.5093C44.6361 29.4246 44.6349 29.3376 44.6169 29.2533C44.5989 29.1691 44.5645 29.0892 44.5156 29.0183L38.593 20.4138C38.4943 20.2705 38.3429 20.1722 38.1719 20.1403C38.0002 20.1086 37.8241 20.1469 37.6808 20.2453L34.5078 22.4295C34.3645 22.5282 34.2662 22.6796 34.2344 22.8506C34.2027 23.0223 34.2409 23.1984 34.3394 23.3417L34.6402 23.7781C33.6448 23.8678 32.7753 23.7212 32.0009 23.3341C31.3152 22.9906 30.5616 22.9173 29.6964 23.1098C29.3377 23.1897 28.992 23.2706 28.6573 23.3538V18.2766H34.6784C35.0405 18.2766 35.3347 17.9823 35.3347 17.6203V16.9444C35.3347 13.7309 32.7206 11.1158 29.5061 11.1158H26.495C23.2816 11.1158 20.6664 13.7298 20.6664 16.9444V17.6203C20.6664 17.9823 20.9606 18.2766 21.3227 18.2766H27.3438V23.7048C26.7422 23.8777 26.1636 24.0625 25.5905 24.2637C24.43 24.3239 22.9873 24.1817 22.0117 23.6534L22.2906 23.2487C22.3395 23.1778 22.3739 23.0979 22.3919 23.0137C22.4099 22.9294 22.4111 22.8425 22.3955 22.7577C22.3798 22.673 22.3476 22.5922 22.3007 22.52C22.2538 22.4477 22.1932 22.3854 22.1222 22.3366L18.9492 20.1523C18.8057 20.0541 18.6293 20.0164 18.4581 20.0473C18.2871 20.0792 18.1357 20.1775 18.037 20.3208L12.1144 28.9253C12.0159 29.0686 11.9777 29.2458 12.0094 29.4164C12.0411 29.587 12.1395 29.7391 12.2828 29.8375L15.4558 32.0206C15.5652 32.096 15.6948 32.1364 15.8277 32.1366C16.0366 32.1366 16.2422 32.037 16.3691 31.8522L16.4762 31.6969C16.812 32.1891 17.2277 32.6703 17.7275 33.1461L17.6269 33.2905C17.0363 34.1392 17.2463 35.3095 18.095 35.9002C18.2615 36.0155 18.4454 36.1034 18.6397 36.1605C18.3312 36.8473 18.4669 37.6589 18.9798 38.2069L10.8817 46.305C10.7494 46.2962 10.6159 46.2897 10.4814 46.2897H7.46922C4.25469 46.2886 1.64062 48.9037 1.64062 52.1172V52.7942C1.64062 53.1562 1.93484 53.4505 2.29688 53.4505H15.6516C16.0136 53.4505 16.3078 53.1562 16.3078 52.7942V52.1172C16.3078 49.583 14.6814 47.4228 12.4184 46.6222L20.2431 38.7975C20.277 38.7997 20.3098 38.8008 20.3438 38.8008C20.7277 38.8008 21.1083 38.6827 21.4277 38.4573C21.5556 38.6466 21.7164 38.8128 21.9089 38.9473C22.225 39.1672 22.5947 39.282 22.9742 39.282C23.0858 39.282 23.1984 39.2722 23.3111 39.2514C23.4161 39.2328 23.5167 39.2033 23.6152 39.1683C23.753 39.4526 23.9608 39.6977 24.2266 39.8825C24.5397 40.1009 24.9123 40.2181 25.2941 40.2183C25.8869 40.2183 26.472 39.9383 26.8352 39.4155L26.9314 39.2776L28.9614 40.5562C29.2852 40.7608 29.6527 40.8658 30.0278 40.8658C30.1777 40.8658 30.3297 40.8494 30.4795 40.8144C31.0045 40.6952 31.4519 40.3791 31.7373 39.9252C31.885 39.6911 31.9802 39.433 32.0217 39.1672C32.1858 39.2098 32.3542 39.2328 32.5248 39.2328C32.6725 39.2328 32.8213 39.2164 32.97 39.1836C33.4994 39.0655 33.9489 38.7483 34.2366 38.2911C34.3798 38.0647 34.4739 37.8153 34.5177 37.5583L43.5816 46.6222C41.3186 47.4228 39.6922 49.583 39.6922 52.1172V52.7942C39.6922 53.1562 39.9864 53.4505 40.3484 53.4505H53.7031C54.0652 53.4505 54.3594 53.1562 54.3594 52.7942V52.1172C54.3594 48.9037 51.7453 46.2886 48.5308 46.2886ZM21.9789 16.9433C21.9789 14.4528 24.0045 12.4272 26.495 12.4272H29.5061C31.9955 12.4272 34.0222 14.4528 34.0222 16.9433V16.963H21.98V16.9433H21.9789ZM14.9953 52.1172V52.138H2.95312V52.1172C2.95312 49.6278 4.97875 47.6011 7.46922 47.6011H10.4803C12.9697 47.6011 14.9953 49.6267 14.9953 52.1172ZM37.8831 21.6978L43.062 29.2217L40.9708 30.6611L35.7919 23.1372L37.8831 21.6978ZM29.9808 24.3906C30.555 24.2627 30.9958 24.2987 31.4114 24.5066C32.5828 25.0939 33.9478 25.2547 35.4725 24.9889L39.2634 30.497C38.7373 31.0122 38.0887 31.3655 37.415 31.4989L29.9338 26.7881C29.8419 26.7302 29.7369 26.6962 29.6286 26.6886L27.6938 26.5573C27.347 26.5344 27.0266 26.6612 26.7914 26.9172C25.2219 28.6212 24.0089 28.5687 23.1492 28.198L24.2867 26.5387C24.5427 26.1647 24.897 25.9142 25.4713 25.6998C26.8789 25.1759 28.2702 24.7723 29.9808 24.3906ZM15.6581 30.5681L13.5669 29.1287L18.7458 21.6048L20.837 23.0442L15.6581 30.5681ZM18.702 34.0397L19.8767 32.3509C19.962 32.2284 20.09 32.1464 20.2387 32.1202C20.3875 32.0939 20.5363 32.1256 20.6588 32.2109C20.7808 32.2962 20.8641 32.4264 20.8904 32.573C20.9166 32.7196 20.8837 32.8706 20.7987 32.993L19.6241 34.6817C19.5821 34.7423 19.5284 34.7939 19.4663 34.8336C19.4041 34.8732 19.3347 34.9 19.262 34.9125C19.1133 34.9398 18.9645 34.907 18.842 34.8217C18.5883 34.6456 18.5259 34.2945 18.702 34.0397ZM20.0255 37.3876C19.903 37.3023 19.8209 37.1744 19.7947 37.0256C19.7684 36.8769 19.8002 36.7281 19.8855 36.6056L21.8772 33.7433L22.6942 32.5697C22.7796 32.4474 22.91 32.364 23.0568 32.3378C23.2036 32.3116 23.3549 32.3446 23.4773 32.4297C23.5379 32.4718 23.5895 32.5255 23.6293 32.5876C23.6691 32.6497 23.6963 32.7191 23.7093 32.7917C23.7223 32.8643 23.7209 32.9388 23.7051 33.0109C23.6893 33.0829 23.6595 33.1512 23.6173 33.2117L22.9852 34.1206L22.9841 34.1217L21.4419 36.3366V36.3377L20.8086 37.2477C20.7231 37.3698 20.5927 37.453 20.4459 37.4793C20.2992 37.5055 20.148 37.4726 20.0255 37.3876ZM23.0792 37.9597C22.9305 37.9859 22.7817 37.9542 22.6592 37.8689C22.5367 37.7836 22.4547 37.6556 22.4284 37.5069C22.4022 37.3581 22.4339 37.2094 22.5192 37.0869L24.0614 34.872C24.1036 34.8115 24.1572 34.7598 24.2193 34.72C24.2815 34.6802 24.3508 34.6531 24.4234 34.6401C24.496 34.6271 24.5705 34.6285 24.6426 34.6443C24.7146 34.66 24.7829 34.6899 24.8434 34.732C24.9659 34.8173 25.048 34.9453 25.0742 35.0941C25.1005 35.2428 25.0688 35.3916 24.9834 35.5141L23.4423 37.7289C23.4001 37.7895 23.3463 37.8412 23.284 37.8808C23.2216 37.9204 23.152 37.9472 23.0792 37.9597ZM24.9758 38.8062C24.8533 38.7209 24.7712 38.593 24.745 38.4442C24.7188 38.2955 24.7505 38.1467 24.8358 38.0242L25.7447 36.7194C25.7867 36.6588 25.8403 36.6072 25.9025 36.5675C25.9646 36.5279 26.0341 36.5011 26.1067 36.4886C26.2555 36.4612 26.4042 36.4941 26.5267 36.5794C26.5873 36.6215 26.6389 36.6752 26.6787 36.7373C26.7185 36.7994 26.7457 36.8688 26.7587 36.9414C26.7717 37.014 26.7703 37.0885 26.7545 37.1605C26.7387 37.2326 26.7089 37.3009 26.6667 37.3614L25.7589 38.6662C25.6734 38.7884 25.543 38.8716 25.3962 38.8979C25.2495 38.9241 25.0983 38.8912 24.9758 38.8062ZM33.1253 37.5911C33.0759 37.6697 33.0112 37.7377 32.9351 37.7911C32.8591 37.8444 32.7731 37.882 32.6823 37.9017C32.5008 37.9422 32.3159 37.9105 32.1628 37.8131L30.0311 36.4525C29.7259 36.2578 29.3202 36.3475 29.1244 36.6526C28.9286 36.9578 29.0194 37.3636 29.3245 37.5594L30.4106 38.2528L30.4062 38.2594C30.4841 38.3082 30.5514 38.3721 30.6044 38.4472C30.6573 38.5223 30.6948 38.6071 30.7147 38.6969C30.7563 38.8806 30.7245 39.0677 30.6261 39.2252C30.5277 39.3827 30.3713 39.492 30.1886 39.5336C30.0048 39.5752 29.8178 39.5434 29.6603 39.445L27.6817 38.1992L27.743 38.1106C28.3336 37.2619 28.1236 36.0916 27.2748 35.5009C27.0134 35.3186 26.7094 35.2067 26.3922 35.1761C26.3911 35.0722 26.3834 34.9672 26.3637 34.8622C26.2752 34.3689 26.0006 33.9391 25.5905 33.6547C25.3947 33.518 25.1814 33.4272 24.9627 33.3736C25.1595 32.6331 24.8883 31.815 24.2244 31.3523C23.473 30.8295 22.47 30.9356 21.84 31.5547C21.7196 31.392 21.5737 31.2498 21.408 31.1336C20.9978 30.8481 20.5002 30.7398 20.0069 30.8284C19.5136 30.917 19.0837 31.1916 18.7994 31.6017L18.4844 32.0545C17.9714 31.5459 17.5744 31.0373 17.2856 30.5178L21.2647 24.7373C21.9417 25.13 22.7303 25.3466 23.4686 25.4625C23.3745 25.5675 23.287 25.6791 23.205 25.7983L21.7613 27.9027C21.63 28.093 21.5852 28.3227 21.6333 28.548C21.6814 28.7733 21.817 28.9647 22.015 29.0839C23.3395 29.8878 25.3947 30.3242 27.6948 27.8742L29.3748 27.988L36.9261 32.7425C37.0039 32.7913 37.0713 32.8552 37.1242 32.9303C37.1772 33.0054 37.2147 33.0903 37.2345 33.18C37.2761 33.3637 37.2444 33.5508 37.1459 33.7083C36.9403 34.0353 36.5061 34.1337 36.1802 33.9281L31.5416 31.0078C31.2353 30.8153 30.8295 30.9072 30.637 31.2134C30.4434 31.5197 30.5364 31.9255 30.8427 32.118L35.1466 34.8283L35.1477 34.8294C35.2255 34.8782 35.2928 34.9421 35.3458 35.0172C35.3987 35.0923 35.4362 35.1771 35.4561 35.2669C35.4977 35.4506 35.4659 35.6376 35.3675 35.7952C35.2691 35.9527 35.1127 36.062 34.93 36.1036C34.7463 36.1452 34.5592 36.1134 34.4017 36.015L30.3822 33.4841C30.0759 33.2905 29.6702 33.3834 29.4777 33.6897C29.2841 33.9959 29.377 34.4017 29.6833 34.5942L32.9055 36.6231C32.9066 36.6231 32.9066 36.6242 32.9077 36.6242C32.9855 36.6731 33.0528 36.7369 33.1058 36.812C33.1587 36.8871 33.1962 36.972 33.2161 37.0617C33.2566 37.2466 33.2248 37.4336 33.1253 37.5911ZM53.0469 52.1369H41.0047V52.1161C41.0047 49.6267 43.0303 47.6 45.5208 47.6H48.5319C51.0223 47.6 53.048 49.6256 53.048 52.1161V52.1369H53.0469ZM47.0258 45.4081C48.9038 45.4081 50.4317 43.6844 50.4317 41.5658C50.4317 39.4472 48.9038 37.7234 47.0258 37.7234C45.1478 37.7234 43.6198 39.4472 43.6198 41.5658C43.6198 43.6855 45.1478 45.4081 47.0258 45.4081ZM47.0258 39.037C48.1797 39.037 49.1192 40.1723 49.1192 41.5669C49.1192 42.9614 48.1797 44.0967 47.0258 44.0967C45.8719 44.0967 44.9323 42.9614 44.9323 41.5669C44.9323 40.1712 45.8708 39.037 47.0258 39.037Z" fill="#52006A"/>
</svg>