<svg width="22" height="24" viewBox="0 0 22 24" fill="none" xmlns="http://www.w3.org/2000/svg">
<path d="M21.1211 20.4844V24H11.2774V20.4844C11.2774 19.3212 12.2236 18.375 13.3867 18.375H19.0117C20.1749 18.375 21.1211 19.3212 21.1211 20.4844Z" fill="white"/>
<path d="M16.1992 18.3751C14.6459 18.3751 13.3867 17.1159 13.3867 15.5626C13.3867 14.0093 14.6459 12.7501 16.1992 12.7501C17.7525 12.7501 19.0117 14.0093 19.0117 15.5626C19.0117 17.1159 17.7525 18.3751 16.1992 18.3751Z" fill="white"/>
<path d="M9.87109 20.4844V24H0.0273695V20.4844C0.0273695 19.3212 0.973586 18.375 2.13674 18.375H7.76172C8.92488 18.375 9.87109 19.3212 9.87109 20.4844Z" fill="#9766A6"/>
<path d="M4.94923 18.3751C3.39593 18.3751 2.13673 17.1159 2.13673 15.5626C2.13673 14.0093 3.39593 12.7501 4.94923 12.7501C6.50252 12.7501 7.76172 14.0093 7.76172 15.5626C7.76172 17.1159 6.50252 18.3751 4.94923 18.3751Z" fill="#9766A6"/>
<path d="M19.7148 4.21874C19.7148 6.54509 17.8225 8.43748 15.4961 8.43748V11.5981L11.7251 8.43748H9.42342L5.65238 11.5981V8.43748C3.32603 8.43748 1.43364 6.54509 1.43364 4.21874C1.43364 1.89239 3.32603 0 5.65238 0H15.4961C17.8225 0 19.7148 1.89239 19.7148 4.21874ZM8.46487 3.51562H7.05863V4.92186H8.46487V3.51562ZM11.2774 3.51562H9.87112V4.92186H11.2774V3.51562ZM14.0899 3.51562H12.6836V4.92186H14.0899V3.51562Z" fill="white"/>
</svg>
