<svg width="50" height="48" viewBox="0 0 50 48" fill="none" xmlns="http://www.w3.org/2000/svg">
<path d="M38.3267 34.8434C38.1718 34.8433 38.0199 34.8001 37.8883 34.7185C37.7566 34.6369 37.6502 34.5203 37.5812 34.3816C37.5121 34.243 37.483 34.0878 37.4973 33.9336C37.5115 33.7793 37.5684 33.6321 37.6617 33.5084C39.7296 30.7708 40.8437 27.431 40.8333 24.0001C40.8333 22.9134 40.7217 21.8251 40.5017 20.7667C40.4772 20.6587 40.4744 20.5469 40.4936 20.4379C40.5128 20.3288 40.5536 20.2246 40.6135 20.1315C40.6734 20.0384 40.7513 19.9581 40.8425 19.8954C40.9338 19.8327 41.0367 19.7888 41.1451 19.7663C41.2536 19.7438 41.3654 19.7432 41.4741 19.7644C41.5828 19.7857 41.6862 19.8284 41.7782 19.89C41.8702 19.9516 41.949 20.031 42.01 20.1234C42.0709 20.2159 42.1129 20.3196 42.1333 20.4284C42.3767 21.5984 42.5 22.8001 42.5 24.0001C42.5 27.8251 41.2867 31.4617 38.9933 34.5117C38.9155 34.6149 38.8148 34.6986 38.6991 34.7562C38.5834 34.8137 38.4559 34.8436 38.3267 34.8434ZM8.69333 28.3067C8.50237 28.306 8.3174 28.24 8.16915 28.1196C8.02089 27.9993 7.91827 27.8318 7.87833 27.6451C7.62744 26.4463 7.50066 25.2248 7.5 24.0001C7.5 20.1917 8.70167 16.5701 10.9767 13.5301C11.0422 13.4424 11.1244 13.3685 11.2185 13.3126C11.3126 13.2567 11.4168 13.2199 11.5251 13.2043C11.6335 13.1887 11.7438 13.1945 11.8499 13.2215C11.956 13.2485 12.0557 13.2962 12.1433 13.3617C12.231 13.4273 12.3049 13.5095 12.3608 13.6036C12.4167 13.6977 12.4535 13.8019 12.4691 13.9102C12.4848 14.0185 12.4789 14.1289 12.4519 14.235C12.4249 14.341 12.3772 14.4408 12.3117 14.5284C10.2602 17.2591 9.15592 20.5847 9.16667 24.0001C9.16667 25.1084 9.28167 26.2201 9.51 27.3017C9.53557 27.4232 9.53368 27.5488 9.50449 27.6694C9.4753 27.79 9.41953 27.9026 9.34127 27.9989C9.263 28.0953 9.16421 28.1729 9.05211 28.2261C8.94001 28.2794 8.81744 28.3069 8.69333 28.3067ZM27.5 32.3334H22.5C22.279 32.3334 22.067 32.2456 21.9107 32.0893C21.7545 31.9331 21.6667 31.7211 21.6667 31.5001V27.3334H17.5C17.279 27.3334 17.067 27.2456 16.9107 27.0893C16.7545 26.9331 16.6667 26.7211 16.6667 26.5001V21.5001C16.6667 21.2791 16.7545 21.0671 16.9107 20.9108C17.067 20.7545 17.279 20.6667 17.5 20.6667H21.6667V16.5001C21.6667 16.2791 21.7545 16.0671 21.9107 15.9108C22.067 15.7545 22.279 15.6667 22.5 15.6667H27.5C27.721 15.6667 27.933 15.7545 28.0893 15.9108C28.2455 16.0671 28.3333 16.2791 28.3333 16.5001V20.6667H32.5C32.721 20.6667 32.933 20.7545 33.0893 20.9108C33.2455 21.0671 33.3333 21.2791 33.3333 21.5001V26.5001C33.3333 26.7211 33.2455 26.9331 33.0893 27.0893C32.933 27.2456 32.721 27.3334 32.5 27.3334H28.3333V31.5001C28.3333 31.7211 28.2455 31.9331 28.0893 32.0893C27.933 32.2456 27.721 32.3334 27.5 32.3334ZM23.3333 30.6667H26.6667V26.5001C26.6667 26.2791 26.7545 26.0671 26.9107 25.9108C27.067 25.7545 27.279 25.6667 27.5 25.6667H31.6667V22.3334H27.5C27.279 22.3334 27.067 22.2456 26.9107 22.0893C26.7545 21.9331 26.6667 21.7211 26.6667 21.5001V17.3334H23.3333V21.5001C23.3333 21.7211 23.2455 21.9331 23.0893 22.0893C22.933 22.2456 22.721 22.3334 22.5 22.3334H18.3333V25.6667H22.5C22.721 25.6667 22.933 25.7545 23.0893 25.9108C23.2455 26.0671 23.3333 26.2791 23.3333 26.5001V30.6667ZM28.5683 47.3334H19.8333C18.1968 47.3315 16.5816 46.9625 15.1067 46.2534L9.26833 43.4167C7.79247 42.7032 6.17429 42.3329 4.535 42.3334H0.833333C0.61232 42.3334 0.400358 42.2456 0.244078 42.0893C0.0877973 41.9331 0 41.7211 0 41.5001C0 41.2791 0.0877973 41.0671 0.244078 40.9108C0.400358 40.7545 0.61232 40.6667 0.833333 40.6667H4.535C6.42833 40.6667 8.265 41.0867 9.99333 41.9167L15.83 44.7517C17.0795 45.3514 18.4474 45.6641 19.8333 45.6667H28.4017L35.68 42.6634C35.68 42.5934 35.7783 41.9484 35.4583 41.4001C34.97 40.5601 33.8417 40.5334 32.9867 40.6584C31.745 40.8501 30.7183 41.1951 29.8133 41.5001L29.47 41.6151C29.2612 41.6814 29.0346 41.6627 28.8394 41.5632C28.6442 41.4637 28.4961 41.2913 28.427 41.0833C28.358 40.8753 28.3737 40.6486 28.4706 40.4521C28.5675 40.2556 28.738 40.1052 28.945 40.0334L29.2817 39.9217C30.2517 39.5951 31.35 39.2251 32.74 39.0117C36.1767 38.5117 37.035 40.6584 37.22 41.3267C37.525 42.4284 37.2717 43.8067 36.32 44.2051L28.885 47.2734C28.784 47.3125 28.6767 47.3328 28.5683 47.3334ZM17.725 35.4617C17.5661 35.4618 17.4105 35.4165 17.2765 35.3311C17.1425 35.2458 17.0356 35.124 16.9683 34.9801C15.335 31.4651 11.0917 30.9617 7.93667 32.2701C7.83514 32.3118 7.72644 32.3333 7.61667 32.3334H0.833333C0.61232 32.3334 0.400358 32.2456 0.244078 32.0893C0.0877973 31.9331 0 31.7211 0 31.5001C0 31.2791 0.0877973 31.0671 0.244078 30.9108C0.400358 30.7545 0.61232 30.6667 0.833333 30.6667H7.455C11.9667 28.8751 16.6817 30.4134 18.4817 34.2784C18.54 34.4055 18.5655 34.5451 18.5558 34.6846C18.5461 34.824 18.5016 34.9588 18.4263 35.0766C18.351 35.1943 18.2473 35.2913 18.1248 35.3586C18.0022 35.4259 17.8648 35.4614 17.725 35.4617Z" fill="#52006A"/>
<path d="M25.6233 43.3717C25.5141 43.3715 25.4059 43.35 25.305 43.3084L15.7616 39.3467C15.6605 39.3047 15.5687 39.2432 15.4913 39.1656C15.414 39.0881 15.3527 38.9961 15.3109 38.8949C15.2691 38.7937 15.2477 38.6852 15.2478 38.5757C15.2479 38.4662 15.2696 38.3578 15.3116 38.2567C15.3536 38.1556 15.4152 38.0637 15.4927 37.9864C15.5702 37.9091 15.6622 37.8478 15.7634 37.806C15.8646 37.7642 15.9731 37.7427 16.0826 37.7429C16.1921 37.743 16.3005 37.7647 16.4016 37.8067L25.1066 41.42C25.4716 39.7017 24.5316 38.365 22.2983 37.44L17.3933 35.4034C17.1891 35.3185 17.0269 35.156 16.9425 34.9516C16.8582 34.7472 16.8584 34.5176 16.9433 34.3134C17.0282 34.1092 17.1907 33.947 17.3951 33.8626C17.5995 33.7782 17.8291 33.7785 18.0333 33.8634L22.9366 35.9C26.3716 37.3234 27.6316 39.8584 26.3933 42.8534C26.3516 42.9548 26.2903 43.047 26.2127 43.1245C26.1352 43.202 26.0431 43.2634 25.9416 43.305C25.8413 43.3493 25.7329 43.372 25.6233 43.3717ZM16.285 9.06505C13.6633 9.06505 12.9466 7.27505 12.78 6.67505C12.475 5.57338 12.7283 4.19505 13.68 3.79672L21.115 0.728384C21.2157 0.687959 21.3231 0.667032 21.4316 0.666718H30.165C31.7933 0.666718 33.3833 1.03005 34.8916 1.74672L40.73 4.58338C42.2283 5.30172 43.8233 5.66672 45.465 5.66672H49.1666C49.3876 5.66672 49.5996 5.75452 49.7559 5.9108C49.9122 6.06708 50 6.27904 50 6.50005C50 6.72106 49.9122 6.93303 49.7559 7.08931C49.5996 7.24559 49.3876 7.33338 49.1666 7.33338H45.465C43.5745 7.33433 41.7083 6.90697 40.0066 6.08338L34.17 3.25005C32.9208 2.64902 31.5528 2.33578 30.1666 2.33338H21.5983L14.3183 5.33672C14.3183 5.40672 14.22 6.05172 14.54 6.60005C15.03 7.44005 16.155 7.46672 17.0116 7.34172C18.2533 7.15005 19.28 6.80505 20.185 6.50005L20.5283 6.38505C20.6326 6.34891 20.743 6.33383 20.8531 6.34071C20.9633 6.34758 21.071 6.37626 21.1699 6.42509C21.2689 6.47392 21.3572 6.54192 21.4297 6.62514C21.5021 6.70837 21.5574 6.80516 21.5921 6.9099C21.6269 7.01464 21.6405 7.12524 21.6322 7.23529C21.6239 7.34533 21.5938 7.45263 21.5436 7.55095C21.4935 7.64926 21.4243 7.73665 21.3402 7.80802C21.256 7.87939 21.1585 7.93334 21.0533 7.96672L20.7166 8.07838C19.7466 8.40505 18.6483 8.77505 17.2583 8.98838C16.9362 9.03843 16.6109 9.06406 16.285 9.06505ZM38.765 18.0751C35.615 18.0751 32.8116 16.5017 31.5183 13.7217C31.4348 13.5226 31.4317 13.2988 31.5097 13.0974C31.5876 12.896 31.7406 12.7327 31.9364 12.6417C32.1323 12.5507 32.3557 12.5391 32.56 12.6093C32.7642 12.6795 32.9332 12.8262 33.0316 13.0184C34.6633 16.5317 38.905 17.0334 42.0633 15.7284C42.1652 15.688 42.2737 15.6671 42.3833 15.6667H49.1666C49.3876 15.6667 49.5996 15.7545 49.7559 15.9108C49.9122 16.0671 50 16.279 50 16.5001C50 16.7211 49.9122 16.933 49.7559 17.0893C49.5996 17.2456 49.3876 17.3334 49.1666 17.3334H42.545C41.2783 17.8351 39.995 18.0751 38.765 18.0751Z" fill="#52006A"/>
<path d="M32.2866 14.2C32.1768 14.2001 32.0681 14.1786 31.9666 14.1367L27.0633 12.1C23.6283 10.6767 22.3682 8.14172 23.6066 5.14672C23.6478 5.04498 23.7089 4.95246 23.7863 4.87454C23.8636 4.79662 23.9557 4.73485 24.0571 4.69283C24.1585 4.6508 24.2673 4.62935 24.3771 4.62974C24.4868 4.63012 24.5955 4.65232 24.6966 4.69505L34.2399 8.65672C34.341 8.69874 34.4329 8.76027 34.5102 8.83779C34.5876 8.91531 34.6489 9.0073 34.6907 9.10852C34.7325 9.20973 34.7539 9.31819 34.7538 9.42769C34.7536 9.53719 34.7319 9.6456 34.6899 9.74672C34.6479 9.84783 34.5864 9.93968 34.5088 10.017C34.4313 10.0944 34.3393 10.1557 34.2381 10.1975C34.1369 10.2392 34.0284 10.2607 33.9189 10.2606C33.8094 10.2604 33.701 10.2387 33.5999 10.1967L24.8949 6.58338C24.5299 8.30172 25.4699 9.63838 27.7032 10.5634L32.6083 12.6C32.7094 12.642 32.8013 12.7035 32.8787 12.781C32.9561 12.8585 33.0174 12.9505 33.0592 13.0518C33.101 13.153 33.1224 13.2615 33.1223 13.371C33.1221 13.4805 33.1003 13.5889 33.0582 13.69C32.9937 13.8413 32.8861 13.9702 32.7489 14.0608C32.6118 14.1515 32.451 14.1999 32.2866 14.2ZM35.8582 37.3917C35.6936 37.3917 35.5326 37.3428 35.3956 37.2514C35.2587 37.1599 35.1519 37.0299 35.0887 36.8778C35.0256 36.7257 35.009 36.5583 35.0409 36.3967C35.0729 36.2352 35.152 36.0867 35.2682 35.97C35.5949 35.645 36.1799 35.5867 36.5049 35.9117C36.8299 36.2367 36.8883 36.7067 36.5633 37.0317L36.4466 37.1484C36.3694 37.2257 36.2776 37.2869 36.1767 37.3287C36.0757 37.3705 35.9675 37.3919 35.8582 37.3917ZM14.1916 12.3917C14.0263 12.3917 13.8647 12.3425 13.7275 12.2504C13.5902 12.1583 13.4834 12.0275 13.4207 11.8745C13.358 11.7216 13.3422 11.5535 13.3753 11.3915C13.4084 11.2296 13.4889 11.0811 13.6066 10.965L13.7249 10.8484C13.8024 10.7695 13.8948 10.7069 13.9967 10.6641C14.0986 10.6213 14.2081 10.5992 14.3186 10.5991C14.4292 10.599 14.5386 10.6209 14.6406 10.6635C14.7426 10.7061 14.8351 10.7686 14.9127 10.8474C14.9904 10.9261 15.0515 11.0195 15.0927 11.122C15.1339 11.2246 15.1542 11.3344 15.1526 11.4449C15.1509 11.5555 15.1273 11.6646 15.083 11.7659C15.0388 11.8672 14.9749 11.9587 14.8949 12.035L14.7766 12.1517C14.621 12.3059 14.4106 12.3922 14.1916 12.3917Z" fill="#52006A"/>
</svg>
