<svg width="50" height="50" viewBox="0 0 50 50" fill="none" xmlns="http://www.w3.org/2000/svg">
<path d="M44.1641 11.3281V5.46875H20.7266M31.3711 35.7422H17.6992M48.0703 11.3281V46.4844H1V11.3281H5.88281L7.83594 3.51562H19.75L23.6562 11.3281H48.0703ZM31.3711 21.0938C30.9359 21.0938 30.5221 21.1688 30.1205 21.2757C29.3695 18.9058 27.1536 17.1875 24.5352 17.1875C21.9167 17.1875 19.7008 18.9058 18.9498 21.2757C18.5482 21.1688 18.1344 21.0938 17.6992 21.0938C15.0025 21.0938 12.8164 23.2799 12.8164 25.9766C12.8164 28.6732 15.0025 30.8594 17.6992 30.8594V40.625H31.3711V30.8594C34.0678 30.8594 36.2539 28.6732 36.2539 25.9766C36.2539 23.2799 34.0678 21.0938 31.3711 21.0938Z" stroke="#52006A" stroke-width="1.5" stroke-miterlimit="10" stroke-linecap="round" stroke-linejoin="round"/>
</svg>
