<svg width="50" height="50" viewBox="0 0 50 50" fill="none" xmlns="http://www.w3.org/2000/svg">
<g clip-path="url(#clip0_2954_14925)">
<path d="M44.7917 37.5H38.5417C38.2654 37.5 38.0004 37.3903 37.8051 37.1949C37.6097 36.9996 37.5 36.7346 37.5 36.4583C37.5 36.1821 37.6097 35.9171 37.8051 35.7218C38.0004 35.5264 38.2654 35.4167 38.5417 35.4167H44.7917C46.5146 35.4167 47.9167 34.0146 47.9167 32.2917V17.7083C47.9167 15.9854 46.5146 14.5833 44.7917 14.5833H5.20833C3.48542 14.5833 2.08333 15.9854 2.08333 17.7083V32.2917C2.08333 34.0146 3.48542 35.4167 5.20833 35.4167H11.4583C11.7346 35.4167 11.9996 35.5264 12.1949 35.7218C12.3903 35.9171 12.5 36.1821 12.5 36.4583C12.5 36.7346 12.3903 36.9996 12.1949 37.1949C11.9996 37.3903 11.7346 37.5 11.4583 37.5H5.20833C3.82751 37.4983 2.50371 36.9491 1.52731 35.9727C0.550919 34.9963 0.00165402 33.6725 0 32.2917V17.7083C0 14.8375 2.33542 12.5 5.20833 12.5H44.7917C47.6646 12.5 50 14.8375 50 17.7083V32.2917C50 35.1625 47.6646 37.5 44.7917 37.5ZM30.2083 43.75H17.7083C17.4321 43.75 17.1671 43.6403 16.9718 43.4449C16.7764 43.2496 16.6667 42.9846 16.6667 42.7083C16.6667 42.4321 16.7764 42.1671 16.9718 41.9718C17.1671 41.7764 17.4321 41.6667 17.7083 41.6667H30.2083C30.4846 41.6667 30.7496 41.7764 30.9449 41.9718C31.1403 42.1671 31.25 42.4321 31.25 42.7083C31.25 42.9846 31.1403 43.2496 30.9449 43.4449C30.7496 43.6403 30.4846 43.75 30.2083 43.75ZM30.2083 39.5833H17.7083C17.4321 39.5833 17.1671 39.4736 16.9718 39.2782C16.7764 39.0829 16.6667 38.8179 16.6667 38.5417C16.6667 38.2654 16.7764 38.0004 16.9718 37.8051C17.1671 37.6097 17.4321 37.5 17.7083 37.5H30.2083C30.4846 37.5 30.7496 37.6097 30.9449 37.8051C31.1403 38.0004 31.25 38.2654 31.25 38.5417C31.25 38.8179 31.1403 39.0829 30.9449 39.2782C30.7496 39.4736 30.4846 39.5833 30.2083 39.5833Z" fill="#52006A"/>
<path d="M21.8753 35.4167H17.7087C17.4324 35.4167 17.1674 35.3069 16.9721 35.1116C16.7767 34.9162 16.667 34.6513 16.667 34.375C16.667 34.0987 16.7767 33.8338 16.9721 33.6384C17.1674 33.4431 17.4324 33.3333 17.7087 33.3333H21.8753C22.1516 33.3333 22.4165 33.4431 22.6119 33.6384C22.8072 33.8338 22.917 34.0987 22.917 34.375C22.917 34.6513 22.8072 34.9162 22.6119 35.1116C22.4165 35.3069 22.1516 35.4167 21.8753 35.4167ZM38.542 14.5833C38.2657 14.5833 38.0008 14.4736 37.8054 14.2782C37.6101 14.0829 37.5003 13.8179 37.5003 13.5417V5.20833C37.5003 3.48542 36.0982 2.08333 34.3753 2.08333H15.6253C13.9024 2.08333 12.5003 3.48542 12.5003 5.20833V13.5417C12.5003 13.8179 12.3906 14.0829 12.1952 14.2782C11.9999 14.4736 11.7349 14.5833 11.4587 14.5833C11.1824 14.5833 10.9174 14.4736 10.7221 14.2782C10.5267 14.0829 10.417 13.8179 10.417 13.5417V5.20833C10.417 2.3375 12.7524 0 15.6253 0H34.3753C37.2482 0 39.5837 2.3375 39.5837 5.20833V13.5417C39.5837 13.8179 39.4739 14.0829 39.2786 14.2782C39.0832 14.4736 38.8183 14.5833 38.542 14.5833Z" fill="#52006A"/>
<path d="M34.3753 50H15.6253C14.2445 49.9984 12.9207 49.4491 11.9443 48.4727C10.9679 47.4963 10.4186 46.1725 10.417 44.7917V28.125C10.417 27.8487 10.5267 27.5838 10.7221 27.3884C10.9174 27.1931 11.1824 27.0833 11.4587 27.0833H38.542C38.8183 27.0833 39.0832 27.1931 39.2786 27.3884C39.4739 27.5838 39.5837 27.8487 39.5837 28.125V44.7917C39.5837 47.6625 37.2482 50 34.3753 50ZM12.5003 29.1667V44.7917C12.5003 46.5146 13.9024 47.9167 15.6253 47.9167H34.3753C36.0982 47.9167 37.5003 46.5146 37.5003 44.7917V29.1667H12.5003Z" fill="#52006A"/>
</g>
<defs>
<clipPath id="clip0_2954_14925">
<rect width="50" height="50" fill="white"/>
</clipPath>
</defs>
</svg>
