<svg width="51" height="50" viewBox="0 0 51 50" fill="none" xmlns="http://www.w3.org/2000/svg">
<path d="M15.0575 0.111411C14.9548 0.112944 14.8534 0.134697 14.759 0.175427C14.6647 0.216158 14.5794 0.275067 14.5078 0.348792C14.4363 0.422517 14.38 0.509613 14.3421 0.605105C14.3042 0.700598 14.2855 0.802616 14.2871 0.905334V12.576C14.2871 13.614 15.8455 13.614 15.8455 12.576V0.902393C15.8463 0.798302 15.8264 0.695094 15.7869 0.598774C15.7474 0.502454 15.6892 0.414946 15.6156 0.34134C15.542 0.267734 15.4545 0.2095 15.3582 0.170027C15.2618 0.130554 15.1586 0.110629 15.0545 0.111411H15.0575ZM5.71565 7.09793C5.51 7.10408 5.31498 7.19071 5.17255 7.33919C5.03012 7.48767 4.95167 7.68612 4.95408 7.89185V18.7774C4.95408 19.8183 6.51252 19.8183 6.51252 18.7774V7.89185C6.51252 7.45078 6.15966 7.08911 5.71859 7.09793H5.71565ZM24.3876 7.09793C24.1814 7.10332 23.9856 7.18962 23.8426 7.33818C23.6995 7.48674 23.6207 7.68562 23.623 7.89185V18.7774C23.623 19.8183 25.1815 19.8183 25.1815 18.7774V7.89185C25.1815 7.45078 24.8286 7.08911 24.3876 7.09793ZM36.07 7.11263C35.9615 7.11288 35.8543 7.13587 35.7552 7.18012C35.6562 7.22436 35.5675 7.28887 35.4949 7.36949C35.4223 7.45012 35.3674 7.54506 35.3338 7.6482C35.3001 7.75134 35.2885 7.86038 35.2996 7.9683L37.5402 28.8955H33.7382C33.5849 28.8954 33.4349 28.9404 33.3071 29.0251C33.1792 29.1098 33.0792 29.2304 33.0196 29.3716C32.9599 29.5129 32.9433 29.6686 32.9717 29.8193C33.0002 29.97 33.0725 30.1089 33.1795 30.2187L40.9629 38.1432C41.0354 38.2166 41.1217 38.2748 41.2169 38.3146C41.312 38.3543 41.4141 38.3748 41.5172 38.3748C41.6203 38.3748 41.7224 38.3543 41.8175 38.3146C41.9127 38.2748 41.999 38.2166 42.0715 38.1432L49.8549 30.2187C49.9619 30.1089 50.0342 29.97 50.0626 29.8193C50.0911 29.6686 50.0745 29.5129 50.0148 29.3716C49.9552 29.2304 49.8552 29.1098 49.7273 29.0251C49.5995 28.9404 49.4495 28.8954 49.2962 28.8955H45.4942L47.7407 7.9683C47.7514 7.86012 47.7392 7.7509 47.7051 7.64771C47.6709 7.54451 47.6154 7.44965 47.5422 7.36927C47.469 7.28888 47.3798 7.22476 47.2802 7.18105C47.1807 7.13735 47.0731 7.11504 46.9644 7.11557L36.07 7.11263ZM36.9374 8.66519H46.097L43.8563 29.5924C43.8448 29.7012 43.8562 29.8112 43.89 29.9152C43.9238 30.0193 43.9791 30.1151 44.0523 30.1963C44.1255 30.2776 44.215 30.3425 44.315 30.3869C44.415 30.4313 44.5232 30.4541 44.6326 30.4539H47.4407L41.5216 36.4878L35.5995 30.4539H38.4077C38.8723 30.4539 39.231 30.054 39.1839 29.5924L36.9374 8.66519ZM15.0692 20.3417C13.1107 20.3137 11.1662 20.6752 9.34864 21.4052C7.53106 22.1353 5.8767 23.2192 4.48168 24.5942C3.08667 25.9691 1.97882 27.6076 1.22252 29.4144C0.466227 31.2211 0.0765618 33.1602 0.0761722 35.1189C0.0757825 37.0776 0.464676 39.0169 1.22025 40.824C1.97583 42.6311 3.08303 44.27 4.47749 45.6455C5.87196 47.0209 7.5259 48.1056 9.34318 48.8363C11.1605 49.5671 13.1049 49.9293 15.0634 49.9021C18.9472 49.8481 22.6538 48.2675 25.3815 45.5022C28.1091 42.7369 29.6388 39.009 29.6395 35.1248C29.6403 31.2406 28.1122 27.5121 25.3856 24.7457C22.659 21.9793 18.9531 20.3973 15.0692 20.3417ZM15.0692 21.8972C18.5756 21.9019 21.937 23.2969 24.4164 25.7762C26.8958 28.2556 28.2908 31.617 28.2954 35.1234C28.2954 42.4363 22.3439 48.3495 15.0692 48.3495C7.79456 48.3495 1.84013 42.4363 1.84013 35.1204C1.8448 31.6136 3.24017 28.2517 5.72018 25.7723C8.2002 23.2928 11.5624 21.9011 15.0692 21.8972ZM15.0692 23.8438C13.588 23.8436 12.1212 24.1352 10.7526 24.7019C9.38405 25.2685 8.14048 26.0992 7.09294 27.1465C6.0454 28.1938 5.21439 29.4371 4.64735 30.8055C4.08032 32.1739 3.78838 33.6407 3.78818 35.1219C3.78799 36.6032 4.07955 38.07 4.64623 39.4385C5.2129 40.8071 6.04359 42.0507 7.09086 43.0982C8.13813 44.1458 9.38148 44.9768 10.7499 45.5438C12.1183 46.1108 13.5851 46.4028 15.0663 46.403C18.0578 46.403 20.9269 45.2146 23.0422 43.0993C25.1575 40.9839 26.3459 38.1149 26.3459 35.1234C26.3459 32.1319 25.1575 29.2628 23.0422 27.1475C20.9269 25.0322 18.0608 23.8438 15.0692 23.8438ZM15.0692 25.4022C16.3461 25.4015 17.6105 25.6524 18.7903 26.1406C19.9701 26.6289 21.042 27.3449 21.9449 28.2478C22.8477 29.1506 23.5637 30.2226 24.052 31.4024C24.5403 32.5821 24.7912 33.8466 24.7904 35.1234C24.7904 37.702 23.7661 40.175 21.9427 41.9983C20.1194 43.8217 17.6464 44.846 15.0678 44.846C12.4892 44.846 10.0162 43.8217 8.19285 41.9983C6.3695 40.175 5.34516 37.702 5.34516 35.1234C5.34322 33.8459 5.59342 32.5805 6.08142 31.3999C6.56941 30.2192 7.28561 29.1465 8.18896 28.2431C9.09231 27.3398 10.1651 26.6236 11.3457 26.1356C12.5264 25.6476 13.7917 25.4003 15.0692 25.4022ZM15.0722 28.5103C14.6899 28.5103 14.293 28.7632 14.293 29.2866V30.0305C13.5367 30.1933 12.8587 30.6093 12.3711 31.2097C11.8834 31.8102 11.6154 32.5591 11.6113 33.3327C11.6113 34.4794 12.1876 35.1322 12.8845 35.4733C13.5814 35.8144 14.3224 35.8614 14.9928 35.932C15.6632 36.0026 16.266 36.0908 16.5777 36.2437C16.7688 36.3496 16.9805 36.4525 16.9805 36.9847C16.9805 37.9756 16.1631 38.8078 15.1016 38.8166C14.2106 38.799 13.5137 38.252 13.2197 37.2758C12.8757 36.2966 11.4495 36.7524 11.7318 37.7463C12.2317 39.2988 13.2726 40.0104 14.29 40.2751V40.9602C14.29 42.0129 15.8485 41.9717 15.8485 40.9602V40.2839C16.604 40.12 17.2815 39.7042 17.7698 39.1048C18.2581 38.5053 18.5283 37.7578 18.536 36.9847C18.536 35.8526 17.9568 35.1881 17.2599 34.847C16.5659 34.5088 15.8249 34.4588 15.1545 34.3883C14.4812 34.3177 13.8784 34.2265 13.5667 34.0736C13.3373 33.9619 13.1668 33.8119 13.1668 33.3327C13.1668 32.3211 13.9842 31.5272 15.0428 31.5184C15.9984 31.5537 16.6159 32.0565 16.9276 33.0415C17.2599 34.0031 18.6801 33.5943 18.4155 32.574C18.0332 31.3567 17.2099 30.3951 15.8485 30.0482V29.2866C15.8485 28.7749 15.4544 28.5132 15.0722 28.5103ZM37.7578 38.7284L35.7377 39.8957C34.8438 40.4103 35.6083 41.7659 36.5111 41.2454L38.5341 40.078C39.4456 39.5546 38.6517 38.2138 37.7578 38.7284ZM44.5032 40.081L46.5233 41.2454C47.4172 41.76 48.2082 40.4162 47.3025 39.8928L45.2825 38.7284C44.3856 38.2109 43.6005 39.5576 44.5032 40.081ZM41.5187 40.572C41.1276 40.572 40.7394 40.8308 40.7394 41.3483V43.686C40.7394 44.1153 41.0776 44.4652 41.5069 44.4711C41.6104 44.4719 41.7129 44.4521 41.8087 44.413C41.9045 44.3738 41.9915 44.3161 42.0648 44.2431C42.1381 44.17 42.1962 44.0832 42.2357 43.9876C42.2752 43.892 42.2953 43.7894 42.2949 43.686V41.3483C42.2949 40.8308 41.9068 40.572 41.5187 40.572Z" fill="#52006A"/>
</svg>
