<svg xmlns="http://www.w3.org/2000/svg" width="50" height="50" viewBox="0 0 50 50" fill="none">
  <path d="M5.73496 27.4597C5.70122 27.3628 5.68689 27.2602 5.6928 27.1578C5.6987 27.0553 5.72472 26.9551 5.76938 26.8627C5.81403 26.7703 5.87644 26.6877 5.95304 26.6194C6.02964 26.5512 6.11893 26.4987 6.21582 26.4649C17.7088 22.4624 27.8228 16.6458 36.309 9.16513L34.6784 9.25361C34.4715 9.26484 34.2686 9.19341 34.1144 9.05505C33.9601 8.91669 33.8672 8.72272 33.856 8.51581C33.8447 8.30891 33.9162 8.10602 34.0545 7.95178C34.1929 7.79754 34.3868 7.70458 34.5938 7.69335L38.4268 7.48525C38.5423 7.47898 38.6577 7.49844 38.7648 7.54223C38.8719 7.58601 38.9679 7.65303 39.0459 7.73844C39.1239 7.82386 39.182 7.92553 39.216 8.03611C39.2499 8.1467 39.2589 8.26345 39.2422 8.37792L38.6892 12.1766C38.6593 12.3816 38.5492 12.5663 38.3831 12.6902C38.2171 12.8141 38.0086 12.8669 37.8036 12.8372C37.5986 12.8074 37.4138 12.6973 37.2899 12.5312C37.166 12.3651 37.1132 12.1566 37.1431 11.9516L37.3834 10.3009C28.7361 17.9334 18.4336 23.8645 6.72969 27.9405C6.64709 27.9694 6.56024 27.9841 6.47275 27.9842C6.31055 27.9841 6.15238 27.9336 6.02017 27.8396C5.88797 27.7456 5.78829 27.6128 5.73496 27.4597ZM49.2188 38.4393C49.2188 44.3667 44.3964 49.1891 38.469 49.1891C34.5328 49.1891 31.0847 47.062 29.2117 43.8974H1.5625C1.3553 43.8974 1.15659 43.815 1.01007 43.6685C0.86356 43.522 0.78125 43.3233 0.78125 43.1161V8.3204C0.78125 8.1132 0.86356 7.91449 1.01007 7.76798C1.15659 7.62146 1.3553 7.53915 1.5625 7.53915H3.7418C3.949 7.53915 4.14771 7.62146 4.29422 7.76798C4.44074 7.91449 4.52305 8.1132 4.52305 8.3204V40.1556H6.1959V31.7419C6.1959 31.5347 6.27821 31.336 6.42472 31.1895C6.57123 31.0429 6.76995 30.9606 6.97715 30.9606H11.7701C11.8727 30.9606 11.9743 30.9808 12.0691 31.0201C12.1639 31.0594 12.25 31.1169 12.3225 31.1895C12.3951 31.262 12.4526 31.3481 12.4919 31.4429C12.5312 31.5377 12.5514 31.6393 12.5514 31.7419V40.1556H15.0957V26.9243C15.0957 26.7171 15.178 26.5184 15.3245 26.3719C15.471 26.2254 15.6698 26.1431 15.877 26.1431H20.6698C20.877 26.1431 21.0757 26.2254 21.2223 26.3719C21.3688 26.5184 21.4511 26.7171 21.4511 26.9243V40.1556H23.9954V21.8937C23.9954 21.6865 24.0777 21.4878 24.2242 21.3413C24.3707 21.1948 24.5695 21.1125 24.7767 21.1125H29.5695C29.7767 21.1125 29.9754 21.1948 30.122 21.3413C30.2685 21.4878 30.3508 21.6865 30.3508 21.8937V31.4006C31.0829 30.5571 31.9411 29.8319 32.8949 29.2508V17.3684C32.8949 17.1612 32.9772 16.9624 33.1237 16.8159C33.2703 16.6694 33.469 16.5871 33.6762 16.5871H38.469C38.6762 16.5871 38.875 16.6694 39.0215 16.8159C39.168 16.9624 39.2503 17.1612 39.2503 17.3684V27.7182C44.8143 28.1198 49.2188 32.7747 49.2188 38.4393ZM34.4574 28.4668C35.4886 28.0504 36.5786 27.7979 37.6878 27.7183V18.1497H34.4574V28.4668ZM25.5579 40.1556H27.857C27.7655 39.5881 27.7194 39.0142 27.7194 38.4393C27.7194 36.7665 28.1037 35.1817 28.7883 33.7685V22.675H25.5579V40.1556ZM16.6582 40.1556H19.8886V27.7056H16.6582V40.1556ZM7.7584 40.1556H10.9889V32.5231H7.7584V40.1556ZM28.4502 42.335C28.3709 42.1316 28.2979 41.9259 28.2313 41.7182H3.7418C3.5346 41.7182 3.33588 41.6358 3.18937 41.4893C3.04286 41.3428 2.96055 41.1441 2.96055 40.9369V9.10165H2.34375V42.335H28.4502ZM47.6562 38.4393C47.6562 33.3735 43.5349 29.2521 38.469 29.2521C33.4032 29.2521 29.2819 33.3735 29.2819 38.4393C29.2819 43.5052 33.4032 47.6266 38.469 47.6266C43.5349 47.6266 47.6562 43.5052 47.6562 38.4393ZM38.6027 37.641C37.0993 37.3941 37.0717 36.8252 37.0613 36.611C37.0223 35.8049 37.8904 35.5668 38.0648 35.5271C38.7678 35.3677 39.6353 35.5851 39.9897 36.4293C40.07 36.6203 40.2228 36.7716 40.4146 36.85C40.6064 36.9283 40.8215 36.9273 41.0125 36.8472C41.1071 36.8075 41.1929 36.7495 41.2651 36.6766C41.3373 36.6037 41.3945 36.5173 41.4333 36.4223C41.4721 36.3274 41.4918 36.2257 41.4913 36.1231C41.4908 36.0205 41.4701 35.919 41.4304 35.8244C40.9874 34.7694 40.1406 34.2034 39.2504 34.0035V33.6224C39.2504 33.4152 39.1681 33.2164 39.0216 33.0699C38.8751 32.9234 38.6763 32.8411 38.4691 32.8411C38.2619 32.8411 38.0632 32.9234 37.9167 33.0699C37.7702 33.2164 37.6879 33.4152 37.6879 33.6224V34.0105C36.3163 34.3347 35.4386 35.4066 35.5008 36.6866C35.546 37.6193 36.077 38.8095 38.3496 39.1828C39.8284 39.4255 40.0736 39.9155 40.1222 40.3152C40.1506 40.5493 40.1029 40.7235 39.9675 40.88C39.7115 41.176 39.1419 41.3843 38.5498 41.3984C37.8656 41.4165 36.9942 41.1363 36.7853 40.2978C36.6809 39.8792 36.2567 39.6251 35.8382 39.7288C35.7386 39.7536 35.6449 39.7978 35.5625 39.8588C35.48 39.9199 35.4104 39.9965 35.3575 40.0845C35.3047 40.1724 35.2697 40.2699 35.2545 40.3714C35.2393 40.4729 35.2443 40.5763 35.2691 40.6759C35.5526 41.8128 36.4793 42.6309 37.688 42.8812V43.2561C37.688 43.4633 37.7703 43.6621 37.9168 43.8086C38.0633 43.9551 38.262 44.0374 38.4692 44.0374C38.6764 44.0374 38.8752 43.9551 39.0217 43.8086C39.1682 43.6621 39.2505 43.4633 39.2505 43.2561V42.8941C40.0335 42.7539 40.7166 42.4025 41.1494 41.9021C41.5735 41.4117 41.7547 40.7977 41.6732 40.1269C41.5103 38.7851 40.4772 37.9487 38.6027 37.641ZM46.8623 38.4393C46.8623 43.0674 43.0971 46.8325 38.469 46.8325C33.841 46.8325 30.0759 43.0673 30.0759 38.4393C30.0759 33.8114 33.8411 30.0462 38.469 30.0462C43.0971 30.0462 46.8623 33.8113 46.8623 38.4393ZM45.2998 38.4393C45.2998 34.6729 42.2355 31.6087 38.469 31.6087C34.7026 31.6087 31.6384 34.6729 31.6384 38.4393C31.6384 42.2058 34.7026 45.27 38.469 45.27C42.2355 45.27 45.2998 42.2058 45.2998 38.4393Z" fill="#52006A"/>
</svg>