<svg width="57" height="50" viewBox="0 0 57 50" fill="none" xmlns="http://www.w3.org/2000/svg">
<path d="M53.6495 43.9763H52.7699V40.4582H53.6495C55.1042 40.4582 56.288 39.2743 56.288 37.8196C56.288 36.3649 55.1042 35.181 53.6495 35.181H52.6081C52.7066 34.9049 52.7699 34.6111 52.7699 34.3015V20.2291C52.7699 18.7744 51.5861 17.5905 50.1313 17.5905H49.09C49.1885 17.3143 49.2518 17.0206 49.2518 16.711V6.15668C49.2518 4.70194 48.0679 3.5181 46.6132 3.5181H36.0588C34.6041 3.5181 33.4202 4.70194 33.4202 6.15668V12.4752C33.1386 12.371 32.841 12.3163 32.5407 12.3134H18.9731C19.2114 11.4734 19.3477 10.5904 19.3477 9.67478C19.3477 4.34046 15.0072 0 9.67289 0C4.33853 0 -0.00195312 4.34046 -0.00195312 9.67478C-0.00195312 15.0091 4.33853 19.3496 9.67289 19.3496C9.97017 19.3496 10.2622 19.332 10.5524 19.3056V34.3015C10.5524 34.6111 10.6157 34.9049 10.7143 35.181H9.67289C8.21815 35.181 7.0343 36.3649 7.0343 37.8196C7.0343 39.2743 8.21815 40.4582 9.67289 40.4582H10.5524V43.9763H9.67289C8.21815 43.9763 7.0343 45.1601 7.0343 46.6149C7.0343 48.0696 8.21815 49.2534 9.67289 49.2534H53.6495C55.1042 49.2534 56.288 48.0696 56.288 46.6149C56.288 45.1601 55.1042 43.9763 53.6495 43.9763ZM51.0109 43.9763H49.2518V40.4582H51.0109V43.9763ZM42.2155 43.9763V40.4582H47.4927V43.9763H42.2155ZM28.143 43.9763V40.4582H36.9384V43.9763H28.143ZM15.8296 43.9763V40.4582H22.8659V43.9763H15.8296ZM24.6249 40.4582H26.384V43.9763H24.6249V40.4582ZM38.6974 40.4582H40.4565V43.9763H38.6974V40.4582ZM51.0109 20.2291V34.3015C51.0109 34.7861 50.6168 35.181 50.1313 35.181H36.0588C35.5733 35.181 35.1793 34.7861 35.1793 34.3015V20.2291C35.1793 19.7445 35.5733 19.3496 36.0588 19.3496H40.4565V23.7472C40.4565 23.9805 40.5491 24.2042 40.7141 24.3691C40.879 24.5341 41.1027 24.6267 41.336 24.6267H44.8541C45.0874 24.6267 45.3111 24.5341 45.4761 24.3691C45.641 24.2042 45.7337 23.9805 45.7337 23.7472V19.3496H50.1313C50.6168 19.3496 51.0109 19.7445 51.0109 20.2291ZM42.2155 19.3496H43.9746V22.8677H42.2155V19.3496ZM42.2155 5.27715V7.91573H40.4565V5.27715H42.2155ZM35.1793 6.15668C35.1793 5.67206 35.5733 5.27715 36.0588 5.27715H38.6974V8.79526C38.6974 9.02852 38.7901 9.25223 38.955 9.41718C39.12 9.58212 39.3437 9.67478 39.577 9.67478H43.0951C43.3283 9.67478 43.5521 9.58212 43.717 9.41718C43.8819 9.25223 43.9746 9.02852 43.9746 8.79526V5.27715H46.6132C47.0987 5.27715 47.4927 5.67206 47.4927 6.15668V16.711C47.4927 17.1956 47.0987 17.5905 46.6132 17.5905H36.0588C35.5733 17.5905 35.1793 17.1956 35.1793 16.711V6.15668ZM24.6249 14.0724V18.47H21.1068V14.0724H24.6249ZM1.75711 9.67478C1.75711 5.31058 5.30866 1.75905 9.67289 1.75905C14.0371 1.75905 17.5887 5.31058 17.5887 9.67478C17.5887 14.039 14.0371 17.5905 9.67289 17.5905C5.30866 17.5905 1.75711 14.039 1.75711 9.67478ZM12.3115 34.3015V18.9749C13.5889 18.6097 14.7777 17.9862 15.8044 17.1429C16.831 16.2996 17.6736 15.2545 18.28 14.0724H19.3477V19.3496C19.3477 19.5828 19.4404 19.8065 19.6053 19.9715C19.7703 20.1364 19.994 20.2291 20.2273 20.2291H25.5045C25.7377 20.2291 25.9614 20.1364 26.1264 19.9715C26.2913 19.8065 26.384 19.5828 26.384 19.3496V14.0724H32.5407C33.0262 14.0724 33.4202 14.4673 33.4202 14.9519V34.3015C33.4202 34.7861 33.0262 35.181 32.5407 35.181H13.191C12.7064 35.181 12.3115 34.7861 12.3115 34.3015ZM8.79336 37.8196C8.79336 37.335 9.18827 36.9401 9.67289 36.9401H53.6495C53.8759 36.9502 54.0897 37.0473 54.2464 37.2111C54.4031 37.375 54.4905 37.5929 54.4905 37.8196C54.4905 38.0463 54.4031 38.2642 54.2464 38.4281C54.0897 38.5919 53.8759 38.689 53.6495 38.6991H9.67289C9.18827 38.6991 8.79336 38.3042 8.79336 37.8196ZM12.3115 40.4582H14.0705V43.9763H12.3115V40.4582ZM53.6495 47.4944H9.67289C9.18827 47.4944 8.79336 47.0995 8.79336 46.6149C8.79336 46.1302 9.18827 45.7353 9.67289 45.7353H53.6495C53.8759 45.7455 54.0897 45.8426 54.2464 46.0064C54.4031 46.1702 54.4905 46.3882 54.4905 46.6149C54.4905 46.8415 54.4031 47.0595 54.2464 47.2233C54.0897 47.3872 53.8759 47.4843 53.6495 47.4944Z" fill="#52006A"/>
<path d="M21.1064 27.2653H15.8292C15.596 27.2653 15.3723 27.3579 15.2073 27.5229C15.0424 27.6878 14.9497 27.9115 14.9497 28.1448V31.6629C14.9497 31.8962 15.0424 32.1199 15.2073 32.2848C15.3723 32.4498 15.596 32.5424 15.8292 32.5424H21.1064C21.3397 32.5424 21.5634 32.4498 21.7283 32.2848C21.8933 32.1199 21.986 31.8962 21.986 31.6629V28.1448C21.986 27.9115 21.8933 27.6878 21.7283 27.5229C21.5634 27.3579 21.3397 27.2653 21.1064 27.2653ZM20.2269 30.7834H16.7088V29.0243H20.2269V30.7834ZM39.5766 31.6629H37.8175C37.5843 31.6629 37.3605 31.7556 37.1956 31.9205C37.0307 32.0855 36.938 32.3092 36.938 32.5424C36.938 32.7757 37.0307 32.9994 37.1956 33.1643C37.3605 33.3293 37.5843 33.422 37.8175 33.422H39.5766C39.8098 33.422 40.0336 33.3293 40.1985 33.1643C40.3634 32.9994 40.4561 32.7757 40.4561 32.5424C40.4561 32.3092 40.3634 32.0855 40.1985 31.9205C40.0336 31.7556 39.8098 31.6629 39.5766 31.6629ZM43.0947 15.8314H44.8538C45.087 15.8314 45.3107 15.7388 45.4757 15.5738C45.6406 15.4089 45.7333 15.1852 45.7333 14.9519C45.7333 14.7186 45.6406 14.4949 45.4757 14.33C45.3107 14.1651 45.087 14.0724 44.8538 14.0724H43.0947C42.8614 14.0724 42.6377 14.1651 42.4728 14.33C42.3078 14.4949 42.2152 14.7186 42.2152 14.9519C42.2152 15.1852 42.3078 15.4089 42.4728 15.5738C42.6377 15.7388 42.8614 15.8314 43.0947 15.8314Z" fill="#52006A"/>
<path d="M10.1226 15.0575C10.0041 15.176 9.84332 15.2426 9.67568 15.2426C9.50804 15.2426 9.34726 15.176 9.22872 15.0575C9.11018 14.9389 9.04359 14.7782 9.04359 14.6105V13.7661C8.22669 13.6301 7.51124 13.2323 7.0604 12.6442C6.95966 12.511 6.91569 12.3435 6.93807 12.178C6.96046 12.0126 7.0474 11.8627 7.1799 11.7611C7.3124 11.6596 7.47971 11.6145 7.64529 11.6359C7.81088 11.6572 7.96129 11.7432 8.06369 11.8751C8.38479 12.2939 9.00124 12.5541 9.6726 12.5541C10.656 12.5541 11.4868 11.9847 11.4868 11.3107C11.4868 10.5671 11.0262 10.3548 9.54697 10.0548L9.54676 10.0547C8.30069 9.80197 6.59424 9.45583 6.59424 7.55984C6.59424 6.35279 7.64683 5.34232 9.04359 5.10513V4.26011C9.04359 4.09247 9.11018 3.93169 9.22872 3.81315C9.34726 3.69462 9.50804 3.62802 9.67568 3.62802C9.84332 3.62802 10.0041 3.69462 10.1226 3.81315C10.2412 3.93169 10.3078 4.09247 10.3078 4.26011V5.10568C11.1221 5.24253 11.8351 5.63972 12.2848 6.22637C12.3855 6.35951 12.4295 6.52709 12.4071 6.69254C12.3847 6.85798 12.2978 7.00785 12.1653 7.10942C12.0328 7.211 11.8655 7.25602 11.6999 7.23467C11.5343 7.21332 11.3839 7.12732 11.2815 6.99546C10.9604 6.57663 10.344 6.31644 9.6726 6.31644C8.68922 6.31644 7.85842 6.88587 7.85842 7.55984C7.85842 8.30349 8.31898 8.51579 9.79823 8.81579L9.79844 8.81583C11.0445 9.06859 12.751 9.41472 12.751 11.3107C12.751 12.516 11.7014 13.5252 10.3078 13.7643V14.6105C10.3078 14.7782 10.2412 14.9389 10.1226 15.0575Z" fill="#52006A"/>
<path d="M5.70648 29.9061L4.69881 30.9132V24.4093C4.69881 24.2606 4.63976 24.1181 4.53466 24.013C4.42956 23.9079 4.287 23.8488 4.13837 23.8488C3.98973 23.8488 3.84718 23.9079 3.74207 24.013C3.63697 24.1181 3.57792 24.2606 3.57792 24.4093V30.9132L2.57025 29.9061C2.46455 29.804 2.32298 29.7475 2.17604 29.7488C2.02909 29.75 1.88853 29.809 1.78462 29.9129C1.68071 30.0168 1.62177 30.1574 1.62049 30.3043C1.61921 30.4512 1.6757 30.5928 1.77779 30.6985L3.74157 32.6623C3.82017 32.7404 3.92007 32.7935 4.02874 32.815C4.13741 32.8366 4.25002 32.8255 4.35245 32.7833C4.36927 32.8932 6.45019 30.7209 6.49895 30.6985C6.60103 30.5928 6.65752 30.4512 6.65625 30.3043C6.65497 30.1574 6.59603 30.0168 6.49212 29.9129C6.38821 29.809 6.24764 29.75 6.10069 29.7488C5.95375 29.7475 5.81218 29.804 5.70648 29.9061ZM6.75731 21.2299C6.60867 21.2299 6.46612 21.289 6.36101 21.3941C6.25591 21.4992 6.19687 21.6417 6.19687 21.7904V27.0282C6.19687 27.1768 6.25591 27.3194 6.36101 27.4245C6.46612 27.5296 6.60867 27.5886 6.75731 27.5886C6.90595 27.5886 7.0485 27.5296 7.1536 27.4245C7.2587 27.3194 7.31775 27.1768 7.31775 27.0282V21.7904C7.31775 21.6417 7.2587 21.4992 7.1536 21.3941C7.0485 21.289 6.90595 21.2299 6.75731 21.2299ZM1.51943 27.5886C1.66806 27.5886 1.81061 27.5296 1.91572 27.4245C2.02082 27.3194 2.07987 27.1768 2.07987 27.0282V21.7904C2.07987 21.6417 2.02082 21.4992 1.91572 21.3941C1.81061 21.289 1.66806 21.2299 1.51943 21.2299C1.37079 21.2299 1.22824 21.289 1.12313 21.3941C1.01803 21.4992 0.958984 21.6417 0.958984 21.7904V27.0282C0.958984 27.1768 1.01803 27.3194 1.12313 27.4245C1.22824 27.5296 1.37079 27.5886 1.51943 27.5886Z" fill="#52006A"/>
</svg>
