<svg width="50" height="50" viewBox="0 0 50 50" fill="none" xmlns="http://www.w3.org/2000/svg">
<path d="M32.987 24.8503H15.7934C13.3765 24.8503 11.4102 26.8166 11.4102 29.2335V39.1153C11.4102 41.5321 13.3765 43.4985 15.7934 43.4985H27.6399C27.8342 43.4985 28.0205 43.4213 28.1578 43.2839C28.2952 43.1466 28.3724 42.9603 28.3724 42.766C28.3724 42.5718 28.2952 42.3855 28.1578 42.2481C28.0205 42.1108 27.8342 42.0336 27.6399 42.0336H15.7934C14.1842 42.0336 12.8749 40.7243 12.8749 39.1152V29.2335C12.8749 27.6243 14.1841 26.3151 15.7934 26.3151H32.987C34.5962 26.3151 35.9055 27.6243 35.9055 29.2335V39.1153C35.9055 40.7244 34.5963 42.0337 32.987 42.0337H30.6202C30.2156 42.0337 29.8878 42.3616 29.8878 42.7661C29.8878 43.1706 30.2156 43.4986 30.6202 43.4986H32.987C35.4039 43.4986 37.3702 41.5322 37.3702 39.1153V29.2335C37.3702 26.8166 35.404 24.8503 32.987 24.8503Z" fill="#52006A"/>
<path d="M34.4318 31.4698C34.1382 30.4631 33.3878 29.6658 32.3187 29.2247C31.3061 28.8067 30.1184 28.7605 28.9741 29.0943C27.5988 29.4955 26.4816 30.384 25.9091 31.5316C25.725 31.9006 25.3843 32.1438 24.9978 32.1821C21.6478 32.5148 17.1646 33.4058 16.3634 33.6395C15.6 33.8621 14.9691 34.3688 14.5868 35.0658C14.2045 35.7631 14.1166 36.5674 14.3392 37.3308C14.7181 38.6294 16.0846 39.8819 18.0307 39.3549C18.8369 39.1365 23.0919 37.4615 26.0945 35.9413C26.441 35.7659 26.8592 35.7877 27.2125 35.9999C28.3124 36.6597 29.7318 36.8082 31.1074 36.407C33.5285 35.7008 35.0199 33.4859 34.4318 31.4698ZM30.697 35.0011C29.727 35.284 28.706 35.1879 27.9661 34.7439C27.1782 34.2713 26.2311 34.2304 25.4329 34.6346C22.5568 36.0906 18.3654 37.7314 17.6205 37.9488C16.821 38.1822 15.979 37.7212 15.7456 36.9207C15.6325 36.5329 15.5727 35.3669 16.7737 35.0457C17.523 34.8453 21.9341 33.9585 25.1427 33.6398C26.0333 33.5515 26.8096 33.0078 27.2198 32.1856C27.605 31.4135 28.4141 30.7837 29.3844 30.5007C29.7562 30.3922 32.3774 29.9054 33.0256 31.8803C33.4285 33.1081 32.3429 34.5209 30.697 35.0011Z" fill="#52006A"/>
<path d="M49.3071 16.348L47.487 15.0751C47.4115 15.023 47.3498 14.9532 47.3074 14.8719C47.2651 14.7905 47.2432 14.7 47.2438 14.6082C47.2438 14.4196 47.3324 14.2495 47.4869 14.1414L49.3071 12.8684C49.8967 12.4561 50.1381 11.7463 49.9219 11.0602C49.7058 10.374 49.1013 9.93057 48.3818 9.93057H41.1071C40.94 7.08946 38.5766 4.82911 35.6943 4.82911H10.2433C10.2283 4.82911 10.2136 4.83008 10.1985 4.83028C10.9099 3.70206 12.155 2.99346 13.5437 2.99346H38.9948C41.1775 2.99346 42.9532 4.76915 42.9532 6.95186V7.73917C42.9532 7.93342 43.0304 8.11971 43.1677 8.25707C43.3051 8.39442 43.4914 8.47159 43.6856 8.47159C43.8799 8.47159 44.0662 8.39442 44.2035 8.25707C44.3409 8.11971 44.4181 7.93342 44.4181 7.73917V6.95186C44.4181 3.96153 41.9853 1.52872 38.9949 1.52872H13.5438C11.2238 1.52872 9.19531 2.97188 8.43018 5.1421C6.329 5.88985 4.82012 7.89786 4.82012 10.2524V11.2042H3.13652C2.94227 11.2042 2.75598 11.2814 2.61862 11.4187C2.48127 11.5561 2.4041 11.7424 2.4041 11.9366C2.4041 12.1309 2.48127 12.3172 2.61862 12.4545C2.75598 12.5919 2.94227 12.669 3.13652 12.669H6.74551C7.50381 12.669 8.12061 13.2859 8.12061 14.0441C8.12061 14.8023 7.50381 15.4191 6.74551 15.4191H2.83984C2.08154 15.4191 1.46484 14.8023 1.46484 14.0441C1.46484 13.9594 1.70811 13.0899 0.903418 12.9374C0.0987305 12.7848 0 13.8688 0 14.0439C0 15.6098 1.27402 16.8837 2.83984 16.8837H4.82002V19.6082H2.83984C1.27402 19.6082 0 20.8821 0 22.4481C0 24.014 1.27402 25.288 2.83984 25.288H4.82002V28.0125H2.83984C1.27402 28.0124 0 29.2864 0 30.8524C0 32.4183 1.27402 33.6922 2.83984 33.6922H4.82002V36.4167H2.83984C1.27402 36.4167 0 37.6907 0 39.2566C0 40.8226 1.27402 42.0965 2.83984 42.0965H4.82002V43.0482C4.82002 46.0386 7.25283 48.4714 10.2432 48.4714H35.6942C38.0491 48.4714 40.0573 46.9622 40.8049 44.8606C42.9513 44.1014 44.418 42.0551 44.418 39.7478V38.6768C45.4921 38.4795 46.4192 37.7971 46.923 36.7955L47.9093 34.8347C48.2771 34.1035 48.2402 33.2511 47.8107 32.5543C47.3812 31.8575 46.6362 31.4415 45.8178 31.4415H44.418V28.9511C45.4921 28.7538 46.4192 28.0714 46.923 27.0698L47.9093 25.109C48.2771 24.3778 48.2402 23.5254 47.8107 22.8286C47.3812 22.1318 46.6362 21.7158 45.8178 21.7158H44.418V19.2858H48.3817C49.1012 19.2858 49.7057 18.8425 49.9218 18.1563C50.1381 17.4699 49.8967 16.7603 49.3071 16.348ZM2.83984 23.8232C2.08154 23.8232 1.46484 23.2064 1.46484 22.4482C1.46484 21.6899 2.08164 21.0731 2.83984 21.0731H6.74551C7.50381 21.0731 8.12061 21.6899 8.12061 22.4482C8.12061 23.2064 7.50381 23.8232 6.74551 23.8232H2.83984ZM2.83984 32.2275C2.08154 32.2275 1.46484 31.6107 1.46484 30.8525C1.46484 30.0942 2.08164 29.4774 2.83984 29.4774H6.74551C7.50381 29.4774 8.12061 30.0943 8.12061 30.8525C8.12061 31.6108 7.50381 32.2275 6.74551 32.2275H2.83984ZM2.83984 40.6318C2.08154 40.6318 1.46484 40.0149 1.46484 39.2567C1.46484 38.4984 2.08164 37.8816 2.83984 37.8816H6.74551C7.50381 37.8816 8.12061 38.4985 8.12061 39.2567C8.12061 40.015 7.50381 40.6318 6.74551 40.6318H2.83984ZM39.6527 43.0482C39.6527 45.2309 37.8771 47.0066 35.6943 47.0066H10.2433C8.06055 47.0066 6.28486 45.231 6.28486 43.0482V42.0965C6.28486 42.0965 9.58535 42.357 9.58535 39.2566C9.58535 36.1563 6.28486 36.4167 6.28486 36.4167V33.6922C6.28486 33.6922 9.58535 33.9267 9.58535 30.8524C9.58535 27.7779 6.28486 28.0124 6.28486 28.0124V25.2879C6.28486 25.2879 9.58535 25.4454 9.58535 22.448C9.58535 19.4506 6.28486 19.608 6.28486 19.608V16.8835C6.28486 16.8835 9.58535 17.1464 9.58535 14.0437C9.58535 10.9409 6.28486 11.2037 6.28486 11.2037V10.252C6.28486 8.06934 8.06055 6.29356 10.2433 6.29356H35.6943C37.8771 6.29356 39.6527 8.06924 39.6527 10.252V43.0482ZM42.9532 39.7478C42.9532 41.1267 42.2357 42.3774 41.1164 43.0899C41.1165 43.076 41.1175 43.0622 41.1175 43.0482V38.7373H42.9532V39.7478ZM45.8178 32.9065C46.5037 32.8573 46.9447 33.4747 46.6008 34.1765L45.6145 36.1374C45.2624 36.8376 44.5566 37.2727 43.7729 37.2727H41.1176V32.9065H45.8178ZM41.1175 31.4415V29.0115H42.9532V31.4415H41.1175ZM45.8178 23.1806C46.3998 23.1208 46.9449 23.666 46.6008 24.4506L45.6145 26.4115C45.2624 27.1117 44.5566 27.5468 43.7729 27.5468H41.1176V23.1806H45.8178ZM41.1175 21.7157V19.2857H42.9532V21.7157H41.1175ZM48.3818 17.8209H41.1175V11.3953H48.3818C48.5277 11.4039 48.6582 11.5431 48.4678 11.668L46.6475 12.941C46.3794 13.1287 46.1605 13.3782 46.0093 13.6684C45.8582 13.9585 45.7792 14.2809 45.779 14.6081C45.7791 14.9354 45.8581 15.2577 46.0093 15.548C46.1605 15.8382 46.3794 16.0877 46.6476 16.2753L48.4678 17.5481C48.5625 17.5967 48.6234 17.8055 48.3818 17.8209Z" fill="#52006A"/>
<path d="M26.385 15.1355H22.395C21.5781 15.1355 20.9136 15.8001 20.9136 16.6169V18.6119C20.9136 20.5288 22.473 22.0884 24.39 22.0884C26.3068 22.0884 27.8664 20.529 27.8665 18.6119V16.6169C27.8664 15.8001 27.2019 15.1355 26.385 15.1355ZM24.39 20.6236C23.2808 20.6236 22.3784 19.7212 22.3784 18.612V16.617C22.3784 16.6078 26.385 16.6003 26.3852 16.6002C26.3944 16.6002 26.4019 18.6119 26.4019 18.6119C26.4017 19.7213 25.4991 20.6236 24.39 20.6236ZM32.2664 14.6518C32.0722 14.6518 31.8859 14.7289 31.7485 14.8663C31.6111 15.0036 31.534 15.1899 31.534 15.3842V16.6001C31.534 16.7944 31.6111 16.9806 31.7485 17.118C31.8859 17.2554 32.0722 17.3325 32.2664 17.3325C32.4607 17.3325 32.6469 17.2554 32.7843 17.118C32.9217 16.9806 32.9988 16.7944 32.9988 16.6001V15.3842C32.9988 15.1899 32.9217 15.0036 32.7843 14.8663C32.6469 14.7289 32.4607 14.6518 32.2664 14.6518ZM16.5137 14.6518C16.3194 14.6518 16.1331 14.7289 15.9958 14.8663C15.8584 15.0036 15.7812 15.1899 15.7812 15.3842V16.6001C15.7812 16.7944 15.8584 16.9806 15.9958 17.118C16.1331 17.2554 16.3194 17.3325 16.5137 17.3325C16.7079 17.3325 16.8942 17.2554 17.0316 17.118C17.1689 16.9806 17.2461 16.7944 17.2461 16.6001V15.3842C17.2461 15.1899 17.1689 15.0036 17.0316 14.8663C16.8942 14.7289 16.7079 14.6518 16.5137 14.6518Z" fill="#52006A"/>
</svg>
