<svg width="71" height="55" viewBox="0 0 71 55" fill="none" xmlns="http://www.w3.org/2000/svg">
<path d="M40.4248 45.4059H3.79656C2.04943 45.4059 0.621074 43.9425 0.621074 42.136V21.556C0.621074 19.7498 2.04969 18.2861 3.79656 18.2861H40.4248C42.1719 18.2861 43.6002 19.7495 43.6002 21.556V42.136C43.6002 43.9425 42.1719 45.4059 40.4248 45.4059ZM3.79656 20.2041C3.03455 20.2041 2.40829 20.8066 2.40829 21.5563V42.1363C2.40829 42.8857 3.0348 43.4885 3.79656 43.4885H40.4248C41.1868 43.4885 41.813 42.886 41.813 42.1363V21.5563C41.813 20.8068 41.1865 20.2041 40.4248 20.2041H3.79656Z" fill="#52006A" stroke="#52006A" stroke-width="0.273399"/>
<path d="M17.0134 39.0057H17.0093H17.0134ZM17.0134 39.0057C17.2865 39.0051 17.5486 39.1189 17.7421 39.3219M17.0134 39.0057L17.7421 39.3219M17.7421 39.3219C17.9356 39.525 18.0446 39.8007 18.0451 40.0885M17.7421 39.3219L18.0451 40.0885M18.0451 40.0885C18.0457 40.3762 17.9377 40.6524 17.745 40.8563M18.0451 40.0885L17.745 40.8563M17.745 40.8563C17.5523 41.0602 17.2906 41.1751 17.0176 41.1756L17.745 40.8563ZM0.643217 30.4193L0.643217 30.4193L0.62108 23.8772C0.62108 23.8772 0.62108 23.8772 0.62108 23.8772C0.620237 23.6235 0.715093 23.3813 0.882724 23.2033C1.05011 23.0256 1.27604 22.9266 1.51038 22.9256C1.5104 22.9256 1.51042 22.9256 1.51045 22.9256L42.6811 22.7715H42.6813H42.6852C42.9191 22.7715 43.145 22.8691 43.313 23.0455C43.4812 23.2222 43.5772 23.4633 43.5781 23.7165L43.6002 30.2591C43.6011 30.5128 43.5062 30.7551 43.3386 30.933C43.1712 31.1108 42.9453 31.2097 42.7109 31.2107C42.7109 31.2107 42.7109 31.2107 42.7109 31.2107L1.54024 31.3642L1.53973 31.3642L1.53613 31.3642C1.30222 31.3642 1.07632 31.2666 0.908347 31.0902C0.740143 30.9136 0.644058 30.6725 0.643217 30.4193ZM2.5472 24.8183L2.41057 24.8189L2.41102 24.9555L2.42517 29.3276L2.42562 29.4644L2.56238 29.4639L41.6744 29.3177L41.811 29.3172L41.8105 29.1806L41.7964 24.8079L41.7959 24.6711L41.6592 24.6716L2.5472 24.8183ZM5.67669 37.8258L5.67641 37.8258C5.44197 37.8263 5.21542 37.7287 5.04702 37.552C4.87839 37.375 4.78221 37.1332 4.78173 36.8794C4.78124 36.6257 4.87651 36.3835 5.04448 36.2058C5.21223 36.0283 5.43843 35.9297 5.67286 35.9292L5.67308 35.9292L12.8798 35.9027L12.8803 35.9027L12.8839 35.9027L12.8842 35.9027C13.1187 35.9022 13.3452 35.9998 13.5136 36.1765C13.6823 36.3535 13.7784 36.5953 13.7789 36.849C13.7794 37.1028 13.6841 37.345 13.5162 37.5227C13.3484 37.7002 13.1222 37.7987 12.8878 37.7992L12.8876 37.7992L5.68081 37.8258L5.68031 37.8258L5.67669 37.8258ZM5.68776 41.0807H5.68747C5.45304 41.0812 5.22648 40.9836 5.05809 40.8069C4.88946 40.6299 4.79328 40.3881 4.79279 40.1343C4.79231 39.8806 4.88758 39.6384 5.05555 39.4607C5.22329 39.2832 5.4495 39.1847 5.68393 39.1842L5.68415 39.1842L17.0093 39.1424L17.0098 39.1424L17.0134 39.1424H17.0137C17.2482 39.1419 17.4747 39.2395 17.6431 39.4162C17.8118 39.5932 17.9079 39.835 17.9084 40.0888C17.9089 40.3425 17.8136 40.5847 17.6457 40.7624C17.4779 40.9399 17.2517 41.0384 17.0173 41.0389L17.0171 41.0389L5.69188 41.0807L5.69138 41.0807L5.68776 41.0807Z" fill="#52006A" stroke="#52006A" stroke-width="0.273399"/>
<mask id="path-3-inside-1_2559_15911" fill="white">
<path d="M54.4061 51.1893L42.7707 47.8587L26.9042 51.1893L8.25078 48.098C7.82533 48.0275 7.44082 47.7913 7.17401 47.4364C6.9072 47.0815 6.77771 46.6341 6.8114 46.1834C6.84508 45.7327 7.03945 45.312 7.35572 45.0051C7.67199 44.6982 8.08689 44.5278 8.51761 44.5279H19.4996V43.2472C19.4996 40.8889 21.3213 38.9769 23.5683 38.9769H30.0773C30.0773 38.9769 32.1928 33.4259 39.5972 34.5361C47.0015 35.6463 45.9438 37.8667 54.4059 37.8667"/>
</mask>
<path d="M42.7707 47.8587L42.846 47.5959L42.7808 47.5772L42.7146 47.5911L42.7707 47.8587ZM26.9042 51.1893L26.8595 51.459L26.9102 51.4674L26.9604 51.4569L26.9042 51.1893ZM8.25078 48.098L8.29548 47.8282L8.29543 47.8282L8.25078 48.098ZM8.51761 44.5279L8.51756 44.8012H8.51761V44.5279ZM19.4996 44.5279V44.8012H19.773V44.5279H19.4996ZM30.0773 38.9769V39.2503H30.2656L30.3327 39.0742L30.0773 38.9769ZM54.4814 50.9265L42.846 47.5959L42.6955 48.1216L54.3309 51.4521L54.4814 50.9265ZM42.7146 47.5911L26.8481 50.9217L26.9604 51.4569L42.8269 48.1263L42.7146 47.5911ZM26.9489 50.9196L8.29548 47.8282L8.20609 48.3677L26.8595 51.459L26.9489 50.9196ZM8.29543 47.8282C7.94158 47.7697 7.61849 47.5727 7.39254 47.2721L6.95548 47.6007C7.26315 48.0099 7.70907 48.2854 8.20614 48.3677L8.29543 47.8282ZM7.39254 47.2721C7.16632 46.9712 7.05519 46.5897 7.08403 46.2038L6.53876 46.163C6.50023 46.6785 6.64807 47.1918 6.95548 47.6007L7.39254 47.2721ZM7.08403 46.2038C7.11287 45.8179 7.27917 45.4603 7.54611 45.2013L7.16533 44.8089C6.79973 45.1636 6.57729 45.6475 6.53876 46.163L7.08403 46.2038ZM7.54611 45.2013C7.81267 44.9426 8.15976 44.8012 8.51756 44.8012L8.51765 44.2545C8.01402 44.2544 7.53131 44.4538 7.16533 44.8089L7.54611 45.2013ZM8.51761 44.8012H19.4996V44.2545H8.51761V44.8012ZM19.773 44.5279V43.2472H19.2262V44.5279H19.773ZM19.773 43.2472C19.773 41.0273 21.4846 39.2503 23.5683 39.2503V38.7035C21.158 38.7035 19.2262 40.7505 19.2262 43.2472H19.773ZM23.5683 39.2503H30.0773V38.7035H23.5683V39.2503ZM30.0773 38.9769C30.3327 39.0742 30.3327 39.0744 30.3326 39.0745C30.3326 39.0745 30.3326 39.0746 30.3326 39.0746C30.3326 39.0746 30.3326 39.0746 30.3326 39.0745C30.3327 39.0742 30.333 39.0736 30.3333 39.0727C30.334 39.0709 30.3353 39.0678 30.3371 39.0634C30.3406 39.0546 30.3462 39.0409 30.3541 39.0225C30.3699 38.9857 30.3945 38.9304 30.4288 38.8595C30.4973 38.7177 30.6042 38.5139 30.7554 38.2717C31.0581 37.7867 31.5368 37.1503 32.2387 36.5476C33.6345 35.3489 35.9352 34.2635 39.5566 34.8065L39.6377 34.2657C35.8548 33.6985 33.3955 34.8335 31.8825 36.1327C31.1299 36.779 30.6169 37.4609 30.2916 37.9821C30.1288 38.2429 30.0125 38.4641 29.9365 38.6216C29.8984 38.7003 29.8704 38.7632 29.8515 38.8071C29.8421 38.8291 29.835 38.8464 29.8301 38.8586C29.8276 38.8647 29.8257 38.8695 29.8243 38.873C29.8236 38.8748 29.8231 38.8762 29.8226 38.8773C29.8224 38.8778 29.8223 38.8783 29.8221 38.8786C29.822 38.8788 29.822 38.879 29.8219 38.8791C29.8218 38.8793 29.8218 38.8795 30.0773 38.9769ZM39.5566 34.8065C43.2213 35.3559 44.7776 36.1749 46.5025 36.8712C48.2563 37.5792 50.1424 38.1401 54.4059 38.1401V37.5933C50.2072 37.5933 48.3912 37.044 46.7072 36.3642C44.9944 35.6728 43.3774 34.8264 39.6377 34.2657L39.5566 34.8065Z" fill="#52006A" mask="url(#path-3-inside-1_2559_15911)"/>
<path d="M53.8268 51.9401L53.8271 51.9402C53.9049 51.9625 53.985 51.9739 54.0655 51.9739L54.0653 52.1106M53.8268 51.9401L39.5433 33.6573C42.7867 34.1415 44.4661 34.8432 45.9518 35.464L45.9565 35.466L45.9566 35.466L45.9571 35.4662C46.8891 35.8562 47.7673 36.2238 48.9882 36.4923C50.2088 36.7608 51.767 36.9294 54.0645 36.9294C54.5617 36.9294 54.9742 37.3522 54.9742 37.8868C54.9742 38.4213 54.5617 38.8441 54.0645 38.8441C51.5793 38.8441 49.8763 38.6493 48.5509 38.3532C47.2261 38.0573 46.2737 37.6593 45.2844 37.2457C43.8292 36.6366 42.3186 36.0048 39.2872 35.5523C36.0628 35.0692 33.968 35.9582 32.6691 37.0046C31.3753 38.0469 30.8824 39.2357 30.8397 39.3433C30.6964 39.7032 30.361 39.9381 29.998 39.9381H23.5594C21.8362 39.9381 20.4439 41.4019 20.4439 43.1893V44.451C20.4439 44.9855 20.0314 45.4083 19.5343 45.4083H8.67084H8.67078C8.46109 45.4084 8.2613 45.4956 8.11491 45.6485C7.96871 45.8012 7.88747 46.0071 7.88722 46.2207V46.2209C7.88722 46.6179 8.16137 46.9595 8.54729 47.0234L8.54734 47.0234L26.8149 50.0388L26.8401 50.043L26.8651 50.0378L42.3768 46.7942L42.3774 46.7941C42.5145 46.7648 42.6563 46.7698 42.7913 46.8087L42.7916 46.8088L54.3017 50.0909L54.3018 50.091C54.4165 50.1236 54.5242 50.1796 54.6188 50.2561C54.7135 50.3327 54.7931 50.4283 54.8529 50.5376C54.9128 50.647 54.9515 50.768 54.9668 50.8935C54.9821 51.019 54.9736 51.1465 54.9418 51.2685L54.9417 51.2686C54.8888 51.4725 54.7735 51.6515 54.6149 51.7785C54.4564 51.9054 54.2632 51.9737 54.0652 51.9739L54.0653 52.1106M53.8268 51.9401L42.5548 48.7258L42.5224 48.7165L42.4893 48.7234L27.036 51.9547L27.0359 51.9547C26.9309 51.9767 26.8231 51.979 26.7174 51.9615L26.6951 52.0964M53.8268 51.9401L55.074 51.303C55.0139 51.5347 54.8826 51.7392 54.7003 51.8852C54.5181 52.0311 54.2949 52.1104 54.0653 52.1106M54.0653 52.1106C53.9721 52.1106 53.8793 52.0974 53.7894 52.0715L42.5173 48.8572L27.064 52.0885C26.9424 52.1139 26.8175 52.1166 26.6951 52.0964M26.6951 52.0964L26.7174 51.9615L8.26487 48.9155L8.26437 48.9154C7.65286 48.8168 7.09416 48.4918 6.69055 47.9978C6.28683 47.5036 6.06543 46.8734 6.06787 46.2217V46.2212C6.06787 44.7119 7.24155 43.4939 8.67084 43.4939H18.4876H18.6243V43.3572V43.1896C18.6243 40.3357 20.8434 38.0237 23.5591 38.0237H29.3725H29.4516L29.491 37.9552C29.9417 37.1719 30.8725 35.8619 32.4792 34.8659C34.083 33.8716 36.369 33.1844 39.5432 33.6573L26.6951 52.0964Z" fill="#52006A" stroke="#52006A" stroke-width="0.273399"/>
<mask id="path-6-inside-2_2559_15911" fill="white">
<path d="M19.0669 44.4213H32.184L37.6495 43.1397"/>
</mask>
<path d="M32.184 44.4213V44.6947H32.2156L32.2464 44.6875L32.184 44.4213ZM19.0669 44.6947H32.184V44.1479H19.0669V44.6947ZM32.2464 44.6875L37.7119 43.4059L37.5871 42.8736L32.1216 44.1551L32.2464 44.6875Z" fill="#52006A" mask="url(#path-6-inside-2_2559_15911)"/>
<path d="M30.6244 43.5098H30.598H17.6854C17.1564 43.5098 16.7285 43.9382 16.7285 44.4667C16.7285 44.9952 17.1564 45.4236 17.6854 45.4236L30.8083 45.4236L30.8085 45.4236M30.6244 43.5098L30.8085 45.5603V45.4236M30.6244 43.5098L30.6488 43.5M30.6244 43.5098L30.6488 43.5M30.8085 45.4236C30.9302 45.4234 31.0507 45.4002 31.1637 45.3553C31.1638 45.3553 31.1638 45.3553 31.1638 45.3553L36.6314 43.1683L30.8085 45.4236ZM30.6488 43.5L35.9212 41.3908M30.6488 43.5L35.9212 41.3908M35.9212 41.3908C36.407 41.1968 36.969 41.4334 37.165 41.9239C37.3611 42.415 37.122 42.9715 36.6315 43.1682L35.9212 41.3908Z" fill="#52006A" stroke="#52006A" stroke-width="0.273399"/>
<path d="M62.6921 53.0788H54.2168V35.8546H62.6921V53.0788Z" stroke="#52006A" stroke-width="0.273399"/>
<path d="M55.0373 52.1219V52.2586H55.174H61.7356H61.8723V52.1219V36.8115V36.6748H61.7356H55.174H55.0373V36.8115V52.1219ZM62.8292 54.1724H54.0804C53.5515 54.1724 53.1235 53.744 53.1235 53.2155V35.7179C53.1235 35.1895 53.5515 34.761 54.0804 34.761H62.8292C63.3581 34.761 63.7861 35.1895 63.7861 35.7179V53.2155C63.7861 53.744 63.3581 54.1724 62.8292 54.1724Z" fill="#52006A" stroke="#52006A" stroke-width="0.273399"/>
<path d="M59.4118 40.0923C59.4118 40.6208 58.9834 41.0492 58.4549 41.0492C57.9264 41.0492 57.498 40.6208 57.498 40.0923C57.498 39.5639 57.9264 39.1354 58.4549 39.1354C58.9834 39.1354 59.4118 39.5639 59.4118 40.0923Z" fill="#52006A" stroke="#52006A" stroke-width="0.273399"/>
<mask id="path-12-inside-3_2559_15911" fill="white">
<path d="M69.3907 51.0283H62.8291V35.7179H69.3907"/>
</mask>
<path d="M62.8291 51.0283H62.5557V51.3017H62.8291V51.0283ZM62.8291 35.7179V35.4445H62.5557V35.7179H62.8291ZM69.3907 50.7549H62.8291V51.3017H69.3907V50.7549ZM63.1025 51.0283V35.7179H62.5557V51.0283H63.1025ZM62.8291 35.9913H69.3907V35.4445H62.8291V35.9913Z" fill="#52006A" mask="url(#path-12-inside-3_2559_15911)"/>
<path d="M63.923 36.6748H63.7863V36.8115V49.9347V50.0714H63.923H69.391C69.92 50.0714 70.3479 50.4998 70.3479 51.0283C70.3479 51.5568 69.92 51.9852 69.391 51.9852H62.8294C62.3005 51.9852 61.8725 51.5568 61.8725 51.0283V35.7179C61.8725 35.1895 62.3005 34.761 62.8294 34.761H69.391C69.92 34.761 70.3479 35.1895 70.3479 35.7179C70.3479 36.2464 69.92 36.6748 69.391 36.6748H63.923Z" fill="#52006A" stroke="#52006A" stroke-width="0.273399"/>
<path d="M58.695 11.4709C58.695 17.1125 54.1215 21.686 48.4799 21.686C42.8383 21.686 38.2648 17.1125 38.2648 11.4709C38.2648 5.82924 42.8383 1.25579 48.4799 1.25579C54.1215 1.25579 58.695 5.82924 58.695 11.4709Z" stroke="#52006A" stroke-width="1.44175"/>
<path d="M45.7993 15.8464L45.7993 15.8463L51.8793 8.24634C51.8793 8.24632 51.8793 8.24631 51.8793 8.2463C51.9894 8.10856 52.0402 7.93278 52.0208 7.75756C52.0013 7.58239 51.9131 7.42211 51.7755 7.31192C51.6376 7.20191 51.4617 7.15108 51.2863 7.17057C51.111 7.19004 50.9506 7.27822 50.8402 7.41576C50.8402 7.41579 50.8401 7.41582 50.8401 7.41585L44.7602 15.0157L45.7993 15.8464ZM45.7993 15.8464C45.7369 15.9244 45.6578 15.9874 45.5677 16.0306C45.4777 16.0738 45.379 16.0962 45.2791 16.0961C45.1539 16.0959 45.0314 16.0604 44.9254 15.9937M45.7993 15.8464L44.9254 15.9937M44.9254 15.9937C44.8195 15.927 44.7346 15.8317 44.6804 15.7189M44.9254 15.9937L44.6804 15.7189M44.6804 15.7189C44.6262 15.606 44.6049 15.4802 44.619 15.3558M44.6804 15.7189L44.619 15.3558M44.619 15.3558C44.6332 15.2314 44.6821 15.1136 44.7602 15.0158L44.619 15.3558ZM45.6598 10.776C44.6642 10.776 43.8548 9.96624 43.8548 8.97103C43.8548 7.97581 44.6642 7.16601 45.6598 7.16601C46.6553 7.16601 47.4648 7.97581 47.4648 8.97103C47.4648 9.96623 46.6551 10.776 45.6598 10.776ZM45.6598 8.49602C45.398 8.49602 45.1848 8.70874 45.1848 8.97103C45.1848 9.23332 45.398 9.44603 45.6598 9.44603C45.9216 9.44603 46.1348 9.23332 46.1348 8.97103C46.1348 8.70871 45.9213 8.49602 45.6598 8.49602ZM50.9798 16.0961C49.9842 16.0961 49.1748 15.2863 49.1748 14.2911C49.1748 13.2959 49.9842 12.4861 50.9798 12.4861C51.9753 12.4861 52.7848 13.2959 52.7848 14.2911C52.7848 15.2863 51.9751 16.0961 50.9798 16.0961ZM50.9798 13.8161C50.718 13.8161 50.5048 14.0288 50.5048 14.2911C50.5048 14.5534 50.718 14.7661 50.9798 14.7661C51.2416 14.7661 51.4548 14.5534 51.4548 14.2911C51.4548 14.0287 51.2413 13.8161 50.9798 13.8161Z" fill="#52006A" stroke="#52006A" stroke-width="0.190001"/>
</svg>
