<svg xmlns="http://www.w3.org/2000/svg" width="50" height="44" viewBox="0 0 50 44" fill="none">
  <path d="M46.6146 21.6667V21.7188H46.6667H47.5C48.852 21.7188 49.9479 22.8147 49.9479 24.1667V40.8333C49.9479 42.1853 48.852 43.2813 47.5 43.2813H40.8333C39.4814 43.2813 38.3854 42.1853 38.3854 40.8333V33.3333V33.2813H38.3333H28.3333H28.2812V33.3333V38.3333V38.3854H28.3333H30.8333C33.1046 38.3881 34.9452 40.2288 34.9479 42.5001C34.9479 42.7072 34.8656 42.9059 34.7191 43.0524C34.5726 43.1989 34.3739 43.2813 34.1667 43.2813H2.5C1.14804 43.2813 0.0520833 42.1853 0.0520833 40.8333V19.1667C0.0520833 17.8147 1.14804 16.7188 2.5 16.7188H3.33333H3.38542V16.6667V4.16673C3.38809 1.89545 5.22878 0.0547578 7.50006 0.0520833L42.5 0.0520833C44.7712 0.0547749 46.6119 1.89546 46.6146 4.16673V21.6667ZM1.66667 39.9479H1.61458V40V40.8333C1.61458 41.0682 1.70787 41.2934 1.87392 41.4594C2.03996 41.6255 2.26517 41.7188 2.5 41.7188H17.5C17.7348 41.7188 17.96 41.6255 18.1261 41.4594C18.2921 41.2934 18.3854 41.0682 18.3854 40.8333V40V39.9479H18.3333H1.66667ZM18.3333 38.3854H18.3854V38.3333V19.1667C18.3854 18.9318 18.2921 18.7066 18.1261 18.5406C17.96 18.3745 17.7348 18.2813 17.5 18.2813H2.5C2.26517 18.2813 2.03996 18.3745 1.87392 18.5406C1.70787 18.7066 1.61458 18.9318 1.61458 19.1667V38.3333V38.3854H1.66667H18.3333ZM30.8334 39.9479H30.8333H20H19.9479V40V40.8332C19.9452 41.1116 19.8944 41.3875 19.7978 41.6486L19.7719 41.7188H19.8467H33.1908H33.2646L33.2399 41.6492C33.0633 41.152 32.7373 40.7216 32.3064 40.417C31.8756 40.1124 31.361 39.9486 30.8334 39.9479ZM19.9479 38.3333V38.3854H20H21.6667H21.7188V38.3333V33.3333V33.2813H21.6667H20H19.9479V33.3333V38.3333ZM23.2812 38.3333V38.3854H23.3333H26.6667H26.7188V38.3333V33.3333V33.2813H26.6667H23.3333H23.2812V33.3333V38.3333ZM38.3333 31.7188H38.3854V31.6667V26.6667V26.6146H38.3333H20H19.9479V26.6667V31.6667V31.7188H20H38.3333ZM38.3333 25.0521H38.3854V25V24.1667C38.3854 22.8147 39.4814 21.7188 40.8333 21.7188H45H45.0521V21.6667V4.16667C45.0521 2.75717 43.9095 1.61458 42.5 1.61458H7.5C6.09051 1.61458 4.94792 2.75717 4.94792 4.16667V16.6667V16.7188H5H17.4999C17.8487 16.7198 18.1933 16.7963 18.5098 16.9431L18.5466 16.9602L18.5722 16.9286C18.5829 16.9152 18.5911 16.9006 18.5969 16.8903C18.5976 16.889 18.5983 16.8877 18.599 16.8866C18.6056 16.8748 18.61 16.868 18.6151 16.8627L18.6154 16.863L18.6193 16.8578L18.6833 16.7719C18.8303 16.6314 19.0263 16.5537 19.2298 16.5555C19.4346 16.5573 19.6306 16.6394 19.7754 16.7843C19.9203 16.9291 20.0024 17.1251 20.0042 17.3299C20.006 17.5347 19.9272 17.7321 19.7849 17.8794L19.7846 17.8791L19.7806 17.8845L19.7171 17.9698C19.7162 17.9703 19.7144 17.9714 19.7111 17.9732C19.7107 17.9734 19.7101 17.9737 19.7096 17.974C19.7033 17.9773 19.6906 17.984 19.6795 17.9944L19.6504 18.0216L19.6689 18.0568C19.8494 18.3991 19.9451 18.7798 19.9479 19.1668C19.9479 19.1669 19.9479 19.167 19.9479 19.167L19.9479 25V25.0521H20H38.3333ZM40 39.9479H39.9479V40V40.8333C39.9479 41.0682 40.0412 41.2934 40.2072 41.4594C40.3733 41.6255 40.5985 41.7188 40.8333 41.7188H47.5C47.7348 41.7188 47.96 41.6255 48.1261 41.4594C48.2921 41.2934 48.3854 41.0682 48.3854 40.8333V40V39.9479H48.3333H40ZM48.3333 38.3854H48.3854V38.3333V24.1667C48.3854 23.9318 48.2921 23.7066 48.1261 23.5406C47.96 23.3745 47.7348 23.2813 47.5 23.2813H40.8333C40.5985 23.2813 40.3733 23.3745 40.2072 23.5406C40.0412 23.7066 39.9479 23.9318 39.9479 24.1667V38.3333V38.3854H40H48.3333Z" fill="#52006A" stroke="#52006A" stroke-width="0.104167"/>
  <path d="M25.0083 28.3333C24.7873 28.3344 24.5758 28.4233 24.4203 28.5804C24.2648 28.7374 24.1781 28.9498 24.1792 29.1708C24.1803 29.3918 24.2691 29.6034 24.4262 29.7589C24.5833 29.9144 24.7957 30.0011 25.0167 30C25.2377 30 25.4496 29.9122 25.6059 29.7559C25.7622 29.5996 25.85 29.3877 25.85 29.1667C25.85 28.9456 25.7622 28.7337 25.6059 28.5774C25.4496 28.4211 25.2377 28.3333 25.0167 28.3333H25.0083ZM25.0083 28.3333V28.3854M25.0083 28.3333L25.0086 28.3854M25.0083 28.3854C24.8012 28.3865 24.603 28.4698 24.4573 28.617C24.3115 28.7642 24.2302 28.9634 24.2312 29.1706C24.2323 29.3778 24.3156 29.5761 24.4628 29.7219C24.6101 29.8676 24.8092 29.9489 25.0164 29.9479L25.0167 29.9479C25.2239 29.9479 25.4226 29.8656 25.5691 29.7191C25.7156 29.5726 25.7979 29.3739 25.7979 29.1667C25.7979 28.9595 25.7156 28.7607 25.5691 28.6142C25.4226 28.4677 25.2239 28.3854 25.0167 28.3854L25.0086 28.3854M25.0083 28.3854C25.0084 28.3854 25.0085 28.3854 25.0086 28.3854M25.0083 28.3854L25.0086 28.3854M23.3333 3.38541H26.6667C26.8739 3.38541 27.0726 3.46772 27.2191 3.61423C27.3656 3.76075 27.4479 3.95946 27.4479 4.16666C27.4479 4.37386 27.3656 4.57258 27.2191 4.71909C27.0726 4.8656 26.8739 4.94791 26.6667 4.94791H23.3333C23.1261 4.94791 22.9274 4.8656 22.7809 4.71909C22.6344 4.57258 22.5521 4.37386 22.5521 4.16666C22.5521 3.95946 22.6344 3.76075 22.7809 3.61423C22.9274 3.46772 23.1261 3.38541 23.3333 3.38541Z" fill="#52006A" stroke="#52006A" stroke-width="0.104167"/>
  <ellipse cx="19.902" cy="16.4694" rx="1.60578" ry="1.51285" transform="rotate(25.9233 19.902 16.4694)" fill="#FFF8F2"/>
  <path d="M20.6833 18.756V21.6602C20.6833 22.1277 21.0658 22.5102 21.5333 22.5102H29.4667C29.9342 22.5102 30.3167 22.1277 30.3167 21.6602V18.756C31.1383 18.4925 34 17.3365 34 14.0102C34 11.9787 32.3482 10.3268 30.3167 10.3268C30.2402 10.3268 30.1608 10.3268 30.0815 10.3353C29.104 8.75432 27.3672 7.77682 25.5 7.77682C23.6328 7.77682 21.896 8.75149 20.9185 10.3353C20.8392 10.3297 20.7598 10.3268 20.6833 10.3268C18.6518 10.3268 17 11.9787 17 14.0102C17 17.3365 19.8617 18.4925 20.6833 18.756ZM29.75 21.6602C29.75 21.816 29.6225 21.9435 29.4667 21.9435H21.5333C21.3775 21.9435 21.25 21.816 21.25 21.6602V18.8268H29.75V21.6602ZM20.6182 10.8963C20.5785 10.9813 20.5388 11.0663 20.5077 11.1485C20.451 11.293 20.5218 11.4573 20.6663 11.5168C20.7003 11.531 20.7343 11.5367 20.7712 11.5367C20.8845 11.5367 20.9922 11.4687 21.0347 11.3582C21.1112 11.1683 21.2047 10.97 21.318 10.7745C22.1737 9.27566 23.7773 8.34349 25.5 8.34349C27.2227 8.34349 28.8263 9.27566 29.682 10.7717C29.7925 10.9672 29.8888 11.1627 29.9653 11.3553C29.9934 11.425 30.0478 11.4808 30.1168 11.5105C30.1858 11.5402 30.2638 11.5415 30.3337 11.514C30.4782 11.4573 30.549 11.293 30.4923 11.1457C30.4583 11.0607 30.4215 10.9785 30.3818 10.8935C32.0705 10.9275 33.4333 12.3102 33.4333 14.0073C33.4333 17.2855 30.3592 18.1667 29.9993 18.2573H28.8263C30.0815 17.3252 30.3025 16.0983 30.3138 16.036C30.3393 15.883 30.2345 15.7357 30.0815 15.7102C30.0448 15.704 30.0073 15.705 29.9711 15.7134C29.9349 15.7217 29.9006 15.7371 29.8703 15.7587C29.8401 15.7803 29.8144 15.8076 29.7947 15.8392C29.775 15.8707 29.7617 15.9058 29.7557 15.9425C29.7557 15.9567 29.4808 17.4697 27.7043 18.2545H25.7833V16.2712C25.7833 16.1153 25.6558 15.9878 25.5 15.9878C25.3442 15.9878 25.2167 16.1153 25.2167 16.2712V18.2545H23.2957C21.5333 17.4753 21.2557 16.002 21.2443 15.9397C21.2385 15.9029 21.2253 15.8676 21.2057 15.836C21.1861 15.8043 21.1604 15.7769 21.1301 15.7553C21.0997 15.7336 21.0654 15.7183 21.0291 15.71C20.9928 15.7018 20.9552 15.7009 20.9185 15.7073C20.7655 15.7328 20.6607 15.8802 20.6862 16.0332C20.6975 16.0955 20.9185 17.3195 22.1737 18.2545H21.0007C20.6692 18.1667 17.5667 17.2572 17.5667 14.0045C17.5667 12.3073 18.9295 10.9247 20.6182 10.8907V10.8963Z" fill="#52006A" stroke="#52006A" stroke-width="0.423729"/>
  <path d="M7.19654 31.2941V32.959C7.19654 33.227 7.41582 33.4463 7.68383 33.4463H12.2319C12.4999 33.4463 12.7191 33.227 12.7191 32.959V31.2941C13.1902 31.1431 14.8307 30.4804 14.8307 28.5734C14.8307 27.4088 13.8838 26.4619 12.7191 26.4619C12.6753 26.4619 12.6298 26.4619 12.5843 26.4667C12.0239 25.5604 11.0283 25 9.95784 25C8.88743 25 7.89174 25.5588 7.33136 26.4667C7.28588 26.4635 7.2404 26.4619 7.19654 26.4619C6.03192 26.4619 5.08496 27.4088 5.08496 28.5734C5.08496 30.4804 6.7255 31.1431 7.19654 31.2941ZM12.3943 32.959C12.3943 33.0484 12.3212 33.1215 12.2319 33.1215H7.68383C7.59449 33.1215 7.5214 33.0484 7.5214 32.959V31.3347H12.3943V32.959ZM7.15918 26.7883C7.13644 26.8371 7.1137 26.8858 7.09584 26.9329C7.06335 27.0157 7.10396 27.11 7.1868 27.1441C7.20629 27.1522 7.22578 27.1554 7.2469 27.1554C7.31187 27.1554 7.37359 27.1165 7.39796 27.0531C7.44181 26.9443 7.49541 26.8306 7.56038 26.7185C8.05092 25.8593 8.97027 25.3249 9.95784 25.3249C10.9454 25.3249 11.8648 25.8593 12.3553 26.7169C12.4186 26.829 12.4739 26.941 12.5177 27.0515C12.5338 27.0914 12.565 27.1234 12.6046 27.1404C12.6441 27.1575 12.6888 27.1582 12.7289 27.1424C12.8117 27.11 12.8523 27.0157 12.8198 26.9313C12.8004 26.8826 12.7792 26.8355 12.7565 26.7867C13.7246 26.8062 14.5059 27.5989 14.5059 28.5718C14.5059 30.4511 12.7435 30.9563 12.5372 31.0083H11.8648C12.5843 30.4739 12.711 29.7706 12.7175 29.7348C12.7321 29.6471 12.672 29.5626 12.5843 29.548C12.5633 29.5445 12.5418 29.5451 12.521 29.5499C12.5003 29.5546 12.4806 29.5635 12.4633 29.5758C12.4459 29.5882 12.4312 29.6039 12.4199 29.622C12.4086 29.6401 12.401 29.6602 12.3975 29.6812C12.3975 29.6893 12.24 30.5567 11.2215 31.0066H10.1203V29.8696C10.1203 29.7803 10.0472 29.7072 9.95784 29.7072C9.86851 29.7072 9.79541 29.7803 9.79541 29.8696V31.0066H8.69414C7.68383 30.56 7.52465 29.7153 7.51815 29.6796C7.51479 29.6585 7.50727 29.6383 7.49602 29.6202C7.48477 29.602 7.47003 29.5863 7.45265 29.5739C7.43526 29.5615 7.41559 29.5527 7.39476 29.548C7.37394 29.5432 7.35239 29.5427 7.33136 29.5464C7.24365 29.561 7.18355 29.6455 7.19817 29.7332C7.20466 29.7689 7.33136 30.4706 8.05092 31.0066H7.37846C7.18842 30.9563 5.40982 30.4349 5.40982 28.5702C5.40982 27.5972 6.19111 26.8046 7.15918 26.7851V26.7883Z" fill="#52006A" stroke="#52006A" stroke-width="0.423729"/>
  <path d="M42.8943 32.3949V33.2301C42.8943 33.3646 43.0043 33.4746 43.1387 33.4746H45.4204C45.5548 33.4746 45.6648 33.3646 45.6648 33.2301V32.3949C45.9011 32.3191 46.7241 31.9866 46.7241 31.03C46.7241 30.4457 46.2491 29.9707 45.6648 29.9707C45.6428 29.9707 45.62 29.9707 45.5972 29.9731C45.3161 29.5184 44.8165 29.2373 44.2796 29.2373C43.7426 29.2373 43.243 29.5176 42.9619 29.9731C42.9391 29.9715 42.9163 29.9707 42.8943 29.9707C42.31 29.9707 41.835 30.4457 41.835 31.03C41.835 31.9866 42.658 32.3191 42.8943 32.3949ZM45.5018 33.2301C45.5018 33.2749 45.4652 33.3116 45.4204 33.3116H43.1387C43.0939 33.3116 43.0573 33.2749 43.0573 33.2301V32.4153H45.5018V33.2301ZM42.8755 30.1345C42.8641 30.1589 42.8527 30.1833 42.8438 30.207C42.8275 30.2485 42.8478 30.2958 42.8894 30.3129C42.8992 30.317 42.909 30.3186 42.9195 30.3186C42.9521 30.3186 42.9831 30.2991 42.9953 30.2673C43.0173 30.2127 43.0442 30.1556 43.0768 30.0994C43.3229 29.6684 43.7841 29.4003 44.2796 29.4003C44.775 29.4003 45.2362 29.6684 45.4823 30.0986C45.5141 30.1548 45.5418 30.2111 45.5638 30.2665C45.5718 30.2865 45.5875 30.3025 45.6073 30.3111C45.6272 30.3196 45.6496 30.32 45.6697 30.3121C45.7113 30.2958 45.7316 30.2485 45.7153 30.2062C45.7056 30.1817 45.695 30.1581 45.6836 30.1336C46.1692 30.1434 46.5612 30.5411 46.5612 31.0292C46.5612 31.972 45.677 32.2254 45.5736 32.2515H45.2362C45.5972 31.9834 45.6607 31.6305 45.664 31.6126C45.6713 31.5686 45.6412 31.5262 45.5972 31.5189C45.5866 31.5171 45.5759 31.5174 45.5654 31.5198C45.555 31.5222 45.5452 31.5267 45.5365 31.5329C45.5278 31.5391 45.5204 31.5469 45.5147 31.556C45.509 31.5651 45.5052 31.5752 45.5035 31.5857C45.5035 31.5898 45.4244 32.0249 44.9135 32.2507H44.361V31.6802C44.361 31.6354 44.3244 31.5988 44.2796 31.5988C44.2347 31.5988 44.1981 31.6354 44.1981 31.6802V32.2507H43.6456C43.1387 32.0266 43.0589 31.6028 43.0556 31.5849C43.0539 31.5743 43.0502 31.5642 43.0445 31.5551C43.0389 31.546 43.0315 31.5381 43.0228 31.5319C43.014 31.5257 43.0042 31.5212 42.9937 31.5189C42.9833 31.5165 42.9725 31.5162 42.9619 31.5181C42.9179 31.5254 42.8878 31.5678 42.8951 31.6118C42.8984 31.6297 42.9619 31.9817 43.3229 32.2507H42.9855C42.8902 32.2254 41.9979 31.9638 41.9979 31.0284C41.9979 30.5403 42.3899 30.1426 42.8755 30.1328V30.1345Z" fill="#52006A" stroke="#52006A" stroke-width="0.423729"/>
</svg>