<svg width="52" height="59" viewBox="0 0 52 59" fill="none" xmlns="http://www.w3.org/2000/svg">
<path d="M28.662 18.8243V24.5967C28.662 25.1636 28.0301 25.5019 27.5584 25.1874L26.3937 24.411C26.2771 24.3333 26.1401 24.2918 25.9999 24.2918C25.8598 24.2918 25.7228 24.3333 25.6062 24.411L24.4415 25.1874C23.9698 25.5019 23.3379 25.1636 23.3379 24.5967V18.8243" stroke="#52006A" stroke-width="1.71867" stroke-miterlimit="10" stroke-linecap="round" stroke-linejoin="round"/>
<path d="M36.648 26.8946V38.7007C36.648 39.4855 36.0132 40.1203 35.2283 40.1203H16.7722C16.5857 40.1204 16.401 40.0838 16.2287 40.0125C16.0564 39.9412 15.8999 39.8367 15.768 39.7048C15.6361 39.573 15.5316 39.4164 15.4603 39.2441C15.389 39.0718 15.3524 38.8871 15.3525 38.7007V20.2445C15.3525 19.4596 15.9873 18.8249 16.7722 18.8249H35.2283C36.0132 18.8249 36.648 19.4596 36.648 20.2445V22.8843M32.0343 35.5066H28.4849" stroke="#52006A" stroke-width="1.71867" stroke-miterlimit="10" stroke-linecap="round" stroke-linejoin="round"/>
<path d="M42.9781 9.30574C45.8277 12.9573 47.528 17.5473 47.528 22.528C47.528 23.487 46.7512 24.2639 45.7922 24.2639C44.8331 24.2639 44.0563 23.487 44.0563 22.528C44.0563 12.5724 35.9557 4.47171 26 4.47171C16.0443 4.47171 7.9437 12.5724 7.9437 22.528V23.5455L8.45242 23.0367C9.13072 22.3584 10.2295 22.3584 10.9078 23.0367C11.5861 23.715 11.5861 24.8138 10.9078 25.4921L7.43612 28.9639C7.27499 29.1254 7.08354 29.2535 6.87275 29.3408C6.66196 29.4281 6.436 29.4729 6.20784 29.4726C5.76328 29.4726 5.31987 29.303 4.98072 28.9639L1.50787 25.4921C0.830711 24.8138 0.830711 23.715 1.50787 23.0367C2.18617 22.3584 3.28497 22.3584 3.96327 23.0367L4.47199 23.5455V22.528C4.47199 10.6578 14.1297 1 26 1C31.4516 1 36.4357 3.03605 40.2328 6.39088M11.1633 52.0009C15.028 55.6834 20.2551 57.9452 26 57.9452C37.8703 57.9452 47.528 48.2874 47.528 36.4171V35.3997L48.0367 35.9084C48.3759 36.2476 48.8193 36.4171 49.2639 36.4171C49.7084 36.4171 50.153 36.2476 50.4921 35.9084C51.1693 35.2301 51.1693 34.1313 50.4921 33.453L47.0193 29.9813C46.3421 29.303 45.2422 29.303 44.5639 29.9813L41.0922 33.453C40.4139 34.1313 40.4139 35.2301 41.0922 35.9084C41.7705 36.5867 42.8693 36.5867 43.5476 35.9084L44.0563 35.3997V36.4171C44.0563 46.3728 35.9557 54.4735 26 54.4735C16.0443 54.4735 7.9437 46.3728 7.9437 36.4171C7.9437 35.4581 7.16686 34.6813 6.20784 34.6813C5.24883 34.6813 4.47199 35.4581 4.47199 36.4171C4.47199 41.1045 5.97754 45.4459 8.53033 48.984" stroke="#52006A" stroke-width="1.71867" stroke-miterlimit="10" stroke-linecap="round" stroke-linejoin="round"/>
</svg>
