<svg xmlns="http://www.w3.org/2000/svg" width="54" height="53" viewBox="0 0 54 53" fill="none">
  <mask id="path-1-outside-1_2829_29617" maskUnits="userSpaceOnUse" x="1.05273" y="0.78772" width="52" height="51" fill="black">
    <rect fill="white" x="1.05273" y="0.78772" width="52" height="51"/>
    <path d="M6.39418 20.8957C6.3447 20.8308 6.3085 20.7568 6.28764 20.6779C6.26679 20.599 6.2617 20.5168 6.27266 20.4359C6.28362 20.3551 6.31042 20.2772 6.35152 20.2067C6.39262 20.1362 6.44722 20.0745 6.51219 20.0251L22.9101 7.54319C23.0154 7.46296 23.1437 7.41848 23.2761 7.41625C23.4085 7.41401 23.5381 7.45414 23.6461 7.53077L32.5184 13.8349L43.3234 3.02991H39.661C39.3184 3.02991 39.0399 2.75145 39.0399 2.40881C39.0399 2.06618 39.3184 1.78772 39.661 1.78772H44.8223C45.1649 1.78772 45.4434 2.06618 45.4434 2.40881V7.5701C45.4434 7.91274 45.1649 8.1912 44.8223 8.1912C44.4796 8.1912 44.2012 7.91274 44.2012 7.5701V3.90772L33.0256 15.0843C32.9218 15.188 32.7846 15.2516 32.6384 15.2639C32.4921 15.2762 32.3462 15.2364 32.2265 15.1516L23.2993 8.80815L7.26475 21.0137C7.15701 21.0965 7.02487 21.1413 6.88898 21.141C6.70162 21.14 6.51633 21.0561 6.39418 20.8957ZM46.7094 41.7199C46.7094 44.0656 44.8005 45.9744 42.4549 45.9744C40.1092 45.9744 38.2004 44.0656 38.2004 41.7199C38.2004 39.3742 40.1092 37.4654 42.4549 37.4654C44.8005 37.4665 46.7094 39.3742 46.7094 41.7199ZM45.4672 41.7199C45.4672 40.0595 44.1163 38.7076 42.4549 38.7076C40.7945 38.7076 39.4426 40.0585 39.4426 41.7199C39.4426 43.3813 40.7935 44.7322 42.4549 44.7322C44.1153 44.7322 45.4672 43.3813 45.4672 41.7199ZM51.9473 40.7003V42.7406C51.9473 43.4176 51.3966 43.9683 50.7196 43.9683H49.259C49.148 44.3027 49.0127 44.6287 48.8542 44.9434L49.8873 45.9765C50.1192 46.2083 50.2465 46.5158 50.2465 46.8439C50.2465 47.1721 50.1192 47.4806 49.8873 47.7114L48.4453 49.1534C47.9671 49.6316 47.1887 49.6316 46.7104 49.1534L45.6773 48.1203C45.3626 48.2789 45.0367 48.4142 44.7022 48.525V49.9856C44.7022 50.6626 44.1515 51.2133 43.4755 51.2133H41.4353C40.7583 51.2133 40.2086 50.6626 40.2086 49.9856V48.525C39.8732 48.4143 39.5461 48.2787 39.2335 48.1203L38.2004 49.1534C37.9685 49.3852 37.6611 49.5126 37.3329 49.5126C37.0048 49.5126 36.6963 49.3852 36.4655 49.1534L35.0007 47.6886C33.0857 49.848 30.2918 51.2123 27.1843 51.2123C23.9846 51.2123 21.1162 49.7651 19.198 47.4919L17.5366 49.1534C17.0584 49.6316 16.2799 49.6316 15.8006 49.1534L14.7676 48.1203C14.4529 48.2789 14.1269 48.4142 13.7924 48.525V49.9856C13.7924 50.6626 13.2417 51.2133 12.5658 51.2133H10.5255C9.8485 51.2133 9.29883 50.6626 9.29883 49.9856V48.525C8.96447 48.4143 8.63633 48.2787 8.32371 48.1203L7.29062 49.1534C6.81238 49.6316 6.03395 49.6316 5.55467 49.1534L4.1127 47.7114C3.63445 47.2332 3.63445 46.4547 4.1127 45.9765L5.14578 44.9434C4.98736 44.6286 4.85209 44.3027 4.74104 43.9683H3.28043C2.60344 43.9683 2.05273 43.4176 2.05273 42.7406V40.7003C2.05273 40.0233 2.60344 39.4726 3.28043 39.4726H4.74104C4.8518 39.1382 4.9874 38.8111 5.14578 38.4975L4.1127 37.4644C3.88082 37.2335 3.7535 36.9251 3.7535 36.5969C3.7535 36.2688 3.88082 35.9603 4.1127 35.7295L5.55467 34.2875C6.03291 33.8092 6.81135 33.8092 7.28959 34.2875L8.32268 35.3206C8.63742 35.1621 8.96333 35.0268 9.29779 34.9158V27.1242C9.29779 26.7816 9.57625 26.5031 9.91889 26.5031H15.8276C16.1702 26.5031 16.4487 26.7816 16.4487 27.1242V33.948C16.6437 33.9114 16.8447 33.9231 17.0342 33.9821C17.2236 34.0411 17.3958 34.1456 17.5356 34.2865L18.3854 35.1363C18.7177 34.6198 19.0935 34.1343 19.5086 33.684V17.4186C19.5086 17.0759 19.787 16.7975 20.1297 16.7975H26.0383C26.381 16.7975 26.6594 17.0759 26.6594 17.4186V30.3322C27.8012 30.2738 28.9449 30.4039 30.0444 30.7172V22.2693C30.0444 21.9267 30.3229 21.6482 30.6655 21.6482H36.5742C36.9168 21.6482 37.1953 21.9267 37.1953 22.2693V33.9355C37.2398 33.9304 37.2843 33.9273 37.3298 33.9273C37.658 33.9273 37.9664 34.0546 38.1973 34.2865L39.2304 35.3195C39.5451 35.161 39.871 35.0258 40.2055 34.9148V33.4542C40.2055 33.1095 40.3494 32.7979 40.5792 32.5743V12.8598C40.5792 12.5171 40.8576 12.2387 41.2003 12.2387H47.1089C47.4516 12.2387 47.73 12.5171 47.73 12.8598V33.9397C47.9999 33.973 48.2509 34.0954 48.4433 34.2875L49.8852 35.7295C50.1171 35.9603 50.2444 36.2688 50.2444 36.5969C50.2444 36.9251 50.1171 37.2335 49.8852 37.4644L48.8521 38.4975C49.0105 38.8132 49.1472 39.1403 49.2569 39.4726H50.7175C51.3966 39.4736 51.9473 40.0233 51.9473 40.7003ZM41.8234 13.4808V32.2286H43.4745C44.1515 32.2286 44.7012 32.7793 44.7012 33.4552V34.9158C45.0345 35.0266 45.3626 35.1622 45.6763 35.3206L46.4899 34.508V13.4808H41.8234ZM31.2876 31.1592C33.1385 31.9532 34.7161 33.2668 35.8351 34.9158L35.9551 34.7958V22.8904H31.2887V31.1592H31.2876ZM20.7518 18.0397V32.5391C22.0861 31.4936 23.6792 30.7659 25.4183 30.4688V18.0397H20.7518ZM10.54 27.7453V32.2275H12.5647C13.2417 32.2275 13.7914 32.7782 13.7914 33.4542V34.9148C14.1247 35.0256 14.4529 35.1612 14.7665 35.3195L15.2065 34.8796V27.7443H10.54V27.7453ZM18.4465 46.4868C17.3658 44.8419 16.7364 42.8762 16.7364 40.7665C16.7364 39.1558 17.1029 37.629 17.7571 36.2657L16.6681 35.1767L15.6381 36.2067C15.2613 36.5824 14.6899 36.6746 14.2158 36.4334C13.9507 36.2996 13.676 36.1858 13.3939 36.0928C12.8888 35.9272 12.5492 35.4583 12.5492 34.9272V33.4708H10.54V34.9272C10.54 35.4583 10.2004 35.9272 9.69633 36.0928C9.4158 36.1849 9.13941 36.2998 8.87441 36.4334C8.64375 36.5505 8.38194 36.5916 8.12646 36.5509C7.87098 36.5102 7.63493 36.3897 7.45211 36.2067L6.42213 35.1767L5.00086 36.598L6.03084 37.6279C6.4066 38.0037 6.49873 38.5751 6.25754 39.0502C6.124 39.3142 6.0091 39.5916 5.91697 39.8722C5.75135 40.3773 5.28242 40.7168 4.75139 40.7168H3.29492V42.7271H4.75139C5.28242 42.7271 5.75135 43.0667 5.91697 43.5718C6.0091 43.8523 6.124 44.1287 6.25754 44.3937C6.3747 44.6244 6.41587 44.8862 6.37515 45.1417C6.33443 45.3972 6.2139 45.6332 6.03084 45.816L5.00086 46.846L6.42213 48.2673L7.45211 47.2373C7.82787 46.8615 8.40031 46.7694 8.87441 47.0106C9.13838 47.1441 9.41477 47.259 9.69633 47.3512C10.2015 47.5168 10.54 47.9857 10.54 48.5167V49.9732H12.5503V48.5167C12.5503 47.9857 12.8898 47.5168 13.3949 47.3512C13.6755 47.259 13.9519 47.1441 14.2169 47.0106C14.4475 46.8934 14.7093 46.8523 14.9648 46.893C15.2203 46.9337 15.4564 47.0542 15.6392 47.2373L16.6691 48.2673L18.4465 46.4868ZM36.3889 40.7655C36.3889 35.6901 32.2596 31.5609 27.1843 31.5609C22.1089 31.5609 17.9796 35.6901 17.9796 40.7655C17.9796 45.8409 22.1089 49.9701 27.1843 49.9701C32.2596 49.9701 36.3889 45.8409 36.3889 40.7655ZM50.7051 40.7158H49.2486C48.7176 40.7158 48.2487 40.3763 48.083 39.8722C47.9909 39.5916 47.876 39.3152 47.7425 39.0502C47.6253 38.8196 47.5841 38.5578 47.6249 38.3023C47.6656 38.0468 47.7861 37.8107 47.9692 37.6279L48.9991 36.598L47.5779 35.1767L46.5479 36.2067C46.1711 36.5824 45.5997 36.6746 45.1256 36.4334C44.8605 36.2996 44.5857 36.1858 44.3037 36.0928C43.7985 35.9272 43.459 35.4583 43.459 34.9272V33.4708H41.4497V34.9272C41.4497 35.4583 41.1102 35.9272 40.6061 36.0928C40.3256 36.1849 40.0492 36.2998 39.7842 36.4334C39.5535 36.5505 39.2917 36.5916 39.0362 36.5509C38.7807 36.5102 38.5447 36.3897 38.3619 36.2067L37.3319 35.1767L36.4893 36.0193C37.2191 37.4447 37.6311 39.0575 37.6311 40.7665C37.6311 42.9714 36.9437 45.019 35.7729 46.7063L37.3319 48.2652L38.3619 47.2352C38.7376 46.8595 39.309 46.7673 39.7842 47.0085C40.0481 47.1421 40.3245 47.257 40.6061 47.3491C41.1113 47.5147 41.4497 47.9836 41.4497 48.5147V49.9711H43.459V48.5147C43.459 47.9836 43.7985 47.5147 44.3037 47.3491C44.5842 47.257 44.8606 47.1421 45.1256 47.0085C45.3562 46.8911 45.6181 46.8497 45.8736 46.8905C46.1292 46.9312 46.3652 47.0519 46.5479 47.2352L47.5779 48.2652L48.9991 46.8439L47.9692 45.814C47.7861 45.6312 47.6655 45.3951 47.6248 45.1396C47.5841 44.8841 47.6253 44.6223 47.7425 44.3917C47.877 44.1266 47.9909 43.8503 48.083 43.5697C48.2487 43.0646 48.7176 42.725 49.2486 42.725H50.7051V40.7158ZM15.7996 41.7199C15.7996 44.0656 13.8908 45.9744 11.5451 45.9744C9.19945 45.9744 7.29062 44.0656 7.29062 41.7199C7.29062 39.3742 9.19945 37.4654 11.5451 37.4654C13.8908 37.4665 15.7996 39.3742 15.7996 41.7199ZM14.5574 41.7199C14.5574 40.0595 13.2065 38.7076 11.5451 38.7076C9.88369 38.7076 8.53281 40.0585 8.53281 41.7199C8.53281 43.3813 9.88369 44.7322 11.5451 44.7322C13.2065 44.7322 14.5574 43.3813 14.5574 41.7199ZM32.3093 36.7532C33.155 37.599 33.155 38.9767 32.3093 39.8225L27.354 44.7778C26.9306 45.2011 26.3748 45.4123 25.8189 45.4123C25.263 45.4123 24.7071 45.2011 24.2848 44.7778L22.0582 42.5511C21.2124 41.7054 21.2124 40.3287 22.0582 39.4819C22.4671 39.073 23.0115 38.8484 23.5933 38.8484C24.1751 38.8484 24.7196 39.073 25.1284 39.4819L25.821 40.1744L29.2421 36.7532C30.0858 35.9075 31.4636 35.9075 32.3093 36.7532ZM31.7006 38.2884C31.7012 38.1665 31.6777 38.0458 31.6313 37.9332C31.5849 37.8205 31.5167 37.7182 31.4305 37.6321C31.0682 37.2698 30.4792 37.2698 30.1179 37.6321L26.2578 41.4922C26.1413 41.6085 25.9835 41.6738 25.8189 41.6738C25.6543 41.6738 25.4964 41.6085 25.38 41.4922L24.2486 40.3608C24.0746 40.1868 23.8417 40.0906 23.5923 40.0906C23.3428 40.0906 23.1099 40.1868 22.936 40.3608C22.5737 40.7231 22.5737 41.3121 22.936 41.6733L25.1626 43.9C25.5249 44.2612 26.1129 44.2623 26.4752 43.9L31.4305 38.9447C31.6054 38.7697 31.7006 38.5368 31.7006 38.2884Z"/>
  </mask>
  <path d="M6.39418 20.8957C6.3447 20.8308 6.3085 20.7568 6.28764 20.6779C6.26679 20.599 6.2617 20.5168 6.27266 20.4359C6.28362 20.3551 6.31042 20.2772 6.35152 20.2067C6.39262 20.1362 6.44722 20.0745 6.51219 20.0251L22.9101 7.54319C23.0154 7.46296 23.1437 7.41848 23.2761 7.41625C23.4085 7.41401 23.5381 7.45414 23.6461 7.53077L32.5184 13.8349L43.3234 3.02991H39.661C39.3184 3.02991 39.0399 2.75145 39.0399 2.40881C39.0399 2.06618 39.3184 1.78772 39.661 1.78772H44.8223C45.1649 1.78772 45.4434 2.06618 45.4434 2.40881V7.5701C45.4434 7.91274 45.1649 8.1912 44.8223 8.1912C44.4796 8.1912 44.2012 7.91274 44.2012 7.5701V3.90772L33.0256 15.0843C32.9218 15.188 32.7846 15.2516 32.6384 15.2639C32.4921 15.2762 32.3462 15.2364 32.2265 15.1516L23.2993 8.80815L7.26475 21.0137C7.15701 21.0965 7.02487 21.1413 6.88898 21.141C6.70162 21.14 6.51633 21.0561 6.39418 20.8957ZM46.7094 41.7199C46.7094 44.0656 44.8005 45.9744 42.4549 45.9744C40.1092 45.9744 38.2004 44.0656 38.2004 41.7199C38.2004 39.3742 40.1092 37.4654 42.4549 37.4654C44.8005 37.4665 46.7094 39.3742 46.7094 41.7199ZM45.4672 41.7199C45.4672 40.0595 44.1163 38.7076 42.4549 38.7076C40.7945 38.7076 39.4426 40.0585 39.4426 41.7199C39.4426 43.3813 40.7935 44.7322 42.4549 44.7322C44.1153 44.7322 45.4672 43.3813 45.4672 41.7199ZM51.9473 40.7003V42.7406C51.9473 43.4176 51.3966 43.9683 50.7196 43.9683H49.259C49.148 44.3027 49.0127 44.6287 48.8542 44.9434L49.8873 45.9765C50.1192 46.2083 50.2465 46.5158 50.2465 46.8439C50.2465 47.1721 50.1192 47.4806 49.8873 47.7114L48.4453 49.1534C47.9671 49.6316 47.1887 49.6316 46.7104 49.1534L45.6773 48.1203C45.3626 48.2789 45.0367 48.4142 44.7022 48.525V49.9856C44.7022 50.6626 44.1515 51.2133 43.4755 51.2133H41.4353C40.7583 51.2133 40.2086 50.6626 40.2086 49.9856V48.525C39.8732 48.4143 39.5461 48.2787 39.2335 48.1203L38.2004 49.1534C37.9685 49.3852 37.6611 49.5126 37.3329 49.5126C37.0048 49.5126 36.6963 49.3852 36.4655 49.1534L35.0007 47.6886C33.0857 49.848 30.2918 51.2123 27.1843 51.2123C23.9846 51.2123 21.1162 49.7651 19.198 47.4919L17.5366 49.1534C17.0584 49.6316 16.2799 49.6316 15.8006 49.1534L14.7676 48.1203C14.4529 48.2789 14.1269 48.4142 13.7924 48.525V49.9856C13.7924 50.6626 13.2417 51.2133 12.5658 51.2133H10.5255C9.8485 51.2133 9.29883 50.6626 9.29883 49.9856V48.525C8.96447 48.4143 8.63633 48.2787 8.32371 48.1203L7.29062 49.1534C6.81238 49.6316 6.03395 49.6316 5.55467 49.1534L4.1127 47.7114C3.63445 47.2332 3.63445 46.4547 4.1127 45.9765L5.14578 44.9434C4.98736 44.6286 4.85209 44.3027 4.74104 43.9683H3.28043C2.60344 43.9683 2.05273 43.4176 2.05273 42.7406V40.7003C2.05273 40.0233 2.60344 39.4726 3.28043 39.4726H4.74104C4.8518 39.1382 4.9874 38.8111 5.14578 38.4975L4.1127 37.4644C3.88082 37.2335 3.7535 36.9251 3.7535 36.5969C3.7535 36.2688 3.88082 35.9603 4.1127 35.7295L5.55467 34.2875C6.03291 33.8092 6.81135 33.8092 7.28959 34.2875L8.32268 35.3206C8.63742 35.1621 8.96333 35.0268 9.29779 34.9158V27.1242C9.29779 26.7816 9.57625 26.5031 9.91889 26.5031H15.8276C16.1702 26.5031 16.4487 26.7816 16.4487 27.1242V33.948C16.6437 33.9114 16.8447 33.9231 17.0342 33.9821C17.2236 34.0411 17.3958 34.1456 17.5356 34.2865L18.3854 35.1363C18.7177 34.6198 19.0935 34.1343 19.5086 33.684V17.4186C19.5086 17.0759 19.787 16.7975 20.1297 16.7975H26.0383C26.381 16.7975 26.6594 17.0759 26.6594 17.4186V30.3322C27.8012 30.2738 28.9449 30.4039 30.0444 30.7172V22.2693C30.0444 21.9267 30.3229 21.6482 30.6655 21.6482H36.5742C36.9168 21.6482 37.1953 21.9267 37.1953 22.2693V33.9355C37.2398 33.9304 37.2843 33.9273 37.3298 33.9273C37.658 33.9273 37.9664 34.0546 38.1973 34.2865L39.2304 35.3195C39.5451 35.161 39.871 35.0258 40.2055 34.9148V33.4542C40.2055 33.1095 40.3494 32.7979 40.5792 32.5743V12.8598C40.5792 12.5171 40.8576 12.2387 41.2003 12.2387H47.1089C47.4516 12.2387 47.73 12.5171 47.73 12.8598V33.9397C47.9999 33.973 48.2509 34.0954 48.4433 34.2875L49.8852 35.7295C50.1171 35.9603 50.2444 36.2688 50.2444 36.5969C50.2444 36.9251 50.1171 37.2335 49.8852 37.4644L48.8521 38.4975C49.0105 38.8132 49.1472 39.1403 49.2569 39.4726H50.7175C51.3966 39.4736 51.9473 40.0233 51.9473 40.7003ZM41.8234 13.4808V32.2286H43.4745C44.1515 32.2286 44.7012 32.7793 44.7012 33.4552V34.9158C45.0345 35.0266 45.3626 35.1622 45.6763 35.3206L46.4899 34.508V13.4808H41.8234ZM31.2876 31.1592C33.1385 31.9532 34.7161 33.2668 35.8351 34.9158L35.9551 34.7958V22.8904H31.2887V31.1592H31.2876ZM20.7518 18.0397V32.5391C22.0861 31.4936 23.6792 30.7659 25.4183 30.4688V18.0397H20.7518ZM10.54 27.7453V32.2275H12.5647C13.2417 32.2275 13.7914 32.7782 13.7914 33.4542V34.9148C14.1247 35.0256 14.4529 35.1612 14.7665 35.3195L15.2065 34.8796V27.7443H10.54V27.7453ZM18.4465 46.4868C17.3658 44.8419 16.7364 42.8762 16.7364 40.7665C16.7364 39.1558 17.1029 37.629 17.7571 36.2657L16.6681 35.1767L15.6381 36.2067C15.2613 36.5824 14.6899 36.6746 14.2158 36.4334C13.9507 36.2996 13.676 36.1858 13.3939 36.0928C12.8888 35.9272 12.5492 35.4583 12.5492 34.9272V33.4708H10.54V34.9272C10.54 35.4583 10.2004 35.9272 9.69633 36.0928C9.4158 36.1849 9.13941 36.2998 8.87441 36.4334C8.64375 36.5505 8.38194 36.5916 8.12646 36.5509C7.87098 36.5102 7.63493 36.3897 7.45211 36.2067L6.42213 35.1767L5.00086 36.598L6.03084 37.6279C6.4066 38.0037 6.49873 38.5751 6.25754 39.0502C6.124 39.3142 6.0091 39.5916 5.91697 39.8722C5.75135 40.3773 5.28242 40.7168 4.75139 40.7168H3.29492V42.7271H4.75139C5.28242 42.7271 5.75135 43.0667 5.91697 43.5718C6.0091 43.8523 6.124 44.1287 6.25754 44.3937C6.3747 44.6244 6.41587 44.8862 6.37515 45.1417C6.33443 45.3972 6.2139 45.6332 6.03084 45.816L5.00086 46.846L6.42213 48.2673L7.45211 47.2373C7.82787 46.8615 8.40031 46.7694 8.87441 47.0106C9.13838 47.1441 9.41477 47.259 9.69633 47.3512C10.2015 47.5168 10.54 47.9857 10.54 48.5167V49.9732H12.5503V48.5167C12.5503 47.9857 12.8898 47.5168 13.3949 47.3512C13.6755 47.259 13.9519 47.1441 14.2169 47.0106C14.4475 46.8934 14.7093 46.8523 14.9648 46.893C15.2203 46.9337 15.4564 47.0542 15.6392 47.2373L16.6691 48.2673L18.4465 46.4868ZM36.3889 40.7655C36.3889 35.6901 32.2596 31.5609 27.1843 31.5609C22.1089 31.5609 17.9796 35.6901 17.9796 40.7655C17.9796 45.8409 22.1089 49.9701 27.1843 49.9701C32.2596 49.9701 36.3889 45.8409 36.3889 40.7655ZM50.7051 40.7158H49.2486C48.7176 40.7158 48.2487 40.3763 48.083 39.8722C47.9909 39.5916 47.876 39.3152 47.7425 39.0502C47.6253 38.8196 47.5841 38.5578 47.6249 38.3023C47.6656 38.0468 47.7861 37.8107 47.9692 37.6279L48.9991 36.598L47.5779 35.1767L46.5479 36.2067C46.1711 36.5824 45.5997 36.6746 45.1256 36.4334C44.8605 36.2996 44.5857 36.1858 44.3037 36.0928C43.7985 35.9272 43.459 35.4583 43.459 34.9272V33.4708H41.4497V34.9272C41.4497 35.4583 41.1102 35.9272 40.6061 36.0928C40.3256 36.1849 40.0492 36.2998 39.7842 36.4334C39.5535 36.5505 39.2917 36.5916 39.0362 36.5509C38.7807 36.5102 38.5447 36.3897 38.3619 36.2067L37.3319 35.1767L36.4893 36.0193C37.2191 37.4447 37.6311 39.0575 37.6311 40.7665C37.6311 42.9714 36.9437 45.019 35.7729 46.7063L37.3319 48.2652L38.3619 47.2352C38.7376 46.8595 39.309 46.7673 39.7842 47.0085C40.0481 47.1421 40.3245 47.257 40.6061 47.3491C41.1113 47.5147 41.4497 47.9836 41.4497 48.5147V49.9711H43.459V48.5147C43.459 47.9836 43.7985 47.5147 44.3037 47.3491C44.5842 47.257 44.8606 47.1421 45.1256 47.0085C45.3562 46.8911 45.6181 46.8497 45.8736 46.8905C46.1292 46.9312 46.3652 47.0519 46.5479 47.2352L47.5779 48.2652L48.9991 46.8439L47.9692 45.814C47.7861 45.6312 47.6655 45.3951 47.6248 45.1396C47.5841 44.8841 47.6253 44.6223 47.7425 44.3917C47.877 44.1266 47.9909 43.8503 48.083 43.5697C48.2487 43.0646 48.7176 42.725 49.2486 42.725H50.7051V40.7158ZM15.7996 41.7199C15.7996 44.0656 13.8908 45.9744 11.5451 45.9744C9.19945 45.9744 7.29062 44.0656 7.29062 41.7199C7.29062 39.3742 9.19945 37.4654 11.5451 37.4654C13.8908 37.4665 15.7996 39.3742 15.7996 41.7199ZM14.5574 41.7199C14.5574 40.0595 13.2065 38.7076 11.5451 38.7076C9.88369 38.7076 8.53281 40.0585 8.53281 41.7199C8.53281 43.3813 9.88369 44.7322 11.5451 44.7322C13.2065 44.7322 14.5574 43.3813 14.5574 41.7199ZM32.3093 36.7532C33.155 37.599 33.155 38.9767 32.3093 39.8225L27.354 44.7778C26.9306 45.2011 26.3748 45.4123 25.8189 45.4123C25.263 45.4123 24.7071 45.2011 24.2848 44.7778L22.0582 42.5511C21.2124 41.7054 21.2124 40.3287 22.0582 39.4819C22.4671 39.073 23.0115 38.8484 23.5933 38.8484C24.1751 38.8484 24.7196 39.073 25.1284 39.4819L25.821 40.1744L29.2421 36.7532C30.0858 35.9075 31.4636 35.9075 32.3093 36.7532ZM31.7006 38.2884C31.7012 38.1665 31.6777 38.0458 31.6313 37.9332C31.5849 37.8205 31.5167 37.7182 31.4305 37.6321C31.0682 37.2698 30.4792 37.2698 30.1179 37.6321L26.2578 41.4922C26.1413 41.6085 25.9835 41.6738 25.8189 41.6738C25.6543 41.6738 25.4964 41.6085 25.38 41.4922L24.2486 40.3608C24.0746 40.1868 23.8417 40.0906 23.5923 40.0906C23.3428 40.0906 23.1099 40.1868 22.936 40.3608C22.5737 40.7231 22.5737 41.3121 22.936 41.6733L25.1626 43.9C25.5249 44.2612 26.1129 44.2623 26.4752 43.9L31.4305 38.9447C31.6054 38.7697 31.7006 38.5368 31.7006 38.2884Z" fill="#52006A"/>
  <path d="M6.39418 20.8957C6.3447 20.8308 6.3085 20.7568 6.28764 20.6779C6.26679 20.599 6.2617 20.5168 6.27266 20.4359C6.28362 20.3551 6.31042 20.2772 6.35152 20.2067C6.39262 20.1362 6.44722 20.0745 6.51219 20.0251L22.9101 7.54319C23.0154 7.46296 23.1437 7.41848 23.2761 7.41625C23.4085 7.41401 23.5381 7.45414 23.6461 7.53077L32.5184 13.8349L43.3234 3.02991H39.661C39.3184 3.02991 39.0399 2.75145 39.0399 2.40881C39.0399 2.06618 39.3184 1.78772 39.661 1.78772H44.8223C45.1649 1.78772 45.4434 2.06618 45.4434 2.40881V7.5701C45.4434 7.91274 45.1649 8.1912 44.8223 8.1912C44.4796 8.1912 44.2012 7.91274 44.2012 7.5701V3.90772L33.0256 15.0843C32.9218 15.188 32.7846 15.2516 32.6384 15.2639C32.4921 15.2762 32.3462 15.2364 32.2265 15.1516L23.2993 8.80815L7.26475 21.0137C7.15701 21.0965 7.02487 21.1413 6.88898 21.141C6.70162 21.14 6.51633 21.0561 6.39418 20.8957ZM46.7094 41.7199C46.7094 44.0656 44.8005 45.9744 42.4549 45.9744C40.1092 45.9744 38.2004 44.0656 38.2004 41.7199C38.2004 39.3742 40.1092 37.4654 42.4549 37.4654C44.8005 37.4665 46.7094 39.3742 46.7094 41.7199ZM45.4672 41.7199C45.4672 40.0595 44.1163 38.7076 42.4549 38.7076C40.7945 38.7076 39.4426 40.0585 39.4426 41.7199C39.4426 43.3813 40.7935 44.7322 42.4549 44.7322C44.1153 44.7322 45.4672 43.3813 45.4672 41.7199ZM51.9473 40.7003V42.7406C51.9473 43.4176 51.3966 43.9683 50.7196 43.9683H49.259C49.148 44.3027 49.0127 44.6287 48.8542 44.9434L49.8873 45.9765C50.1192 46.2083 50.2465 46.5158 50.2465 46.8439C50.2465 47.1721 50.1192 47.4806 49.8873 47.7114L48.4453 49.1534C47.9671 49.6316 47.1887 49.6316 46.7104 49.1534L45.6773 48.1203C45.3626 48.2789 45.0367 48.4142 44.7022 48.525V49.9856C44.7022 50.6626 44.1515 51.2133 43.4755 51.2133H41.4353C40.7583 51.2133 40.2086 50.6626 40.2086 49.9856V48.525C39.8732 48.4143 39.5461 48.2787 39.2335 48.1203L38.2004 49.1534C37.9685 49.3852 37.6611 49.5126 37.3329 49.5126C37.0048 49.5126 36.6963 49.3852 36.4655 49.1534L35.0007 47.6886C33.0857 49.848 30.2918 51.2123 27.1843 51.2123C23.9846 51.2123 21.1162 49.7651 19.198 47.4919L17.5366 49.1534C17.0584 49.6316 16.2799 49.6316 15.8006 49.1534L14.7676 48.1203C14.4529 48.2789 14.1269 48.4142 13.7924 48.525V49.9856C13.7924 50.6626 13.2417 51.2133 12.5658 51.2133H10.5255C9.8485 51.2133 9.29883 50.6626 9.29883 49.9856V48.525C8.96447 48.4143 8.63633 48.2787 8.32371 48.1203L7.29062 49.1534C6.81238 49.6316 6.03395 49.6316 5.55467 49.1534L4.1127 47.7114C3.63445 47.2332 3.63445 46.4547 4.1127 45.9765L5.14578 44.9434C4.98736 44.6286 4.85209 44.3027 4.74104 43.9683H3.28043C2.60344 43.9683 2.05273 43.4176 2.05273 42.7406V40.7003C2.05273 40.0233 2.60344 39.4726 3.28043 39.4726H4.74104C4.8518 39.1382 4.9874 38.8111 5.14578 38.4975L4.1127 37.4644C3.88082 37.2335 3.7535 36.9251 3.7535 36.5969C3.7535 36.2688 3.88082 35.9603 4.1127 35.7295L5.55467 34.2875C6.03291 33.8092 6.81135 33.8092 7.28959 34.2875L8.32268 35.3206C8.63742 35.1621 8.96333 35.0268 9.29779 34.9158V27.1242C9.29779 26.7816 9.57625 26.5031 9.91889 26.5031H15.8276C16.1702 26.5031 16.4487 26.7816 16.4487 27.1242V33.948C16.6437 33.9114 16.8447 33.9231 17.0342 33.9821C17.2236 34.0411 17.3958 34.1456 17.5356 34.2865L18.3854 35.1363C18.7177 34.6198 19.0935 34.1343 19.5086 33.684V17.4186C19.5086 17.0759 19.787 16.7975 20.1297 16.7975H26.0383C26.381 16.7975 26.6594 17.0759 26.6594 17.4186V30.3322C27.8012 30.2738 28.9449 30.4039 30.0444 30.7172V22.2693C30.0444 21.9267 30.3229 21.6482 30.6655 21.6482H36.5742C36.9168 21.6482 37.1953 21.9267 37.1953 22.2693V33.9355C37.2398 33.9304 37.2843 33.9273 37.3298 33.9273C37.658 33.9273 37.9664 34.0546 38.1973 34.2865L39.2304 35.3195C39.5451 35.161 39.871 35.0258 40.2055 34.9148V33.4542C40.2055 33.1095 40.3494 32.7979 40.5792 32.5743V12.8598C40.5792 12.5171 40.8576 12.2387 41.2003 12.2387H47.1089C47.4516 12.2387 47.73 12.5171 47.73 12.8598V33.9397C47.9999 33.973 48.2509 34.0954 48.4433 34.2875L49.8852 35.7295C50.1171 35.9603 50.2444 36.2688 50.2444 36.5969C50.2444 36.9251 50.1171 37.2335 49.8852 37.4644L48.8521 38.4975C49.0105 38.8132 49.1472 39.1403 49.2569 39.4726H50.7175C51.3966 39.4736 51.9473 40.0233 51.9473 40.7003ZM41.8234 13.4808V32.2286H43.4745C44.1515 32.2286 44.7012 32.7793 44.7012 33.4552V34.9158C45.0345 35.0266 45.3626 35.1622 45.6763 35.3206L46.4899 34.508V13.4808H41.8234ZM31.2876 31.1592C33.1385 31.9532 34.7161 33.2668 35.8351 34.9158L35.9551 34.7958V22.8904H31.2887V31.1592H31.2876ZM20.7518 18.0397V32.5391C22.0861 31.4936 23.6792 30.7659 25.4183 30.4688V18.0397H20.7518ZM10.54 27.7453V32.2275H12.5647C13.2417 32.2275 13.7914 32.7782 13.7914 33.4542V34.9148C14.1247 35.0256 14.4529 35.1612 14.7665 35.3195L15.2065 34.8796V27.7443H10.54V27.7453ZM18.4465 46.4868C17.3658 44.8419 16.7364 42.8762 16.7364 40.7665C16.7364 39.1558 17.1029 37.629 17.7571 36.2657L16.6681 35.1767L15.6381 36.2067C15.2613 36.5824 14.6899 36.6746 14.2158 36.4334C13.9507 36.2996 13.676 36.1858 13.3939 36.0928C12.8888 35.9272 12.5492 35.4583 12.5492 34.9272V33.4708H10.54V34.9272C10.54 35.4583 10.2004 35.9272 9.69633 36.0928C9.4158 36.1849 9.13941 36.2998 8.87441 36.4334C8.64375 36.5505 8.38194 36.5916 8.12646 36.5509C7.87098 36.5102 7.63493 36.3897 7.45211 36.2067L6.42213 35.1767L5.00086 36.598L6.03084 37.6279C6.4066 38.0037 6.49873 38.5751 6.25754 39.0502C6.124 39.3142 6.0091 39.5916 5.91697 39.8722C5.75135 40.3773 5.28242 40.7168 4.75139 40.7168H3.29492V42.7271H4.75139C5.28242 42.7271 5.75135 43.0667 5.91697 43.5718C6.0091 43.8523 6.124 44.1287 6.25754 44.3937C6.3747 44.6244 6.41587 44.8862 6.37515 45.1417C6.33443 45.3972 6.2139 45.6332 6.03084 45.816L5.00086 46.846L6.42213 48.2673L7.45211 47.2373C7.82787 46.8615 8.40031 46.7694 8.87441 47.0106C9.13838 47.1441 9.41477 47.259 9.69633 47.3512C10.2015 47.5168 10.54 47.9857 10.54 48.5167V49.9732H12.5503V48.5167C12.5503 47.9857 12.8898 47.5168 13.3949 47.3512C13.6755 47.259 13.9519 47.1441 14.2169 47.0106C14.4475 46.8934 14.7093 46.8523 14.9648 46.893C15.2203 46.9337 15.4564 47.0542 15.6392 47.2373L16.6691 48.2673L18.4465 46.4868ZM36.3889 40.7655C36.3889 35.6901 32.2596 31.5609 27.1843 31.5609C22.1089 31.5609 17.9796 35.6901 17.9796 40.7655C17.9796 45.8409 22.1089 49.9701 27.1843 49.9701C32.2596 49.9701 36.3889 45.8409 36.3889 40.7655ZM50.7051 40.7158H49.2486C48.7176 40.7158 48.2487 40.3763 48.083 39.8722C47.9909 39.5916 47.876 39.3152 47.7425 39.0502C47.6253 38.8196 47.5841 38.5578 47.6249 38.3023C47.6656 38.0468 47.7861 37.8107 47.9692 37.6279L48.9991 36.598L47.5779 35.1767L46.5479 36.2067C46.1711 36.5824 45.5997 36.6746 45.1256 36.4334C44.8605 36.2996 44.5857 36.1858 44.3037 36.0928C43.7985 35.9272 43.459 35.4583 43.459 34.9272V33.4708H41.4497V34.9272C41.4497 35.4583 41.1102 35.9272 40.6061 36.0928C40.3256 36.1849 40.0492 36.2998 39.7842 36.4334C39.5535 36.5505 39.2917 36.5916 39.0362 36.5509C38.7807 36.5102 38.5447 36.3897 38.3619 36.2067L37.3319 35.1767L36.4893 36.0193C37.2191 37.4447 37.6311 39.0575 37.6311 40.7665C37.6311 42.9714 36.9437 45.019 35.7729 46.7063L37.3319 48.2652L38.3619 47.2352C38.7376 46.8595 39.309 46.7673 39.7842 47.0085C40.0481 47.1421 40.3245 47.257 40.6061 47.3491C41.1113 47.5147 41.4497 47.9836 41.4497 48.5147V49.9711H43.459V48.5147C43.459 47.9836 43.7985 47.5147 44.3037 47.3491C44.5842 47.257 44.8606 47.1421 45.1256 47.0085C45.3562 46.8911 45.6181 46.8497 45.8736 46.8905C46.1292 46.9312 46.3652 47.0519 46.5479 47.2352L47.5779 48.2652L48.9991 46.8439L47.9692 45.814C47.7861 45.6312 47.6655 45.3951 47.6248 45.1396C47.5841 44.8841 47.6253 44.6223 47.7425 44.3917C47.877 44.1266 47.9909 43.8503 48.083 43.5697C48.2487 43.0646 48.7176 42.725 49.2486 42.725H50.7051V40.7158ZM15.7996 41.7199C15.7996 44.0656 13.8908 45.9744 11.5451 45.9744C9.19945 45.9744 7.29062 44.0656 7.29062 41.7199C7.29062 39.3742 9.19945 37.4654 11.5451 37.4654C13.8908 37.4665 15.7996 39.3742 15.7996 41.7199ZM14.5574 41.7199C14.5574 40.0595 13.2065 38.7076 11.5451 38.7076C9.88369 38.7076 8.53281 40.0585 8.53281 41.7199C8.53281 43.3813 9.88369 44.7322 11.5451 44.7322C13.2065 44.7322 14.5574 43.3813 14.5574 41.7199ZM32.3093 36.7532C33.155 37.599 33.155 38.9767 32.3093 39.8225L27.354 44.7778C26.9306 45.2011 26.3748 45.4123 25.8189 45.4123C25.263 45.4123 24.7071 45.2011 24.2848 44.7778L22.0582 42.5511C21.2124 41.7054 21.2124 40.3287 22.0582 39.4819C22.4671 39.073 23.0115 38.8484 23.5933 38.8484C24.1751 38.8484 24.7196 39.073 25.1284 39.4819L25.821 40.1744L29.2421 36.7532C30.0858 35.9075 31.4636 35.9075 32.3093 36.7532ZM31.7006 38.2884C31.7012 38.1665 31.6777 38.0458 31.6313 37.9332C31.5849 37.8205 31.5167 37.7182 31.4305 37.6321C31.0682 37.2698 30.4792 37.2698 30.1179 37.6321L26.2578 41.4922C26.1413 41.6085 25.9835 41.6738 25.8189 41.6738C25.6543 41.6738 25.4964 41.6085 25.38 41.4922L24.2486 40.3608C24.0746 40.1868 23.8417 40.0906 23.5923 40.0906C23.3428 40.0906 23.1099 40.1868 22.936 40.3608C22.5737 40.7231 22.5737 41.3121 22.936 41.6733L25.1626 43.9C25.5249 44.2612 26.1129 44.2623 26.4752 43.9L31.4305 38.9447C31.6054 38.7697 31.7006 38.5368 31.7006 38.2884Z" stroke="#52006A" stroke-width="0.424" mask="url(#path-1-outside-1_2829_29617)"/>
</svg>