<svg width="47" height="53" viewBox="0 0 47 53" fill="none" xmlns="http://www.w3.org/2000/svg">
<path d="M21.8661 1.35715H18.7233C18.5892 1.35715 18.4605 1.41045 18.3656 1.50532C18.2707 1.60019 18.2174 1.72887 18.2174 1.86304V10.7858M21.8661 1.35715V4.24701C21.8661 4.31409 21.8928 4.37843 21.9402 4.42587C21.9877 4.4733 22.052 4.49995 22.1191 4.49995H24.756C24.8231 4.49995 24.8874 4.4733 24.9349 4.42587C24.9823 4.37843 25.009 4.31409 25.009 4.24701V1.35715H21.8661ZM28.6578 10.7858V1.86304C28.6578 1.72887 28.6045 1.60019 28.5096 1.50532C28.4147 1.41045 28.286 1.35715 28.1519 1.35715H25.0091M12.4375 12.7445V11.2917C12.4375 11.1575 12.4908 11.0288 12.5857 10.9339C12.6806 10.8391 12.8092 10.7858 12.9434 10.7858H25.009M25.009 10.7858V21.7858M25.009 10.7858H28.1519M12.4375 21.7857V16.2857M34.4376 21.7857V11.2917C34.4376 11.1575 34.3843 11.0288 34.2894 10.9339C34.1945 10.8391 34.0659 10.7858 33.9317 10.7858H31.2948M39.1518 33.6911V40.6428M44.9317 51.6429H1.94339C1.80922 51.6429 1.68055 51.5896 1.58567 51.4947C1.4908 51.3998 1.4375 51.2711 1.4375 51.137V49.0059C1.4375 48.8718 1.4908 48.7431 1.58567 48.6482C1.68055 48.5533 1.80922 48.5 1.94339 48.5H44.9316C45.0658 48.5 45.1945 48.5533 45.2893 48.6482C45.3842 48.7431 45.4375 48.8718 45.4375 49.0059V51.137C45.4375 51.2034 45.4244 51.2692 45.399 51.3306C45.3736 51.3919 45.3364 51.4477 45.2894 51.4947C45.2424 51.5417 45.1867 51.5789 45.1253 51.6043C45.0639 51.6298 44.9981 51.6429 44.9317 51.6429Z" stroke="#52006A" stroke-width="1.51768" stroke-miterlimit="10" stroke-linecap="round" stroke-linejoin="round"/>
<path d="M21.8661 21.7856H38.646C38.7802 21.7856 38.9088 21.8389 39.0037 21.9338C39.0986 22.0287 39.1519 22.1573 39.1519 22.2915V30.1497M21.8661 21.7856V40.6428M21.8661 21.7856H17.1518M17.1518 21.7856H12.4375M17.1518 21.7856V26.247C17.1518 26.2802 17.1453 26.3131 17.1326 26.3438C17.1199 26.3745 17.1012 26.4024 17.0777 26.4258C17.0543 26.4493 17.0264 26.468 16.9957 26.4807C16.965 26.4934 16.9321 26.4999 16.8989 26.4999H12.6905C12.6234 26.4999 12.559 26.4733 12.5116 26.4258C12.4642 26.3784 12.4375 26.3141 12.4375 26.247V21.7856M12.4375 21.7856H8.22911C8.09494 21.7856 7.96626 21.8389 7.87139 21.9338C7.77651 22.0287 7.72321 22.1573 7.72321 22.2915V40.6428M12.7633 43.7857H1.94339C1.80922 43.7857 1.68055 43.7324 1.58567 43.6375C1.4908 43.5426 1.4375 43.414 1.4375 43.2798V41.1488C1.4375 41.0146 1.4908 40.8859 1.58567 40.791C1.68055 40.6962 1.80922 40.6429 1.94339 40.6429H44.9316C45.0658 40.6429 45.1945 40.6962 45.2893 40.791C45.3842 40.8859 45.4375 41.0146 45.4375 41.1488V43.2798C45.4375 43.414 45.3842 43.5426 45.2893 43.6375C45.1945 43.7324 45.0658 43.7857 44.9316 43.7857H16.3046M17.1518 18.6428H15.5804M6.15181 43.7857V48.5M3.009 48.5V43.7857M25.009 43.7857V48.5M21.8661 48.5V43.7857M43.8661 43.7857V48.5M40.7233 48.5V43.7857M28.4048 13.9285H31.0417C31.1088 13.9285 31.1731 13.9019 31.2206 13.8544C31.268 13.807 31.2947 13.7426 31.2947 13.6756V10.7857H28.1519V13.6756C28.1519 13.7426 28.1785 13.807 28.2259 13.8544C28.2734 13.9019 28.3377 13.9285 28.4048 13.9285ZM40.6098 7.07963C39.834 7.64289 39.1519 8.32499 38.5886 9.10077C38.5633 9.13587 38.53 9.16445 38.4914 9.18417C38.4529 9.20388 38.4102 9.21418 38.3669 9.2142C38.3237 9.21422 38.281 9.20396 38.2424 9.18428C38.2039 9.1646 38.1705 9.13605 38.1452 9.10097C37.581 8.3253 36.8984 7.64316 36.1224 7.07953C36.0873 7.05419 36.0587 7.02088 36.039 6.98234C36.0193 6.9438 36.009 6.90114 36.009 6.85785C36.009 6.81456 36.0192 6.77188 36.0389 6.73333C36.0586 6.69477 36.0871 6.66144 36.1222 6.63606C36.8981 6.07156 37.5807 5.38896 38.1452 4.6131C38.1705 4.57803 38.2039 4.54948 38.2424 4.52979C38.281 4.51011 38.3237 4.49986 38.3669 4.49988C38.4102 4.4999 38.4529 4.51019 38.4914 4.52991C38.53 4.54963 38.5633 4.57821 38.5886 4.6133C39.1522 5.38936 39.8344 6.07195 40.6101 6.63606C40.6452 6.66144 40.6737 6.69479 40.6934 6.73336C40.7131 6.77193 40.7233 6.81462 40.7233 6.85792C40.7233 6.90123 40.713 6.94391 40.6932 6.98245C40.6735 7.02099 40.6449 7.0543 40.6098 7.07963ZM9.14346 15.7967C8.10905 16.5477 7.19958 17.4571 6.44857 18.4916C6.41478 18.5384 6.37038 18.5765 6.319 18.6028C6.26761 18.6291 6.21072 18.6428 6.153 18.6428C6.09528 18.6429 6.03838 18.6292 5.98697 18.6029C5.93556 18.5767 5.89111 18.5386 5.85728 18.4919C5.10513 17.4576 4.19501 16.5481 3.16027 15.7967C3.11346 15.7629 3.07535 15.7185 3.04905 15.6671C3.02275 15.6157 3.00902 15.5588 3.00899 15.5011C3.00896 15.4434 3.02263 15.3865 3.04888 15.3351C3.07512 15.2837 3.11319 15.2392 3.15996 15.2054C4.19449 14.4527 5.10464 13.5426 5.85728 12.5081C5.89111 12.4613 5.93556 12.4232 5.98697 12.397C6.03838 12.3707 6.09528 12.3571 6.153 12.3571C6.21072 12.3571 6.26761 12.3708 6.319 12.3971C6.37038 12.4234 6.41478 12.4616 6.44857 12.5084C7.20007 13.5431 8.10957 14.4532 9.14376 15.2054C9.19051 15.2392 9.22856 15.2837 9.25479 15.3351C9.28103 15.3865 9.29469 15.4434 9.29466 15.5011C9.29463 15.5588 9.28091 15.6157 9.25462 15.6671C9.22834 15.7185 9.19024 15.7629 9.14346 15.7967ZM35.756 37.5H31.5476C31.4805 37.5 31.4162 37.4733 31.3688 37.4259C31.3213 37.3784 31.2947 37.3141 31.2947 37.247V34.6101C31.2947 34.543 31.3213 34.4787 31.3688 34.4312C31.4162 34.3838 31.4805 34.3572 31.5476 34.3572H35.756C35.8231 34.3572 35.8875 34.3838 35.9349 34.4312C35.9823 34.4787 36.009 34.543 36.009 34.6101V37.247C36.009 37.3141 35.9823 37.3784 35.9349 37.4259C35.8875 37.4733 35.8231 37.5 35.756 37.5Z" stroke="#52006A" stroke-width="1.51768" stroke-miterlimit="10" stroke-linecap="round" stroke-linejoin="round"/>
</svg>
