<svg width="53" height="52" viewBox="0 0 53 52" fill="none" xmlns="http://www.w3.org/2000/svg">
<path d="M26.4999 12.1875C25.5249 12.1875 24.6588 12.6279 24.0624 13.3104L19.926 11.2418C19.9731 11.0224 19.9999 10.7957 19.9999 10.5625C19.9999 8.77012 18.5423 7.3125 16.7499 7.3125C14.9575 7.3125 13.4999 8.77012 13.4999 10.5625C13.4999 11.2921 13.7502 11.9592 14.158 12.5019L8.32754 19.7901C7.92129 19.6073 7.47442 19.5 7.00073 19.5C5.20836 19.5 3.75073 20.9576 3.75073 22.75C3.75073 24.5424 5.20836 26 7.00073 26C8.79311 26 10.2507 24.5424 10.2507 22.75C10.2507 22.0204 10.0005 21.3533 9.59261 20.8106L15.4231 13.5224C15.8294 13.7052 16.277 13.8125 16.7507 13.8125C17.7257 13.8125 18.5919 13.3721 19.1882 12.6896L23.3247 14.7582C23.2775 14.9776 23.2507 15.2043 23.2507 15.4375C23.2507 17.2299 24.7084 18.6875 26.5007 18.6875C28.2931 18.6875 29.7507 17.2299 29.7507 15.4375C29.7507 14.7469 29.5305 14.1091 29.1617 13.5817L34.828 6.97044C35.2595 7.1825 35.738 7.3125 36.2499 7.3125C37.4792 7.3125 38.5379 6.61863 39.0896 5.61031L42.7524 6.526C42.7662 8.30619 44.2165 9.75 45.9999 9.75C47.7834 9.75 49.2499 8.29238 49.2499 6.5C49.2499 4.70762 47.7923 3.25 45.9999 3.25C44.7714 3.25 43.7119 3.94387 43.1602 4.95219L39.4975 4.0365C39.4829 2.25631 38.0334 0.8125 36.2499 0.8125C34.4665 0.8125 32.9999 2.27012 32.9999 4.0625C32.9999 4.75312 33.2201 5.39175 33.589 5.91825L27.9226 12.5296C27.4912 12.3175 27.0126 12.1875 26.4999 12.1875ZM6.99992 24.375C6.10373 24.375 5.37492 23.6462 5.37492 22.75C5.37492 21.8538 6.10373 21.125 6.99992 21.125C7.89611 21.125 8.62492 21.8538 8.62492 22.75C8.62492 23.6462 7.89611 24.375 6.99992 24.375ZM16.7499 12.1875C15.8537 12.1875 15.1249 11.4587 15.1249 10.5625C15.1249 9.66631 15.8537 8.9375 16.7499 8.9375C17.6461 8.9375 18.3749 9.66631 18.3749 10.5625C18.3749 11.4587 17.6461 12.1875 16.7499 12.1875ZM26.4999 17.0625C25.6037 17.0625 24.8749 16.3337 24.8749 15.4375C24.8749 14.5413 25.6037 13.8125 26.4999 13.8125C27.3961 13.8125 28.1249 14.5413 28.1249 15.4375C28.1249 16.3337 27.3961 17.0625 26.4999 17.0625ZM45.9999 4.875C46.8961 4.875 47.6249 5.60381 47.6249 6.5C47.6249 7.39619 46.8961 8.125 45.9999 8.125C45.1037 8.125 44.3749 7.39619 44.3749 6.5C44.3749 5.60381 45.1037 4.875 45.9999 4.875ZM36.2499 2.4375C37.1461 2.4375 37.8749 3.16631 37.8749 4.0625C37.8749 4.95869 37.1461 5.6875 36.2499 5.6875C35.3537 5.6875 34.6249 4.95869 34.6249 4.0625C34.6249 3.16631 35.3537 2.4375 36.2499 2.4375Z" fill="#52006A"/>
<path d="M20 40.625C24.4801 40.625 28.125 36.9802 28.125 32.5C28.125 28.0199 24.4801 24.375 20 24.375C15.5199 24.375 11.875 28.0199 11.875 32.5C11.875 36.9802 15.5199 40.625 20 40.625ZM20 39C17.6007 39 15.5053 37.6895 14.3791 35.75H25.6201C24.4939 37.6895 22.4001 39 20 39ZM26.5 32.5C26.5 33.0623 26.4212 33.6042 26.2863 34.125H24.875V28.2149C25.8833 29.3605 26.5 30.858 26.5 32.5ZM23.25 26.8792V34.125H16.75V26.8792C17.7071 26.3234 18.8154 26 20 26C21.1846 26 22.2929 26.3234 23.25 26.8792ZM15.125 28.2149V34.125H13.7137C13.5788 33.6042 13.5 33.0623 13.5 32.5C13.5 30.858 14.1167 29.3605 15.125 28.2149Z" fill="#52006A"/>
<path d="M4.77131 51.1876C5.92994 51.1876 7.00569 50.6123 7.64919 49.6471L11.3233 44.1359C11.5037 44.1895 11.6881 44.2252 11.875 44.2252C12.3674 44.2252 12.8606 44.0384 13.2351 43.663L14.4677 42.4304C16.1065 43.3469 17.9915 43.8751 19.9992 43.8751C25.1415 43.8751 29.4924 40.4422 30.8948 35.7501H50.8742V34.1251H50.0617V15.4376C50.0617 14.9891 49.6977 14.6251 49.2492 14.6251H42.7492C42.3007 14.6251 41.9367 14.9891 41.9367 15.4376V34.1251H40.3117V20.3479H38.6867V34.1251H33.8117V13.8126H38.6867V21.1251H40.3117V13.0001C40.3117 12.5516 39.9477 12.1876 39.4992 12.1876H32.9992C32.5507 12.1876 32.1867 12.5516 32.1867 13.0001V34.1251H31.2442C31.3206 33.5929 31.3742 33.0534 31.3742 32.5001C31.3742 27.66 28.3306 23.5284 24.0617 21.888V18.6876C24.0617 18.2391 23.6977 17.8751 23.2492 17.8751H16.7492C16.3007 17.8751 15.9367 18.2391 15.9367 18.6876V21.888C13.2075 22.9361 10.9886 25.0031 9.73731 27.6251H3.75C3.3015 27.6251 2.9375 27.9891 2.9375 28.4376V34.1251H2.125V35.7501H9.10438C9.34406 36.5512 9.66906 37.3149 10.0696 38.0316L8.83219 39.269C8.31544 39.7857 8.16431 40.5235 8.36175 41.1784L2.853 44.8509C1.88856 45.4944 1.3125 46.5701 1.3125 47.7287C1.3125 49.6357 2.86437 51.1876 4.77131 51.1876ZM43.5625 16.2501H48.4375V34.1251H43.5625V16.2501ZM17.5625 19.5001H22.4375V21.3948C21.651 21.2226 20.8369 21.1251 20 21.1251C19.1631 21.1251 18.349 21.2226 17.5625 21.3948V19.5001ZM20 22.7501C25.3763 22.7501 29.75 27.1237 29.75 32.5001C29.75 37.8764 25.3763 42.2501 20 42.2501C14.6237 42.2501 10.25 37.8764 10.25 32.5001C10.25 27.1237 14.6237 22.7501 20 22.7501ZM4.5625 34.1251V29.2501H9.10438C8.79644 30.2811 8.625 31.3707 8.625 32.5001C8.625 33.0534 8.67781 33.5929 8.755 34.1251H4.5625ZM9.98106 40.4179L10.9869 39.412C11.5939 40.2009 12.2991 40.9062 13.0881 41.5131L12.0863 42.5149C11.9335 42.6677 11.8157 42.6677 11.6629 42.5149L9.98025 40.8322C9.9055 40.7575 9.89494 40.6706 9.89494 40.6251C9.89494 40.5796 9.90712 40.4926 9.98106 40.4179ZM3.75406 46.2029L9.33431 42.4832L10.0176 43.1666L6.298 48.7468C5.95756 49.2579 5.38637 49.5634 4.77213 49.5634C3.76056 49.5634 2.93831 48.7411 2.93831 47.7296C2.93831 47.1153 3.243 46.5449 3.75487 46.2037L3.75406 46.2029Z" fill="#52006A"/>
</svg>
