<svg width="54" height="50" viewBox="0 0 54 50" fill="none" xmlns="http://www.w3.org/2000/svg">
<path d="M29.2988 25.2343C29.3607 25.2343 29.4201 25.2097 29.4639 25.1659C29.5077 25.1221 29.5323 25.0627 29.5323 25.0008C29.5323 24.9388 29.5077 24.8794 29.4639 24.8356C29.4201 24.7918 29.3607 24.7672 29.2988 24.7672C29.2369 24.7672 29.1775 24.7918 29.1337 24.8356C29.0899 24.8794 29.0652 24.9388 29.0652 25.0008C29.0652 25.0627 29.0899 25.1221 29.1337 25.1659L29.2988 25.0008L29.1337 25.1659C29.1775 25.2097 29.2369 25.2343 29.2988 25.2343Z" fill="#52006A" stroke="#52006A" stroke-width="2"/>
<path d="M29.2988 39.1326C29.3607 39.1326 29.4201 39.108 29.4639 39.0642C29.5077 39.0204 29.5323 38.961 29.5323 38.899C29.5323 38.8371 29.5077 38.7777 29.4639 38.7339C29.4201 38.6901 29.3607 38.6655 29.2988 38.6655C29.2369 38.6655 29.1775 38.6901 29.1337 38.7339C29.0899 38.7777 29.0652 38.8371 29.0652 38.899C29.0652 38.961 29.0899 39.0204 29.1337 39.0642L29.2988 38.899L29.1337 39.0642C29.1775 39.108 29.2369 39.1326 29.2988 39.1326Z" fill="#52006A" stroke="#52006A" stroke-width="2"/>
<mask id="path-3-inside-1_3791_10865" fill="white">
<path d="M22.7329 36.3732C22.6457 36.3221 22.5493 36.2887 22.4491 36.275C22.349 36.2613 22.2471 36.2676 22.1494 36.2934C22.0517 36.3193 21.96 36.3642 21.8797 36.4256C21.7994 36.487 21.7321 36.5637 21.6815 36.6512C21.631 36.7387 21.5983 36.8354 21.5853 36.9356C21.5722 37.0359 21.5791 37.1377 21.6056 37.2352C21.6321 37.3328 21.6776 37.4241 21.7396 37.504C21.8015 37.5839 21.8786 37.6507 21.9665 37.7007C22.1424 37.8007 22.3508 37.8271 22.5461 37.7741C22.7414 37.7211 22.9079 37.5929 23.0091 37.4177C23.1103 37.2424 23.138 37.0342 23.0863 36.8385C23.0346 36.6428 22.9075 36.4756 22.7329 36.3732Z"/>
</mask>
<path d="M22.7329 36.3732C22.6457 36.3221 22.5493 36.2887 22.4491 36.275C22.349 36.2613 22.2471 36.2676 22.1494 36.2934C22.0517 36.3193 21.96 36.3642 21.8797 36.4256C21.7994 36.487 21.7321 36.5637 21.6815 36.6512C21.631 36.7387 21.5983 36.8354 21.5853 36.9356C21.5722 37.0359 21.5791 37.1377 21.6056 37.2352C21.6321 37.3328 21.6776 37.4241 21.7396 37.504C21.8015 37.5839 21.8786 37.6507 21.9665 37.7007C22.1424 37.8007 22.3508 37.8271 22.5461 37.7741C22.7414 37.7211 22.9079 37.5929 23.0091 37.4177C23.1103 37.2424 23.138 37.0342 23.0863 36.8385C23.0346 36.6428 22.9075 36.4756 22.7329 36.3732Z" fill="#52006A"/>
<path d="M22.7329 36.3732L21.7214 38.0986L21.7214 38.0986L22.7329 36.3732ZM21.9665 37.7007L22.955 35.9621L21.9665 37.7007ZM21.7214 38.0986C21.8618 38.1809 22.017 38.2346 22.1782 38.2566L22.7201 34.2935C23.0816 34.3429 23.4297 34.4633 23.7444 34.6479L21.7214 38.0986ZM22.1782 38.2566C22.3394 38.2786 22.5033 38.2686 22.6606 38.227L21.6382 34.3599C21.9909 34.2666 22.3586 34.2441 22.7201 34.2935L22.1782 38.2566ZM22.6606 38.227C22.8179 38.1854 22.9654 38.1131 23.0946 38.0143L20.6649 34.8368C20.9547 34.6152 21.2855 34.4531 21.6382 34.3599L22.6606 38.227ZM23.0946 38.0143C23.2238 37.9155 23.3322 37.7921 23.4136 37.6512L19.9495 35.6512C20.1319 35.3352 20.3751 35.0585 20.6649 34.8368L23.0946 38.0143ZM23.4136 37.6512C23.4949 37.5103 23.5476 37.3547 23.5686 37.1934L19.6019 36.6778C19.649 36.316 19.7671 35.9671 19.9495 35.6512L23.4136 37.6512ZM23.5686 37.1934C23.5895 37.0321 23.5784 36.8682 23.5358 36.7112L19.6755 37.7593C19.5799 37.4072 19.5549 37.0396 19.6019 36.6778L23.5686 37.1934ZM23.5358 36.7112C23.4931 36.5542 23.4199 36.4072 23.3202 36.2786L20.1589 38.7294C19.9354 38.4411 19.7711 38.1113 19.6755 37.7593L23.5358 36.7112ZM23.3202 36.2786C23.2205 36.1501 23.0964 36.0425 22.955 35.9621L20.978 39.4393C20.6608 39.259 20.3825 39.0177 20.1589 38.7294L23.3202 36.2786ZM22.955 35.9621C22.6718 35.8011 22.3365 35.7586 22.0221 35.844L23.0701 39.7042C22.3651 39.8956 21.613 39.8004 20.978 39.4393L22.955 35.9621ZM22.0221 35.844C21.7077 35.9293 21.4399 36.1355 21.277 36.4176L24.7411 38.4177C24.3758 39.0503 23.7751 39.5128 23.0701 39.7042L22.0221 35.844ZM21.277 36.4176C21.1142 36.6997 21.0695 37.0348 21.1527 37.3497L25.0199 36.3273C25.2066 37.0336 25.1064 37.785 24.7411 38.4177L21.277 36.4176ZM21.1527 37.3497C21.236 37.6646 21.4404 37.9338 21.7214 38.0986L23.7444 34.6479C24.3746 35.0173 24.8331 35.6211 25.0199 36.3273L21.1527 37.3497Z" fill="#52006A" mask="url(#path-3-inside-1_3791_10865)"/>
<mask id="path-5-inside-2_3791_10865" fill="white">
<path d="M36.6312 12.3008C36.544 12.2497 36.4476 12.2163 36.3475 12.2026C36.2473 12.1889 36.1454 12.1952 36.0477 12.221C35.95 12.2469 35.8583 12.2918 35.7781 12.3532C35.6978 12.4146 35.6304 12.4912 35.5799 12.5788C35.5293 12.6663 35.4966 12.763 35.4836 12.8632C35.4705 12.9634 35.4775 13.0653 35.5039 13.1628C35.5304 13.2604 35.5759 13.3517 35.6379 13.4316C35.6998 13.5115 35.7769 13.5783 35.8648 13.6283C36.0407 13.7283 36.2491 13.7547 36.4444 13.7017C36.6398 13.6486 36.8062 13.5205 36.9074 13.3452C37.0086 13.17 37.0363 12.9618 36.9846 12.7661C36.9329 12.5704 36.8059 12.4032 36.6312 12.3008Z"/>
</mask>
<path d="M36.6312 12.3008C36.544 12.2497 36.4476 12.2163 36.3475 12.2026C36.2473 12.1889 36.1454 12.1952 36.0477 12.221C35.95 12.2469 35.8583 12.2918 35.7781 12.3532C35.6978 12.4146 35.6304 12.4912 35.5799 12.5788C35.5293 12.6663 35.4966 12.763 35.4836 12.8632C35.4705 12.9634 35.4775 13.0653 35.5039 13.1628C35.5304 13.2604 35.5759 13.3517 35.6379 13.4316C35.6998 13.5115 35.7769 13.5783 35.8648 13.6283C36.0407 13.7283 36.2491 13.7547 36.4444 13.7017C36.6398 13.6486 36.8062 13.5205 36.9074 13.3452C37.0086 13.17 37.0363 12.9618 36.9846 12.7661C36.9329 12.5704 36.8059 12.4032 36.6312 12.3008Z" fill="#52006A"/>
<path d="M36.6312 12.3008L35.6198 14.0262L35.6198 14.0262L36.6312 12.3008ZM35.8648 13.6283L36.8533 11.8897L35.8648 13.6283ZM35.6198 14.0262C35.7601 14.1084 35.9153 14.1621 36.0765 14.1842L36.6184 10.2211C36.9799 10.2705 37.328 10.3909 37.6427 10.5754L35.6198 14.0262ZM36.0765 14.1842C36.2377 14.2062 36.4016 14.1962 36.5589 14.1546L35.5365 10.2875C35.8892 10.1942 36.2569 10.1716 36.6184 10.2211L36.0765 14.1842ZM36.5589 14.1546C36.7162 14.113 36.8637 14.0407 36.9929 13.9419L34.5632 10.7644C34.853 10.5428 35.1838 10.3807 35.5365 10.2875L36.5589 14.1546ZM36.9929 13.9419C37.1222 13.8431 37.2306 13.7197 37.3119 13.5788L33.8478 11.5787C34.0302 11.2628 34.2734 10.986 34.5632 10.7644L36.9929 13.9419ZM37.3119 13.5788C37.3932 13.4379 37.4459 13.2823 37.4669 13.121L33.5002 12.6054C33.5473 12.2436 33.6654 11.8947 33.8478 11.5787L37.3119 13.5788ZM37.4669 13.121C37.4879 12.9597 37.4767 12.7958 37.4341 12.6388L33.5738 13.6868C33.4782 13.3347 33.4532 12.9672 33.5002 12.6054L37.4669 13.121ZM37.4341 12.6388C37.3915 12.4818 37.3182 12.3348 37.2185 12.2062L34.0572 14.657C33.8337 14.3686 33.6694 14.0389 33.5738 13.6868L37.4341 12.6388ZM37.2185 12.2062C37.1189 12.0776 36.9947 11.9701 36.8533 11.8897L34.8763 15.3669C34.5591 15.1866 34.2808 14.9453 34.0572 14.657L37.2185 12.2062ZM36.8533 11.8897C36.5701 11.7287 36.2348 11.6862 35.9204 11.7715L36.9685 15.6318C36.2634 15.8232 35.5113 15.728 34.8763 15.3669L36.8533 11.8897ZM35.9204 11.7715C35.6061 11.8569 35.3382 12.0631 35.1753 12.3452L38.6394 14.3453C38.2741 14.9779 37.6735 15.4404 36.9685 15.6318L35.9204 11.7715ZM35.1753 12.3452C35.0125 12.6273 34.9678 12.9624 35.051 13.2773L38.9182 12.2549C39.1049 12.9612 39.0047 13.7126 38.6394 14.3453L35.1753 12.3452ZM35.051 13.2773C35.1343 13.5922 35.3387 13.8614 35.6198 14.0262L37.6427 10.5754C38.273 10.9449 38.7315 11.5486 38.9182 12.2549L35.051 13.2773Z" fill="#52006A" mask="url(#path-5-inside-2_3791_10865)"/>
<mask id="path-7-inside-3_3791_10865" fill="white">
<path d="M41.9988 17.6684C41.9488 17.5805 41.882 17.5034 41.8021 17.4415C41.7222 17.3795 41.6309 17.334 41.5333 17.3075C41.4358 17.2811 41.3339 17.2741 41.2337 17.2872C41.1335 17.3002 41.0368 17.3329 40.9493 17.3834C40.8617 17.434 40.785 17.5013 40.7236 17.5816C40.6622 17.6619 40.6173 17.7536 40.5915 17.8513C40.5657 17.949 40.5594 18.0509 40.5731 18.151C40.5868 18.2512 40.6202 18.3476 40.6713 18.4348C40.7736 18.6094 40.9409 18.7365 41.1366 18.7882C41.3323 18.8399 41.5404 18.8122 41.7157 18.711C41.891 18.6098 42.0191 18.4433 42.0722 18.248C42.1252 18.0527 42.0988 17.8443 41.9988 17.6684Z"/>
</mask>
<path d="M41.9988 17.6684C41.9488 17.5805 41.882 17.5034 41.8021 17.4415C41.7222 17.3795 41.6309 17.334 41.5333 17.3075C41.4358 17.2811 41.3339 17.2741 41.2337 17.2872C41.1335 17.3002 41.0368 17.3329 40.9493 17.3834C40.8617 17.434 40.785 17.5013 40.7236 17.5816C40.6622 17.6619 40.6173 17.7536 40.5915 17.8513C40.5657 17.949 40.5594 18.0509 40.5731 18.151C40.5868 18.2512 40.6202 18.3476 40.6713 18.4348C40.7736 18.6094 40.9409 18.7365 41.1366 18.7882C41.3323 18.8399 41.5404 18.8122 41.7157 18.711C41.891 18.6098 42.0191 18.4433 42.0722 18.248C42.1252 18.0527 42.0988 17.8443 41.9988 17.6684Z" fill="#52006A"/>
<path d="M41.9988 17.6684L40.2601 18.6569L41.9988 17.6684ZM40.6713 18.4348L42.3967 17.4233H42.3967L40.6713 18.4348ZM40.2601 18.6569C40.3405 18.7983 40.4481 18.9224 40.5767 19.0221L43.0275 15.8608C43.3158 16.0844 43.5571 16.3627 43.7374 16.6799L40.2601 18.6569ZM40.5767 19.0221C40.7053 19.1218 40.8523 19.195 41.0093 19.2377L42.0573 15.3774C42.4094 15.473 42.7391 15.6373 43.0275 15.8608L40.5767 19.0221ZM41.0093 19.2377C41.1663 19.2803 41.3302 19.2914 41.4915 19.2705L40.9759 15.3038C41.3377 15.2568 41.7052 15.2818 42.0573 15.3774L41.0093 19.2377ZM41.4915 19.2705C41.6528 19.2495 41.8084 19.1968 41.9493 19.1155L39.9492 15.6514C40.2652 15.469 40.6141 15.3509 40.9759 15.3038L41.4915 19.2705ZM41.9493 19.1155C42.0902 19.0341 42.2136 18.9257 42.3124 18.7965L39.1349 16.3668C39.3565 16.077 39.6333 15.8338 39.9492 15.6514L41.9493 19.1155ZM42.3124 18.7965C42.4112 18.6673 42.4835 18.5198 42.5251 18.3625L38.6579 17.3401C38.7512 16.9874 38.9133 16.6566 39.1349 16.3668L42.3124 18.7965ZM42.5251 18.3625C42.5666 18.2052 42.5767 18.0413 42.5547 17.8801L38.5915 18.422C38.5421 18.0605 38.5647 17.6928 38.6579 17.3401L42.5251 18.3625ZM42.5547 17.8801C42.5326 17.7189 42.4789 17.5637 42.3967 17.4233L38.9459 19.4463C38.7614 19.1316 38.641 18.7835 38.5915 18.422L42.5547 17.8801ZM42.3967 17.4233C42.2319 17.1423 41.9627 16.9379 41.6478 16.8546L40.6254 20.7218C39.9191 20.535 39.3154 20.0765 38.9459 19.4463L42.3967 17.4233ZM41.6478 16.8546C41.3329 16.7714 40.9978 16.8161 40.7157 16.9789L42.7157 20.443C42.0831 20.8083 41.3316 20.9085 40.6254 20.7218L41.6478 16.8546ZM40.7157 16.9789C40.4336 17.1418 40.2274 17.4096 40.142 17.724L44.0023 18.772C43.8109 19.4771 43.3484 20.0777 42.7157 20.443L40.7157 16.9789ZM40.142 17.724C40.0567 18.0384 40.0991 18.3737 40.2601 18.6569L43.7374 16.6799C44.0985 17.3149 44.1937 18.067 44.0023 18.772L40.142 17.724Z" fill="#52006A" mask="url(#path-7-inside-3_3791_10865)"/>
<mask id="path-9-inside-4_3791_10865" fill="white">
<path d="M17.9264 31.5667C17.8764 31.4788 17.8096 31.4017 17.7297 31.3398C17.6498 31.2778 17.5585 31.2323 17.4609 31.2058C17.3634 31.1793 17.2615 31.1724 17.1613 31.1854C17.0611 31.1985 16.9644 31.2312 16.8769 31.2817C16.7893 31.3323 16.7127 31.3996 16.6513 31.4799C16.5899 31.5602 16.5449 31.6519 16.5191 31.7496C16.4933 31.8473 16.487 31.9492 16.5007 32.0493C16.5144 32.1495 16.5478 32.2459 16.5989 32.3331C16.7013 32.5077 16.8685 32.6348 17.0642 32.6865C17.2599 32.7382 17.4681 32.7105 17.6433 32.6093C17.8186 32.5081 17.9467 32.3416 17.9998 32.1463C18.0528 31.951 18.0264 31.7426 17.9264 31.5667Z"/>
</mask>
<path d="M17.9264 31.5667C17.8764 31.4788 17.8096 31.4017 17.7297 31.3398C17.6498 31.2778 17.5585 31.2323 17.4609 31.2058C17.3634 31.1793 17.2615 31.1724 17.1613 31.1854C17.0611 31.1985 16.9644 31.2312 16.8769 31.2817C16.7893 31.3323 16.7127 31.3996 16.6513 31.4799C16.5899 31.5602 16.5449 31.6519 16.5191 31.7496C16.4933 31.8473 16.487 31.9492 16.5007 32.0493C16.5144 32.1495 16.5478 32.2459 16.5989 32.3331C16.7013 32.5077 16.8685 32.6348 17.0642 32.6865C17.2599 32.7382 17.4681 32.7105 17.6433 32.6093C17.8186 32.5081 17.9467 32.3416 17.9998 32.1463C18.0528 31.951 18.0264 31.7426 17.9264 31.5667Z" fill="#52006A"/>
<path d="M17.9264 31.5667L16.1878 32.5552L17.9264 31.5667ZM16.5989 32.3331L18.3243 31.3216H18.3243L16.5989 32.3331ZM16.1878 32.5552C16.2682 32.6966 16.3757 32.8207 16.5043 32.9204L18.9551 29.7591C19.2434 29.9826 19.4847 30.261 19.665 30.5782L16.1878 32.5552ZM16.5043 32.9204C16.6329 33.0201 16.7799 33.0933 16.9369 33.136L17.9849 29.2757C18.337 29.3713 18.6667 29.5356 18.9551 29.7591L16.5043 32.9204ZM16.9369 33.136C17.0939 33.1786 17.2578 33.1897 17.4191 33.1688L16.9035 29.2021C17.2653 29.1551 17.6328 29.1801 17.9849 29.2757L16.9369 33.136ZM17.4191 33.1688C17.5804 33.1478 17.736 33.0951 17.8769 33.0138L15.8768 29.5497C16.1928 29.3673 16.5417 29.2491 16.9035 29.2021L17.4191 33.1688ZM17.8769 33.0138C18.0178 32.9324 18.1412 32.824 18.24 32.6948L15.0625 30.2651C15.2841 29.9752 15.5609 29.7321 15.8768 29.5497L17.8769 33.0138ZM18.24 32.6948C18.3388 32.5656 18.4111 32.4181 18.4527 32.2608L14.5855 31.2384C14.6788 30.8857 14.8409 30.5549 15.0625 30.2651L18.24 32.6948ZM18.4527 32.2608C18.4943 32.1035 18.5043 31.9396 18.4823 31.7784L14.5192 32.3203C14.4697 31.9588 14.4923 31.5911 14.5855 31.2384L18.4527 32.2608ZM18.4823 31.7784C18.4602 31.6172 18.4065 31.462 18.3243 31.3216L14.8735 33.3446C14.689 33.0299 14.5686 32.6817 14.5192 32.3203L18.4823 31.7784ZM18.3243 31.3216C18.1595 31.0406 17.8903 30.8362 17.5754 30.7529L16.553 34.62C15.8467 34.4333 15.243 33.9748 14.8735 33.3446L18.3243 31.3216ZM17.5754 30.7529C17.2605 30.6697 16.9254 30.7143 16.6433 30.8772L18.6434 34.3413C18.0107 34.7066 17.2593 34.8068 16.553 34.62L17.5754 30.7529ZM16.6433 30.8772C16.3612 31.0401 16.155 31.3079 16.0696 31.6223L19.9299 32.6703C19.7385 33.3753 19.276 33.976 18.6434 34.3413L16.6433 30.8772ZM16.0696 31.6223C15.9843 31.9367 16.0268 32.272 16.1878 32.5552L19.665 30.5782C20.0261 31.2132 20.1213 31.9653 19.9299 32.6703L16.0696 31.6223Z" fill="#52006A" mask="url(#path-9-inside-4_3791_10865)"/>
<path d="M42.9636 25.0008C42.9636 25.0627 42.9882 25.1221 43.032 25.1659L43.1971 25.0008L43.032 25.1659C43.0758 25.2097 43.1352 25.2343 43.1971 25.2343C43.2591 25.2343 43.3185 25.2097 43.3623 25.1659C43.4061 25.1221 43.4307 25.0627 43.4307 25.0008C43.4307 24.9388 43.4061 24.8794 43.3623 24.8356C43.3185 24.7918 43.2591 24.7672 43.1971 24.7672C43.1352 24.7672 43.0758 24.7918 43.032 24.8356C42.9882 24.8794 42.9636 24.9388 42.9636 25.0008Z" fill="#52006A" stroke="#52006A" stroke-width="2"/>
<mask id="path-12-inside-5_3791_10865" fill="white">
<path d="M41.9988 32.3331C42.0499 32.2459 42.0833 32.1495 42.097 32.0493C42.1107 31.9492 42.1044 31.8473 42.0786 31.7496C42.0528 31.6519 42.0079 31.5602 41.9465 31.4799C41.8851 31.3996 41.8084 31.3323 41.7209 31.2817C41.6333 31.2312 41.5366 31.1985 41.4364 31.1854C41.3362 31.1724 41.2343 31.1793 41.1368 31.2058C41.0393 31.2323 40.9479 31.2778 40.868 31.3398C40.7881 31.4017 40.7213 31.4788 40.6713 31.5667C40.5713 31.7426 40.5449 31.951 40.5979 32.1463C40.651 32.3416 40.7791 32.5081 40.9544 32.6093C41.1297 32.7105 41.3379 32.7382 41.5335 32.6865C41.7292 32.6348 41.8965 32.5077 41.9988 32.3331Z"/>
</mask>
<path d="M41.9988 32.3331C42.0499 32.2459 42.0833 32.1495 42.097 32.0493C42.1107 31.9492 42.1044 31.8473 42.0786 31.7496C42.0528 31.6519 42.0079 31.5602 41.9465 31.4799C41.8851 31.3996 41.8084 31.3323 41.7209 31.2817C41.6333 31.2312 41.5366 31.1985 41.4364 31.1854C41.3362 31.1724 41.2343 31.1793 41.1368 31.2058C41.0393 31.2323 40.9479 31.2778 40.868 31.3398C40.7881 31.4017 40.7213 31.4788 40.6713 31.5667C40.5713 31.7426 40.5449 31.951 40.5979 32.1463C40.651 32.3416 40.7791 32.5081 40.9544 32.6093C41.1297 32.7105 41.3379 32.7382 41.5335 32.6865C41.7292 32.6348 41.8965 32.5077 41.9988 32.3331Z" fill="#52006A"/>
<path d="M41.9988 32.3331L40.2735 31.3216H40.2735L41.9988 32.3331ZM40.6713 31.5667L42.41 32.5552L40.6713 31.5667ZM40.2735 31.3216C40.1912 31.462 40.1375 31.6172 40.1154 31.7784L44.0786 32.3203C44.0291 32.6817 43.9087 33.0299 43.7242 33.3446L40.2735 31.3216ZM40.1154 31.7784C40.0934 31.9396 40.1035 32.1035 40.145 32.2608L44.0122 31.2384C44.1054 31.5911 44.128 31.9588 44.0786 32.3203L40.1154 31.7784ZM40.145 32.2608C40.1866 32.4181 40.2589 32.5656 40.3577 32.6948L43.5352 30.2651C43.7568 30.5549 43.9189 30.8857 44.0122 31.2384L40.145 32.2608ZM40.3577 32.6948C40.4565 32.824 40.5799 32.9324 40.7208 33.0138L42.7209 29.5497C43.0368 29.7321 43.3136 29.9752 43.5352 30.2651L40.3577 32.6948ZM40.7208 33.0138C40.8617 33.0951 41.0173 33.1478 41.1786 33.1688L41.6942 29.2021C42.056 29.2491 42.4049 29.3673 42.7209 29.5497L40.7208 33.0138ZM41.1786 33.1688C41.3399 33.1897 41.5038 33.1786 41.6608 33.136L40.6128 29.2757C40.9649 29.1801 41.3324 29.1551 41.6942 29.2021L41.1786 33.1688ZM41.6608 33.136C41.8178 33.0933 41.9648 33.0201 42.0934 32.9204L39.6426 29.7591C39.931 29.5356 40.2607 29.3713 40.6128 29.2757L41.6608 33.136ZM42.0934 32.9204C42.222 32.8207 42.3296 32.6966 42.41 32.5552L38.9327 30.5782C39.113 30.261 39.3543 29.9826 39.6426 29.7591L42.0934 32.9204ZM42.41 32.5552C42.571 32.272 42.6134 31.9367 42.5281 31.6223L38.6678 32.6703C38.4764 31.9653 38.5716 31.2132 38.9327 30.5782L42.41 32.5552ZM42.5281 31.6223C42.4427 31.3079 42.2365 31.0401 41.9544 30.8772L39.9544 34.3413C39.3217 33.976 38.8592 33.3753 38.6678 32.6703L42.5281 31.6223ZM41.9544 30.8772C41.6723 30.7143 41.3372 30.6697 41.0223 30.7529L42.0447 34.62C41.3385 34.8068 40.587 34.7066 39.9544 34.3413L41.9544 30.8772ZM41.0223 30.7529C40.7074 30.8362 40.4382 31.0406 40.2735 31.3216L43.7242 33.3446C43.3547 33.9748 42.751 34.4333 42.0447 34.62L41.0223 30.7529Z" fill="#52006A" mask="url(#path-12-inside-5_3791_10865)"/>
<mask id="path-14-inside-6_3791_10865" fill="white">
<path d="M17.9263 18.4348C17.9774 18.3476 18.0108 18.2512 18.0245 18.151C18.0382 18.0509 18.0319 17.949 18.0061 17.8513C17.9803 17.7536 17.9354 17.6619 17.874 17.5816C17.8126 17.5013 17.7359 17.434 17.6483 17.3834C17.5608 17.3329 17.4641 17.3002 17.3639 17.2872C17.2637 17.2741 17.1618 17.2811 17.0643 17.3075C16.9667 17.334 16.8754 17.3795 16.7955 17.4415C16.7156 17.5034 16.6488 17.5805 16.5988 17.6684C16.4988 17.8443 16.4724 18.0527 16.5254 18.248C16.5785 18.4433 16.7066 18.6098 16.8819 18.711C17.0572 18.8122 17.2653 18.8399 17.461 18.7882C17.6567 18.7365 17.824 18.6094 17.9263 18.4348Z"/>
</mask>
<path d="M17.9263 18.4348C17.9774 18.3476 18.0108 18.2512 18.0245 18.151C18.0382 18.0509 18.0319 17.949 18.0061 17.8513C17.9803 17.7536 17.9354 17.6619 17.874 17.5816C17.8126 17.5013 17.7359 17.434 17.6483 17.3834C17.5608 17.3329 17.4641 17.3002 17.3639 17.2872C17.2637 17.2741 17.1618 17.2811 17.0643 17.3075C16.9667 17.334 16.8754 17.3795 16.7955 17.4415C16.7156 17.5034 16.6488 17.5805 16.5988 17.6684C16.4988 17.8443 16.4724 18.0527 16.5254 18.248C16.5785 18.4433 16.7066 18.6098 16.8819 18.711C17.0572 18.8122 17.2653 18.8399 17.461 18.7882C17.6567 18.7365 17.824 18.6094 17.9263 18.4348Z" fill="#52006A"/>
<path d="M17.9263 18.4348L16.2009 17.4233H16.2009L17.9263 18.4348ZM16.5988 17.6684L18.3375 18.6569L16.5988 17.6684ZM16.2009 17.4233C16.1187 17.5637 16.065 17.7189 16.0429 17.8801L20.0061 18.422C19.9566 18.7835 19.8362 19.1316 19.6517 19.4463L16.2009 17.4233ZM16.0429 17.8801C16.0209 18.0413 16.031 18.2052 16.0725 18.3625L19.9397 17.3401C20.0329 17.6928 20.0555 18.0605 20.0061 18.422L16.0429 17.8801ZM16.0725 18.3625C16.1141 18.5198 16.1864 18.6673 16.2852 18.7965L19.4627 16.3668C19.6843 16.6566 19.8464 16.9874 19.9397 17.3401L16.0725 18.3625ZM16.2852 18.7965C16.384 18.9257 16.5074 19.0341 16.6483 19.1155L18.6484 15.6514C18.9643 15.8338 19.2411 16.077 19.4627 16.3668L16.2852 18.7965ZM16.6483 19.1155C16.7892 19.1968 16.9448 19.2495 17.1061 19.2705L17.6217 15.3038C17.9835 15.3509 18.3324 15.469 18.6484 15.6514L16.6483 19.1155ZM17.1061 19.2705C17.2674 19.2914 17.4313 19.2803 17.5883 19.2377L16.5403 15.3774C16.8924 15.2818 17.2599 15.2568 17.6217 15.3038L17.1061 19.2705ZM17.5883 19.2377C17.7453 19.195 17.8923 19.1218 18.0209 19.0221L15.5701 15.8608C15.8585 15.6373 16.1882 15.473 16.5403 15.3774L17.5883 19.2377ZM18.0209 19.0221C18.1495 18.9224 18.257 18.7983 18.3375 18.6569L14.8602 16.6799C15.0405 16.3627 15.2818 16.0844 15.5701 15.8608L18.0209 19.0221ZM18.3375 18.6569C18.4985 18.3737 18.5409 18.0384 18.4556 17.724L14.5953 18.772C14.4039 18.067 14.4991 17.3149 14.8602 16.6799L18.3375 18.6569ZM18.4556 17.724C18.3702 17.4096 18.164 17.1418 17.8819 16.9789L15.8819 20.443C15.2492 20.0777 14.7867 19.4771 14.5953 18.772L18.4556 17.724ZM17.8819 16.9789C17.5998 16.8161 17.2647 16.7714 16.9498 16.8546L17.9722 20.7218C17.266 20.9085 16.5145 20.8083 15.8819 20.443L17.8819 16.9789ZM16.9498 16.8546C16.6349 16.9379 16.3657 17.1423 16.2009 17.4233L19.6517 19.4463C19.2822 20.0765 18.6785 20.535 17.9722 20.7218L16.9498 16.8546Z" fill="#52006A" mask="url(#path-14-inside-6_3791_10865)"/>
<mask id="path-16-inside-7_3791_10865" fill="white">
<path d="M36.6312 37.7007C36.7191 37.6508 36.7962 37.5839 36.8582 37.504C36.9201 37.4242 36.9656 37.3328 36.9921 37.2353C37.0186 37.1377 37.0255 37.0359 37.0125 36.9357C36.9994 36.8354 36.9667 36.7388 36.9162 36.6512C36.8656 36.5637 36.7983 36.487 36.718 36.4256C36.6377 36.3642 36.546 36.3193 36.4483 36.2935C36.3506 36.2676 36.2487 36.2614 36.1486 36.2751C36.0484 36.2888 35.952 36.3221 35.8648 36.3732C35.6902 36.4756 35.5632 36.6429 35.5114 36.8385C35.4597 37.0342 35.4875 37.2424 35.5887 37.4177C35.6899 37.593 35.8563 37.7211 36.0516 37.7741C36.2469 37.8272 36.4553 37.8008 36.6312 37.7007Z"/>
</mask>
<path d="M36.6312 37.7007C36.7191 37.6508 36.7962 37.5839 36.8582 37.504C36.9201 37.4242 36.9656 37.3328 36.9921 37.2353C37.0186 37.1377 37.0255 37.0359 37.0125 36.9357C36.9994 36.8354 36.9667 36.7388 36.9162 36.6512C36.8656 36.5637 36.7983 36.487 36.718 36.4256C36.6377 36.3642 36.546 36.3193 36.4483 36.2935C36.3506 36.2676 36.2487 36.2614 36.1486 36.2751C36.0484 36.2888 35.952 36.3221 35.8648 36.3732C35.6902 36.4756 35.5632 36.6429 35.5114 36.8385C35.4597 37.0342 35.4875 37.2424 35.5887 37.4177C35.6899 37.593 35.8563 37.7211 36.0516 37.7741C36.2469 37.8272 36.4553 37.8008 36.6312 37.7007Z" fill="#52006A"/>
<path d="M36.6312 37.7007L35.6427 35.9621L36.6312 37.7007ZM35.8648 36.3732L36.8763 38.0986L36.8763 38.0986L35.8648 36.3732ZM35.6427 35.9621C35.5013 36.0425 35.3772 36.1501 35.2775 36.2787L38.4388 38.7294C38.2153 39.0178 37.9369 39.259 37.6197 39.4394L35.6427 35.9621ZM35.2775 36.2787C35.1778 36.4072 35.1046 36.5543 35.062 36.7113L38.9222 37.7593C38.8266 38.1114 38.6623 38.4411 38.4388 38.7294L35.2775 36.2787ZM35.062 36.7113C35.0193 36.8682 35.0082 37.0321 35.0292 37.1935L38.9958 36.6779C39.0428 37.0397 39.0178 37.4072 38.9222 37.7593L35.062 36.7113ZM35.0292 37.1935C35.0501 37.3548 35.1028 37.5104 35.1841 37.6512L38.6482 35.6512C38.8306 35.9672 38.9488 36.3161 38.9958 36.6779L35.0292 37.1935ZM35.1841 37.6512C35.2655 37.7921 35.3739 37.9155 35.5031 38.0143L37.9329 34.8369C38.2227 35.0585 38.4658 35.3352 38.6482 35.6512L35.1841 37.6512ZM35.5031 38.0143C35.6323 38.1132 35.7798 38.1854 35.9371 38.227L36.9595 34.3599C37.3122 34.4532 37.643 34.6153 37.9329 34.8369L35.5031 38.0143ZM35.9371 38.227C36.0944 38.2686 36.2583 38.2787 36.4195 38.2566L35.8776 34.2935C36.2391 34.2441 36.6068 34.2666 36.9595 34.3599L35.9371 38.227ZM36.4195 38.2566C36.5807 38.2346 36.7359 38.1809 36.8763 38.0986L34.8533 34.6479C35.168 34.4634 35.5162 34.3429 35.8776 34.2935L36.4195 38.2566ZM36.8763 38.0986C37.1573 37.9339 37.3617 37.6647 37.445 37.3497L33.5779 36.3273C33.7646 35.6211 34.2231 35.0173 34.8533 34.6479L36.8763 38.0986ZM37.445 37.3497C37.5282 37.0348 37.4836 36.6998 37.3207 36.4177L33.8566 38.4177C33.4913 37.7851 33.3911 37.0336 33.5779 36.3273L37.445 37.3497ZM37.3207 36.4177C37.1578 36.1356 36.89 35.9293 36.5756 35.844L35.5276 39.7043C34.8226 39.5129 34.2219 39.0504 33.8566 38.4177L37.3207 36.4177ZM36.5756 35.844C36.2613 35.7586 35.9259 35.8011 35.6427 35.9621L37.6197 39.4394C36.9847 39.8004 36.2326 39.8957 35.5276 39.7043L36.5756 35.844Z" fill="#52006A" mask="url(#path-16-inside-7_3791_10865)"/>
<mask id="path-18-inside-8_3791_10865" fill="white">
<path d="M22.7329 13.6283C22.8208 13.5783 22.8979 13.5115 22.9598 13.4316C23.0218 13.3517 23.0673 13.2604 23.0938 13.1628C23.1203 13.0653 23.1272 12.9634 23.1142 12.8632C23.1011 12.763 23.0684 12.6663 23.0179 12.5788C22.9673 12.4912 22.9 12.4146 22.8197 12.3532C22.7394 12.2918 22.6477 12.2469 22.55 12.221C22.4523 12.1952 22.3504 12.1889 22.2503 12.2026C22.1501 12.2163 22.0537 12.2497 21.9665 12.3008C21.7919 12.4032 21.6648 12.5704 21.6131 12.7661C21.5614 12.9618 21.5891 13.17 21.6903 13.3452C21.7915 13.5205 21.958 13.6486 22.1533 13.7017C22.3486 13.7547 22.557 13.7283 22.7329 13.6283Z"/>
</mask>
<path d="M22.7329 13.6283C22.8208 13.5783 22.8979 13.5115 22.9598 13.4316C23.0218 13.3517 23.0673 13.2604 23.0938 13.1628C23.1203 13.0653 23.1272 12.9634 23.1142 12.8632C23.1011 12.763 23.0684 12.6663 23.0179 12.5788C22.9673 12.4912 22.9 12.4146 22.8197 12.3532C22.7394 12.2918 22.6477 12.2469 22.55 12.221C22.4523 12.1952 22.3504 12.1889 22.2503 12.2026C22.1501 12.2163 22.0537 12.2497 21.9665 12.3008C21.7919 12.4032 21.6648 12.5704 21.6131 12.7661C21.5614 12.9618 21.5891 13.17 21.6903 13.3452C21.7915 13.5205 21.958 13.6486 22.1533 13.7017C22.3486 13.7547 22.557 13.7283 22.7329 13.6283Z" fill="#52006A"/>
<path d="M22.7329 13.6283L21.7444 11.8897L22.7329 13.6283ZM21.9665 12.3008L22.978 14.0262L22.978 14.0262L21.9665 12.3008ZM21.7444 11.8897C21.603 11.9701 21.4789 12.0776 21.3792 12.2062L24.5405 14.657C24.317 14.9453 24.0386 15.1866 23.7214 15.3669L21.7444 11.8897ZM21.3792 12.2062C21.2795 12.3348 21.2063 12.4818 21.1636 12.6388L25.0239 13.6868C24.9283 14.0389 24.764 14.3686 24.5405 14.657L21.3792 12.2062ZM21.1636 12.6388C21.121 12.7958 21.1099 12.9597 21.1308 13.121L25.0975 12.6054C25.1445 12.9672 25.1195 13.3347 25.0239 13.6868L21.1636 12.6388ZM21.1308 13.121C21.1518 13.2823 21.2045 13.4379 21.2858 13.5788L24.7499 11.5787C24.9323 11.8947 25.0504 12.2436 25.0975 12.6054L21.1308 13.121ZM21.2858 13.5788C21.3672 13.7197 21.4756 13.8431 21.6048 13.9419L24.0345 10.7644C24.3244 10.986 24.5675 11.2628 24.7499 11.5787L21.2858 13.5788ZM21.6048 13.9419C21.734 14.0407 21.8815 14.113 22.0388 14.1546L23.0612 10.2875C23.4139 10.3807 23.7447 10.5428 24.0345 10.7644L21.6048 13.9419ZM22.0388 14.1546C22.1961 14.1962 22.36 14.2062 22.5212 14.1842L21.9793 10.2211C22.3408 10.1716 22.7085 10.1942 23.0612 10.2875L22.0388 14.1546ZM22.5212 14.1842C22.6824 14.1621 22.8376 14.1084 22.978 14.0262L20.955 10.5754C21.2697 10.3909 21.6179 10.2705 21.9793 10.2211L22.5212 14.1842ZM22.978 14.0262C23.259 13.8614 23.4634 13.5922 23.5467 13.2773L19.6795 12.2549C19.8663 11.5486 20.3248 10.9449 20.955 10.5754L22.978 14.0262ZM23.5467 13.2773C23.6299 12.9624 23.5852 12.6273 23.4224 12.3452L19.9583 14.3453C19.593 13.7126 19.4928 12.9612 19.6795 12.2549L23.5467 13.2773ZM23.4224 12.3452C23.2595 12.0631 22.9917 11.8569 22.6773 11.7715L21.6293 15.6318C20.9243 15.4404 20.3236 14.9779 19.9583 14.3453L23.4224 12.3452ZM22.6773 11.7715C22.3629 11.6862 22.0276 11.7287 21.7444 11.8897L23.7214 15.3669C23.0864 15.728 22.3343 15.8232 21.6293 15.6318L22.6773 11.7715Z" fill="#52006A" mask="url(#path-18-inside-8_3791_10865)"/>
<path d="M27.766 22.3461V12.6354C27.766 11.7887 28.4523 11.1025 29.2989 11.1025C30.1455 11.1025 30.8318 11.7887 30.8318 12.6354V22.3461" stroke="#52006A" stroke-width="2" stroke-miterlimit="10" stroke-linecap="round" stroke-linejoin="round"/>
<path d="M31.9536 23.4679H38.5985C39.4452 23.4679 40.1314 24.1542 40.1314 25.0008C40.1314 25.8473 39.4452 26.5337 38.5985 26.5337H31.9536" stroke="#52006A" stroke-width="2" stroke-miterlimit="10" stroke-linecap="round" stroke-linejoin="round"/>
<path d="M32.3646 25.0008C32.3646 23.3076 30.992 21.935 29.2988 21.935C27.6057 21.935 26.233 23.3076 26.233 25.0008C26.233 26.6939 27.6057 28.0666 29.2988 28.0666C30.992 28.0666 32.3646 26.6939 32.3646 25.0008Z" stroke="#52006A" stroke-width="2" stroke-miterlimit="10" stroke-linecap="round" stroke-linejoin="round"/>
<path d="M29.2989 41.9648C38.668 41.9648 46.263 34.3697 46.263 25.0008C46.263 15.6318 38.668 8.03669 29.2989 8.03669C19.9299 8.03669 12.3348 15.6318 12.3348 25.0008C12.3348 34.3697 19.9299 41.9648 29.2989 41.9648Z" stroke="#52006A" stroke-width="2" stroke-miterlimit="10" stroke-linecap="round" stroke-linejoin="round"/>
<path d="M15.4006 25.0008H26.2331" stroke="#52006A" stroke-width="2" stroke-miterlimit="10" stroke-linecap="round" stroke-linejoin="round"/>
<path d="M1.60449 37.2639H9.72619" stroke="#52006A" stroke-width="2" stroke-miterlimit="10" stroke-linecap="round" stroke-linejoin="round"/>
<path d="M9.72619 12.7376H1.60449" stroke="#52006A" stroke-width="2" stroke-miterlimit="10" stroke-linecap="round" stroke-linejoin="round"/>
<path d="M1.60449 31.1324H7.02758" stroke="#52006A" stroke-width="2" stroke-miterlimit="10" stroke-linecap="round" stroke-linejoin="round"/>
<path d="M7.02758 18.8692H1.60449" stroke="#52006A" stroke-width="2" stroke-miterlimit="10" stroke-linecap="round" stroke-linejoin="round"/>
<path d="M12.3348 25.0008H1.60449" stroke="#52006A" stroke-width="2" stroke-miterlimit="10" stroke-linecap="round" stroke-linejoin="round"/>
<path d="M6.40608 28.0666C7.90577 39.3725 17.5829 48.0964 29.2988 48.0964C30.4835 48.0964 31.6474 48.0069 32.7841 47.8347L33.8126 44.5198C36.0032 44.0153 38.0555 43.1506 39.9059 41.9929L42.9804 43.6113C43.9195 42.919 44.8051 42.157 45.6299 41.3319C46.455 40.5071 47.217 39.6214 47.9093 38.6824L46.2909 35.6079C47.4486 33.7575 48.3133 31.705 48.8179 29.5145L52.1328 28.486C52.3072 27.3324 52.3947 26.1674 52.3944 25.0008C52.3944 23.816 52.3048 22.6523 52.1328 21.5156L48.8179 20.4869C48.3133 18.2965 47.4486 16.244 46.2909 14.3936L47.9093 11.3191C47.217 10.3801 46.455 9.49443 45.6299 8.66967C44.8051 7.84449 43.9195 7.08253 42.9804 6.39025L39.9059 8.00858C38.0555 6.85094 36.0032 5.98618 33.8126 5.48175L32.7841 2.16681C31.6305 1.99228 30.4655 1.90479 29.2988 1.90509C16.5434 1.90509 6.20312 12.2454 6.20312 25.0008" stroke="#52006A" stroke-width="2" stroke-miterlimit="10" stroke-linecap="round" stroke-linejoin="round"/>
</svg>
