<svg width="51" height="51" viewBox="0 0 51 51" fill="none" xmlns="http://www.w3.org/2000/svg">
<path d="M25.018 6.37577C25.563 6.37577 26.0049 5.9339 26.0049 5.38883V0.986941C26.0049 0.441874 25.563 0 25.018 0C24.4729 0 24.031 0.441874 24.031 0.986941V5.38883C24.0311 5.9339 24.473 6.37577 25.018 6.37577ZM49.1425 33.9059L47.399 32.1674C46.7788 31.5479 45.9522 31.2067 45.0714 31.2067C44.5082 31.2067 43.9675 31.3468 43.4884 31.6094L40.2029 28.3278L40.363 28.1679C41.6958 26.8324 41.6953 24.6623 40.3629 23.3312C39.8938 22.8596 39.2963 22.5365 38.6448 22.4022C38.7352 22.0902 38.7811 21.7669 38.781 21.442C38.781 20.5253 38.4248 19.6656 37.7802 19.0236C37.3111 18.552 36.7136 18.2289 36.0622 18.0946C36.1526 17.7826 36.1984 17.4593 36.1983 17.1344C36.1983 16.2175 35.8422 15.358 35.1965 14.715C34.7269 14.2453 34.1302 13.9233 33.4799 13.7885C33.8167 12.6275 33.5289 11.3213 32.6156 10.4063C31.8553 9.64931 30.8237 9.32395 29.8295 9.4294L23.319 8.19707C22.326 8.00872 21.0861 7.88416 20.3033 8.59808C20.254 8.64316 20.2036 8.695 20.154 8.75272C18.9404 8.31035 17.5249 8.57377 16.553 9.54455C15.9083 10.1885 15.5532 11.0477 15.5532 11.964C15.5532 12.2941 15.5999 12.6164 15.689 12.9243C15.0388 13.0583 14.4423 13.3807 13.974 13.8513C13.328 14.4946 12.9718 15.3529 12.9711 16.2681C12.9707 16.5939 13.0166 16.9181 13.1073 17.231C12.4566 17.3648 11.8595 17.6869 11.3902 18.1571C10.7442 18.8024 10.3884 19.6622 10.3884 20.578C10.3884 21.2794 10.5979 21.9477 10.9859 22.5122C10.4907 22.6801 10.0408 22.9601 9.6713 23.3302C8.33754 24.6623 8.33705 26.8325 9.67218 28.17L9.83162 28.3288L6.54573 31.6087C5.32457 31.0337 3.82 31.2491 2.81228 32.2556L1.06772 33.9952C0.44719 34.615 0.105567 35.4417 0.105469 36.323C0.105469 37.2044 0.44719 38.0312 1.06772 38.651L3.24495 40.8256C3.63057 41.2108 4.25551 41.2104 4.64064 40.8248C5.02587 40.4392 5.02548 39.8143 4.63986 39.4291L2.46263 37.2545C2.21547 37.0077 2.07935 36.6768 2.07935 36.3231C2.07935 35.9694 2.21547 35.6387 2.46204 35.3924L4.20671 33.6526C4.6426 33.2172 5.30978 33.1523 5.81643 33.4552C5.91729 33.6072 6.05849 33.7282 6.2242 33.8044L16.2292 43.7947C16.2776 43.9011 16.3446 43.9981 16.4271 44.081C16.5078 44.1614 16.6018 44.2272 16.7049 44.2754C16.9177 44.5155 17.0346 44.8254 17.0334 45.1462C17.0334 45.4999 16.8973 45.8307 16.6502 46.0775L14.9073 47.8184C14.3923 48.3311 13.5546 48.331 13.0412 47.8199L10.8639 45.6425C10.4785 45.2571 9.85367 45.2571 9.46824 45.6425C9.08282 46.0279 9.08282 46.6528 9.46824 47.0382L11.647 49.2172C12.2883 49.8559 13.1305 50.175 13.9731 50.175C14.8159 50.175 15.6591 49.8554 16.3012 49.2161L18.0452 47.4742C18.6657 46.8544 19.0074 46.0276 19.0074 45.1462C19.0074 44.5171 18.8325 43.9164 18.5072 43.3984L22.2053 39.7048L22.2172 39.6927C22.6406 39.255 23.8198 39.3369 24.9602 39.4161C25.7705 39.4724 26.6738 39.5351 27.5564 39.4333L31.6061 43.4782C31.3438 43.9566 31.2037 44.4965 31.2037 45.0588C31.2037 45.9394 31.5454 46.7656 32.166 47.3854L33.91 49.1273C34.5302 49.7468 35.3568 50.088 36.2376 50.088C37.1183 50.088 37.9449 49.7469 38.5652 49.1273L49.1432 38.5621C49.7637 37.9424 50.1055 37.1157 50.1055 36.2343C50.1054 35.353 49.7637 34.5263 49.1425 33.9059ZM22.9515 10.1365L27.2327 10.9468L24.6702 13.5084C24.2738 13.3179 23.7305 12.9625 23.1344 12.3924C22.3186 11.6119 21.735 10.7108 21.6819 10.1488L21.6818 10.1479L21.6817 10.1476C21.6784 10.1153 21.677 10.0829 21.6774 10.0504C21.8064 10.0191 22.1492 9.98426 22.9515 10.1365ZM17.9479 10.9411C18.4478 10.4416 19.2246 10.384 19.7895 10.7666C20.1097 12.109 21.2548 13.3256 21.77 13.8185C22.1518 14.1839 23.3769 15.2792 24.6134 15.5803C24.7825 15.8229 24.8727 16.1118 24.8717 16.4076C24.8717 16.7961 24.7223 17.1594 24.45 17.4314C24.1784 17.7035 23.8145 17.8532 23.4253 17.8532C23.0359 17.8532 22.6721 17.7035 22.3992 17.4302L22.3991 17.4301L22.3987 17.4296L17.9478 12.9867C17.6764 12.7158 17.527 12.3525 17.527 11.964C17.5271 11.5755 17.6765 11.2122 17.9479 10.9411ZM15.3689 15.2479C15.6405 14.9759 16.004 14.8261 16.3926 14.8261C16.7818 14.8261 17.1464 14.9762 17.4197 15.2492L21.0037 18.8261C21.5681 19.3913 21.5681 20.3111 21.0057 20.8744C20.7327 21.1464 20.3675 21.2961 19.9776 21.2961C19.5877 21.2961 19.2225 21.1464 18.9507 20.8756L18.9506 20.8755L16.2316 18.1571C16.2274 18.1529 16.2228 18.149 16.2185 18.1447L15.3679 17.2944C15.0949 17.0218 14.9447 16.6579 14.945 16.2696C14.9454 15.8826 15.0951 15.5205 15.3689 15.2479ZM12.7851 19.5537C13.0569 19.2823 13.4211 19.1329 13.8109 19.1329C14.1976 19.1329 14.5587 19.2802 14.8293 19.5468L17.5565 22.2729C17.8285 22.5437 17.9783 22.9066 17.9783 23.2947C17.9783 23.6827 17.8285 24.0455 17.5555 24.3175C17.2838 24.5888 16.92 24.7382 16.5308 24.7382C16.1411 24.7382 15.776 24.5884 15.504 24.3175L14.5153 23.33L14.5146 23.3293L12.7852 21.602C12.5126 21.3296 12.3624 20.9659 12.3624 20.5778C12.3624 20.1898 12.5126 19.8259 12.7851 19.5537ZM11.0662 24.7266C11.3391 24.454 11.7039 24.3039 12.0932 24.3039C12.4825 24.3039 12.8471 24.4539 13.12 24.7263L14.11 25.7152C14.3821 25.9861 14.5318 26.349 14.5318 26.7371C14.5318 27.1251 14.382 27.4879 14.108 27.761C13.8364 28.0329 13.4726 28.1827 13.0833 28.1827C12.694 28.1827 12.3301 28.033 12.0566 27.759L11.9326 27.6355C11.9309 27.6339 11.9297 27.6321 11.9281 27.6305L11.9224 27.6254L11.0672 26.7735C10.5028 26.208 10.5023 25.2898 11.0662 24.7266ZM31.1788 35.9433C30.7936 35.5576 30.1687 35.5573 29.7831 35.9424L28.9051 36.8194C28.0707 37.6538 26.5589 37.5487 25.0968 37.4473C23.5092 37.337 21.8674 37.2231 20.805 38.3138L17.1698 41.9446L8.07912 32.8674L11.2962 29.6561C11.8279 29.982 12.4415 30.1567 13.0835 30.1567C14.0007 30.1567 14.8607 29.8012 15.5031 29.1576C16.1498 28.5136 16.506 27.654 16.506 26.7372C16.506 26.7286 16.5054 26.7202 16.5054 26.7117C16.5139 26.7118 16.5225 26.7123 16.531 26.7123C17.4469 26.7123 18.3062 26.3578 18.9495 25.7153C19.5962 25.0713 19.9524 24.2117 19.9524 23.2949C19.9524 23.2864 19.9518 23.2779 19.9518 23.2694C19.9605 23.2694 19.9691 23.27 19.9778 23.27C20.8934 23.27 21.7532 22.9159 22.4008 22.271C23.0731 21.5977 23.4056 20.7112 23.3992 19.8265C23.408 19.8266 23.4169 19.8271 23.4257 19.8271C24.3428 19.827 25.2028 19.4716 25.8461 18.827C26.4909 18.1831 26.846 17.3238 26.846 16.4076C26.846 15.7668 26.6718 15.1542 26.3469 14.6235L29.1666 11.805C29.3692 11.6031 29.6269 11.4658 29.9074 11.4102C29.9368 11.4071 29.9658 11.4024 29.9945 11.3967C30.4302 11.3366 30.8878 11.4711 31.221 11.8029C31.7853 12.3683 31.7853 13.2881 31.223 13.8514L30.3643 14.7066C30.3614 14.7094 30.3584 14.712 30.3555 14.7148L29.3664 15.7023C28.9807 16.0874 28.9803 16.7123 29.3656 17.098C29.7509 17.4837 30.3757 17.484 30.7613 17.0988L31.6234 16.2378L31.624 16.2372L31.7544 16.1074C32.3203 15.5466 33.2372 15.5478 33.8025 16.1124C34.0746 16.3833 34.2244 16.7461 34.2244 17.1342C34.2244 17.5222 34.0746 17.8851 33.8004 18.1581L32.9367 19.0235L32.9364 19.0239L31.9474 20.0089C31.5612 20.3935 31.5599 21.0185 31.9446 21.4046C32.3292 21.7908 32.9541 21.792 33.3403 21.4074L34.3338 20.4179C34.6053 20.1459 34.9692 19.9962 35.3585 19.9962C35.7478 19.9962 36.1118 20.1459 36.3853 20.4199C36.6573 20.6909 36.8071 21.0538 36.8071 21.4418C36.8071 21.8298 36.6573 22.1927 36.3837 22.4651L34.6619 24.1876C34.2766 24.5732 34.2767 25.198 34.6621 25.5833C34.7536 25.6751 34.8624 25.7478 34.9821 25.7974C35.1019 25.847 35.2302 25.8724 35.3598 25.8722C35.6125 25.8722 35.8651 25.7758 36.0578 25.583L36.9016 24.7389C36.9064 24.7343 36.9116 24.7303 36.9164 24.7255C37.188 24.4534 37.5519 24.3037 37.9411 24.3037C38.3305 24.3037 38.6943 24.4534 38.9669 24.7264C39.5307 25.2896 39.5302 26.2079 38.9669 26.7722L38.1089 27.6292L38.1079 27.63L38.107 27.631L36.7452 28.9911C36.3596 29.3764 36.3592 30.0013 36.7444 30.3869C36.8359 30.4788 36.9448 30.5517 37.0646 30.6014C37.1845 30.6511 37.313 30.6766 37.4427 30.6764C37.695 30.6764 37.9475 30.5802 38.1401 30.3878L38.8062 29.7225L41.9987 32.9113L32.9089 41.99L29.652 38.7371C29.8862 38.5869 30.1035 38.412 30.3003 38.2154L31.1778 37.3389C31.5637 36.9539 31.5641 36.329 31.1788 35.9433ZM47.7482 37.1656L37.1702 47.7308C36.9227 47.9779 36.5915 48.114 36.2375 48.114C35.8835 48.114 35.5523 47.9779 35.3048 47.7307L33.5607 45.9887C33.3135 45.742 33.1774 45.4117 33.1774 45.0588C33.1774 44.706 33.3135 44.3758 33.5607 44.1289L44.1387 33.5637C44.3863 33.3165 44.7174 33.1804 45.0715 33.1804C45.4255 33.1804 45.7567 33.3165 46.0048 33.5643L47.7483 35.3029C47.9955 35.5498 48.1316 35.8804 48.1316 36.2342C48.1315 36.5881 47.9954 36.9188 47.7482 37.1656ZM11.9127 5.54376C12.0042 5.63533 12.1129 5.70793 12.2326 5.7574C12.3522 5.80688 12.4804 5.83225 12.6099 5.83208C12.8627 5.83208 13.1156 5.73545 13.3084 5.54229C13.6934 5.15648 13.6929 4.53164 13.307 4.1466L9.71069 0.557414C9.32497 0.172379 8.70003 0.172869 8.315 0.558786C7.92996 0.944606 7.93055 1.56944 8.31637 1.95448L11.9127 5.54376ZM37.426 5.83208C37.6784 5.83208 37.9308 5.73584 38.1235 5.54347L41.7171 1.95418C42.1027 1.56905 42.1031 0.944116 41.7179 0.558492C41.3327 0.172869 40.7079 0.172477 40.3222 0.557708L36.7286 4.14699C36.343 4.53213 36.3426 5.15706 36.7278 5.54269C36.8194 5.63457 36.9282 5.70745 37.048 5.75711C37.1678 5.80678 37.2963 5.83225 37.426 5.83208Z" fill="#52006A"/>
<path d="M6.17375 42.4532C5.79166 42.8419 5.79695 43.4668 6.18571 43.8489L6.18855 43.8517C6.37232 44.0329 6.62015 44.1344 6.87827 44.1341C7.13375 44.1341 7.38923 44.0352 7.58278 43.8384C7.96487 43.4497 7.95811 42.8234 7.56945 42.4413C7.18088 42.0592 6.55605 42.0646 6.17375 42.4532ZM33.5925 34.5216C33.7426 34.5216 33.8949 34.4874 34.0379 34.4153C34.5245 34.1698 34.72 33.5764 34.4746 33.0897C34.2292 32.603 33.6356 32.4074 33.149 32.6529L33.1435 32.6557C32.6569 32.9011 32.4641 33.4933 32.7095 33.9799C32.8828 34.3237 33.2312 34.5216 33.5925 34.5216Z" fill="#52006A"/>
</svg>
