<svg width="53" height="50" viewBox="0 0 53 50" fill="none" xmlns="http://www.w3.org/2000/svg">
<path d="M5.65154 39.5464C5.64762 39.4608 5.64551 39.3753 5.64551 39.2898V7.23832C5.64551 3.79665 8.43637 1.00589 11.878 1.00589H42.2766" stroke="#52006A" stroke-width="1.25" stroke-miterlimit="10" stroke-linecap="round" stroke-linejoin="round"/>
<path d="M45.2929 1.00586C48.7236 1.01995 51.5001 3.80467 51.5001 7.23829V39.2898C51.5001 42.7325 48.7094 45.5222 45.2677 45.5222H11.8782C11.3823 45.5222 10.8993 45.4639 10.4365 45.3542" stroke="#52006A" stroke-width="1.25" stroke-miterlimit="10" stroke-linecap="round" stroke-linejoin="round"/>
<path d="M8.66333 36.5785V13.8068C8.66333 12.0351 10.105 10.5925 11.8776 10.5925H45.2672C47.0398 10.5925 48.4815 12.0351 48.4815 13.8068V39.2898C48.4815 41.0625 47.0398 42.5041 45.2672 42.5041H13.2851" stroke="#52006A" stroke-width="1.25" stroke-miterlimit="10" stroke-linecap="round" stroke-linejoin="round"/>
<path d="M14.0639 5.79954C14.0639 4.71965 13.1884 3.8442 12.1086 3.8442C11.0287 3.8442 10.1533 4.71965 10.1533 5.79954C10.1533 6.87943 11.0287 7.75488 12.1086 7.75488C13.1884 7.75488 14.0639 6.87943 14.0639 5.79954Z" stroke="#52006A" stroke-width="1.25" stroke-miterlimit="10" stroke-linecap="round" stroke-linejoin="round"/>
<path d="M20.1008 5.79954C20.1008 4.71965 19.2253 3.8442 18.1454 3.8442C17.0655 3.8442 16.1902 4.71965 16.1902 5.79954C16.1902 6.87943 17.0655 7.75488 18.1454 7.75488C19.2253 7.75488 20.1008 6.87943 20.1008 5.79954Z" stroke="#52006A" stroke-width="1.25" stroke-miterlimit="10" stroke-linecap="round" stroke-linejoin="round"/>
<path d="M26.1371 5.79954C26.1371 4.71965 25.2617 3.8442 24.1818 3.8442C23.1019 3.8442 22.2266 4.71965 22.2266 5.79954C22.2266 6.87943 23.1019 7.75488 24.1818 7.75488C25.2617 7.75488 26.1371 6.87943 26.1371 5.79954Z" stroke="#52006A" stroke-width="1.25" stroke-miterlimit="10" stroke-linecap="round" stroke-linejoin="round"/>
<path d="M10.9009 36.5574L13.2504 34.2079" stroke="#52006A" stroke-width="1.25" stroke-miterlimit="10" stroke-linecap="round" stroke-linejoin="round"/>
<path d="M13.9355 39.5932L16.2844 37.2444" stroke="#52006A" stroke-width="1.25" stroke-miterlimit="10" stroke-linecap="round" stroke-linejoin="round"/>
<path d="M12.2996 32.6389C14.4054 36.7596 18.691 39.5806 23.6358 39.5806C30.662 39.5806 36.3572 33.8844 36.3572 26.8582C36.3572 19.832 30.662 14.1368 23.6358 14.1368C16.6096 14.1368 10.9143 19.832 10.9143 26.8582C10.9143 27.8763 11.034 28.8672 11.2604 29.8159" stroke="#52006A" stroke-width="1.25" stroke-miterlimit="10" stroke-linecap="round" stroke-linejoin="round"/>
<path d="M32.6292 26.8584C32.6292 31.8254 28.6027 35.852 23.6356 35.852C18.6686 35.852 14.6421 31.8254 14.6421 26.8584C14.6421 21.8913 18.6686 17.8648 23.6356 17.8648C28.6027 17.8648 32.6292 21.8913 32.6292 26.8584Z" stroke="#52006A" stroke-width="1.25" stroke-miterlimit="10" stroke-linecap="round" stroke-linejoin="round"/>
<path d="M4.56954 48.4125L2.08159 45.9245C1.30614 45.1491 1.30614 43.8918 2.08159 43.1163L8.3931 36.8048C9.16856 36.0294 10.4257 36.0294 11.2012 36.8048L13.6891 39.2929C14.4646 40.0682 14.4646 41.3255 13.6891 42.1009L7.3775 48.4125C6.60214 49.1879 5.34489 49.1879 4.56954 48.4125Z" stroke="#52006A" stroke-width="1.25" stroke-miterlimit="10" stroke-linecap="round" stroke-linejoin="round"/>
<path d="M23.6357 21.6667C19.7926 21.6667 16.4374 23.7547 14.6421 26.8581C16.4374 29.9615 19.7926 32.0496 23.6357 32.0496C27.4788 32.0496 30.8339 29.9615 32.6293 26.8581C30.8339 23.7547 27.4788 21.6667 23.6357 21.6667Z" stroke="#52006A" stroke-width="1.25" stroke-miterlimit="10" stroke-linecap="round" stroke-linejoin="round"/>
<path d="M26.5688 26.8582C26.5688 25.2382 25.2556 23.9251 23.6358 23.9251C22.0158 23.9251 20.7026 25.2382 20.7026 26.8582C20.7026 28.478 22.0158 29.7912 23.6358 29.7912C25.2556 29.7912 26.5688 28.478 26.5688 26.8582Z" stroke="#52006A" stroke-width="1.25" stroke-miterlimit="10" stroke-linecap="round" stroke-linejoin="round"/>
<path d="M41.1518 22.97C40.6599 22.97 40.1926 22.7431 39.8883 22.3508L37.215 18.9022C36.6739 18.2044 36.8011 17.2 37.4989 16.659C38.1969 16.118 39.2012 16.2451 39.7422 16.943L40.9424 18.491L43.2843 14.3441C43.7187 13.5752 44.6939 13.3039 45.4629 13.7382C46.2317 14.1724 46.503 15.1478 46.0688 15.9167L42.5443 22.1575C42.405 22.4041 42.2027 22.6093 41.958 22.7521C41.7133 22.8949 41.4351 22.9701 41.1518 22.97Z" stroke="#52006A" stroke-width="1.25" stroke-miterlimit="10" stroke-linecap="round" stroke-linejoin="round"/>
<path d="M43.5148 34.4206L44.7564 33.1791C45.3334 32.602 45.3334 31.6665 44.7564 31.0894C44.1793 30.5123 43.2438 30.5123 42.6666 31.0894L41.4252 32.3309L40.1836 31.0894C39.6065 30.5123 38.671 30.5123 38.0939 31.0894C37.5169 31.6665 37.5169 32.602 38.0939 33.1791L39.3354 34.4206L38.0939 35.6622C37.5169 36.2392 37.5169 37.1747 38.0939 37.7518C38.671 38.3289 39.6065 38.3289 40.1836 37.7518L41.4252 36.5103L42.6666 37.7518C43.2438 38.3289 44.1793 38.3289 44.7564 37.7518C45.3334 37.1747 45.3334 36.2392 44.7564 35.6622L43.5148 34.4206Z" stroke="#52006A" stroke-width="1.25" stroke-miterlimit="10" stroke-linecap="round" stroke-linejoin="round"/>
</svg>
