<svg width="52" height="44" viewBox="0 0 52 44" fill="none" xmlns="http://www.w3.org/2000/svg">
<path d="M21.9125 36.9768H31.7343M40.4067 21.5819V2.97136C40.4067 2.4225 39.9612 1.97705 39.4124 1.97705H2.424C1.87514 1.97705 1.42969 2.4225 1.42969 2.97136V35.9825C1.42969 36.5314 1.87514 36.9768 2.424 36.9768H13.958" stroke="#52006A" stroke-width="1.98862" stroke-miterlimit="10" stroke-linecap="round" stroke-linejoin="round"/>
<path d="M14.9521 1.97705V11.3096C14.9521 12.0477 15.7282 12.5286 16.3892 12.1999L20.4752 10.1679C20.6128 10.0995 20.7644 10.0639 20.918 10.0639C21.0717 10.0639 21.2232 10.0995 21.3608 10.1679L25.4468 12.1999C26.1078 12.5286 26.8839 12.0477 26.8839 11.3096V1.97705" stroke="#52006A" stroke-width="1.98862" stroke-miterlimit="10" stroke-linejoin="round"/>
<path d="M11.6712 28.028H6.40137M6.40137 32.0053H18.9297" stroke="#52006A" stroke-width="1.98862" stroke-miterlimit="10" stroke-linecap="round" stroke-linejoin="round"/>
<path d="M43.7967 25.9343L43.8041 25.9494L43.8208 25.9519L49.2379 26.739C51.3034 27.0392 52.1296 29.5798 50.6348 31.0373L46.7148 34.8582L46.7027 34.87L46.7056 34.8866L47.6309 40.2818C47.9838 42.3394 45.8196 43.9082 43.9746 42.9383L39.1293 40.3909L39.1143 40.3831L39.0994 40.3909L34.2542 42.9383C32.4066 43.9094 30.2449 42.3397 30.5978 40.2818L31.5232 34.8866L31.526 34.87L31.514 34.8583L27.5941 31.0373C26.0995 29.5803 26.9243 27.0392 28.9906 26.739L34.4078 25.9518L34.4244 25.9494L34.4319 25.9343L36.8546 21.0255L36.8258 21.0113L36.8546 21.0255C37.7782 19.1538 40.45 19.1533 41.374 21.0256L41.4027 21.0114L41.374 21.0256L43.7967 25.9343ZM33.2511 41.0306L33.266 41.0589L38.6202 38.2441C38.7726 38.164 38.9421 38.1222 39.1142 38.1222C39.2864 38.1222 39.4559 38.164 39.6083 38.2441L44.9625 41.0589L44.9774 41.0306L44.9625 41.0589C45.2548 41.2125 45.5938 40.9664 45.538 40.6408L44.5154 34.6788C44.4863 34.5092 44.4989 34.335 44.5521 34.1713C44.6053 34.0076 44.6975 33.8592 44.8207 33.7391L49.1524 29.5168C49.3889 29.2863 49.2595 28.8879 48.9326 28.8403L48.928 28.872L48.9326 28.8403L42.9464 27.9704C42.7761 27.9457 42.6143 27.8799 42.4751 27.7787C42.3358 27.6776 42.2232 27.5441 42.1471 27.3897L39.4699 21.9653C39.3237 21.669 38.9048 21.6692 38.7586 21.9652L36.0815 27.3897C36.0053 27.544 35.8927 27.6776 35.7535 27.7787C35.6142 27.8799 35.4525 27.9457 35.2821 27.9704L29.2959 28.8403L29.2959 28.8403C28.969 28.8879 28.8395 29.2862 29.0761 29.5168L33.4078 33.7391C33.531 33.8592 33.6232 34.0076 33.6764 34.1713C33.7296 34.335 33.7422 34.5092 33.7131 34.6788L32.6905 40.6408C32.6347 40.9664 32.9736 41.2126 33.266 41.0589L33.2511 41.0306Z" fill="#52006A" stroke="#52006A" stroke-width="0.0640864"/>
</svg>
