<svg width="367" height="214" viewBox="0 0 367 214" fill="none" xmlns="http://www.w3.org/2000/svg">
<path d="M0 16C0 7.16344 7.16344 0 16 0H351C359.837 0 367 7.16344 367 16V198C367 206.837 359.837 214 351 214H16C7.16345 214 0 206.837 0 198V16Z" fill="#52006A" fill-opacity="0.01"/>
<rect x="159.5" y="26" width="48" height="48" rx="24" fill="white"/>
<rect x="159.5" y="26" width="48" height="48" rx="24" stroke="#52006A" stroke-opacity="0.09" stroke-width="8"/>
<path d="M186.492 49.8506H189.406V43.2487H190.29L188 40.4784H187.898L185.608 43.2487H186.492V49.8506Z" stroke="#52006A" stroke-width="0.7" stroke-miterlimit="10"/>
<path d="M180.653 49.8506H183.566V43.8623H180.653V49.8506ZM175.712 49.8506H178.625V44.8995H175.712V49.8506Z" stroke="#52006A" stroke-width="0.7" stroke-miterlimit="10"/>
<mask id="mask0_1896_44616" style="mask-type:luminance" maskUnits="userSpaceOnUse" x="171" y="38" width="24" height="24">
<path d="M194.15 60.6515V38.3529H171.851V60.6515H194.15Z" fill="white" stroke="white" stroke-width="0.7"/>
</mask>
<g mask="url(#mask0_1896_44616)">
<path d="M189.806 52.1352H194.163V54.7625C194.163 55.3842 193.659 55.8882 193.037 55.8882H172.964C172.342 55.8882 171.838 55.3842 171.838 54.7625V52.1352H189.132" stroke="#52006A" stroke-width="0.7" stroke-miterlimit="10"/>
<path d="M176.49 38.3743H172.964C172.342 38.3743 171.838 38.8783 171.838 39.4999V52.1348H189.132" stroke="#52006A" stroke-width="0.7" stroke-miterlimit="10"/>
<path d="M189.806 52.1348H194.163V39.4999C194.163 38.8783 193.659 38.3743 193.037 38.3743H177.164" stroke="#52006A" stroke-width="0.7" stroke-miterlimit="10"/>
<path d="M185.714 57.2355L186.005 58.6851H179.997L180.287 57.2355" stroke="#52006A" stroke-width="0.7" stroke-miterlimit="10"/>
<path d="M188.252 60.6304H177.75V58.6852H188.252V60.6304Z" stroke="#52006A" stroke-width="0.7" stroke-miterlimit="10"/>
<path d="M180.62 54.0117H185.381" stroke="#52006A" stroke-width="0.7" stroke-miterlimit="10" stroke-dasharray="0.67 1.35 0.67 1.35 0.67 1.35"/>
<path d="M187.607 47.3755H188.29" stroke="#52006A" stroke-width="0.7" stroke-miterlimit="10" stroke-dasharray="0.67 1.35 0.67 1.35 0.67 1.35"/>
<path d="M181.775 47.3755H182.458" stroke="#52006A" stroke-width="0.7" stroke-miterlimit="10" stroke-dasharray="0.67 1.35 0.67 1.35 0.67 1.35"/>
<path d="M176.827 47.3755H177.51" stroke="#52006A" stroke-width="0.7" stroke-miterlimit="10" stroke-dasharray="0.67 1.35 0.67 1.35 0.67 1.35"/>
</g>
<path d="M83.8023 110C83.3623 110 83.0223 109.887 82.7823 109.66C82.5557 109.42 82.4423 109.08 82.4423 108.64V97.26C82.4423 96.82 82.5557 96.4867 82.7823 96.26C83.0223 96.02 83.3623 95.9 83.8023 95.9H90.9423C91.2757 95.9 91.529 95.9867 91.7023 96.16C91.889 96.3333 91.9823 96.58 91.9823 96.9C91.9823 97.2333 91.889 97.4933 91.7023 97.68C91.529 97.8533 91.2757 97.94 90.9423 97.94H84.9023V101.82H90.5023C90.849 101.82 91.109 101.907 91.2823 102.08C91.4557 102.253 91.5423 102.507 91.5423 102.84C91.5423 103.173 91.4557 103.427 91.2823 103.6C91.109 103.773 90.849 103.86 90.5023 103.86H84.9023V107.96H90.9423C91.2757 107.96 91.529 108.047 91.7023 108.22C91.889 108.393 91.9823 108.647 91.9823 108.98C91.9823 109.313 91.889 109.567 91.7023 109.74C91.529 109.913 91.2757 110 90.9423 110H83.8023ZM95.3759 110.16C94.9759 110.16 94.6693 110.053 94.4559 109.84C94.2426 109.613 94.1359 109.293 94.1359 108.88V101.32C94.1359 100.907 94.2426 100.593 94.4559 100.38C94.6693 100.167 94.9693 100.06 95.3559 100.06C95.7426 100.06 96.0426 100.167 96.2559 100.38C96.4693 100.593 96.5759 100.907 96.5759 101.32V102.68L96.3559 102.18C96.6493 101.473 97.1026 100.94 97.7159 100.58C98.3426 100.207 99.0493 100.02 99.8359 100.02C100.623 100.02 101.269 100.167 101.776 100.46C102.283 100.753 102.663 101.2 102.916 101.8C103.169 102.387 103.296 103.133 103.296 104.04V108.88C103.296 109.293 103.189 109.613 102.976 109.84C102.763 110.053 102.456 110.16 102.056 110.16C101.656 110.16 101.343 110.053 101.116 109.84C100.903 109.613 100.796 109.293 100.796 108.88V104.16C100.796 103.4 100.649 102.847 100.356 102.5C100.076 102.153 99.6359 101.98 99.0359 101.98C98.3026 101.98 97.7159 102.213 97.2759 102.68C96.8493 103.133 96.6359 103.74 96.6359 104.5V108.88C96.6359 109.733 96.2159 110.16 95.3759 110.16ZM107.075 110.16C106.675 110.16 106.368 110.053 106.155 109.84C105.942 109.613 105.835 109.293 105.835 108.88V97C105.835 96.5867 105.942 96.2733 106.155 96.06C106.368 95.8467 106.675 95.74 107.075 95.74C107.475 95.74 107.782 95.8467 107.995 96.06C108.222 96.2733 108.335 96.5867 108.335 97V102.18H108.055C108.348 101.473 108.802 100.94 109.415 100.58C110.042 100.207 110.748 100.02 111.535 100.02C112.322 100.02 112.968 100.167 113.475 100.46C113.982 100.753 114.362 101.2 114.615 101.8C114.868 102.387 114.995 103.133 114.995 104.04V108.88C114.995 109.293 114.888 109.613 114.675 109.84C114.462 110.053 114.155 110.16 113.755 110.16C113.355 110.16 113.042 110.053 112.815 109.84C112.602 109.613 112.495 109.293 112.495 108.88V104.16C112.495 103.4 112.348 102.847 112.055 102.5C111.775 102.153 111.335 101.98 110.735 101.98C110.002 101.98 109.415 102.213 108.975 102.68C108.548 103.133 108.335 103.74 108.335 104.5V108.88C108.335 109.733 107.915 110.16 107.075 110.16ZM120.754 110.2C120.048 110.2 119.414 110.067 118.854 109.8C118.308 109.52 117.874 109.147 117.554 108.68C117.248 108.213 117.094 107.687 117.094 107.1C117.094 106.38 117.281 105.813 117.654 105.4C118.028 104.973 118.634 104.667 119.474 104.48C120.314 104.293 121.441 104.2 122.854 104.2H123.854V105.64H122.874C122.048 105.64 121.388 105.68 120.894 105.76C120.401 105.84 120.048 105.98 119.834 106.18C119.634 106.367 119.534 106.633 119.534 106.98C119.534 107.42 119.688 107.78 119.994 108.06C120.301 108.34 120.728 108.48 121.274 108.48C121.714 108.48 122.101 108.38 122.434 108.18C122.781 107.967 123.054 107.68 123.254 107.32C123.454 106.96 123.554 106.547 123.554 106.08V103.78C123.554 103.113 123.408 102.633 123.114 102.34C122.821 102.047 122.328 101.9 121.634 101.9C121.248 101.9 120.828 101.947 120.374 102.04C119.934 102.133 119.468 102.293 118.974 102.52C118.721 102.64 118.494 102.673 118.294 102.62C118.108 102.567 117.961 102.46 117.854 102.3C117.748 102.127 117.694 101.94 117.694 101.74C117.694 101.54 117.748 101.347 117.854 101.16C117.961 100.96 118.141 100.813 118.394 100.72C119.008 100.467 119.594 100.287 120.154 100.18C120.728 100.073 121.248 100.02 121.714 100.02C122.674 100.02 123.461 100.167 124.074 100.46C124.701 100.753 125.168 101.2 125.474 101.8C125.781 102.387 125.934 103.147 125.934 104.08V108.88C125.934 109.293 125.834 109.613 125.634 109.84C125.434 110.053 125.148 110.16 124.774 110.16C124.401 110.16 124.108 110.053 123.894 109.84C123.694 109.613 123.594 109.293 123.594 108.88V107.92H123.754C123.661 108.387 123.474 108.793 123.194 109.14C122.928 109.473 122.588 109.733 122.174 109.92C121.761 110.107 121.288 110.2 120.754 110.2ZM129.712 110.16C129.312 110.16 129.005 110.053 128.792 109.84C128.579 109.613 128.472 109.293 128.472 108.88V101.32C128.472 100.907 128.579 100.593 128.792 100.38C129.005 100.167 129.305 100.06 129.692 100.06C130.079 100.06 130.379 100.167 130.592 100.38C130.805 100.593 130.912 100.907 130.912 101.32V102.68L130.692 102.18C130.985 101.473 131.439 100.94 132.052 100.58C132.679 100.207 133.385 100.02 134.172 100.02C134.959 100.02 135.605 100.167 136.112 100.46C136.619 100.753 136.999 101.2 137.252 101.8C137.505 102.387 137.632 103.133 137.632 104.04V108.88C137.632 109.293 137.525 109.613 137.312 109.84C137.099 110.053 136.792 110.16 136.392 110.16C135.992 110.16 135.679 110.053 135.452 109.84C135.239 109.613 135.132 109.293 135.132 108.88V104.16C135.132 103.4 134.985 102.847 134.692 102.5C134.412 102.153 133.972 101.98 133.372 101.98C132.639 101.98 132.052 102.213 131.612 102.68C131.185 103.133 130.972 103.74 130.972 104.5V108.88C130.972 109.733 130.552 110.16 129.712 110.16ZM144.691 110.2C143.664 110.2 142.771 109.993 142.011 109.58C141.251 109.153 140.664 108.553 140.251 107.78C139.838 107.007 139.631 106.1 139.631 105.06C139.631 104.273 139.744 103.573 139.971 102.96C140.211 102.333 140.551 101.807 140.991 101.38C141.431 100.94 141.964 100.607 142.591 100.38C143.218 100.14 143.918 100.02 144.691 100.02C145.131 100.02 145.604 100.08 146.111 100.2C146.631 100.32 147.118 100.52 147.571 100.8C147.784 100.933 147.924 101.093 147.991 101.28C148.058 101.467 148.071 101.66 148.031 101.86C147.991 102.047 147.904 102.213 147.771 102.36C147.651 102.493 147.498 102.58 147.311 102.62C147.124 102.647 146.918 102.6 146.691 102.48C146.398 102.307 146.098 102.18 145.791 102.1C145.484 102.007 145.191 101.96 144.911 101.96C144.471 101.96 144.084 102.033 143.751 102.18C143.418 102.313 143.131 102.513 142.891 102.78C142.664 103.033 142.491 103.353 142.371 103.74C142.251 104.127 142.191 104.573 142.191 105.08C142.191 106.067 142.424 106.847 142.891 107.42C143.371 107.98 144.044 108.26 144.911 108.26C145.191 108.26 145.478 108.22 145.771 108.14C146.078 108.06 146.384 107.933 146.691 107.76C146.918 107.64 147.118 107.6 147.291 107.64C147.478 107.68 147.631 107.773 147.751 107.92C147.871 108.053 147.944 108.22 147.971 108.42C147.998 108.607 147.971 108.793 147.891 108.98C147.824 109.167 147.691 109.32 147.491 109.44C147.051 109.707 146.584 109.9 146.091 110.02C145.598 110.14 145.131 110.2 144.691 110.2ZM154.229 110.2C153.123 110.2 152.169 109.993 151.369 109.58C150.569 109.167 149.949 108.58 149.509 107.82C149.083 107.06 148.869 106.16 148.869 105.12C148.869 104.107 149.076 103.22 149.489 102.46C149.916 101.7 150.496 101.107 151.229 100.68C151.976 100.24 152.823 100.02 153.769 100.02C154.463 100.02 155.083 100.133 155.629 100.36C156.189 100.587 156.663 100.913 157.049 101.34C157.449 101.767 157.749 102.287 157.949 102.9C158.163 103.5 158.269 104.18 158.269 104.94C158.269 105.18 158.183 105.367 158.009 105.5C157.849 105.62 157.616 105.68 157.309 105.68H150.889V104.24H156.509L156.189 104.54C156.189 103.927 156.096 103.413 155.909 103C155.736 102.587 155.476 102.273 155.129 102.06C154.796 101.833 154.376 101.72 153.869 101.72C153.309 101.72 152.829 101.853 152.429 102.12C152.043 102.373 151.743 102.74 151.529 103.22C151.329 103.687 151.229 104.247 151.229 104.9V105.04C151.229 106.133 151.483 106.953 151.989 107.5C152.509 108.033 153.269 108.3 154.269 108.3C154.616 108.3 155.003 108.26 155.429 108.18C155.869 108.087 156.283 107.933 156.669 107.72C156.949 107.56 157.196 107.493 157.409 107.52C157.623 107.533 157.789 107.607 157.909 107.74C158.043 107.873 158.123 108.04 158.149 108.24C158.176 108.427 158.136 108.62 158.029 108.82C157.936 109.02 157.769 109.193 157.529 109.34C157.063 109.633 156.523 109.853 155.909 110C155.309 110.133 154.749 110.2 154.229 110.2ZM164.009 110.2C163.156 110.2 162.403 109.993 161.749 109.58C161.109 109.167 160.609 108.58 160.249 107.82C159.889 107.047 159.709 106.14 159.709 105.1C159.709 104.047 159.889 103.147 160.249 102.4C160.609 101.64 161.109 101.053 161.749 100.64C162.403 100.227 163.156 100.02 164.009 100.02C164.823 100.02 165.529 100.22 166.129 100.62C166.743 101.02 167.156 101.547 167.369 102.2H167.149V97C167.149 96.5867 167.256 96.2733 167.469 96.06C167.683 95.8467 167.989 95.74 168.389 95.74C168.789 95.74 169.096 95.8467 169.309 96.06C169.536 96.2733 169.649 96.5867 169.649 97V108.88C169.649 109.293 169.543 109.613 169.329 109.84C169.116 110.053 168.809 110.16 168.409 110.16C168.009 110.16 167.703 110.053 167.489 109.84C167.276 109.613 167.169 109.293 167.169 108.88V107.32L167.389 107.92C167.189 108.613 166.783 109.167 166.169 109.58C165.556 109.993 164.836 110.2 164.009 110.2ZM164.709 108.3C165.203 108.3 165.636 108.18 166.009 107.94C166.383 107.7 166.669 107.347 166.869 106.88C167.083 106.4 167.189 105.807 167.189 105.1C167.189 104.033 166.963 103.24 166.509 102.72C166.056 102.187 165.456 101.92 164.709 101.92C164.216 101.92 163.783 102.04 163.409 102.28C163.036 102.507 162.743 102.86 162.529 103.34C162.329 103.807 162.229 104.393 162.229 105.1C162.229 106.153 162.456 106.953 162.909 107.5C163.363 108.033 163.963 108.3 164.709 108.3ZM179.191 110.16C178.778 110.16 178.458 110.047 178.231 109.82C178.018 109.58 177.911 109.253 177.911 108.84V97.2C177.911 96.7733 178.024 96.4533 178.251 96.24C178.478 96.0133 178.798 95.9 179.211 95.9H184.031C185.578 95.9 186.771 96.2867 187.611 97.06C188.451 97.8333 188.871 98.9133 188.871 100.3C188.871 101.687 188.451 102.773 187.611 103.56C186.771 104.333 185.578 104.72 184.031 104.72H180.471V108.84C180.471 109.253 180.364 109.58 180.151 109.82C179.938 110.047 179.618 110.16 179.191 110.16ZM180.471 102.7H183.631C184.538 102.7 185.224 102.5 185.691 102.1C186.158 101.687 186.391 101.087 186.391 100.3C186.391 99.5133 186.158 98.92 185.691 98.52C185.224 98.12 184.538 97.92 183.631 97.92H180.471V102.7ZM191.803 110.16C191.389 110.16 191.069 110.053 190.843 109.84C190.629 109.613 190.523 109.293 190.523 108.88V101.32C190.523 100.907 190.629 100.593 190.843 100.38C191.056 100.167 191.356 100.06 191.743 100.06C192.129 100.06 192.429 100.167 192.643 100.38C192.856 100.593 192.963 100.907 192.963 101.32V102.58H192.763C192.949 101.78 193.316 101.173 193.863 100.76C194.409 100.347 195.136 100.1 196.043 100.02C196.323 99.9933 196.543 100.067 196.703 100.24C196.876 100.4 196.976 100.653 197.003 101C197.029 101.333 196.949 101.607 196.763 101.82C196.589 102.02 196.323 102.14 195.963 102.18L195.523 102.22C194.709 102.3 194.096 102.553 193.683 102.98C193.269 103.393 193.063 103.98 193.063 104.74V108.88C193.063 109.293 192.956 109.613 192.743 109.84C192.529 110.053 192.216 110.16 191.803 110.16ZM202.658 110.2C201.645 110.2 200.765 109.993 200.018 109.58C199.272 109.167 198.692 108.58 198.278 107.82C197.865 107.047 197.658 106.14 197.658 105.1C197.658 104.313 197.772 103.613 197.998 103C198.238 102.373 198.578 101.84 199.018 101.4C199.458 100.947 199.985 100.607 200.598 100.38C201.212 100.14 201.898 100.02 202.658 100.02C203.672 100.02 204.552 100.227 205.298 100.64C206.045 101.053 206.625 101.64 207.038 102.4C207.452 103.16 207.658 104.06 207.658 105.1C207.658 105.887 207.538 106.593 207.298 107.22C207.072 107.847 206.738 108.387 206.298 108.84C205.858 109.28 205.332 109.62 204.718 109.86C204.105 110.087 203.418 110.2 202.658 110.2ZM202.658 108.3C203.152 108.3 203.585 108.18 203.958 107.94C204.332 107.7 204.618 107.347 204.818 106.88C205.032 106.4 205.138 105.807 205.138 105.1C205.138 104.033 204.912 103.24 204.458 102.72C204.005 102.187 203.405 101.92 202.658 101.92C202.165 101.92 201.732 102.04 201.358 102.28C200.985 102.507 200.692 102.86 200.478 103.34C200.278 103.807 200.178 104.393 200.178 105.1C200.178 106.153 200.405 106.953 200.858 107.5C201.312 108.033 201.912 108.3 202.658 108.3ZM211.544 110.16C211.144 110.16 210.831 110.053 210.604 109.84C210.391 109.613 210.284 109.293 210.284 108.88V102.1H209.364C209.044 102.1 208.798 102.02 208.624 101.86C208.451 101.687 208.364 101.453 208.364 101.16C208.364 100.853 208.451 100.62 208.624 100.46C208.798 100.3 209.044 100.22 209.364 100.22H211.004L210.284 100.88V100.2C210.284 98.8533 210.624 97.8333 211.304 97.14C211.984 96.4467 212.971 96.0333 214.264 95.9L214.864 95.84C215.171 95.8133 215.411 95.8533 215.584 95.96C215.771 96.0667 215.891 96.2133 215.944 96.4C216.011 96.5733 216.024 96.76 215.984 96.96C215.944 97.1467 215.864 97.3133 215.744 97.46C215.624 97.5933 215.471 97.6667 215.284 97.68L214.804 97.72C214.098 97.7733 213.584 97.9667 213.264 98.3C212.944 98.6333 212.784 99.1333 212.784 99.8V100.54L212.464 100.22H218.004C218.404 100.22 218.711 100.34 218.924 100.58C219.138 100.807 219.244 101.133 219.244 101.56V108.78C219.244 109.207 219.138 109.54 218.924 109.78C218.724 110.02 218.418 110.14 218.004 110.14C217.604 110.14 217.291 110.02 217.064 109.78C216.851 109.54 216.744 109.207 216.744 108.78V102.1H212.784V108.88C212.784 109.733 212.371 110.16 211.544 110.16ZM218.044 98.22C217.591 98.22 217.238 98.1067 216.984 97.88C216.744 97.64 216.624 97.3133 216.624 96.9C216.624 96.4733 216.744 96.1467 216.984 95.92C217.238 95.6933 217.591 95.58 218.044 95.58C218.511 95.58 218.864 95.6933 219.104 95.92C219.358 96.1467 219.484 96.4733 219.484 96.9C219.484 97.3133 219.358 97.64 219.104 97.88C218.864 98.1067 218.511 98.22 218.044 98.22ZM226.331 110.2C225.464 110.2 224.737 110.053 224.151 109.76C223.577 109.467 223.151 109.04 222.871 108.48C222.591 107.907 222.451 107.2 222.451 106.36V102.1H221.411C221.091 102.1 220.844 102.02 220.671 101.86C220.497 101.687 220.411 101.453 220.411 101.16C220.411 100.853 220.497 100.62 220.671 100.46C220.844 100.3 221.091 100.22 221.411 100.22H222.451V98.4C222.451 97.9867 222.557 97.6733 222.771 97.46C222.997 97.2467 223.311 97.14 223.711 97.14C224.111 97.14 224.417 97.2467 224.631 97.46C224.844 97.6733 224.951 97.9867 224.951 98.4V100.22H227.071C227.391 100.22 227.637 100.3 227.811 100.46C227.984 100.62 228.071 100.853 228.071 101.16C228.071 101.453 227.984 101.687 227.811 101.86C227.637 102.02 227.391 102.1 227.071 102.1H224.951V106.22C224.951 106.86 225.091 107.34 225.371 107.66C225.651 107.98 226.104 108.14 226.731 108.14C226.957 108.14 227.157 108.12 227.331 108.08C227.504 108.04 227.657 108.013 227.791 108C227.951 107.987 228.084 108.04 228.191 108.16C228.297 108.267 228.351 108.493 228.351 108.84C228.351 109.107 228.304 109.347 228.211 109.56C228.131 109.76 227.977 109.9 227.751 109.98C227.577 110.033 227.351 110.08 227.071 110.12C226.791 110.173 226.544 110.2 226.331 110.2ZM232.747 110.2C232.04 110.2 231.407 110.067 230.847 109.8C230.3 109.52 229.867 109.147 229.547 108.68C229.24 108.213 229.087 107.687 229.087 107.1C229.087 106.38 229.273 105.813 229.647 105.4C230.02 104.973 230.627 104.667 231.467 104.48C232.307 104.293 233.433 104.2 234.847 104.2H235.847V105.64H234.867C234.04 105.64 233.38 105.68 232.887 105.76C232.393 105.84 232.04 105.98 231.827 106.18C231.627 106.367 231.527 106.633 231.527 106.98C231.527 107.42 231.68 107.78 231.987 108.06C232.293 108.34 232.72 108.48 233.267 108.48C233.707 108.48 234.093 108.38 234.427 108.18C234.773 107.967 235.047 107.68 235.247 107.32C235.447 106.96 235.547 106.547 235.547 106.08V103.78C235.547 103.113 235.4 102.633 235.107 102.34C234.813 102.047 234.32 101.9 233.627 101.9C233.24 101.9 232.82 101.947 232.367 102.04C231.927 102.133 231.46 102.293 230.967 102.52C230.713 102.64 230.487 102.673 230.287 102.62C230.1 102.567 229.953 102.46 229.847 102.3C229.74 102.127 229.687 101.94 229.687 101.74C229.687 101.54 229.74 101.347 229.847 101.16C229.953 100.96 230.133 100.813 230.387 100.72C231 100.467 231.587 100.287 232.147 100.18C232.72 100.073 233.24 100.02 233.707 100.02C234.667 100.02 235.453 100.167 236.067 100.46C236.693 100.753 237.16 101.2 237.467 101.8C237.773 102.387 237.927 103.147 237.927 104.08V108.88C237.927 109.293 237.827 109.613 237.627 109.84C237.427 110.053 237.14 110.16 236.767 110.16C236.393 110.16 236.1 110.053 235.887 109.84C235.687 109.613 235.587 109.293 235.587 108.88V107.92H235.747C235.653 108.387 235.467 108.793 235.187 109.14C234.92 109.473 234.58 109.733 234.167 109.92C233.753 110.107 233.28 110.2 232.747 110.2ZM246.104 110.2C245.277 110.2 244.551 109.993 243.924 109.58C243.311 109.167 242.904 108.613 242.704 107.92L242.924 107.42V108.88C242.924 109.293 242.817 109.613 242.604 109.84C242.391 110.053 242.091 110.16 241.704 110.16C241.304 110.16 240.997 110.053 240.784 109.84C240.571 109.613 240.464 109.293 240.464 108.88V97C240.464 96.5867 240.571 96.2733 240.784 96.06C240.997 95.8467 241.304 95.74 241.704 95.74C242.104 95.74 242.411 95.8467 242.624 96.06C242.851 96.2733 242.964 96.5867 242.964 97V102.2H242.724C242.937 101.547 243.351 101.02 243.964 100.62C244.577 100.22 245.291 100.02 246.104 100.02C246.971 100.02 247.724 100.227 248.364 100.64C249.004 101.053 249.504 101.64 249.864 102.4C250.224 103.147 250.404 104.047 250.404 105.1C250.404 106.14 250.224 107.047 249.864 107.82C249.504 108.58 248.997 109.167 248.344 109.58C247.704 109.993 246.957 110.2 246.104 110.2ZM245.404 108.3C245.897 108.3 246.331 108.18 246.704 107.94C247.077 107.7 247.364 107.347 247.564 106.88C247.777 106.4 247.884 105.807 247.884 105.1C247.884 104.033 247.657 103.24 247.204 102.72C246.751 102.187 246.151 101.92 245.404 101.92C244.911 101.92 244.477 102.04 244.104 102.28C243.731 102.507 243.437 102.86 243.224 103.34C243.024 103.807 242.924 104.393 242.924 105.1C242.924 106.153 243.151 106.953 243.604 107.5C244.057 108.033 244.657 108.3 245.404 108.3ZM253.696 110.14C253.296 110.14 252.99 110.02 252.776 109.78C252.563 109.54 252.456 109.207 252.456 108.78V101.44C252.456 101 252.563 100.667 252.776 100.44C252.99 100.2 253.296 100.08 253.696 100.08C254.096 100.08 254.403 100.2 254.616 100.44C254.843 100.667 254.956 101 254.956 101.44V108.78C254.956 109.207 254.85 109.54 254.636 109.78C254.423 110.02 254.11 110.14 253.696 110.14ZM253.696 98.22C253.23 98.22 252.863 98.1067 252.596 97.88C252.343 97.64 252.216 97.3133 252.216 96.9C252.216 96.4733 252.343 96.1467 252.596 95.92C252.863 95.6933 253.23 95.58 253.696 95.58C254.176 95.58 254.543 95.6933 254.796 95.92C255.05 96.1467 255.176 96.4733 255.176 96.9C255.176 97.3133 255.05 97.64 254.796 97.88C254.543 98.1067 254.176 98.22 253.696 98.22ZM260.894 110.2C259.787 110.2 258.954 109.887 258.394 109.26C257.834 108.62 257.554 107.687 257.554 106.46V97C257.554 96.5867 257.661 96.2733 257.874 96.06C258.087 95.8467 258.394 95.74 258.794 95.74C259.194 95.74 259.501 95.8467 259.714 96.06C259.941 96.2733 260.054 96.5867 260.054 97V106.34C260.054 106.953 260.181 107.407 260.434 107.7C260.701 107.993 261.074 108.14 261.554 108.14C261.661 108.14 261.761 108.14 261.854 108.14C261.947 108.127 262.041 108.113 262.134 108.1C262.321 108.073 262.447 108.127 262.514 108.26C262.581 108.38 262.614 108.633 262.614 109.02C262.614 109.353 262.547 109.613 262.414 109.8C262.281 109.987 262.061 110.1 261.754 110.14C261.621 110.153 261.481 110.167 261.334 110.18C261.187 110.193 261.041 110.2 260.894 110.2ZM265.181 110.14C264.781 110.14 264.474 110.02 264.261 109.78C264.047 109.54 263.941 109.207 263.941 108.78V101.44C263.941 101 264.047 100.667 264.261 100.44C264.474 100.2 264.781 100.08 265.181 100.08C265.581 100.08 265.887 100.2 266.101 100.44C266.327 100.667 266.441 101 266.441 101.44V108.78C266.441 109.207 266.334 109.54 266.121 109.78C265.907 110.02 265.594 110.14 265.181 110.14ZM265.181 98.22C264.714 98.22 264.347 98.1067 264.081 97.88C263.827 97.64 263.701 97.3133 263.701 96.9C263.701 96.4733 263.827 96.1467 264.081 95.92C264.347 95.6933 264.714 95.58 265.181 95.58C265.661 95.58 266.027 95.6933 266.281 95.92C266.534 96.1467 266.661 96.4733 266.661 96.9C266.661 97.3133 266.534 97.64 266.281 97.88C266.027 98.1067 265.661 98.22 265.181 98.22ZM273.518 110.2C272.652 110.2 271.925 110.053 271.338 109.76C270.765 109.467 270.338 109.04 270.058 108.48C269.778 107.907 269.638 107.2 269.638 106.36V102.1H268.598C268.278 102.1 268.032 102.02 267.858 101.86C267.685 101.687 267.598 101.453 267.598 101.16C267.598 100.853 267.685 100.62 267.858 100.46C268.032 100.3 268.278 100.22 268.598 100.22H269.638V98.4C269.638 97.9867 269.745 97.6733 269.958 97.46C270.185 97.2467 270.498 97.14 270.898 97.14C271.298 97.14 271.605 97.2467 271.818 97.46C272.032 97.6733 272.138 97.9867 272.138 98.4V100.22H274.258C274.578 100.22 274.825 100.3 274.998 100.46C275.172 100.62 275.258 100.853 275.258 101.16C275.258 101.453 275.172 101.687 274.998 101.86C274.825 102.02 274.578 102.1 274.258 102.1H272.138V106.22C272.138 106.86 272.278 107.34 272.558 107.66C272.838 107.98 273.292 108.14 273.918 108.14C274.145 108.14 274.345 108.12 274.518 108.08C274.692 108.04 274.845 108.013 274.978 108C275.138 107.987 275.272 108.04 275.378 108.16C275.485 108.267 275.538 108.493 275.538 108.84C275.538 109.107 275.492 109.347 275.398 109.56C275.318 109.76 275.165 109.9 274.938 109.98C274.765 110.033 274.538 110.08 274.258 110.12C273.978 110.173 273.732 110.2 273.518 110.2ZM279.35 113.76C279.057 113.76 278.817 113.68 278.63 113.52C278.444 113.373 278.33 113.173 278.29 112.92C278.264 112.667 278.31 112.4 278.43 112.12L279.79 109.1V110.14L276.15 101.72C276.03 101.427 275.99 101.153 276.03 100.9C276.07 100.647 276.19 100.447 276.39 100.3C276.604 100.14 276.89 100.06 277.25 100.06C277.557 100.06 277.804 100.133 277.99 100.28C278.177 100.413 278.344 100.673 278.49 101.06L281.19 107.8H280.59L283.35 101.04C283.497 100.667 283.67 100.413 283.87 100.28C284.07 100.133 284.337 100.06 284.67 100.06C284.964 100.06 285.197 100.14 285.37 100.3C285.544 100.447 285.65 100.647 285.69 100.9C285.73 101.14 285.684 101.407 285.55 101.7L280.69 112.8C280.517 113.173 280.33 113.427 280.13 113.56C279.93 113.693 279.67 113.76 279.35 113.76Z" fill="black"/>
<path d="M33.1309 139.144C32.3629 139.144 31.7762 138.909 31.3709 138.44C30.9655 137.971 30.7629 137.299 30.7629 136.424V128.264C30.7629 128.051 30.8162 127.891 30.9229 127.784C31.0295 127.667 31.1895 127.608 31.4029 127.608C31.6055 127.608 31.7655 127.667 31.8829 127.784C32.0002 127.891 32.0589 128.051 32.0589 128.264V136.328C32.0589 136.904 32.1709 137.336 32.3949 137.624C32.6295 137.901 32.9709 138.04 33.4189 138.04C33.5149 138.04 33.6002 138.035 33.6749 138.024C33.7495 138.013 33.8242 138.008 33.8989 138.008C34.0162 137.997 34.0962 138.024 34.1389 138.088C34.1922 138.152 34.2189 138.28 34.2189 138.472C34.2189 138.664 34.1762 138.808 34.0909 138.904C34.0055 139 33.8669 139.064 33.6749 139.096C33.5895 139.107 33.4989 139.117 33.4029 139.128C33.3069 139.139 33.2162 139.144 33.1309 139.144ZM38.6511 139.144C37.8938 139.144 37.2378 138.979 36.6831 138.648C36.1285 138.317 35.6965 137.853 35.3871 137.256C35.0885 136.648 34.9391 135.933 34.9391 135.112C34.9391 134.493 35.0245 133.939 35.1951 133.448C35.3658 132.947 35.6165 132.52 35.9471 132.168C36.2778 131.816 36.6671 131.549 37.1151 131.368C37.5738 131.176 38.0858 131.08 38.6511 131.08C39.4085 131.08 40.0645 131.245 40.6191 131.576C41.1738 131.907 41.6005 132.376 41.8991 132.984C42.2085 133.581 42.3631 134.291 42.3631 135.112C42.3631 135.731 42.2778 136.285 42.1071 136.776C41.9365 137.267 41.6858 137.693 41.3551 138.056C41.0245 138.408 40.6298 138.68 40.1711 138.872C39.7231 139.053 39.2165 139.144 38.6511 139.144ZM38.6511 138.104C39.1311 138.104 39.5525 137.987 39.9151 137.752C40.2778 137.517 40.5551 137.176 40.7471 136.728C40.9498 136.28 41.0511 135.741 41.0511 135.112C41.0511 134.141 40.8325 133.4 40.3951 132.888C39.9685 132.376 39.3871 132.12 38.6511 132.12C38.1605 132.12 37.7338 132.237 37.3711 132.472C37.0191 132.696 36.7418 133.032 36.5391 133.48C36.3471 133.917 36.2511 134.461 36.2511 135.112C36.2511 136.072 36.4698 136.813 36.9071 137.336C37.3445 137.848 37.9258 138.104 38.6511 138.104ZM46.8884 139.112C46.707 139.112 46.547 139.064 46.4084 138.968C46.2697 138.872 46.1577 138.717 46.0724 138.504L43.6884 132.024C43.6244 131.843 43.603 131.683 43.6244 131.544C43.6564 131.405 43.7257 131.299 43.8324 131.224C43.939 131.149 44.0724 131.112 44.2324 131.112C44.3924 131.112 44.5204 131.149 44.6164 131.224C44.723 131.299 44.8084 131.437 44.8724 131.64L47.1124 138.04H46.7284L49.0324 131.64C49.107 131.448 49.1977 131.315 49.3044 131.24C49.4217 131.155 49.571 131.112 49.7524 131.112C49.923 131.112 50.067 131.155 50.1844 131.24C50.3017 131.325 50.3924 131.459 50.4564 131.64L52.7124 138.04H52.3444L54.6164 131.608C54.691 131.416 54.7817 131.288 54.8884 131.224C54.995 131.149 55.123 131.112 55.2724 131.112C55.443 131.112 55.571 131.155 55.6564 131.24C55.7524 131.325 55.8057 131.437 55.8164 131.576C55.827 131.715 55.8004 131.864 55.7364 132.024L53.3524 138.504C53.2777 138.707 53.1657 138.861 53.0164 138.968C52.8777 139.064 52.7177 139.112 52.5364 139.112C52.355 139.112 52.195 139.064 52.0564 138.968C51.9177 138.861 51.811 138.707 51.7364 138.504L49.3684 132.008H50.0564L47.7044 138.504C47.6297 138.707 47.523 138.861 47.3844 138.968C47.2457 139.064 47.0804 139.112 46.8884 139.112ZM61.0481 139.144C60.2268 139.144 59.5175 138.984 58.9201 138.664C58.3335 138.333 57.8748 137.869 57.5441 137.272C57.2241 136.675 57.0641 135.96 57.0641 135.128C57.0641 134.317 57.2241 133.613 57.5441 133.016C57.8641 132.408 58.3015 131.933 58.8561 131.592C59.4215 131.251 60.0721 131.08 60.8081 131.08C61.3308 131.08 61.8001 131.171 62.2161 131.352C62.6321 131.523 62.9841 131.773 63.2721 132.104C63.5708 132.435 63.7948 132.835 63.9441 133.304C64.1041 133.773 64.1841 134.301 64.1841 134.888C64.1841 135.059 64.1361 135.187 64.0401 135.272C63.9441 135.347 63.8055 135.384 63.6241 135.384H58.0561V134.536H63.3201L63.0641 134.744C63.0641 134.168 62.9788 133.683 62.8081 133.288C62.6375 132.883 62.3868 132.573 62.0561 132.36C61.7361 132.147 61.3308 132.04 60.8401 132.04C60.2961 132.04 59.8321 132.168 59.4481 132.424C59.0748 132.669 58.7921 133.016 58.6001 133.464C58.4081 133.901 58.3121 134.413 58.3121 135V135.096C58.3121 136.077 58.5468 136.824 59.0161 137.336C59.4961 137.848 60.1735 138.104 61.0481 138.104C61.4108 138.104 61.7681 138.056 62.1201 137.96C62.4828 137.864 62.8348 137.704 63.1761 137.48C63.3255 137.384 63.4588 137.341 63.5761 137.352C63.7041 137.352 63.8055 137.389 63.8801 137.464C63.9548 137.528 64.0028 137.613 64.0241 137.72C64.0561 137.816 64.0455 137.923 63.9921 138.04C63.9495 138.157 63.8588 138.259 63.7201 138.344C63.3681 138.6 62.9521 138.797 62.4721 138.936C61.9921 139.075 61.5175 139.144 61.0481 139.144ZM66.7158 139.112C66.5024 139.112 66.3371 139.053 66.2198 138.936C66.1131 138.819 66.0598 138.653 66.0598 138.44V131.768C66.0598 131.555 66.1131 131.395 66.2198 131.288C66.3264 131.171 66.4811 131.112 66.6838 131.112C66.8864 131.112 67.0411 131.171 67.1478 131.288C67.2651 131.395 67.3238 131.555 67.3238 131.768V133.064H67.1638C67.3344 132.435 67.6598 131.949 68.1398 131.608C68.6198 131.267 69.2118 131.085 69.9158 131.064C70.0758 131.053 70.2038 131.091 70.2998 131.176C70.3958 131.251 70.4491 131.384 70.4598 131.576C70.4704 131.757 70.4278 131.901 70.3318 132.008C70.2358 132.115 70.0864 132.179 69.8838 132.2L69.6278 132.232C68.9024 132.296 68.3424 132.531 67.9478 132.936C67.5638 133.331 67.3718 133.875 67.3718 134.568V138.44C67.3718 138.653 67.3131 138.819 67.1957 138.936C67.0891 139.053 66.9291 139.112 66.7158 139.112ZM79.2151 139.144C78.4365 139.144 77.7645 138.973 77.1991 138.632C76.6338 138.291 76.1965 137.816 75.8871 137.208C75.5885 136.589 75.4391 135.875 75.4391 135.064C75.4391 134.445 75.5245 133.891 75.6951 133.4C75.8658 132.909 76.1165 132.493 76.4471 132.152C76.7778 131.8 77.1725 131.533 77.6311 131.352C78.1005 131.171 78.6285 131.08 79.2151 131.08C79.5991 131.08 79.9991 131.139 80.4151 131.256C80.8311 131.373 81.2098 131.576 81.5511 131.864C81.6578 131.939 81.7271 132.029 81.7591 132.136C81.7911 132.243 81.7911 132.349 81.7591 132.456C81.7271 132.552 81.6738 132.637 81.5991 132.712C81.5245 132.776 81.4285 132.813 81.3111 132.824C81.2045 132.835 81.0925 132.797 80.9751 132.712C80.6978 132.499 80.4151 132.349 80.1271 132.264C79.8391 132.179 79.5618 132.136 79.2951 132.136C78.8791 132.136 78.5165 132.205 78.2071 132.344C77.8978 132.472 77.6365 132.659 77.4231 132.904C77.2098 133.149 77.0445 133.453 76.9271 133.816C76.8205 134.179 76.7671 134.6 76.7671 135.08C76.7671 136.008 76.9858 136.744 77.4231 137.288C77.8605 137.821 78.4845 138.088 79.2951 138.088C79.5618 138.088 79.8338 138.045 80.1111 137.96C80.3991 137.875 80.6871 137.725 80.9751 137.512C81.0925 137.427 81.2045 137.389 81.3111 137.4C81.4178 137.411 81.5085 137.453 81.5831 137.528C81.6578 137.592 81.7058 137.677 81.7271 137.784C81.7591 137.891 81.7591 137.997 81.7271 138.104C81.6951 138.2 81.6258 138.285 81.5191 138.36C81.1778 138.637 80.8045 138.84 80.3991 138.968C79.9938 139.085 79.5991 139.144 79.2151 139.144ZM86.4011 139.144C85.6438 139.144 84.9878 138.979 84.4331 138.648C83.8785 138.317 83.4465 137.853 83.1371 137.256C82.8385 136.648 82.6891 135.933 82.6891 135.112C82.6891 134.493 82.7745 133.939 82.9451 133.448C83.1158 132.947 83.3665 132.52 83.6971 132.168C84.0278 131.816 84.4171 131.549 84.8651 131.368C85.3238 131.176 85.8358 131.08 86.4011 131.08C87.1585 131.08 87.8145 131.245 88.3691 131.576C88.9238 131.907 89.3505 132.376 89.6491 132.984C89.9585 133.581 90.1131 134.291 90.1131 135.112C90.1131 135.731 90.0278 136.285 89.8571 136.776C89.6865 137.267 89.4358 137.693 89.1051 138.056C88.7745 138.408 88.3798 138.68 87.9211 138.872C87.4731 139.053 86.9665 139.144 86.4011 139.144ZM86.4011 138.104C86.8811 138.104 87.3025 137.987 87.6651 137.752C88.0278 137.517 88.3051 137.176 88.4971 136.728C88.6998 136.28 88.8011 135.741 88.8011 135.112C88.8011 134.141 88.5825 133.4 88.1451 132.888C87.7185 132.376 87.1371 132.12 86.4011 132.12C85.9105 132.12 85.4838 132.237 85.1211 132.472C84.7691 132.696 84.4918 133.032 84.2891 133.48C84.0971 133.917 84.0011 134.461 84.0011 135.112C84.0011 136.072 84.2198 136.813 84.6571 137.336C85.0945 137.848 85.6758 138.104 86.4011 138.104ZM92.7318 139.112C92.5184 139.112 92.3584 139.053 92.2518 138.936C92.1451 138.819 92.0918 138.653 92.0918 138.44V131.768C92.0918 131.555 92.1451 131.395 92.2518 131.288C92.3584 131.171 92.5131 131.112 92.7158 131.112C92.9184 131.112 93.0731 131.171 93.1798 131.288C93.2971 131.395 93.3558 131.555 93.3558 131.768V133.176L93.1798 132.952C93.3824 132.355 93.7078 131.896 94.1558 131.576C94.6144 131.245 95.1584 131.08 95.7878 131.08C96.4491 131.08 96.9824 131.24 97.3878 131.56C97.8038 131.869 98.0811 132.355 98.2198 133.016H97.9798C98.1718 132.419 98.5131 131.949 99.0038 131.608C99.5051 131.256 100.086 131.08 100.748 131.08C101.334 131.08 101.814 131.192 102.188 131.416C102.572 131.64 102.86 131.981 103.052 132.44C103.244 132.888 103.34 133.459 103.34 134.152V138.44C103.34 138.653 103.281 138.819 103.164 138.936C103.057 139.053 102.897 139.112 102.684 139.112C102.481 139.112 102.321 139.053 102.204 138.936C102.097 138.819 102.044 138.653 102.044 138.44V134.216C102.044 133.501 101.921 132.979 101.676 132.648C101.43 132.307 101.014 132.136 100.428 132.136C99.7878 132.136 99.2811 132.36 98.9078 132.808C98.5451 133.245 98.3638 133.843 98.3638 134.6V138.44C98.3638 138.653 98.3051 138.819 98.1878 138.936C98.0811 139.053 97.9211 139.112 97.7078 139.112C97.5051 139.112 97.3451 139.053 97.2278 138.936C97.1211 138.819 97.0678 138.653 97.0678 138.44V134.216C97.0678 133.501 96.9398 132.979 96.6838 132.648C96.4384 132.307 96.0278 132.136 95.4518 132.136C94.8118 132.136 94.3051 132.36 93.9318 132.808C93.5691 133.245 93.3878 133.843 93.3878 134.6V138.44C93.3878 138.888 93.1691 139.112 92.7318 139.112ZM106.435 139.112C106.222 139.112 106.062 139.053 105.955 138.936C105.848 138.819 105.795 138.653 105.795 138.44V131.768C105.795 131.555 105.848 131.395 105.955 131.288C106.062 131.171 106.216 131.112 106.419 131.112C106.622 131.112 106.776 131.171 106.883 131.288C107 131.395 107.059 131.555 107.059 131.768V133.176L106.883 132.952C107.086 132.355 107.411 131.896 107.859 131.576C108.318 131.245 108.862 131.08 109.491 131.08C110.152 131.08 110.686 131.24 111.091 131.56C111.507 131.869 111.784 132.355 111.923 133.016H111.683C111.875 132.419 112.216 131.949 112.707 131.608C113.208 131.256 113.79 131.08 114.451 131.08C115.038 131.08 115.518 131.192 115.891 131.416C116.275 131.64 116.563 131.981 116.755 132.44C116.947 132.888 117.043 133.459 117.043 134.152V138.44C117.043 138.653 116.984 138.819 116.867 138.936C116.76 139.053 116.6 139.112 116.387 139.112C116.184 139.112 116.024 139.053 115.907 138.936C115.8 138.819 115.747 138.653 115.747 138.44V134.216C115.747 133.501 115.624 132.979 115.379 132.648C115.134 132.307 114.718 132.136 114.131 132.136C113.491 132.136 112.984 132.36 112.611 132.808C112.248 133.245 112.067 133.843 112.067 134.6V138.44C112.067 138.653 112.008 138.819 111.891 138.936C111.784 139.053 111.624 139.112 111.411 139.112C111.208 139.112 111.048 139.053 110.931 138.936C110.824 138.819 110.771 138.653 110.771 138.44V134.216C110.771 133.501 110.643 132.979 110.387 132.648C110.142 132.307 109.731 132.136 109.155 132.136C108.515 132.136 108.008 132.36 107.635 132.808C107.272 133.245 107.091 133.843 107.091 134.6V138.44C107.091 138.888 106.872 139.112 106.435 139.112ZM122.218 139.144C121.589 139.144 121.066 139.032 120.65 138.808C120.245 138.573 119.935 138.227 119.722 137.768C119.519 137.309 119.418 136.739 119.418 136.056V131.768C119.418 131.544 119.471 131.379 119.578 131.272C119.695 131.165 119.855 131.112 120.058 131.112C120.271 131.112 120.431 131.165 120.538 131.272C120.655 131.379 120.714 131.544 120.714 131.768V136.04C120.714 136.723 120.853 137.235 121.13 137.576C121.418 137.907 121.866 138.072 122.474 138.072C123.135 138.072 123.674 137.848 124.09 137.4C124.506 136.952 124.714 136.365 124.714 135.64V131.768C124.714 131.544 124.767 131.379 124.874 131.272C124.991 131.165 125.157 131.112 125.37 131.112C125.573 131.112 125.727 131.165 125.834 131.272C125.951 131.379 126.01 131.544 126.01 131.768V138.44C126.01 138.888 125.802 139.112 125.386 139.112C125.183 139.112 125.023 139.053 124.906 138.936C124.799 138.819 124.746 138.653 124.746 138.44V136.984L124.954 137.208C124.741 137.837 124.389 138.317 123.898 138.648C123.418 138.979 122.858 139.144 122.218 139.144ZM129.075 139.112C128.861 139.112 128.701 139.053 128.595 138.936C128.488 138.819 128.435 138.653 128.435 138.44V131.768C128.435 131.555 128.488 131.395 128.595 131.288C128.701 131.171 128.856 131.112 129.059 131.112C129.261 131.112 129.416 131.171 129.523 131.288C129.64 131.395 129.699 131.555 129.699 131.768V133.144L129.523 132.952C129.747 132.333 130.109 131.869 130.611 131.56C131.123 131.24 131.709 131.08 132.371 131.08C132.989 131.08 133.501 131.192 133.907 131.416C134.323 131.64 134.632 131.981 134.835 132.44C135.037 132.888 135.139 133.459 135.139 134.152V138.44C135.139 138.653 135.08 138.819 134.963 138.936C134.856 139.053 134.701 139.112 134.499 139.112C134.285 139.112 134.12 139.053 134.003 138.936C133.896 138.819 133.843 138.653 133.843 138.44V134.232C133.843 133.507 133.699 132.979 133.411 132.648C133.133 132.307 132.685 132.136 132.067 132.136C131.352 132.136 130.781 132.36 130.355 132.808C129.939 133.245 129.731 133.832 129.731 134.568V138.44C129.731 138.888 129.512 139.112 129.075 139.112ZM138.169 139.08C137.955 139.08 137.795 139.021 137.689 138.904C137.582 138.776 137.529 138.6 137.529 138.376V131.832C137.529 131.608 137.582 131.437 137.689 131.32C137.795 131.203 137.955 131.144 138.169 131.144C138.371 131.144 138.531 131.203 138.649 131.32C138.766 131.437 138.825 131.608 138.825 131.832V138.376C138.825 138.6 138.766 138.776 138.649 138.904C138.542 139.021 138.382 139.08 138.169 139.08ZM138.169 129.352C137.902 129.352 137.694 129.283 137.545 129.144C137.395 128.995 137.321 128.797 137.321 128.552C137.321 128.296 137.395 128.104 137.545 127.976C137.694 127.837 137.902 127.768 138.169 127.768C138.446 127.768 138.654 127.837 138.793 127.976C138.942 128.104 139.017 128.296 139.017 128.552C139.017 128.797 138.942 128.995 138.793 129.144C138.654 129.283 138.446 129.352 138.169 129.352ZM144.543 139.144C143.765 139.144 143.093 138.973 142.527 138.632C141.962 138.291 141.525 137.816 141.215 137.208C140.917 136.589 140.767 135.875 140.767 135.064C140.767 134.445 140.853 133.891 141.023 133.4C141.194 132.909 141.445 132.493 141.775 132.152C142.106 131.8 142.501 131.533 142.959 131.352C143.429 131.171 143.957 131.08 144.543 131.08C144.927 131.08 145.327 131.139 145.743 131.256C146.159 131.373 146.538 131.576 146.879 131.864C146.986 131.939 147.055 132.029 147.087 132.136C147.119 132.243 147.119 132.349 147.087 132.456C147.055 132.552 147.002 132.637 146.927 132.712C146.853 132.776 146.757 132.813 146.639 132.824C146.533 132.835 146.421 132.797 146.303 132.712C146.026 132.499 145.743 132.349 145.455 132.264C145.167 132.179 144.89 132.136 144.623 132.136C144.207 132.136 143.845 132.205 143.535 132.344C143.226 132.472 142.965 132.659 142.751 132.904C142.538 133.149 142.373 133.453 142.255 133.816C142.149 134.179 142.095 134.6 142.095 135.08C142.095 136.008 142.314 136.744 142.751 137.288C143.189 137.821 143.813 138.088 144.623 138.088C144.89 138.088 145.162 138.045 145.439 137.96C145.727 137.875 146.015 137.725 146.303 137.512C146.421 137.427 146.533 137.389 146.639 137.4C146.746 137.411 146.837 137.453 146.911 137.528C146.986 137.592 147.034 137.677 147.055 137.784C147.087 137.891 147.087 137.997 147.055 138.104C147.023 138.2 146.954 138.285 146.847 138.36C146.506 138.637 146.133 138.84 145.727 138.968C145.322 139.085 144.927 139.144 144.543 139.144ZM151.039 139.144C150.506 139.144 150.026 139.043 149.599 138.84C149.183 138.627 148.852 138.339 148.607 137.976C148.362 137.613 148.239 137.208 148.239 136.76C148.239 136.184 148.383 135.731 148.671 135.4C148.97 135.069 149.455 134.835 150.127 134.696C150.81 134.557 151.738 134.488 152.911 134.488H153.631V135.336H152.927C152.063 135.336 151.38 135.379 150.879 135.464C150.388 135.539 150.042 135.672 149.839 135.864C149.647 136.056 149.551 136.328 149.551 136.68C149.551 137.117 149.7 137.475 149.999 137.752C150.308 138.029 150.724 138.168 151.247 138.168C151.674 138.168 152.047 138.067 152.367 137.864C152.698 137.661 152.954 137.384 153.135 137.032C153.327 136.68 153.423 136.275 153.423 135.816V133.992C153.423 133.331 153.29 132.856 153.023 132.568C152.756 132.269 152.319 132.12 151.711 132.12C151.338 132.12 150.964 132.168 150.591 132.264C150.218 132.36 149.823 132.515 149.407 132.728C149.258 132.803 149.13 132.829 149.023 132.808C148.916 132.776 148.831 132.717 148.767 132.632C148.703 132.547 148.666 132.451 148.655 132.344C148.644 132.227 148.666 132.115 148.719 132.008C148.783 131.901 148.879 131.816 149.007 131.752C149.476 131.517 149.94 131.347 150.399 131.24C150.858 131.133 151.295 131.08 151.711 131.08C152.383 131.08 152.938 131.192 153.375 131.416C153.812 131.629 154.138 131.96 154.351 132.408C154.564 132.845 154.671 133.411 154.671 134.104V138.44C154.671 138.653 154.618 138.819 154.511 138.936C154.415 139.053 154.271 139.112 154.079 139.112C153.876 139.112 153.722 139.053 153.615 138.936C153.508 138.819 153.455 138.653 153.455 138.44V137.192H153.599C153.514 137.597 153.348 137.944 153.103 138.232C152.868 138.52 152.575 138.744 152.223 138.904C151.871 139.064 151.476 139.144 151.039 139.144ZM160.195 139.144C159.587 139.144 159.075 139.037 158.659 138.824C158.254 138.6 157.95 138.28 157.747 137.864C157.545 137.437 157.443 136.92 157.443 136.312V132.232H156.371C156.19 132.232 156.051 132.189 155.955 132.104C155.859 132.008 155.811 131.88 155.811 131.72C155.811 131.56 155.859 131.437 155.955 131.352C156.051 131.267 156.19 131.224 156.371 131.224H157.443V129.384C157.443 129.171 157.502 129.011 157.619 128.904C157.737 128.787 157.897 128.728 158.099 128.728C158.302 128.728 158.457 128.787 158.563 128.904C158.681 129.011 158.739 129.171 158.739 129.384V131.224H160.755C160.937 131.224 161.075 131.267 161.171 131.352C161.267 131.437 161.315 131.56 161.315 131.72C161.315 131.88 161.267 132.008 161.171 132.104C161.075 132.189 160.937 132.232 160.755 132.232H158.739V136.184C158.739 136.792 158.867 137.256 159.123 137.576C159.379 137.885 159.795 138.04 160.371 138.04C160.574 138.04 160.745 138.019 160.883 137.976C161.033 137.933 161.155 137.912 161.251 137.912C161.347 137.901 161.427 137.933 161.491 138.008C161.555 138.083 161.587 138.211 161.587 138.392C161.587 138.52 161.561 138.637 161.507 138.744C161.465 138.851 161.385 138.925 161.267 138.968C161.139 139.011 160.969 139.048 160.755 139.08C160.553 139.123 160.366 139.144 160.195 139.144ZM163.403 139.08C163.19 139.08 163.03 139.021 162.923 138.904C162.816 138.776 162.763 138.6 162.763 138.376V131.832C162.763 131.608 162.816 131.437 162.923 131.32C163.03 131.203 163.19 131.144 163.403 131.144C163.606 131.144 163.766 131.203 163.883 131.32C164 131.437 164.059 131.608 164.059 131.832V138.376C164.059 138.6 164 138.776 163.883 138.904C163.776 139.021 163.616 139.08 163.403 139.08ZM163.403 129.352C163.136 129.352 162.928 129.283 162.779 129.144C162.63 128.995 162.555 128.797 162.555 128.552C162.555 128.296 162.63 128.104 162.779 127.976C162.928 127.837 163.136 127.768 163.403 127.768C163.68 127.768 163.888 127.837 164.027 127.976C164.176 128.104 164.251 128.296 164.251 128.552C164.251 128.797 164.176 128.995 164.027 129.144C163.888 129.283 163.68 129.352 163.403 129.352ZM169.714 139.144C168.956 139.144 168.3 138.979 167.746 138.648C167.191 138.317 166.759 137.853 166.45 137.256C166.151 136.648 166.002 135.933 166.002 135.112C166.002 134.493 166.087 133.939 166.258 133.448C166.428 132.947 166.679 132.52 167.01 132.168C167.34 131.816 167.73 131.549 168.178 131.368C168.636 131.176 169.148 131.08 169.714 131.08C170.471 131.08 171.127 131.245 171.682 131.576C172.236 131.907 172.663 132.376 172.962 132.984C173.271 133.581 173.426 134.291 173.426 135.112C173.426 135.731 173.34 136.285 173.17 136.776C172.999 137.267 172.748 137.693 172.418 138.056C172.087 138.408 171.692 138.68 171.234 138.872C170.786 139.053 170.279 139.144 169.714 139.144ZM169.714 138.104C170.194 138.104 170.615 137.987 170.978 137.752C171.34 137.517 171.618 137.176 171.81 136.728C172.012 136.28 172.114 135.741 172.114 135.112C172.114 134.141 171.895 133.4 171.458 132.888C171.031 132.376 170.45 132.12 169.714 132.12C169.223 132.12 168.796 132.237 168.434 132.472C168.082 132.696 167.804 133.032 167.602 133.48C167.41 133.917 167.314 134.461 167.314 135.112C167.314 136.072 167.532 136.813 167.97 137.336C168.407 137.848 168.988 138.104 169.714 138.104ZM176.012 139.112C175.799 139.112 175.639 139.053 175.532 138.936C175.426 138.819 175.372 138.653 175.372 138.44V131.768C175.372 131.555 175.426 131.395 175.532 131.288C175.639 131.171 175.794 131.112 175.996 131.112C176.199 131.112 176.354 131.171 176.46 131.288C176.578 131.395 176.636 131.555 176.636 131.768V133.144L176.46 132.952C176.684 132.333 177.047 131.869 177.548 131.56C178.06 131.24 178.647 131.08 179.308 131.08C179.927 131.08 180.439 131.192 180.844 131.416C181.26 131.64 181.57 131.981 181.772 132.44C181.975 132.888 182.076 133.459 182.076 134.152V138.44C182.076 138.653 182.018 138.819 181.9 138.936C181.794 139.053 181.639 139.112 181.436 139.112C181.223 139.112 181.058 139.053 180.94 138.936C180.834 138.819 180.78 138.653 180.78 138.44V134.232C180.78 133.507 180.636 132.979 180.348 132.648C180.071 132.307 179.623 132.136 179.004 132.136C178.29 132.136 177.719 132.36 177.292 132.808C176.876 133.245 176.668 133.832 176.668 134.568V138.44C176.668 138.888 176.45 139.112 176.012 139.112ZM192.527 139.144C191.823 139.144 191.215 138.963 190.703 138.6C190.202 138.237 189.866 137.752 189.695 137.144L189.871 136.968V138.44C189.871 138.653 189.812 138.819 189.695 138.936C189.588 139.053 189.434 139.112 189.231 139.112C189.018 139.112 188.858 139.053 188.751 138.936C188.644 138.819 188.591 138.653 188.591 138.44V128.264C188.591 128.051 188.644 127.891 188.751 127.784C188.858 127.667 189.018 127.608 189.231 127.608C189.434 127.608 189.594 127.667 189.711 127.784C189.828 127.891 189.887 128.051 189.887 128.264V133.032H189.695C189.876 132.435 190.218 131.96 190.719 131.608C191.22 131.256 191.823 131.08 192.527 131.08C193.231 131.08 193.839 131.245 194.351 131.576C194.863 131.896 195.258 132.36 195.535 132.968C195.823 133.565 195.967 134.28 195.967 135.112C195.967 135.933 195.823 136.648 195.535 137.256C195.258 137.853 194.858 138.317 194.335 138.648C193.823 138.979 193.22 139.144 192.527 139.144ZM192.255 138.104C192.746 138.104 193.167 137.987 193.519 137.752C193.882 137.517 194.159 137.176 194.351 136.728C194.554 136.28 194.655 135.741 194.655 135.112C194.655 134.141 194.436 133.4 193.999 132.888C193.572 132.376 192.991 132.12 192.255 132.12C191.775 132.12 191.354 132.237 190.991 132.472C190.628 132.696 190.346 133.032 190.143 133.48C189.951 133.917 189.855 134.461 189.855 135.112C189.855 136.072 190.074 136.813 190.511 137.336C190.948 137.848 191.53 138.104 192.255 138.104ZM200.367 139.144C199.834 139.144 199.354 139.043 198.927 138.84C198.511 138.627 198.18 138.339 197.935 137.976C197.69 137.613 197.567 137.208 197.567 136.76C197.567 136.184 197.711 135.731 197.999 135.4C198.298 135.069 198.783 134.835 199.455 134.696C200.138 134.557 201.066 134.488 202.239 134.488H202.959V135.336H202.255C201.391 135.336 200.708 135.379 200.207 135.464C199.716 135.539 199.37 135.672 199.167 135.864C198.975 136.056 198.879 136.328 198.879 136.68C198.879 137.117 199.028 137.475 199.327 137.752C199.636 138.029 200.052 138.168 200.575 138.168C201.002 138.168 201.375 138.067 201.695 137.864C202.026 137.661 202.282 137.384 202.463 137.032C202.655 136.68 202.751 136.275 202.751 135.816V133.992C202.751 133.331 202.618 132.856 202.351 132.568C202.084 132.269 201.647 132.12 201.039 132.12C200.666 132.12 200.292 132.168 199.919 132.264C199.546 132.36 199.151 132.515 198.735 132.728C198.586 132.803 198.458 132.829 198.351 132.808C198.244 132.776 198.159 132.717 198.095 132.632C198.031 132.547 197.994 132.451 197.983 132.344C197.972 132.227 197.994 132.115 198.047 132.008C198.111 131.901 198.207 131.816 198.335 131.752C198.804 131.517 199.268 131.347 199.727 131.24C200.186 131.133 200.623 131.08 201.039 131.08C201.711 131.08 202.266 131.192 202.703 131.416C203.14 131.629 203.466 131.96 203.679 132.408C203.892 132.845 203.999 133.411 203.999 134.104V138.44C203.999 138.653 203.946 138.819 203.839 138.936C203.743 139.053 203.599 139.112 203.407 139.112C203.204 139.112 203.05 139.053 202.943 138.936C202.836 138.819 202.783 138.653 202.783 138.44V137.192H202.927C202.842 137.597 202.676 137.944 202.431 138.232C202.196 138.52 201.903 138.744 201.551 138.904C201.199 139.064 200.804 139.144 200.367 139.144ZM207.06 139.112C206.846 139.112 206.681 139.053 206.564 138.936C206.457 138.819 206.404 138.653 206.404 138.44V131.768C206.404 131.555 206.457 131.395 206.564 131.288C206.67 131.171 206.825 131.112 207.028 131.112C207.23 131.112 207.385 131.171 207.492 131.288C207.609 131.395 207.668 131.555 207.668 131.768V133.064H207.508C207.678 132.435 208.004 131.949 208.484 131.608C208.964 131.267 209.556 131.085 210.26 131.064C210.42 131.053 210.548 131.091 210.644 131.176C210.74 131.251 210.793 131.384 210.804 131.576C210.814 131.757 210.772 131.901 210.676 132.008C210.58 132.115 210.43 132.179 210.228 132.2L209.972 132.232C209.246 132.296 208.686 132.531 208.292 132.936C207.908 133.331 207.716 133.875 207.716 134.568V138.44C207.716 138.653 207.657 138.819 207.539 138.936C207.433 139.053 207.273 139.112 207.06 139.112ZM212.794 139.112C212.581 139.112 212.415 139.053 212.298 138.936C212.191 138.819 212.138 138.653 212.138 138.44V131.768C212.138 131.555 212.191 131.395 212.298 131.288C212.405 131.171 212.559 131.112 212.762 131.112C212.965 131.112 213.119 131.171 213.226 131.288C213.343 131.395 213.402 131.555 213.402 131.768V133.064H213.242C213.413 132.435 213.738 131.949 214.218 131.608C214.698 131.267 215.29 131.085 215.994 131.064C216.154 131.053 216.282 131.091 216.378 131.176C216.474 131.251 216.527 131.384 216.538 131.576C216.549 131.757 216.506 131.901 216.41 132.008C216.314 132.115 216.165 132.179 215.962 132.2L215.706 132.232C214.981 132.296 214.421 132.531 214.026 132.936C213.642 133.331 213.45 133.875 213.45 134.568V138.44C213.45 138.653 213.391 138.819 213.274 138.936C213.167 139.053 213.007 139.112 212.794 139.112ZM218.512 139.08C218.299 139.08 218.139 139.021 218.032 138.904C217.926 138.776 217.872 138.6 217.872 138.376V131.832C217.872 131.608 217.926 131.437 218.032 131.32C218.139 131.203 218.299 131.144 218.512 131.144C218.715 131.144 218.875 131.203 218.992 131.32C219.11 131.437 219.168 131.608 219.168 131.832V138.376C219.168 138.6 219.11 138.776 218.992 138.904C218.886 139.021 218.726 139.08 218.512 139.08ZM218.512 129.352C218.246 129.352 218.038 129.283 217.888 129.144C217.739 128.995 217.664 128.797 217.664 128.552C217.664 128.296 217.739 128.104 217.888 127.976C218.038 127.837 218.246 127.768 218.512 127.768C218.79 127.768 218.998 127.837 219.136 127.976C219.286 128.104 219.36 128.296 219.36 128.552C219.36 128.797 219.286 128.995 219.136 129.144C218.998 129.283 218.79 129.352 218.512 129.352ZM225.095 139.144C224.274 139.144 223.564 138.984 222.967 138.664C222.38 138.333 221.922 137.869 221.591 137.272C221.271 136.675 221.111 135.96 221.111 135.128C221.111 134.317 221.271 133.613 221.591 133.016C221.911 132.408 222.348 131.933 222.903 131.592C223.468 131.251 224.119 131.08 224.855 131.08C225.378 131.08 225.847 131.171 226.263 131.352C226.679 131.523 227.031 131.773 227.319 132.104C227.618 132.435 227.842 132.835 227.991 133.304C228.151 133.773 228.231 134.301 228.231 134.888C228.231 135.059 228.183 135.187 228.087 135.272C227.991 135.347 227.852 135.384 227.671 135.384H222.103V134.536H227.367L227.111 134.744C227.111 134.168 227.026 133.683 226.855 133.288C226.684 132.883 226.434 132.573 226.103 132.36C225.783 132.147 225.378 132.04 224.887 132.04C224.343 132.04 223.879 132.168 223.495 132.424C223.122 132.669 222.839 133.016 222.647 133.464C222.455 133.901 222.359 134.413 222.359 135V135.096C222.359 136.077 222.594 136.824 223.063 137.336C223.543 137.848 224.22 138.104 225.095 138.104C225.458 138.104 225.815 138.056 226.167 137.96C226.53 137.864 226.882 137.704 227.223 137.48C227.372 137.384 227.506 137.341 227.623 137.352C227.751 137.352 227.852 137.389 227.927 137.464C228.002 137.528 228.05 137.613 228.071 137.72C228.103 137.816 228.092 137.923 228.039 138.04C227.996 138.157 227.906 138.259 227.767 138.344C227.415 138.6 226.999 138.797 226.519 138.936C226.039 139.075 225.564 139.144 225.095 139.144ZM230.763 139.112C230.549 139.112 230.384 139.053 230.267 138.936C230.16 138.819 230.107 138.653 230.107 138.44V131.768C230.107 131.555 230.16 131.395 230.267 131.288C230.373 131.171 230.528 131.112 230.731 131.112C230.933 131.112 231.088 131.171 231.195 131.288C231.312 131.395 231.371 131.555 231.371 131.768V133.064H231.211C231.381 132.435 231.707 131.949 232.187 131.608C232.667 131.267 233.259 131.085 233.963 131.064C234.123 131.053 234.251 131.091 234.347 131.176C234.443 131.251 234.496 131.384 234.507 131.576C234.517 131.757 234.475 131.901 234.379 132.008C234.283 132.115 234.133 132.179 233.931 132.2L233.675 132.232C232.949 132.296 232.389 132.531 231.995 132.936C231.611 133.331 231.419 133.875 231.419 134.568V138.44C231.419 138.653 231.36 138.819 231.243 138.936C231.136 139.053 230.976 139.112 230.763 139.112ZM238.387 139.144C237.907 139.144 237.422 139.085 236.931 138.968C236.451 138.851 236.003 138.648 235.587 138.36C235.48 138.285 235.406 138.2 235.363 138.104C235.32 137.997 235.304 137.896 235.315 137.8C235.336 137.693 235.379 137.603 235.443 137.528C235.518 137.453 235.603 137.411 235.699 137.4C235.806 137.379 235.923 137.4 236.051 137.464C236.467 137.72 236.867 137.901 237.251 138.008C237.646 138.104 238.035 138.152 238.419 138.152C239.027 138.152 239.486 138.04 239.795 137.816C240.104 137.592 240.259 137.288 240.259 136.904C240.259 136.605 240.158 136.371 239.955 136.2C239.752 136.019 239.432 135.88 238.995 135.784L237.539 135.464C236.867 135.325 236.366 135.085 236.035 134.744C235.715 134.403 235.555 133.96 235.555 133.416C235.555 132.936 235.678 132.525 235.923 132.184C236.179 131.832 236.536 131.56 236.995 131.368C237.454 131.176 237.987 131.08 238.595 131.08C239.064 131.08 239.507 131.144 239.923 131.272C240.35 131.389 240.734 131.581 241.075 131.848C241.182 131.923 241.251 132.013 241.283 132.12C241.326 132.216 241.331 132.317 241.299 132.424C241.278 132.52 241.23 132.605 241.155 132.68C241.08 132.744 240.99 132.781 240.883 132.792C240.776 132.803 240.664 132.771 240.547 132.696C240.227 132.483 239.902 132.328 239.571 132.232C239.24 132.125 238.915 132.072 238.595 132.072C237.998 132.072 237.544 132.189 237.235 132.424C236.926 132.659 236.771 132.968 236.771 133.352C236.771 133.651 236.867 133.896 237.059 134.088C237.251 134.28 237.55 134.419 237.955 134.504L239.411 134.808C240.104 134.957 240.622 135.197 240.963 135.528C241.315 135.848 241.491 136.285 241.491 136.84C241.491 137.544 241.208 138.104 240.643 138.52C240.078 138.936 239.326 139.144 238.387 139.144ZM250.039 139.144C249.506 139.144 249.026 139.043 248.599 138.84C248.183 138.627 247.852 138.339 247.607 137.976C247.362 137.613 247.239 137.208 247.239 136.76C247.239 136.184 247.383 135.731 247.671 135.4C247.97 135.069 248.455 134.835 249.127 134.696C249.81 134.557 250.738 134.488 251.911 134.488H252.631V135.336H251.927C251.063 135.336 250.38 135.379 249.879 135.464C249.388 135.539 249.042 135.672 248.839 135.864C248.647 136.056 248.551 136.328 248.551 136.68C248.551 137.117 248.7 137.475 248.999 137.752C249.308 138.029 249.724 138.168 250.247 138.168C250.674 138.168 251.047 138.067 251.367 137.864C251.698 137.661 251.954 137.384 252.135 137.032C252.327 136.68 252.423 136.275 252.423 135.816V133.992C252.423 133.331 252.29 132.856 252.023 132.568C251.756 132.269 251.319 132.12 250.711 132.12C250.338 132.12 249.964 132.168 249.591 132.264C249.218 132.36 248.823 132.515 248.407 132.728C248.258 132.803 248.13 132.829 248.023 132.808C247.916 132.776 247.831 132.717 247.767 132.632C247.703 132.547 247.666 132.451 247.655 132.344C247.644 132.227 247.666 132.115 247.719 132.008C247.783 131.901 247.879 131.816 248.007 131.752C248.476 131.517 248.94 131.347 249.399 131.24C249.858 131.133 250.295 131.08 250.711 131.08C251.383 131.08 251.938 131.192 252.375 131.416C252.812 131.629 253.138 131.96 253.351 132.408C253.564 132.845 253.671 133.411 253.671 134.104V138.44C253.671 138.653 253.618 138.819 253.511 138.936C253.415 139.053 253.271 139.112 253.079 139.112C252.876 139.112 252.722 139.053 252.615 138.936C252.508 138.819 252.455 138.653 252.455 138.44V137.192H252.599C252.514 137.597 252.348 137.944 252.103 138.232C251.868 138.52 251.575 138.744 251.223 138.904C250.871 139.064 250.476 139.144 250.039 139.144ZM256.715 139.112C256.502 139.112 256.342 139.053 256.235 138.936C256.129 138.819 256.075 138.653 256.075 138.44V131.768C256.075 131.555 256.129 131.395 256.235 131.288C256.342 131.171 256.497 131.112 256.699 131.112C256.902 131.112 257.057 131.171 257.163 131.288C257.281 131.395 257.339 131.555 257.339 131.768V133.144L257.163 132.952C257.387 132.333 257.75 131.869 258.251 131.56C258.763 131.24 259.35 131.08 260.011 131.08C260.63 131.08 261.142 131.192 261.547 131.416C261.963 131.64 262.273 131.981 262.475 132.44C262.678 132.888 262.779 133.459 262.779 134.152V138.44C262.779 138.653 262.721 138.819 262.603 138.936C262.497 139.053 262.342 139.112 262.139 139.112C261.926 139.112 261.761 139.053 261.643 138.936C261.537 138.819 261.483 138.653 261.483 138.44V134.232C261.483 133.507 261.339 132.979 261.051 132.648C260.774 132.307 260.326 132.136 259.707 132.136C258.993 132.136 258.422 132.36 257.995 132.808C257.579 133.245 257.371 133.832 257.371 134.568V138.44C257.371 138.888 257.153 139.112 256.715 139.112ZM268.129 139.144C267.436 139.144 266.828 138.979 266.305 138.648C265.793 138.317 265.393 137.853 265.105 137.256C264.828 136.648 264.689 135.933 264.689 135.112C264.689 134.28 264.828 133.565 265.105 132.968C265.393 132.36 265.793 131.896 266.305 131.576C266.828 131.245 267.436 131.08 268.129 131.08C268.833 131.08 269.436 131.256 269.937 131.608C270.438 131.96 270.774 132.435 270.945 133.032H270.769V128.264C270.769 128.051 270.822 127.891 270.929 127.784C271.046 127.667 271.212 127.608 271.425 127.608C271.628 127.608 271.782 127.667 271.889 127.784C272.006 127.891 272.065 128.051 272.065 128.264V138.44C272.065 138.653 272.012 138.819 271.905 138.936C271.798 139.053 271.638 139.112 271.425 139.112C271.222 139.112 271.062 139.053 270.945 138.936C270.838 138.819 270.785 138.653 270.785 138.44V136.92L270.961 137.144C270.79 137.752 270.449 138.237 269.937 138.6C269.436 138.963 268.833 139.144 268.129 139.144ZM268.401 138.104C268.881 138.104 269.302 137.987 269.665 137.752C270.028 137.517 270.305 137.176 270.497 136.728C270.7 136.28 270.801 135.741 270.801 135.112C270.801 134.141 270.582 133.4 270.145 132.888C269.718 132.376 269.137 132.12 268.401 132.12C267.91 132.12 267.484 132.237 267.121 132.472C266.769 132.696 266.492 133.032 266.289 133.48C266.097 133.917 266.001 134.461 266.001 135.112C266.001 136.072 266.22 136.813 266.657 137.336C267.094 137.848 267.676 138.104 268.401 138.104ZM282.126 139.144C281.305 139.144 280.596 138.984 279.998 138.664C279.412 138.333 278.953 137.869 278.622 137.272C278.302 136.675 278.142 135.96 278.142 135.128C278.142 134.317 278.302 133.613 278.622 133.016C278.942 132.408 279.38 131.933 279.934 131.592C280.5 131.251 281.15 131.08 281.886 131.08C282.409 131.08 282.878 131.171 283.294 131.352C283.71 131.523 284.062 131.773 284.35 132.104C284.649 132.435 284.873 132.835 285.022 133.304C285.182 133.773 285.262 134.301 285.262 134.888C285.262 135.059 285.214 135.187 285.118 135.272C285.022 135.347 284.884 135.384 284.702 135.384H279.134V134.536H284.398L284.142 134.744C284.142 134.168 284.057 133.683 283.886 133.288C283.716 132.883 283.465 132.573 283.134 132.36C282.814 132.147 282.409 132.04 281.918 132.04C281.374 132.04 280.91 132.168 280.526 132.424C280.153 132.669 279.87 133.016 279.678 133.464C279.486 133.901 279.39 134.413 279.39 135V135.096C279.39 136.077 279.625 136.824 280.094 137.336C280.574 137.848 281.252 138.104 282.126 138.104C282.489 138.104 282.846 138.056 283.198 137.96C283.561 137.864 283.913 137.704 284.254 137.48C284.404 137.384 284.537 137.341 284.654 137.352C284.782 137.352 284.884 137.389 284.958 137.464C285.033 137.528 285.081 137.613 285.102 137.72C285.134 137.816 285.124 137.923 285.07 138.04C285.028 138.157 284.937 138.259 284.798 138.344C284.446 138.6 284.03 138.797 283.55 138.936C283.07 139.075 282.596 139.144 282.126 139.144ZM287.778 139.112C287.565 139.112 287.405 139.053 287.298 138.936C287.191 138.819 287.138 138.653 287.138 138.44V131.768C287.138 131.555 287.191 131.395 287.298 131.288C287.405 131.171 287.559 131.112 287.762 131.112C287.965 131.112 288.119 131.171 288.226 131.288C288.343 131.395 288.402 131.555 288.402 131.768V133.144L288.226 132.952C288.45 132.333 288.813 131.869 289.314 131.56C289.826 131.24 290.413 131.08 291.074 131.08C291.693 131.08 292.205 131.192 292.61 131.416C293.026 131.64 293.335 131.981 293.538 132.44C293.741 132.888 293.842 133.459 293.842 134.152V138.44C293.842 138.653 293.783 138.819 293.666 138.936C293.559 139.053 293.405 139.112 293.202 139.112C292.989 139.112 292.823 139.053 292.706 138.936C292.599 138.819 292.546 138.653 292.546 138.44V134.232C292.546 133.507 292.402 132.979 292.114 132.648C291.837 132.307 291.389 132.136 290.77 132.136C290.055 132.136 289.485 132.36 289.058 132.808C288.642 133.245 288.434 133.832 288.434 134.568V138.44C288.434 138.888 288.215 139.112 287.778 139.112ZM296.872 139.112C296.658 139.112 296.498 139.053 296.392 138.936C296.285 138.819 296.232 138.653 296.232 138.44V128.264C296.232 128.051 296.285 127.891 296.392 127.784C296.498 127.667 296.658 127.608 296.872 127.608C297.074 127.608 297.234 127.667 297.352 127.784C297.469 127.891 297.528 128.051 297.528 128.264V132.952H297.32C297.544 132.333 297.906 131.869 298.408 131.56C298.92 131.24 299.506 131.08 300.168 131.08C300.786 131.08 301.298 131.192 301.704 131.416C302.12 131.64 302.429 131.981 302.632 132.44C302.834 132.888 302.936 133.459 302.936 134.152V138.44C302.936 138.653 302.877 138.819 302.76 138.936C302.653 139.053 302.498 139.112 302.296 139.112C302.082 139.112 301.917 139.053 301.8 138.936C301.693 138.819 301.64 138.653 301.64 138.44V134.232C301.64 133.507 301.496 132.979 301.208 132.648C300.93 132.307 300.482 132.136 299.864 132.136C299.149 132.136 298.578 132.36 298.152 132.808C297.736 133.245 297.528 133.832 297.528 134.568V138.44C297.528 138.888 297.309 139.112 296.872 139.112ZM307.773 139.144C307.24 139.144 306.76 139.043 306.333 138.84C305.917 138.627 305.587 138.339 305.341 137.976C305.096 137.613 304.973 137.208 304.973 136.76C304.973 136.184 305.117 135.731 305.405 135.4C305.704 135.069 306.189 134.835 306.861 134.696C307.544 134.557 308.472 134.488 309.645 134.488H310.365V135.336H309.661C308.797 135.336 308.115 135.379 307.613 135.464C307.123 135.539 306.776 135.672 306.573 135.864C306.381 136.056 306.285 136.328 306.285 136.68C306.285 137.117 306.435 137.475 306.733 137.752C307.043 138.029 307.459 138.168 307.981 138.168C308.408 138.168 308.781 138.067 309.101 137.864C309.432 137.661 309.688 137.384 309.869 137.032C310.061 136.68 310.157 136.275 310.157 135.816V133.992C310.157 133.331 310.024 132.856 309.757 132.568C309.491 132.269 309.053 132.12 308.445 132.12C308.072 132.12 307.699 132.168 307.325 132.264C306.952 132.36 306.557 132.515 306.141 132.728C305.992 132.803 305.864 132.829 305.757 132.808C305.651 132.776 305.565 132.717 305.501 132.632C305.437 132.547 305.4 132.451 305.389 132.344C305.379 132.227 305.4 132.115 305.453 132.008C305.517 131.901 305.613 131.816 305.741 131.752C306.211 131.517 306.675 131.347 307.133 131.24C307.592 131.133 308.029 131.08 308.445 131.08C309.117 131.08 309.672 131.192 310.109 131.416C310.547 131.629 310.872 131.96 311.085 132.408C311.299 132.845 311.405 133.411 311.405 134.104V138.44C311.405 138.653 311.352 138.819 311.245 138.936C311.149 139.053 311.005 139.112 310.813 139.112C310.611 139.112 310.456 139.053 310.349 138.936C310.243 138.819 310.189 138.653 310.189 138.44V137.192H310.333C310.248 137.597 310.083 137.944 309.837 138.232C309.603 138.52 309.309 138.744 308.957 138.904C308.605 139.064 308.211 139.144 307.773 139.144ZM314.45 139.112C314.236 139.112 314.076 139.053 313.97 138.936C313.863 138.819 313.81 138.653 313.81 138.44V131.768C313.81 131.555 313.863 131.395 313.97 131.288C314.076 131.171 314.231 131.112 314.434 131.112C314.636 131.112 314.791 131.171 314.898 131.288C315.015 131.395 315.074 131.555 315.074 131.768V133.144L314.898 132.952C315.122 132.333 315.484 131.869 315.986 131.56C316.498 131.24 317.084 131.08 317.746 131.08C318.364 131.08 318.876 131.192 319.282 131.416C319.698 131.64 320.007 131.981 320.21 132.44C320.412 132.888 320.514 133.459 320.514 134.152V138.44C320.514 138.653 320.455 138.819 320.338 138.936C320.231 139.053 320.076 139.112 319.874 139.112C319.66 139.112 319.495 139.053 319.378 138.936C319.271 138.819 319.218 138.653 319.218 138.44V134.232C319.218 133.507 319.074 132.979 318.786 132.648C318.508 132.307 318.06 132.136 317.442 132.136C316.727 132.136 316.156 132.36 315.73 132.808C315.314 133.245 315.106 133.832 315.106 134.568V138.44C315.106 138.888 314.887 139.112 314.45 139.112ZM326.2 139.144C325.421 139.144 324.749 138.973 324.184 138.632C323.618 138.291 323.181 137.816 322.872 137.208C322.573 136.589 322.424 135.875 322.424 135.064C322.424 134.445 322.509 133.891 322.68 133.4C322.85 132.909 323.101 132.493 323.432 132.152C323.762 131.8 324.157 131.533 324.616 131.352C325.085 131.171 325.613 131.08 326.2 131.08C326.584 131.08 326.984 131.139 327.4 131.256C327.816 131.373 328.194 131.576 328.536 131.864C328.642 131.939 328.712 132.029 328.744 132.136C328.776 132.243 328.776 132.349 328.744 132.456C328.712 132.552 328.658 132.637 328.584 132.712C328.509 132.776 328.413 132.813 328.296 132.824C328.189 132.835 328.077 132.797 327.96 132.712C327.682 132.499 327.4 132.349 327.112 132.264C326.824 132.179 326.546 132.136 326.28 132.136C325.864 132.136 325.501 132.205 325.192 132.344C324.882 132.472 324.621 132.659 324.408 132.904C324.194 133.149 324.029 133.453 323.912 133.816C323.805 134.179 323.752 134.6 323.752 135.08C323.752 136.008 323.97 136.744 324.408 137.288C324.845 137.821 325.469 138.088 326.28 138.088C326.546 138.088 326.818 138.045 327.096 137.96C327.384 137.875 327.672 137.725 327.96 137.512C328.077 137.427 328.189 137.389 328.296 137.4C328.402 137.411 328.493 137.453 328.568 137.528C328.642 137.592 328.69 137.677 328.712 137.784C328.744 137.891 328.744 137.997 328.712 138.104C328.68 138.2 328.61 138.285 328.504 138.36C328.162 138.637 327.789 138.84 327.384 138.968C326.978 139.085 326.584 139.144 326.2 139.144ZM333.658 139.144C332.836 139.144 332.127 138.984 331.53 138.664C330.943 138.333 330.484 137.869 330.154 137.272C329.834 136.675 329.674 135.96 329.674 135.128C329.674 134.317 329.834 133.613 330.154 133.016C330.474 132.408 330.911 131.933 331.466 131.592C332.031 131.251 332.682 131.08 333.418 131.08C333.94 131.08 334.41 131.171 334.826 131.352C335.242 131.523 335.594 131.773 335.882 132.104C336.18 132.435 336.404 132.835 336.554 133.304C336.714 133.773 336.794 134.301 336.794 134.888C336.794 135.059 336.746 135.187 336.65 135.272C336.554 135.347 336.415 135.384 336.234 135.384H330.666V134.536H335.93L335.674 134.744C335.674 134.168 335.588 133.683 335.418 133.288C335.247 132.883 334.996 132.573 334.666 132.36C334.346 132.147 333.94 132.04 333.45 132.04C332.906 132.04 332.442 132.168 332.058 132.424C331.684 132.669 331.402 133.016 331.21 133.464C331.018 133.901 330.922 134.413 330.922 135V135.096C330.922 136.077 331.156 136.824 331.626 137.336C332.106 137.848 332.783 138.104 333.658 138.104C334.02 138.104 334.378 138.056 334.73 137.96C335.092 137.864 335.444 137.704 335.786 137.48C335.935 137.384 336.068 137.341 336.186 137.352C336.314 137.352 336.415 137.389 336.49 137.464C336.564 137.528 336.612 137.613 336.634 137.72C336.666 137.816 336.655 137.923 336.602 138.04C336.559 138.157 336.468 138.259 336.33 138.344C335.978 138.6 335.562 138.797 335.082 138.936C334.602 139.075 334.127 139.144 333.658 139.144ZM118.839 161.144C118.081 161.144 117.425 160.979 116.871 160.648C116.316 160.317 115.884 159.853 115.575 159.256C115.276 158.648 115.127 157.933 115.127 157.112C115.127 156.493 115.212 155.939 115.383 155.448C115.553 154.947 115.804 154.52 116.135 154.168C116.465 153.816 116.855 153.549 117.303 153.368C117.761 153.176 118.273 153.08 118.839 153.08C119.596 153.08 120.252 153.245 120.807 153.576C121.361 153.907 121.788 154.376 122.087 154.984C122.396 155.581 122.551 156.291 122.551 157.112C122.551 157.731 122.465 158.285 122.295 158.776C122.124 159.267 121.873 159.693 121.543 160.056C121.212 160.408 120.817 160.68 120.359 160.872C119.911 161.053 119.404 161.144 118.839 161.144ZM118.839 160.104C119.319 160.104 119.74 159.987 120.103 159.752C120.465 159.517 120.743 159.176 120.935 158.728C121.137 158.28 121.239 157.741 121.239 157.112C121.239 156.141 121.02 155.4 120.583 154.888C120.156 154.376 119.575 154.12 118.839 154.12C118.348 154.12 117.921 154.237 117.559 154.472C117.207 154.696 116.929 155.032 116.727 155.48C116.535 155.917 116.439 156.461 116.439 157.112C116.439 158.072 116.657 158.813 117.095 159.336C117.532 159.848 118.113 160.104 118.839 160.104ZM127.284 161.112C127.103 161.112 126.943 161.064 126.804 160.968C126.665 160.861 126.548 160.701 126.452 160.488L123.684 154.024C123.609 153.864 123.583 153.715 123.604 153.576C123.625 153.437 123.689 153.325 123.796 153.24C123.903 153.155 124.052 153.112 124.244 153.112C124.415 153.112 124.548 153.149 124.644 153.224C124.74 153.299 124.825 153.432 124.9 153.624L127.524 160.04H127.092L129.764 153.624C129.839 153.432 129.924 153.299 130.02 153.224C130.116 153.149 130.255 153.112 130.436 153.112C130.607 153.112 130.735 153.155 130.82 153.24C130.916 153.325 130.969 153.437 130.98 153.576C131.001 153.704 130.98 153.848 130.916 154.008L128.116 160.488C128.041 160.701 127.929 160.861 127.78 160.968C127.641 161.064 127.476 161.112 127.284 161.112ZM136.017 161.144C135.196 161.144 134.486 160.984 133.889 160.664C133.302 160.333 132.844 159.869 132.513 159.272C132.193 158.675 132.033 157.96 132.033 157.128C132.033 156.317 132.193 155.613 132.513 155.016C132.833 154.408 133.27 153.933 133.825 153.592C134.39 153.251 135.041 153.08 135.777 153.08C136.3 153.08 136.769 153.171 137.185 153.352C137.601 153.523 137.953 153.773 138.241 154.104C138.54 154.435 138.764 154.835 138.913 155.304C139.073 155.773 139.153 156.301 139.153 156.888C139.153 157.059 139.105 157.187 139.009 157.272C138.913 157.347 138.774 157.384 138.593 157.384H133.025V156.536H138.289L138.033 156.744C138.033 156.168 137.948 155.683 137.777 155.288C137.606 154.883 137.356 154.573 137.025 154.36C136.705 154.147 136.3 154.04 135.809 154.04C135.265 154.04 134.801 154.168 134.417 154.424C134.044 154.669 133.761 155.016 133.569 155.464C133.377 155.901 133.281 156.413 133.281 157V157.096C133.281 158.077 133.516 158.824 133.985 159.336C134.465 159.848 135.142 160.104 136.017 160.104C136.38 160.104 136.737 160.056 137.089 159.96C137.452 159.864 137.804 159.704 138.145 159.48C138.294 159.384 138.428 159.341 138.545 159.352C138.673 159.352 138.774 159.389 138.849 159.464C138.924 159.528 138.972 159.613 138.993 159.72C139.025 159.816 139.014 159.923 138.961 160.04C138.918 160.157 138.828 160.259 138.689 160.344C138.337 160.6 137.921 160.797 137.441 160.936C136.961 161.075 136.486 161.144 136.017 161.144ZM141.685 161.112C141.471 161.112 141.306 161.053 141.189 160.936C141.082 160.819 141.029 160.653 141.029 160.44V153.768C141.029 153.555 141.082 153.395 141.189 153.288C141.295 153.171 141.45 153.112 141.653 153.112C141.855 153.112 142.01 153.171 142.117 153.288C142.234 153.395 142.293 153.555 142.293 153.768V155.064H142.133C142.303 154.435 142.629 153.949 143.109 153.608C143.589 153.267 144.181 153.085 144.885 153.064C145.045 153.053 145.173 153.091 145.269 153.176C145.365 153.251 145.418 153.384 145.429 153.576C145.439 153.757 145.397 153.901 145.301 154.008C145.205 154.115 145.055 154.179 144.853 154.2L144.597 154.232C143.871 154.296 143.311 154.531 142.917 154.936C142.533 155.331 142.341 155.875 142.341 156.568V160.44C142.341 160.653 142.282 160.819 142.164 160.936C142.058 161.053 141.898 161.112 141.685 161.112ZM149.133 161.144C148.599 161.144 148.119 161.043 147.693 160.84C147.277 160.627 146.946 160.339 146.701 159.976C146.455 159.613 146.333 159.208 146.333 158.76C146.333 158.184 146.477 157.731 146.765 157.4C147.063 157.069 147.549 156.835 148.221 156.696C148.903 156.557 149.831 156.488 151.005 156.488H151.725V157.336H151.021C150.157 157.336 149.474 157.379 148.973 157.464C148.482 157.539 148.135 157.672 147.933 157.864C147.741 158.056 147.645 158.328 147.645 158.68C147.645 159.117 147.794 159.475 148.093 159.752C148.402 160.029 148.818 160.168 149.341 160.168C149.767 160.168 150.141 160.067 150.461 159.864C150.791 159.661 151.047 159.384 151.229 159.032C151.421 158.68 151.517 158.275 151.517 157.816V155.992C151.517 155.331 151.383 154.856 151.117 154.568C150.85 154.269 150.413 154.12 149.805 154.12C149.431 154.12 149.058 154.168 148.685 154.264C148.311 154.36 147.917 154.515 147.501 154.728C147.351 154.803 147.223 154.829 147.117 154.808C147.01 154.776 146.925 154.717 146.861 154.632C146.797 154.547 146.759 154.451 146.749 154.344C146.738 154.227 146.759 154.115 146.813 154.008C146.877 153.901 146.973 153.816 147.101 153.752C147.57 153.517 148.034 153.347 148.493 153.24C148.951 153.133 149.389 153.08 149.805 153.08C150.477 153.08 151.031 153.192 151.469 153.416C151.906 153.629 152.231 153.96 152.445 154.408C152.658 154.845 152.765 155.411 152.765 156.104V160.44C152.765 160.653 152.711 160.819 152.605 160.936C152.509 161.053 152.365 161.112 152.173 161.112C151.97 161.112 151.815 161.053 151.709 160.936C151.602 160.819 151.549 160.653 151.549 160.44V159.192H151.693C151.607 159.597 151.442 159.944 151.197 160.232C150.962 160.52 150.669 160.744 150.317 160.904C149.965 161.064 149.57 161.144 149.133 161.144ZM157.537 161.144C156.769 161.144 156.182 160.909 155.777 160.44C155.372 159.971 155.169 159.299 155.169 158.424V150.264C155.169 150.051 155.222 149.891 155.329 149.784C155.436 149.667 155.596 149.608 155.809 149.608C156.012 149.608 156.172 149.667 156.289 149.784C156.406 149.891 156.465 150.051 156.465 150.264V158.328C156.465 158.904 156.577 159.336 156.801 159.624C157.036 159.901 157.377 160.04 157.825 160.04C157.921 160.04 158.006 160.035 158.081 160.024C158.156 160.013 158.23 160.008 158.305 160.008C158.422 159.997 158.502 160.024 158.545 160.088C158.598 160.152 158.625 160.28 158.625 160.472C158.625 160.664 158.582 160.808 158.497 160.904C158.412 161 158.273 161.064 158.081 161.096C157.996 161.107 157.905 161.117 157.809 161.128C157.713 161.139 157.622 161.144 157.537 161.144ZM162.272 161.144C161.504 161.144 160.917 160.909 160.512 160.44C160.106 159.971 159.904 159.299 159.904 158.424V150.264C159.904 150.051 159.957 149.891 160.064 149.784C160.17 149.667 160.33 149.608 160.544 149.608C160.746 149.608 160.906 149.667 161.024 149.784C161.141 149.891 161.2 150.051 161.2 150.264V158.328C161.2 158.904 161.312 159.336 161.536 159.624C161.77 159.901 162.112 160.04 162.56 160.04C162.656 160.04 162.741 160.035 162.816 160.024C162.89 160.013 162.965 160.008 163.04 160.008C163.157 159.997 163.237 160.024 163.28 160.088C163.333 160.152 163.36 160.28 163.36 160.472C163.36 160.664 163.317 160.808 163.232 160.904C163.146 161 163.008 161.064 162.816 161.096C162.73 161.107 162.64 161.117 162.544 161.128C162.448 161.139 162.357 161.144 162.272 161.144ZM169.403 163.992C169.19 163.992 169.03 163.933 168.923 163.816C168.816 163.709 168.763 163.549 168.763 163.336V153.768C168.763 153.555 168.816 153.395 168.923 153.288C169.03 153.171 169.184 153.112 169.387 153.112C169.6 153.112 169.76 153.171 169.867 153.288C169.984 153.395 170.043 153.555 170.043 153.768V155.288L169.867 155.064C170.038 154.456 170.374 153.976 170.875 153.624C171.387 153.261 171.995 153.08 172.699 153.08C173.392 153.08 173.995 153.245 174.507 153.576C175.03 153.896 175.43 154.36 175.707 154.968C175.995 155.565 176.139 156.28 176.139 157.112C176.139 157.933 175.995 158.648 175.707 159.256C175.43 159.853 175.035 160.317 174.523 160.648C174.011 160.979 173.403 161.144 172.699 161.144C171.995 161.144 171.392 160.968 170.891 160.616C170.39 160.253 170.048 159.773 169.867 159.176H170.059V163.336C170.059 163.549 170 163.709 169.883 163.816C169.766 163.933 169.606 163.992 169.403 163.992ZM172.427 160.104C172.918 160.104 173.339 159.987 173.691 159.752C174.054 159.517 174.331 159.176 174.523 158.728C174.726 158.28 174.827 157.741 174.827 157.112C174.827 156.141 174.608 155.4 174.171 154.888C173.744 154.376 173.163 154.12 172.427 154.12C171.947 154.12 171.526 154.237 171.163 154.472C170.8 154.696 170.518 155.032 170.315 155.48C170.123 155.917 170.027 156.461 170.027 157.112C170.027 158.072 170.246 158.813 170.683 159.336C171.12 159.848 171.702 160.104 172.427 160.104ZM178.747 161.112C178.534 161.112 178.368 161.053 178.251 160.936C178.144 160.819 178.091 160.653 178.091 160.44V153.768C178.091 153.555 178.144 153.395 178.251 153.288C178.358 153.171 178.512 153.112 178.715 153.112C178.918 153.112 179.072 153.171 179.179 153.288C179.296 153.395 179.355 153.555 179.355 153.768V155.064H179.195C179.366 154.435 179.691 153.949 180.171 153.608C180.651 153.267 181.243 153.085 181.947 153.064C182.107 153.053 182.235 153.091 182.331 153.176C182.427 153.251 182.48 153.384 182.491 153.576C182.502 153.757 182.459 153.901 182.363 154.008C182.267 154.115 182.118 154.179 181.915 154.2L181.659 154.232C180.934 154.296 180.374 154.531 179.979 154.936C179.595 155.331 179.403 155.875 179.403 156.568V160.44C179.403 160.653 179.344 160.819 179.227 160.936C179.12 161.053 178.96 161.112 178.747 161.112ZM186.964 161.144C186.206 161.144 185.55 160.979 184.996 160.648C184.441 160.317 184.009 159.853 183.7 159.256C183.401 158.648 183.252 157.933 183.252 157.112C183.252 156.493 183.337 155.939 183.508 155.448C183.678 154.947 183.929 154.52 184.26 154.168C184.59 153.816 184.98 153.549 185.428 153.368C185.886 153.176 186.398 153.08 186.964 153.08C187.721 153.08 188.377 153.245 188.932 153.576C189.486 153.907 189.913 154.376 190.212 154.984C190.521 155.581 190.676 156.291 190.676 157.112C190.676 157.731 190.59 158.285 190.42 158.776C190.249 159.267 189.998 159.693 189.668 160.056C189.337 160.408 188.942 160.68 188.484 160.872C188.036 161.053 187.529 161.144 186.964 161.144ZM186.964 160.104C187.444 160.104 187.865 159.987 188.228 159.752C188.59 159.517 188.868 159.176 189.06 158.728C189.262 158.28 189.364 157.741 189.364 157.112C189.364 156.141 189.145 155.4 188.708 154.888C188.281 154.376 187.7 154.12 186.964 154.12C186.473 154.12 186.046 154.237 185.684 154.472C185.332 154.696 185.054 155.032 184.852 155.48C184.66 155.917 184.564 156.461 184.564 157.112C184.564 158.072 184.782 158.813 185.22 159.336C185.657 159.848 186.238 160.104 186.964 160.104ZM193.6 161.112C193.397 161.112 193.237 161.053 193.12 160.936C193.013 160.819 192.96 160.653 192.96 160.44V154.232H191.936C191.765 154.232 191.627 154.189 191.52 154.104C191.424 154.008 191.376 153.88 191.376 153.72C191.376 153.56 191.424 153.437 191.52 153.352C191.627 153.267 191.765 153.224 191.936 153.224H193.312L192.96 153.56V152.952C192.96 151.949 193.2 151.181 193.68 150.648C194.171 150.115 194.891 149.811 195.84 149.736L196.32 149.688C196.48 149.677 196.608 149.704 196.704 149.768C196.8 149.821 196.859 149.896 196.88 149.992C196.912 150.088 196.917 150.189 196.896 150.296C196.875 150.403 196.827 150.493 196.752 150.568C196.688 150.643 196.608 150.685 196.512 150.696L196.032 150.728C195.403 150.771 194.949 150.968 194.672 151.32C194.395 151.661 194.256 152.152 194.256 152.792V153.464L194.064 153.224H198.416C198.619 153.224 198.773 153.283 198.88 153.4C198.997 153.517 199.056 153.688 199.056 153.912V160.376C199.056 160.6 199.003 160.776 198.896 160.904C198.789 161.021 198.629 161.08 198.416 161.08C198.203 161.08 198.037 161.021 197.92 160.904C197.813 160.776 197.76 160.6 197.76 160.376V154.232H194.256V160.44C194.256 160.888 194.037 161.112 193.6 161.112ZM198.432 151.352C198.165 151.352 197.957 151.283 197.808 151.144C197.669 150.995 197.6 150.797 197.6 150.552C197.6 150.296 197.669 150.104 197.808 149.976C197.957 149.837 198.165 149.768 198.432 149.768C198.699 149.768 198.901 149.837 199.04 149.976C199.189 150.104 199.264 150.296 199.264 150.552C199.264 150.797 199.189 150.995 199.04 151.144C198.901 151.283 198.699 151.352 198.432 151.352ZM204.602 161.144C203.994 161.144 203.482 161.037 203.066 160.824C202.66 160.6 202.356 160.28 202.154 159.864C201.951 159.437 201.85 158.92 201.85 158.312V154.232H200.778C200.596 154.232 200.458 154.189 200.362 154.104C200.266 154.008 200.218 153.88 200.218 153.72C200.218 153.56 200.266 153.437 200.362 153.352C200.458 153.267 200.596 153.224 200.778 153.224H201.85V151.384C201.85 151.171 201.908 151.011 202.026 150.904C202.143 150.787 202.303 150.728 202.506 150.728C202.708 150.728 202.863 150.787 202.97 150.904C203.087 151.011 203.146 151.171 203.146 151.384V153.224H205.162C205.343 153.224 205.482 153.267 205.578 153.352C205.674 153.437 205.722 153.56 205.722 153.72C205.722 153.88 205.674 154.008 205.578 154.104C205.482 154.189 205.343 154.232 205.162 154.232H203.146V158.184C203.146 158.792 203.274 159.256 203.53 159.576C203.786 159.885 204.202 160.04 204.778 160.04C204.98 160.04 205.151 160.019 205.29 159.976C205.439 159.933 205.562 159.912 205.658 159.912C205.754 159.901 205.834 159.933 205.898 160.008C205.962 160.083 205.994 160.211 205.994 160.392C205.994 160.52 205.967 160.637 205.914 160.744C205.871 160.851 205.791 160.925 205.674 160.968C205.546 161.011 205.375 161.048 205.162 161.08C204.959 161.123 204.772 161.144 204.602 161.144ZM209.523 161.144C208.99 161.144 208.51 161.043 208.083 160.84C207.667 160.627 207.337 160.339 207.091 159.976C206.846 159.613 206.723 159.208 206.723 158.76C206.723 158.184 206.867 157.731 207.155 157.4C207.454 157.069 207.939 156.835 208.611 156.696C209.294 156.557 210.222 156.488 211.395 156.488H212.115V157.336H211.411C210.547 157.336 209.865 157.379 209.363 157.464C208.873 157.539 208.526 157.672 208.323 157.864C208.131 158.056 208.035 158.328 208.035 158.68C208.035 159.117 208.185 159.475 208.483 159.752C208.793 160.029 209.209 160.168 209.731 160.168C210.158 160.168 210.531 160.067 210.851 159.864C211.182 159.661 211.438 159.384 211.619 159.032C211.811 158.68 211.907 158.275 211.907 157.816V155.992C211.907 155.331 211.774 154.856 211.507 154.568C211.241 154.269 210.803 154.12 210.195 154.12C209.822 154.12 209.449 154.168 209.075 154.264C208.702 154.36 208.307 154.515 207.891 154.728C207.742 154.803 207.614 154.829 207.507 154.808C207.401 154.776 207.315 154.717 207.251 154.632C207.187 154.547 207.15 154.451 207.139 154.344C207.129 154.227 207.15 154.115 207.203 154.008C207.267 153.901 207.363 153.816 207.491 153.752C207.961 153.517 208.425 153.347 208.883 153.24C209.342 153.133 209.779 153.08 210.195 153.08C210.867 153.08 211.422 153.192 211.859 153.416C212.297 153.629 212.622 153.96 212.835 154.408C213.049 154.845 213.155 155.411 213.155 156.104V160.44C213.155 160.653 213.102 160.819 212.995 160.936C212.899 161.053 212.755 161.112 212.563 161.112C212.361 161.112 212.206 161.053 212.099 160.936C211.993 160.819 211.939 160.653 211.939 160.44V159.192H212.083C211.998 159.597 211.833 159.944 211.587 160.232C211.353 160.52 211.059 160.744 210.707 160.904C210.355 161.064 209.961 161.144 209.523 161.144ZM219.496 161.144C218.792 161.144 218.184 160.963 217.672 160.6C217.17 160.237 216.834 159.752 216.664 159.144L216.84 158.968V160.44C216.84 160.653 216.781 160.819 216.664 160.936C216.557 161.053 216.402 161.112 216.2 161.112C215.986 161.112 215.826 161.053 215.72 160.936C215.613 160.819 215.56 160.653 215.56 160.44V150.264C215.56 150.051 215.613 149.891 215.72 149.784C215.826 149.667 215.986 149.608 216.2 149.608C216.402 149.608 216.562 149.667 216.68 149.784C216.797 149.891 216.856 150.051 216.856 150.264V155.032H216.664C216.845 154.435 217.186 153.96 217.688 153.608C218.189 153.256 218.792 153.08 219.496 153.08C220.2 153.08 220.808 153.245 221.32 153.576C221.832 153.896 222.226 154.36 222.504 154.968C222.792 155.565 222.936 156.28 222.936 157.112C222.936 157.933 222.792 158.648 222.504 159.256C222.226 159.853 221.826 160.317 221.304 160.648C220.792 160.979 220.189 161.144 219.496 161.144ZM219.224 160.104C219.714 160.104 220.136 159.987 220.488 159.752C220.85 159.517 221.128 159.176 221.32 158.728C221.522 158.28 221.624 157.741 221.624 157.112C221.624 156.141 221.405 155.4 220.968 154.888C220.541 154.376 219.96 154.12 219.224 154.12C218.744 154.12 218.322 154.237 217.96 154.472C217.597 154.696 217.314 155.032 217.112 155.48C216.92 155.917 216.824 156.461 216.824 157.112C216.824 158.072 217.042 158.813 217.48 159.336C217.917 159.848 218.498 160.104 219.224 160.104ZM225.528 161.08C225.315 161.08 225.155 161.021 225.048 160.904C224.941 160.776 224.888 160.6 224.888 160.376V153.832C224.888 153.608 224.941 153.437 225.048 153.32C225.155 153.203 225.315 153.144 225.528 153.144C225.731 153.144 225.891 153.203 226.008 153.32C226.125 153.437 226.184 153.608 226.184 153.832V160.376C226.184 160.6 226.125 160.776 226.008 160.904C225.901 161.021 225.741 161.08 225.528 161.08ZM225.528 151.352C225.261 151.352 225.053 151.283 224.904 151.144C224.755 150.995 224.68 150.797 224.68 150.552C224.68 150.296 224.755 150.104 224.904 149.976C225.053 149.837 225.261 149.768 225.528 149.768C225.805 149.768 226.013 149.837 226.152 149.976C226.301 150.104 226.376 150.296 226.376 150.552C226.376 150.797 226.301 150.995 226.152 151.144C226.013 151.283 225.805 151.352 225.528 151.352ZM230.975 161.144C230.207 161.144 229.62 160.909 229.215 160.44C228.809 159.971 228.607 159.299 228.607 158.424V150.264C228.607 150.051 228.66 149.891 228.767 149.784C228.873 149.667 229.033 149.608 229.247 149.608C229.449 149.608 229.609 149.667 229.727 149.784C229.844 149.891 229.903 150.051 229.903 150.264V158.328C229.903 158.904 230.015 159.336 230.239 159.624C230.473 159.901 230.815 160.04 231.263 160.04C231.359 160.04 231.444 160.035 231.519 160.024C231.593 160.013 231.668 160.008 231.743 160.008C231.86 159.997 231.94 160.024 231.983 160.088C232.036 160.152 232.063 160.28 232.063 160.472C232.063 160.664 232.02 160.808 231.935 160.904C231.849 161 231.711 161.064 231.519 161.096C231.433 161.107 231.343 161.117 231.247 161.128C231.151 161.139 231.06 161.144 230.975 161.144ZM233.981 161.08C233.768 161.08 233.608 161.021 233.501 160.904C233.394 160.776 233.341 160.6 233.341 160.376V153.832C233.341 153.608 233.394 153.437 233.501 153.32C233.608 153.203 233.768 153.144 233.981 153.144C234.184 153.144 234.344 153.203 234.461 153.32C234.578 153.437 234.637 153.608 234.637 153.832V160.376C234.637 160.6 234.578 160.776 234.461 160.904C234.354 161.021 234.194 161.08 233.981 161.08ZM233.981 151.352C233.714 151.352 233.506 151.283 233.357 151.144C233.208 150.995 233.133 150.797 233.133 150.552C233.133 150.296 233.208 150.104 233.357 149.976C233.506 149.837 233.714 149.768 233.981 149.768C234.258 149.768 234.466 149.837 234.605 149.976C234.754 150.104 234.829 150.296 234.829 150.552C234.829 150.797 234.754 150.995 234.605 151.144C234.466 151.283 234.258 151.352 233.981 151.352ZM240.18 161.144C239.572 161.144 239.06 161.037 238.644 160.824C238.238 160.6 237.934 160.28 237.732 159.864C237.529 159.437 237.428 158.92 237.428 158.312V154.232H236.356C236.174 154.232 236.036 154.189 235.94 154.104C235.844 154.008 235.796 153.88 235.796 153.72C235.796 153.56 235.844 153.437 235.94 153.352C236.036 153.267 236.174 153.224 236.356 153.224H237.428V151.384C237.428 151.171 237.486 151.011 237.604 150.904C237.721 150.787 237.881 150.728 238.084 150.728C238.286 150.728 238.441 150.787 238.548 150.904C238.665 151.011 238.724 151.171 238.724 151.384V153.224H240.74C240.921 153.224 241.06 153.267 241.156 153.352C241.252 153.437 241.3 153.56 241.3 153.72C241.3 153.88 241.252 154.008 241.156 154.104C241.06 154.189 240.921 154.232 240.74 154.232H238.724V158.184C238.724 158.792 238.852 159.256 239.108 159.576C239.364 159.885 239.78 160.04 240.356 160.04C240.558 160.04 240.729 160.019 240.868 159.976C241.017 159.933 241.14 159.912 241.236 159.912C241.332 159.901 241.412 159.933 241.476 160.008C241.54 160.083 241.572 160.211 241.572 160.392C241.572 160.52 241.545 160.637 241.492 160.744C241.449 160.851 241.369 160.925 241.252 160.968C241.124 161.011 240.953 161.048 240.74 161.08C240.537 161.123 240.35 161.144 240.18 161.144ZM244.475 163.992C244.315 163.992 244.187 163.949 244.091 163.864C243.995 163.779 243.937 163.661 243.915 163.512C243.905 163.373 243.931 163.229 243.995 163.08L245.099 160.6V161.16L242.027 154.024C241.963 153.864 241.942 153.715 241.963 153.576C241.985 153.437 242.049 153.325 242.155 153.24C242.262 153.155 242.411 153.112 242.603 153.112C242.774 153.112 242.907 153.149 243.003 153.224C243.099 153.299 243.185 153.432 243.259 153.624L245.883 160.056H245.451L248.107 153.624C248.193 153.432 248.283 153.299 248.379 153.224C248.475 153.149 248.614 153.112 248.795 153.112C248.966 153.112 249.094 153.155 249.179 153.24C249.275 153.325 249.329 153.437 249.339 153.576C249.361 153.704 249.339 153.848 249.275 154.008L245.179 163.48C245.094 163.672 244.998 163.805 244.891 163.88C244.795 163.955 244.657 163.992 244.475 163.992ZM250.809 161.064C250.542 161.064 250.329 160.984 250.169 160.824C250.009 160.653 249.929 160.44 249.929 160.184C249.929 159.928 250.009 159.72 250.169 159.56C250.329 159.389 250.542 159.304 250.809 159.304C251.075 159.304 251.283 159.389 251.433 159.56C251.593 159.72 251.673 159.928 251.673 160.184C251.673 160.44 251.593 160.653 251.433 160.824C251.283 160.984 251.075 161.064 250.809 161.064Z" fill="black"/>
</svg>
