<svg width="52" height="53" viewBox="0 0 52 53" fill="none" xmlns="http://www.w3.org/2000/svg">
<path d="M1 15.2772C1 13.6301 2.33573 12.2944 3.9828 12.2944H8.21587C10.4683 12.2944 12.2942 10.4684 12.2942 8.2161V3.98293C12.2942 2.33596 13.6299 1.00023 15.2769 1.00023" stroke="#52006A" stroke-width="2" stroke-miterlimit="10" stroke-linecap="round" stroke-linejoin="round"/>
<path d="M41.168 41.7194V5.07828C41.168 2.82657 39.3415 1.00002 37.0888 1.00002H14.4065C13.0542 1.00002 11.7571 1.53745 10.8014 2.4931L2.49323 10.8013C1.5373 11.7575 1.00027 13.0542 1.00024 14.4063V42.9881C1.00024 45.2398 2.8267 47.0662 5.07943 47.0662H35.6681" stroke="#52006A" stroke-width="2" stroke-miterlimit="10" stroke-linecap="round" stroke-linejoin="round"/>
<path d="M38.7998 24.6481H11.3765" stroke="#52006A" stroke-width="2" stroke-miterlimit="10" stroke-linecap="round" stroke-linejoin="round"/>
<path d="M8.32107 24.6481H3.36792" stroke="#52006A" stroke-width="2" stroke-miterlimit="10" stroke-linecap="round" stroke-linejoin="round"/>
<path d="M8.92346 28.8803H25.1372" stroke="#52006A" stroke-width="2" stroke-miterlimit="10" stroke-linecap="round" stroke-linejoin="round"/>
<path d="M31.0355 28.8803H33.2439" stroke="#52006A" stroke-width="2" stroke-miterlimit="10" stroke-linecap="round" stroke-linejoin="round"/>
<path d="M8.92346 32.8353H25.1372" stroke="#52006A" stroke-width="2" stroke-miterlimit="10" stroke-linecap="round" stroke-linejoin="round"/>
<path d="M31.0355 32.8353H33.2439" stroke="#52006A" stroke-width="2" stroke-miterlimit="10" stroke-linecap="round" stroke-linejoin="round"/>
<path d="M8.92346 36.7903H25.1372" stroke="#52006A" stroke-width="2" stroke-miterlimit="10" stroke-linecap="round" stroke-linejoin="round"/>
<path d="M31.0355 36.7903H33.2439" stroke="#52006A" stroke-width="2" stroke-miterlimit="10" stroke-linecap="round" stroke-linejoin="round"/>
<path d="M8.92346 40.7452H25.1372" stroke="#52006A" stroke-width="2" stroke-miterlimit="10" stroke-linecap="round" stroke-linejoin="round"/>
<path d="M32.9574 40.7455H31.035" stroke="#52006A" stroke-width="2" stroke-miterlimit="10" stroke-linecap="round" stroke-linejoin="round"/>
<path d="M47.6894 42.5016L50.0573 38.3092C50.8813 36.8509 50.3663 35.001 48.908 34.1781C47.4507 33.3551 45.6009 33.8691 44.7779 35.3274L40.3366 43.191L38.0605 40.255C37.0347 38.9323 35.1307 38.6907 33.8069 39.7166C32.4832 40.7425 32.2425 42.6475 33.2684 43.9701L38.3378 50.5101C38.6213 50.8753 38.9845 51.1709 39.3997 51.3744C39.8148 51.5778 40.271 51.6837 40.7333 51.6839C41.2706 51.6841 41.7983 51.5415 42.2624 51.2707C42.7265 51 43.1104 50.6108 43.3746 50.143L46.1944 45.15" stroke="#52006A" stroke-width="2" stroke-miterlimit="10" stroke-linecap="round" stroke-linejoin="round"/>
<path d="M34.7153 5.70718C34.607 5.61703 33.9862 5.14894 33.0756 5.42327C32.153 5.70116 31.9239 6.96347 32.5508 7.45531C32.9108 7.73759 33.4524 7.9698 34.1825 8.22781C35.8164 8.80532 35.2124 11.1095 33.5503 11.1207C32.9019 11.1249 32.5986 11.0837 32.0288 10.711" stroke="#52006A" stroke-width="2" stroke-miterlimit="10" stroke-linecap="round" stroke-linejoin="round"/>
<path d="M33.5507 11.9618V11.1204" stroke="#52006A" stroke-width="2" stroke-miterlimit="10" stroke-linecap="round" stroke-linejoin="round"/>
<path d="M33.5507 5.33966V4.56074" stroke="#52006A" stroke-width="2" stroke-miterlimit="10" stroke-linecap="round" stroke-linejoin="round"/>
</svg>
