<svg width="53" height="51" viewBox="0 0 53 51" fill="none" xmlns="http://www.w3.org/2000/svg">
<path d="M42.8355 15.2272H49.4683C50.591 15.2272 51.5004 16.1367 51.5004 17.2604V30.5863M16.9473 23.0189V17.2604C16.9473 16.1367 17.8577 15.2272 18.9805 15.2272H39.3144M16.9478 27.7611V33.5202C16.9478 34.6431 17.8573 35.5527 18.9803 35.5527H39.1784" stroke="#52006A" stroke-width="1.50905" stroke-miterlimit="10" stroke-linecap="round" stroke-linejoin="round"/>
<path d="M39.178 32.5039H23.0449C23.0449 30.82 21.6801 29.4551 19.9961 29.4551V21.3251C21.68 21.3251 23.0449 19.9603 23.0449 18.2763H45.4025C45.4025 19.9602 46.7673 21.3251 48.4513 21.3251V29.0232" stroke="#52006A" stroke-width="1.50905" stroke-miterlimit="10" stroke-linecap="round" stroke-linejoin="round"/>
<path d="M34.2233 29.4551C36.4684 29.4551 38.2884 27.6351 38.2884 25.3901C38.2884 23.145 36.4684 21.325 34.2233 21.325C31.9782 21.325 30.1582 23.145 30.1582 25.3901C30.1582 27.6351 31.9782 29.4551 34.2233 29.4551Z" stroke="#52006A" stroke-width="1.50905" stroke-miterlimit="10" stroke-linecap="round" stroke-linejoin="round"/>
<path d="M7.92754 22.3418H10.8491V18.2765L19.9959 25.39L10.8491 32.5038V28.4383H1.5V22.3418H4.40844M22.9758 45.715H26.4868V49.7804L35.6337 42.6666L26.4868 35.5531V39.6174H12.0563V45.715H19.4547M12.0559 5.06497H10.0121M6.76014 5.06497H3.53249M12.0559 11.1625H9.7723M6.5203 11.1625H4.54878M2.91569 8.11376H1.5M12.0559 8.11376H6.16769M12.3637 36.5689H14.4075M3.53249 36.5689H9.11174M2.30593 17.26H1.5M8.10571 17.26H5.55793M10.0121 45.7152H12.0559M3.53249 45.7152H6.76014M9.7723 39.6177H12.0559M4.54878 39.6177H6.5203M1.5 42.6664H2.91569M6.16769 42.6664H12.0559M35.6334 8.11376L26.487 1V5.06497H12.0562V11.1625H26.487V15.2275L35.6334 8.11376ZM45.7298 43.121C45.0165 43.214 44.3082 43.0501 43.7161 42.6625L40.7981 40.7526C40.3005 40.4268 39.8917 39.9823 39.6089 39.459C39.326 38.9358 39.1779 38.3504 39.1779 37.7556V30.5858C39.1779 30.4367 39.2244 30.2913 39.311 30.1699C39.3976 30.0485 39.5198 29.9571 39.6608 29.9085L45.2923 27.9667C45.3226 27.9563 45.3554 27.9563 45.3857 27.9667L51.0171 29.9085C51.1581 29.9571 51.2803 30.0485 51.3669 30.1699C51.4535 30.2913 51.5 30.4367 51.5 30.5858V37.7556C51.5 38.3504 51.3519 38.9359 51.069 39.4591C50.7861 39.9824 50.3774 40.4269 49.8797 40.7527L46.9964 42.64C46.6139 42.8902 46.1828 43.0619 45.7298 43.121Z" stroke="#52006A" stroke-width="1.50905" stroke-miterlimit="10" stroke-linecap="round" stroke-linejoin="round"/>
<path d="M44.7476 34.9599L44.2081 34.4204C43.6475 33.8598 42.7388 33.8598 42.1782 34.4204C41.6177 34.9809 41.6177 35.8897 42.1782 36.4503L43.7327 38.0047C44.2932 38.5652 45.202 38.5652 45.7625 38.0047L48.4706 35.2966C49.0311 34.7361 49.0311 33.8273 48.4706 33.2668C47.91 32.7062 47.0013 32.7062 46.4407 33.2668L44.7476 34.9599Z" stroke="#52006A" stroke-width="1.50905" stroke-miterlimit="10" stroke-linecap="round" stroke-linejoin="round"/>
</svg>
