<svg width="62" height="47" viewBox="0 0 62 47" fill="none" xmlns="http://www.w3.org/2000/svg">
<path fill-rule="evenodd" clip-rule="evenodd" d="M59.4533 26.0435C59.4533 28.2132 58.3829 33.5737 57.5223 37.8812L57.4934 38.0078H44.3232C44.1831 37.0236 44.0478 36.017 43.4915 34.9146C43.477 34.8857 43.4553 34.8567 43.4409 34.8307L35.4273 22.5678C34.979 21.88 35.1742 20.9543 35.8613 20.5044C36.0563 20.3765 36.1144 20.1935 36.6424 20.2477C37.156 20.3005 37.7056 20.5947 37.9226 20.9339L41.5388 26.4615C42.345 27.6961 44.2647 27.1183 44.2654 25.6501L44.2943 8.38232C44.2943 7.70969 44.8367 7.16223 45.5093 7.16223C46.1819 7.16223 46.7315 7.70969 46.7315 8.38232V18.5026C46.7315 19.0009 47.1292 19.4044 47.6283 19.4044C48.1274 19.4044 48.5324 19.0009 48.5324 18.5026C48.5324 17.8306 49.0821 17.2839 49.7546 17.2839C50.4272 17.2839 50.9696 17.8306 50.9696 18.5026V20.3693C50.9696 20.8668 51.3745 21.2704 51.8736 21.2704C52.3727 21.2704 52.7776 20.8668 52.7776 20.3693C52.7776 19.6966 53.32 19.1498 53.9926 19.1498C54.6653 19.1498 55.2149 19.6966 55.2149 20.3693V22.2358C55.2149 22.7333 55.6198 23.1376 56.1117 23.1376C56.6106 23.1376 57.0157 22.7333 57.0157 22.2358C57.0157 21.5625 57.5653 21.0157 58.2379 21.0157C58.9106 21.0157 59.4529 21.5625 59.4529 22.2358V26.0435H59.4533ZM57.2764 44.0285C57.2764 44.2651 57.0812 44.4646 56.8424 44.4646H44.88C44.6486 44.4646 44.446 44.2651 44.446 44.0285V39.8113H57.2763V44.0285H57.2764ZM19.6174 8.84025H42.4862V8.38008C42.4862 4.49737 48.5325 4.51683 48.5325 8.38219V8.79239C48.8724 8.73599 49.1039 8.64053 49.2124 8.57256V5.05338C49.046 4.94991 48.612 4.78583 47.9468 4.78583H19.6175C18.9521 4.78583 18.5182 4.95004 18.3518 5.05338V8.57256C18.5181 8.67603 18.952 8.84025 19.6174 8.84025ZM58.2383 19.2119C57.7537 19.2119 57.2981 19.3255 56.9003 19.5259C56.3728 17.7273 54.3432 16.824 52.6548 17.6592C52.1413 15.9081 50.2132 15.0023 48.5324 15.7361V10.6134C50.0006 10.4587 51.0203 9.72034 51.0203 8.74388V4.88115C51.0203 3.78044 49.7258 2.98199 47.9466 2.98199H19.6174C17.8382 2.98199 16.5508 3.78044 16.5508 4.88115V8.74388C16.5508 9.84537 17.8381 10.6438 19.6174 10.6438H42.479L42.4645 24.5803L39.4342 19.9466C38.9134 19.1496 37.8937 18.5637 36.8306 18.4532C36.0278 18.3707 35.3117 18.5796 34.7983 19.0433C33.3373 20.0552 32.9396 22.0591 33.916 23.5548L41.9005 35.7736C42.2405 36.4484 42.3779 37.1565 42.4647 37.7632L42.6454 38.9754V44.0285C42.6454 45.2631 43.6507 46.2683 44.8803 46.2683H56.8427C58.0795 46.2683 59.0848 45.2631 59.0848 44.0285V39.2603L59.2872 38.2363C60.1696 33.8507 61.2617 28.3925 61.2617 26.0435V22.2358C61.2615 20.5681 59.9018 19.2119 58.2383 19.2119ZM33.9014 38.5516C33.6194 38.6976 32.9033 38.8922 31.8981 38.8922H20.3551C19.357 38.8922 18.641 38.6976 18.3518 38.5516V35.1792C18.641 35.0324 19.357 34.8371 20.3551 34.8371H31.8981C32.9033 34.8371 33.6194 35.0324 33.9014 35.1792V38.5516ZM31.8979 33.0342H20.355C18.5975 33.0342 16.5508 33.5319 16.5508 34.9342V38.7969C16.5508 40.1985 18.5975 40.696 20.355 40.696H31.8979C33.6554 40.696 35.7022 40.1984 35.7022 38.7969V34.9342C35.7022 33.5317 33.6554 33.0342 31.8979 33.0342ZM18.3516 19.907C18.3516 19.8723 18.3516 19.8397 18.3589 19.8108H30.5599V23.8673H18.3589L18.3516 19.907ZM17.9828 25.6703C17.1656 25.6703 16.5508 24.8531 16.5508 23.7712V19.907C16.5508 18.8243 17.1656 18.0078 17.9828 18.0078H30.9288C31.7533 18.0078 32.3681 18.8243 32.3681 19.907V23.7712C32.3681 24.8531 31.7533 25.6703 30.9288 25.6703H17.9828Z" fill="#52006A"/>
<path d="M2.79782 41.7111C1.36508 40.7861 0.67092 39.5553 0.672109 38.2598C0.6733 36.9619 1.3725 35.6188 2.68402 34.473L2.6843 34.4728C2.76312 34.4045 2.85365 34.3802 2.93987 34.3924C3.02379 34.4044 3.09728 34.4498 3.14922 34.5098C3.20116 34.5699 3.23562 34.6491 3.23525 34.734C3.23488 34.821 3.1977 34.907 3.11878 34.9751C1.9563 35.9933 1.34682 37.1433 1.33629 38.2308C1.32579 39.3145 1.90995 40.3578 3.18172 41.1681L3.18316 41.1691C3.4963 41.3773 3.83249 41.5473 4.18451 41.6759C2.14936 40.0735 1.97887 36.9472 3.98031 35.1261C4.05664 35.0557 4.14596 35.0285 4.23224 35.0377C4.31645 35.0466 4.39144 35.0893 4.44544 35.1473C4.49944 35.2054 4.53661 35.2833 4.53925 35.3681C4.54196 35.4551 4.50791 35.5424 4.4316 35.6135L4.4303 35.6147L4.43029 35.6147C2.10406 37.6965 3.36701 41.6054 6.46042 41.9292C6.53734 41.8649 6.68817 41.6915 6.85113 41.2423L2.79782 41.7111ZM2.79782 41.7111L2.81513 41.7226C3.80211 42.3797 4.81211 42.5881 5.58092 42.6314L5.10124 43.1111C5.10118 43.1112 5.10111 43.1113 5.10105 43.1113C5.02737 43.1841 4.99689 43.2724 5.00274 43.3589C5.00844 43.4432 5.04801 43.52 5.10369 43.5765C5.15937 43.6331 5.23568 43.6739 5.32049 43.6801C5.4077 43.6865 5.49646 43.6555 5.57061 43.5812L6.04146 43.1103L6.04145 43.7763L6.04146 43.7772C6.04258 43.8801 6.08348 43.9637 6.14808 44.0208C6.21115 44.0766 6.29258 44.1036 6.37169 44.1045C6.45083 44.1054 6.53315 44.0803 6.59729 44.0244C6.66301 43.9672 6.70389 43.8827 6.70578 43.7778H6.70579V43.7763V43.1101L7.17645 43.581L7.17712 43.5816C7.25088 43.6539 7.33908 43.6839 7.42532 43.6782C7.50943 43.6726 7.58599 43.6336 7.64237 43.5781C7.69875 43.5225 7.73904 43.4464 7.74487 43.3618C7.75085 43.275 7.71995 43.1865 7.64677 43.1119L7.64619 43.1113L7.1652 42.6301C7.93385 42.5874 8.94298 42.3807 9.93084 41.7229C11.6133 40.6548 12.2486 39.1855 12.0238 37.7092C11.8 36.2394 10.7267 34.7821 9.03427 33.7197L9.0334 33.7192C8.85982 33.613 8.71911 33.4608 8.62695 33.2794C8.5348 33.098 8.49481 32.8945 8.51144 32.6918L8.51145 32.6916L8.62147 31.3176C8.62147 31.3175 8.62147 31.3175 8.62148 31.3175L8.62148 31.3174L8.5341 31.3104M2.79782 41.7111L8.01716 31.6424L7.93677 32.6462C7.91144 32.9551 7.97239 33.2649 8.11283 33.5412C8.25328 33.8175 8.46768 34.0493 8.73216 34.2109M8.5341 31.3104C8.5368 31.2775 8.53282 31.2445 8.5224 31.2132C8.51198 31.1819 8.49534 31.1531 8.47348 31.1284C8.45161 31.1037 8.42498 31.0837 8.39519 31.0696C8.36539 31.0555 8.33305 31.0476 8.30011 31.0463M8.5341 31.3104L8.42408 32.6846L8.5341 31.3104ZM8.30011 31.0463L8.30469 30.9588C8.30451 30.9588 8.30432 30.9588 8.30413 30.9587C7.88163 30.9368 7.44899 31.0884 7.13295 31.3563L6.67179 30.4258C6.61397 30.301 6.48989 30.2423 6.37347 30.2421C6.25688 30.2419 6.13256 30.3004 6.07502 30.4267C5.97238 30.6355 5.868 30.8453 5.76376 31.0548C5.71367 31.1555 5.66361 31.2561 5.61379 31.3566C5.29125 31.0853 4.83708 30.9184 4.40679 30.9668L4.4063 30.9668C4.22848 30.9878 4.11749 31.1575 4.12586 31.3155L4.12583 31.3155L4.12601 31.3178L4.23457 32.692L4.2346 32.6923C4.25142 32.8951 4.21155 33.0986 4.11943 33.2801C4.0273 33.4615 3.88656 33.6138 3.7129 33.7199L3.71289 33.7199L3.7111 33.721C3.34337 33.9581 3.68442 34.5077 4.05885 34.2871L4.05886 34.2872L4.06005 34.2864C4.33842 34.1164 4.56407 33.8724 4.71184 33.5815C4.85958 33.2908 4.92364 32.9647 4.89688 32.6396C4.89687 32.6396 4.89687 32.6395 4.89687 32.6395L4.81972 31.6648C4.91903 31.6943 5.02512 31.75 5.12244 31.8202C5.25575 31.9163 5.35801 32.029 5.39907 32.1153L5.39883 32.1155L5.40227 32.1214C5.5291 32.3417 5.86511 32.3373 5.98164 32.1107L5.98213 32.1097C6.05412 31.9653 6.12542 31.8211 6.1967 31.6771C6.25557 31.5581 6.31442 31.4391 6.37361 31.3201L6.75973 32.0996C6.81512 32.2207 6.93448 32.28 7.04741 32.284C7.16076 32.2881 7.28456 32.237 7.3465 32.1182L7.34655 32.1182L7.34787 32.1155C7.38868 32.03 7.4913 31.9169 7.62509 31.8199C7.72249 31.7493 7.82854 31.693 7.9276 31.6627L7.8494 32.639C7.82275 32.9641 7.8869 33.2902 8.03469 33.5809C8.18249 33.8717 8.40813 34.1157 8.68646 34.2857L8.73216 34.2109M8.30011 31.0463C7.89246 31.025 7.47363 31.1749 7.17313 31.4373L8.30011 31.0463ZM8.73216 34.2109C10.7029 35.4213 11.8142 37.3701 11.4342 38.9509C11.2106 40.1448 9.6407 41.4846 8.30391 41.861C8.37999 41.8085 8.45427 41.7539 8.52667 41.6971M8.73216 34.2109L8.68628 34.2856C10.6415 35.4864 11.7162 37.4026 11.349 38.9304L11.3489 38.9304L11.3481 38.9348C11.2345 39.5414 10.7518 40.2014 10.1151 40.7465C9.63058 41.1614 9.06591 41.5018 8.52667 41.6971M8.52667 41.6971C9.41811 40.9983 10.0237 39.9815 10.1625 38.8311L10.1625 38.8311L10.1627 38.8292C10.2057 38.3945 9.56255 38.3175 9.50328 38.75L9.50311 38.7514C9.35276 39.9946 8.5545 41.0577 7.42203 41.6089M8.52667 41.6971L7.42203 41.6089M7.42203 41.6089C7.44022 41.5637 7.45804 41.5171 7.47545 41.4688C7.76591 40.7015 7.91871 39.5685 7.94125 38.4257C7.9638 37.282 7.85615 36.1166 7.61854 35.2824M7.42203 41.6089L6.85115 41.2422C7.12442 40.4873 7.28356 39.3575 7.28356 38.1423C7.28356 37.142 7.17404 36.1879 6.97703 35.4558C6.96569 35.4136 6.96276 35.3697 6.9684 35.3264C6.97405 35.2832 6.98816 35.2414 7.00994 35.2036C7.03171 35.1658 7.06072 35.1326 7.0953 35.106C7.12989 35.0794 7.16938 35.0599 7.21151 35.0486C7.25365 35.0372 7.2976 35.0343 7.34087 35.0399C7.38414 35.0456 7.42587 35.0597 7.46368 35.0815C7.50149 35.1033 7.53464 35.1323 7.56124 35.1669C7.58771 35.2013 7.60718 35.2405 7.61854 35.2824M7.61854 35.2824C7.6186 35.2826 7.61865 35.2829 7.61871 35.2831L7.53406 35.3058L7.61837 35.2818C7.61843 35.282 7.61848 35.2822 7.61854 35.2824ZM7.26877 32.0777C7.35818 31.8905 7.66119 31.6398 7.93506 31.5695L7.26877 32.0777Z" fill="#52006A" stroke="#52006A" stroke-width="0.175316"/>
<path d="M8.7549 35.126L8.75491 35.126L8.75453 35.1256C8.67772 35.0555 8.58815 35.0285 8.50179 35.0378C8.41763 35.0469 8.34276 35.0896 8.28889 35.1477C8.23502 35.2059 8.1981 35.2838 8.19568 35.3685C8.1932 35.4554 8.22739 35.5426 8.30358 35.6137L8.30391 35.614C8.88688 36.1525 9.29247 36.8707 9.44545 37.6344C9.45293 37.6778 9.46895 37.7192 9.49259 37.7564C9.51649 37.7939 9.54769 37.8263 9.58434 37.8515C9.62098 37.8767 9.66233 37.8944 9.70592 37.9033C9.74951 37.9123 9.79445 37.9124 9.83808 37.9036C9.88171 37.8949 9.92314 37.8775 9.95991 37.8524C9.99668 37.8273 10.028 37.7951 10.0521 37.7577C10.0762 37.7203 10.0925 37.6784 10.1001 37.6345C10.1076 37.5912 10.1064 37.5468 10.0966 37.5039C9.91618 36.603 9.43962 35.7584 8.7549 35.126ZM5.66176 35.856L5.66221 35.8561L5.66316 35.8471C5.66843 35.7974 5.68462 35.7392 5.70463 35.6701C5.70556 35.6668 5.7065 35.6636 5.70745 35.6603C5.72583 35.5969 5.74657 35.5253 5.75683 35.4562C5.76761 35.3837 5.76884 35.3026 5.73617 35.2277C5.70187 35.1492 5.63606 35.0905 5.53908 35.054L5.53936 35.0533L5.52793 35.0507C5.41779 35.0253 5.32346 35.0414 5.24838 35.097C5.17743 35.1494 5.13547 35.2286 5.10783 35.3054C5.07989 35.383 5.06272 35.4696 5.04859 35.5467C5.04628 35.5594 5.04405 35.5717 5.04188 35.5837C5.03023 35.6483 5.02026 35.7035 5.00705 35.7483L5.00677 35.7482L5.00532 35.7552C4.70451 37.1967 4.71527 39.265 5.03618 40.6889L5.03617 40.6889L5.03642 40.6899C5.06046 40.7908 5.1184 40.864 5.19412 40.906C5.26809 40.9469 5.35353 40.9552 5.43083 40.9384C5.50813 40.9216 5.58246 40.8786 5.63261 40.8103C5.68395 40.7405 5.70585 40.6496 5.68541 40.5477L5.68544 40.5477L5.68497 40.5456C5.3812 39.2011 5.3748 37.2162 5.66176 35.856Z" fill="#52006A" stroke="#52006A" stroke-width="0.175316"/>
<mask id="path-4-outside-1_2994_15518" maskUnits="userSpaceOnUse" x="1.29297" y="-0.507782" width="12" height="14" fill="black">
<rect fill="white" x="1.29297" y="-0.507782" width="12" height="14"/>
<path d="M12.3278 5.19842C11.9907 4.61542 11.5215 4.09556 10.9593 3.68021C11.4316 3.24705 11.6106 2.73152 11.6191 2.70645C11.6571 2.59441 11.6043 2.47218 11.4969 2.4224C11.3897 2.37286 11.2619 2.41247 11.201 2.51385C11.1785 2.55093 11.0172 2.79653 10.6576 2.79653C10.5328 2.79653 10.3839 2.76687 10.2089 2.68865C9.32102 2.29186 8.38106 2.44396 8.21043 2.47632H8.07638C7.87635 1.99577 7.2517 0.634537 6.54973 0.505152C6.29693 0.458296 6.08015 0.540039 5.95543 0.729405C5.80351 0.960279 5.78985 1.40399 6.058 1.80569C6.15732 1.95427 6.28139 2.16525 6.42311 2.42588C6.02626 2.40578 5.4396 2.43562 4.87372 2.68863C4.19443 2.99194 3.91181 2.56413 3.88188 2.51431C3.82219 2.41384 3.69666 2.3736 3.58949 2.42078C3.53775 2.44355 3.49614 2.48448 3.47251 2.53583C3.44888 2.58718 3.44486 2.6454 3.46123 2.69951C3.46956 2.72708 3.64809 3.30492 4.12315 3.79804C3.59926 4.2159 3.16354 4.7289 2.85348 5.29519C2.48164 5.9751 2.29297 6.70803 2.29297 7.47362C2.29297 8.77888 2.84955 10.0049 3.86037 10.9256C4.8652 11.841 6.1996 12.345 7.61797 12.345C9.03634 12.345 10.3707 11.841 11.3756 10.9256C12.3864 10.0049 12.943 8.77888 12.943 7.47362C12.943 6.68092 12.7302 5.89429 12.3278 5.19842ZM5.06264 3.11141C5.70004 2.82637 6.39181 2.87637 6.67035 2.91346L6.69531 2.97062V2.97108L6.95188 3.55911C7.00282 3.6756 7.13784 3.72931 7.25469 3.67949C7.37161 3.62995 7.42671 3.49545 7.37814 3.37808C7.31447 3.22418 7.20304 2.97041 7.12091 2.78477C7.09035 2.71578 7.06604 2.66089 7.05282 2.63175C7.05144 2.62851 7.0499 2.62534 7.04819 2.62226C7.04519 2.61417 7.04172 2.60626 7.0378 2.59857C6.79949 2.13558 6.59927 1.78229 6.443 1.54849C6.29549 1.32788 6.2851 1.07114 6.34224 0.984054C6.35039 0.971854 6.36956 0.942639 6.46568 0.960279C6.78194 1.01878 7.3376 1.83998 7.70407 2.79102C7.72089 2.83467 7.75053 2.8722 7.7891 2.89867C7.82767 2.92514 7.87335 2.93931 7.92013 2.93932H8.23331C8.24958 2.93932 8.26595 2.93751 8.28179 2.93425C8.28642 2.93335 8.52252 2.88496 8.86078 2.88496C9.18995 2.88496 9.61621 2.9308 10.02 3.11141C10.2955 3.23448 10.5323 3.26976 10.7296 3.25791C10.6467 3.34335 10.5511 3.4269 10.4414 3.50188C9.96122 3.82996 9.35945 3.89478 8.65266 3.69477C8.61034 3.68276 8.56547 3.68307 8.52331 3.69566C8.48116 3.70825 8.44347 3.73259 8.41466 3.76584C8.38589 3.79913 8.36717 3.8399 8.36068 3.88342C8.35419 3.92693 8.3602 3.97139 8.37801 4.01162C8.41345 4.09084 8.47712 4.15379 8.5739 4.24946C8.75152 4.42462 9.04419 4.71399 9.19484 5.19444C8.96216 5.09578 8.74157 5.0824 8.58321 5.07263C8.50771 5.06802 8.42966 5.06314 8.39609 5.0511L8.3734 5.04323C7.85155 4.85895 7.77378 4.69184 7.77378 4.60847C7.77378 4.48069 7.66798 4.37697 7.54018 4.37697C7.41238 4.37697 7.30866 4.48069 7.30866 4.60847C7.30866 4.80733 6.72263 5.16877 6.48323 5.25412C6.45575 5.26417 6.42681 5.27338 6.39669 5.28334C6.26264 5.32684 6.1015 5.37892 5.91304 5.49956C6.07437 5.01566 6.35872 4.6819 6.53445 4.47608C6.61844 4.37723 6.67405 4.31222 6.70438 4.24458C6.74073 4.1624 6.72661 4.06651 6.6678 3.9987C6.63893 3.96549 6.6012 3.94117 6.55903 3.92859C6.51685 3.916 6.47197 3.91567 6.42961 3.92763C5.71741 4.12927 5.11202 4.03162 4.63 3.63717H4.62972C4.48428 3.51788 4.36437 3.38387 4.26641 3.25166C4.48365 3.28106 4.7483 3.25193 5.06264 3.11141C5.70007 2.82637 4.7483 3.25193 5.06264 3.11141ZM7.61797 11.882C4.93718 11.882 2.75601 9.90445 2.75601 7.47362C2.75601 6.16493 3.38274 4.94604 4.48178 4.10496C4.80716 4.32984 5.18836 4.45899 5.58248 4.48575C5.69916 4.49363 5.81636 4.49298 5.93293 4.48483C5.67182 4.83932 5.36804 5.37756 5.33197 6.11375C5.33044 6.14506 5.33529 6.17636 5.34622 6.20575C5.35715 6.23513 5.37393 6.26199 5.39556 6.2847C5.41718 6.3074 5.44319 6.32548 5.47201 6.33783C5.50083 6.35018 5.53186 6.35654 5.56321 6.35655C5.60074 6.35655 5.63753 6.34761 5.67064 6.33025C5.67805 6.32627 5.68504 6.32182 5.69192 6.31749C5.70954 6.30551 5.72549 6.29125 5.73938 6.27508C6.08277 5.87204 6.32559 5.7931 6.53975 5.72365C6.57404 5.71251 6.60643 5.70184 6.63933 5.69027C6.6472 5.68728 7.211 5.46039 7.53992 5.1062C7.76015 5.3176 8.07893 5.43029 8.21921 5.47984L8.24009 5.48724C8.33569 5.52127 8.44195 5.52776 8.55473 5.53472C8.8038 5.55 9.0863 5.56736 9.34306 5.86878C9.37436 5.90562 9.41642 5.93173 9.46333 5.94345C9.51024 5.95516 9.55964 5.95189 9.60459 5.93409C9.64954 5.91629 9.68779 5.88486 9.71396 5.8442C9.74013 5.80355 9.7529 5.75573 9.75049 5.70745C9.71766 5.03584 9.45993 4.57375 9.21575 4.26511C9.58174 4.29079 9.95407 4.24511 10.2946 4.10459C10.3886 4.06579 10.4804 4.02102 10.5681 3.9693C11.1308 4.35987 11.5988 4.86238 11.9271 5.43011C12.2886 6.05562 12.4799 6.76213 12.4799 7.47355C12.4799 9.90443 10.2988 11.882 7.61797 11.882Z"/>
</mask>
<path d="M12.3278 5.19842C11.9907 4.61542 11.5215 4.09556 10.9593 3.68021C11.4316 3.24705 11.6106 2.73152 11.6191 2.70645C11.6571 2.59441 11.6043 2.47218 11.4969 2.4224C11.3897 2.37286 11.2619 2.41247 11.201 2.51385C11.1785 2.55093 11.0172 2.79653 10.6576 2.79653C10.5328 2.79653 10.3839 2.76687 10.2089 2.68865C9.32102 2.29186 8.38106 2.44396 8.21043 2.47632H8.07638C7.87635 1.99577 7.2517 0.634537 6.54973 0.505152C6.29693 0.458296 6.08015 0.540039 5.95543 0.729405C5.80351 0.960279 5.78985 1.40399 6.058 1.80569C6.15732 1.95427 6.28139 2.16525 6.42311 2.42588C6.02626 2.40578 5.4396 2.43562 4.87372 2.68863C4.19443 2.99194 3.91181 2.56413 3.88188 2.51431C3.82219 2.41384 3.69666 2.3736 3.58949 2.42078C3.53775 2.44355 3.49614 2.48448 3.47251 2.53583C3.44888 2.58718 3.44486 2.6454 3.46123 2.69951C3.46956 2.72708 3.64809 3.30492 4.12315 3.79804C3.59926 4.2159 3.16354 4.7289 2.85348 5.29519C2.48164 5.9751 2.29297 6.70803 2.29297 7.47362C2.29297 8.77888 2.84955 10.0049 3.86037 10.9256C4.8652 11.841 6.1996 12.345 7.61797 12.345C9.03634 12.345 10.3707 11.841 11.3756 10.9256C12.3864 10.0049 12.943 8.77888 12.943 7.47362C12.943 6.68092 12.7302 5.89429 12.3278 5.19842ZM5.06264 3.11141C5.70004 2.82637 6.39181 2.87637 6.67035 2.91346L6.69531 2.97062V2.97108L6.95188 3.55911C7.00282 3.6756 7.13784 3.72931 7.25469 3.67949C7.37161 3.62995 7.42671 3.49545 7.37814 3.37808C7.31447 3.22418 7.20304 2.97041 7.12091 2.78477C7.09035 2.71578 7.06604 2.66089 7.05282 2.63175C7.05144 2.62851 7.0499 2.62534 7.04819 2.62226C7.04519 2.61417 7.04172 2.60626 7.0378 2.59857C6.79949 2.13558 6.59927 1.78229 6.443 1.54849C6.29549 1.32788 6.2851 1.07114 6.34224 0.984054C6.35039 0.971854 6.36956 0.942639 6.46568 0.960279C6.78194 1.01878 7.3376 1.83998 7.70407 2.79102C7.72089 2.83467 7.75053 2.8722 7.7891 2.89867C7.82767 2.92514 7.87335 2.93931 7.92013 2.93932H8.23331C8.24958 2.93932 8.26595 2.93751 8.28179 2.93425C8.28642 2.93335 8.52252 2.88496 8.86078 2.88496C9.18995 2.88496 9.61621 2.9308 10.02 3.11141C10.2955 3.23448 10.5323 3.26976 10.7296 3.25791C10.6467 3.34335 10.5511 3.4269 10.4414 3.50188C9.96122 3.82996 9.35945 3.89478 8.65266 3.69477C8.61034 3.68276 8.56547 3.68307 8.52331 3.69566C8.48116 3.70825 8.44347 3.73259 8.41466 3.76584C8.38589 3.79913 8.36717 3.8399 8.36068 3.88342C8.35419 3.92693 8.3602 3.97139 8.37801 4.01162C8.41345 4.09084 8.47712 4.15379 8.5739 4.24946C8.75152 4.42462 9.04419 4.71399 9.19484 5.19444C8.96216 5.09578 8.74157 5.0824 8.58321 5.07263C8.50771 5.06802 8.42966 5.06314 8.39609 5.0511L8.3734 5.04323C7.85155 4.85895 7.77378 4.69184 7.77378 4.60847C7.77378 4.48069 7.66798 4.37697 7.54018 4.37697C7.41238 4.37697 7.30866 4.48069 7.30866 4.60847C7.30866 4.80733 6.72263 5.16877 6.48323 5.25412C6.45575 5.26417 6.42681 5.27338 6.39669 5.28334C6.26264 5.32684 6.1015 5.37892 5.91304 5.49956C6.07437 5.01566 6.35872 4.6819 6.53445 4.47608C6.61844 4.37723 6.67405 4.31222 6.70438 4.24458C6.74073 4.1624 6.72661 4.06651 6.6678 3.9987C6.63893 3.96549 6.6012 3.94117 6.55903 3.92859C6.51685 3.916 6.47197 3.91567 6.42961 3.92763C5.71741 4.12927 5.11202 4.03162 4.63 3.63717H4.62972C4.48428 3.51788 4.36437 3.38387 4.26641 3.25166C4.48365 3.28106 4.7483 3.25193 5.06264 3.11141C5.70007 2.82637 4.7483 3.25193 5.06264 3.11141ZM7.61797 11.882C4.93718 11.882 2.75601 9.90445 2.75601 7.47362C2.75601 6.16493 3.38274 4.94604 4.48178 4.10496C4.80716 4.32984 5.18836 4.45899 5.58248 4.48575C5.69916 4.49363 5.81636 4.49298 5.93293 4.48483C5.67182 4.83932 5.36804 5.37756 5.33197 6.11375C5.33044 6.14506 5.33529 6.17636 5.34622 6.20575C5.35715 6.23513 5.37393 6.26199 5.39556 6.2847C5.41718 6.3074 5.44319 6.32548 5.47201 6.33783C5.50083 6.35018 5.53186 6.35654 5.56321 6.35655C5.60074 6.35655 5.63753 6.34761 5.67064 6.33025C5.67805 6.32627 5.68504 6.32182 5.69192 6.31749C5.70954 6.30551 5.72549 6.29125 5.73938 6.27508C6.08277 5.87204 6.32559 5.7931 6.53975 5.72365C6.57404 5.71251 6.60643 5.70184 6.63933 5.69027C6.6472 5.68728 7.211 5.46039 7.53992 5.1062C7.76015 5.3176 8.07893 5.43029 8.21921 5.47984L8.24009 5.48724C8.33569 5.52127 8.44195 5.52776 8.55473 5.53472C8.8038 5.55 9.0863 5.56736 9.34306 5.86878C9.37436 5.90562 9.41642 5.93173 9.46333 5.94345C9.51024 5.95516 9.55964 5.95189 9.60459 5.93409C9.64954 5.91629 9.68779 5.88486 9.71396 5.8442C9.74013 5.80355 9.7529 5.75573 9.75049 5.70745C9.71766 5.03584 9.45993 4.57375 9.21575 4.26511C9.58174 4.29079 9.95407 4.24511 10.2946 4.10459C10.3886 4.06579 10.4804 4.02102 10.5681 3.9693C11.1308 4.35987 11.5988 4.86238 11.9271 5.43011C12.2886 6.05562 12.4799 6.76213 12.4799 7.47355C12.4799 9.90443 10.2988 11.882 7.61797 11.882Z" fill="#52006A"/>
<path d="M12.3278 5.19842L12.191 5.27753L12.191 5.27754L12.3278 5.19842ZM10.9593 3.68021L10.8525 3.56373L10.7111 3.69336L10.8654 3.80732L10.9593 3.68021ZM11.6191 2.70645L11.7687 2.75755L11.7688 2.75718L11.6191 2.70645ZM11.4969 2.4224L11.5633 2.279L11.5632 2.27894L11.4969 2.4224ZM11.201 2.51385L11.3361 2.5959L11.3366 2.59518L11.201 2.51385ZM10.2089 2.68865L10.2734 2.54436L10.2734 2.54436L10.2089 2.68865ZM8.21043 2.47632V2.63436H8.22529L8.23988 2.6316L8.21043 2.47632ZM8.07638 2.47632L7.93047 2.53706L7.97098 2.63436H8.07638V2.47632ZM6.54973 0.505152L6.52092 0.66055L6.52108 0.660578L6.54973 0.505152ZM5.95543 0.729405L5.82345 0.642474L5.82341 0.642528L5.95543 0.729405ZM6.058 1.80569L5.92655 1.89344L5.92661 1.89352L6.058 1.80569ZM6.42311 2.42588L6.41512 2.58372L6.69658 2.59797L6.56195 2.35038L6.42311 2.42588ZM4.87372 2.68863L4.93816 2.83294L4.93823 2.83291L4.87372 2.68863ZM3.88188 2.51431L3.746 2.59503L3.74641 2.59571L3.88188 2.51431ZM3.58949 2.42078L3.65315 2.56544L3.65317 2.56543L3.58949 2.42078ZM3.46123 2.69951L3.61251 2.65378L3.6125 2.65376L3.46123 2.69951ZM4.12315 3.79804L4.2217 3.9216L4.35738 3.81338L4.23697 3.68839L4.12315 3.79804ZM2.85348 5.29519L2.71486 5.21929L2.71482 5.21936L2.85348 5.29519ZM3.86037 10.9256L3.96681 10.8087L3.96679 10.8087L3.86037 10.9256ZM11.3756 10.9256L11.2691 10.8087L11.2691 10.8087L11.3756 10.9256ZM5.06264 3.11141L5.12714 3.2557L5.12716 3.25569L5.06264 3.11141ZM6.67035 2.91346L6.81519 2.85022L6.77953 2.76856L6.69121 2.7568L6.67035 2.91346ZM6.69531 2.97062H6.85335V2.93762L6.84015 2.90737L6.69531 2.97062ZM6.69531 2.97108H6.53726V3.00406L6.55045 3.03428L6.69531 2.97108ZM6.95188 3.55911L6.80702 3.62231L6.80707 3.62243L6.95188 3.55911ZM7.25469 3.67949L7.19303 3.53397L7.1927 3.53411L7.25469 3.67949ZM7.37814 3.37808L7.23209 3.4385L7.2321 3.43851L7.37814 3.37808ZM7.12091 2.78477L7.26545 2.72083L7.26541 2.72076L7.12091 2.78477ZM7.05282 2.63175L6.90736 2.69365L6.90889 2.69703L7.05282 2.63175ZM7.04819 2.62226L6.90001 2.67721L6.90415 2.68837L6.90991 2.69878L7.04819 2.62226ZM7.0378 2.59857L7.17855 2.5267L7.17832 2.52625L7.0378 2.59857ZM6.443 1.54849L6.57439 1.46067L6.57438 1.46065L6.443 1.54849ZM6.34224 0.984054L6.21081 0.896263L6.2101 0.897356L6.34224 0.984054ZM6.46568 0.960279L6.49443 0.804871L6.49421 0.80483L6.46568 0.960279ZM7.70407 2.79102L7.85155 2.73419L7.85155 2.73419L7.70407 2.79102ZM7.92013 2.93932L7.92011 3.09736H7.92013V2.93932ZM8.28179 2.93425L8.25154 2.77912L8.24988 2.77946L8.28179 2.93425ZM10.02 3.11141L9.95548 3.25568L9.95554 3.25571L10.02 3.11141ZM10.7296 3.25791L10.843 3.36792L11.1263 3.07574L10.7201 3.10015L10.7296 3.25791ZM10.4414 3.50188L10.3522 3.37137L10.3522 3.37139L10.4414 3.50188ZM8.65266 3.69477L8.60953 3.84681L8.60963 3.84684L8.65266 3.69477ZM8.41466 3.76584L8.29522 3.66234L8.29508 3.6625L8.41466 3.76584ZM8.37801 4.01162L8.23348 4.07559L8.23375 4.07617L8.37801 4.01162ZM8.5739 4.24946L8.46278 4.36185L8.46293 4.362L8.5739 4.24946ZM9.19484 5.19444L9.13314 5.33995L9.44795 5.47344L9.34564 5.14716L9.19484 5.19444ZM8.58321 5.07263L8.59294 4.91488L8.59283 4.91488L8.58321 5.07263ZM8.39609 5.0511L8.44944 4.90232L8.44789 4.90178L8.39609 5.0511ZM8.3734 5.04323L8.32078 5.19226L8.3216 5.19254L8.3734 5.04323ZM6.48323 5.25412L6.43016 5.10525L6.42897 5.10569L6.48323 5.25412ZM6.39669 5.28334L6.44547 5.43367L6.44628 5.4334L6.39669 5.28334ZM5.91304 5.49956L5.76311 5.44957L5.62172 5.87369L5.99825 5.63267L5.91304 5.49956ZM6.53445 4.47608L6.65464 4.5787L6.65488 4.57842L6.53445 4.47608ZM6.70438 4.24458L6.8486 4.30924L6.84892 4.30851L6.70438 4.24458ZM6.6678 3.9987L6.7872 3.89515L6.78708 3.89502L6.6678 3.9987ZM6.42961 3.92763L6.38666 3.77554L6.38656 3.77557L6.42961 3.92763ZM4.63 3.63717L4.73008 3.51486L4.68642 3.47913H4.63V3.63717ZM4.62972 3.63717L4.52949 3.75937L4.57319 3.79522H4.62972V3.63717ZM4.26641 3.25166L4.28761 3.09504L3.91646 3.04481L4.13943 3.34574L4.26641 3.25166ZM4.48178 4.10496L4.57163 3.97495L4.47704 3.90957L4.38572 3.97945L4.48178 4.10496ZM5.58248 4.48575L5.57177 4.64344L5.57184 4.64344L5.58248 4.48575ZM5.93293 4.48483L6.06018 4.57856L6.2629 4.30333L5.92191 4.32717L5.93293 4.48483ZM5.33197 6.11375L5.17411 6.10601L5.17411 6.10604L5.33197 6.11375ZM5.56321 6.35655L5.56321 6.51459H5.56321V6.35655ZM5.67064 6.33025L5.74404 6.47022L5.74546 6.46946L5.67064 6.33025ZM5.69192 6.31749L5.77617 6.45132L5.78081 6.44817L5.69192 6.31749ZM5.73938 6.27508L5.85927 6.37805L5.85968 6.37758L5.73938 6.27508ZM6.53975 5.72365L6.5885 5.87399L6.58856 5.87397L6.53975 5.72365ZM6.63933 5.69027L6.69179 5.8394L6.69539 5.83804L6.63933 5.69027ZM7.53992 5.1062L7.64937 4.99218L7.53345 4.88091L7.42411 4.99865L7.53992 5.1062ZM8.21921 5.47984L8.27204 5.33088L8.27184 5.33081L8.21921 5.47984ZM8.24009 5.48724L8.29309 5.33835L8.29293 5.33829L8.24009 5.48724ZM8.55473 5.53472L8.54498 5.69247L8.54505 5.69247L8.55473 5.53472ZM9.34306 5.86878L9.4635 5.76644L9.46337 5.76629L9.34306 5.86878ZM9.75049 5.70745L9.59264 5.71516L9.59264 5.71533L9.75049 5.70745ZM9.21575 4.26511L9.22681 4.10746L8.86966 4.0824L9.0918 4.36317L9.21575 4.26511ZM10.2946 4.10459L10.2343 3.95849L10.2343 3.9585L10.2946 4.10459ZM10.5681 3.9693L10.6582 3.83946L10.575 3.78172L10.4877 3.83319L10.5681 3.9693ZM11.9271 5.43011L12.0639 5.35102L12.0639 5.35099L11.9271 5.43011ZM12.4799 7.47355H12.3219H12.4799ZM12.4646 5.11932C12.1162 4.51672 11.6321 3.98077 11.0532 3.55309L10.8654 3.80732C11.4109 4.21036 11.8652 4.71412 12.191 5.27753L12.4646 5.11932ZM11.0661 3.79668C11.5671 3.33722 11.7568 2.79233 11.7687 2.75755L11.4696 2.65535C11.4643 2.67072 11.2961 3.15688 10.8525 3.56373L11.0661 3.79668ZM11.7688 2.75718C11.8328 2.56821 11.7436 2.36252 11.5633 2.279L11.4304 2.5658C11.465 2.58183 11.4813 2.62061 11.4694 2.65573L11.7688 2.75718ZM11.5632 2.27894C11.3824 2.19538 11.1677 2.26226 11.0655 2.43251L11.3366 2.59518C11.3561 2.56268 11.397 2.55035 11.4306 2.56587L11.5632 2.27894ZM11.066 2.4318C11.0538 2.45177 10.9341 2.63848 10.6576 2.63848V2.95457C11.1002 2.95457 11.3032 2.65009 11.3361 2.5959L11.066 2.4318ZM10.6576 2.63848C10.5584 2.63848 10.4314 2.61498 10.2734 2.54436L10.1444 2.83294C10.3365 2.91877 10.5072 2.95457 10.6576 2.95457V2.63848ZM10.2734 2.54436C9.33969 2.1271 8.35935 2.28721 8.18098 2.32104L8.23988 2.6316C8.40278 2.6007 9.30235 2.45662 10.1444 2.83294L10.2734 2.54436ZM8.21043 2.31828H8.07638V2.63436H8.21043V2.31828ZM8.22229 2.41558C8.12087 2.17194 7.91048 1.7015 7.63406 1.27333C7.49591 1.05933 7.33812 0.850921 7.16549 0.685906C6.99441 0.52238 6.7968 0.389984 6.57837 0.349725L6.52108 0.660578C6.65364 0.685012 6.79736 0.77129 6.94708 0.914402C7.09524 1.05603 7.23774 1.24222 7.3685 1.44477C7.62991 1.8497 7.83186 2.30016 7.93047 2.53706L8.22229 2.41558ZM6.57853 0.349754C6.27396 0.293303 5.98875 0.391486 5.82345 0.642474L6.08742 0.816336C6.17156 0.688591 6.3199 0.62329 6.52092 0.660549L6.57853 0.349754ZM5.82341 0.642528C5.62925 0.937592 5.63121 1.451 5.92655 1.89344L6.18945 1.71794C5.94849 1.35699 5.97777 0.982965 6.08746 0.816282L5.82341 0.642528ZM5.92661 1.89352C6.02206 2.03632 6.14351 2.24253 6.28426 2.50137L6.56195 2.35038C6.41927 2.08798 6.29258 1.87222 6.18939 1.71786L5.92661 1.89352ZM6.4311 2.26803C6.02098 2.24727 5.40652 2.27729 4.80921 2.54435L4.93823 2.83291C5.47268 2.59395 6.03153 2.5643 6.41512 2.58372L6.4311 2.26803ZM4.80928 2.54432C4.50626 2.67962 4.31431 2.64415 4.20181 2.59099C4.08187 2.53433 4.02404 2.44405 4.01735 2.43291L3.74641 2.59571C3.76965 2.63439 3.8681 2.78292 4.06678 2.87679C4.27289 2.97417 4.5619 3.00094 4.93816 2.83294L4.80928 2.54432ZM4.01776 2.43359C3.91723 2.26437 3.70603 2.1968 3.52581 2.27613L3.65317 2.56543C3.68729 2.55041 3.72716 2.5633 3.746 2.59503L4.01776 2.43359ZM3.52583 2.27613C3.43875 2.31445 3.36871 2.38333 3.32893 2.46976L3.61608 2.6019C3.62357 2.58563 3.63675 2.57266 3.65315 2.56544L3.52583 2.27613ZM3.32893 2.46976C3.28916 2.55619 3.28241 2.65419 3.30995 2.74526L3.6125 2.65376C3.60732 2.63661 3.60859 2.61817 3.61608 2.6019L3.32893 2.46976ZM3.30994 2.74524C3.32087 2.78138 3.5084 3.38772 4.00933 3.90769L4.23697 3.68839C3.78778 3.22213 3.61826 2.67278 3.61251 2.65378L3.30994 2.74524ZM4.0246 3.67448C3.48506 4.10482 3.03542 4.6338 2.71486 5.21929L2.99211 5.37109C3.29165 4.82399 3.71346 4.32697 4.2217 3.9216L4.0246 3.67448ZM2.71482 5.21936C2.33043 5.92221 2.13492 6.68117 2.13492 7.47362H2.45101C2.45101 6.73489 2.63284 6.028 2.99214 5.37103L2.71482 5.21936ZM2.13492 7.47362C2.13492 8.82568 2.712 10.0934 3.75395 11.0424L3.96679 10.8087C2.9871 9.91643 2.45101 8.73209 2.45101 7.47362H2.13492ZM3.75394 11.0424C4.78924 11.9856 6.16211 12.503 7.61797 12.503V12.1869C6.23708 12.1869 4.94116 11.6964 3.96681 10.8087L3.75394 11.0424ZM7.61797 12.503C9.07382 12.503 10.4467 11.9856 11.482 11.0424L11.2691 10.8087C10.2948 11.6964 8.99886 12.1869 7.61797 12.1869V12.503ZM11.482 11.0424C12.5239 10.0934 13.101 8.82568 13.101 7.47362H12.7849C12.7849 8.73209 12.2488 9.91643 11.2691 10.8087L11.482 11.0424ZM13.101 7.47362C13.101 6.65272 12.8807 5.83885 12.4646 5.11931L12.191 5.27754C12.5797 5.94973 12.7849 6.70913 12.7849 7.47362H13.101ZM5.12716 3.25569C5.7241 2.98874 6.38025 3.03427 6.64949 3.07012L6.69121 2.7568C6.40336 2.71847 5.67598 2.664 4.99812 2.96714L5.12716 3.25569ZM6.52551 2.9767L6.55047 3.03386L6.84015 2.90737L6.81519 2.85022L6.52551 2.9767ZM6.53726 2.97062V2.97108H6.85335V2.97062H6.53726ZM6.55045 3.03428L6.80702 3.62231L7.09674 3.49591L6.84016 2.90788L6.55045 3.03428ZM6.80707 3.62243C6.89267 3.8182 7.11987 3.90878 7.31667 3.82487L7.1927 3.53411C7.1558 3.54984 7.11296 3.53301 7.09669 3.49579L6.80707 3.62243ZM7.31635 3.82501C7.51317 3.74161 7.60591 3.51517 7.52417 3.31764L7.2321 3.43851C7.2475 3.47573 7.23004 3.51829 7.19303 3.53397L7.31635 3.82501ZM7.52418 3.31766C7.45965 3.16169 7.34743 2.90616 7.26545 2.72083L6.97638 2.84871C7.05864 3.03465 7.16928 3.28666 7.23209 3.4385L7.52418 3.31766ZM7.26541 2.72076C7.23504 2.65219 7.21034 2.59642 7.19675 2.56646L6.90889 2.69703C6.92174 2.72536 6.94567 2.77938 6.97641 2.84878L7.26541 2.72076ZM7.19825 2.56986C7.19474 2.56162 7.19081 2.55357 7.18648 2.54574L6.90991 2.69878C6.90898 2.69711 6.90815 2.69539 6.9074 2.69363L7.19825 2.56986ZM7.19638 2.5673C7.19123 2.55343 7.18528 2.53987 7.17855 2.5267L6.89704 2.67045C6.89816 2.67264 6.89915 2.6749 6.90001 2.67721L7.19638 2.5673ZM7.17832 2.52625C6.93914 2.06154 6.73569 1.70197 6.57439 1.46067L6.3116 1.63632C6.46286 1.8626 6.65985 2.20961 6.89727 2.6709L7.17832 2.52625ZM6.57438 1.46065C6.51501 1.37186 6.48341 1.27567 6.47249 1.195C6.46704 1.15474 6.46713 1.12118 6.47006 1.09673C6.47331 1.06958 6.47871 1.06415 6.47438 1.07075L6.2101 0.897356C6.17719 0.947506 6.16247 1.00683 6.15621 1.05919C6.14962 1.11427 6.15082 1.17501 6.15926 1.2374C6.17613 1.36203 6.22348 1.50452 6.31161 1.63634L6.57438 1.46065ZM6.47366 1.07184C6.47539 1.06926 6.46957 1.07858 6.4597 1.08786C6.449 1.09792 6.43713 1.10499 6.42601 1.10913C6.40652 1.11637 6.40331 1.10952 6.43716 1.11573L6.49421 0.80483C6.43193 0.793402 6.37108 0.792335 6.31592 0.812828C6.2515 0.836764 6.22144 0.880368 6.21082 0.896266L6.47366 1.07184ZM6.43694 1.11569C6.46763 1.12136 6.5332 1.155 6.63055 1.25024C6.72273 1.34043 6.82661 1.46907 6.93514 1.6295C7.15185 1.94984 7.37709 2.382 7.5566 2.84785L7.85155 2.73419C7.66458 2.24899 7.42875 1.79504 7.19695 1.45239C7.08123 1.28133 6.96399 1.13426 6.85159 1.0243C6.74436 0.919391 6.62187 0.828444 6.49443 0.804871L6.43694 1.11569ZM7.5566 2.84785C7.5849 2.92129 7.63477 2.98443 7.69966 3.02897L7.87854 2.76837C7.86629 2.75996 7.85688 2.74805 7.85155 2.73419L7.5566 2.84785ZM7.69966 3.02897C7.76455 3.07351 7.84141 3.09735 7.92011 3.09736L7.92015 2.78127C7.90529 2.78127 7.89078 2.77677 7.87854 2.76837L7.69966 3.02897ZM7.92013 3.09736H8.23331V2.78127H7.92013V3.09736ZM8.23331 3.09736C8.26113 3.09736 8.2882 3.09429 8.31369 3.08904L8.24988 2.77946C8.2437 2.78073 8.23804 2.78127 8.23331 2.78127V3.09736ZM8.31203 3.08937C8.31204 3.08937 8.53696 3.04301 8.86078 3.04301V2.72692C8.68426 2.72692 8.53429 2.73953 8.42737 2.75234C8.37385 2.75876 8.33096 2.76524 8.30074 2.77026C8.28563 2.77277 8.27368 2.77491 8.26516 2.7765C8.25675 2.77807 8.25105 2.77922 8.25154 2.77912L8.31203 3.08937ZM8.86078 3.04301C9.1772 3.04301 9.57914 3.08735 9.95548 3.25568L10.0845 2.96714C9.65328 2.77424 9.20271 2.72692 8.86078 2.72692V3.04301ZM9.95554 3.25571C10.2523 3.38827 10.5144 3.42917 10.7391 3.41567L10.7201 3.10015C10.5503 3.11035 10.3387 3.08069 10.0845 2.96712L9.95554 3.25571ZM10.6161 3.1479C10.5397 3.22671 10.4521 3.30313 10.3522 3.37137L10.5305 3.63239C10.6501 3.55068 10.7538 3.46 10.843 3.36792L10.6161 3.1479ZM10.3522 3.37139C9.92059 3.66631 9.37029 3.7336 8.6957 3.5427L8.60963 3.84684C9.34861 4.05597 10.0019 3.99362 10.5305 3.63237L10.3522 3.37139ZM8.69579 3.54272C8.62456 3.52252 8.54904 3.52304 8.47809 3.54422L8.56853 3.8471C8.58189 3.84311 8.59612 3.84301 8.60953 3.84681L8.69579 3.54272ZM8.47809 3.54422C8.40714 3.56541 8.3437 3.60638 8.29522 3.66234L8.5341 3.86934C8.54323 3.8588 8.55517 3.85109 8.56853 3.8471L8.47809 3.54422ZM8.29508 3.6625C8.24673 3.71844 8.21527 3.78697 8.20437 3.86011L8.517 3.90672C8.51907 3.89283 8.52505 3.87981 8.53423 3.86918L8.29508 3.6625ZM8.20437 3.86011C8.19346 3.93324 8.20356 4.00797 8.23349 4.07558L8.52253 3.94766C8.51685 3.93481 8.51493 3.92062 8.517 3.90672L8.20437 3.86011ZM8.23375 4.07617C8.28383 4.1881 8.3728 4.27289 8.46278 4.36185L8.68501 4.13707C8.58144 4.03468 8.54308 3.99359 8.52227 3.94707L8.23375 4.07617ZM8.46293 4.362C8.63834 4.53497 8.90587 4.80109 9.04404 5.24173L9.34564 5.14716C9.18251 4.62689 8.8647 4.31426 8.68487 4.13693L8.46293 4.362ZM9.25654 5.04894C8.99637 4.93862 8.75113 4.92464 8.59294 4.91488L8.57347 5.23037C8.73201 5.24015 8.92795 5.25294 9.13314 5.33995L9.25654 5.04894ZM8.59283 4.91488C8.5544 4.91253 8.51916 4.91033 8.48959 4.90738C8.47494 4.90592 8.46351 4.90445 8.45508 4.90304C8.44541 4.90141 8.44487 4.90069 8.44944 4.90233L8.34274 5.19987C8.38025 5.21332 8.42652 5.21875 8.45826 5.22192C8.49498 5.22557 8.53651 5.22812 8.57358 5.23038L8.59283 4.91488ZM8.44789 4.90178L8.4252 4.89391L8.3216 5.19254L8.34429 5.20041L8.44789 4.90178ZM8.42602 4.8942C8.17438 4.80534 8.04594 4.7259 7.98287 4.66986C7.92291 4.61659 7.93183 4.59417 7.93183 4.60847H7.61574C7.61574 4.70613 7.66353 4.80896 7.77292 4.90615C7.8792 5.00058 8.05057 5.09684 8.32078 5.19225L8.42602 4.8942ZM7.93183 4.60847C7.93183 4.39155 7.7534 4.21893 7.54018 4.21893V4.53502C7.58255 4.53502 7.61574 4.56982 7.61574 4.60847H7.93183ZM7.54018 4.21893C7.32511 4.21893 7.15061 4.39339 7.15061 4.60847H7.4667C7.4667 4.56799 7.49965 4.53502 7.54018 4.53502V4.21893ZM7.15061 4.60847C7.15061 4.59582 7.15466 4.59575 7.14553 4.61185C7.13708 4.62675 7.12182 4.64756 7.09754 4.67369C7.04899 4.72598 6.97769 4.78544 6.89392 4.84521C6.72489 4.96582 6.53168 5.06906 6.43016 5.10526L6.53631 5.40299C6.67418 5.35383 6.89369 5.23368 7.07751 5.10251C7.17017 5.0364 7.26035 4.96288 7.32915 4.8888C7.36356 4.85175 7.39595 4.81103 7.42048 4.76777C7.44434 4.72571 7.4667 4.67084 7.4667 4.60847H7.15061ZM6.42897 5.10569C6.40456 5.11461 6.37956 5.12255 6.3471 5.13328L6.44628 5.4334C6.47407 5.42422 6.50695 5.41373 6.5375 5.40256L6.42897 5.10569ZM6.34791 5.13301C6.21234 5.177 6.03455 5.23413 5.82784 5.36645L5.99825 5.63267C6.16845 5.52372 6.31294 5.47667 6.44547 5.43367L6.34791 5.13301ZM6.06297 5.54954C6.21379 5.09716 6.47981 4.78348 6.65464 4.5787L6.41425 4.37346C6.23763 4.58033 5.93494 4.93415 5.76311 5.44957L6.06297 5.54954ZM6.65488 4.57842C6.73282 4.4867 6.80689 4.40225 6.8486 4.30924L6.56017 4.17992C6.54121 4.2222 6.50407 4.26776 6.41401 4.37374L6.65488 4.57842ZM6.84892 4.30851C6.90986 4.17074 6.8864 4.00953 6.7872 3.89515L6.54841 4.10225C6.56682 4.12349 6.57161 4.15406 6.55985 4.18065L6.84892 4.30851ZM6.78708 3.89502C6.73854 3.83918 6.67512 3.79829 6.60422 3.77714L6.51384 4.08003C6.52729 4.08405 6.53932 4.0918 6.54853 4.10239L6.78708 3.89502ZM6.60422 3.77714C6.53332 3.75599 6.45786 3.75543 6.38666 3.77554L6.47257 4.07973C6.48608 4.07591 6.50039 4.07602 6.51384 4.08003L6.60422 3.77714ZM6.38656 3.77557C5.71334 3.96616 5.16422 3.87012 4.73008 3.51486L4.52991 3.75948C5.05983 4.19313 5.72147 4.29237 6.47267 4.0797L6.38656 3.77557ZM4.63 3.47913H4.62972V3.79522H4.63V3.47913ZM4.72994 3.51497C4.59635 3.4054 4.48516 3.28141 4.3934 3.15757L4.13943 3.34574C4.24358 3.48632 4.3722 3.63036 4.52949 3.75937L4.72994 3.51497ZM4.24522 3.40827C4.49486 3.44206 4.7891 3.40681 5.12714 3.2557L4.99814 2.96713C4.7075 3.09706 4.47244 3.12005 4.28761 3.09504L4.24522 3.40827ZM4.99814 2.96713C4.95883 2.9847 4.93936 2.99341 4.93409 2.99576C4.93342 2.99606 4.93303 2.99623 4.93287 2.9963C4.93283 2.99632 4.93284 2.99632 4.93288 2.9963C4.93291 2.99629 4.93301 2.99624 4.93308 2.99621C4.93322 2.99615 4.93388 2.99586 4.9344 2.99563C5.13958 3.07255 5.06681 3.28255 5.06287 3.28442C5.06256 3.28456 5.06215 3.28475 5.06204 3.28479C5.06191 3.28485 5.06183 3.28489 5.06186 3.28487C5.06211 3.28476 5.06316 3.28429 5.06509 3.28343C5.06883 3.28176 5.07542 3.27881 5.08419 3.27488C5.11925 3.25921 5.18882 3.22809 5.24831 3.2015C5.27805 3.1882 5.30527 3.17603 5.32438 3.16748C5.33394 3.16321 5.34147 3.15984 5.34627 3.1577C5.34868 3.15662 5.35039 3.15586 5.35133 3.15544C5.35189 3.15519 5.352 3.15514 5.35191 3.15518C5.35185 3.15521 5.3516 3.15531 5.35143 3.15539C5.35 3.15601 5.14299 3.07417 5.22173 2.86715C5.22217 2.86695 5.22271 2.8667 5.22282 2.86665C5.22286 2.86663 5.22293 2.8666 5.22295 2.86659C5.22297 2.86658 5.22292 2.8666 5.22275 2.86668C5.21748 2.86904 5.15752 2.89586 4.99812 2.96714L5.12716 3.25569C5.28647 3.18445 5.34657 3.15757 5.35195 3.15516C5.35211 3.15509 5.35229 3.15501 5.35243 3.15495C5.35248 3.15492 5.35257 3.15488 5.35263 3.15485C5.35276 3.1548 5.35331 3.15455 5.35375 3.15435C5.4325 2.94732 5.22549 2.86548 5.22405 2.8661C5.22387 2.86618 5.22361 2.8663 5.22353 2.86633C5.22327 2.86645 5.22281 2.86666 5.22241 2.86683C5.22143 2.86727 5.21969 2.86805 5.21729 2.86912C5.21247 2.87128 5.20493 2.87465 5.19537 2.87892C5.17625 2.88747 5.14903 2.89964 5.11929 2.91294C5.0598 2.93954 4.99021 2.97065 4.95514 2.98634C4.94638 2.99026 4.93976 2.99322 4.93599 2.99491C4.93416 2.99572 4.93288 2.9963 4.9324 2.99651C4.93235 2.99653 4.9322 2.9966 4.93203 2.99668C4.93191 2.99674 4.93147 2.99693 4.93116 2.99708C4.92722 2.99895 4.85444 3.20895 5.05963 3.28586C5.06015 3.28563 5.06082 3.28534 5.06099 3.28527C5.06107 3.28523 5.06119 3.28517 5.06125 3.28515C5.06136 3.2851 5.06146 3.28505 5.06153 3.28502C5.06183 3.28489 5.06233 3.28467 5.06298 3.28438C5.06832 3.28199 5.08786 3.27326 5.12714 3.2557L4.99814 2.96713ZM7.61797 11.7239C5.00954 11.7239 2.91406 9.80296 2.91406 7.47362H2.59797C2.59797 10.006 4.86482 12.04 7.61797 12.04V11.7239ZM2.91406 7.47362C2.91406 6.21762 3.51502 5.04383 4.57783 4.23047L4.38572 3.97945C3.25047 4.84826 2.59797 6.11225 2.59797 7.47362H2.91406ZM4.39192 4.23498C4.74157 4.47663 5.15032 4.61482 5.57177 4.64344L5.59318 4.32807C5.22639 4.30317 4.87274 4.18305 4.57163 3.97495L4.39192 4.23498ZM5.57184 4.64344C5.69618 4.65183 5.82063 4.65111 5.94395 4.64249L5.92191 4.32717C5.81209 4.33485 5.70214 4.33542 5.59311 4.32807L5.57184 4.64344ZM5.80568 4.3911C5.53374 4.76029 5.21223 5.32805 5.17411 6.10601L5.48982 6.12148C5.52385 5.42707 5.8099 4.91836 6.06018 4.57856L5.80568 4.3911ZM5.17411 6.10604C5.17154 6.15873 5.1797 6.2114 5.19809 6.26085L5.49435 6.15065C5.49088 6.14132 5.48934 6.13139 5.48983 6.12146L5.17411 6.10604ZM5.19809 6.26085C5.21648 6.3103 5.24473 6.35549 5.28111 6.39369L5.51 6.1757C5.50314 6.16849 5.49781 6.15997 5.49435 6.15065L5.19809 6.26085ZM5.28111 6.39369C5.3175 6.4319 5.36126 6.46231 5.40976 6.48309L5.53426 6.19256C5.52512 6.18864 5.51686 6.1829 5.51 6.1757L5.28111 6.39369ZM5.40976 6.48309C5.45825 6.50387 5.51045 6.51459 5.56321 6.51459L5.56321 6.1985C5.55326 6.1985 5.54341 6.19648 5.53426 6.19256L5.40976 6.48309ZM5.56321 6.51459C5.6259 6.51459 5.68793 6.49964 5.74404 6.47021L5.59724 6.19028C5.58713 6.19558 5.57558 6.1985 5.56321 6.1985V6.51459ZM5.74546 6.46946C5.75862 6.46239 5.77053 6.45475 5.77612 6.45124L5.60771 6.18374C5.59955 6.18889 5.59748 6.19014 5.59582 6.19103L5.74546 6.46946ZM5.78081 6.44817C5.80994 6.42835 5.83632 6.40478 5.85927 6.37805L5.61948 6.17211C5.61467 6.17771 5.60914 6.18266 5.60303 6.18681L5.78081 6.44817ZM5.85968 6.37758C6.02253 6.18644 6.1565 6.07797 6.26976 6.00954C6.38314 5.94103 6.48194 5.90854 6.5885 5.87399L6.491 5.57331C6.3834 5.60821 6.25371 5.64992 6.10629 5.739C5.95875 5.82816 5.79962 5.96068 5.61908 6.17258L5.85968 6.37758ZM6.58856 5.87397C6.62315 5.86274 6.65701 5.85159 6.69178 5.83935L6.58687 5.54118C6.55584 5.5521 6.52493 5.56229 6.49093 5.57333L6.58856 5.87397ZM6.69539 5.83804C6.70587 5.83406 6.85569 5.77347 7.0458 5.66819C7.23456 5.56366 7.47458 5.40881 7.65573 5.21374L7.42411 4.99865C7.27634 5.15777 7.07 5.29347 6.89266 5.39167C6.71667 5.48914 6.58065 5.54349 6.58327 5.5425L6.69539 5.83804ZM7.43047 5.22021C7.67876 5.45855 8.02973 5.58053 8.16658 5.62886L8.27184 5.33081C8.12813 5.28006 7.84153 5.17665 7.64937 4.99218L7.43047 5.22021ZM8.16637 5.62879L8.18725 5.63619L8.29293 5.33829L8.27204 5.33088L8.16637 5.62879ZM8.18709 5.63613C8.30758 5.67903 8.43738 5.68582 8.54498 5.69247L8.56448 5.37698C8.44653 5.36969 8.36379 5.36352 8.29309 5.33835L8.18709 5.63613ZM8.54505 5.69247C8.79029 5.70751 9.01173 5.72355 9.22275 5.97126L9.46337 5.76629C9.16087 5.41118 8.81731 5.39249 8.56441 5.37698L8.54505 5.69247ZM9.22262 5.97111C9.27531 6.03312 9.3461 6.07707 9.42504 6.09678L9.50162 5.79011C9.48675 5.7864 9.47342 5.77812 9.4635 5.76644L9.22262 5.97111ZM9.42504 6.09678C9.50398 6.1165 9.58712 6.11099 9.66278 6.08103L9.5464 5.78714C9.53215 5.79279 9.51649 5.79382 9.50162 5.79011L9.42504 6.09678ZM9.66278 6.08103C9.73843 6.05107 9.8028 5.99817 9.84685 5.92975L9.58107 5.75866C9.57278 5.77154 9.56065 5.7815 9.5464 5.78714L9.66278 6.08103ZM9.84685 5.92975C9.89089 5.86133 9.9124 5.78084 9.90834 5.69956L9.59264 5.71533C9.59341 5.73062 9.58936 5.74578 9.58107 5.75866L9.84685 5.92975ZM9.90835 5.69973C9.87355 4.98785 9.59922 4.49508 9.33969 4.16705L9.0918 4.36317C9.32064 4.65242 9.56178 5.08383 9.59264 5.71516L9.90835 5.69973ZM9.20469 4.42277C9.59064 4.44984 9.98804 4.40206 10.3549 4.25068L10.2343 3.9585C9.9201 4.08816 9.57283 4.13173 9.22681 4.10746L9.20469 4.42277ZM10.3548 4.2507C10.455 4.20939 10.5536 4.16137 10.6484 4.10541L10.4877 3.83319C10.4073 3.88067 10.3223 3.92219 10.2343 3.95849L10.3548 4.2507ZM10.478 4.09914C11.0226 4.4771 11.4742 4.9626 11.7903 5.50922L12.0639 5.35099C11.7234 4.76216 11.2391 4.24264 10.6582 3.83946L10.478 4.09914ZM11.7903 5.5092C12.1382 6.11109 12.3219 6.79038 12.3219 7.47355H12.638C12.638 6.73388 12.4391 6.00015 12.0639 5.35102L11.7903 5.5092ZM12.3219 7.47355C12.3219 9.80293 10.2264 11.7239 7.61797 11.7239V12.04C10.3711 12.04 12.638 10.0059 12.638 7.47355H12.3219Z" fill="#52006A" mask="url(#path-4-outside-1_2994_15518)"/>
<path d="M3.22567 7.4735C3.22567 9.69793 5.19949 11.4959 7.61099 11.4959C7.7825 11.4959 7.92154 11.3569 7.92154 11.1854C7.92154 11.0139 7.7825 10.8748 7.61099 10.8748C5.52794 10.8748 3.84675 9.34177 3.84675 7.4735C3.84675 7.302 3.70771 7.16298 3.53621 7.16298C3.3647 7.16298 3.22567 7.302 3.22567 7.4735ZM8.25728 11.0836C8.25728 11.2552 8.39646 11.3942 8.56792 11.3942C8.73943 11.3942 8.87847 11.2551 8.87847 11.0836C8.87847 10.9121 8.73942 10.7731 8.56792 10.7731H8.56764C8.39617 10.7731 8.25728 10.9122 8.25728 11.0836Z" fill="#52006A" stroke="#52006A" stroke-width="0.158044"/>
<path d="M8.57351 20.4688L8.57338 20.4687C8.44697 20.3426 8.24234 20.3426 8.11593 20.4687L8.11579 20.4689C7.98971 20.5953 7.98971 20.7999 8.11579 20.9263L8.11593 20.9264C8.24234 21.0525 8.44697 21.0525 8.57338 20.9264L8.57351 20.9263C8.6996 20.7999 8.69961 20.5952 8.57351 20.4688ZM5.42723 23.6151L5.42709 23.615C5.30068 23.4889 5.09606 23.4889 4.96965 23.615L4.96951 23.6151C4.84342 23.7415 4.84342 23.9461 4.96951 24.0725L4.96965 24.0727C5.09606 24.1988 5.30068 24.1988 5.42709 24.0727L5.42723 24.0725C5.55332 23.9461 5.55332 23.7415 5.42723 23.6151Z" fill="#52006A" stroke="#52006A" stroke-width="0.152453"/>
<path d="M2.20417 24.8468L2.13847 24.8081C2.85318 23.5933 3.88994 22.1009 4.83429 20.7415C5.18761 20.2329 5.528 19.7429 5.83374 19.293C6.18088 18.7822 6.5881 18.361 7.05971 18.1269C7.51263 17.902 8.02045 17.852 8.58011 18.0533C8.59282 18.003 8.60575 17.9522 8.61879 17.9009C8.67945 17.6623 8.74246 17.4145 8.79562 17.1753C8.86667 16.8557 8.91871 16.5575 8.92419 16.3237C8.92419 16.3237 8.92419 16.3237 8.92419 16.3237L9.00039 16.3255L2.20417 24.8468ZM2.20417 24.8468L2.13847 24.8081C1.68069 25.5862 1.39047 26.1876 1.26305 26.6448C1.13622 27.0998 1.16454 27.4362 1.38273 27.6544L1.38273 27.6544C1.51065 27.7823 1.68446 27.8396 1.88803 27.8434C2.09048 27.8471 2.32756 27.7983 2.59195 27.7089C3.12086 27.5301 3.7777 27.1824 4.52029 26.73C5.54454 26.106 6.74227 25.276 8.00641 24.4001C8.57549 24.0057 9.15802 23.6021 9.74424 23.2037C10.2553 22.8564 10.6765 22.449 10.9106 21.9774C11.1354 21.5244 11.1854 21.0166 10.9842 20.4571C11.0318 20.445 11.0798 20.4329 11.1279 20.4207C11.3781 20.3573 11.6329 20.2927 11.8758 20.239C12.1932 20.1687 12.4847 20.1184 12.7135 20.113C13.7314 20.0894 14.3422 18.9554 13.7948 18.1026C13.6425 17.865 13.4295 17.6882 13.1833 17.5869C13.3954 17.11 13.3108 16.5246 12.9117 16.1255L12.8578 16.1794L12.9117 16.1255C12.5172 15.731 11.9323 15.6408 11.4506 15.8544C11.3493 15.608 11.1725 15.3949 10.9348 15.2426L2.20417 24.8468ZM7.46579 20.1731L6.6168 19.3243L7.46579 20.1731ZM7.46579 20.1731C7.56234 20.2696 7.71881 20.2697 7.8154 20.1731L7.46579 20.1731ZM11.3949 16.7429L11.3952 16.7424L11.3975 16.7382L11.3979 16.7375C11.6115 16.3433 12.1421 16.2707 12.4543 16.5829L12.5082 16.529L12.4543 16.5829C12.7682 16.8968 12.6919 17.4271 12.2998 17.6392L12.299 17.6397L12.2949 17.642L12.2943 17.6423L10.2171 18.8201L11.3949 16.7429ZM9.57086 16.3388L9.57086 16.3388C9.58299 15.8177 10.1644 15.5167 10.5856 15.787L10.5856 15.7871C10.7749 15.9084 10.8874 16.1009 10.8998 16.3138C10.877 16.346 10.86 16.3742 10.7266 16.6094C10.6841 16.6844 10.6297 16.7806 10.5594 16.9048C10.3705 17.2386 10.067 17.7748 9.57204 18.6465C9.43699 18.5348 9.30417 18.4369 9.1722 18.3517C9.19199 18.273 9.21169 18.1952 9.23112 18.1185C9.40615 17.4276 9.55955 16.8221 9.57086 16.3388ZM9.38072 22.6687L9.3807 22.6688C9.2399 22.7645 9.09936 22.8606 8.95908 22.9571L8.21883 22.2169L8.21882 22.2169C8.0925 22.0906 7.88778 22.0906 7.76144 22.2169L7.76142 22.2169C7.63512 22.3432 7.63513 22.548 7.76141 22.6743L7.76142 22.6743L8.41804 23.3309C8.25217 23.4459 8.08536 23.5618 7.91761 23.6783C7.44552 24.0063 6.966 24.3394 6.47915 24.6721L6.1214 24.3143C5.99509 24.188 5.79037 24.1881 5.66401 24.3143L5.66399 24.3143C5.53769 24.4406 5.53769 24.6454 5.66399 24.7717L5.93421 25.042C5.48983 25.3414 4.87125 25.7537 4.23984 26.1385C3.56978 26.5469 2.8907 26.9209 2.39147 27.0979C2.01058 27.233 1.87504 27.2064 1.8422 27.1951C1.83079 27.1622 1.80425 27.0267 1.93931 26.6458L1.86747 26.6203L1.93931 26.6458C2.07089 26.2747 2.32466 25.7673 2.69603 25.1361L2.63033 25.0974L2.69603 25.1361C2.8396 24.892 2.99728 24.6354 3.16505 24.3702L3.56648 24.7716L3.56649 24.7716C3.69282 24.8979 3.89753 24.8979 4.02388 24.7716L4.02389 24.7716C4.15019 24.6453 4.15019 24.4405 4.02389 24.3142L3.52338 23.8138C3.94098 23.1753 4.39842 22.5065 4.84737 21.8575L5.66391 22.6742L5.66392 22.6742C5.79017 22.8004 5.99495 22.8006 6.12132 22.6742C6.24762 22.5479 6.24765 22.3432 6.12139 22.2169L6.12138 22.2168L5.22199 21.3173C5.26331 21.2578 5.30481 21.198 5.34641 21.1382C5.69616 20.6348 6.05324 20.1209 6.36878 19.6566L6.30574 19.6137L6.36878 19.6566C6.43612 19.5575 6.50273 19.4669 6.56858 19.3839L7.41189 20.227L7.4119 20.227C7.53822 20.3533 7.74294 20.3533 7.86929 20.227L7.86931 20.227C7.99558 20.1007 7.99554 19.8959 7.86925 19.7696L7.86924 19.7696L7.01852 18.9191C7.43997 18.5785 7.84884 18.5135 8.25104 18.6243C8.68025 18.7425 9.11064 19.0635 9.54221 19.4951L9.54221 19.4951C10.1872 20.1399 10.485 20.6973 10.4615 21.202C10.438 21.7038 10.0949 22.1834 9.38072 22.6687ZM12.6984 19.4664L12.6984 19.4664C12.2055 19.478 11.565 19.6412 10.9272 19.8037C10.8465 19.8243 10.7659 19.8448 10.6856 19.865C10.6003 19.7329 10.5023 19.6001 10.3908 19.4652C11.261 18.9711 11.7972 18.6676 12.1313 18.4785C12.258 18.4068 12.3557 18.3515 12.4315 18.3085C12.6651 18.176 12.6923 18.1597 12.7235 18.1375C12.9364 18.1498 13.1288 18.2623 13.2503 18.4518L13.2503 18.4518C13.5217 18.8745 13.2185 19.4543 12.6984 19.4664Z" fill="#52006A" stroke="#52006A" stroke-width="0.152453"/>
</svg>
