<svg width="189" height="83" viewBox="0 0 189 83" fill="none" xmlns="http://www.w3.org/2000/svg">
<path d="M159.53 37.9061L157.333 34.0126L156.661 32.8207C157.048 32.3638 157.373 31.8871 157.699 31.3904C158.574 29.9602 159.103 28.371 159.266 26.6824C159.428 24.9542 159.205 23.1862 158.594 21.5573C157.964 19.8886 156.967 18.3789 155.685 17.2267C153.264 15.0217 150.314 13.9093 146.916 13.9093C146.895 13.9093 146.855 13.9093 146.834 13.9093L121.118 13.8894C119.368 13.8894 117.842 14.9224 117.171 16.3924C116.906 16.2136 116.642 16.0348 116.357 15.856C113.752 14.247 110.884 13.4325 107.852 13.4325C106.916 13.4325 105.96 13.512 105.004 13.6709C102.176 14.1278 99.714 15.1806 97.6591 16.8095C97.0691 15.1607 95.4618 13.9887 93.59 13.9887H87.9543C86.2656 13.9887 84.8007 14.9422 84.0886 16.3328L83.6613 15.7567C82.8475 14.6443 81.5454 13.9688 80.1212 13.9688L66.5507 13.9093C65.3299 13.9093 64.2313 14.4059 63.4378 15.2005C62.6443 14.4059 61.5457 13.9093 60.3249 13.9093L45.5133 13.9887C44.2926 13.9887 43.1939 14.4853 42.4208 15.2601C41.6273 14.4655 40.5286 13.9688 39.3079 13.9688H33.7129C31.3324 13.9688 29.3996 15.856 29.3996 18.1802V39.9125C29.3996 41.5414 30.3355 42.9518 31.719 43.6471C30.5186 45.3952 29.6234 47.8585 30.0303 51.1958C30.2541 53.0035 30.9459 54.6324 32.0649 56.023C31.8411 56.1422 31.6173 56.2812 31.3935 56.4004C31.3731 56.4004 31.3528 56.4203 31.3528 56.4203L31.1697 56.5196C29.2979 57.5725 28.5044 59.7973 29.3182 61.764L29.4403 62.0818C29.4403 62.1017 29.4403 62.1017 29.4606 62.1215C30.661 64.9424 32.7159 67.1077 35.4219 68.3393C37.6396 69.3723 39.959 69.8888 42.2987 69.8888C44.374 69.8888 46.4492 69.4915 48.4838 68.677C49.9487 68.1009 51.2101 67.2666 52.2477 66.2137C52.6343 65.8164 52.9802 65.3993 53.3057 64.9424V65.1212C53.3057 67.4454 55.2385 69.3325 57.619 69.3325H72.2475C74.1599 69.3325 75.8486 68.379 76.398 66.5713L76.5811 65.7171L77.4152 65.5383L77.8018 66.7104C78.3918 68.4386 80.0398 69.3524 81.9116 69.3524H96.886C98.5543 69.3524 100.019 68.4187 100.731 67.0679C101.443 68.4386 102.908 69.3723 104.577 69.3723H110.192C112.145 69.3723 113.773 68.1208 114.322 66.3925C115.441 67.2864 116.682 68.0214 118.025 68.5777C119.999 69.412 122.074 69.849 124.19 69.8689C124.251 69.8689 124.312 69.8689 124.373 69.8689C126.53 69.8689 128.605 69.4517 130.578 68.6571C131.758 68.1804 132.857 67.5646 133.895 66.8097C134.118 67.3063 134.424 67.7632 134.81 68.1406C135.624 68.9352 136.723 69.3723 137.862 69.3723H143.559C145.268 69.3723 146.733 68.4187 147.424 67.0282L147.811 67.5646C148.625 68.6969 149.947 69.3723 151.351 69.3723H155.705C158.086 69.3723 160.018 67.4851 160.018 65.1609V43.3491C160.018 42.7532 159.896 42.197 159.673 41.6805C160.222 40.4886 160.181 39.0782 159.53 37.9061Z" fill="white"/>
<path d="M113.449 39.0827C116.105 37.7618 117.815 35.5536 118.64 32.6436C119.163 30.7862 119.103 28.8875 118.781 27.0094C118.681 26.3903 118.58 25.7918 118.479 25.152L107.574 27.0094L108.359 31.9213C110.129 31.6117 111.84 31.3228 113.61 31.0338C113.268 32.4579 112.504 33.4691 111.296 34.1089C110.029 34.7693 108.661 35.017 107.232 34.9344C106.085 34.8725 105.019 34.4804 104.134 33.7168C102.081 31.9006 101.417 29.5685 102.041 26.9475C102.886 23.2946 106.246 22.1389 108.983 22.5516C110.109 22.7167 111.115 23.212 111.92 24.0995C113.329 22.9025 114.737 21.7261 116.165 20.5291C115.522 19.7861 114.838 19.167 114.053 18.6717C111.518 17.0206 108.761 16.5047 105.804 17C103.288 17.4334 101.075 18.5272 99.3449 20.4878C96.7695 23.3978 95.7836 26.8031 96.4274 30.683C97.1719 35.1202 99.6064 38.2365 103.711 39.805C106.991 41.0433 110.31 40.6305 113.449 39.0827Z" fill="#602F17"/>
<path d="M124.23 42.79C117.73 42.7507 112.108 47.6682 112.192 54.061C112.087 60.5129 117.709 65.3124 123.979 65.3714C130.646 65.4501 136.038 60.3948 136.121 54.2381C136.205 47.8059 130.687 42.8294 124.23 42.79ZM124.167 59.9621C120.614 59.9818 118.023 57.523 118.002 54.1397C117.981 50.7171 120.551 48.2387 124.146 48.219C127.699 48.219 130.29 50.6581 130.311 54.061C130.332 57.464 127.741 59.9424 124.167 59.9621Z" fill="#602F17"/>
<path d="M81.5385 39.3829V28.6172L89.5131 39.3829H93.9572V17.9685H88.2047V28.5977L80.2301 17.949H75.7236C75.7236 17.949 75.7236 32.4788 75.7236 39.4024H81.5385V39.3829Z" fill="#602F17"/>
<path d="M143.831 32.8043L145.877 32.5115L149.595 39.4024C149.595 39.4024 155.358 39.4024 155.496 39.4024C154.021 36.7475 152.545 34.1122 151.09 31.4769C151.208 31.3988 151.306 31.3403 151.404 31.2817C155.83 28.4902 155.496 22.7901 152.565 20.0963C150.952 18.5932 149.044 17.949 146.86 17.949H138.402V39.3828H143.831V32.8043ZM143.87 23.0049H146.9C148.08 23.0049 148.926 23.6686 149.182 24.7227C149.477 25.9915 149.024 27.1628 147.923 27.6313C147.411 27.846 146.821 27.9241 146.251 28.0217C145.503 28.1388 144.736 28.2169 143.87 28.3145V23.0049Z" fill="#602F17"/>
<path d="M46.2871 17.949V25.994L40.2034 27.0706V17.949H34.6982V39.4024H40.2034V31.9837L46.2871 30.9071V39.4024H51.7923L51.7723 17.949H46.2871Z" fill="#602F17"/>
<path d="M73.7097 42.7898L66.6069 65.3723H72.7789L74.0537 61.0264L80.5899 59.8485L82.3909 65.3723H88.2593L80.8935 42.7898H73.7097ZM75.6321 55.6245L77.4129 49.4711L79.0722 55.0355C77.939 55.2386 76.8261 55.4214 75.6321 55.6245Z" fill="#602F17"/>
<path d="M55.2953 34.0815C55.6913 36.827 57.2755 38.6908 59.7507 39.7529C61.7902 40.6347 63.909 40.6948 66.0476 40.294C67.1169 40.0936 68.107 39.6928 69.0179 39.0916C71.2951 37.5886 72.3049 35.4042 72.3049 32.6987V17.969H66.7803V32.1175C66.7803 32.3781 66.7605 32.6386 66.7407 32.8991C66.6021 33.9412 66.0278 34.6226 65.0179 34.8831C64.1863 35.1036 63.3546 35.1036 62.5427 34.8831C61.5328 34.6226 60.9586 33.9412 60.8002 32.9192C60.7606 32.6386 60.7408 32.358 60.7408 32.0775V17.949H55.2161V32.7588C55.1963 33.1997 55.2359 33.6607 55.2953 34.0815Z" fill="#602F17"/>
<path d="M134.983 34.2582H126.739V31.0431H134.065V25.9964H126.758V23.0152H134.866V17.949H121.308V39.4024H134.983V34.2582Z" fill="#602F17"/>
<path d="M49.5823 53.9848C48.8837 53.5525 48.164 53.1399 47.3808 52.8451C46.2589 52.4128 45.0735 52.0788 43.9304 51.6858C43.0837 51.391 42.2158 51.0767 41.3903 50.723C40.9669 50.5461 40.6282 50.2121 40.5224 49.7601C40.3107 48.9741 40.8611 48.2864 41.8136 48.0899C43.4436 47.7755 44.9465 48.365 45.8144 49.7012C45.9625 49.9173 46.0895 50.1531 46.2377 50.4086C47.8888 49.5047 49.4976 48.6205 51.1487 47.7166C50.5772 46.4001 49.4341 45.1032 48.1428 44.2975C45.8144 42.8435 43.253 42.5291 40.5647 42.981C39.1253 43.2168 37.8552 43.8063 36.7756 44.7298C34.9129 46.3018 34.3625 48.3061 34.6588 50.5461C34.8705 52.177 35.7172 53.4346 37.1567 54.3778C38.2786 55.1245 39.4851 55.655 40.7976 56.048C41.9195 56.382 43.0414 56.6768 44.1421 57.0501C44.629 57.2073 45.0947 57.4628 45.4757 57.7772C46.1954 58.3863 46.0049 59.3884 45.1158 59.7618C44.756 59.919 44.3326 59.9976 43.9304 60.0369C41.6231 60.2727 39.8027 59.526 38.7443 57.4628C38.7019 57.3842 38.6596 57.3252 38.6173 57.227C38.5114 57.2663 38.4267 57.3056 38.3421 57.3645C36.8603 58.1702 35.3151 59.0151 33.8121 59.8207L33.5581 59.9583L33.6851 60.2727C34.4895 62.0608 35.7807 63.4362 37.6435 64.2419C40.9246 65.6763 44.2903 65.7352 47.656 64.4777C49.4764 63.7899 50.81 62.552 51.4239 60.7639C51.9107 59.3295 51.9107 57.8754 51.445 56.4213C51.1275 55.3996 50.5137 54.5546 49.5823 53.9848Z" fill="#602F17"/>
<path d="M85.98 48.3685H91.2263V65.3723H96.688V48.3479H101.934V42.7898H85.98V48.3685Z" fill="#602F17"/>
<path d="M109.912 42.7898H104.214V65.3723H109.912V42.7898Z" fill="#602F17"/>
<path d="M149.743 53.9989L141.768 42.7898H137.262C137.262 42.7898 137.262 58.0843 137.262 65.3723H143.077V54.04L151.051 65.3723H155.495V42.8103H149.764V53.9989H149.743Z" fill="#602F17"/>
<path d="M68.8861 42.7898H52.9316V48.3685H58.178V65.3723H63.6397V48.3479H68.8861V42.7898Z" fill="#602F17"/>
</svg>
