<svg width="50" height="50" viewBox="0 0 50 50" fill="none" xmlns="http://www.w3.org/2000/svg">
<g clip-path="url(#clip0_2817_27229)">
<path d="M13.333 23.3334H32.4997V25H13.333V23.3334ZM19.1663 20H34.9997V21.6667H19.1663V20ZM19.8922 12.7455C19.7971 12.4399 19.6411 12.1567 19.4336 11.9129C19.226 11.6692 18.9713 11.4701 18.6847 11.3275L17.0605 10.515C16.9171 10.4434 16.8021 10.3254 16.7341 10.1803C16.6661 10.0351 16.649 9.87127 16.6858 9.71523C16.7225 9.5592 16.8109 9.42014 16.9365 9.32059C17.0621 9.22103 17.2177 9.1668 17.378 9.16669H17.6213C17.81 9.16691 17.9909 9.24196 18.1243 9.37537C18.2577 9.50879 18.3328 9.68968 18.333 9.87835V10H19.9997V9.87835C19.9978 9.37379 19.8352 8.88295 19.5355 8.47703C19.2359 8.0711 18.8146 7.77121 18.333 7.62085V6.66669H16.6663V7.62085C15.4164 8.0096 14.7184 9.33794 15.1072 10.5878C15.2023 10.8935 15.3583 11.1767 15.5658 11.4204C15.7733 11.6641 16.0281 11.8633 16.3147 12.0059L17.9388 12.8184C18.0822 12.89 18.1973 13.0079 18.2653 13.1531C18.3333 13.2982 18.3503 13.4621 18.3136 13.6181C18.2768 13.7742 18.1885 13.9132 18.0628 14.0128C17.9372 14.1123 17.7816 14.1666 17.6213 14.1667H17.378C17.1893 14.1665 17.0084 14.0914 16.875 13.958C16.7416 13.8246 16.6666 13.6437 16.6663 13.455V13.3334H14.9997V13.455C15.0015 13.9596 15.1641 14.4504 15.4638 14.8563C15.7635 15.2623 16.1847 15.5622 16.6663 15.7125V16.6667H18.333V15.7125C19.5829 15.3238 20.2809 13.9954 19.8922 12.7455ZM33.333 6.66669H34.9997V8.33335H33.333V6.66669ZM24.1663 15H34.9997V16.6667H24.1663V15ZM24.1663 11.6667H34.9997V13.3334H24.1663V11.6667ZM29.9997 6.66669H31.6663V8.33335H29.9997V6.66669ZM15.833 20H17.4997V21.6667H15.833V20Z" fill="#52006A"/>
<path d="M49.1667 10.8333H45V4.16668C45 2.32574 43.5076 0.833344 41.6667 0.833344H11.6667C9.82573 0.833344 8.33333 2.32574 8.33333 4.16668V27.5H0.833333C0.61232 27.5 0.400358 27.5878 0.244078 27.7441C0.0877974 27.9004 0 28.1123 0 28.3333L0 48.3333C0 48.5544 0.0877974 48.7663 0.244078 48.9226C0.400358 49.0789 0.61232 49.1667 0.833333 49.1667H31.6667C31.8877 49.1667 32.0996 49.0789 32.2559 48.9226C32.4122 48.7663 32.5 48.5544 32.5 48.3333V47.0117L34.1667 45.345L36.0775 47.2558C36.2338 47.4121 36.4457 47.4998 36.6667 47.4998C36.8876 47.4998 37.0996 47.4121 37.2558 47.2558L39.7558 44.7558C39.9121 44.5996 40 44.3877 40 44.1667V37.5H46.6667C48.5076 37.5 50 36.0076 50 34.1667V11.6667C50 11.4457 49.9122 11.2337 49.7559 11.0774C49.5996 10.9211 49.3877 10.8333 49.1667 10.8333ZM30.8333 47.5H1.66667V37.5H30.8333V47.5ZM30.8333 35.8333H1.66667V33.3333H30.8333V35.8333ZM30.8333 31.6667H1.66667V29.1667H30.8333V31.6667ZM38.3333 4.16668V43.8217L36.6667 45.4883L34.7558 43.5775C34.5996 43.4213 34.3876 43.3335 34.1667 43.3335C33.9457 43.3335 33.7338 43.4213 33.5775 43.5775L32.5 44.655V28.3333C32.5 28.1123 32.4122 27.9004 32.2559 27.7441C32.0996 27.5878 31.8877 27.5 31.6667 27.5H10V4.16668C10 3.24616 10.7461 2.50001 11.6667 2.50001H38.7967C38.4967 3.00447 38.3368 3.5798 38.3333 4.16668ZM40 35.8333V4.16668C40 3.24616 40.7461 2.50001 41.6667 2.50001C42.5872 2.50001 43.3333 3.24616 43.3333 4.16668V34.1667C43.3368 34.7536 43.4967 35.3289 43.7967 35.8333H40ZM48.3333 34.1667C48.3333 35.0872 47.5872 35.8333 46.6667 35.8333C45.7461 35.8333 45 35.0872 45 34.1667V12.5H48.3333V34.1667Z" fill="#52006A"/>
<path d="M20 40H21.6667V41.6667H20V40ZM23.3333 40H25V41.6667H23.3333V40ZM26.6667 40H28.3333V41.6667H26.6667V40Z" fill="#52006A"/>
</g>
<defs>
<clipPath id="clip0_2817_27229">
<rect width="50" height="50" fill="white"/>
</clipPath>
</defs>
</svg>
