<svg width="54" height="54" viewBox="0 0 54 54" fill="none" xmlns="http://www.w3.org/2000/svg">
<path d="M21.6172 13.928H23.7794V21.2851C23.7794 21.5047 23.8667 21.7154 24.022 21.8707C24.1773 22.026 24.3879 22.1132 24.6075 22.1132C24.8272 22.1132 25.0378 22.026 25.1931 21.8707C25.3484 21.7154 25.4357 21.5047 25.4357 21.2851V13.0999C25.4357 12.8803 25.3484 12.6696 25.1931 12.5143C25.0378 12.359 24.8272 12.2718 24.6075 12.2718H23.4772L27 8.35642L30.5228 12.2718H29.3933C29.1736 12.2718 28.963 12.359 28.8077 12.5143C28.6524 12.6696 28.5652 12.8803 28.5652 13.0999V21.2851C28.5652 21.5047 28.6524 21.7154 28.8077 21.8707C28.963 22.026 29.1736 22.1132 29.3933 22.1132C29.6129 22.1132 29.8236 22.026 29.9789 21.8707C30.1342 21.7154 30.2214 21.5047 30.2214 21.2851V13.928H32.3828C32.543 13.9281 32.6998 13.8818 32.8342 13.7945C32.9686 13.7073 33.0748 13.5829 33.14 13.4365C33.2051 13.2902 33.2264 13.128 33.2012 12.9698C33.176 12.8115 33.1055 12.664 32.9981 12.5451L27.6153 6.56518C27.5356 6.48238 27.4401 6.4165 27.3344 6.3715C27.2286 6.32651 27.1149 6.30331 27 6.30331C26.8851 6.30331 26.7714 6.32651 26.6656 6.3715C26.5599 6.4165 26.4644 6.48238 26.3847 6.56518L21.0019 12.5459C20.8948 12.6649 20.8245 12.8123 20.7995 12.9704C20.7744 13.1285 20.7958 13.2905 20.8609 13.4367C20.926 13.5829 21.032 13.7072 21.1663 13.7944C21.3005 13.8816 21.4571 13.928 21.6172 13.928ZM8.36719 16.4124H10.5294V21.2851C10.5294 21.5047 10.6167 21.7154 10.772 21.8707C10.9273 22.026 11.1379 22.1132 11.3575 22.1132C11.5772 22.1132 11.7878 22.026 11.9431 21.8707C12.0984 21.7154 12.1857 21.5047 12.1857 21.2851V15.5843C12.1857 15.3647 12.0984 15.154 11.9431 14.9987C11.7878 14.8434 11.5772 14.7562 11.3575 14.7562H10.2272L13.75 10.8408L17.2728 14.7562H16.1433C15.9236 14.7562 15.713 14.8434 15.5577 14.9987C15.4024 15.154 15.3152 15.3647 15.3152 15.5843V21.2851C15.3152 21.5047 15.4024 21.7154 15.5577 21.8707C15.713 22.026 15.9236 22.1132 16.1433 22.1132C16.3629 22.1132 16.5736 22.026 16.7289 21.8707C16.8842 21.7154 16.9714 21.5047 16.9714 21.2851V16.4124H19.1328C19.293 16.4125 19.4499 16.3661 19.5842 16.2789C19.7186 16.1917 19.8248 16.0673 19.89 15.9209C19.9551 15.7745 19.9764 15.6124 19.9512 15.4542C19.926 15.2959 19.8555 15.1484 19.7481 15.0294L14.3653 9.04956C14.2856 8.96675 14.1901 8.90088 14.0844 8.85588C13.9786 8.81088 13.8649 8.78769 13.75 8.78769C13.6351 8.78769 13.5214 8.81088 13.4156 8.85588C13.3099 8.90088 13.2144 8.96675 13.1347 9.04956L7.75189 15.0303C7.64481 15.1492 7.5745 15.2967 7.54947 15.4548C7.52444 15.6129 7.54576 15.7749 7.61086 15.9211C7.67596 16.0673 7.78204 16.1915 7.91627 16.2787C8.0505 16.3659 8.20712 16.4124 8.36719 16.4124ZM34.8672 11.4437H37.0294V21.2851C37.0294 21.5047 37.1167 21.7154 37.272 21.8707C37.4273 22.026 37.6379 22.1132 37.8575 22.1132C38.0772 22.1132 38.2878 22.026 38.4431 21.8707C38.5984 21.7154 38.6857 21.5047 38.6857 21.2851V10.6155C38.6857 10.3959 38.5984 10.1853 38.4431 10.03C38.2878 9.87467 38.0772 9.78742 37.8575 9.78742H36.7272L40.25 5.87204L43.7728 9.78742H42.6433C42.4236 9.78742 42.213 9.87467 42.0577 10.03C41.9024 10.1853 41.8152 10.3959 41.8152 10.6155V21.2851C41.8152 21.5047 41.9024 21.7154 42.0577 21.8707C42.213 22.026 42.4236 22.1132 42.6433 22.1132C42.8629 22.1132 43.0736 22.026 43.2289 21.8707C43.3842 21.7154 43.4714 21.5047 43.4714 21.2851V11.4437H45.6328C45.793 11.4438 45.9498 11.3974 46.0842 11.3102C46.2186 11.2229 46.3248 11.0986 46.39 10.9522C46.4551 10.8058 46.4764 10.6436 46.4512 10.4854C46.426 10.3272 46.3555 10.1796 46.2481 10.0607L40.8653 4.08081C40.7856 3.998 40.6901 3.93213 40.5844 3.88713C40.4786 3.84213 40.3649 3.81894 40.25 3.81894C40.1351 3.81894 40.0214 3.84213 39.9156 3.88713C39.8099 3.93213 39.7144 3.998 39.6347 4.08081L34.2519 10.0615C34.1448 10.1805 34.0745 10.328 34.0495 10.486C34.0244 10.6441 34.0458 10.8061 34.1109 10.9523C34.176 11.0986 34.282 11.2228 34.4163 11.31C34.5505 11.3972 34.7071 11.4436 34.8672 11.4437ZM46.0469 23.6817H7.95312C6.85537 23.683 5.80295 24.1197 5.02671 24.8959C4.25048 25.6721 3.81381 26.7246 3.8125 27.8223V46.0411C3.81381 47.1388 4.25048 48.1912 5.02671 48.9675C5.80295 49.7437 6.85537 50.1804 7.95312 50.1817H46.0469C47.1446 50.1804 48.1971 49.7437 48.9733 48.9675C49.7495 48.1912 50.1862 47.1388 50.1875 46.0411V27.8223C50.1862 26.7246 49.7495 25.6721 48.9733 24.8959C48.1971 24.1197 47.1446 23.683 46.0469 23.6817ZM48.5312 46.0411C48.5306 46.6998 48.2686 47.3313 47.8029 47.7971C47.3371 48.2628 46.7056 48.5248 46.0469 48.5254H7.95312C7.29443 48.5248 6.6629 48.2628 6.19713 47.7971C5.73136 47.3313 5.46941 46.6998 5.46875 46.0411V27.8223C5.46941 27.1636 5.73136 26.5321 6.19713 26.0663C6.6629 25.6006 7.29443 25.3386 7.95312 25.3379H46.0469C46.7056 25.3386 47.3371 25.6006 47.8029 26.0663C48.2686 26.5321 48.5306 27.1636 48.5312 27.8223V46.0411Z" fill="#52006A"/>
<path d="M7.95312 33.6192C8.17276 33.6192 8.38339 33.532 8.5387 33.3766C8.694 33.2213 8.78125 33.0107 8.78125 32.7911V28.6505H12.9219C13.1415 28.6505 13.3521 28.5632 13.5074 28.4079C13.6628 28.2526 13.75 28.042 13.75 27.8223C13.75 27.6027 13.6628 27.3921 13.5074 27.2368C13.3521 27.0814 13.1415 26.9942 12.9219 26.9942H8.78125C8.34212 26.9946 7.9211 27.1693 7.61059 27.4798C7.30008 27.7903 7.12544 28.2113 7.125 28.6505V32.7911C7.125 33.0107 7.21225 33.2213 7.36755 33.3766C7.52286 33.532 7.73349 33.6192 7.95312 33.6192ZM12.9219 45.213H8.78125V41.0723C8.78125 40.8527 8.694 40.6421 8.5387 40.4868C8.38339 40.3314 8.17276 40.2442 7.95312 40.2442C7.73349 40.2442 7.52286 40.3314 7.36755 40.4868C7.21225 40.6421 7.125 40.8527 7.125 41.0723V45.213C7.12544 45.6521 7.30008 46.0731 7.61059 46.3836C7.9211 46.6941 8.34212 46.8688 8.78125 46.8692H12.9219C13.1415 46.8692 13.3521 46.782 13.5074 46.6266C13.6628 46.4713 13.75 46.2607 13.75 46.0411C13.75 45.8214 13.6628 45.6108 13.5074 45.4555C13.3521 45.3002 13.1415 45.213 12.9219 45.213ZM46.0469 40.2442C45.8272 40.2442 45.6166 40.3314 45.4613 40.4868C45.306 40.6421 45.2188 40.8527 45.2188 41.0723V45.213H41.0781C40.8585 45.213 40.6479 45.3002 40.4925 45.4555C40.3372 45.6108 40.25 45.8214 40.25 46.0411C40.25 46.2607 40.3372 46.4713 40.4925 46.6266C40.6479 46.782 40.8585 46.8692 41.0781 46.8692H45.2188C45.6579 46.8688 46.0789 46.6941 46.3894 46.3836C46.6999 46.0731 46.8746 45.6521 46.875 45.213V41.0723C46.875 40.8527 46.7878 40.6421 46.6325 40.4868C46.4771 40.3314 46.2665 40.2442 46.0469 40.2442ZM45.2188 26.9942H41.0781C40.8585 26.9942 40.6479 27.0814 40.4925 27.2368C40.3372 27.3921 40.25 27.6027 40.25 27.8223C40.25 28.042 40.3372 28.2526 40.4925 28.4079C40.6479 28.5632 40.8585 28.6505 41.0781 28.6505H45.2188V32.7911C45.2188 33.0107 45.306 33.2213 45.4613 33.3766C45.6166 33.532 45.8272 33.6192 46.0469 33.6192C46.2665 33.6192 46.4771 33.532 46.6325 33.3766C46.7878 33.2213 46.875 33.0107 46.875 32.7911V28.6505C46.8746 28.2113 46.6999 27.7903 46.3894 27.4798C46.0789 27.1693 45.6579 26.9946 45.2188 26.9942ZM27 26.5801C24.9527 26.5801 22.9513 27.1872 21.249 28.3247C19.5467 29.4621 18.2199 31.0788 17.4364 32.9703C16.6529 34.8618 16.4479 36.9432 16.8473 38.9512C17.2468 40.9592 18.2326 42.8037 19.6803 44.2514C21.128 45.6991 22.9725 46.6849 24.9805 47.0844C26.9885 47.4838 29.0699 47.2788 30.9614 46.4953C32.8529 45.7118 34.4696 44.385 35.607 42.6827C36.7445 40.9804 37.3516 38.979 37.3516 36.9317C37.3485 34.1872 36.2569 31.5561 34.3163 29.6154C32.3756 27.6748 29.7445 26.5832 27 26.5801ZM27 45.627C25.2802 45.627 23.5991 45.117 22.1691 44.1616C20.7392 43.2061 19.6247 41.8481 18.9666 40.2593C18.3085 38.6704 18.1363 36.9221 18.4718 35.2353C18.8073 33.5486 19.6354 31.9992 20.8515 30.7832C22.0675 29.5671 23.6169 28.739 25.3036 28.4035C26.9904 28.068 28.7387 28.2402 30.3276 28.8983C31.9164 29.5564 33.2744 30.6709 34.2299 32.1008C35.1853 33.5308 35.6953 35.2119 35.6953 36.9317C35.6927 39.237 34.7757 41.4472 33.1456 43.0773C31.5155 44.7074 29.3053 45.6244 27 45.627Z" fill="#52006A"/>
<path d="M26.8079 36.1276C26.3167 36.1276 25.917 35.7279 25.917 35.2366C25.917 34.7454 26.3167 34.3457 26.8079 34.3457C27.1235 34.3457 27.4567 34.5067 27.7715 34.8114C28.1253 35.1536 28.6892 35.1443 29.0314 34.7907C29.3735 34.4371 29.3643 33.873 29.0107 33.5308C28.5586 33.0933 28.1061 32.8458 27.6989 32.7107V31.6728C27.6989 31.1808 27.2999 30.7819 26.8079 30.7819C26.316 30.7819 25.917 31.1808 25.917 31.6728V32.717C24.88 33.0848 24.1351 34.0751 24.1351 35.2366C24.1351 36.7105 25.3341 37.9095 26.8079 37.9095C27.2992 37.9095 27.6989 38.3092 27.6989 38.8004C27.6989 39.2917 27.2992 39.6914 26.8079 39.6914C26.4273 39.6914 26.0164 39.452 25.651 39.0174C25.3345 38.6407 24.7724 38.5921 24.3958 38.9088C24.0191 39.2254 23.9705 39.7874 24.2871 40.164C24.7634 40.7306 25.3234 41.1254 25.917 41.3244V42.3642C25.917 42.8563 26.316 43.2552 26.8079 43.2552C27.2999 43.2552 27.6989 42.8563 27.6989 42.3642V41.3201C28.7359 40.9523 29.4808 39.962 29.4808 38.8004C29.4808 37.3266 28.2817 36.1276 26.8079 36.1276Z" fill="#52006A"/>
</svg>
