<svg width="52" height="54" viewBox="0 0 52 54" fill="none" xmlns="http://www.w3.org/2000/svg">
<path d="M26.4226 12.508C25.3996 12.508 24.4909 12.97 23.8652 13.6861L19.5252 11.5157C19.5747 11.2855 19.6028 11.0477 19.6028 10.803C19.6028 8.92245 18.0735 7.39312 16.1929 7.39312C14.3124 7.39312 12.783 8.92245 12.783 10.803C12.783 11.5685 13.0456 12.2684 13.4735 12.8379L7.35618 20.4845C6.91905 20.2853 6.44448 20.1816 5.96409 20.1802C4.08354 20.1802 2.5542 21.7095 2.5542 23.5901C2.5542 25.4707 4.08354 27 5.96409 27C7.84465 27 9.37398 25.4707 9.37398 23.5901C9.37398 22.8246 9.11142 22.1247 8.68348 21.5553L14.8008 13.9086C15.2383 14.1078 15.7131 14.2115 16.1938 14.2129C17.2167 14.2129 18.1255 13.7509 18.7512 13.0348L23.0911 15.2052C23.0417 15.4353 23.0135 15.6732 23.0135 15.9178C23.0135 17.7984 24.5429 19.3277 26.4234 19.3277C28.304 19.3277 29.8333 17.7984 29.8333 15.9178C29.8328 15.2207 29.6169 14.5407 29.2153 13.9708L35.1604 7.03423C35.6235 7.26707 36.134 7.38989 36.6523 7.39312C37.9421 7.39312 39.0528 6.66511 39.6317 5.60719L43.4746 6.56792C43.4891 8.43569 45.0108 9.95054 46.8819 9.95054C48.7531 9.95054 50.2918 8.4212 50.2918 6.54064C50.2918 4.66009 48.7625 3.13075 46.8819 3.13075C45.593 3.13075 44.4814 3.85876 43.9025 4.91668L40.0596 3.95595C40.0443 2.08818 38.5234 0.573334 36.6523 0.573334C34.7811 0.573334 33.2424 2.10267 33.2424 3.98323C33.2424 4.70783 33.4734 5.37787 33.8604 5.93027L27.9153 12.8668C27.452 12.6339 26.9411 12.5111 26.4226 12.508ZM5.96324 25.295C5.02296 25.295 4.25829 24.5304 4.25829 23.5901C4.25829 22.6498 5.02296 21.8852 5.96324 21.8852C6.90352 21.8852 7.66818 22.6498 7.66818 23.5901C7.66818 24.5304 6.90352 25.295 5.96324 25.295ZM16.1929 12.508C15.2526 12.508 14.488 11.7433 14.488 10.803C14.488 9.86273 15.2526 9.09806 16.1929 9.09806C17.1332 9.09806 17.8979 9.86273 17.8979 10.803C17.8979 11.7433 17.1332 12.508 16.1929 12.508ZM26.4226 17.6228C25.4823 17.6228 24.7176 16.8581 24.7176 15.9178C24.7176 14.9776 25.4823 14.2129 26.4226 14.2129C27.3629 14.2129 28.1275 14.9776 28.1275 15.9178C28.1275 16.8581 27.3629 17.6228 26.4226 17.6228ZM46.8819 4.8357C47.8222 4.8357 48.5869 5.60037 48.5869 6.54064C48.5869 7.48092 47.8222 8.24559 46.8819 8.24559C45.9417 8.24559 45.177 7.48092 45.177 6.54064C45.177 5.60037 45.9417 4.8357 46.8819 4.8357ZM36.6523 2.27828C37.5925 2.27828 38.3572 3.04295 38.3572 3.98323C38.3572 4.9235 37.5925 5.68817 36.6523 5.68817C35.712 5.68817 34.9473 4.9235 34.9473 3.98323C34.9473 3.04295 35.712 2.27828 36.6523 2.27828ZM19.6028 42.3445C24.3033 42.3445 28.1275 38.5203 28.1275 33.8198C28.1275 29.1192 24.3033 25.295 19.6028 25.295C14.9023 25.295 11.0781 29.1192 11.0781 33.8198C11.0781 38.5203 14.9023 42.3445 19.6028 42.3445ZM19.6028 40.6396C17.0855 40.6396 14.8869 39.2645 13.7054 37.2297H25.4994C24.3178 39.2645 22.121 40.6396 19.6028 40.6396ZM26.4226 33.8198C26.4226 34.4097 26.3399 34.9783 26.1984 35.5247H24.7176V29.3238C25.8159 30.564 26.4223 32.1632 26.4226 33.8198ZM23.0127 27.9224V35.5247H16.1929V27.9224C17.2279 27.3188 18.4046 27.0007 19.6028 27.0007C20.801 27.0007 21.9777 27.3188 23.0127 27.9224ZM14.488 29.3238V35.5247H13.0072C12.8604 34.9682 12.7851 34.3953 12.783 33.8198C12.783 32.0969 13.43 30.5258 14.488 29.3238Z" fill="#52006A"/>
<path d="M3.62495 53.4267C4.84058 53.4267 5.96925 52.8231 6.64441 51.8104L10.4993 46.0281C10.6885 46.0843 10.8821 46.1218 11.0781 46.1218C11.5947 46.1218 12.1122 45.9258 12.5052 45.5319L13.7984 44.2387C15.571 45.2331 17.5695 45.7551 19.602 45.7544C24.9973 45.7544 29.5623 42.1527 31.0337 37.2297H51.996V35.5247H51.1435V15.9179C51.1435 15.6918 51.0537 15.4749 50.8938 15.3151C50.7339 15.1552 50.5171 15.0654 50.291 15.0654H43.4712C43.2452 15.0654 43.0283 15.1552 42.8685 15.3151C42.7086 15.4749 42.6188 15.6918 42.6188 15.9179V35.5247H40.9138V24.4426H39.2089V35.5247H34.094V14.2129H39.2089V21.8852H40.9138V13.3604C40.9138 13.1343 40.824 12.9175 40.6641 12.7576C40.5043 12.5978 40.2874 12.508 40.0613 12.508H33.2416C33.0155 12.508 32.7986 12.5978 32.6388 12.7576C32.4789 12.9175 32.3891 13.1343 32.3891 13.3604V35.5247H31.4002C31.4804 34.9664 31.5366 34.4003 31.5366 33.8198C31.5366 28.7416 28.3433 24.4068 23.8644 22.6856V19.3277C23.8644 19.1017 23.7745 18.8848 23.6147 18.725C23.4548 18.5651 23.238 18.4753 23.0119 18.4753H16.1921C15.966 18.4753 15.7492 18.5651 15.5893 18.725C15.4294 18.8848 15.3396 19.1017 15.3396 19.3277V22.6856C12.4819 23.7871 10.1545 25.941 8.83527 28.705H2.55339C2.3273 28.705 2.11047 28.7948 1.9506 28.9546C1.79073 29.1145 1.70092 29.3313 1.70092 29.5574V35.5247H0.848446V37.2297H8.17119C8.42267 38.0702 8.76366 38.8715 9.18393 39.6234L7.88561 40.9217C7.62943 41.1795 7.44817 41.5021 7.36123 41.855C7.27428 42.2079 7.28493 42.5778 7.39203 42.9251L1.61226 46.7782C1.11474 47.1092 0.706812 47.5581 0.424808 48.0849C0.142805 48.6117 -0.00451507 49.2001 -0.00402711 49.7977C-0.00289906 50.7598 0.379801 51.6822 1.06012 52.3625C1.74044 53.0428 2.66283 53.4255 3.62495 53.4267ZM44.3246 16.7703H49.4394V35.5247H44.3246V16.7703ZM17.0454 20.1802H22.1603V22.1682C21.3205 21.982 20.463 21.8871 19.6029 21.8852C18.7427 21.8871 17.8852 21.982 17.0454 22.1682V20.1802ZM19.6029 23.5901C25.2437 23.5901 29.8325 28.179 29.8325 33.8198C29.8325 39.4606 25.2437 44.0495 19.6029 44.0495C13.962 44.0495 9.37317 39.4606 9.37317 33.8198C9.37317 28.179 13.962 23.5901 19.6029 23.5901ZM3.40586 35.5247V30.4099H8.17119C7.83885 31.5161 7.66942 32.6648 7.66823 33.8198C7.66823 34.4003 7.72364 34.9664 7.80462 35.5247H3.40586ZM9.09101 42.1271L10.1464 41.0718C10.7826 41.899 11.5237 42.64 12.3509 43.2763L11.2998 44.3274C11.1395 44.4876 11.0159 44.4876 10.8556 44.3274L9.09015 42.5619C9.03279 42.5041 9.00059 42.426 9.00059 42.3445C9.00059 42.2631 9.03364 42.1849 9.09101 42.1271ZM2.55765 48.1968L8.41244 44.2941L9.12937 45.0111L5.22675 50.8658C5.06933 51.1041 4.86087 51.3044 4.61649 51.4522C4.3721 51.6 4.0979 51.6916 3.81375 51.7204C3.52959 51.7491 3.24261 51.7143 2.97357 51.6184C2.70454 51.5226 2.4602 51.3681 2.25825 51.1661C2.0563 50.9642 1.90179 50.7198 1.80593 50.4508C1.71007 50.1817 1.67525 49.8948 1.70399 49.6106C1.73273 49.3265 1.82431 49.0522 1.97211 48.8079C2.1199 48.5635 2.32021 48.355 2.55851 48.1976L2.55765 48.1968Z" fill="#52006A"/>
</svg>
