<svg xmlns="http://www.w3.org/2000/svg" width="53" height="50" viewBox="0 0 53 50" fill="none">
  <path d="M18.3336 2.5H10.0003C9.77931 2.50008 9.5674 2.5879 9.41115 2.74415C9.25489 2.90041 9.16707 3.11232 9.16699 3.3333C9.16707 3.55428 9.25489 3.76619 9.41115 3.92245C9.5674 4.0787 9.77931 4.16652 10.0003 4.1666H18.3336C18.5546 4.16652 18.7665 4.0787 18.9227 3.92245C19.079 3.76619 19.1668 3.55428 19.1669 3.3333C19.1668 3.11232 19.079 2.90041 18.9227 2.74415C18.7665 2.5879 18.5546 2.50008 18.3336 2.5ZM24.1669 2.5H23.3336C23.1126 2.50008 22.9007 2.5879 22.7444 2.74415C22.5882 2.90041 22.5004 3.11232 22.5003 3.3333C22.5004 3.55428 22.5882 3.76619 22.7444 3.92245C22.9007 4.0787 23.1126 4.16652 23.3336 4.1666H24.1669C24.3879 4.16652 24.5998 4.0787 24.756 3.92245C24.9123 3.76619 25.0001 3.55428 25.0002 3.3333C25.0001 3.11232 24.9123 2.90041 24.756 2.74415C24.5998 2.5879 24.3879 2.50008 24.1669 2.5ZM15.2019 42.5H13.1327C11.8652 42.5 10.8336 43.5316 10.8336 44.7991V45.2017C10.8336 46.4691 11.8652 47.5 13.1319 47.5H15.2011C16.4686 47.5 17.5002 46.4691 17.5002 45.2017V44.7991C17.5002 43.5316 16.4686 42.5 15.2019 42.5ZM15.8336 45.2017C15.8334 45.3691 15.7668 45.5297 15.6484 45.6481C15.53 45.7665 15.3694 45.8331 15.202 45.8333H13.1327C12.7836 45.8333 12.5002 45.55 12.5002 45.2017V44.7991C12.5003 44.6314 12.5669 44.4706 12.6855 44.3519C12.8041 44.2333 12.965 44.1667 13.1327 44.1666H15.2011C15.3688 44.1666 15.5297 44.2333 15.6483 44.3519C15.7669 44.4705 15.8336 44.6314 15.8336 44.7991V45.2017Z" fill="#52006A"/>
  <path d="M25.3217 0H3.0125C1.35166 0 0 1.35166 0 3.0125V46.9875C0 48.6483 1.35166 50 3.0125 50H25.3208C26.9816 50 28.3333 48.6483 28.3333 46.9884V3.0125C28.3334 1.35166 26.9817 0 25.3217 0ZM26.6667 46.9875C26.6667 47.7292 26.0634 48.3333 25.3217 48.3333H3.0125C2.27002 48.3333 1.6667 47.7291 1.6667 46.9883V3.0125C1.6667 2.2708 2.27002 1.6667 3.0125 1.6667H25.3208C26.0633 1.6667 26.6666 2.2709 26.6666 3.0125L26.6667 46.9875Z" fill="#52006A"/>
  <path d="M27.4999 5H0.833301C0.61232 5.00008 0.400411 5.0879 0.244154 5.24415C0.0878967 5.40041 7.76508e-05 5.61232 0 5.8333V40.8333C7.76508e-05 41.0543 0.0878967 41.2662 0.244154 41.4224C0.400411 41.5787 0.61232 41.6665 0.833301 41.6666H27.5C27.721 41.6665 27.9329 41.5787 28.0891 41.4224C28.2454 41.2662 28.3332 41.0543 28.3333 40.8333V5.8333C28.3333 5.37334 27.96 5 27.4999 5ZM26.6666 40H1.6666V6.6667H26.6666V40Z" fill="#52006A"/>
  <rect x="19" y="12" width="22" height="38" fill="#FFF8F2"/>
  <path d="M21.6767 16.2063L20.4088 15.7936L19.1067 19.7938L20.3746 20.2063L21.6767 16.2063ZM23.6309 20.8736L22.3629 20.4608L21.0604 24.4605L22.3284 24.8736L23.6309 20.8736Z" fill="#52006A"/>
  <path d="M46.1113 22.8182C46.1809 23.3219 46.144 23.8346 46.003 24.3231C45.862 24.8117 45.62 25.2651 45.2927 25.6542L44.3301 26.8616V38.0002H42.9967V27.913L42.0335 28.5549C41.9239 28.628 41.7951 28.6669 41.6634 28.6669C41.5317 28.6669 41.4029 28.628 41.2933 28.5549L39.6634 27.4671L38.0335 28.5536C37.9239 28.6267 37.7951 28.6657 37.6634 28.6657C37.5317 28.6657 37.4029 28.6267 37.2933 28.5536L35.6634 27.4669L34.0335 28.5536C33.9239 28.6266 33.7951 28.6656 33.6634 28.6656C33.5317 28.6656 33.4029 28.6266 33.2933 28.5536L31.6634 27.4669L30.0335 28.5536C29.9239 28.6266 29.7951 28.6656 29.6634 28.6656C29.5317 28.6656 29.4029 28.6266 29.2933 28.5536L27.6634 27.4669L26.3301 28.3556V48.6669H40.9967V50.0002H22.3301C20.4899 49.998 18.999 48.5071 18.9967 46.6669V26.6669C18.9984 26.5203 19.0488 26.3784 19.14 26.2636L15.2875 16.0071C15.032 15.3283 14.9447 14.5977 15.0332 13.8779C15.1216 13.158 15.3831 12.4703 15.7952 11.8736C16.1866 11.2949 16.7142 10.8214 17.3316 10.4947C17.9491 10.1681 18.6374 9.99823 19.3359 10.0002C21.1439 10.0171 22.7542 11.1467 23.3854 12.8411L24.4307 15.6236L25.6634 14.3908V12.0002C25.6634 11.8234 25.7336 11.6539 25.8587 11.5288C25.9837 11.4038 26.1533 11.3336 26.3301 11.3336H33.6634C33.8402 11.3336 34.0098 11.4038 34.1348 11.5288C34.2598 11.6539 34.3301 11.8234 34.3301 12.0002V13.1441C35.0837 12.4611 36.2204 12.4225 37.0189 13.053V12.0002C37.0189 10.9091 37.9033 10.0244 38.9947 10.0244C40.0859 10.0244 40.9707 10.9091 40.9707 12.0002V13.0536C41.3356 12.7511 41.7949 12.586 42.2689 12.5869C42.5413 12.5863 42.811 12.6404 43.0621 12.7462C43.3131 12.8519 43.5403 13.0071 43.7302 13.2024C44.5208 14.0171 44.5257 15.3114 43.7415 16.1324L43.1207 16.773C43.3466 16.8765 43.5517 17.0203 43.7259 17.1975L43.7301 17.2001L43.7367 17.2069C43.892 17.3664 44.0204 17.5501 44.1168 17.7509L44.8767 16.3476L46.0495 16.9823L44.3255 20.1643C44.4027 20.2082 44.4802 20.2509 44.5534 20.301C44.5807 20.3196 44.6048 20.341 44.6315 20.3596L47.2112 17.9823L48.1152 18.9628L45.5527 21.3254C45.847 21.7756 46.0378 22.2854 46.1113 22.8182ZM32.0335 26.1122L33.6634 27.2001L35.2933 26.1135C35.4029 26.0404 35.5317 26.0014 35.6634 26.0014C35.7951 26.0014 35.9239 26.0404 36.0335 26.1135L37.6481 27.1903C37.652 27.1236 37.6634 27.0656 37.6634 27.0016C37.6676 25.5364 36.6101 24.2834 35.1651 24.0419C33.7197 23.8001 32.3122 24.6406 31.8395 26.0276C31.9082 26.0454 31.9737 26.074 32.0335 26.1122ZM30.3301 26.7547L30.3427 26.7464C30.3823 26.0558 30.5868 25.3847 30.9391 24.7895C31.2914 24.1942 31.7814 23.6921 32.3678 23.3252C32.9542 22.9583 33.62 22.7373 34.3094 22.6807C34.9988 22.6242 35.6917 22.7338 36.3301 23.0002V18.6668H30.3301V26.7547ZM20.3301 46.6669C20.3301 47.7714 21.2256 48.6669 22.3301 48.6669H24.9967V28.357L23.6634 27.467L22.0335 28.5536C21.9239 28.6267 21.7951 28.6657 21.6634 28.6657C21.5317 28.6657 21.4029 28.6267 21.2933 28.5536L20.3301 27.913V46.6669ZM22.1374 13.3094C21.9251 12.7354 21.5436 12.2392 21.0435 11.8865C20.5433 11.5337 19.9479 11.3409 19.3359 11.3336C18.8534 11.3326 18.3781 11.4503 17.9518 11.6763C17.5255 11.9023 17.1613 12.2296 16.8912 12.6294C16.6013 13.0494 16.4175 13.5335 16.3555 14.0401C16.2935 14.5467 16.3553 15.0608 16.5354 15.5383L20.6634 26.5334L21.6634 27.2001L23.2933 26.1135C23.4029 26.0404 23.5317 26.0014 23.6634 26.0014C23.7951 26.0014 23.9239 26.0404 24.0335 26.1135L25.6634 27.2002L27.0159 26.2986L22.1374 13.3094ZM24.9453 16.9944L28.4834 26.4123L28.9967 26.7548V18.2762L26.3301 15.6096L24.9453 16.9944ZM32.9967 12.6669H26.9967V14.0002H32.9967V12.6669ZM33.3874 15.3336H27.9395L29.9395 17.3336H35.3874L33.3874 15.3336ZM42.7786 14.1376C42.7124 14.0693 42.6332 14.0149 42.5456 13.9778C42.4581 13.9407 42.3639 13.9215 42.2688 13.9215C42.1737 13.9216 42.0795 13.9407 41.9919 13.9779C41.9043 14.015 41.825 14.0693 41.7587 14.1376L40.7798 15.1376C40.6869 15.2323 40.5678 15.2972 40.4378 15.3239C40.3078 15.3505 40.1728 15.3378 40.0501 15.2873C39.9274 15.2367 39.8226 15.1506 39.749 15.0401C39.6755 14.9296 39.6367 14.7996 39.6374 14.6669V12.0002C39.6416 11.9132 39.6281 11.8263 39.5977 11.7447C39.5673 11.663 39.5207 11.5884 39.4606 11.5254C39.4005 11.4623 39.3282 11.4121 39.2482 11.3778C39.1681 11.3435 39.0819 11.3258 38.9948 11.3258C38.9077 11.3258 38.8215 11.3435 38.7415 11.3778C38.6614 11.4121 38.5891 11.4623 38.5291 11.5254C38.469 11.5884 38.4223 11.663 38.3919 11.7447C38.3615 11.8263 38.348 11.9132 38.3522 12.0002V14.6669C38.3521 14.7992 38.3126 14.9284 38.2387 15.0382C38.1649 15.1479 38.06 15.2332 37.9375 15.2831C37.8151 15.3332 37.6805 15.3457 37.551 15.3191C37.4215 15.2925 37.3028 15.228 37.21 15.1337L36.2282 14.1337C36.0931 14.0006 35.9111 13.926 35.7215 13.926C35.5319 13.926 35.3499 14.0006 35.2148 14.1337C35.0755 14.2763 34.9976 14.4676 34.9976 14.6669C34.9976 14.8662 35.0755 15.0575 35.2148 15.2001L37.1787 17.2001L37.1588 17.2203L37.4681 17.5295C37.5217 17.5849 37.5652 17.6493 37.5967 17.7196C37.6061 17.7401 37.6113 17.761 37.6188 17.7821C37.6387 17.839 37.6507 17.8982 37.6547 17.9582C37.6547 17.9729 37.6627 17.9849 37.6627 17.9996V23.8801C37.8144 24.0252 37.9552 24.1812 38.084 24.3469L39.3434 21.6669C39.5731 21.2097 39.8977 20.8067 40.2954 20.4849C40.6932 20.163 41.155 19.9297 41.6501 19.8004C41.8832 19.74 42.122 19.7038 42.3626 19.6923L42.5335 19.4921C42.6667 19.3394 42.7672 19.2203 42.7835 19.2037C42.8684 19.1148 42.9308 19.0069 42.9656 18.8889C43.0004 18.771 43.0065 18.6464 42.9834 18.5256C42.9587 18.3865 42.8946 18.2574 42.7988 18.1536L42.7867 18.1421L42.7702 18.1242C42.653 18.0095 42.5 17.9385 42.3367 17.9232C42.1734 17.9079 42.0098 17.9492 41.8734 18.0402C41.7368 18.1314 41.5715 18.1689 41.4089 18.1457C41.2464 18.1224 41.0982 18.04 40.9926 17.9142C40.8871 17.7885 40.8317 17.6282 40.837 17.4641C40.8423 17.3 40.908 17.1436 41.0215 17.025L42.7834 15.2063C42.9211 15.0622 42.9975 14.8703 42.9966 14.671C42.9957 14.4716 42.9175 14.2804 42.7786 14.1376ZM44.7901 23.0002C44.7471 22.6807 44.6372 22.3738 44.4676 22.0996C44.2981 21.8253 44.0726 21.5899 43.8059 21.4087C43.5415 21.2299 43.242 21.1094 42.9275 21.0552C42.6129 21.001 42.2904 21.0143 41.9814 21.0943C41.6724 21.1744 41.384 21.3194 41.1354 21.5196C40.8868 21.7199 40.6836 21.9707 40.5394 22.2555L38.8402 25.8749C38.8822 26.0309 38.9153 26.1891 38.9394 26.3489L39.2907 26.1141C39.4002 26.0411 39.529 26.002 39.6607 26.002C39.7923 26.002 39.9211 26.0411 40.0307 26.1141L41.6634 27.2001L43.1419 26.2134L43.2848 26.0344L41.5661 24.7056L42.3822 23.651L44.1152 24.9915L44.2633 24.8069C44.473 24.5596 44.6283 24.2709 44.7191 23.9597C44.8099 23.6484 44.834 23.3215 44.7901 23.0002Z" fill="#52006A"/>
  <path d="M50.9066 48.3375C50.6583 48.8384 50.2746 49.2597 49.7991 49.5535C49.3235 49.8474 48.7752 50.0022 48.2162 50.0003C47.7492 49.9996 47.2888 49.891 46.8707 49.6829L46.3301 49.4124L45.7887 49.6829C45.371 49.891 44.9107 49.9996 44.444 50.0003C43.8849 50.0022 43.3365 49.8474 42.8609 49.5536C42.3853 49.2597 42.0016 48.8384 41.7532 48.3375L41.5208 47.871C40.7402 46.3048 40.3327 44.5791 40.3301 42.829C40.3323 40.8994 41.8959 39.3359 43.8255 39.3336C44.476 39.3355 45.1129 39.5202 45.6634 39.8668V39.3336C45.6634 37.861 46.8574 36.667 48.3301 36.667V38.0003C47.5937 38.0003 46.9967 38.5973 46.9967 39.3336V39.8668C47.5473 39.5202 48.1841 39.3355 48.8347 39.3336C50.7642 39.3359 52.3278 40.8995 52.3301 42.829C52.3278 44.5795 51.9202 46.3057 51.1392 47.8724L50.9066 48.3375ZM48.8347 40.667C48.5506 40.6662 48.2693 40.7218 48.0069 40.8306C47.7445 40.9393 47.5062 41.099 47.306 41.3005L46.8014 41.805C46.6763 41.9299 46.5068 42 46.3301 42C46.1533 42 45.9838 41.9299 45.8587 41.805L45.3542 41.3005C45.0518 40.9981 44.6666 40.7922 44.2472 40.7088C43.8278 40.6254 43.3931 40.6682 42.9981 40.8318C42.603 40.9954 42.2654 41.2725 42.0278 41.628C41.7902 41.9836 41.6634 42.4015 41.6634 42.8291C41.6651 44.3728 42.0246 45.8951 42.7137 47.2764L42.9461 47.7431C43.0847 48.0215 43.2985 48.2556 43.5632 48.4188C43.8279 48.5821 44.133 48.6681 44.444 48.667C44.7039 48.6666 44.9601 48.6061 45.1927 48.4902L46.0319 48.0702C46.1244 48.024 46.2265 47.9999 46.3299 47.9999C46.4334 47.9999 46.5354 48.024 46.6279 48.0702L47.4668 48.4902C47.6996 48.6061 47.9561 48.6666 48.2162 48.667C48.5274 48.6679 48.8327 48.5816 49.0975 48.4179C49.3622 48.2543 49.5759 48.0197 49.7142 47.7409L49.9467 47.2744C50.6354 45.8936 50.9948 44.372 50.9967 42.829C50.9951 41.6357 50.028 40.6686 48.8347 40.667Z" fill="#52006A"/>
</svg>