<svg width="52" height="53" viewBox="0 0 52 53" fill="none" xmlns="http://www.w3.org/2000/svg">
<path d="M38.374 0.932251H0.650407C0.291382 0.932251 0 1.22363 0 1.58266V39.3062C0 39.6653 0.291382 39.9566 0.650407 39.9566H38.374C38.733 39.9566 39.0244 39.6653 39.0244 39.3062V1.58266C39.0244 1.22363 38.733 0.932251 38.374 0.932251ZM37.7236 38.6558H1.30081V2.23306H37.7236V38.6558Z" fill="#52006A"/>
<path d="M18.8617 14.5908H18.1163C18.1722 14.3787 18.2113 14.1622 18.2113 13.9404C18.2113 13.2386 17.9316 12.5817 17.4431 12.0991C17.5211 11.8532 17.5608 11.5967 17.5608 11.3387C17.5608 9.90395 16.394 8.73712 14.9592 8.73712C14.8441 8.73712 14.7296 8.74493 14.6158 8.76054C14.1625 7.95794 13.3059 7.43631 12.3576 7.43631C11.4093 7.43631 10.5527 7.95794 10.0994 8.76054C9.98558 8.74493 9.87084 8.73711 9.75597 8.73712C8.32117 8.73712 7.15434 9.90395 7.15434 11.3387C7.15434 11.5976 7.19402 11.8519 7.27207 12.0991C7.02819 12.3396 6.83466 12.6263 6.70277 12.9425C6.57089 13.2586 6.5033 13.5978 6.50394 13.9404C6.50394 14.1622 6.54296 14.3787 6.5989 14.5908H5.85353C5.49451 14.5908 5.20312 14.8822 5.20312 15.2412V16.542C5.20312 18.8347 6.53126 20.8178 8.45516 21.7778V23.0461C8.45516 24.1218 9.33061 24.9973 10.4064 24.9973H14.3088C15.3846 24.9973 16.26 24.1218 16.26 23.0461V21.7778C18.1839 20.8178 19.5121 18.834 19.5121 16.542V15.2412C19.5121 14.8822 19.2207 14.5908 18.8617 14.5908ZM8.41288 12.8444C8.55401 12.7551 8.65537 12.6149 8.69593 12.4529C8.7365 12.2909 8.71316 12.1195 8.63077 11.9742C8.51434 11.7687 8.45516 11.5553 8.45516 11.3387C8.45516 10.46 9.37548 9.78688 10.2399 10.1342C10.325 10.1685 10.4165 10.1843 10.5082 10.1806C10.5999 10.1769 10.6898 10.1537 10.7719 10.1127C10.8541 10.0717 10.9266 10.0137 10.9848 9.94265C11.043 9.87159 11.0855 9.78902 11.1095 9.70037C11.263 9.13322 11.7761 8.73712 12.3576 8.73712C12.9391 8.73712 13.4522 9.13322 13.6057 9.70037C13.6299 9.78894 13.6725 9.87142 13.7306 9.94246C13.7888 10.0135 13.8613 10.0715 13.9433 10.1127C14.0254 10.1539 14.1153 10.1771 14.207 10.1808C14.2987 10.1845 14.3902 10.1686 14.4753 10.1342C15.3404 9.78688 16.26 10.4594 16.26 11.3387C16.26 11.5553 16.2008 11.7687 16.0844 11.9742C16.002 12.1195 15.9787 12.2909 16.0193 12.4529C16.0598 12.6149 16.1612 12.7551 16.3023 12.8444C16.6828 13.0857 16.9104 13.4955 16.9104 13.9404C16.9104 14.2077 16.8298 14.4249 16.7303 14.5908H7.98491C7.86637 14.3946 7.80404 14.1696 7.80475 13.9404C7.80475 13.4955 8.03239 13.0857 8.41288 12.8444ZM14.9592 23.0461C14.9592 23.4044 14.6672 23.6965 14.3088 23.6965H10.4064C10.048 23.6965 9.75597 23.4044 9.75597 23.0461V22.3957H14.9592V23.0461ZM18.2113 16.542C18.2113 19.0526 16.169 21.0948 13.6584 21.0948H11.0568C8.54621 21.0948 6.50394 19.0526 6.50394 16.542V15.8916H18.2113V16.542Z" fill="#52006A"/>
<path d="M15.6095 17.1924C15.6095 17.5508 15.3175 17.8428 14.9591 17.8428V19.1436C16.0349 19.1436 16.9103 18.2682 16.9103 17.1924H15.6095ZM11.0566 11.9892H12.3575V13.29H11.0566V11.9892ZM13.6583 11.9892H14.9591V13.29H13.6583V11.9892ZM12.3575 18.4932H13.6583V19.794H12.3575V18.4932Z" fill="#52006A"/>
<path d="M21.4634 3.53387H3.25197C2.89294 3.53387 2.60156 3.82526 2.60156 4.18428V28.2493C2.60156 28.6083 2.89294 28.8997 3.25197 28.8997H21.4634C21.8224 28.8997 22.1138 28.6083 22.1138 28.2493V4.18428C22.1138 3.82526 21.8224 3.53387 21.4634 3.53387ZM20.8129 27.5989H3.90238V4.83469H20.8129V27.5989ZM18.8617 30.8509H5.8536C5.49457 30.8509 5.20319 31.1423 5.20319 31.5014V36.7046C5.20319 37.0636 5.49457 37.355 5.8536 37.355H18.8617C19.2208 37.355 19.5121 37.0636 19.5121 36.7046V31.5014C19.5121 31.1423 19.2208 30.8509 18.8617 30.8509ZM18.2113 36.0542H6.504V32.1518H18.2113V36.0542Z" fill="#52006A"/>
<path d="M7.80469 33.4526H16.9104V34.7534H7.80469V33.4526ZM23.4144 13.9404H24.7153V15.2412H23.4144V13.9404ZM26.0161 13.9404H32.5201V15.2412H26.0161V13.9404ZM23.4144 17.8428H24.7153V19.1436H23.4144V17.8428ZM26.0161 17.8428H32.5201V19.1436H26.0161V17.8428ZM23.4144 21.7453H24.7153V23.0461H23.4144V21.7453ZM26.0161 21.7453H32.5201V23.0461H26.0161V21.7453ZM33.8209 13.9404H36.4226V15.2412H33.8209V13.9404ZM33.8209 17.8428H36.4226V19.1436H33.8209V17.8428ZM33.8209 21.7453H36.4226V23.0461H33.8209V21.7453ZM35.7722 3.53387H24.0649C23.7058 3.53387 23.4144 3.82526 23.4144 4.18428V10.6883C23.4144 11.0474 23.7058 11.3388 24.0649 11.3388H35.7722C36.1312 11.3388 36.4226 11.0474 36.4226 10.6883V4.18428C36.4226 3.82526 36.1312 3.53387 35.7722 3.53387ZM35.1218 10.0379H24.7153V4.83469H35.1218V10.0379Z" fill="#52006A"/>
<path d="M26.0156 6.78592H33.8205V8.08673H26.0156V6.78592Z" fill="#52006A"/>
<rect x="24" y="27" width="25" height="25" fill="#F6F2F7"/>
<mask id="mask0_2994_15564" style="mask-type:luminance" maskUnits="userSpaceOnUse" x="24" y="26" width="28" height="27">
<path d="M51.25 52.25V26.75H24.75V52.25H51.25Z" fill="white" stroke="white" stroke-width="1.5"/>
</mask>
<g mask="url(#mask0_2994_15564)">
<path d="M40.6359 29.7068C41.5908 29.9432 42.5062 30.3076 43.3549 30.7892L44.2129 29.9663C44.3761 29.8097 44.5698 29.6855 44.7831 29.6008C44.9963 29.516 45.2249 29.4725 45.4558 29.4725C45.6865 29.4725 45.915 29.5161 46.1282 29.6008C46.3414 29.6856 46.535 29.8098 46.6982 29.9663L47.9405 31.1579C48.1038 31.3143 48.2333 31.5001 48.3216 31.7045C48.41 31.909 48.4554 32.1281 48.4554 32.3494C48.4555 32.5708 48.4101 32.79 48.3217 32.9945C48.2334 33.1991 48.1038 33.3849 47.9405 33.5414L47.0826 34.3642C47.5847 35.1783 47.9646 36.0561 48.2112 36.9719H49.4224C50.3928 36.9719 51.1797 37.7265 51.1797 38.6572V40.3426C51.1797 41.2733 50.3928 42.028 49.4224 42.028H48.2112C47.9646 42.9437 47.5847 43.8216 47.0826 44.6356L47.9405 45.4585C48.1038 45.615 48.2334 45.8008 48.3217 46.0053C48.41 46.2098 48.4555 46.4291 48.4554 46.6505C48.4554 46.8718 48.41 47.0909 48.3216 47.2954C48.2333 47.4998 48.1038 47.6856 47.9405 47.842L46.6982 49.0335C46.5351 49.1901 46.3414 49.3143 46.1282 49.399C45.915 49.4837 45.6865 49.5273 45.4558 49.5273C45.2249 49.5274 44.9963 49.4838 44.7831 49.3991C44.5698 49.3143 44.376 49.1901 44.2129 49.0335L43.3549 48.2106C42.5062 48.6923 41.5908 49.0566 40.6359 49.293V50.4547C40.6359 51.3854 39.8491 52.14 38.8786 52.14H37.1213C36.1509 52.14 35.3641 51.3854 35.3641 50.4547V49.293C34.4092 49.0566 33.4938 48.6923 32.6451 48.2106L31.7871 49.0335C31.6239 49.1901 31.4302 49.3143 31.2169 49.3991C31.0036 49.4838 30.7751 49.5274 30.5442 49.5273C30.3135 49.5273 30.085 49.4837 29.8718 49.399C29.6586 49.3143 29.4649 49.1901 29.3018 49.0335L28.0594 47.842C27.8962 47.6856 27.7667 47.4998 27.6783 47.2954C27.59 47.0909 27.5445 46.8718 27.5445 46.6505C27.5445 46.4291 27.5899 46.2098 27.6783 46.0053C27.7666 45.8008 27.8961 45.615 28.0594 45.4585L28.9174 44.6356C28.4153 43.8216 28.0353 42.9437 27.7888 42.028H26.5776C25.6072 42.028 24.8203 41.2733 24.8203 40.3426V38.6572C24.8203 37.7265 25.6072 36.9719 26.5776 36.9719H27.7888C28.0353 36.0561 28.4153 35.1782 28.9174 34.3642L28.0594 33.5414C27.8961 33.3849 27.7666 33.1991 27.6783 32.9945C27.5899 32.79 27.5445 32.5708 27.5445 32.3494C27.5445 32.1281 27.59 31.909 27.6783 31.7045C27.7667 31.5001 27.8962 31.3143 28.0594 31.1579L29.3018 29.9663C29.4649 29.8097 29.6586 29.6856 29.8718 29.6008C30.085 29.5161 30.3135 29.4725 30.5442 29.4725C30.7751 29.4725 31.0036 29.516 31.2169 29.6008C31.4301 29.6855 31.6239 29.8097 31.7871 29.9663L32.6451 30.7892C33.4938 30.3076 34.4092 29.9432 35.3641 29.7068V28.5452C35.3641 27.6144 36.1509 26.8598 37.1213 26.8598H38.8786C39.8491 26.8598 40.6359 27.6144 40.6359 28.5452V29.7068Z" stroke="#52006A" stroke-width="1.5" stroke-miterlimit="10" stroke-linecap="round" stroke-linejoin="round"/>
<path d="M38.0004 34.4439C40.91 34.4439 43.2723 36.7094 43.2723 39.4999C43.2723 42.2904 40.91 44.556 38.0004 44.556C35.0907 44.556 32.7285 42.2904 32.7285 39.4999C32.7285 36.7094 35.0907 34.4439 38.0004 34.4439Z" stroke="#52006A" stroke-width="1.5" stroke-miterlimit="10" stroke-linecap="round" stroke-linejoin="round"/>
</g>
</svg>
