<svg xmlns="http://www.w3.org/2000/svg" width="53" height="53" viewBox="0 0 53 53" fill="none">
  <path d="M15.7585 30.8037L15.7589 30.8031C14.7213 30.0952 13.584 29.5458 12.3844 29.1731C12.2516 29.1337 12.1352 29.0524 12.0524 28.9414C11.9695 28.8302 11.9248 28.6951 11.9251 28.5564M15.7585 30.8037L12.0195 28.5565M15.7585 30.8037L15.7687 30.809C16.3011 31.0851 16.7764 30.7166 16.7764 30.2828V26.0359L15.7585 30.8037ZM11.9251 28.5564C11.9251 28.5564 11.9251 28.5563 11.9251 28.5563L12.0195 28.5565M11.9251 28.5564V28.5565H12.0195M11.9251 28.5564V24.2922M12.0195 28.5565V24.2895M11.9251 24.2922C11.9251 24.2932 11.9252 24.2942 11.9253 24.2952L12.0195 24.2895M11.9251 24.2922C11.9194 24.1913 11.9386 24.0905 11.9809 23.9987C12.0236 23.906 12.0886 23.8253 12.17 23.7637C12.2515 23.7022 12.3469 23.6618 12.4478 23.6461C12.5483 23.6305 12.651 23.6399 12.7469 23.6734M11.9251 24.2922V24.2895H12.0195M12.0195 24.2895L12.7469 23.6734M12.7469 23.6734C12.7508 23.6746 12.7579 23.6768 12.7681 23.6799C13.0044 23.7519 14.896 24.328 16.5145 25.5184C16.5146 25.5184 16.5146 25.5184 16.5146 25.5184L16.4586 25.5945C16.5279 25.6454 16.5842 25.7118 16.623 25.7885C16.6618 25.8652 16.682 25.95 16.682 26.0359L12.7469 23.6734ZM12.7469 23.6734C12.7474 23.6736 12.7478 23.6737 12.7482 23.6738L12.7169 23.7629L12.746 23.6731C12.7463 23.6732 12.7466 23.6733 12.7469 23.6734ZM13.0927 13.2232L13.0916 13.3177C13.4616 13.3222 13.6819 13.0459 13.7202 12.7585C13.7586 12.4707 13.618 12.147 13.2555 12.0547C13.0747 12.0071 12.8924 11.9624 12.7088 11.9207L12.7088 11.9207L12.7082 11.9206C12.5426 11.8842 12.3693 11.9148 12.2262 12.0057C12.0831 12.0966 11.9818 12.2404 11.9443 12.4058C11.9069 12.5711 11.9364 12.7446 12.0263 12.8883C12.1163 13.032 12.2595 13.1342 12.4246 13.1727L12.4246 13.1727L12.4253 13.1728C12.4684 13.1826 12.5272 13.1963 12.5923 13.2115C12.6565 13.2265 12.727 13.2429 12.7948 13.2585C12.8622 13.2739 12.9264 13.2883 12.9768 13.2988C13.0019 13.3041 13.0243 13.3085 13.0422 13.3117C13.0569 13.3143 13.0771 13.3177 13.0927 13.3177V13.2232ZM13.0927 13.2232C13.0581 13.2232 12.809 13.1651 12.6143 13.1197C12.5486 13.1043 12.489 13.0904 12.4461 13.0807L12.6879 12.0128C12.8706 12.0543 13.0519 12.0988 13.2318 12.1461C13.8458 12.3021 13.717 13.2309 13.0927 13.2232ZM16.1636 14.5216L16.1636 14.5216C16.0099 14.4513 15.89 14.3233 15.8301 14.1652C15.7701 14.0071 15.775 13.8318 15.8436 13.6773C15.9121 13.5228 16.0389 13.4015 16.1963 13.3399C16.3537 13.2783 16.5291 13.2812 16.6843 13.3481L16.6853 13.3485L16.6853 13.3485C20.4345 15.0116 23.0196 17.8045 23.1415 17.9378M16.1636 14.5216L23.0726 18.0024M16.1636 14.5216L16.1646 14.522M16.1636 14.5216L16.1646 14.522M23.1415 17.9378C23.1418 17.9381 23.1421 17.9384 23.1423 17.9387L23.0726 18.0024M23.1415 17.9378C23.1412 17.9375 23.1409 17.9371 23.1406 17.9368L23.0726 18.0024M23.1415 17.9378C23.2002 17.9989 23.246 18.0713 23.2759 18.1506L23.1876 18.184M23.0726 18.0024C23.1229 18.0545 23.162 18.1163 23.1876 18.184M23.1876 18.184L23.2759 18.1506C23.3061 18.2304 23.3197 18.3154 23.3159 18.4005C23.3121 18.4857 23.2911 18.5691 23.254 18.6459C23.2169 18.7226 23.1646 18.791 23.1003 18.8469M23.1876 18.184L23.1003 18.8469M16.1646 14.522C19.4978 16.0005 21.9243 18.5177 22.1746 18.7834C22.1923 18.8021 22.2112 18.8205 22.2358 18.8386C22.3537 18.9253 22.495 18.9753 22.6418 18.9817C22.8017 18.9887 22.9595 18.9438 23.0916 18.8536L23.092 18.8541M16.1646 14.522L23.092 18.8541M23.092 18.8541L23.1003 18.8469M23.092 18.8541L23.1003 18.8469M23.1394 34.1122C23.0632 34.0304 21.2601 32.0984 19.1415 30.9204L19.1403 30.9197C18.9917 30.8399 18.8177 30.8218 18.6558 30.8693C18.494 30.9167 18.3574 31.026 18.2754 31.1734C18.1935 31.3208 18.1729 31.4946 18.218 31.6571C18.2632 31.8196 18.3705 31.9578 18.5167 32.0418L18.5179 32.0425C19.4839 32.5796 20.3997 33.3103 21.0774 33.9107C21.416 34.2106 21.6944 34.4774 21.8892 34.6702C21.9865 34.7667 22.063 34.8445 22.1155 34.8988C22.1418 34.926 22.1621 34.9472 22.176 34.9619L22.1921 34.9789L22.1965 34.9836L22.1977 34.9849L22.1981 34.9853L22.1982 34.9854L22.1983 34.9856C22.2368 35.027 22.2947 35.0642 22.3586 35.0935C22.4239 35.1234 22.5018 35.1479 22.585 35.1602C22.7502 35.1845 22.9489 35.1619 23.1048 35.0199L23.1052 35.0195C23.1672 34.9623 23.2174 34.8934 23.2527 34.8168C23.288 34.7401 23.3079 34.6573 23.311 34.5729C23.3142 34.4886 23.3007 34.4045 23.2712 34.3254C23.2417 34.2463 23.197 34.1739 23.1394 34.1122ZM23.1394 34.1122L23.0703 34.1766M23.1394 34.1122C23.1394 34.1122 23.1393 34.1122 23.1393 34.1121L23.0703 34.1766M23.0703 34.1766C23.1194 34.2292 23.1576 34.2909 23.1827 34.3584C23.2078 34.4258 23.2194 34.4975 23.2166 34.5694C23.2139 34.6413 23.197 34.7119 23.1669 34.7773C23.1368 34.8426 23.0941 34.9013 23.0412 34.9501C22.7851 35.1833 22.3754 35.0375 22.2675 34.9213C22.2503 34.9027 20.5128 33.0436 18.5638 31.9599C18.439 31.8883 18.3475 31.7704 18.309 31.6318C18.2705 31.4932 18.2881 31.345 18.358 31.2193C18.4279 31.0936 18.5444 31.0004 18.6824 30.9599C18.8205 30.9194 18.9689 30.9349 19.0956 31.0029C21.2002 32.1731 22.9947 34.0954 23.0703 34.1766ZM12.4252 17.2177L12.4461 17.1256L12.4252 17.2178C17.7426 18.4223 21.9047 22.5615 22.1951 22.8503C22.2 22.8552 22.2038 22.859 22.2065 22.8616C22.2643 22.9231 22.3337 22.9725 22.4108 23.0068C22.4883 23.0413 22.572 23.0599 22.6568 23.0615C22.7417 23.063 22.826 23.0475 22.9047 23.0158C22.9834 22.9841 23.055 22.937 23.1152 22.8771L23.1159 22.8763C23.2337 22.7564 23.301 22.5959 23.3042 22.4279C23.3073 22.2598 23.2459 22.097 23.1327 21.9727L23.1328 21.9727L23.131 21.9709C22.9468 21.7794 18.5751 17.2946 12.7089 15.9655C12.5429 15.9279 12.3687 15.9577 12.2246 16.0486C12.0806 16.1394 11.9786 16.2837 11.9409 16.4498C11.9033 16.6158 11.9332 16.79 12.024 16.934C12.1148 17.0781 12.2592 17.1801 12.4252 17.2177ZM12.4252 21.262L12.4461 21.1699L12.4252 21.262C17.9069 22.5039 22.1655 26.8633 22.2066 26.906L22.2061 26.9064L22.2146 26.9134C22.3397 27.016 22.4957 27.0734 22.6574 27.0763C22.8191 27.0793 22.9771 27.0276 23.1057 26.9296L23.106 26.9299L23.1124 26.924C23.1751 26.8664 23.2255 26.7967 23.2604 26.719C23.2954 26.6414 23.3142 26.5575 23.3158 26.4724C23.3174 26.3873 23.3017 26.3027 23.2696 26.2238C23.2377 26.1453 23.1903 26.074 23.1302 26.0143C22.9358 25.8131 18.5677 21.3372 12.7089 20.0098C12.5429 19.9721 12.3687 20.002 12.2246 20.0929C12.0806 20.1837 11.9786 20.328 11.9409 20.494C11.9033 20.6601 11.9332 20.8343 12.024 20.9783C12.1148 21.1224 12.2592 21.2244 12.4252 21.262ZM19.1416 26.8761L19.1404 26.8754C18.9919 26.7956 18.8178 26.7775 18.656 26.825C18.4942 26.8725 18.3575 26.9817 18.2756 27.1291C18.1937 27.2765 18.173 27.4503 18.2182 27.6128C18.2633 27.7753 18.3706 27.9135 18.5168 27.9975L18.518 27.9982C19.484 28.5354 20.3998 29.2661 21.0776 29.8665C21.4161 30.1664 21.6946 30.4331 21.8893 30.626C21.9867 30.7224 22.0631 30.8003 22.1157 30.8546C22.1419 30.8817 22.1622 30.9029 22.1762 30.9176L22.1923 30.9347L22.1966 30.9393L22.1979 30.9406L22.1982 30.941L22.1983 30.9411L22.1985 30.9413C22.2714 31.0198 22.4213 31.092 22.5822 31.1159C22.7471 31.1403 22.9448 31.1172 23.1039 30.9766L23.105 30.9756C23.1675 30.9186 23.218 30.8497 23.2536 30.773C23.2892 30.6963 23.3092 30.6132 23.3124 30.5287C23.3155 30.4442 23.3019 30.3598 23.2721 30.2807C23.2424 30.2017 23.1974 30.1293 23.1395 30.0679C23.0632 29.9861 21.2602 28.0538 19.1416 26.8761ZM15.4928 28.4642C15.4928 28.7536 15.1744 28.9441 14.9078 28.8094C14.4398 28.5729 13.9586 28.3631 13.4665 28.1811C13.3129 28.1243 13.2102 27.98 13.2102 27.819V25.7349C13.2102 25.4694 13.4725 25.2937 13.7077 25.3967C14.268 25.6423 14.8087 25.9309 15.325 26.26C15.4299 26.3269 15.4928 26.4443 15.4928 26.5709V28.4642Z" fill="#52006A" stroke="#52006A" stroke-width="0.188889"/>
  <path d="M51.7331 17.2297L51.7335 17.2299C51.8393 17.2834 51.9282 17.3654 51.9902 17.4665C52.0522 17.5677 52.0849 17.6841 52.0847 17.8027M51.7331 17.2297L0.990241 51.5657L0.895798 51.5654C0.895797 51.5654 0.895797 51.5655 0.895797 51.5656C0.895477 51.6653 0.917928 51.7638 0.961438 51.8535C1.00497 51.9433 1.06844 52.022 1.147 52.0835C1.22556 52.145 1.31714 52.1878 1.41474 52.2085C1.51235 52.2293 1.61341 52.2275 1.71021 52.2032L1.71021 52.2033L1.7127 52.2026C13.968 48.774 22.6358 51.1602 25.6472 51.9892C25.9035 52.0598 26.1188 52.1191 26.2919 52.1625C26.3779 52.1841 26.457 52.1842 26.5431 52.1627C26.7131 52.1202 26.9245 52.0625 27.1759 51.9939C30.1964 51.1697 38.9978 48.7681 51.2678 52.2026L51.2677 52.2029L51.2759 52.2045C51.5176 52.2494 51.7231 52.2131 51.8696 52.0936C52.0162 51.974 52.0847 51.7864 52.0847 51.569V17.8027M51.7331 17.2297C50.8536 16.7898 49.9499 16.4002 49.0264 16.0626L49.0261 16.0625M51.7331 17.2297L49.0261 16.0625M52.0847 17.8027L51.9902 17.8025H52.0847V17.8027ZM0.895797 17.8022C0.895797 17.8023 0.895798 17.8024 0.895798 17.8025L0.990241 17.802H0.895797V17.8022ZM0.895797 17.8022C0.895252 17.6864 0.926257 17.5727 0.985486 17.4732H0.985486L0.895797 17.8022ZM6.25732 6.6433C6.25732 6.64336 6.25732 6.64343 6.25732 6.64349L6.35176 6.64302H6.25732V6.6433ZM6.25732 6.6433C6.25691 6.55496 6.2748 6.4675 6.30987 6.38642C6.34496 6.30528 6.39649 6.2323 6.46121 6.17208C6.52593 6.11186 6.60244 6.06571 6.68589 6.03655C6.76934 6.00738 6.85794 5.99584 6.94608 6.00263L6.94727 6.00273L6.94727 6.00273C16.9457 6.90191 22.799 11.1502 26.5071 16.7027C26.6107 16.8578 26.8103 16.9178 26.9827 16.8459C27.388 16.6769 27.9293 16.4646 28.5896 16.2357C28.5898 16.2357 28.59 16.2356 28.5902 16.2355L28.6211 16.3248L6.25732 6.6433ZM49.0261 16.0625C48.9468 16.0338 48.8626 16.021 48.7784 16.0249M49.0261 16.0625L48.7784 16.0249M48.7784 16.0249C48.6942 16.0287 48.6115 16.0491 48.5352 16.0849M48.7784 16.0249L48.5352 16.0849M48.5352 16.0849C48.4589 16.1207 48.3903 16.1712 48.3335 16.2335M48.5352 16.0849L48.3335 16.2335M48.3335 16.2335C48.2767 16.2957 48.2327 16.3686 48.204 16.4479M48.3335 16.2335L48.204 16.4479M48.204 16.4479C48.1753 16.5272 48.1625 16.6113 48.1664 16.6956M48.204 16.4479L48.1664 16.6956M48.1664 16.6956C48.1702 16.7798 48.1906 16.8624 48.2264 16.9388M48.1664 16.6956L48.2264 16.9388M48.2264 16.9388C48.2622 17.0151 48.3127 17.0836 48.375 17.1405M48.2264 16.9388L48.375 17.1405M48.375 17.1405C48.4373 17.1973 48.5101 17.2413 48.5894 17.27M48.375 17.1405L48.5894 17.27M48.5894 17.27L48.6215 17.1812L48.5894 17.27ZM29.0086 17.4534C29.0089 17.4533 29.0092 17.4532 29.0095 17.4531L28.9785 17.3639L29.0077 17.4537C29.008 17.4536 29.0083 17.4535 29.0086 17.4534ZM2.17964 18.4367C2.17964 18.2904 2.26388 18.1576 2.39583 18.0971C3.49454 17.5927 4.62551 17.1622 5.78121 16.8081C6.01821 16.7355 6.25732 16.9145 6.25732 17.1656V35.7569C6.25732 35.9192 6.31878 36.0755 6.42934 36.1942C6.53968 36.3128 6.69075 36.3853 6.85226 36.3971C15.3469 37.1718 20.4005 40.3128 24.0407 44.641C24.1604 44.7833 24.1483 44.9519 24.0614 45.0747C23.974 45.1983 23.8134 45.2714 23.6337 45.2143C17.4045 43.235 10.6681 42.5056 2.71237 45.7334C2.45825 45.8365 2.17933 45.6512 2.17933 45.381L2.17964 18.4367ZM25.7738 50.1962C25.7738 50.4458 25.5352 50.6279 25.2924 50.5632C18.7212 48.8117 11.9963 48.39 2.65233 50.6303C2.41195 50.6879 2.17964 50.5066 2.17964 50.2619V50.0041C2.17964 49.854 2.26976 49.7175 2.40753 49.6595C12.4309 45.4374 23.0927 48.7849 25.5366 49.6623C25.6816 49.7143 25.7738 49.8509 25.7738 50.01V50.1962ZM25.7738 47.8537C25.7738 48.1124 25.5189 48.2962 25.2708 48.2157C19.0781 46.2062 10.7836 45.1168 2.70535 48.16C2.45172 48.2556 2.17964 48.0699 2.17964 47.8029V47.602C2.17964 47.4572 2.26326 47.3247 2.39371 47.2635C10.7056 43.3619 19.5887 44.7662 25.5484 47.2792C25.6858 47.3372 25.7738 47.4721 25.7738 47.6231V47.8537ZM25.7738 43.54C25.7738 43.9016 25.3071 44.0629 25.0729 43.7667C23.1152 41.2905 17.9864 36.063 7.89753 35.1924C7.69769 35.1752 7.54116 35.0087 7.54116 34.8121V7.75611C7.54116 7.53346 7.73454 7.35967 7.95488 7.38423C16.9174 8.38312 22.6965 12.8665 25.7209 17.8751C25.7557 17.9327 25.7738 17.9988 25.7738 18.067V43.54ZM50.8013 50.2355C50.8013 50.4871 50.5594 50.6702 50.3144 50.6035C42.4292 48.4551 33.1213 48.965 27.5528 50.5461C27.3048 50.6165 27.0576 50.432 27.0576 50.1772V50.0229C27.0576 49.8636 27.1498 49.7271 27.2948 49.6752C29.6928 48.8172 40.4989 45.4168 50.5734 49.6594C50.7112 49.7174 50.8013 49.8538 50.8013 50.004V50.2355ZM50.8013 47.8016C50.8013 48.0689 50.5287 48.2546 50.2749 48.1587C42.2025 45.1076 33.7446 46.2206 27.5609 48.2288C27.3127 48.3094 27.0576 48.1255 27.0576 47.8667V47.6227C27.0576 47.4718 27.1418 47.3399 27.2767 47.2826C29.8083 46.208 40.2133 42.3987 50.5862 47.2633C50.7169 47.3247 50.8013 47.4578 50.8013 47.6024V47.8016Z" fill="#52006A" stroke="#52006A" stroke-width="0.188889"/>
  <mask id="path-3-outside-1_2649_16775" maskUnits="userSpaceOnUse" x="26.3799" y="0" width="25" height="42" fill="black">
    <rect fill="white" x="26.3799" width="25" height="42"/>
    <path d="M51.0893 9.41829C50.9233 6.41488 48.1433 4.019 45.1774 4.25841C44.9815 4.27422 44.7906 4.17945 44.687 4.01245C42.195 -0.00302374 36.1126 -0.00488353 33.6165 4.01127C33.5179 4.16979 33.3361 4.26387 33.1497 4.25562C26.6416 3.96782 25.1022 13.7271 31.3205 15.2341C31.6739 15.2978 31.994 15.483 32.2254 15.7576C32.4569 16.0322 32.5852 16.3789 32.5883 16.7381V23.9114C32.589 24.5439 32.8406 25.1502 33.2878 25.5974C33.735 26.0446 34.3413 26.2961 34.9738 26.2968H43.3278C43.9602 26.2961 44.5666 26.0446 45.0138 25.5974C45.461 25.1502 45.7125 24.5439 45.7132 23.9114V16.7567C45.7156 16.4105 45.8347 16.0752 46.0513 15.8051C46.268 15.535 46.5694 15.346 46.9069 15.2686C49.3419 14.6806 51.2571 12.0014 51.0893 9.41829ZM43.3278 25.2019H34.9738C34.2273 25.175 33.8075 24.703 33.6997 24.0766C33.6497 23.7857 33.9451 23.5862 34.2334 23.6495C35.1723 23.8555 36.7427 24.0661 39.2413 24.0661C41.6749 24.0661 43.2006 24.0068 44.1061 23.9498C44.382 23.9324 44.6238 24.1585 44.5161 24.4131C44.4518 24.5652 44.3583 24.705 44.2392 24.824C43.9974 25.0656 43.6696 25.2015 43.3278 25.2019ZM46.6508 14.2035C46.6314 14.2081 45.1853 14.5422 42.9497 14.4427C42.2259 14.4255 42.1815 15.4876 42.9008 15.5366C43.294 15.5543 43.6876 15.56 44.081 15.5536C44.4514 15.5475 44.7164 15.9556 44.6543 16.3209C44.6299 16.464 44.6175 16.6094 44.6175 16.7556V22.3806C44.6175 22.6253 44.4308 22.8296 44.1867 22.8461C43.9487 22.8623 43.6568 22.879 43.3038 22.8949C43.0365 22.9069 42.8142 22.6925 42.8142 22.425V19.1102C42.8142 18.965 42.7566 18.8257 42.6539 18.7231C42.5512 18.6204 42.412 18.5627 42.2668 18.5627C42.1216 18.5627 41.9823 18.6204 41.8797 18.7231C41.777 18.8257 41.7193 18.965 41.7193 19.1102V22.4845C41.7193 22.7413 41.5141 22.9512 41.2574 22.9554C40.9444 22.9606 40.6082 22.9647 40.2481 22.9674C39.9866 22.9694 39.774 22.7575 39.774 22.496V19.1102C39.774 18.965 39.7164 18.8257 39.6137 18.7231C39.511 18.6204 39.3718 18.5627 39.2266 18.5627C39.0814 18.5627 38.9421 18.6204 38.8394 18.7231C38.7368 18.8257 38.6791 18.965 38.6791 19.1102V22.4877C38.6791 22.7511 38.4635 22.9639 38.2002 22.9568C37.8312 22.9469 37.4883 22.9319 37.1703 22.913C36.9238 22.8983 36.7337 22.6927 36.7337 22.4458V19.1102C36.7337 18.965 36.676 18.8257 36.5733 18.7231C36.4706 18.6204 36.3314 18.5627 36.1862 18.5627C36.041 18.5627 35.9017 18.6204 35.7991 18.7231C35.6964 18.8257 35.6387 18.965 35.6387 19.1102V22.2506C35.6387 22.5304 35.3966 22.7498 35.1203 22.7058C34.7454 22.6462 34.3744 22.5636 34.0094 22.4586C33.8133 22.4022 33.6825 22.22 33.6825 22.0159V16.7381C33.6752 16.1277 33.4581 15.5385 33.0678 15.0693C32.6774 14.6001 32.1375 14.2794 31.5387 14.1612C29.282 13.7005 28.4771 11.5994 28.4771 9.78697C28.4776 9.19237 28.5975 8.60392 28.8297 8.0565C29.0618 7.50909 29.4015 7.01385 29.8286 6.60014C30.2557 6.18643 30.7615 5.86267 31.316 5.64805C31.6958 5.50105 32.0932 5.40729 32.4968 5.36872C32.7884 5.34085 33.002 5.61319 32.9685 5.90414C32.9369 6.17749 32.9229 6.45277 32.9265 6.7283C32.9482 7.44878 34.0147 7.43752 34.0215 6.71798C34.0044 6.16901 34.0852 5.6214 34.26 5.10073C36.2297 1.07583 42.1157 1.09476 44.057 5.13201C44.2337 5.64114 44.3142 6.17865 44.2945 6.71719C44.2973 7.43533 45.3716 7.44768 45.3894 6.72752C45.3938 6.44483 45.379 6.16238 45.3453 5.88209C45.3114 5.601 45.5085 5.33352 45.7913 5.34621C47.971 5.44407 49.8684 7.26966 49.9961 9.48852C50.1298 11.5381 48.5662 13.7409 46.6508 14.2035ZM43.2827 35.1136C43.7814 35.1957 44.2921 35.1659 44.7779 35.0264C45.2636 34.8868 45.7122 34.641 46.0913 34.3068L47.7661 32.8347C47.8213 32.7876 47.8666 32.7299 47.8993 32.6652C47.932 32.6004 47.9515 32.5298 47.9567 32.4574C47.9619 32.385 47.9527 32.3123 47.9295 32.2436C47.9064 32.1748 47.8698 32.1113 47.8219 32.0568C47.7739 32.0023 47.7157 31.9579 47.6504 31.9261C47.5852 31.8943 47.5143 31.8758 47.4419 31.8717C47.3694 31.8675 47.2969 31.8778 47.2284 31.902C47.16 31.9261 47.0971 31.9637 47.0433 32.0124L45.3685 33.4844C44.0574 34.6214 42.9335 33.545 41.4212 34.3183C41.2592 34.4012 41.0617 34.3963 40.9171 34.2858C40.7138 34.1303 40.6916 33.8341 40.8388 33.6247C41.1621 33.1646 41.3682 32.6295 41.4351 32.0662C41.4439 31.7386 41.518 31.4162 41.6529 31.1176C41.7878 30.819 41.9808 30.5503 42.2208 30.3272L44.081 28.6496C44.1344 28.6015 44.1778 28.5433 44.2087 28.4784C44.2396 28.4134 44.2574 28.3431 44.2612 28.2713C44.2649 28.1995 44.2544 28.1276 44.2304 28.0599C44.2064 27.9921 44.1692 27.9297 44.1211 27.8763C44.0729 27.8229 44.0147 27.7795 43.9498 27.7486C43.8849 27.7177 43.8146 27.6998 43.7428 27.6961C43.6709 27.6924 43.5991 27.7028 43.5313 27.7269C43.4636 27.7509 43.4012 27.7881 43.3478 27.8362L41.4875 29.5137C40.0739 30.7588 40.6797 31.9471 39.9274 33.0127C39.7916 33.2051 39.5219 33.2188 39.3348 33.0757L32.8802 28.1406C32.8068 28.0844 32.7203 28.0478 32.6288 28.034C32.5374 28.0203 32.444 28.03 32.3573 28.0621C32.2706 28.0943 32.1934 28.1478 32.1331 28.2179C32.0727 28.2879 32.031 28.372 32.0119 28.4625C31.1965 32.0346 32.4066 34.7472 35.2376 35.7939C35.6162 35.9339 35.7296 36.4563 35.4089 36.7015L32.314 39.0678C30.9093 40.2229 32.4704 42.3088 33.9737 41.2868L38.5247 37.9731C39.0983 37.5406 38.4698 36.6737 37.8799 37.0879L33.328 40.4027C33.2663 40.4489 33.1888 40.4687 33.1125 40.4578C33.0362 40.4468 32.9674 40.406 32.9212 40.3443C32.875 40.2826 32.8552 40.2051 32.8661 40.1288C32.877 40.0525 32.9178 39.9837 32.9795 39.9375L37.6273 36.384C37.7097 36.321 37.8105 36.286 37.9141 36.2896C38.4013 36.3063 38.8803 36.4058 39.2678 36.7052L45.5114 41.2861C45.8059 41.5006 46.1729 41.5905 46.5331 41.5363C46.8933 41.4822 47.2177 41.2883 47.4361 40.9968C47.6545 40.7053 47.7493 40.3394 47.7 39.9785C47.6507 39.6176 47.4612 39.2907 47.1726 39.0684L42.8282 35.7466C42.5303 35.5189 42.6174 35.0724 42.9922 35.0853C43.0892 35.0886 43.1863 35.098 43.2827 35.1136ZM46.5071 39.9384C46.5661 39.9836 46.6056 40.0497 46.6174 40.1231C46.6292 40.1965 46.6124 40.2717 46.5704 40.3331C46.5493 40.3663 46.5215 40.3948 46.4887 40.4166C46.4559 40.4384 46.4189 40.4531 46.3801 40.4597C46.3413 40.4664 46.3015 40.4648 46.2634 40.4551C46.2252 40.4454 46.1895 40.4278 46.1586 40.4035L39.915 35.823C39.3854 35.4356 38.7497 35.2204 38.0937 35.2063C35.2201 35.1513 32.7271 33.7852 32.8597 30.3636C32.8737 30.0033 33.2874 29.8311 33.5739 30.0501L46.5071 39.9384Z"/>
  </mask>
  <path d="M51.0893 9.41829C50.9233 6.41488 48.1433 4.019 45.1774 4.25841C44.9815 4.27422 44.7906 4.17945 44.687 4.01245C42.195 -0.00302374 36.1126 -0.00488353 33.6165 4.01127C33.5179 4.16979 33.3361 4.26387 33.1497 4.25562C26.6416 3.96782 25.1022 13.7271 31.3205 15.2341C31.6739 15.2978 31.994 15.483 32.2254 15.7576C32.4569 16.0322 32.5852 16.3789 32.5883 16.7381V23.9114C32.589 24.5439 32.8406 25.1502 33.2878 25.5974C33.735 26.0446 34.3413 26.2961 34.9738 26.2968H43.3278C43.9602 26.2961 44.5666 26.0446 45.0138 25.5974C45.461 25.1502 45.7125 24.5439 45.7132 23.9114V16.7567C45.7156 16.4105 45.8347 16.0752 46.0513 15.8051C46.268 15.535 46.5694 15.346 46.9069 15.2686C49.3419 14.6806 51.2571 12.0014 51.0893 9.41829ZM43.3278 25.2019H34.9738C34.2273 25.175 33.8075 24.703 33.6997 24.0766C33.6497 23.7857 33.9451 23.5862 34.2334 23.6495C35.1723 23.8555 36.7427 24.0661 39.2413 24.0661C41.6749 24.0661 43.2006 24.0068 44.1061 23.9498C44.382 23.9324 44.6238 24.1585 44.5161 24.4131C44.4518 24.5652 44.3583 24.705 44.2392 24.824C43.9974 25.0656 43.6696 25.2015 43.3278 25.2019ZM46.6508 14.2035C46.6314 14.2081 45.1853 14.5422 42.9497 14.4427C42.2259 14.4255 42.1815 15.4876 42.9008 15.5366C43.294 15.5543 43.6876 15.56 44.081 15.5536C44.4514 15.5475 44.7164 15.9556 44.6543 16.3209C44.6299 16.464 44.6175 16.6094 44.6175 16.7556V22.3806C44.6175 22.6253 44.4308 22.8296 44.1867 22.8461C43.9487 22.8623 43.6568 22.879 43.3038 22.8949C43.0365 22.9069 42.8142 22.6925 42.8142 22.425V19.1102C42.8142 18.965 42.7566 18.8257 42.6539 18.7231C42.5512 18.6204 42.412 18.5627 42.2668 18.5627C42.1216 18.5627 41.9823 18.6204 41.8797 18.7231C41.777 18.8257 41.7193 18.965 41.7193 19.1102V22.4845C41.7193 22.7413 41.5141 22.9512 41.2574 22.9554C40.9444 22.9606 40.6082 22.9647 40.2481 22.9674C39.9866 22.9694 39.774 22.7575 39.774 22.496V19.1102C39.774 18.965 39.7164 18.8257 39.6137 18.7231C39.511 18.6204 39.3718 18.5627 39.2266 18.5627C39.0814 18.5627 38.9421 18.6204 38.8394 18.7231C38.7368 18.8257 38.6791 18.965 38.6791 19.1102V22.4877C38.6791 22.7511 38.4635 22.9639 38.2002 22.9568C37.8312 22.9469 37.4883 22.9319 37.1703 22.913C36.9238 22.8983 36.7337 22.6927 36.7337 22.4458V19.1102C36.7337 18.965 36.676 18.8257 36.5733 18.7231C36.4706 18.6204 36.3314 18.5627 36.1862 18.5627C36.041 18.5627 35.9017 18.6204 35.7991 18.7231C35.6964 18.8257 35.6387 18.965 35.6387 19.1102V22.2506C35.6387 22.5304 35.3966 22.7498 35.1203 22.7058C34.7454 22.6462 34.3744 22.5636 34.0094 22.4586C33.8133 22.4022 33.6825 22.22 33.6825 22.0159V16.7381C33.6752 16.1277 33.4581 15.5385 33.0678 15.0693C32.6774 14.6001 32.1375 14.2794 31.5387 14.1612C29.282 13.7005 28.4771 11.5994 28.4771 9.78697C28.4776 9.19237 28.5975 8.60392 28.8297 8.0565C29.0618 7.50909 29.4015 7.01385 29.8286 6.60014C30.2557 6.18643 30.7615 5.86267 31.316 5.64805C31.6958 5.50105 32.0932 5.40729 32.4968 5.36872C32.7884 5.34085 33.002 5.61319 32.9685 5.90414C32.9369 6.17749 32.9229 6.45277 32.9265 6.7283C32.9482 7.44878 34.0147 7.43752 34.0215 6.71798C34.0044 6.16901 34.0852 5.6214 34.26 5.10073C36.2297 1.07583 42.1157 1.09476 44.057 5.13201C44.2337 5.64114 44.3142 6.17865 44.2945 6.71719C44.2973 7.43533 45.3716 7.44768 45.3894 6.72752C45.3938 6.44483 45.379 6.16238 45.3453 5.88209C45.3114 5.601 45.5085 5.33352 45.7913 5.34621C47.971 5.44407 49.8684 7.26966 49.9961 9.48852C50.1298 11.5381 48.5662 13.7409 46.6508 14.2035ZM43.2827 35.1136C43.7814 35.1957 44.2921 35.1659 44.7779 35.0264C45.2636 34.8868 45.7122 34.641 46.0913 34.3068L47.7661 32.8347C47.8213 32.7876 47.8666 32.7299 47.8993 32.6652C47.932 32.6004 47.9515 32.5298 47.9567 32.4574C47.9619 32.385 47.9527 32.3123 47.9295 32.2436C47.9064 32.1748 47.8698 32.1113 47.8219 32.0568C47.7739 32.0023 47.7157 31.9579 47.6504 31.9261C47.5852 31.8943 47.5143 31.8758 47.4419 31.8717C47.3694 31.8675 47.2969 31.8778 47.2284 31.902C47.16 31.9261 47.0971 31.9637 47.0433 32.0124L45.3685 33.4844C44.0574 34.6214 42.9335 33.545 41.4212 34.3183C41.2592 34.4012 41.0617 34.3963 40.9171 34.2858C40.7138 34.1303 40.6916 33.8341 40.8388 33.6247C41.1621 33.1646 41.3682 32.6295 41.4351 32.0662C41.4439 31.7386 41.518 31.4162 41.6529 31.1176C41.7878 30.819 41.9808 30.5503 42.2208 30.3272L44.081 28.6496C44.1344 28.6015 44.1778 28.5433 44.2087 28.4784C44.2396 28.4134 44.2574 28.3431 44.2612 28.2713C44.2649 28.1995 44.2544 28.1276 44.2304 28.0599C44.2064 27.9921 44.1692 27.9297 44.1211 27.8763C44.0729 27.8229 44.0147 27.7795 43.9498 27.7486C43.8849 27.7177 43.8146 27.6998 43.7428 27.6961C43.6709 27.6924 43.5991 27.7028 43.5313 27.7269C43.4636 27.7509 43.4012 27.7881 43.3478 27.8362L41.4875 29.5137C40.0739 30.7588 40.6797 31.9471 39.9274 33.0127C39.7916 33.2051 39.5219 33.2188 39.3348 33.0757L32.8802 28.1406C32.8068 28.0844 32.7203 28.0478 32.6288 28.034C32.5374 28.0203 32.444 28.03 32.3573 28.0621C32.2706 28.0943 32.1934 28.1478 32.1331 28.2179C32.0727 28.2879 32.031 28.372 32.0119 28.4625C31.1965 32.0346 32.4066 34.7472 35.2376 35.7939C35.6162 35.9339 35.7296 36.4563 35.4089 36.7015L32.314 39.0678C30.9093 40.2229 32.4704 42.3088 33.9737 41.2868L38.5247 37.9731C39.0983 37.5406 38.4698 36.6737 37.8799 37.0879L33.328 40.4027C33.2663 40.4489 33.1888 40.4687 33.1125 40.4578C33.0362 40.4468 32.9674 40.406 32.9212 40.3443C32.875 40.2826 32.8552 40.2051 32.8661 40.1288C32.877 40.0525 32.9178 39.9837 32.9795 39.9375L37.6273 36.384C37.7097 36.321 37.8105 36.286 37.9141 36.2896C38.4013 36.3063 38.8803 36.4058 39.2678 36.7052L45.5114 41.2861C45.8059 41.5006 46.1729 41.5905 46.5331 41.5363C46.8933 41.4822 47.2177 41.2883 47.4361 40.9968C47.6545 40.7053 47.7493 40.3394 47.7 39.9785C47.6507 39.6176 47.4612 39.2907 47.1726 39.0684L42.8282 35.7466C42.5303 35.5189 42.6174 35.0724 42.9922 35.0853C43.0892 35.0886 43.1863 35.098 43.2827 35.1136ZM46.5071 39.9384C46.5661 39.9836 46.6056 40.0497 46.6174 40.1231C46.6292 40.1965 46.6124 40.2717 46.5704 40.3331C46.5493 40.3663 46.5215 40.3948 46.4887 40.4166C46.4559 40.4384 46.4189 40.4531 46.3801 40.4597C46.3413 40.4664 46.3015 40.4648 46.2634 40.4551C46.2252 40.4454 46.1895 40.4278 46.1586 40.4035L39.915 35.823C39.3854 35.4356 38.7497 35.2204 38.0937 35.2063C35.2201 35.1513 32.7271 33.7852 32.8597 30.3636C32.8737 30.0033 33.2874 29.8311 33.5739 30.0501L46.5071 39.9384Z" fill="#52006A"/>
  <path d="M51.0893 9.41829C50.9233 6.41488 48.1433 4.019 45.1774 4.25841C44.9815 4.27422 44.7906 4.17945 44.687 4.01245C42.195 -0.00302374 36.1126 -0.00488353 33.6165 4.01127C33.5179 4.16979 33.3361 4.26387 33.1497 4.25562C26.6416 3.96782 25.1022 13.7271 31.3205 15.2341C31.6739 15.2978 31.994 15.483 32.2254 15.7576C32.4569 16.0322 32.5852 16.3789 32.5883 16.7381V23.9114C32.589 24.5439 32.8406 25.1502 33.2878 25.5974C33.735 26.0446 34.3413 26.2961 34.9738 26.2968H43.3278C43.9602 26.2961 44.5666 26.0446 45.0138 25.5974C45.461 25.1502 45.7125 24.5439 45.7132 23.9114V16.7567C45.7156 16.4105 45.8347 16.0752 46.0513 15.8051C46.268 15.535 46.5694 15.346 46.9069 15.2686C49.3419 14.6806 51.2571 12.0014 51.0893 9.41829ZM43.3278 25.2019H34.9738C34.2273 25.175 33.8075 24.703 33.6997 24.0766C33.6497 23.7857 33.9451 23.5862 34.2334 23.6495C35.1723 23.8555 36.7427 24.0661 39.2413 24.0661C41.6749 24.0661 43.2006 24.0068 44.1061 23.9498C44.382 23.9324 44.6238 24.1585 44.5161 24.4131C44.4518 24.5652 44.3583 24.705 44.2392 24.824C43.9974 25.0656 43.6696 25.2015 43.3278 25.2019ZM46.6508 14.2035C46.6314 14.2081 45.1853 14.5422 42.9497 14.4427C42.2259 14.4255 42.1815 15.4876 42.9008 15.5366C43.294 15.5543 43.6876 15.56 44.081 15.5536C44.4514 15.5475 44.7164 15.9556 44.6543 16.3209C44.6299 16.464 44.6175 16.6094 44.6175 16.7556V22.3806C44.6175 22.6253 44.4308 22.8296 44.1867 22.8461C43.9487 22.8623 43.6568 22.879 43.3038 22.8949C43.0365 22.9069 42.8142 22.6925 42.8142 22.425V19.1102C42.8142 18.965 42.7566 18.8257 42.6539 18.7231C42.5512 18.6204 42.412 18.5627 42.2668 18.5627C42.1216 18.5627 41.9823 18.6204 41.8797 18.7231C41.777 18.8257 41.7193 18.965 41.7193 19.1102V22.4845C41.7193 22.7413 41.5141 22.9512 41.2574 22.9554C40.9444 22.9606 40.6082 22.9647 40.2481 22.9674C39.9866 22.9694 39.774 22.7575 39.774 22.496V19.1102C39.774 18.965 39.7164 18.8257 39.6137 18.7231C39.511 18.6204 39.3718 18.5627 39.2266 18.5627C39.0814 18.5627 38.9421 18.6204 38.8394 18.7231C38.7368 18.8257 38.6791 18.965 38.6791 19.1102V22.4877C38.6791 22.7511 38.4635 22.9639 38.2002 22.9568C37.8312 22.9469 37.4883 22.9319 37.1703 22.913C36.9238 22.8983 36.7337 22.6927 36.7337 22.4458V19.1102C36.7337 18.965 36.676 18.8257 36.5733 18.7231C36.4706 18.6204 36.3314 18.5627 36.1862 18.5627C36.041 18.5627 35.9017 18.6204 35.7991 18.7231C35.6964 18.8257 35.6387 18.965 35.6387 19.1102V22.2506C35.6387 22.5304 35.3966 22.7498 35.1203 22.7058C34.7454 22.6462 34.3744 22.5636 34.0094 22.4586C33.8133 22.4022 33.6825 22.22 33.6825 22.0159V16.7381C33.6752 16.1277 33.4581 15.5385 33.0678 15.0693C32.6774 14.6001 32.1375 14.2794 31.5387 14.1612C29.282 13.7005 28.4771 11.5994 28.4771 9.78697C28.4776 9.19237 28.5975 8.60392 28.8297 8.0565C29.0618 7.50909 29.4015 7.01385 29.8286 6.60014C30.2557 6.18643 30.7615 5.86267 31.316 5.64805C31.6958 5.50105 32.0932 5.40729 32.4968 5.36872C32.7884 5.34085 33.002 5.61319 32.9685 5.90414C32.9369 6.17749 32.9229 6.45277 32.9265 6.7283C32.9482 7.44878 34.0147 7.43752 34.0215 6.71798C34.0044 6.16901 34.0852 5.6214 34.26 5.10073C36.2297 1.07583 42.1157 1.09476 44.057 5.13201C44.2337 5.64114 44.3142 6.17865 44.2945 6.71719C44.2973 7.43533 45.3716 7.44768 45.3894 6.72752C45.3938 6.44483 45.379 6.16238 45.3453 5.88209C45.3114 5.601 45.5085 5.33352 45.7913 5.34621C47.971 5.44407 49.8684 7.26966 49.9961 9.48852C50.1298 11.5381 48.5662 13.7409 46.6508 14.2035ZM43.2827 35.1136C43.7814 35.1957 44.2921 35.1659 44.7779 35.0264C45.2636 34.8868 45.7122 34.641 46.0913 34.3068L47.7661 32.8347C47.8213 32.7876 47.8666 32.7299 47.8993 32.6652C47.932 32.6004 47.9515 32.5298 47.9567 32.4574C47.9619 32.385 47.9527 32.3123 47.9295 32.2436C47.9064 32.1748 47.8698 32.1113 47.8219 32.0568C47.7739 32.0023 47.7157 31.9579 47.6504 31.9261C47.5852 31.8943 47.5143 31.8758 47.4419 31.8717C47.3694 31.8675 47.2969 31.8778 47.2284 31.902C47.16 31.9261 47.0971 31.9637 47.0433 32.0124L45.3685 33.4844C44.0574 34.6214 42.9335 33.545 41.4212 34.3183C41.2592 34.4012 41.0617 34.3963 40.9171 34.2858C40.7138 34.1303 40.6916 33.8341 40.8388 33.6247C41.1621 33.1646 41.3682 32.6295 41.4351 32.0662C41.4439 31.7386 41.518 31.4162 41.6529 31.1176C41.7878 30.819 41.9808 30.5503 42.2208 30.3272L44.081 28.6496C44.1344 28.6015 44.1778 28.5433 44.2087 28.4784C44.2396 28.4134 44.2574 28.3431 44.2612 28.2713C44.2649 28.1995 44.2544 28.1276 44.2304 28.0599C44.2064 27.9921 44.1692 27.9297 44.1211 27.8763C44.0729 27.8229 44.0147 27.7795 43.9498 27.7486C43.8849 27.7177 43.8146 27.6998 43.7428 27.6961C43.6709 27.6924 43.5991 27.7028 43.5313 27.7269C43.4636 27.7509 43.4012 27.7881 43.3478 27.8362L41.4875 29.5137C40.0739 30.7588 40.6797 31.9471 39.9274 33.0127C39.7916 33.2051 39.5219 33.2188 39.3348 33.0757L32.8802 28.1406C32.8068 28.0844 32.7203 28.0478 32.6288 28.034C32.5374 28.0203 32.444 28.03 32.3573 28.0621C32.2706 28.0943 32.1934 28.1478 32.1331 28.2179C32.0727 28.2879 32.031 28.372 32.0119 28.4625C31.1965 32.0346 32.4066 34.7472 35.2376 35.7939C35.6162 35.9339 35.7296 36.4563 35.4089 36.7015L32.314 39.0678C30.9093 40.2229 32.4704 42.3088 33.9737 41.2868L38.5247 37.9731C39.0983 37.5406 38.4698 36.6737 37.8799 37.0879L33.328 40.4027C33.2663 40.4489 33.1888 40.4687 33.1125 40.4578C33.0362 40.4468 32.9674 40.406 32.9212 40.3443C32.875 40.2826 32.8552 40.2051 32.8661 40.1288C32.877 40.0525 32.9178 39.9837 32.9795 39.9375L37.6273 36.384C37.7097 36.321 37.8105 36.286 37.9141 36.2896C38.4013 36.3063 38.8803 36.4058 39.2678 36.7052L45.5114 41.2861C45.8059 41.5006 46.1729 41.5905 46.5331 41.5363C46.8933 41.4822 47.2177 41.2883 47.4361 40.9968C47.6545 40.7053 47.7493 40.3394 47.7 39.9785C47.6507 39.6176 47.4612 39.2907 47.1726 39.0684L42.8282 35.7466C42.5303 35.5189 42.6174 35.0724 42.9922 35.0853C43.0892 35.0886 43.1863 35.098 43.2827 35.1136ZM46.5071 39.9384C46.5661 39.9836 46.6056 40.0497 46.6174 40.1231C46.6292 40.1965 46.6124 40.2717 46.5704 40.3331C46.5493 40.3663 46.5215 40.3948 46.4887 40.4166C46.4559 40.4384 46.4189 40.4531 46.3801 40.4597C46.3413 40.4664 46.3015 40.4648 46.2634 40.4551C46.2252 40.4454 46.1895 40.4278 46.1586 40.4035L39.915 35.823C39.3854 35.4356 38.7497 35.2204 38.0937 35.2063C35.2201 35.1513 32.7271 33.7852 32.8597 30.3636C32.8737 30.0033 33.2874 29.8311 33.5739 30.0501L46.5071 39.9384Z" stroke="#52006A" stroke-width="0.377778" mask="url(#path-3-outside-1_2649_16775)"/>
  <path d="M45.0618 29.9918L45.0618 29.9918C45.1914 29.8814 45.3596 29.827 45.5293 29.8406C45.699 29.8541 45.8563 29.9346 45.9667 30.0642C46.0771 30.1938 46.1315 30.362 46.1179 30.5317C46.1043 30.7014 46.0239 30.8587 45.8943 30.9691L45.0618 29.9918ZM45.0618 29.9918L42.3024 32.3426M45.0618 29.9918L42.3024 32.3426M42.3024 32.3426C42.3024 32.3426 42.3024 32.3426 42.3024 32.3426L42.3024 32.3426ZM43.1349 33.3203L45.8943 30.9691L42.3018 33.1868L42.2299 33.248C42.2299 33.248 42.23 33.248 42.23 33.2481C42.3404 33.3776 42.4977 33.458 42.6674 33.4716C42.8371 33.4851 43.0053 33.4307 43.1349 33.3203C43.1349 33.3203 43.1349 33.3203 43.1349 33.3203Z" fill="#52006A" stroke="#52006A" stroke-width="0.188889"/>
</svg>