<svg width="47" height="47" viewBox="0 0 47 47" fill="none" xmlns="http://www.w3.org/2000/svg">
<path d="M10.9375 25.7812C13.758 25.7831 16.4682 24.6863 18.4937 22.7235L18.9788 23.2087C19.0514 23.2812 19.1375 23.3388 19.2323 23.378C19.3271 23.4173 19.4287 23.4375 19.5312 23.4375H31.25V21.875H19.8548L19.5444 21.5646C21.0568 19.6512 21.8781 17.2827 21.875 14.8438C21.875 14.6365 21.7927 14.4378 21.6462 14.2913C21.4997 14.1448 21.301 14.0625 21.0938 14.0625H11.7188V4.6875C11.7188 4.4803 11.6364 4.28159 11.4899 4.13507C11.3434 3.98856 11.1447 3.90625 10.9375 3.90625C8.03669 3.90625 5.2547 5.05859 3.20352 7.10977C1.15234 9.16095 0 11.9429 0 14.8438C0 17.7446 1.15234 20.5266 3.20352 22.5777C5.2547 24.6289 8.03669 25.7812 10.9375 25.7812ZM4.32246 8.22871C5.8809 6.65484 7.94921 5.68785 10.1562 5.50127V14.8438C10.1562 15.051 10.2386 15.2497 10.3851 15.3962C10.5316 15.5427 10.7303 15.625 10.9375 15.625H20.28C20.1334 17.3761 19.4916 19.0493 18.4295 20.4492L16.1774 18.1972L15.0726 19.3021L17.3888 21.6183C15.6083 23.3258 13.2253 24.2608 10.7587 24.2199C8.29214 24.179 5.94154 23.1655 4.21862 21.3999C2.49569 19.6343 1.53991 17.2596 1.55935 14.7927C1.57878 12.3259 2.57184 9.96655 4.32236 8.22832L4.32246 8.22871Z" fill="#52006A"/>
<path d="M14.8438 11.7188H25C25.2072 11.7188 25.4059 11.6364 25.5524 11.4899C25.6989 11.3434 25.7812 11.1447 25.7812 10.9375C25.7839 9.07492 25.3048 7.24331 24.3906 5.62051L25.3235 4.6875H31.25V3.125H25C24.8974 3.125 24.7958 3.1452 24.701 3.18446C24.6062 3.22372 24.5201 3.28127 24.4476 3.35381L23.5092 4.29209C23.2171 3.91432 22.9013 3.55552 22.5637 3.21787C21.5536 2.19771 20.3512 1.38802 19.026 0.835674C17.7009 0.283326 16.2794 -0.000711613 14.8438 1.33884e-06C14.6365 1.33884e-06 14.4378 0.0823113 14.2913 0.228824C14.1448 0.375337 14.0625 0.574051 14.0625 0.781251V10.9375C14.0625 11.1447 14.1448 11.3434 14.2913 11.4899C14.4378 11.6364 14.6365 11.7188 14.8438 11.7188ZM15.625 1.59502C17.832 1.7816 19.9003 2.74859 21.4588 4.32246C21.7966 4.66092 22.1087 5.02403 22.3926 5.40879L20.5413 7.26006L21.6462 8.36494L23.2341 6.77705C23.7647 7.83207 24.0879 8.97912 24.1862 10.156H15.625V1.59502ZM16.4062 26.5625C16.199 26.5625 16.0003 26.6448 15.8538 26.7913C15.7073 26.9378 15.625 27.1365 15.625 27.3438V42.9688C15.625 43.1759 15.7073 43.3747 15.8538 43.5212C16.0003 43.6677 16.199 43.75 16.4062 43.75H19.5312C19.7385 43.75 19.9372 43.6677 20.0837 43.5212C20.2302 43.3747 20.3125 43.1759 20.3125 42.9688V27.3438C20.3125 27.1365 20.2302 26.9378 20.0837 26.7913C19.9372 26.6448 19.7385 26.5625 19.5312 26.5625H16.4062ZM18.75 42.1875H17.1875V28.125H18.75V42.1875ZM10.1562 29.6875C9.94905 29.6875 9.75034 29.7698 9.60382 29.9163C9.45731 30.0628 9.375 30.2615 9.375 30.4688V42.9688C9.375 43.1759 9.45731 43.3747 9.60382 43.5212C9.75034 43.6677 9.94905 43.75 10.1562 43.75H13.2812C13.4885 43.75 13.6872 43.6677 13.8337 43.5212C13.9802 43.3747 14.0625 43.1759 14.0625 42.9688V30.4688C14.0625 30.2615 13.9802 30.0628 13.8337 29.9163C13.6872 29.7698 13.4885 29.6875 13.2812 29.6875H10.1562ZM12.5 42.1875H10.9375V31.25H12.5V42.1875ZM3.90625 34.375C3.69905 34.375 3.50034 34.4573 3.35382 34.6038C3.20731 34.7503 3.125 34.9491 3.125 35.1562V42.9688C3.125 43.1759 3.20731 43.3747 3.35382 43.5212C3.50034 43.6677 3.69905 43.75 3.90625 43.75H7.03125C7.23845 43.75 7.43716 43.6677 7.58368 43.5212C7.73019 43.3747 7.8125 43.1759 7.8125 42.9688V35.1562C7.8125 34.9491 7.73019 34.7503 7.58368 34.6038C7.43716 34.4573 7.23845 34.375 7.03125 34.375H3.90625ZM6.25 42.1875H4.6875V35.9375H6.25V42.1875Z" fill="#52006A"/>
<path d="M1.5625 26.5625H0V46.0938C0 46.3009 0.08231 46.4997 0.228823 46.6462C0.375336 46.7927 0.57405 46.875 0.78125 46.875H23.4375V45.3125H1.5625V26.5625ZM32.8125 3.125H39.0625V4.6875H32.8125V3.125ZM32.8125 6.25H39.0625V7.8125H32.8125V6.25ZM32.8125 9.375H39.0625V10.9375H32.8125V9.375ZM40.625 6.25H46.875V7.8125H40.625V6.25ZM40.625 9.375H46.875V10.9375H40.625V9.375ZM32.8125 21.875H39.0625V23.4375H32.8125V21.875ZM40.625 21.875H46.875V23.4375H40.625V21.875ZM32.8125 18.75H39.0625V20.3125H32.8125V18.75ZM40.625 18.75H46.875V20.3125H40.625V18.75ZM32.8125 15.625H39.0625V17.1875H32.8125V15.625ZM40.625 15.625H46.875V17.1875H40.625V15.625ZM46.3928 28.1845C46.25 28.1253 46.0929 28.1098 45.9414 28.14C45.7898 28.1701 45.6506 28.2445 45.5413 28.3538L37.5 36.3952L34.1462 33.0413C34.0736 32.9688 33.9875 32.9112 33.8927 32.8719C33.7979 32.8327 33.6964 32.8125 33.5938 32.8125C33.4911 32.8125 33.3896 32.8327 33.2948 32.8719C33.2 32.9112 33.1139 32.9688 33.0413 33.0413L28.3538 37.7288C28.2813 37.8014 28.2237 37.8875 28.1845 37.9823C28.1452 38.0771 28.125 38.1787 28.125 38.2812V45.3125H26.5625V26.5625H25V46.0938C25 46.3009 25.0823 46.4997 25.2288 46.6462C25.3753 46.7927 25.574 46.875 25.7812 46.875H46.875V28.9062C46.875 28.7517 46.8292 28.6007 46.7434 28.4722C46.6575 28.3438 46.5355 28.2436 46.3928 28.1845ZM33.5938 34.6985L36.9476 38.0524C37.0201 38.125 37.1062 38.1825 37.201 38.2218C37.2958 38.2611 37.3974 38.2813 37.5 38.2813C37.6026 38.2813 37.7042 38.2611 37.799 38.2218C37.8938 38.1825 37.9799 38.125 38.0524 38.0524L45.3125 30.7923V38.7389L45.0837 38.5101C45.0111 38.4375 44.925 38.38 44.8302 38.3407C44.7354 38.3014 44.6339 38.2812 44.5312 38.2812C44.4286 38.2812 44.3271 38.3014 44.2323 38.3407C44.1375 38.38 44.0514 38.4375 43.9788 38.5101L40.625 41.864L38.8337 40.0726C38.7611 40 38.675 39.9425 38.5802 39.9032C38.4854 39.8639 38.3839 39.8437 38.2812 39.8437C38.1786 39.8437 38.0771 39.8639 37.9823 39.9032C37.8875 39.9425 37.8014 40 37.7288 40.0726L35.9375 41.864L32.5837 38.5101C32.5111 38.4375 32.425 38.38 32.3302 38.3407C32.2354 38.3014 32.1339 38.2812 32.0312 38.2812C31.9287 38.2812 31.8271 38.3014 31.7323 38.3407C31.6375 38.38 31.5514 38.4375 31.4788 38.5101L29.6875 40.3014V38.6048L33.5938 34.6985ZM29.6875 45.3125V42.5111L32.0312 40.1674L35.3851 43.5213C35.4576 43.5938 35.5437 43.6514 35.6385 43.6907C35.7333 43.7299 35.8349 43.7501 35.9375 43.7501C36.0401 43.7501 36.1417 43.7299 36.2365 43.6907C36.3313 43.6514 36.4174 43.5938 36.4899 43.5213L38.2812 41.7298L40.0726 43.5212C40.1451 43.5937 40.2312 43.6513 40.326 43.6906C40.4208 43.7298 40.5224 43.75 40.625 43.75C40.7276 43.75 40.8292 43.7298 40.924 43.6906C41.0188 43.6513 41.1049 43.5937 41.1774 43.5212L44.5312 40.1673L45.3125 40.9485V45.3125H29.6875Z" fill="#52006A"/>
</svg>
