<svg width="118" height="65" viewBox="0 0 118 65" fill="none" xmlns="http://www.w3.org/2000/svg">
<path d="M35.8631 37.0687C33.6771 37.0687 31.7129 35.106 31.7129 32.9218C31.7129 30.7375 33.6771 28.7749 35.8631 28.7749C38.0491 28.7749 40.0134 30.7375 40.0134 32.9218C40.045 35.106 38.3343 37.0687 35.8631 37.0687Z" fill="#F5A800"/>
<path d="M50.7847 42.6718V14.8149H55.4418V25.3246C56.6774 23.6152 58.8634 22.159 61.8097 22.159C63.9957 22.159 65.7065 22.8871 67.1955 24.3433C68.6529 25.7994 69.3815 27.7621 69.3815 30.4528V42.6718H64.5026V31.6874C64.5026 28.2686 62.7918 26.5592 60.0989 26.5592C57.1526 26.5592 55.22 28.7434 55.22 31.9406V42.7035C55.1884 42.6718 50.7847 42.6718 50.7847 42.6718Z" fill="#E21A2D"/>
<path d="M77.2064 30.9589H87.978C87.5028 28.2682 85.5386 26.3056 82.8456 26.3056C79.8993 26.3056 77.9351 28.015 77.2064 30.9589ZM92.6035 34.3777H77.4282C78.1568 37.0685 80.1211 39.0311 83.5426 39.0311C85.9821 39.0311 88.1998 38.303 90.1323 37.0685L92.0966 40.4873C89.6571 42.4499 86.7108 43.178 83.2892 43.178C75.7174 43.178 72.5176 38.0498 72.5176 32.6683C72.5176 29.7244 73.4997 27.0337 75.4639 25.1027C77.4282 23.14 79.8676 22.1587 83.0357 22.1587C85.9821 22.1587 88.4215 23.14 90.1323 24.8494C92.0966 26.5588 92.8252 28.9963 92.8252 32.1935C92.6035 32.9216 92.6035 33.6497 92.6035 34.3777Z" fill="#E21A2D"/>
<path d="M102.14 38.7779H112.658V42.6716H95.5503V39.506L105.815 26.8121H96.0255V22.8868H112.405V26.0841L102.14 38.7779Z" fill="#E21A2D"/>
<path d="M22.1762 22.8868H12.3868V27.7618H17.5191V38.9995C17.5191 42.4183 15.5549 44.6342 12.3868 44.6342C10.4225 44.6342 8.71173 43.9061 7.25439 42.1967L4.81494 45.8688C7.00094 48.053 9.69385 49.0343 12.8936 49.0343C15.84 49.0343 18.026 48.3063 19.7368 46.5969C21.4476 44.8875 22.4297 42.45 22.4297 39.2528V27.5402V22.8868H22.1762Z" fill="#E21A2D"/>
<path d="M42.4842 22.8872V24.5966C40.7734 23.1404 38.5874 22.4124 36.1163 22.4124C30.2553 22.4124 25.5981 27.0657 25.5981 32.922C25.5981 38.7783 30.2553 43.4317 36.1163 43.4317C38.5558 43.4317 40.7734 42.7036 42.4842 41.2474V42.9568H46.8879V22.8872H42.4842ZM35.8629 39.2531C32.1878 39.2531 29.4949 36.3092 29.4949 32.8903C29.4949 29.2183 32.4413 26.5276 35.8629 26.5276C39.5379 26.5276 42.2308 29.4715 42.2308 32.8903C42.2308 36.3092 39.5379 39.2531 35.8629 39.2531Z" fill="#E21A2D"/>
</svg>
