<svg width="144" height="56" viewBox="0 0 144 56" fill="none" xmlns="http://www.w3.org/2000/svg">
<g filter="url(#filter0_b_1924_54046)">
<rect width="56" height="56" rx="28" transform="matrix(-1 0 0 1 144 0)" fill="#52006A"/>
<rect x="-0.5" y="0.5" width="55" height="55" rx="27.5" transform="matrix(-1 0 0 1 143 0)" stroke="#E4E7EC"/>
<path d="M109 28H123M123 28L116 35M123 28L116 21" stroke="white" stroke-width="2" stroke-linecap="round" stroke-linejoin="round"/>
</g>
<g filter="url(#filter1_b_1924_54046)">
<rect width="56" height="56" rx="28" transform="matrix(-1 0 0 1 56 0)" fill="white" fill-opacity="0.9"/>
<rect x="-0.5" y="0.5" width="55" height="55" rx="27.5" transform="matrix(-1 0 0 1 55 0)" stroke="#E4E7EC"/>
<path d="M35 28H21M21 28L28 21M21 28L28 35" stroke="#667085" stroke-width="2" stroke-linecap="round" stroke-linejoin="round"/>
</g>
<defs>
<filter id="filter0_b_1924_54046" x="80" y="-8" width="72" height="72" filterUnits="userSpaceOnUse" color-interpolation-filters="sRGB">
<feFlood flood-opacity="0" result="BackgroundImageFix"/>
<feGaussianBlur in="BackgroundImageFix" stdDeviation="4"/>
<feComposite in2="SourceAlpha" operator="in" result="effect1_backgroundBlur_1924_54046"/>
<feBlend mode="normal" in="SourceGraphic" in2="effect1_backgroundBlur_1924_54046" result="shape"/>
</filter>
<filter id="filter1_b_1924_54046" x="-8" y="-8" width="72" height="72" filterUnits="userSpaceOnUse" color-interpolation-filters="sRGB">
<feFlood flood-opacity="0" result="BackgroundImageFix"/>
<feGaussianBlur in="BackgroundImageFix" stdDeviation="4"/>
<feComposite in2="SourceAlpha" operator="in" result="effect1_backgroundBlur_1924_54046"/>
<feBlend mode="normal" in="SourceGraphic" in2="effect1_backgroundBlur_1924_54046" result="shape"/>
</filter>
</defs>
</svg>
