<svg width="146" height="45" viewBox="0 0 146 45" fill="none" xmlns="http://www.w3.org/2000/svg">
<path d="M118.936 18.6991H103.372C103.166 18.6991 103.009 18.5158 103.04 18.3127C103.176 17.4324 103.447 16.6029 103.853 15.8247C104.319 14.9337 104.918 14.161 105.651 13.5062C106.385 12.8517 107.224 12.3388 108.171 11.9679C109.117 11.5981 110.126 11.4124 111.199 11.4124C112.272 11.4124 113.277 11.6016 114.215 11.9801C115.154 12.3585 115.986 12.8758 116.711 13.5294C117.437 14.1843 118.028 14.957 118.485 15.8483C118.885 16.6258 119.146 17.4489 119.269 18.3171C119.297 18.5185 119.14 18.6991 118.936 18.6991ZM122.531 19.8349C122.531 19.2423 122.488 18.6644 122.403 18.1002C122.264 17.1777 122.011 16.2926 121.644 15.4462C121.052 14.0818 120.244 12.8912 119.219 11.8736C118.489 11.1498 117.674 10.5336 116.772 10.025C116.407 9.81926 116.028 9.6312 115.635 9.4605C114.271 8.86914 112.808 8.57307 111.246 8.57307C109.701 8.57307 108.241 8.86559 106.87 9.44867C105.497 10.0325 104.303 10.8293 103.286 11.8385C102.268 12.8478 101.46 14.0348 100.86 15.3985C100.261 16.763 99.9538 18.2181 99.938 19.7635C99.938 20.1739 100.072 20.5165 100.34 20.7929C100.608 21.0688 100.955 21.2068 101.381 21.2068H119.243C119.242 21.2084 119.242 21.2096 119.242 21.2112C119.434 21.2112 119.587 21.372 119.577 21.5636C119.454 23.9756 118.918 26.3158 117.98 28.5357C117.461 29.7614 116.819 30.9437 116.072 32.05C115.331 33.1459 114.481 34.1765 113.544 35.1132C112.608 36.0499 111.577 36.9003 110.482 37.6407C109.375 38.3877 108.193 39.0296 106.967 39.548C104.417 40.6266 101.707 41.1734 98.9134 41.1734C96.1195 41.1734 93.4099 40.6266 90.8595 39.548C89.6338 39.0296 88.4515 38.3877 87.3453 37.6407C86.2497 36.9003 85.2192 36.0499 84.2824 35.1132C84.2797 35.1104 84.2769 35.1081 84.2742 35.1053C84.2071 35.0379 84.1342 34.9791 84.0569 34.9287C83.82 34.754 83.5283 34.6504 83.2125 34.6504C82.4189 34.6504 81.7759 35.302 81.7759 36.1063C81.7759 36.3428 81.8319 36.566 81.9308 36.7635C81.9967 36.9078 82.0885 37.0434 82.2084 37.1632C82.2123 37.1672 82.2158 37.1711 82.2202 37.1751C83.2882 38.243 84.4634 39.2129 85.7131 40.0569C86.9751 40.9097 88.3246 41.6422 89.7237 42.2339C92.6352 43.4651 95.7272 44.0896 98.9134 44.0896C102.1 44.0896 105.192 43.4651 108.103 42.2339C109.502 41.6422 110.852 40.9097 112.114 40.0569C113.363 39.2129 114.539 38.243 115.607 37.1751C116.675 36.1071 117.644 34.9318 118.489 33.6821C119.341 32.4201 120.074 31.0707 120.666 29.6715C121.897 26.7601 122.521 23.6681 122.521 20.4818C122.521 20.4353 122.521 20.3888 122.52 20.3423C122.528 20.1743 122.531 20.0052 122.531 19.8349Z" fill="#FF7600"/>
<path d="M0.133124 2.659C-0.0403407 2.26516 -0.044283 1.88274 0.121297 1.51176C0.286877 1.14118 0.567181 0.876646 0.961419 0.719345C1.32412 0.561649 1.6947 0.557314 2.07317 0.707125C2.45164 0.85733 2.72761 1.12935 2.90107 1.52399L13.3109 25.6782L18.2314 14.3458L13.1923 2.659C13.0188 2.26516 13.0109 1.88274 13.1686 1.51176C13.3263 1.14118 13.6023 0.876646 13.9965 0.719345C14.3592 0.561649 14.7337 0.557314 15.1205 0.707125C15.5068 0.85733 15.7867 1.12935 15.9602 1.52399L19.8403 10.5848L23.7673 1.52399C23.9412 1.14473 24.2128 0.876646 24.5838 0.719345C24.954 0.561649 25.3289 0.561649 25.7074 0.719345C26.0858 0.876646 26.3582 1.14118 26.5234 1.51176C26.689 1.88274 26.6855 2.26516 26.5116 2.659L21.4728 14.3221L26.346 25.6782L36.8269 1.52399C37.0003 1.14473 37.268 0.876646 37.6311 0.719345C37.9938 0.561649 38.3723 0.561649 38.7665 0.719345C39.1454 0.876646 39.4131 1.14118 39.5708 1.51176C39.7284 1.88274 39.7206 2.26516 39.5475 2.659L27.7657 29.9367C27.6395 30.2525 27.4385 30.4891 27.1625 30.6464C26.8861 30.8045 26.5983 30.8746 26.2987 30.8593C26.0302 30.8593 25.77 30.7804 25.5181 30.6227C25.2658 30.4654 25.0766 30.2364 24.95 29.9367L19.8403 18.084L14.7298 29.9367C14.6036 30.2364 14.4148 30.4654 14.1625 30.6227C13.9098 30.7804 13.6421 30.8593 13.3582 30.8593C13.0421 30.8746 12.7507 30.8045 12.4826 30.6464C12.2146 30.4891 12.0174 30.2525 11.8913 29.9367L0.133124 2.659Z" fill="white"/>
<path d="M40.9594 19.8818C40.9594 21.0176 41.1762 22.0864 41.6098 23.0877C42.0435 24.0891 42.6309 24.9647 43.3725 25.7138C44.114 26.4628 44.9893 27.0585 45.9985 27.4997C47.0078 27.9416 48.0962 28.1624 49.2632 28.1624C50.4305 28.1624 51.5186 27.9416 52.5283 27.4997C53.5371 27.0585 54.4127 26.4628 55.1543 25.7138C55.8955 24.9647 56.4789 24.0891 56.9047 23.0877C57.3305 22.0864 57.5434 21.0176 57.5434 19.8818C57.5434 18.731 57.3305 17.65 56.9047 16.6412C56.4789 15.6319 55.8955 14.7524 55.1543 14.0029C54.4127 13.2539 53.5371 12.6625 52.5283 12.2285C51.5186 11.7948 50.4305 11.578 49.2632 11.578C48.112 11.578 47.0314 11.7948 46.0226 12.2285C45.0129 12.6625 44.1334 13.2539 43.3843 14.0029C42.6353 14.7524 42.0435 15.6319 41.6098 16.6412C41.1762 17.65 40.9594 18.731 40.9594 19.8818ZM37.9785 19.8818C37.9785 18.3206 38.2742 16.8497 38.8656 15.4699C39.4573 14.09 40.2651 12.8908 41.2909 11.8736C42.3155 10.8565 43.5144 10.0519 44.8868 9.46011C46.2587 8.86875 47.7178 8.57347 49.2632 8.57347C50.8086 8.57347 52.2598 8.8656 53.6164 9.44868C54.9726 10.0322 56.16 10.825 57.1771 11.8263C58.1947 12.8281 58.9989 14.0069 59.5903 15.3634C60.1816 16.7196 60.4931 18.1708 60.5246 19.7162V19.7639V19.8818V29.3214C60.5246 29.7472 60.3787 30.1099 60.087 30.4095C59.7945 30.7092 59.4365 30.8594 59.0103 30.8594C58.5846 30.8594 58.2333 30.7092 57.9577 30.4095C57.6814 30.1099 57.5434 29.7472 57.5434 29.3214L57.5201 27.2868C56.4789 28.4383 55.2529 29.3684 53.8415 30.0784C52.4297 30.7884 50.9036 31.1428 49.2632 31.1428C47.7178 31.1428 46.2587 30.8471 44.8868 30.2558C43.5144 29.664 42.3155 28.8602 41.2909 27.8427C40.2651 26.8251 39.4573 25.631 38.8656 24.259C38.2742 22.8867 37.9785 21.4276 37.9785 19.8818Z" fill="white"/>
<path d="M70.2953 8.59616H73.4417C73.8679 8.59616 74.2227 8.73848 74.5069 9.02233C74.7904 9.30618 74.9323 9.65311 74.9323 10.0631C74.9323 10.5051 74.7904 10.8678 74.5069 11.1512C74.2227 11.4351 73.8679 11.5774 73.4417 11.5774H70.2953V29.3918C70.2953 29.8022 70.1494 30.1484 69.8577 30.4322C69.5655 30.7165 69.2151 30.8584 68.8051 30.8584C68.3951 30.8584 68.0481 30.7165 67.7639 30.4322C67.48 30.1484 67.3385 29.8022 67.3385 29.3918V11.5774H64.7357C64.3253 11.5774 63.9749 11.4319 63.6835 11.1394C63.391 10.848 63.2451 10.4893 63.2451 10.0631C63.2451 9.65311 63.391 9.30618 63.6835 9.02233C63.9749 8.73848 64.3253 8.59616 64.7357 8.59616H67.3385V2.04273C67.3385 1.61735 67.48 1.26648 67.7639 0.990116C68.0481 0.714544 68.3951 0.576164 68.8051 0.576164C69.2151 0.576164 69.5655 0.714544 69.8577 0.990116C70.1494 1.26648 70.2953 1.61735 70.2953 2.04273V8.59616Z" fill="white"/>
<path d="M146 29.3922C146 29.8184 145.858 30.1728 145.574 30.4566C145.29 30.7405 144.935 30.8828 144.51 30.8828C144.099 30.8828 143.752 30.7405 143.468 30.4566C143.184 30.1728 143.043 29.8184 143.043 29.3922V19.5035V19.3849C143.011 16.8613 142.447 14.9252 141.351 13.5765C140.255 12.2282 138.721 11.5541 136.749 11.5541C135.788 11.5541 134.884 11.7433 134.041 12.1218C133.197 12.5003 132.456 13.025 131.817 13.6952C131.178 14.3658 130.669 15.1582 130.291 16.0729C129.912 16.9879 129.707 17.9739 129.676 19.0296V29.3449C129.676 29.7707 129.53 30.1294 129.238 30.4212C128.946 30.7133 128.595 30.8592 128.185 30.8592C127.775 30.8592 127.424 30.7133 127.133 30.4212C126.841 30.1294 126.695 29.7707 126.695 29.3449V10.0635C126.695 9.65347 126.845 9.3026 127.145 9.01087C127.444 8.71952 127.799 8.57326 128.209 8.57326C128.619 8.57326 128.966 8.71952 129.25 9.01087C129.534 9.3026 129.676 9.65347 129.676 10.0635V12.5949C130.606 11.3968 131.706 10.4301 132.976 9.69684C134.246 8.96356 135.606 8.59652 137.057 8.59652C138.413 8.59652 139.639 8.84962 140.736 9.35386C141.832 9.85887 142.771 10.5803 143.551 11.5186C144.332 12.4573 144.931 13.5931 145.349 14.9252C145.767 16.2582 145.984 17.7444 146 19.3849V19.5035V29.3922Z" fill="white"/>
<path d="M78.5288 18.6985C78.6234 17.6889 78.8989 16.7388 79.3567 15.8478C79.814 14.9564 80.4057 14.1837 81.1315 13.5289C81.8561 12.8752 82.6888 12.358 83.627 11.9795C84.5653 11.6011 85.5706 11.4118 86.6434 11.4118C87.7161 11.4118 88.7249 11.5975 89.6719 11.9673C90.6181 12.3383 91.4578 12.8512 92.1911 13.5056C92.9248 14.1604 93.5236 14.9332 93.9892 15.8241C94.4544 16.7151 94.7422 17.6735 94.8526 18.6985H78.5288ZM96.9823 15.398C96.3822 14.0343 95.574 12.8472 94.5569 11.838C93.5398 10.8287 92.3448 10.032 90.9725 9.44812C89.6009 8.86504 88.1419 8.57251 86.596 8.57251C85.0349 8.57251 83.5715 8.86859 82.2078 9.45994C81.8064 9.6338 81.4205 9.82619 81.0487 10.0367C80.1558 10.5429 79.3472 11.1548 78.6234 11.8731C77.598 12.8906 76.7902 14.0812 76.1984 15.4457C75.7868 16.395 75.5183 17.3924 75.3934 18.4371C75.3386 18.8937 75.3114 19.3593 75.3114 19.8343C75.3114 19.8816 75.3118 19.9289 75.3122 19.9763C75.3086 20.1442 75.3066 20.3125 75.3066 20.4813C75.3066 23.6675 75.9307 26.7595 77.1623 29.671C77.3449 30.1019 77.5404 30.5284 77.7489 30.9491C77.7489 30.9491 77.9378 31.4951 78.2753 31.734L78.2768 31.7352C78.798 32.1858 79.5885 32.2051 80.1443 31.7474C80.6312 31.3469 80.7936 30.6991 80.5969 30.1429C80.5772 30.0877 80.554 30.0329 80.5271 29.9797C80.52 29.9666 80.513 29.9528 80.5062 29.9394C80.2689 29.4794 80.0489 29.0102 79.8483 28.5352C78.8639 26.2076 78.3226 23.7467 78.2354 21.2106H78.6001C78.6001 21.209 78.5997 21.2079 78.5997 21.2063H96.4611C96.8872 21.2063 97.2338 21.0683 97.5026 20.7923C97.7703 20.516 97.9044 20.1734 97.9044 19.763C97.8886 18.2176 97.5811 16.7624 96.9823 15.398Z" fill="white"/>
<path d="M103.617 4.06157C103.582 4.03436 103.543 4.00953 103.499 3.9906C103.496 3.98903 103.493 3.98784 103.49 3.98706C102.133 3.40358 100.683 3.11145 99.1372 3.11145C99.0501 3.11145 98.9645 3.11579 98.8782 3.11776C98.7958 3.12013 98.7138 3.11973 98.6314 3.12367C97.088 3.19858 95.6526 3.5601 94.3259 4.20822C94.3228 4.20941 94.32 4.21098 94.3173 4.21217C94.2743 4.23345 94.2364 4.25987 94.2022 4.28904C93.9372 4.51297 93.938 4.94308 94.2278 5.17568C94.3232 5.25217 94.4143 5.33338 94.5069 5.41262C94.568 5.46545 94.6307 5.51512 94.6906 5.56913C95.0072 5.85417 95.3056 6.15655 95.5867 6.47509C95.742 6.65171 95.9821 6.71203 96.2049 6.64304C97.0754 6.31148 97.9979 6.13763 98.9713 6.11989C99.934 6.09387 100.854 6.22318 101.731 6.50979C101.956 6.56735 102.193 6.49599 102.34 6.31188C102.606 5.98032 102.888 5.66375 103.191 5.36374C103.248 5.30697 103.309 5.25374 103.367 5.19855C103.456 5.11458 103.544 5.02903 103.635 4.94821C103.913 4.7022 103.893 4.27248 103.617 4.06157Z" fill="white"/>
</svg>
