<svg width="151" height="45" viewBox="0 0 151 45" fill="none" xmlns="http://www.w3.org/2000/svg">
<path d="M123.01 18.743H106.913C106.7 18.743 106.537 18.5534 106.569 18.3434C106.71 17.4329 106.99 16.575 107.41 15.7702C107.892 14.8487 108.511 14.0495 109.27 13.3722C110.028 12.6954 110.897 12.1649 111.875 11.7812C112.854 11.3988 113.898 11.2067 115.007 11.2067C116.117 11.2067 117.157 11.4025 118.127 11.7939C119.098 12.1853 119.959 12.7203 120.708 13.3963C121.459 14.0736 122.071 14.8727 122.543 15.7946C122.956 16.5987 123.226 17.45 123.354 18.3479C123.383 18.5562 123.221 18.743 123.01 18.743ZM126.728 19.9177C126.728 19.3049 126.684 18.7071 126.595 18.1236C126.451 17.1695 126.19 16.2541 125.81 15.3787C125.198 13.9675 124.362 12.7362 123.302 11.6838C122.547 10.9352 121.704 10.2979 120.771 9.7719C120.394 9.55906 120.002 9.36457 119.595 9.18802C118.185 8.57641 116.671 8.2702 115.056 8.2702C113.458 8.2702 111.949 8.57274 110.53 9.17579C109.11 9.77965 107.875 10.6037 106.823 11.6475C105.771 12.6913 104.935 13.919 104.315 15.3294C103.695 16.7406 103.377 18.2455 103.361 19.8439C103.361 20.2683 103.499 20.6227 103.776 20.9085C104.054 21.1939 104.413 21.3366 104.853 21.3366H123.327C123.326 21.3383 123.326 21.3395 123.326 21.3411C123.525 21.3411 123.683 21.5075 123.673 21.7056C123.545 24.2002 122.991 26.6205 122.02 28.9165C121.484 30.1842 120.82 31.407 120.048 32.5511C119.281 33.6846 118.402 34.7504 117.433 35.7192C116.464 36.688 115.399 37.5675 114.265 38.3332C113.121 39.1059 111.898 39.7697 110.631 40.3059C107.993 41.4215 105.191 41.987 102.301 41.987C99.4115 41.987 96.6091 41.4215 93.9714 40.3059C92.7037 39.7697 91.4809 39.1059 90.3368 38.3332C89.2037 37.5675 88.1379 36.688 87.1691 35.7192C87.1662 35.7164 87.1634 35.7139 87.1605 35.7111C87.0912 35.6414 87.0158 35.5806 86.9358 35.5284C86.6908 35.3478 86.3891 35.2405 86.0625 35.2405C85.2417 35.2405 84.5767 35.9145 84.5767 36.7463C84.5767 36.991 84.6346 37.2217 84.7369 37.426C84.805 37.5753 84.9 37.7155 85.024 37.8395C85.028 37.8436 85.0317 37.8476 85.0362 37.8517C86.1407 38.9563 87.3562 39.9593 88.6488 40.8323C89.9539 41.7142 91.3496 42.4718 92.7967 43.0838C95.8078 44.3572 99.0057 45.0031 102.301 45.0031C105.596 45.0031 108.794 44.3572 111.806 43.0838C113.253 42.4718 114.648 41.7142 115.953 40.8323C117.246 39.9593 118.462 38.9563 119.566 37.8517C120.671 36.7471 121.674 35.5317 122.547 34.2391C123.429 32.934 124.186 31.5383 124.798 30.0912C126.072 27.08 126.717 23.8821 126.717 20.5868C126.717 20.5387 126.717 20.4906 126.717 20.4424C126.724 20.2688 126.728 20.0938 126.728 19.9177Z" fill="#FF7600"/>
<path d="M0.137683 2.15325C-0.0417222 1.74592 -0.0457996 1.35041 0.125451 0.966728C0.296702 0.583452 0.586605 0.309858 0.994344 0.147171C1.36946 -0.0159245 1.75274 -0.0204105 2.14417 0.134531C2.5356 0.289881 2.82102 0.57122 3.00042 0.979368L13.7668 25.9608L18.8558 14.2403L13.6441 2.15325C13.4647 1.74592 13.4565 1.35041 13.6196 0.966728C13.7827 0.583452 14.0681 0.309858 14.4758 0.147171C14.851 -0.0159245 15.2383 -0.0204105 15.6383 0.134531C16.0379 0.289881 16.3274 0.57122 16.5068 0.979368L20.5198 10.3504L24.5813 0.979368C24.7611 0.587122 25.042 0.309858 25.4257 0.147171C25.8086 -0.0159245 26.1963 -0.0159245 26.5878 0.147171C26.9792 0.309858 27.2609 0.583452 27.4318 0.966728C27.603 1.35041 27.5994 1.74592 27.4195 2.15325L22.2082 14.2158L27.2483 25.9608L38.088 0.979368C38.2675 0.587122 38.5443 0.309858 38.9198 0.147171C39.295 -0.0159245 39.6864 -0.0159245 40.0941 0.147171C40.486 0.309858 40.7628 0.583452 40.9259 0.966728C41.089 1.35041 41.0809 1.74592 40.9019 2.15325L28.7166 30.3652C28.5861 30.6918 28.3781 30.9364 28.0927 31.0991C27.8069 31.2626 27.5092 31.3352 27.1994 31.3193C26.9217 31.3193 26.6526 31.2377 26.392 31.0746C26.1311 30.9119 25.9354 30.675 25.8045 30.3652L20.5198 18.1065L15.2342 30.3652C15.1038 30.675 14.9085 30.9119 14.6475 31.0746C14.3861 31.2377 14.1093 31.3193 13.8157 31.3193C13.4887 31.3352 13.1874 31.2626 12.9101 31.0991C12.6329 30.9364 12.429 30.6918 12.2985 30.3652L0.137683 2.15325Z" fill="#52006A"/>
<path d="M42.3622 19.966C42.3622 21.1407 42.5865 22.2461 43.035 23.2817C43.4835 24.3174 44.091 25.223 44.858 25.9977C45.6249 26.7724 46.5301 27.3885 47.5739 27.8447C48.6178 28.3018 49.7435 28.5302 50.9504 28.5302C52.1578 28.5302 53.2831 28.3018 54.3273 27.8447C55.3707 27.3885 56.2763 26.7724 57.0433 25.9977C57.8098 25.223 58.4133 24.3174 58.8537 23.2817C59.294 22.2461 59.5142 21.1407 59.5142 19.966C59.5142 18.7758 59.294 17.6578 58.8537 16.6144C58.4133 15.5706 57.8098 14.6609 57.0433 13.8858C56.2763 13.1111 55.3707 12.4995 54.3273 12.0505C53.2831 11.602 52.1578 11.3778 50.9504 11.3778C49.7598 11.3778 48.6422 11.602 47.5988 12.0505C46.5546 12.4995 45.6449 13.1111 44.8702 13.8858C44.0955 14.6609 43.4835 15.5706 43.035 16.6144C42.5865 17.6578 42.3622 18.7758 42.3622 19.966ZM39.2793 19.966C39.2793 18.3513 39.5851 16.8301 40.1967 15.403C40.8087 13.9759 41.6442 12.7355 42.7051 11.6836C43.7648 10.6316 45.0048 9.79942 46.4241 9.1874C47.8431 8.57579 49.3521 8.27039 50.9504 8.27039C52.5488 8.27039 54.0497 8.57253 55.4527 9.17558C56.8553 9.77903 58.0834 10.599 59.1354 11.6347C60.1878 12.6707 61.0196 13.8899 61.6312 15.2929C62.2428 16.6955 62.5649 18.1964 62.5975 19.7947V19.8441V19.966V29.7289C62.5975 30.1693 62.4467 30.5444 62.1449 30.8543C61.8424 31.1642 61.4722 31.3195 61.0314 31.3195C60.591 31.3195 60.2277 31.1642 59.9427 30.8543C59.6569 30.5444 59.5142 30.1693 59.5142 29.7289L59.4901 27.6246C58.4133 28.8156 57.1452 29.7774 55.6855 30.5118C54.2254 31.2461 52.647 31.6127 50.9504 31.6127C49.3521 31.6127 47.8431 31.3069 46.4241 30.6953C45.0048 30.0832 43.7648 29.2519 42.7051 28.1995C41.6442 27.1471 40.8087 25.9121 40.1967 24.4931C39.5851 23.0738 39.2793 21.5647 39.2793 19.966Z" fill="#52006A"/>
<path d="M72.7027 8.29469H75.9569C76.3977 8.29469 76.7646 8.44188 77.0586 8.73545C77.3518 9.02903 77.4986 9.38784 77.4986 9.81189C77.4986 10.269 77.3518 10.6441 77.0586 10.9372C76.7646 11.2308 76.3977 11.378 75.9569 11.378H72.7027V29.8025C72.7027 30.227 72.5519 30.585 72.2501 30.8786C71.948 31.1725 71.5855 31.3193 71.1615 31.3193C70.7374 31.3193 70.3786 31.1725 70.0846 30.8786C69.7911 30.585 69.6447 30.227 69.6447 29.8025V11.378H66.9528C66.5283 11.378 66.1659 11.2276 65.8645 10.925C65.562 10.6237 65.4111 10.2527 65.4111 9.81189C65.4111 9.38784 65.562 9.02903 65.8645 8.73545C66.1659 8.44188 66.5283 8.29469 66.9528 8.29469H69.6447V1.51683C69.6447 1.07688 69.7911 0.713993 70.0846 0.428167C70.3786 0.143158 70.7374 4.00543e-05 71.1615 4.00543e-05C71.5855 4.00543e-05 71.948 0.143158 72.2501 0.428167C72.5519 0.713993 72.7027 1.07688 72.7027 1.51683V8.29469Z" fill="#52006A"/>
<path d="M151 29.8023C151 30.2431 150.853 30.6097 150.56 30.9032C150.266 31.1968 149.899 31.344 149.459 31.344C149.034 31.344 148.675 31.1968 148.381 30.9032C148.088 30.6097 147.941 30.2431 147.941 29.8023V19.575V19.4523C147.908 16.8423 147.325 14.8399 146.192 13.445C145.058 12.0506 143.472 11.3533 141.433 11.3533C140.438 11.3533 139.504 11.5491 138.631 11.9405C137.758 12.3319 136.992 12.8746 136.331 13.5678C135.67 14.2613 135.144 15.0809 134.753 16.0268C134.361 16.9732 134.149 17.993 134.117 19.0849V29.7534C134.117 30.1938 133.966 30.5648 133.664 30.8665C133.362 31.1687 132.999 31.3195 132.575 31.3195C132.15 31.3195 131.788 31.1687 131.487 30.8665C131.185 30.5648 131.034 30.1938 131.034 29.7534V9.81168C131.034 9.38763 131.189 9.02474 131.499 8.72301C131.808 8.42169 132.175 8.27042 132.6 8.27042C133.024 8.27042 133.383 8.42169 133.676 8.72301C133.97 9.02474 134.117 9.38763 134.117 9.81168V12.4298C135.079 11.1907 136.216 10.1909 137.53 9.43248C138.843 8.67408 140.25 8.29448 141.751 8.29448C143.153 8.29448 144.421 8.55625 145.555 9.07775C146.689 9.60006 147.66 10.3462 148.467 11.3166C149.275 12.2875 149.895 13.4622 150.327 14.8399C150.759 16.2185 150.983 17.7557 151 19.4523V19.575V29.8023Z" fill="#52006A"/>
<path d="M81.2177 18.743C81.3156 17.6988 81.6006 16.7161 82.074 15.7946C82.5469 14.8727 83.159 14.0736 83.9096 13.3963C84.659 12.7203 85.5202 12.1853 86.4906 11.7939C87.461 11.4025 88.5008 11.2067 89.6102 11.2067C90.7197 11.2067 91.7631 11.3988 92.7425 11.7812C93.721 12.1649 94.5895 12.6954 95.3479 13.3722C96.1067 14.0495 96.7261 14.8487 97.2076 15.7702C97.6888 16.6917 97.9864 17.6829 98.1006 18.743H81.2177ZM100.303 15.3294C99.6826 13.919 98.8467 12.6913 97.7948 11.6475C96.7428 10.6037 95.5069 9.77965 94.0876 9.17579C92.6691 8.57274 91.16 8.2702 89.5613 8.2702C87.9466 8.2702 86.4331 8.57641 85.0227 9.18802C84.6077 9.36784 84.2085 9.56681 83.824 9.78454C82.9005 10.3081 82.0642 10.9409 81.3156 11.6838C80.255 12.7362 79.4196 13.9675 78.8076 15.3787C78.3819 16.3606 78.1042 17.3922 77.975 18.4727C77.9183 18.9448 77.8901 19.4264 77.8901 19.9177C77.8901 19.9666 77.8906 20.0155 77.891 20.0645C77.8873 20.2382 77.8853 20.4123 77.8853 20.5868C77.8853 23.8821 78.5307 27.08 79.8045 30.0912C79.9933 30.5369 80.1955 30.978 80.4112 31.4131C80.4112 31.4131 80.6065 31.9778 80.9555 32.2249L80.9572 32.2261C81.4962 32.6922 82.3137 32.7122 82.8886 32.2388C83.3922 31.8245 83.5602 31.1546 83.3567 30.5793C83.3363 30.5222 83.3123 30.4655 83.2845 30.4105C83.2772 30.397 83.2699 30.3827 83.2629 30.3689C83.0175 29.893 82.79 29.4078 82.5824 28.9165C81.5643 26.5092 81.0045 23.9641 80.9144 21.3411H81.2915C81.2915 21.3395 81.2911 21.3383 81.2911 21.3366H99.7642C100.205 21.3366 100.563 21.1939 100.841 20.9085C101.118 20.6227 101.257 20.2683 101.257 19.8439C101.241 18.2456 100.923 16.7406 100.303 15.3294Z" fill="#52006A"/>
<path d="M107.166 3.6038C107.129 3.57566 107.089 3.54998 107.043 3.5304C107.04 3.52877 107.037 3.52755 107.034 3.52674C105.631 2.92328 104.131 2.62115 102.532 2.62115C102.442 2.62115 102.354 2.62563 102.264 2.62767C102.179 2.63012 102.094 2.62971 102.009 2.63379C100.413 2.71126 98.9282 3.08515 97.5561 3.75548C97.5528 3.7567 97.55 3.75833 97.5471 3.75955C97.5027 3.78157 97.4636 3.80889 97.4281 3.83906C97.1541 4.07066 97.1549 4.5155 97.4546 4.75607C97.5533 4.83517 97.6474 4.91917 97.7433 5.00112C97.8065 5.05576 97.8713 5.10713 97.9333 5.16299C98.2607 5.45779 98.5693 5.77053 98.8601 6.09998C99.0207 6.28265 99.269 6.34503 99.4994 6.27368C100.4 5.93077 101.354 5.75095 102.361 5.73261C103.356 5.7057 104.307 5.83943 105.214 6.13586C105.448 6.19539 105.693 6.12159 105.845 5.93118C106.119 5.58827 106.412 5.26085 106.725 4.95056C106.784 4.89185 106.847 4.8368 106.907 4.77972C106.999 4.69287 107.089 4.60439 107.184 4.5208C107.471 4.26637 107.45 3.82194 107.166 3.6038Z" fill="#52006A"/>
</svg>
