<svg width="54" height="43" viewBox="0 0 54 43" fill="none" xmlns="http://www.w3.org/2000/svg">
<path d="M24.588 42.42H3.324C1.488 42.42 0 40.932 0 39.096V3.324C0.012 1.488 1.5 0 3.324 0H24.576C26.412 0 27.9 1.488 27.9 3.324V17.448C27.9 17.784 27.636 18.048 27.3 18.048C26.964 18.048 26.7 17.784 26.7 17.448V3.324C26.7 2.148 25.752 1.2 24.576 1.2H3.324C2.148 1.2 1.2 2.148 1.2 3.324V39.096C1.2 40.272 2.148 41.22 3.324 41.22H24.576C25.752 41.22 26.7 40.272 26.7 39.096V24.972C26.7 24.636 26.964 24.372 27.3 24.372C27.636 24.372 27.9 24.636 27.9 24.972V39.096C27.9 40.92 26.412 42.42 24.588 42.42Z" fill="#52006A"/>
<path d="M27.2997 6.13201H0.611719C0.275719 6.13201 0.0117188 5.86801 0.0117188 5.53201C0.0117188 5.19601 0.275719 4.93201 0.611719 4.93201H27.3117C27.6477 4.93201 27.9117 5.19601 27.9117 5.53201C27.9117 5.86801 27.6357 6.13201 27.2997 6.13201ZM27.2997 37.488H0.611719C0.275719 37.488 0.0117188 37.224 0.0117188 36.888C0.0117188 36.552 0.275719 36.288 0.611719 36.288H27.3117C27.6477 36.288 27.9117 36.552 27.9117 36.888C27.9117 37.224 27.6357 37.488 27.2997 37.488ZM15.7077 3.66001H12.2037C11.8677 3.66001 11.6037 3.39601 11.6037 3.06001C11.6037 2.72401 11.8677 2.46001 12.2037 2.46001H15.7077C16.0437 2.46001 16.3077 2.72401 16.3077 3.06001C16.3077 3.39601 16.0317 3.66001 15.7077 3.66001ZM17.8437 39.948H10.0677C9.73172 39.948 9.46772 39.684 9.46772 39.348C9.46772 39.012 9.73172 38.748 10.0677 38.748H17.8437C18.1797 38.748 18.4437 39.012 18.4437 39.348C18.4437 39.684 18.1797 39.948 17.8437 39.948ZM49.8597 39.564H33.0117C31.2477 39.564 29.8197 38.136 29.8197 36.372V6.04801C29.8197 4.28401 31.2477 2.85601 33.0117 2.85601H49.8597C51.6237 2.85601 53.0517 4.28401 53.0517 6.04801V36.372C53.0517 38.136 51.6117 39.564 49.8597 39.564ZM33.0117 4.05601C31.9197 4.05601 31.0197 4.94401 31.0197 6.04801V36.372C31.0197 37.464 31.9197 38.364 33.0117 38.364H49.8597C50.9517 38.364 51.8517 37.464 51.8517 36.372V6.04801C51.8517 4.94401 50.9517 4.05601 49.8597 4.05601H33.0117Z" fill="#52006A"/>
<path d="M30.4205 28.68C30.2645 28.68 30.1085 28.62 30.0005 28.5L24.3965 22.92C23.4605 21.984 23.4605 20.448 24.3965 19.512L29.9885 13.92C30.2285 13.692 30.6005 13.692 30.8405 13.92C31.0805 14.148 31.0805 14.532 30.8405 14.772L25.2485 20.364C24.7805 20.832 24.7805 21.612 25.2485 22.08L30.8405 27.672C31.0805 27.912 31.0805 28.284 30.8405 28.524C30.7206 28.62 30.5646 28.68 30.4205 28.68ZM9.33655 15.372H6.45655C5.41255 15.372 4.56055 14.52 4.56055 13.464V10.584C4.56055 9.53999 5.41255 8.67599 6.45655 8.67599H9.33655C10.3805 8.67599 11.2325 9.52799 11.2325 10.584V13.464C11.2325 14.508 10.3805 15.372 9.33655 15.372ZM6.45655 9.88799C6.07255 9.88799 5.76055 10.2 5.76055 10.596V13.476C5.76055 13.86 6.07255 14.184 6.45655 14.184H9.33655C9.72055 14.184 10.0325 13.872 10.0325 13.476V10.596C10.0325 10.212 9.72055 9.88799 9.33655 9.88799H6.45655ZM21.4565 15.372H18.5765C17.5325 15.372 16.6685 14.52 16.6685 13.464V10.584C16.6685 9.53999 17.5205 8.67599 18.5765 8.67599H21.4565C22.5005 8.67599 23.3645 9.52799 23.3645 10.584V13.464C23.3645 14.508 22.5125 15.372 21.4565 15.372ZM18.5765 9.88799C18.1925 9.88799 17.8685 10.2 17.8685 10.596V13.476C17.8685 13.86 18.1805 14.184 18.5765 14.184H21.4565C21.8405 14.184 22.1645 13.872 22.1645 13.476V10.596C22.1645 10.212 21.8525 9.88799 21.4565 9.88799H18.5765ZM9.33655 24.552H6.45655C5.41255 24.552 4.56055 23.7 4.56055 22.644V19.764C4.56055 18.72 5.41255 17.856 6.45655 17.856H9.33655C10.3805 17.856 11.2325 18.708 11.2325 19.764V22.644C11.2325 23.7 10.3805 24.552 9.33655 24.552ZM6.45655 19.068C6.07255 19.068 5.76055 19.38 5.76055 19.776V22.656C5.76055 23.04 6.07255 23.364 6.45655 23.364H9.33655C9.72055 23.364 10.0325 23.052 10.0325 22.656V19.776C10.0325 19.392 9.72055 19.068 9.33655 19.068H6.45655ZM9.33655 33.732H6.45655C5.41255 33.732 4.56055 32.88 4.56055 31.824V28.944C4.56055 27.9 5.41255 27.036 6.45655 27.036H9.33655C10.3805 27.036 11.2325 27.888 11.2325 28.944V31.824C11.2325 32.88 10.3805 33.732 9.33655 33.732ZM6.45655 28.248C6.07255 28.248 5.76055 28.56 5.76055 28.956V31.836C5.76055 32.22 6.07255 32.544 6.45655 32.544H9.33655C9.72055 32.544 10.0325 32.232 10.0325 31.836V28.956C10.0325 28.572 9.72055 28.248 9.33655 28.248H6.45655ZM21.4565 33.732H18.5765C17.5325 33.732 16.6685 32.88 16.6685 31.824V28.944C16.6685 27.9 17.5205 27.036 18.5765 27.036H21.4565C22.5005 27.036 23.3645 27.888 23.3645 28.944V31.824C23.3645 32.88 22.5125 33.732 21.4565 33.732ZM18.5765 28.248C18.1925 28.248 17.8685 28.56 17.8685 28.956V31.836C17.8685 32.22 18.1805 32.544 18.5765 32.544H21.4565C21.8405 32.544 22.1645 32.232 22.1645 31.836V28.956C22.1645 28.572 21.8525 28.248 21.4565 28.248H18.5765ZM43.2605 19.428C42.7805 19.428 42.2765 19.332 41.7725 19.152C41.7365 19.14 41.6885 19.116 41.6525 19.092C41.6165 19.068 41.5205 19.02 41.4365 18.996C41.3405 19.02 41.2325 19.08 41.2205 19.092C41.1845 19.116 41.1485 19.128 41.1005 19.152C39.2165 19.824 37.4645 19.236 36.3125 17.508C34.5845 14.94 34.5365 10.596 36.2045 8.75999C36.7565 8.14799 38.0045 7.27199 40.0805 8.37599C40.2125 8.44799 40.3445 8.53199 40.4765 8.61599C40.7165 8.77199 41.1485 9.04799 41.3285 9.01199C41.5085 8.97599 41.6765 9.02399 41.8085 9.11999C41.8565 8.99999 41.9405 8.89199 42.0725 8.81999C42.1805 8.75999 42.3005 8.68799 42.4085 8.61599C42.5405 8.53199 42.6725 8.44799 42.8045 8.37599C44.8805 7.27199 46.1166 8.13599 46.6805 8.75999C48.3485 10.608 48.2885 14.94 46.5725 17.508C45.7205 18.768 44.5565 19.428 43.2605 19.428ZM42.2285 18.036C43.5965 18.504 44.7125 18.108 45.5645 16.836C46.9445 14.784 47.0645 10.968 45.7805 9.55199C45.2045 8.90399 44.4125 8.86799 43.3565 9.43199C43.2725 9.47999 43.1525 9.55199 43.0325 9.62399C42.9125 9.69599 42.7925 9.77999 42.6485 9.85199C42.4325 9.97199 42.1685 9.94799 41.9885 9.80399C41.9165 9.99599 41.7485 10.14 41.5445 10.176C40.9085 10.296 40.3085 9.92399 39.8285 9.61199C39.7085 9.53999 39.6005 9.46799 39.5045 9.41999C38.4485 8.86799 37.6685 8.90399 37.0805 9.53999C35.8085 10.956 35.9165 14.76 37.2965 16.824C38.1485 18.096 39.2645 18.492 40.6325 18.024C40.7645 17.952 41.0405 17.82 41.3525 17.784H41.4845C41.8205 17.832 42.0965 17.964 42.2285 18.036Z" fill="#52006A"/>
<path d="M43.5482 12.264C43.0802 12.264 42.6122 12.144 42.1922 11.892C41.3642 11.412 40.8602 10.56 40.8362 9.59999C40.8362 9.37199 40.9562 9.16799 41.1482 9.05999C41.9882 8.60399 42.9842 8.61599 43.8122 9.08399C44.6402 9.56399 45.1442 10.416 45.1682 11.376C45.1682 11.604 45.0482 11.808 44.8562 11.916C44.4362 12.156 43.9922 12.264 43.5482 12.264ZM42.0962 9.98399C42.2042 10.356 42.4442 10.668 42.7922 10.872C43.1402 11.064 43.5242 11.124 43.9082 11.028C43.8002 10.656 43.5602 10.344 43.2122 10.14C42.8642 9.94799 42.4682 9.88799 42.0962 9.98399ZM41.4362 34.572C37.8842 34.572 34.9922 31.68 34.9922 28.128C34.9922 24.576 37.8842 21.684 41.4362 21.684C44.9882 21.684 47.8802 24.576 47.8802 28.128C47.8802 31.68 44.9882 34.572 41.4362 34.572ZM41.4362 22.884C38.5442 22.884 36.1922 25.236 36.1922 28.128C36.1922 31.02 38.5442 33.372 41.4362 33.372C44.3282 33.372 46.6802 31.02 46.6802 28.128C46.6802 25.236 44.3162 22.884 41.4362 22.884Z" fill="#52006A"/>
<path d="M39.1676 30.24C38.9636 30.24 38.7596 30.132 38.6516 29.94L37.9196 28.68C37.7516 28.392 37.8476 28.02 38.1356 27.864C38.4236 27.696 38.7956 27.792 38.9516 28.08L39.3836 28.824L44.1236 26.088C44.4116 25.92 44.7836 26.016 44.9396 26.304C45.1076 26.592 45.0116 26.964 44.7236 27.12L39.4676 30.156C39.3716 30.216 39.2636 30.24 39.1676 30.24Z" fill="#52006A"/>
</svg>
