<svg width="50" height="51" viewBox="0 0 50 51" fill="none" xmlns="http://www.w3.org/2000/svg">
<path d="M49.7527 1.24584C49.6545 1.14535 49.5334 1.07013 49.3998 1.0266C49.2662 0.98307 49.1241 0.97252 48.9855 0.995852L28.7971 4.46977C28.1162 4.52149 27.5558 4.9525 27.3231 5.59039C27.0904 6.22828 27.2455 6.91789 27.7196 7.40062L30.6677 10.3401L26.9352 14.064C25.6249 7.84025 20.1511 3.30605 13.6171 3.30605C6.10891 3.30605 -0.00277602 9.40049 -0.00277602 16.8914C-0.00277602 23.391 4.54004 28.8648 10.781 30.175L6.17787 34.7696C6.09796 34.8493 6.03456 34.9441 5.9913 35.0483C5.94805 35.1526 5.92578 35.2644 5.92578 35.3773C5.92578 35.4902 5.94805 35.602 5.9913 35.7063C6.03456 35.8105 6.09796 35.9053 6.17787 35.985C6.35027 36.1488 6.56578 36.235 6.7899 36.235C7.01403 36.235 7.22953 36.1488 7.40193 35.985L31.8918 11.5555C32.5641 10.8832 32.5641 9.79702 31.8918 9.12465L29.0213 6.17656L48.0373 2.90952L44.2014 21.2704C44.1927 21.3049 44.1927 21.3394 44.1841 21.3739L41.236 18.4344C40.9085 18.1068 40.4774 17.9344 40.0206 17.9258C39.5637 17.9258 39.1241 18.1068 38.8051 18.4258L28.142 29.0544C28.0622 29.1342 27.9989 29.229 27.9557 29.3332C27.9125 29.4375 27.8903 29.5493 27.8903 29.6621C27.8903 29.775 27.9125 29.8868 27.9557 29.991C27.9989 30.0953 28.0622 30.1901 28.142 30.2699C28.2218 30.3497 28.3166 30.413 28.4208 30.4562C28.5251 30.4994 28.6369 30.5216 28.7497 30.5216C28.8626 30.5216 28.9744 30.4994 29.0786 30.4562C29.1829 30.413 29.2776 30.3497 29.3575 30.2699L40.0033 19.6498L42.9514 22.5893C43.4342 23.072 44.1324 23.2186 44.7617 22.9858C45.3823 22.7617 45.8047 22.2186 45.8823 21.5721L49.9769 2.02165C50.0057 1.88386 50.0003 1.74111 49.9613 1.60587C49.9222 1.47064 49.8506 1.34702 49.7527 1.24584ZM1.72125 16.8914C1.72125 10.3487 7.05713 5.03008 13.6171 5.03008C19.7115 5.03008 24.7629 9.54704 25.4353 15.5639L12.2809 28.6751C9.37677 28.3606 6.69154 26.9831 4.74206 24.8076C2.79258 22.6322 1.71662 19.8125 1.72125 16.8914ZM27.1593 32.4594L17.2289 42.3639C17.0565 42.5277 16.841 42.6139 16.6169 42.6139C16.3927 42.6139 16.1772 42.5277 16.0048 42.3639C15.9249 42.2842 15.8615 42.1895 15.8183 42.0852C15.775 41.9809 15.7527 41.8691 15.7527 41.7562C15.7527 41.6433 15.775 41.5315 15.8183 41.4272C15.8615 41.323 15.9249 41.2282 16.0048 41.1485L25.9439 31.2439C26.105 31.0828 26.3237 30.9922 26.5516 30.9922C26.7795 30.9922 26.9981 31.0828 27.1593 31.2439C27.3205 31.4051 27.411 31.6237 27.411 31.8517C27.411 32.0796 27.3205 32.2982 27.1593 32.4594ZM13.4102 38.6831L1.47127 50.5962C1.29887 50.7599 1.08336 50.8461 0.859239 50.8461C0.635115 50.8461 0.419611 50.7599 0.247208 50.5962C0.167296 50.5164 0.103897 50.4217 0.0606402 50.3174C0.017383 50.2131 -0.00488281 50.1013 -0.00488281 49.9884C-0.00488281 49.8755 0.017383 49.7638 0.0606402 49.6595C0.103897 49.5552 0.167296 49.4605 0.247208 49.3807L12.1947 37.4677C12.2745 37.3879 12.3693 37.3246 12.4736 37.2814C12.5778 37.2382 12.6896 37.216 12.8025 37.216C12.9153 37.216 13.0271 37.2382 13.1314 37.2814C13.2356 37.3246 13.3304 37.3879 13.4102 37.4677C13.49 37.5475 13.5533 37.6422 13.5965 37.7465C13.6397 37.8508 13.6619 37.9625 13.6619 38.0754C13.6619 38.1883 13.6397 38.3 13.5965 38.4043C13.5533 38.5086 13.49 38.6033 13.4102 38.6831ZM16.2031 35.8988C16.0307 36.0626 15.8152 36.1488 15.5911 36.1488C15.367 36.1488 15.1514 36.0626 14.979 35.8988C14.8991 35.8191 14.8357 35.7243 14.7925 35.6201C14.7492 35.5158 14.727 35.404 14.727 35.2911C14.727 35.1782 14.7492 35.0664 14.7925 34.9621C14.8357 34.8579 14.8991 34.7631 14.979 34.6834L20.0649 29.6061C20.1447 29.5263 20.2395 29.463 20.3438 29.4198C20.448 29.3766 20.5598 29.3544 20.6727 29.3544C20.7855 29.3544 20.8973 29.3766 21.0015 29.4198C21.1058 29.463 21.2006 29.5263 21.2804 29.6061C21.3602 29.6859 21.4235 29.7807 21.4667 29.8849C21.5099 29.9892 21.5321 30.101 21.5321 30.2138C21.5321 30.3267 21.5099 30.4385 21.4667 30.5427C21.4235 30.647 21.3602 30.7417 21.2804 30.8216L16.2031 35.8988ZM14.5136 43.8552C14.8497 44.1914 14.8497 44.7345 14.5136 45.0707L8.83288 50.7341C8.6691 50.8979 8.45359 50.9841 8.22947 50.9841C8.00534 50.9841 7.78984 50.8979 7.61744 50.7341C7.53752 50.6543 7.47413 50.5596 7.43087 50.4553C7.38761 50.3511 7.36535 50.2393 7.36535 50.1264C7.36535 50.0135 7.38761 49.9017 7.43087 49.7974C7.47413 49.6931 7.53752 49.5984 7.61744 49.5186L13.2981 43.8552C13.3779 43.7753 13.4726 43.7119 13.5769 43.6686C13.6812 43.6254 13.7929 43.6031 13.9058 43.6031C14.0187 43.6031 14.1305 43.6254 14.2348 43.6686C14.3391 43.7119 14.4338 43.7753 14.5136 43.8552ZM17.7547 18.8223C17.7547 20.6843 16.2376 22.2014 14.367 22.2014H14.1429V23.5031C14.1429 23.9772 13.755 24.3651 13.2809 24.3651C12.8068 24.3651 12.4189 23.9772 12.4189 23.5031V22.2014H11.1172C10.6431 22.2014 10.2552 21.8135 10.2552 21.3394C10.2552 20.8653 10.6431 20.4774 11.1172 20.4774H14.367C15.2807 20.4774 16.0307 19.736 16.0307 18.8137C16.0307 17.9 15.2807 17.15 14.367 17.15H12.9274C11.0569 17.15 9.53973 15.6329 9.53973 13.7709C9.53973 12.0814 10.7983 10.6849 12.4275 10.4435V9.09017C12.4275 8.61606 12.8154 8.22815 13.2895 8.22815C13.7636 8.22815 14.1515 8.61606 14.1515 9.09017V10.3918H16.1772C16.6514 10.3918 17.0393 10.7797 17.0393 11.2538C17.0393 11.7279 16.6514 12.1158 16.1772 12.1158H12.9274C12.4955 12.1297 12.0859 12.3111 11.7852 12.6216C11.4846 12.9321 11.3165 13.3473 11.3165 13.7795C11.3165 14.2117 11.4846 14.627 11.7852 14.9375C12.0859 15.2479 12.4955 15.4293 12.9274 15.4432H14.3756C16.2376 15.4432 17.7547 16.9604 17.7547 18.8223ZM44.4341 31.7353C44.6237 31.9163 44.7186 32.1749 44.6927 32.4335L43.9858 40.3382C43.9945 40.7261 43.7186 41.1399 43.2876 41.3209C42.8394 41.5105 42.3135 41.3985 41.9515 41.0364L41.0291 40.1141L32.5124 48.6135C32.34 48.7773 32.1245 48.8635 31.9004 48.8635C31.6763 48.8635 31.4608 48.7773 31.2884 48.6135C31.2085 48.5338 31.1451 48.4391 31.1018 48.3348C31.0585 48.2305 31.0363 48.1187 31.0363 48.0058C31.0363 47.8929 31.0585 47.7811 31.1018 47.6768C31.1451 47.5726 31.2085 47.4778 31.2884 47.3981L40.193 38.5107C40.6499 38.0539 41.417 38.0711 41.8998 38.5538L42.3739 39.0279L42.8825 33.3473L37.3742 34.0455L37.8828 34.5541C38.1155 34.7868 38.2534 35.1144 38.2534 35.442C38.2534 35.7523 38.1328 36.0367 37.9173 36.2522L34.0468 40.1141C33.8856 40.2752 33.667 40.3658 33.4391 40.3658C33.2112 40.3658 32.9926 40.2752 32.8314 40.1141C32.6702 39.9529 32.5797 39.7343 32.5797 39.5064C32.5797 39.2784 32.6702 39.0598 32.8314 38.8986L36.3139 35.4247L35.3916 34.5024C35.0295 34.1403 34.9174 33.6145 35.1071 33.1662C35.2709 32.7611 35.6588 32.4939 36.0984 32.468L43.7272 31.5025C43.9858 31.4681 44.2445 31.5543 44.4341 31.7353ZM28.4265 44.5017C28.3466 44.422 28.2832 44.3273 28.2399 44.223C28.1967 44.1187 28.1744 44.0069 28.1744 43.894C28.1744 43.7811 28.1967 43.6693 28.2399 43.565C28.2832 43.4608 28.3466 43.366 28.4265 43.2863L31.3918 40.3296C31.553 40.1684 31.7716 40.0779 31.9995 40.0779C32.2275 40.0779 32.4461 40.1684 32.6073 40.3296C32.7684 40.4907 32.859 40.7094 32.859 40.9373C32.859 41.1652 32.7684 41.3838 32.6073 41.545L29.6419 44.5017C29.4695 44.6655 29.254 44.7517 29.0299 44.7517C28.8058 44.7517 28.5903 44.6741 28.4265 44.5017ZM30.3488 45.812C30.685 46.1482 30.685 46.6912 30.3488 47.0274L26.8921 50.4755C26.7197 50.6393 26.5042 50.7255 26.2801 50.7255C26.0559 50.7255 25.8404 50.6393 25.668 50.4755C25.5881 50.3957 25.5247 50.301 25.4815 50.1967C25.4382 50.0924 25.4159 49.9807 25.4159 49.8678C25.4159 49.7549 25.4382 49.6431 25.4815 49.5388C25.5247 49.4345 25.5881 49.3398 25.668 49.26L29.1247 45.812C29.4609 45.4758 30.0126 45.4758 30.3488 45.812ZM31.6418 45.381C31.4177 45.381 31.2022 45.2948 31.0298 45.131C30.9499 45.0512 30.8865 44.9565 30.8432 44.8522C30.7999 44.748 30.7777 44.6362 30.7777 44.5233C30.7777 44.4104 30.7999 44.2986 30.8432 44.1943C30.8865 44.09 30.9499 43.9953 31.0298 43.9156L32.8831 42.0708C32.9629 41.991 33.0576 41.9277 33.1619 41.8845C33.2662 41.8413 33.378 41.8191 33.4908 41.8191C33.6037 41.8191 33.7154 41.8413 33.8197 41.8845C33.924 41.9277 34.0187 41.991 34.0985 42.0708C34.1783 42.1507 34.2416 42.2454 34.2848 42.3497C34.328 42.4539 34.3503 42.5657 34.3503 42.6786C34.3503 42.7914 34.328 42.9032 34.2848 43.0075C34.2416 43.1117 34.1783 43.2065 34.0985 43.2863L32.2452 45.131C32.0814 45.2948 31.8573 45.381 31.6418 45.381ZM25.9784 47.8032C25.7542 47.8032 25.5387 47.717 25.3663 47.5533C25.2864 47.4735 25.223 47.3788 25.1798 47.2745C25.1365 47.1702 25.1142 47.0584 25.1142 46.9455C25.1142 46.8326 25.1365 46.7209 25.1798 46.6166C25.223 46.5123 25.2864 46.4176 25.3663 46.3378L27.0731 44.631C27.1529 44.5512 27.2477 44.4879 27.3519 44.4447C27.4562 44.4015 27.568 44.3793 27.6808 44.3793C27.7937 44.3793 27.9055 44.4015 28.0097 44.4447C28.114 44.4879 28.2087 44.5512 28.2886 44.631C28.3684 44.7108 28.4317 44.8056 28.4749 44.9099C28.518 45.0141 28.5403 45.1259 28.5403 45.2387C28.5403 45.3516 28.518 45.4634 28.4749 45.5676C28.4317 45.6719 28.3684 45.7667 28.2886 45.8465L26.5818 47.5533C26.418 47.717 26.2025 47.8032 25.9784 47.8032Z" fill="#52006A"/>
</svg>
