<svg width="367" height="214" viewBox="0 0 367 214" fill="none" xmlns="http://www.w3.org/2000/svg">
<path d="M0 0H367V214H0V0Z" fill="white"/>
<rect x="159.5" y="26" width="48" height="48" rx="24" fill="white"/>
<rect x="159.5" y="26" width="48" height="48" rx="24" stroke="#FF7600" stroke-opacity="0.09" stroke-width="8"/>
<path d="M188.573 50.075C188.441 51.3549 187.874 52.5507 186.966 53.4628C186.059 54.375 184.866 54.9482 183.587 55.0867C183.561 55.0864 183.535 55.0912 183.511 55.1009C183.487 55.1106 183.466 55.125 183.448 55.1432C183.429 55.1615 183.415 55.1831 183.405 55.207C183.396 55.2308 183.391 55.2564 183.391 55.2822V59.4659C183.391 59.5696 183.35 59.669 183.277 59.7423C183.203 59.8157 183.104 59.8569 183 59.8569C182.896 59.8569 182.797 59.8157 182.724 59.7423C182.65 59.669 182.609 59.5696 182.609 59.4659V57.9479C182.605 57.8973 182.584 57.8497 182.548 57.8138C182.512 57.7779 182.464 57.7561 182.414 57.7524C180.675 57.6116 179.025 56.9228 177.702 55.7849C176.38 54.6471 175.452 53.119 175.054 51.4205C175.039 51.3701 175.034 51.3173 175.04 51.2652C175.046 51.2131 175.062 51.1627 175.088 51.1171C175.114 51.0714 175.149 51.0314 175.191 50.9995C175.232 50.9676 175.28 50.9444 175.331 50.9313C175.382 50.9181 175.434 50.9154 175.486 50.9231C175.538 50.9309 175.588 50.949 175.633 50.9764C175.678 51.0038 175.716 51.0399 175.747 51.0826C175.777 51.1253 175.799 51.1737 175.81 51.225C176.165 52.7496 176.992 54.1233 178.173 55.1504C179.354 56.1775 180.829 56.8056 182.388 56.9451C182.439 56.9704 182.487 56.9451 182.535 56.8968C182.561 56.8824 182.582 56.8606 182.595 56.8344C182.608 56.8082 182.613 56.7786 182.609 56.7496V55.2822C182.609 55.2564 182.604 55.2308 182.595 55.207C182.585 55.1831 182.571 55.1615 182.552 55.1432C182.534 55.125 182.513 55.1106 182.489 55.1009C182.465 55.0912 182.439 55.0864 182.414 55.0867C181.14 54.9448 179.952 54.3776 179.042 53.4767C178.131 52.5616 177.563 51.3615 177.432 50.0773C177.424 50.0303 177.401 49.9873 177.365 49.9559C177.329 49.9244 177.284 49.9063 177.236 49.9048H173.053C172.946 49.9048 172.843 49.8624 172.768 49.7869C172.692 49.7114 172.65 49.609 172.65 49.5023C172.65 49.3955 172.692 49.2931 172.768 49.2177C172.843 49.1422 172.946 49.0998 173.053 49.0998H174.642C174.689 49.0978 174.735 49.0796 174.77 49.0482C174.806 49.0168 174.829 48.9741 174.837 48.9273C174.942 47.1909 175.587 45.5306 176.682 44.1794C177.778 42.8281 179.269 41.8536 180.946 41.3925C181.048 41.3732 181.153 41.3935 181.24 41.4492C181.327 41.505 181.389 41.5919 181.414 41.6923C181.439 41.7926 181.425 41.8987 181.374 41.9888C181.324 42.0788 181.24 42.1461 181.142 42.1768C179.641 42.5814 178.304 43.4446 177.318 44.6457C176.332 45.8468 175.745 47.326 175.64 48.8767C175.634 48.9052 175.634 48.9349 175.641 48.9634C175.648 48.9918 175.661 49.0182 175.68 49.0406C175.699 49.0629 175.723 49.0805 175.75 49.092C175.777 49.1034 175.806 49.1085 175.836 49.1067H177.227C177.275 49.1051 177.32 49.087 177.356 49.0556C177.391 49.0241 177.415 48.9812 177.423 48.9342C177.553 47.6519 178.12 46.4534 179.028 45.5393C179.937 44.6252 181.132 44.0512 182.414 43.9133C182.439 43.9136 182.465 43.9087 182.489 43.899C182.513 43.8893 182.534 43.8749 182.552 43.8567C182.571 43.8385 182.585 43.8168 182.595 43.7929C182.604 43.7691 182.609 43.7435 182.609 43.7178V39.5341C182.609 39.4304 182.65 39.3309 182.724 39.2576C182.797 39.1843 182.896 39.1431 183 39.1431C183.104 39.1431 183.203 39.1843 183.277 39.2576C183.35 39.3309 183.391 39.4304 183.391 39.5341V44.279C183.394 44.3343 183.385 44.3896 183.365 44.4413C183.345 44.493 183.314 44.54 183.275 44.5792C183.236 44.6184 183.189 44.6489 183.137 44.6689C183.085 44.6889 183.03 44.6979 182.975 44.6953C178.722 44.6953 176.597 49.9025 179.603 52.9109C182.609 55.9193 187.74 53.7665 187.814 49.5C187.813 49.4484 187.823 49.3973 187.842 49.3496C187.862 49.3019 187.891 49.2585 187.927 49.2221C187.964 49.1857 188.007 49.1569 188.055 49.1375C188.102 49.118 188.153 49.1083 188.205 49.109H192.948C193.054 49.109 193.157 49.1514 193.232 49.2269C193.308 49.3023 193.35 49.4047 193.35 49.5115C193.35 49.6182 193.308 49.7206 193.232 49.7961C193.157 49.8716 193.054 49.914 192.948 49.914H191.384C191.335 49.912 191.288 49.9289 191.251 49.961C191.215 49.9931 191.192 50.0381 191.188 50.0865C191.061 51.8337 190.385 53.4962 189.257 54.8365C188.129 56.1769 186.607 57.1265 184.907 57.55C184.394 57.6719 184.217 56.8899 184.734 56.768C186.252 56.3905 187.614 55.5463 188.627 54.3542C189.64 53.1622 190.253 51.6824 190.381 50.1233C190.387 50.0947 190.387 50.065 190.38 50.0366C190.373 50.0081 190.359 49.9817 190.341 49.9594C190.322 49.937 190.298 49.9194 190.271 49.908C190.244 49.8965 190.214 49.8915 190.185 49.8933H188.768C188.721 49.8948 188.675 49.9129 188.64 49.9444C188.604 49.9758 188.58 50.0188 188.573 50.0658V50.075ZM191.74 43.5706L188.913 46.3812C188.844 46.4561 188.748 46.5008 188.647 46.5054H186.763C186.711 46.5099 186.662 46.5264 186.618 46.5537L183.269 49.9278C183.194 49.9981 183.094 50.0365 182.991 50.0349C182.888 50.0332 182.79 49.9917 182.717 49.919C182.644 49.8462 182.602 49.748 182.6 49.645C182.598 49.542 182.636 49.4422 182.706 49.3666L186.054 45.9902C186.077 45.9789 186.096 45.9614 186.109 45.9399C186.122 45.9183 186.129 45.8935 186.128 45.8683V43.98C186.128 43.9256 186.138 43.8716 186.159 43.8214C186.18 43.7712 186.211 43.7258 186.25 43.6879L189.061 40.8796C189.115 40.8209 189.185 40.7799 189.263 40.762C189.341 40.7441 189.423 40.75 189.497 40.779C189.572 40.8081 189.636 40.8589 189.681 40.9248C189.726 40.9907 189.75 41.0687 189.751 41.1487V42.6897C189.754 42.7404 189.775 42.7883 189.811 42.8243C189.847 42.8603 189.895 42.8819 189.946 42.8852H191.462C191.543 42.883 191.622 42.9053 191.69 42.9491C191.758 42.9929 191.811 43.0561 191.843 43.1306C191.874 43.2051 191.883 43.2873 191.867 43.3666C191.851 43.4459 191.812 43.5186 191.754 43.5752L191.74 43.5706ZM188.52 45.6406L190.158 44.003C190.186 43.9767 190.206 43.9426 190.215 43.905C190.225 43.8674 190.223 43.8279 190.21 43.7914C190.197 43.7549 190.173 43.723 190.142 43.6997C190.111 43.6764 190.074 43.6627 190.036 43.6603H189.346C189.239 43.6628 189.135 43.6232 189.058 43.55C188.98 43.4769 188.934 43.376 188.929 43.2693V42.6C188.929 42.5604 188.917 42.5217 188.895 42.4887C188.873 42.4557 188.842 42.43 188.806 42.4145C188.769 42.3991 188.729 42.3947 188.69 42.4019C188.651 42.4091 188.615 42.4276 188.587 42.4551L186.977 44.0927C186.934 44.1301 186.907 44.183 186.903 44.2399V45.5118C186.903 45.5375 186.908 45.5631 186.917 45.5869C186.927 45.6108 186.941 45.6325 186.96 45.6507C186.978 45.6689 187 45.6833 187.023 45.693C187.047 45.7027 187.073 45.7076 187.099 45.7073H188.394C188.444 45.7073 188.492 45.7073 188.515 45.6567L188.52 45.6406ZM186.321 49.5046C186.322 50.1622 186.128 50.8053 185.763 51.3525C185.398 51.8997 184.88 52.3264 184.272 52.5786C183.665 52.8308 182.996 52.8971 182.351 52.7692C181.706 52.6413 181.114 52.3249 180.648 51.86C180.183 51.3952 179.866 50.8028 179.738 50.1578C179.61 49.5129 179.676 48.8443 179.927 48.2368C180.179 47.6293 180.606 47.1101 181.152 46.745C181.699 46.3799 182.342 46.1852 183 46.1857C183.099 46.1932 183.191 46.2378 183.259 46.3105C183.326 46.3833 183.363 46.4787 183.363 46.5778C183.363 46.6769 183.326 46.7724 183.259 46.8451C183.191 46.9178 183.099 46.9624 183 46.97C182.329 46.97 181.686 47.2365 181.211 47.711C180.737 48.1855 180.47 48.829 180.47 49.5C180.47 50.171 180.737 50.8145 181.211 51.2889C181.686 51.7634 182.329 52.03 183 52.03C184.467 52.03 185.445 50.9306 185.516 49.5C185.514 49.4445 185.523 49.3891 185.543 49.3373C185.563 49.2855 185.594 49.2384 185.633 49.1988C185.672 49.1593 185.718 49.1283 185.77 49.1076C185.821 49.0869 185.877 49.077 185.932 49.0786C185.988 49.0802 186.042 49.0932 186.093 49.1168C186.143 49.1403 186.188 49.174 186.224 49.2157C186.261 49.2574 186.289 49.3062 186.306 49.359C186.323 49.4119 186.329 49.4677 186.324 49.523L186.321 49.5046Z" fill="#FF7600"/>
<path d="M116.22 110.16C115.847 110.16 115.56 110.053 115.36 109.84C115.16 109.627 115.06 109.333 115.06 108.96V96.94C115.06 96.5533 115.167 96.26 115.38 96.06C115.594 95.8467 115.887 95.74 116.26 95.74C116.594 95.74 116.854 95.8067 117.04 95.94C117.24 96.06 117.42 96.2733 117.58 96.58L122.52 105.72H121.88L126.82 96.58C126.98 96.2733 127.154 96.06 127.34 95.94C127.527 95.8067 127.787 95.74 128.12 95.74C128.494 95.74 128.78 95.8467 128.98 96.06C129.18 96.26 129.28 96.5533 129.28 96.94V108.96C129.28 109.333 129.18 109.627 128.98 109.84C128.794 110.053 128.507 110.16 128.12 110.16C127.747 110.16 127.46 110.053 127.26 109.84C127.06 109.627 126.96 109.333 126.96 108.96V99.7H127.4L123.2 107.36C123.067 107.587 122.927 107.753 122.78 107.86C122.634 107.967 122.434 108.02 122.18 108.02C121.927 108.02 121.72 107.967 121.56 107.86C121.4 107.74 121.26 107.573 121.14 107.36L116.9 99.68H117.38V108.96C117.38 109.333 117.28 109.627 117.08 109.84C116.894 110.053 116.607 110.16 116.22 110.16ZM133.384 110.14C132.984 110.14 132.677 110.02 132.464 109.78C132.25 109.54 132.144 109.207 132.144 108.78V101.44C132.144 101 132.25 100.667 132.464 100.44C132.677 100.2 132.984 100.08 133.384 100.08C133.784 100.08 134.09 100.2 134.304 100.44C134.53 100.667 134.644 101 134.644 101.44V108.78C134.644 109.207 134.537 109.54 134.324 109.78C134.11 110.02 133.797 110.14 133.384 110.14ZM133.384 98.22C132.917 98.22 132.55 98.1067 132.284 97.88C132.03 97.64 131.904 97.3133 131.904 96.9C131.904 96.4733 132.03 96.1467 132.284 95.92C132.55 95.6933 132.917 95.58 133.384 95.58C133.864 95.58 134.23 95.6933 134.484 95.92C134.737 96.1467 134.864 96.4733 134.864 96.9C134.864 97.3133 134.737 97.64 134.484 97.88C134.23 98.1067 133.864 98.22 133.384 98.22ZM140.821 110.2C140.248 110.2 139.641 110.14 139.001 110.02C138.361 109.9 137.788 109.693 137.281 109.4C137.068 109.267 136.915 109.113 136.821 108.94C136.741 108.753 136.708 108.573 136.721 108.4C136.748 108.213 136.815 108.053 136.921 107.92C137.041 107.787 137.188 107.7 137.361 107.66C137.548 107.62 137.748 107.653 137.961 107.76C138.495 108.013 138.995 108.193 139.461 108.3C139.928 108.393 140.388 108.44 140.841 108.44C141.481 108.44 141.955 108.333 142.261 108.12C142.581 107.893 142.741 107.6 142.741 107.24C142.741 106.933 142.635 106.7 142.421 106.54C142.221 106.367 141.915 106.24 141.501 106.16L139.501 105.78C138.675 105.62 138.041 105.32 137.601 104.88C137.175 104.427 136.961 103.847 136.961 103.14C136.961 102.5 137.135 101.947 137.481 101.48C137.841 101.013 138.335 100.653 138.961 100.4C139.588 100.147 140.308 100.02 141.121 100.02C141.708 100.02 142.255 100.087 142.761 100.22C143.281 100.34 143.781 100.533 144.261 100.8C144.461 100.907 144.595 101.047 144.661 101.22C144.741 101.393 144.761 101.573 144.721 101.76C144.681 101.933 144.601 102.093 144.481 102.24C144.361 102.373 144.208 102.46 144.021 102.5C143.848 102.527 143.648 102.487 143.421 102.38C143.008 102.167 142.608 102.013 142.221 101.92C141.848 101.827 141.488 101.78 141.141 101.78C140.488 101.78 140.001 101.893 139.681 102.12C139.375 102.347 139.221 102.647 139.221 103.02C139.221 103.3 139.315 103.533 139.501 103.72C139.688 103.907 139.975 104.033 140.361 104.1L142.361 104.48C143.228 104.64 143.881 104.933 144.321 105.36C144.775 105.787 145.001 106.36 145.001 107.08C145.001 108.053 144.621 108.82 143.861 109.38C143.101 109.927 142.088 110.2 140.821 110.2ZM150.587 110.2C150.014 110.2 149.407 110.14 148.767 110.02C148.127 109.9 147.554 109.693 147.047 109.4C146.834 109.267 146.68 109.113 146.587 108.94C146.507 108.753 146.474 108.573 146.487 108.4C146.514 108.213 146.58 108.053 146.687 107.92C146.807 107.787 146.954 107.7 147.127 107.66C147.314 107.62 147.514 107.653 147.727 107.76C148.26 108.013 148.76 108.193 149.227 108.3C149.694 108.393 150.154 108.44 150.607 108.44C151.247 108.44 151.72 108.333 152.027 108.12C152.347 107.893 152.507 107.6 152.507 107.24C152.507 106.933 152.4 106.7 152.187 106.54C151.987 106.367 151.68 106.24 151.267 106.16L149.267 105.78C148.44 105.62 147.807 105.32 147.367 104.88C146.94 104.427 146.727 103.847 146.727 103.14C146.727 102.5 146.9 101.947 147.247 101.48C147.607 101.013 148.1 100.653 148.727 100.4C149.354 100.147 150.074 100.02 150.887 100.02C151.474 100.02 152.02 100.087 152.527 100.22C153.047 100.34 153.547 100.533 154.027 100.8C154.227 100.907 154.36 101.047 154.427 101.22C154.507 101.393 154.527 101.573 154.487 101.76C154.447 101.933 154.367 102.093 154.247 102.24C154.127 102.373 153.974 102.46 153.787 102.5C153.614 102.527 153.414 102.487 153.187 102.38C152.774 102.167 152.374 102.013 151.987 101.92C151.614 101.827 151.254 101.78 150.907 101.78C150.254 101.78 149.767 101.893 149.447 102.12C149.14 102.347 148.987 102.647 148.987 103.02C148.987 103.3 149.08 103.533 149.267 103.72C149.454 103.907 149.74 104.033 150.127 104.1L152.127 104.48C152.994 104.64 153.647 104.933 154.087 105.36C154.54 105.787 154.767 106.36 154.767 107.08C154.767 108.053 154.387 108.82 153.627 109.38C152.867 109.927 151.854 110.2 150.587 110.2ZM158.013 110.14C157.613 110.14 157.306 110.02 157.093 109.78C156.879 109.54 156.773 109.207 156.773 108.78V101.44C156.773 101 156.879 100.667 157.093 100.44C157.306 100.2 157.613 100.08 158.013 100.08C158.413 100.08 158.719 100.2 158.933 100.44C159.159 100.667 159.273 101 159.273 101.44V108.78C159.273 109.207 159.166 109.54 158.953 109.78C158.739 110.02 158.426 110.14 158.013 110.14ZM158.013 98.22C157.546 98.22 157.179 98.1067 156.913 97.88C156.659 97.64 156.533 97.3133 156.533 96.9C156.533 96.4733 156.659 96.1467 156.913 95.92C157.179 95.6933 157.546 95.58 158.013 95.58C158.493 95.58 158.859 95.6933 159.113 95.92C159.366 96.1467 159.493 96.4733 159.493 96.9C159.493 97.3133 159.366 97.64 159.113 97.88C158.859 98.1067 158.493 98.22 158.013 98.22ZM166.33 110.2C165.317 110.2 164.437 109.993 163.69 109.58C162.944 109.167 162.364 108.58 161.95 107.82C161.537 107.047 161.33 106.14 161.33 105.1C161.33 104.313 161.444 103.613 161.67 103C161.91 102.373 162.25 101.84 162.69 101.4C163.13 100.947 163.657 100.607 164.27 100.38C164.884 100.14 165.57 100.02 166.33 100.02C167.344 100.02 168.224 100.227 168.97 100.64C169.717 101.053 170.297 101.64 170.71 102.4C171.124 103.16 171.33 104.06 171.33 105.1C171.33 105.887 171.21 106.593 170.97 107.22C170.744 107.847 170.41 108.387 169.97 108.84C169.53 109.28 169.004 109.62 168.39 109.86C167.777 110.087 167.09 110.2 166.33 110.2ZM166.33 108.3C166.824 108.3 167.257 108.18 167.63 107.94C168.004 107.7 168.29 107.347 168.49 106.88C168.704 106.4 168.81 105.807 168.81 105.1C168.81 104.033 168.584 103.24 168.13 102.72C167.677 102.187 167.077 101.92 166.33 101.92C165.837 101.92 165.404 102.04 165.03 102.28C164.657 102.507 164.364 102.86 164.15 103.34C163.95 103.807 163.85 104.393 163.85 105.1C163.85 106.153 164.077 106.953 164.53 107.5C164.984 108.033 165.584 108.3 166.33 108.3ZM174.634 110.16C174.234 110.16 173.927 110.053 173.714 109.84C173.5 109.613 173.394 109.293 173.394 108.88V101.32C173.394 100.907 173.5 100.593 173.714 100.38C173.927 100.167 174.227 100.06 174.614 100.06C175 100.06 175.3 100.167 175.514 100.38C175.727 100.593 175.834 100.907 175.834 101.32V102.68L175.614 102.18C175.907 101.473 176.36 100.94 176.974 100.58C177.6 100.207 178.307 100.02 179.094 100.02C179.88 100.02 180.527 100.167 181.034 100.46C181.54 100.753 181.92 101.2 182.174 101.8C182.427 102.387 182.554 103.133 182.554 104.04V108.88C182.554 109.293 182.447 109.613 182.234 109.84C182.02 110.053 181.714 110.16 181.314 110.16C180.914 110.16 180.6 110.053 180.374 109.84C180.16 109.613 180.054 109.293 180.054 108.88V104.16C180.054 103.4 179.907 102.847 179.614 102.5C179.334 102.153 178.894 101.98 178.294 101.98C177.56 101.98 176.974 102.213 176.534 102.68C176.107 103.133 175.894 103.74 175.894 104.5V108.88C175.894 109.733 175.474 110.16 174.634 110.16ZM186.013 105.64C185.72 105.64 185.473 105.547 185.273 105.36C185.086 105.16 184.993 104.92 184.993 104.64C184.993 104.347 185.086 104.107 185.273 103.92C185.473 103.733 185.72 103.64 186.013 103.64H190.273C190.553 103.64 190.786 103.733 190.973 103.92C191.173 104.107 191.273 104.347 191.273 104.64C191.273 104.92 191.173 105.16 190.973 105.36C190.786 105.547 190.553 105.64 190.273 105.64H186.013ZM195.365 110C194.925 110 194.585 109.887 194.345 109.66C194.118 109.42 194.005 109.08 194.005 108.64V97.26C194.005 96.82 194.118 96.4867 194.345 96.26C194.585 96.02 194.925 95.9 195.365 95.9H199.245C201.605 95.9 203.425 96.5067 204.705 97.72C205.998 98.9333 206.645 100.673 206.645 102.94C206.645 104.073 206.478 105.08 206.145 105.96C205.825 106.827 205.345 107.56 204.705 108.16C204.078 108.76 203.305 109.22 202.385 109.54C201.478 109.847 200.432 110 199.245 110H195.365ZM196.565 107.88H199.085C199.912 107.88 200.625 107.78 201.225 107.58C201.838 107.367 202.345 107.06 202.745 106.66C203.158 106.247 203.465 105.733 203.665 105.12C203.865 104.493 203.965 103.767 203.965 102.94C203.965 101.287 203.558 100.053 202.745 99.24C201.932 98.4267 200.712 98.02 199.085 98.02H196.565V107.88ZM210.279 110.16C209.866 110.16 209.546 110.053 209.319 109.84C209.106 109.613 208.999 109.293 208.999 108.88V101.32C208.999 100.907 209.106 100.593 209.319 100.38C209.533 100.167 209.833 100.06 210.219 100.06C210.606 100.06 210.906 100.167 211.119 100.38C211.333 100.593 211.439 100.907 211.439 101.32V102.58H211.239C211.426 101.78 211.793 101.173 212.339 100.76C212.886 100.347 213.613 100.1 214.519 100.02C214.799 99.9933 215.019 100.067 215.179 100.24C215.353 100.4 215.453 100.653 215.479 101C215.506 101.333 215.426 101.607 215.239 101.82C215.066 102.02 214.799 102.14 214.439 102.18L213.999 102.22C213.186 102.3 212.573 102.553 212.159 102.98C211.746 103.393 211.539 103.98 211.539 104.74V108.88C211.539 109.293 211.433 109.613 211.219 109.84C211.006 110.053 210.693 110.16 210.279 110.16ZM218.071 110.14C217.671 110.14 217.365 110.02 217.151 109.78C216.938 109.54 216.831 109.207 216.831 108.78V101.44C216.831 101 216.938 100.667 217.151 100.44C217.365 100.2 217.671 100.08 218.071 100.08C218.471 100.08 218.778 100.2 218.991 100.44C219.218 100.667 219.331 101 219.331 101.44V108.78C219.331 109.207 219.225 109.54 219.011 109.78C218.798 110.02 218.485 110.14 218.071 110.14ZM218.071 98.22C217.605 98.22 217.238 98.1067 216.971 97.88C216.718 97.64 216.591 97.3133 216.591 96.9C216.591 96.4733 216.718 96.1467 216.971 95.92C217.238 95.6933 217.605 95.58 218.071 95.58C218.551 95.58 218.918 95.6933 219.171 95.92C219.425 96.1467 219.551 96.4733 219.551 96.9C219.551 97.3133 219.425 97.64 219.171 97.88C218.918 98.1067 218.551 98.22 218.071 98.22ZM225.889 110.16C225.556 110.16 225.262 110.073 225.009 109.9C224.769 109.727 224.569 109.46 224.409 109.1L221.229 101.72C221.109 101.427 221.062 101.153 221.089 100.9C221.129 100.647 221.249 100.447 221.449 100.3C221.662 100.14 221.949 100.06 222.309 100.06C222.616 100.06 222.862 100.133 223.049 100.28C223.236 100.413 223.402 100.673 223.549 101.06L226.249 107.8H225.649L228.429 101.04C228.576 100.667 228.742 100.413 228.929 100.28C229.129 100.133 229.396 100.06 229.729 100.06C230.022 100.06 230.256 100.14 230.429 100.3C230.602 100.447 230.709 100.647 230.749 100.9C230.789 101.14 230.742 101.407 230.609 101.7L227.369 109.1C227.222 109.46 227.022 109.727 226.769 109.9C226.529 110.073 226.236 110.16 225.889 110.16ZM237.1 110.2C235.994 110.2 235.04 109.993 234.24 109.58C233.44 109.167 232.82 108.58 232.38 107.82C231.954 107.06 231.74 106.16 231.74 105.12C231.74 104.107 231.947 103.22 232.36 102.46C232.787 101.7 233.367 101.107 234.1 100.68C234.847 100.24 235.694 100.02 236.64 100.02C237.334 100.02 237.954 100.133 238.5 100.36C239.06 100.587 239.534 100.913 239.92 101.34C240.32 101.767 240.62 102.287 240.82 102.9C241.034 103.5 241.14 104.18 241.14 104.94C241.14 105.18 241.054 105.367 240.88 105.5C240.72 105.62 240.487 105.68 240.18 105.68H233.76V104.24H239.38L239.06 104.54C239.06 103.927 238.967 103.413 238.78 103C238.607 102.587 238.347 102.273 238 102.06C237.667 101.833 237.247 101.72 236.74 101.72C236.18 101.72 235.7 101.853 235.3 102.12C234.914 102.373 234.614 102.74 234.4 103.22C234.2 103.687 234.1 104.247 234.1 104.9V105.04C234.1 106.133 234.354 106.953 234.86 107.5C235.38 108.033 236.14 108.3 237.14 108.3C237.487 108.3 237.874 108.26 238.3 108.18C238.74 108.087 239.154 107.933 239.54 107.72C239.82 107.56 240.067 107.493 240.28 107.52C240.494 107.533 240.66 107.607 240.78 107.74C240.914 107.873 240.994 108.04 241.02 108.24C241.047 108.427 241.007 108.62 240.9 108.82C240.807 109.02 240.64 109.193 240.4 109.34C239.934 109.633 239.394 109.853 238.78 110C238.18 110.133 237.62 110.2 237.1 110.2ZM244.36 110.16C243.96 110.16 243.654 110.053 243.44 109.84C243.227 109.613 243.12 109.293 243.12 108.88V101.32C243.12 100.907 243.227 100.593 243.44 100.38C243.654 100.167 243.954 100.06 244.34 100.06C244.727 100.06 245.027 100.167 245.24 100.38C245.454 100.593 245.56 100.907 245.56 101.32V102.68L245.34 102.18C245.634 101.473 246.087 100.94 246.7 100.58C247.327 100.207 248.034 100.02 248.82 100.02C249.607 100.02 250.254 100.167 250.76 100.46C251.267 100.753 251.647 101.2 251.9 101.8C252.154 102.387 252.28 103.133 252.28 104.04V108.88C252.28 109.293 252.174 109.613 251.96 109.84C251.747 110.053 251.44 110.16 251.04 110.16C250.64 110.16 250.327 110.053 250.1 109.84C249.887 109.613 249.78 109.293 249.78 108.88V104.16C249.78 103.4 249.634 102.847 249.34 102.5C249.06 102.153 248.62 101.98 248.02 101.98C247.287 101.98 246.7 102.213 246.26 102.68C245.834 103.133 245.62 103.74 245.62 104.5V108.88C245.62 109.733 245.2 110.16 244.36 110.16Z" fill="black"/>
<path d="M34.7371 139.144C33.9797 139.144 33.3237 138.979 32.7691 138.648C32.2144 138.317 31.7824 137.853 31.4731 137.256C31.1744 136.648 31.0251 135.933 31.0251 135.112C31.0251 134.493 31.1104 133.939 31.2811 133.448C31.4517 132.947 31.7024 132.52 32.0331 132.168C32.3637 131.816 32.7531 131.549 33.2011 131.368C33.6597 131.176 34.1717 131.08 34.7371 131.08C35.4944 131.08 36.1504 131.245 36.7051 131.576C37.2597 131.907 37.6864 132.376 37.9851 132.984C38.2944 133.581 38.4491 134.291 38.4491 135.112C38.4491 135.731 38.3637 136.285 38.1931 136.776C38.0224 137.267 37.7717 137.693 37.4411 138.056C37.1104 138.408 36.7157 138.68 36.2571 138.872C35.8091 139.053 35.3024 139.144 34.7371 139.144ZM34.7371 138.104C35.2171 138.104 35.6384 137.987 36.0011 137.752C36.3637 137.517 36.6411 137.176 36.8331 136.728C37.0357 136.28 37.1371 135.741 37.1371 135.112C37.1371 134.141 36.9184 133.4 36.4811 132.888C36.0544 132.376 35.4731 132.12 34.7371 132.12C34.2464 132.12 33.8197 132.237 33.4571 132.472C33.1051 132.696 32.8277 133.032 32.6251 133.48C32.4331 133.917 32.3371 134.461 32.3371 135.112C32.3371 136.072 32.5557 136.813 32.9931 137.336C33.4304 137.848 34.0117 138.104 34.7371 138.104ZM43.1477 139.144C42.5184 139.144 41.9957 139.032 41.5797 138.808C41.1744 138.573 40.865 138.227 40.6517 137.768C40.449 137.309 40.3477 136.739 40.3477 136.056V131.768C40.3477 131.544 40.401 131.379 40.5077 131.272C40.625 131.165 40.785 131.112 40.9877 131.112C41.201 131.112 41.361 131.165 41.4677 131.272C41.585 131.379 41.6437 131.544 41.6437 131.768V136.04C41.6437 136.723 41.7824 137.235 42.0597 137.576C42.3477 137.907 42.7957 138.072 43.4037 138.072C44.065 138.072 44.6037 137.848 45.0197 137.4C45.4357 136.952 45.6437 136.365 45.6437 135.64V131.768C45.6437 131.544 45.697 131.379 45.8037 131.272C45.921 131.165 46.0864 131.112 46.2997 131.112C46.5024 131.112 46.657 131.165 46.7637 131.272C46.881 131.379 46.9397 131.544 46.9397 131.768V138.44C46.9397 138.888 46.7317 139.112 46.3157 139.112C46.113 139.112 45.953 139.053 45.8357 138.936C45.729 138.819 45.6757 138.653 45.6757 138.44V136.984L45.8837 137.208C45.6704 137.837 45.3184 138.317 44.8277 138.648C44.3477 138.979 43.7877 139.144 43.1477 139.144ZM50.0204 139.112C49.8071 139.112 49.6418 139.053 49.5244 138.936C49.4178 138.819 49.3644 138.653 49.3644 138.44V131.768C49.3644 131.555 49.4178 131.395 49.5244 131.288C49.6311 131.171 49.7858 131.112 49.9884 131.112C50.1911 131.112 50.3458 131.171 50.4524 131.288C50.5698 131.395 50.6284 131.555 50.6284 131.768V133.064H50.4684C50.6391 132.435 50.9644 131.949 51.4444 131.608C51.9244 131.267 52.5164 131.085 53.2204 131.064C53.3804 131.053 53.5084 131.091 53.6044 131.176C53.7004 131.251 53.7538 131.384 53.7644 131.576C53.7751 131.757 53.7324 131.901 53.6364 132.008C53.5404 132.115 53.3911 132.179 53.1884 132.2L52.9324 132.232C52.2071 132.296 51.6471 132.531 51.2524 132.936C50.8684 133.331 50.6764 133.875 50.6764 134.568V138.44C50.6764 138.653 50.6178 138.819 50.5004 138.936C50.3938 139.053 50.2338 139.112 50.0204 139.112ZM59.8958 139.112C59.6825 139.112 59.5225 139.053 59.4158 138.936C59.3091 138.819 59.2558 138.653 59.2558 138.44V131.768C59.2558 131.555 59.3091 131.395 59.4158 131.288C59.5225 131.171 59.6771 131.112 59.8798 131.112C60.0825 131.112 60.2371 131.171 60.3438 131.288C60.4611 131.395 60.5198 131.555 60.5198 131.768V133.176L60.3438 132.952C60.5465 132.355 60.8718 131.896 61.3198 131.576C61.7785 131.245 62.3225 131.08 62.9518 131.08C63.6131 131.08 64.1465 131.24 64.5518 131.56C64.9678 131.869 65.2451 132.355 65.3838 133.016H65.1438C65.3358 132.419 65.6771 131.949 66.1678 131.608C66.6691 131.256 67.2505 131.08 67.9118 131.08C68.4985 131.08 68.9785 131.192 69.3518 131.416C69.7358 131.64 70.0238 131.981 70.2158 132.44C70.4078 132.888 70.5038 133.459 70.5038 134.152V138.44C70.5038 138.653 70.4451 138.819 70.3278 138.936C70.2211 139.053 70.0611 139.112 69.8478 139.112C69.6451 139.112 69.4851 139.053 69.3678 138.936C69.2611 138.819 69.2078 138.653 69.2078 138.44V134.216C69.2078 133.501 69.0851 132.979 68.8398 132.648C68.5945 132.307 68.1785 132.136 67.5918 132.136C66.9518 132.136 66.4451 132.36 66.0718 132.808C65.7091 133.245 65.5278 133.843 65.5278 134.6V138.44C65.5278 138.653 65.4691 138.819 65.3518 138.936C65.2451 139.053 65.0851 139.112 64.8718 139.112C64.6691 139.112 64.5091 139.053 64.3918 138.936C64.2851 138.819 64.2318 138.653 64.2318 138.44V134.216C64.2318 133.501 64.1038 132.979 63.8478 132.648C63.6025 132.307 63.1918 132.136 62.6158 132.136C61.9758 132.136 61.4691 132.36 61.0958 132.808C60.7331 133.245 60.5518 133.843 60.5518 134.6V138.44C60.5518 138.888 60.3331 139.112 59.8958 139.112ZM73.5669 139.08C73.3536 139.08 73.1936 139.021 73.0869 138.904C72.9803 138.776 72.9269 138.6 72.9269 138.376V131.832C72.9269 131.608 72.9803 131.437 73.0869 131.32C73.1936 131.203 73.3536 131.144 73.5669 131.144C73.7696 131.144 73.9296 131.203 74.0469 131.32C74.1643 131.437 74.2229 131.608 74.2229 131.832V138.376C74.2229 138.6 74.1643 138.776 74.0469 138.904C73.9403 139.021 73.7803 139.08 73.5669 139.08ZM73.5669 129.352C73.3003 129.352 73.0923 129.283 72.9429 129.144C72.7936 128.995 72.7189 128.797 72.7189 128.552C72.7189 128.296 72.7936 128.104 72.9429 127.976C73.0923 127.837 73.3003 127.768 73.5669 127.768C73.8443 127.768 74.0523 127.837 74.1909 127.976C74.3403 128.104 74.4149 128.296 74.4149 128.552C74.4149 128.797 74.3403 128.995 74.1909 129.144C74.0523 129.283 73.8443 129.352 73.5669 129.352ZM79.2697 139.144C78.7897 139.144 78.3044 139.085 77.8137 138.968C77.3337 138.851 76.8857 138.648 76.4697 138.36C76.363 138.285 76.2884 138.2 76.2457 138.104C76.203 137.997 76.187 137.896 76.1977 137.8C76.219 137.693 76.2617 137.603 76.3257 137.528C76.4004 137.453 76.4857 137.411 76.5817 137.4C76.6884 137.379 76.8057 137.4 76.9337 137.464C77.3497 137.72 77.7497 137.901 78.1337 138.008C78.5284 138.104 78.9177 138.152 79.3017 138.152C79.9097 138.152 80.3684 138.04 80.6777 137.816C80.987 137.592 81.1417 137.288 81.1417 136.904C81.1417 136.605 81.0404 136.371 80.8377 136.2C80.635 136.019 80.315 135.88 79.8777 135.784L78.4217 135.464C77.7497 135.325 77.2484 135.085 76.9177 134.744C76.5977 134.403 76.4377 133.96 76.4377 133.416C76.4377 132.936 76.5604 132.525 76.8057 132.184C77.0617 131.832 77.419 131.56 77.8777 131.368C78.3364 131.176 78.8697 131.08 79.4777 131.08C79.947 131.08 80.3897 131.144 80.8057 131.272C81.2324 131.389 81.6164 131.581 81.9577 131.848C82.0644 131.923 82.1337 132.013 82.1657 132.12C82.2084 132.216 82.2137 132.317 82.1817 132.424C82.1604 132.52 82.1124 132.605 82.0377 132.68C81.963 132.744 81.8724 132.781 81.7657 132.792C81.659 132.803 81.547 132.771 81.4297 132.696C81.1097 132.483 80.7844 132.328 80.4537 132.232C80.123 132.125 79.7977 132.072 79.4777 132.072C78.8804 132.072 78.427 132.189 78.1177 132.424C77.8084 132.659 77.6537 132.968 77.6537 133.352C77.6537 133.651 77.7497 133.896 77.9417 134.088C78.1337 134.28 78.4324 134.419 78.8377 134.504L80.2937 134.808C80.987 134.957 81.5044 135.197 81.8457 135.528C82.1977 135.848 82.3737 136.285 82.3737 136.84C82.3737 137.544 82.091 138.104 81.5257 138.52C80.9604 138.936 80.2084 139.144 79.2697 139.144ZM86.9728 139.144C86.4928 139.144 86.0075 139.085 85.5168 138.968C85.0368 138.851 84.5888 138.648 84.1728 138.36C84.0661 138.285 83.9915 138.2 83.9488 138.104C83.9061 137.997 83.8901 137.896 83.9008 137.8C83.9221 137.693 83.9648 137.603 84.0288 137.528C84.1035 137.453 84.1888 137.411 84.2848 137.4C84.3915 137.379 84.5088 137.4 84.6368 137.464C85.0528 137.72 85.4528 137.901 85.8368 138.008C86.2315 138.104 86.6208 138.152 87.0048 138.152C87.6128 138.152 88.0715 138.04 88.3808 137.816C88.6901 137.592 88.8448 137.288 88.8448 136.904C88.8448 136.605 88.7435 136.371 88.5408 136.2C88.3381 136.019 88.0181 135.88 87.5808 135.784L86.1248 135.464C85.4528 135.325 84.9515 135.085 84.6208 134.744C84.3008 134.403 84.1408 133.96 84.1408 133.416C84.1408 132.936 84.2635 132.525 84.5088 132.184C84.7648 131.832 85.1221 131.56 85.5808 131.368C86.0395 131.176 86.5728 131.08 87.1808 131.08C87.6501 131.08 88.0928 131.144 88.5088 131.272C88.9355 131.389 89.3195 131.581 89.6608 131.848C89.7675 131.923 89.8368 132.013 89.8688 132.12C89.9115 132.216 89.9168 132.317 89.8848 132.424C89.8635 132.52 89.8155 132.605 89.7408 132.68C89.6661 132.744 89.5755 132.781 89.4688 132.792C89.3621 132.803 89.2501 132.771 89.1328 132.696C88.8128 132.483 88.4875 132.328 88.1568 132.232C87.8261 132.125 87.5008 132.072 87.1808 132.072C86.5835 132.072 86.1301 132.189 85.8208 132.424C85.5115 132.659 85.3568 132.968 85.3568 133.352C85.3568 133.651 85.4528 133.896 85.6448 134.088C85.8368 134.28 86.1355 134.419 86.5408 134.504L87.9968 134.808C88.6901 134.957 89.2075 135.197 89.5488 135.528C89.9008 135.848 90.0768 136.285 90.0768 136.84C90.0768 137.544 89.7941 138.104 89.2288 138.52C88.6635 138.936 87.9115 139.144 86.9728 139.144ZM92.6919 139.08C92.4786 139.08 92.3186 139.021 92.2119 138.904C92.1053 138.776 92.0519 138.6 92.0519 138.376V131.832C92.0519 131.608 92.1053 131.437 92.2119 131.32C92.3186 131.203 92.4786 131.144 92.6919 131.144C92.8946 131.144 93.0546 131.203 93.1719 131.32C93.2893 131.437 93.3479 131.608 93.3479 131.832V138.376C93.3479 138.6 93.2893 138.776 93.1719 138.904C93.0653 139.021 92.9053 139.08 92.6919 139.08ZM92.6919 129.352C92.4253 129.352 92.2173 129.283 92.0679 129.144C91.9186 128.995 91.8439 128.797 91.8439 128.552C91.8439 128.296 91.9186 128.104 92.0679 127.976C92.2173 127.837 92.4253 127.768 92.6919 127.768C92.9693 127.768 93.1773 127.837 93.3159 127.976C93.4653 128.104 93.5399 128.296 93.5399 128.552C93.5399 128.797 93.4653 128.995 93.3159 129.144C93.1773 129.283 92.9693 129.352 92.6919 129.352ZM99.0027 139.144C98.2454 139.144 97.5894 138.979 97.0347 138.648C96.48 138.317 96.048 137.853 95.7387 137.256C95.44 136.648 95.2907 135.933 95.2907 135.112C95.2907 134.493 95.376 133.939 95.5467 133.448C95.7174 132.947 95.968 132.52 96.2987 132.168C96.6294 131.816 97.0187 131.549 97.4667 131.368C97.9254 131.176 98.4374 131.08 99.0027 131.08C99.76 131.08 100.416 131.245 100.971 131.576C101.525 131.907 101.952 132.376 102.251 132.984C102.56 133.581 102.715 134.291 102.715 135.112C102.715 135.731 102.629 136.285 102.459 136.776C102.288 137.267 102.037 137.693 101.707 138.056C101.376 138.408 100.981 138.68 100.523 138.872C100.075 139.053 99.568 139.144 99.0027 139.144ZM99.0027 138.104C99.4827 138.104 99.904 137.987 100.267 137.752C100.629 137.517 100.907 137.176 101.099 136.728C101.301 136.28 101.403 135.741 101.403 135.112C101.403 134.141 101.184 133.4 100.747 132.888C100.32 132.376 99.7387 132.12 99.0027 132.12C98.512 132.12 98.0854 132.237 97.7227 132.472C97.3707 132.696 97.0934 133.032 96.8907 133.48C96.6987 133.917 96.6027 134.461 96.6027 135.112C96.6027 136.072 96.8214 136.813 97.2587 137.336C97.696 137.848 98.2774 138.104 99.0027 138.104ZM105.301 139.112C105.088 139.112 104.928 139.053 104.821 138.936C104.715 138.819 104.661 138.653 104.661 138.44V131.768C104.661 131.555 104.715 131.395 104.821 131.288C104.928 131.171 105.083 131.112 105.285 131.112C105.488 131.112 105.643 131.171 105.749 131.288C105.867 131.395 105.925 131.555 105.925 131.768V133.144L105.749 132.952C105.973 132.333 106.336 131.869 106.837 131.56C107.349 131.24 107.936 131.08 108.597 131.08C109.216 131.08 109.728 131.192 110.133 131.416C110.549 131.64 110.859 131.981 111.061 132.44C111.264 132.888 111.365 133.459 111.365 134.152V138.44C111.365 138.653 111.307 138.819 111.189 138.936C111.083 139.053 110.928 139.112 110.725 139.112C110.512 139.112 110.347 139.053 110.229 138.936C110.123 138.819 110.069 138.653 110.069 138.44V134.232C110.069 133.507 109.925 132.979 109.637 132.648C109.36 132.307 108.912 132.136 108.293 132.136C107.579 132.136 107.008 132.36 106.581 132.808C106.165 133.245 105.957 133.832 105.957 134.568V138.44C105.957 138.888 105.739 139.112 105.301 139.112ZM118.52 139.08C118.307 139.08 118.147 139.021 118.04 138.904C117.933 138.776 117.88 138.6 117.88 138.376V131.832C117.88 131.608 117.933 131.437 118.04 131.32C118.147 131.203 118.307 131.144 118.52 131.144C118.723 131.144 118.883 131.203 119 131.32C119.117 131.437 119.176 131.608 119.176 131.832V138.376C119.176 138.6 119.117 138.776 119 138.904C118.893 139.021 118.733 139.08 118.52 139.08ZM118.52 129.352C118.253 129.352 118.045 129.283 117.896 129.144C117.747 128.995 117.672 128.797 117.672 128.552C117.672 128.296 117.747 128.104 117.896 127.976C118.045 127.837 118.253 127.768 118.52 127.768C118.797 127.768 119.005 127.837 119.144 127.976C119.293 128.104 119.368 128.296 119.368 128.552C119.368 128.797 119.293 128.995 119.144 129.144C119.005 129.283 118.797 129.352 118.52 129.352ZM124.223 139.144C123.743 139.144 123.257 139.085 122.767 138.968C122.287 138.851 121.839 138.648 121.423 138.36C121.316 138.285 121.241 138.2 121.199 138.104C121.156 137.997 121.14 137.896 121.151 137.8C121.172 137.693 121.215 137.603 121.279 137.528C121.353 137.453 121.439 137.411 121.535 137.4C121.641 137.379 121.759 137.4 121.887 137.464C122.303 137.72 122.703 137.901 123.087 138.008C123.481 138.104 123.871 138.152 124.255 138.152C124.863 138.152 125.321 138.04 125.631 137.816C125.94 137.592 126.095 137.288 126.095 136.904C126.095 136.605 125.993 136.371 125.791 136.2C125.588 136.019 125.268 135.88 124.831 135.784L123.375 135.464C122.703 135.325 122.201 135.085 121.871 134.744C121.551 134.403 121.391 133.96 121.391 133.416C121.391 132.936 121.513 132.525 121.759 132.184C122.015 131.832 122.372 131.56 122.831 131.368C123.289 131.176 123.823 131.08 124.431 131.08C124.9 131.08 125.343 131.144 125.759 131.272C126.185 131.389 126.569 131.581 126.911 131.848C127.017 131.923 127.087 132.013 127.119 132.12C127.161 132.216 127.167 132.317 127.135 132.424C127.113 132.52 127.065 132.605 126.991 132.68C126.916 132.744 126.825 132.781 126.719 132.792C126.612 132.803 126.5 132.771 126.383 132.696C126.063 132.483 125.737 132.328 125.407 132.232C125.076 132.125 124.751 132.072 124.431 132.072C123.833 132.072 123.38 132.189 123.071 132.424C122.761 132.659 122.607 132.968 122.607 133.352C122.607 133.651 122.703 133.896 122.895 134.088C123.087 134.28 123.385 134.419 123.791 134.504L125.247 134.808C125.94 134.957 126.457 135.197 126.799 135.528C127.151 135.848 127.327 136.285 127.327 136.84C127.327 137.544 127.044 138.104 126.479 138.52C125.913 138.936 125.161 139.144 124.223 139.144ZM136.547 139.144C135.939 139.144 135.427 139.037 135.011 138.824C134.606 138.6 134.302 138.28 134.099 137.864C133.896 137.437 133.795 136.92 133.795 136.312V132.232H132.723C132.542 132.232 132.403 132.189 132.307 132.104C132.211 132.008 132.163 131.88 132.163 131.72C132.163 131.56 132.211 131.437 132.307 131.352C132.403 131.267 132.542 131.224 132.723 131.224H133.795V129.384C133.795 129.171 133.854 129.011 133.971 128.904C134.088 128.787 134.248 128.728 134.451 128.728C134.654 128.728 134.808 128.787 134.915 128.904C135.032 129.011 135.091 129.171 135.091 129.384V131.224H137.107C137.288 131.224 137.427 131.267 137.523 131.352C137.619 131.437 137.667 131.56 137.667 131.72C137.667 131.88 137.619 132.008 137.523 132.104C137.427 132.189 137.288 132.232 137.107 132.232H135.091V136.184C135.091 136.792 135.219 137.256 135.475 137.576C135.731 137.885 136.147 138.04 136.723 138.04C136.926 138.04 137.096 138.019 137.235 137.976C137.384 137.933 137.507 137.912 137.603 137.912C137.699 137.901 137.779 137.933 137.843 138.008C137.907 138.083 137.939 138.211 137.939 138.392C137.939 138.52 137.912 138.637 137.859 138.744C137.816 138.851 137.736 138.925 137.619 138.968C137.491 139.011 137.32 139.048 137.107 139.08C136.904 139.123 136.718 139.144 136.547 139.144ZM142.175 139.144C141.417 139.144 140.761 138.979 140.207 138.648C139.652 138.317 139.22 137.853 138.911 137.256C138.612 136.648 138.463 135.933 138.463 135.112C138.463 134.493 138.548 133.939 138.719 133.448C138.889 132.947 139.14 132.52 139.471 132.168C139.801 131.816 140.191 131.549 140.639 131.368C141.097 131.176 141.609 131.08 142.175 131.08C142.932 131.08 143.588 131.245 144.143 131.576C144.697 131.907 145.124 132.376 145.423 132.984C145.732 133.581 145.887 134.291 145.887 135.112C145.887 135.731 145.801 136.285 145.631 136.776C145.46 137.267 145.209 137.693 144.879 138.056C144.548 138.408 144.153 138.68 143.695 138.872C143.247 139.053 142.74 139.144 142.175 139.144ZM142.175 138.104C142.655 138.104 143.076 137.987 143.439 137.752C143.801 137.517 144.079 137.176 144.271 136.728C144.473 136.28 144.575 135.741 144.575 135.112C144.575 134.141 144.356 133.4 143.919 132.888C143.492 132.376 142.911 132.12 142.175 132.12C141.684 132.12 141.257 132.237 140.895 132.472C140.543 132.696 140.265 133.032 140.063 133.48C139.871 133.917 139.775 134.461 139.775 135.112C139.775 136.072 139.993 136.813 140.431 137.336C140.868 137.848 141.449 138.104 142.175 138.104ZM155.462 139.144C154.641 139.144 153.932 138.984 153.334 138.664C152.748 138.333 152.289 137.869 151.958 137.272C151.638 136.675 151.478 135.96 151.478 135.128C151.478 134.317 151.638 133.613 151.958 133.016C152.278 132.408 152.716 131.933 153.27 131.592C153.836 131.251 154.486 131.08 155.222 131.08C155.745 131.08 156.214 131.171 156.63 131.352C157.046 131.523 157.398 131.773 157.686 132.104C157.985 132.435 158.209 132.835 158.358 133.304C158.518 133.773 158.598 134.301 158.598 134.888C158.598 135.059 158.55 135.187 158.454 135.272C158.358 135.347 158.22 135.384 158.038 135.384H152.47V134.536H157.734L157.478 134.744C157.478 134.168 157.393 133.683 157.222 133.288C157.052 132.883 156.801 132.573 156.47 132.36C156.15 132.147 155.745 132.04 155.254 132.04C154.71 132.04 154.246 132.168 153.862 132.424C153.489 132.669 153.206 133.016 153.014 133.464C152.822 133.901 152.726 134.413 152.726 135V135.096C152.726 136.077 152.961 136.824 153.43 137.336C153.91 137.848 154.588 138.104 155.462 138.104C155.825 138.104 156.182 138.056 156.534 137.96C156.897 137.864 157.249 137.704 157.59 137.48C157.74 137.384 157.873 137.341 157.99 137.352C158.118 137.352 158.22 137.389 158.294 137.464C158.369 137.528 158.417 137.613 158.438 137.72C158.47 137.816 158.46 137.923 158.406 138.04C158.364 138.157 158.273 138.259 158.134 138.344C157.782 138.6 157.366 138.797 156.886 138.936C156.406 139.075 155.932 139.144 155.462 139.144ZM161.146 139.112C160.932 139.112 160.772 139.053 160.666 138.936C160.559 138.819 160.506 138.653 160.506 138.44V131.768C160.506 131.555 160.559 131.395 160.666 131.288C160.772 131.171 160.927 131.112 161.13 131.112C161.332 131.112 161.487 131.171 161.594 131.288C161.711 131.395 161.77 131.555 161.77 131.768V133.176L161.594 132.952C161.796 132.355 162.122 131.896 162.57 131.576C163.028 131.245 163.572 131.08 164.202 131.08C164.863 131.08 165.396 131.24 165.802 131.56C166.218 131.869 166.495 132.355 166.634 133.016H166.394C166.586 132.419 166.927 131.949 167.418 131.608C167.919 131.256 168.5 131.08 169.162 131.08C169.748 131.08 170.228 131.192 170.602 131.416C170.986 131.64 171.274 131.981 171.466 132.44C171.658 132.888 171.754 133.459 171.754 134.152V138.44C171.754 138.653 171.695 138.819 171.578 138.936C171.471 139.053 171.311 139.112 171.098 139.112C170.895 139.112 170.735 139.053 170.618 138.936C170.511 138.819 170.458 138.653 170.458 138.44V134.216C170.458 133.501 170.335 132.979 170.09 132.648C169.844 132.307 169.428 132.136 168.842 132.136C168.202 132.136 167.695 132.36 167.322 132.808C166.959 133.245 166.778 133.843 166.778 134.6V138.44C166.778 138.653 166.719 138.819 166.602 138.936C166.495 139.053 166.335 139.112 166.122 139.112C165.919 139.112 165.759 139.053 165.642 138.936C165.535 138.819 165.482 138.653 165.482 138.44V134.216C165.482 133.501 165.354 132.979 165.098 132.648C164.852 132.307 164.442 132.136 163.866 132.136C163.226 132.136 162.719 132.36 162.346 132.808C161.983 133.245 161.802 133.843 161.802 134.6V138.44C161.802 138.888 161.583 139.112 161.146 139.112ZM174.817 141.992C174.604 141.992 174.444 141.933 174.337 141.816C174.23 141.709 174.177 141.549 174.177 141.336V131.768C174.177 131.555 174.23 131.395 174.337 131.288C174.444 131.171 174.598 131.112 174.801 131.112C175.014 131.112 175.174 131.171 175.281 131.288C175.398 131.395 175.457 131.555 175.457 131.768V133.288L175.281 133.064C175.452 132.456 175.788 131.976 176.289 131.624C176.801 131.261 177.409 131.08 178.113 131.08C178.806 131.08 179.409 131.245 179.921 131.576C180.444 131.896 180.844 132.36 181.121 132.968C181.409 133.565 181.553 134.28 181.553 135.112C181.553 135.933 181.409 136.648 181.121 137.256C180.844 137.853 180.449 138.317 179.937 138.648C179.425 138.979 178.817 139.144 178.113 139.144C177.409 139.144 176.806 138.968 176.305 138.616C175.804 138.253 175.462 137.773 175.281 137.176H175.473V141.336C175.473 141.549 175.414 141.709 175.297 141.816C175.18 141.933 175.02 141.992 174.817 141.992ZM177.841 138.104C178.332 138.104 178.753 137.987 179.105 137.752C179.468 137.517 179.745 137.176 179.937 136.728C180.14 136.28 180.241 135.741 180.241 135.112C180.241 134.141 180.022 133.4 179.585 132.888C179.158 132.376 178.577 132.12 177.841 132.12C177.361 132.12 176.94 132.237 176.577 132.472C176.214 132.696 175.932 133.032 175.729 133.48C175.537 133.917 175.441 134.461 175.441 135.112C175.441 136.072 175.66 136.813 176.097 137.336C176.534 137.848 177.116 138.104 177.841 138.104ZM186.737 139.144C185.98 139.144 185.324 138.979 184.769 138.648C184.214 138.317 183.782 137.853 183.473 137.256C183.174 136.648 183.025 135.933 183.025 135.112C183.025 134.493 183.11 133.939 183.281 133.448C183.452 132.947 183.702 132.52 184.033 132.168C184.364 131.816 184.753 131.549 185.201 131.368C185.66 131.176 186.172 131.08 186.737 131.08C187.494 131.08 188.15 131.245 188.705 131.576C189.26 131.907 189.686 132.376 189.985 132.984C190.294 133.581 190.449 134.291 190.449 135.112C190.449 135.731 190.364 136.285 190.193 136.776C190.022 137.267 189.772 137.693 189.441 138.056C189.11 138.408 188.716 138.68 188.257 138.872C187.809 139.053 187.302 139.144 186.737 139.144ZM186.737 138.104C187.217 138.104 187.638 137.987 188.001 137.752C188.364 137.517 188.641 137.176 188.833 136.728C189.036 136.28 189.137 135.741 189.137 135.112C189.137 134.141 188.918 133.4 188.481 132.888C188.054 132.376 187.473 132.12 186.737 132.12C186.246 132.12 185.82 132.237 185.457 132.472C185.105 132.696 184.828 133.032 184.625 133.48C184.433 133.917 184.337 134.461 184.337 135.112C184.337 136.072 184.556 136.813 184.993 137.336C185.43 137.848 186.012 138.104 186.737 138.104ZM194.974 139.112C194.793 139.112 194.633 139.064 194.494 138.968C194.356 138.872 194.244 138.717 194.158 138.504L191.774 132.024C191.71 131.843 191.689 131.683 191.71 131.544C191.742 131.405 191.812 131.299 191.918 131.224C192.025 131.149 192.158 131.112 192.318 131.112C192.478 131.112 192.606 131.149 192.702 131.224C192.809 131.299 192.894 131.437 192.958 131.64L195.198 138.04H194.814L197.118 131.64C197.193 131.448 197.284 131.315 197.39 131.24C197.508 131.155 197.657 131.112 197.838 131.112C198.009 131.112 198.153 131.155 198.27 131.24C198.388 131.325 198.478 131.459 198.542 131.64L200.798 138.04H200.43L202.702 131.608C202.777 131.416 202.868 131.288 202.974 131.224C203.081 131.149 203.209 131.112 203.358 131.112C203.529 131.112 203.657 131.155 203.742 131.24C203.838 131.325 203.892 131.437 203.902 131.576C203.913 131.715 203.886 131.864 203.822 132.024L201.438 138.504C201.364 138.707 201.252 138.861 201.102 138.968C200.964 139.064 200.804 139.112 200.622 139.112C200.441 139.112 200.281 139.064 200.142 138.968C200.004 138.861 199.897 138.707 199.822 138.504L197.454 132.008H198.142L195.79 138.504C195.716 138.707 195.609 138.861 195.47 138.968C195.332 139.064 195.166 139.112 194.974 139.112ZM209.134 139.144C208.313 139.144 207.603 138.984 207.006 138.664C206.419 138.333 205.961 137.869 205.63 137.272C205.31 136.675 205.15 135.96 205.15 135.128C205.15 134.317 205.31 133.613 205.63 133.016C205.95 132.408 206.387 131.933 206.942 131.592C207.507 131.251 208.158 131.08 208.894 131.08C209.417 131.08 209.886 131.171 210.302 131.352C210.718 131.523 211.07 131.773 211.358 132.104C211.657 132.435 211.881 132.835 212.03 133.304C212.19 133.773 212.27 134.301 212.27 134.888C212.27 135.059 212.222 135.187 212.126 135.272C212.03 135.347 211.891 135.384 211.71 135.384H206.142V134.536H211.406L211.15 134.744C211.15 134.168 211.065 133.683 210.894 133.288C210.723 132.883 210.473 132.573 210.142 132.36C209.822 132.147 209.417 132.04 208.926 132.04C208.382 132.04 207.918 132.168 207.534 132.424C207.161 132.669 206.878 133.016 206.686 133.464C206.494 133.901 206.398 134.413 206.398 135V135.096C206.398 136.077 206.633 136.824 207.102 137.336C207.582 137.848 208.259 138.104 209.134 138.104C209.497 138.104 209.854 138.056 210.206 137.96C210.569 137.864 210.921 137.704 211.262 137.48C211.411 137.384 211.545 137.341 211.662 137.352C211.79 137.352 211.891 137.389 211.966 137.464C212.041 137.528 212.089 137.613 212.11 137.72C212.142 137.816 212.131 137.923 212.078 138.04C212.035 138.157 211.945 138.259 211.806 138.344C211.454 138.6 211.038 138.797 210.558 138.936C210.078 139.075 209.603 139.144 209.134 139.144ZM214.802 139.112C214.588 139.112 214.423 139.053 214.306 138.936C214.199 138.819 214.146 138.653 214.146 138.44V131.768C214.146 131.555 214.199 131.395 214.306 131.288C214.412 131.171 214.567 131.112 214.77 131.112C214.972 131.112 215.127 131.171 215.234 131.288C215.351 131.395 215.41 131.555 215.41 131.768V133.064H215.25C215.42 132.435 215.746 131.949 216.226 131.608C216.706 131.267 217.298 131.085 218.002 131.064C218.162 131.053 218.29 131.091 218.386 131.176C218.482 131.251 218.535 131.384 218.546 131.576C218.556 131.757 218.514 131.901 218.418 132.008C218.322 132.115 218.172 132.179 217.97 132.2L217.714 132.232C216.988 132.296 216.428 132.531 216.034 132.936C215.65 133.331 215.458 133.875 215.458 134.568V138.44C215.458 138.653 215.399 138.819 215.282 138.936C215.175 139.053 215.015 139.112 214.802 139.112ZM227.125 139.144C226.517 139.144 226.005 139.037 225.589 138.824C225.184 138.6 224.88 138.28 224.677 137.864C224.474 137.437 224.373 136.92 224.373 136.312V132.232H223.301C223.12 132.232 222.981 132.189 222.885 132.104C222.789 132.008 222.741 131.88 222.741 131.72C222.741 131.56 222.789 131.437 222.885 131.352C222.981 131.267 223.12 131.224 223.301 131.224H224.373V129.384C224.373 129.171 224.432 129.011 224.549 128.904C224.666 128.787 224.826 128.728 225.029 128.728C225.232 128.728 225.386 128.787 225.493 128.904C225.61 129.011 225.669 129.171 225.669 129.384V131.224H227.685C227.866 131.224 228.005 131.267 228.101 131.352C228.197 131.437 228.245 131.56 228.245 131.72C228.245 131.88 228.197 132.008 228.101 132.104C228.005 132.189 227.866 132.232 227.685 132.232H225.669V136.184C225.669 136.792 225.797 137.256 226.053 137.576C226.309 137.885 226.725 138.04 227.301 138.04C227.504 138.04 227.674 138.019 227.813 137.976C227.962 137.933 228.085 137.912 228.181 137.912C228.277 137.901 228.357 137.933 228.421 138.008C228.485 138.083 228.517 138.211 228.517 138.392C228.517 138.52 228.49 138.637 228.437 138.744C228.394 138.851 228.314 138.925 228.197 138.968C228.069 139.011 227.898 139.048 227.685 139.08C227.482 139.123 227.296 139.144 227.125 139.144ZM230.333 139.112C230.119 139.112 229.959 139.053 229.853 138.936C229.746 138.819 229.693 138.653 229.693 138.44V128.264C229.693 128.051 229.746 127.891 229.853 127.784C229.959 127.667 230.119 127.608 230.333 127.608C230.535 127.608 230.695 127.667 230.813 127.784C230.93 127.891 230.989 128.051 230.989 128.264V132.952H230.781C231.005 132.333 231.367 131.869 231.869 131.56C232.381 131.24 232.967 131.08 233.629 131.08C234.247 131.08 234.759 131.192 235.165 131.416C235.581 131.64 235.89 131.981 236.093 132.44C236.295 132.888 236.397 133.459 236.397 134.152V138.44C236.397 138.653 236.338 138.819 236.221 138.936C236.114 139.053 235.959 139.112 235.757 139.112C235.543 139.112 235.378 139.053 235.261 138.936C235.154 138.819 235.101 138.653 235.101 138.44V134.232C235.101 133.507 234.957 132.979 234.669 132.648C234.391 132.307 233.943 132.136 233.325 132.136C232.61 132.136 232.039 132.36 231.613 132.808C231.197 133.245 230.989 133.832 230.989 134.568V138.44C230.989 138.888 230.77 139.112 230.333 139.112ZM242.29 139.144C241.469 139.144 240.76 138.984 240.162 138.664C239.576 138.333 239.117 137.869 238.786 137.272C238.466 136.675 238.306 135.96 238.306 135.128C238.306 134.317 238.466 133.613 238.786 133.016C239.106 132.408 239.544 131.933 240.098 131.592C240.664 131.251 241.314 131.08 242.05 131.08C242.573 131.08 243.042 131.171 243.458 131.352C243.874 131.523 244.226 131.773 244.514 132.104C244.813 132.435 245.037 132.835 245.186 133.304C245.346 133.773 245.426 134.301 245.426 134.888C245.426 135.059 245.378 135.187 245.282 135.272C245.186 135.347 245.048 135.384 244.866 135.384H239.298V134.536H244.562L244.306 134.744C244.306 134.168 244.221 133.683 244.05 133.288C243.88 132.883 243.629 132.573 243.298 132.36C242.978 132.147 242.573 132.04 242.082 132.04C241.538 132.04 241.074 132.168 240.69 132.424C240.317 132.669 240.034 133.016 239.842 133.464C239.65 133.901 239.554 134.413 239.554 135V135.096C239.554 136.077 239.789 136.824 240.258 137.336C240.738 137.848 241.416 138.104 242.29 138.104C242.653 138.104 243.01 138.056 243.362 137.96C243.725 137.864 244.077 137.704 244.418 137.48C244.568 137.384 244.701 137.341 244.818 137.352C244.946 137.352 245.048 137.389 245.122 137.464C245.197 137.528 245.245 137.613 245.266 137.72C245.298 137.816 245.288 137.923 245.234 138.04C245.192 138.157 245.101 138.259 244.962 138.344C244.61 138.6 244.194 138.797 243.714 138.936C243.234 139.075 242.76 139.144 242.29 139.144ZM252.483 139.112C252.28 139.112 252.12 139.053 252.003 138.936C251.896 138.819 251.843 138.653 251.843 138.44V132.232H250.819C250.648 132.232 250.51 132.189 250.403 132.104C250.307 132.008 250.259 131.88 250.259 131.72C250.259 131.56 250.307 131.437 250.403 131.352C250.51 131.267 250.648 131.224 250.819 131.224H252.195L251.843 131.56V130.952C251.843 129.939 252.088 129.165 252.579 128.632C253.08 128.099 253.811 127.789 254.771 127.704L255.235 127.656C255.384 127.645 255.502 127.672 255.587 127.736C255.683 127.8 255.742 127.88 255.763 127.976C255.795 128.072 255.8 128.173 255.779 128.28C255.758 128.376 255.71 128.461 255.635 128.536C255.56 128.611 255.47 128.653 255.363 128.664L254.995 128.696C254.344 128.749 253.87 128.947 253.571 129.288C253.283 129.629 253.139 130.131 253.139 130.792V131.464L252.947 131.224H254.867C255.048 131.224 255.187 131.267 255.283 131.352C255.379 131.437 255.427 131.56 255.427 131.72C255.427 131.88 255.379 132.008 255.283 132.104C255.187 132.189 255.048 132.232 254.867 132.232H253.139V138.44C253.139 138.888 252.92 139.112 252.483 139.112ZM259.768 139.144C259.011 139.144 258.355 138.979 257.8 138.648C257.246 138.317 256.814 137.853 256.504 137.256C256.206 136.648 256.056 135.933 256.056 135.112C256.056 134.493 256.142 133.939 256.312 133.448C256.483 132.947 256.734 132.52 257.064 132.168C257.395 131.816 257.784 131.549 258.232 131.368C258.691 131.176 259.203 131.08 259.768 131.08C260.526 131.08 261.182 131.245 261.736 131.576C262.291 131.907 262.718 132.376 263.016 132.984C263.326 133.581 263.48 134.291 263.48 135.112C263.48 135.731 263.395 136.285 263.224 136.776C263.054 137.267 262.803 137.693 262.472 138.056C262.142 138.408 261.747 138.68 261.288 138.872C260.84 139.053 260.334 139.144 259.768 139.144ZM259.768 138.104C260.248 138.104 260.67 137.987 261.032 137.752C261.395 137.517 261.672 137.176 261.864 136.728C262.067 136.28 262.168 135.741 262.168 135.112C262.168 134.141 261.95 133.4 261.512 132.888C261.086 132.376 260.504 132.12 259.768 132.12C259.278 132.12 258.851 132.237 258.488 132.472C258.136 132.696 257.859 133.032 257.656 133.48C257.464 133.917 257.368 134.461 257.368 135.112C257.368 136.072 257.587 136.813 258.024 137.336C258.462 137.848 259.043 138.104 259.768 138.104ZM268.659 139.144C267.902 139.144 267.246 138.979 266.691 138.648C266.136 138.317 265.704 137.853 265.395 137.256C265.096 136.648 264.947 135.933 264.947 135.112C264.947 134.493 265.032 133.939 265.203 133.448C265.374 132.947 265.624 132.52 265.955 132.168C266.286 131.816 266.675 131.549 267.123 131.368C267.582 131.176 268.094 131.08 268.659 131.08C269.416 131.08 270.072 131.245 270.627 131.576C271.182 131.907 271.608 132.376 271.907 132.984C272.216 133.581 272.371 134.291 272.371 135.112C272.371 135.731 272.286 136.285 272.115 136.776C271.944 137.267 271.694 137.693 271.363 138.056C271.032 138.408 270.638 138.68 270.179 138.872C269.731 139.053 269.224 139.144 268.659 139.144ZM268.659 138.104C269.139 138.104 269.56 137.987 269.923 137.752C270.286 137.517 270.563 137.176 270.755 136.728C270.958 136.28 271.059 135.741 271.059 135.112C271.059 134.141 270.84 133.4 270.403 132.888C269.976 132.376 269.395 132.12 268.659 132.12C268.168 132.12 267.742 132.237 267.379 132.472C267.027 132.696 266.75 133.032 266.547 133.48C266.355 133.917 266.259 134.461 266.259 135.112C266.259 136.072 266.478 136.813 266.915 137.336C267.352 137.848 267.934 138.104 268.659 138.104ZM277.278 139.144C276.584 139.144 275.976 138.979 275.454 138.648C274.942 138.317 274.542 137.853 274.254 137.256C273.976 136.648 273.838 135.933 273.838 135.112C273.838 134.28 273.976 133.565 274.254 132.968C274.542 132.36 274.942 131.896 275.454 131.576C275.976 131.245 276.584 131.08 277.278 131.08C277.982 131.08 278.584 131.256 279.086 131.608C279.587 131.96 279.923 132.435 280.094 133.032H279.918V128.264C279.918 128.051 279.971 127.891 280.078 127.784C280.195 127.667 280.36 127.608 280.574 127.608C280.776 127.608 280.931 127.667 281.038 127.784C281.155 127.891 281.214 128.051 281.214 128.264V138.44C281.214 138.653 281.16 138.819 281.054 138.936C280.947 139.053 280.787 139.112 280.574 139.112C280.371 139.112 280.211 139.053 280.094 138.936C279.987 138.819 279.934 138.653 279.934 138.44V136.92L280.11 137.144C279.939 137.752 279.598 138.237 279.086 138.6C278.584 138.963 277.982 139.144 277.278 139.144ZM277.55 138.104C278.03 138.104 278.451 137.987 278.814 137.752C279.176 137.517 279.454 137.176 279.646 136.728C279.848 136.28 279.95 135.741 279.95 135.112C279.95 134.141 279.731 133.4 279.294 132.888C278.867 132.376 278.286 132.12 277.55 132.12C277.059 132.12 276.632 132.237 276.27 132.472C275.918 132.696 275.64 133.032 275.438 133.48C275.246 133.917 275.15 134.461 275.15 135.112C275.15 136.072 275.368 136.813 275.806 137.336C276.243 137.848 276.824 138.104 277.55 138.104ZM290.395 139.144C289.915 139.144 289.429 139.085 288.939 138.968C288.459 138.851 288.011 138.648 287.595 138.36C287.488 138.285 287.413 138.2 287.371 138.104C287.328 137.997 287.312 137.896 287.323 137.8C287.344 137.693 287.387 137.603 287.451 137.528C287.525 137.453 287.611 137.411 287.707 137.4C287.813 137.379 287.931 137.4 288.059 137.464C288.475 137.72 288.875 137.901 289.259 138.008C289.653 138.104 290.043 138.152 290.427 138.152C291.035 138.152 291.493 138.04 291.803 137.816C292.112 137.592 292.267 137.288 292.267 136.904C292.267 136.605 292.165 136.371 291.963 136.2C291.76 136.019 291.44 135.88 291.003 135.784L289.547 135.464C288.875 135.325 288.373 135.085 288.043 134.744C287.723 134.403 287.563 133.96 287.563 133.416C287.563 132.936 287.685 132.525 287.931 132.184C288.187 131.832 288.544 131.56 289.003 131.368C289.461 131.176 289.995 131.08 290.603 131.08C291.072 131.08 291.515 131.144 291.931 131.272C292.357 131.389 292.741 131.581 293.083 131.848C293.189 131.923 293.259 132.013 293.291 132.12C293.333 132.216 293.339 132.317 293.307 132.424C293.285 132.52 293.237 132.605 293.163 132.68C293.088 132.744 292.997 132.781 292.891 132.792C292.784 132.803 292.672 132.771 292.555 132.696C292.235 132.483 291.909 132.328 291.579 132.232C291.248 132.125 290.923 132.072 290.603 132.072C290.005 132.072 289.552 132.189 289.243 132.424C288.933 132.659 288.779 132.968 288.779 133.352C288.779 133.651 288.875 133.896 289.067 134.088C289.259 134.28 289.557 134.419 289.963 134.504L291.419 134.808C292.112 134.957 292.629 135.197 292.971 135.528C293.323 135.848 293.499 136.285 293.499 136.84C293.499 137.544 293.216 138.104 292.651 138.52C292.085 138.936 291.333 139.144 290.395 139.144ZM298.978 139.144C298.156 139.144 297.447 138.984 296.85 138.664C296.263 138.333 295.804 137.869 295.474 137.272C295.154 136.675 294.994 135.96 294.994 135.128C294.994 134.317 295.154 133.613 295.474 133.016C295.794 132.408 296.231 131.933 296.786 131.592C297.351 131.251 298.002 131.08 298.738 131.08C299.26 131.08 299.73 131.171 300.146 131.352C300.562 131.523 300.914 131.773 301.202 132.104C301.5 132.435 301.724 132.835 301.874 133.304C302.034 133.773 302.114 134.301 302.114 134.888C302.114 135.059 302.066 135.187 301.97 135.272C301.874 135.347 301.735 135.384 301.554 135.384H295.986V134.536H301.25L300.994 134.744C300.994 134.168 300.908 133.683 300.738 133.288C300.567 132.883 300.316 132.573 299.986 132.36C299.666 132.147 299.26 132.04 298.77 132.04C298.226 132.04 297.762 132.168 297.378 132.424C297.004 132.669 296.722 133.016 296.53 133.464C296.338 133.901 296.242 134.413 296.242 135V135.096C296.242 136.077 296.476 136.824 296.946 137.336C297.426 137.848 298.103 138.104 298.978 138.104C299.34 138.104 299.698 138.056 300.05 137.96C300.412 137.864 300.764 137.704 301.106 137.48C301.255 137.384 301.388 137.341 301.506 137.352C301.634 137.352 301.735 137.389 301.81 137.464C301.884 137.528 301.932 137.613 301.954 137.72C301.986 137.816 301.975 137.923 301.922 138.04C301.879 138.157 301.788 138.259 301.65 138.344C301.298 138.6 300.882 138.797 300.402 138.936C299.922 139.075 299.447 139.144 298.978 139.144ZM304.645 139.112C304.432 139.112 304.267 139.053 304.149 138.936C304.043 138.819 303.989 138.653 303.989 138.44V131.768C303.989 131.555 304.043 131.395 304.149 131.288C304.256 131.171 304.411 131.112 304.613 131.112C304.816 131.112 304.971 131.171 305.077 131.288C305.195 131.395 305.253 131.555 305.253 131.768V133.064H305.093C305.264 132.435 305.589 131.949 306.069 131.608C306.549 131.267 307.141 131.085 307.845 131.064C308.005 131.053 308.133 131.091 308.229 131.176C308.325 131.251 308.379 131.384 308.389 131.576C308.4 131.757 308.357 131.901 308.261 132.008C308.165 132.115 308.016 132.179 307.813 132.2L307.557 132.232C306.832 132.296 306.272 132.531 305.877 132.936C305.493 133.331 305.301 133.875 305.301 134.568V138.44C305.301 138.653 305.243 138.819 305.125 138.936C305.019 139.053 304.859 139.112 304.645 139.112ZM313.104 139.112C312.923 139.112 312.763 139.064 312.624 138.968C312.486 138.861 312.368 138.701 312.272 138.488L309.504 132.024C309.43 131.864 309.403 131.715 309.424 131.576C309.446 131.437 309.51 131.325 309.616 131.24C309.723 131.155 309.872 131.112 310.064 131.112C310.235 131.112 310.368 131.149 310.464 131.224C310.56 131.299 310.646 131.432 310.72 131.624L313.344 138.04H312.912L315.584 131.624C315.659 131.432 315.744 131.299 315.84 131.224C315.936 131.149 316.075 131.112 316.256 131.112C316.427 131.112 316.555 131.155 316.64 131.24C316.736 131.325 316.79 131.437 316.8 131.576C316.822 131.704 316.8 131.848 316.736 132.008L313.936 138.488C313.862 138.701 313.75 138.861 313.6 138.968C313.462 139.064 313.296 139.112 313.104 139.112ZM319.083 139.08C318.869 139.08 318.709 139.021 318.603 138.904C318.496 138.776 318.443 138.6 318.443 138.376V131.832C318.443 131.608 318.496 131.437 318.603 131.32C318.709 131.203 318.869 131.144 319.083 131.144C319.285 131.144 319.445 131.203 319.563 131.32C319.68 131.437 319.739 131.608 319.739 131.832V138.376C319.739 138.6 319.68 138.776 319.563 138.904C319.456 139.021 319.296 139.08 319.083 139.08ZM319.083 129.352C318.816 129.352 318.608 129.283 318.459 129.144C318.309 128.995 318.235 128.797 318.235 128.552C318.235 128.296 318.309 128.104 318.459 127.976C318.608 127.837 318.816 127.768 319.083 127.768C319.36 127.768 319.568 127.837 319.707 127.976C319.856 128.104 319.931 128.296 319.931 128.552C319.931 128.797 319.856 128.995 319.707 129.144C319.568 129.283 319.36 129.352 319.083 129.352ZM325.457 139.144C324.679 139.144 324.007 138.973 323.441 138.632C322.876 138.291 322.439 137.816 322.129 137.208C321.831 136.589 321.681 135.875 321.681 135.064C321.681 134.445 321.767 133.891 321.937 133.4C322.108 132.909 322.359 132.493 322.689 132.152C323.02 131.8 323.415 131.533 323.873 131.352C324.343 131.171 324.871 131.08 325.457 131.08C325.841 131.08 326.241 131.139 326.657 131.256C327.073 131.373 327.452 131.576 327.793 131.864C327.9 131.939 327.969 132.029 328.001 132.136C328.033 132.243 328.033 132.349 328.001 132.456C327.969 132.552 327.916 132.637 327.841 132.712C327.767 132.776 327.671 132.813 327.553 132.824C327.447 132.835 327.335 132.797 327.217 132.712C326.94 132.499 326.657 132.349 326.369 132.264C326.081 132.179 325.804 132.136 325.537 132.136C325.121 132.136 324.759 132.205 324.449 132.344C324.14 132.472 323.879 132.659 323.665 132.904C323.452 133.149 323.287 133.453 323.169 133.816C323.063 134.179 323.009 134.6 323.009 135.08C323.009 136.008 323.228 136.744 323.665 137.288C324.103 137.821 324.727 138.088 325.537 138.088C325.804 138.088 326.076 138.045 326.353 137.96C326.641 137.875 326.929 137.725 327.217 137.512C327.335 137.427 327.447 137.389 327.553 137.4C327.66 137.411 327.751 137.453 327.825 137.528C327.9 137.592 327.948 137.677 327.969 137.784C328.001 137.891 328.001 137.997 327.969 138.104C327.937 138.2 327.868 138.285 327.761 138.36C327.42 138.637 327.047 138.84 326.641 138.968C326.236 139.085 325.841 139.144 325.457 139.144ZM332.915 139.144C332.094 139.144 331.385 138.984 330.787 138.664C330.201 138.333 329.742 137.869 329.411 137.272C329.091 136.675 328.931 135.96 328.931 135.128C328.931 134.317 329.091 133.613 329.411 133.016C329.731 132.408 330.169 131.933 330.723 131.592C331.289 131.251 331.939 131.08 332.675 131.08C333.198 131.08 333.667 131.171 334.083 131.352C334.499 131.523 334.851 131.773 335.139 132.104C335.438 132.435 335.662 132.835 335.811 133.304C335.971 133.773 336.051 134.301 336.051 134.888C336.051 135.059 336.003 135.187 335.907 135.272C335.811 135.347 335.673 135.384 335.491 135.384H329.923V134.536H335.187L334.931 134.744C334.931 134.168 334.846 133.683 334.675 133.288C334.505 132.883 334.254 132.573 333.923 132.36C333.603 132.147 333.198 132.04 332.707 132.04C332.163 132.04 331.699 132.168 331.315 132.424C330.942 132.669 330.659 133.016 330.467 133.464C330.275 133.901 330.179 134.413 330.179 135V135.096C330.179 136.077 330.414 136.824 330.883 137.336C331.363 137.848 332.041 138.104 332.915 138.104C333.278 138.104 333.635 138.056 333.987 137.96C334.35 137.864 334.702 137.704 335.043 137.48C335.193 137.384 335.326 137.341 335.443 137.352C335.571 137.352 335.673 137.389 335.747 137.464C335.822 137.528 335.87 137.613 335.891 137.72C335.923 137.816 335.913 137.923 335.859 138.04C335.817 138.157 335.726 138.259 335.587 138.344C335.235 138.6 334.819 138.797 334.339 138.936C333.859 139.075 333.385 139.144 332.915 139.144ZM75.0123 161.08C74.7989 161.08 74.6389 161.021 74.5323 160.904C74.4256 160.776 74.3723 160.6 74.3723 160.376V153.832C74.3723 153.608 74.4256 153.437 74.5323 153.32C74.6389 153.203 74.7989 153.144 75.0123 153.144C75.2149 153.144 75.3749 153.203 75.4923 153.32C75.6096 153.437 75.6683 153.608 75.6683 153.832V160.376C75.6683 160.6 75.6096 160.776 75.4923 160.904C75.3856 161.021 75.2256 161.08 75.0123 161.08ZM75.0123 151.352C74.7456 151.352 74.5376 151.283 74.3883 151.144C74.2389 150.995 74.1643 150.797 74.1643 150.552C74.1643 150.296 74.2389 150.104 74.3883 149.976C74.5376 149.837 74.7456 149.768 75.0123 149.768C75.2896 149.768 75.4976 149.837 75.6363 149.976C75.7856 150.104 75.8603 150.296 75.8603 150.552C75.8603 150.797 75.7856 150.995 75.6363 151.144C75.4976 151.283 75.2896 151.352 75.0123 151.352ZM78.731 161.112C78.5177 161.112 78.3577 161.053 78.251 160.936C78.1443 160.819 78.091 160.653 78.091 160.44V153.768C78.091 153.555 78.1443 153.395 78.251 153.288C78.3577 153.171 78.5123 153.112 78.715 153.112C78.9177 153.112 79.0723 153.171 79.179 153.288C79.2963 153.395 79.355 153.555 79.355 153.768V155.144L79.179 154.952C79.403 154.333 79.7657 153.869 80.267 153.56C80.779 153.24 81.3657 153.08 82.027 153.08C82.6457 153.08 83.1577 153.192 83.563 153.416C83.979 153.64 84.2883 153.981 84.491 154.44C84.6937 154.888 84.795 155.459 84.795 156.152V160.44C84.795 160.653 84.7363 160.819 84.619 160.936C84.5123 161.053 84.3577 161.112 84.155 161.112C83.9417 161.112 83.7763 161.053 83.659 160.936C83.5523 160.819 83.499 160.653 83.499 160.44V156.232C83.499 155.507 83.355 154.979 83.067 154.648C82.7897 154.307 82.3417 154.136 81.723 154.136C81.0083 154.136 80.4377 154.36 80.011 154.808C79.595 155.245 79.387 155.832 79.387 156.568V160.44C79.387 160.888 79.1683 161.112 78.731 161.112ZM90.1448 161.144C89.4514 161.144 88.8434 160.979 88.3207 160.648C87.8088 160.317 87.4088 159.853 87.1208 159.256C86.8434 158.648 86.7048 157.933 86.7048 157.112C86.7048 156.28 86.8434 155.565 87.1208 154.968C87.4088 154.36 87.8088 153.896 88.3207 153.576C88.8434 153.245 89.4514 153.08 90.1448 153.08C90.8488 153.08 91.4514 153.256 91.9528 153.608C92.4541 153.96 92.7901 154.435 92.9608 155.032H92.7848V150.264C92.7848 150.051 92.8381 149.891 92.9448 149.784C93.0621 149.667 93.2274 149.608 93.4408 149.608C93.6434 149.608 93.7981 149.667 93.9048 149.784C94.0221 149.891 94.0808 150.051 94.0808 150.264V160.44C94.0808 160.653 94.0274 160.819 93.9208 160.936C93.8141 161.053 93.6541 161.112 93.4408 161.112C93.2381 161.112 93.0781 161.053 92.9608 160.936C92.8541 160.819 92.8008 160.653 92.8008 160.44V158.92L92.9768 159.144C92.8061 159.752 92.4648 160.237 91.9528 160.6C91.4514 160.963 90.8488 161.144 90.1448 161.144ZM90.4168 160.104C90.8968 160.104 91.3181 159.987 91.6808 159.752C92.0434 159.517 92.3208 159.176 92.5128 158.728C92.7154 158.28 92.8168 157.741 92.8168 157.112C92.8168 156.141 92.5981 155.4 92.1608 154.888C91.7341 154.376 91.1528 154.12 90.4168 154.12C89.9261 154.12 89.4994 154.237 89.1368 154.472C88.7848 154.696 88.5074 155.032 88.3048 155.48C88.1128 155.917 88.0168 156.461 88.0168 157.112C88.0168 158.072 88.2354 158.813 88.6728 159.336C89.1101 159.848 89.6914 160.104 90.4168 160.104ZM99.2649 161.144C98.6355 161.144 98.1129 161.032 97.6969 160.808C97.2915 160.573 96.9822 160.227 96.7689 159.768C96.5662 159.309 96.4649 158.739 96.4649 158.056V153.768C96.4649 153.544 96.5182 153.379 96.6249 153.272C96.7422 153.165 96.9022 153.112 97.1049 153.112C97.3182 153.112 97.4782 153.165 97.5849 153.272C97.7022 153.379 97.7609 153.544 97.7609 153.768V158.04C97.7609 158.723 97.8995 159.235 98.1769 159.576C98.4649 159.907 98.9129 160.072 99.5209 160.072C100.182 160.072 100.721 159.848 101.137 159.4C101.553 158.952 101.761 158.365 101.761 157.64V153.768C101.761 153.544 101.814 153.379 101.921 153.272C102.038 153.165 102.204 153.112 102.417 153.112C102.62 153.112 102.774 153.165 102.881 153.272C102.998 153.379 103.057 153.544 103.057 153.768V160.44C103.057 160.888 102.849 161.112 102.433 161.112C102.23 161.112 102.07 161.053 101.953 160.936C101.846 160.819 101.793 160.653 101.793 160.44V158.984L102.001 159.208C101.788 159.837 101.436 160.317 100.945 160.648C100.465 160.979 99.9049 161.144 99.2649 161.144ZM108.106 161.144C107.626 161.144 107.14 161.085 106.65 160.968C106.17 160.851 105.722 160.648 105.306 160.36C105.199 160.285 105.124 160.2 105.082 160.104C105.039 159.997 105.023 159.896 105.034 159.8C105.055 159.693 105.098 159.603 105.162 159.528C105.236 159.453 105.322 159.411 105.418 159.4C105.524 159.379 105.642 159.4 105.77 159.464C106.186 159.72 106.586 159.901 106.97 160.008C107.364 160.104 107.754 160.152 108.138 160.152C108.746 160.152 109.204 160.04 109.514 159.816C109.823 159.592 109.978 159.288 109.978 158.904C109.978 158.605 109.876 158.371 109.674 158.2C109.471 158.019 109.151 157.88 108.714 157.784L107.258 157.464C106.586 157.325 106.084 157.085 105.754 156.744C105.434 156.403 105.274 155.96 105.274 155.416C105.274 154.936 105.396 154.525 105.642 154.184C105.898 153.832 106.255 153.56 106.714 153.368C107.172 153.176 107.706 153.08 108.314 153.08C108.783 153.08 109.226 153.144 109.642 153.272C110.068 153.389 110.452 153.581 110.794 153.848C110.9 153.923 110.97 154.013 111.002 154.12C111.044 154.216 111.05 154.317 111.018 154.424C110.996 154.52 110.948 154.605 110.874 154.68C110.799 154.744 110.708 154.781 110.602 154.792C110.495 154.803 110.383 154.771 110.266 154.696C109.946 154.483 109.62 154.328 109.29 154.232C108.959 154.125 108.634 154.072 108.314 154.072C107.716 154.072 107.263 154.189 106.954 154.424C106.644 154.659 106.49 154.968 106.49 155.352C106.49 155.651 106.586 155.896 106.778 156.088C106.97 156.28 107.268 156.419 107.674 156.504L109.13 156.808C109.823 156.957 110.34 157.197 110.682 157.528C111.034 157.848 111.21 158.285 111.21 158.84C111.21 159.544 110.927 160.104 110.362 160.52C109.796 160.936 109.044 161.144 108.106 161.144ZM116.227 161.144C115.619 161.144 115.107 161.037 114.691 160.824C114.285 160.6 113.981 160.28 113.779 159.864C113.576 159.437 113.475 158.92 113.475 158.312V154.232H112.403C112.221 154.232 112.083 154.189 111.987 154.104C111.891 154.008 111.843 153.88 111.843 153.72C111.843 153.56 111.891 153.437 111.987 153.352C112.083 153.267 112.221 153.224 112.403 153.224H113.475V151.384C113.475 151.171 113.533 151.011 113.651 150.904C113.768 150.787 113.928 150.728 114.131 150.728C114.333 150.728 114.488 150.787 114.595 150.904C114.712 151.011 114.771 151.171 114.771 151.384V153.224H116.787C116.968 153.224 117.107 153.267 117.203 153.352C117.299 153.437 117.347 153.56 117.347 153.72C117.347 153.88 117.299 154.008 117.203 154.104C117.107 154.189 116.968 154.232 116.787 154.232H114.771V158.184C114.771 158.792 114.899 159.256 115.155 159.576C115.411 159.885 115.827 160.04 116.403 160.04C116.605 160.04 116.776 160.019 116.915 159.976C117.064 159.933 117.187 159.912 117.283 159.912C117.379 159.901 117.459 159.933 117.523 160.008C117.587 160.083 117.619 160.211 117.619 160.392C117.619 160.52 117.592 160.637 117.539 160.744C117.496 160.851 117.416 160.925 117.299 160.968C117.171 161.011 117 161.048 116.787 161.08C116.584 161.123 116.397 161.144 116.227 161.144ZM119.356 161.112C119.143 161.112 118.978 161.053 118.86 160.936C118.754 160.819 118.7 160.653 118.7 160.44V153.768C118.7 153.555 118.754 153.395 118.86 153.288C118.967 153.171 119.122 153.112 119.324 153.112C119.527 153.112 119.682 153.171 119.788 153.288C119.906 153.395 119.964 153.555 119.964 153.768V155.064H119.804C119.975 154.435 120.3 153.949 120.78 153.608C121.26 153.267 121.852 153.085 122.556 153.064C122.716 153.053 122.844 153.091 122.94 153.176C123.036 153.251 123.09 153.384 123.1 153.576C123.111 153.757 123.068 153.901 122.972 154.008C122.876 154.115 122.727 154.179 122.524 154.2L122.268 154.232C121.543 154.296 120.983 154.531 120.588 154.936C120.204 155.331 120.012 155.875 120.012 156.568V160.44C120.012 160.653 119.954 160.819 119.836 160.936C119.73 161.053 119.57 161.112 119.356 161.112ZM126.647 163.992C126.487 163.992 126.359 163.949 126.263 163.864C126.167 163.779 126.108 163.661 126.087 163.512C126.076 163.373 126.103 163.229 126.167 163.08L127.271 160.6V161.16L124.199 154.024C124.135 153.864 124.114 153.715 124.135 153.576C124.156 153.437 124.22 153.325 124.327 153.24C124.434 153.155 124.583 153.112 124.775 153.112C124.946 153.112 125.079 153.149 125.175 153.224C125.271 153.299 125.356 153.432 125.431 153.624L128.055 160.056H127.623L130.279 153.624C130.364 153.432 130.455 153.299 130.551 153.224C130.647 153.149 130.786 153.112 130.967 153.112C131.138 153.112 131.266 153.155 131.351 153.24C131.447 153.325 131.5 153.437 131.511 153.576C131.532 153.704 131.511 153.848 131.447 154.008L127.351 163.48C127.266 163.672 127.17 163.805 127.063 163.88C126.967 163.955 126.828 163.992 126.647 163.992ZM138.319 161.112C138.116 161.112 137.956 161.053 137.839 160.936C137.732 160.819 137.679 160.653 137.679 160.44V154.232H136.655C136.484 154.232 136.346 154.189 136.239 154.104C136.143 154.008 136.095 153.88 136.095 153.72C136.095 153.56 136.143 153.437 136.239 153.352C136.346 153.267 136.484 153.224 136.655 153.224H138.031L137.679 153.56V152.952C137.679 151.939 137.924 151.165 138.415 150.632C138.916 150.099 139.647 149.789 140.607 149.704L141.071 149.656C141.22 149.645 141.338 149.672 141.423 149.736C141.519 149.8 141.578 149.88 141.599 149.976C141.631 150.072 141.636 150.173 141.615 150.28C141.594 150.376 141.546 150.461 141.471 150.536C141.396 150.611 141.306 150.653 141.199 150.664L140.831 150.696C140.18 150.749 139.706 150.947 139.407 151.288C139.119 151.629 138.975 152.131 138.975 152.792V153.464L138.783 153.224H140.703C140.884 153.224 141.023 153.267 141.119 153.352C141.215 153.437 141.263 153.56 141.263 153.72C141.263 153.88 141.215 154.008 141.119 154.104C141.023 154.189 140.884 154.232 140.703 154.232H138.975V160.44C138.975 160.888 138.756 161.112 138.319 161.112ZM145.604 161.144C144.847 161.144 144.191 160.979 143.636 160.648C143.082 160.317 142.65 159.853 142.34 159.256C142.042 158.648 141.892 157.933 141.892 157.112C141.892 156.493 141.978 155.939 142.148 155.448C142.319 154.947 142.57 154.52 142.9 154.168C143.231 153.816 143.62 153.549 144.068 153.368C144.527 153.176 145.039 153.08 145.604 153.08C146.362 153.08 147.018 153.245 147.572 153.576C148.127 153.907 148.554 154.376 148.852 154.984C149.162 155.581 149.316 156.291 149.316 157.112C149.316 157.731 149.231 158.285 149.06 158.776C148.89 159.267 148.639 159.693 148.308 160.056C147.978 160.408 147.583 160.68 147.124 160.872C146.676 161.053 146.17 161.144 145.604 161.144ZM145.604 160.104C146.084 160.104 146.506 159.987 146.868 159.752C147.231 159.517 147.508 159.176 147.7 158.728C147.903 158.28 148.004 157.741 148.004 157.112C148.004 156.141 147.786 155.4 147.348 154.888C146.922 154.376 146.34 154.12 145.604 154.12C145.114 154.12 144.687 154.237 144.324 154.472C143.972 154.696 143.695 155.032 143.492 155.48C143.3 155.917 143.204 156.461 143.204 157.112C143.204 158.072 143.423 158.813 143.86 159.336C144.298 159.848 144.879 160.104 145.604 160.104ZM151.919 161.112C151.706 161.112 151.54 161.053 151.423 160.936C151.316 160.819 151.263 160.653 151.263 160.44V153.768C151.263 153.555 151.316 153.395 151.423 153.288C151.53 153.171 151.684 153.112 151.887 153.112C152.09 153.112 152.244 153.171 152.351 153.288C152.468 153.395 152.527 153.555 152.527 153.768V155.064H152.367C152.538 154.435 152.863 153.949 153.343 153.608C153.823 153.267 154.415 153.085 155.119 153.064C155.279 153.053 155.407 153.091 155.503 153.176C155.599 153.251 155.652 153.384 155.663 153.576C155.674 153.757 155.631 153.901 155.535 154.008C155.439 154.115 155.29 154.179 155.087 154.2L154.831 154.232C154.106 154.296 153.546 154.531 153.151 154.936C152.767 155.331 152.575 155.875 152.575 156.568V160.44C152.575 160.653 152.516 160.819 152.399 160.936C152.292 161.053 152.132 161.112 151.919 161.112ZM164.626 161.144C163.805 161.144 163.096 160.984 162.498 160.664C161.912 160.333 161.453 159.869 161.122 159.272C160.802 158.675 160.642 157.96 160.642 157.128C160.642 156.317 160.802 155.613 161.122 155.016C161.442 154.408 161.88 153.933 162.434 153.592C163 153.251 163.65 153.08 164.386 153.08C164.909 153.08 165.378 153.171 165.794 153.352C166.21 153.523 166.562 153.773 166.85 154.104C167.149 154.435 167.373 154.835 167.522 155.304C167.682 155.773 167.762 156.301 167.762 156.888C167.762 157.059 167.714 157.187 167.618 157.272C167.522 157.347 167.384 157.384 167.202 157.384H161.634V156.536H166.898L166.642 156.744C166.642 156.168 166.557 155.683 166.386 155.288C166.216 154.883 165.965 154.573 165.634 154.36C165.314 154.147 164.909 154.04 164.418 154.04C163.874 154.04 163.41 154.168 163.026 154.424C162.653 154.669 162.37 155.016 162.178 155.464C161.986 155.901 161.89 156.413 161.89 157V157.096C161.89 158.077 162.125 158.824 162.594 159.336C163.074 159.848 163.752 160.104 164.626 160.104C164.989 160.104 165.346 160.056 165.698 159.96C166.061 159.864 166.413 159.704 166.754 159.48C166.904 159.384 167.037 159.341 167.154 159.352C167.282 159.352 167.384 159.389 167.458 159.464C167.533 159.528 167.581 159.613 167.602 159.72C167.634 159.816 167.624 159.923 167.57 160.04C167.528 160.157 167.437 160.259 167.298 160.344C166.946 160.6 166.53 160.797 166.05 160.936C165.57 161.075 165.096 161.144 164.626 161.144ZM172.44 161.112C172.259 161.112 172.099 161.064 171.96 160.968C171.821 160.861 171.704 160.701 171.608 160.488L168.84 154.024C168.765 153.864 168.739 153.715 168.76 153.576C168.781 153.437 168.845 153.325 168.952 153.24C169.059 153.155 169.208 153.112 169.4 153.112C169.571 153.112 169.704 153.149 169.8 153.224C169.896 153.299 169.981 153.432 170.056 153.624L172.68 160.04H172.248L174.92 153.624C174.995 153.432 175.08 153.299 175.176 153.224C175.272 153.149 175.411 153.112 175.592 153.112C175.763 153.112 175.891 153.155 175.976 153.24C176.072 153.325 176.125 153.437 176.136 153.576C176.157 153.704 176.136 153.848 176.072 154.008L173.272 160.488C173.197 160.701 173.085 160.861 172.936 160.968C172.797 161.064 172.632 161.112 172.44 161.112ZM181.173 161.144C180.352 161.144 179.642 160.984 179.045 160.664C178.458 160.333 178 159.869 177.669 159.272C177.349 158.675 177.189 157.96 177.189 157.128C177.189 156.317 177.349 155.613 177.669 155.016C177.989 154.408 178.426 153.933 178.981 153.592C179.546 153.251 180.197 153.08 180.933 153.08C181.456 153.08 181.925 153.171 182.341 153.352C182.757 153.523 183.109 153.773 183.397 154.104C183.696 154.435 183.92 154.835 184.069 155.304C184.229 155.773 184.309 156.301 184.309 156.888C184.309 157.059 184.261 157.187 184.165 157.272C184.069 157.347 183.93 157.384 183.749 157.384H178.181V156.536H183.445L183.189 156.744C183.189 156.168 183.104 155.683 182.933 155.288C182.762 154.883 182.512 154.573 182.181 154.36C181.861 154.147 181.456 154.04 180.965 154.04C180.421 154.04 179.957 154.168 179.573 154.424C179.2 154.669 178.917 155.016 178.725 155.464C178.533 155.901 178.437 156.413 178.437 157V157.096C178.437 158.077 178.672 158.824 179.141 159.336C179.621 159.848 180.298 160.104 181.173 160.104C181.536 160.104 181.893 160.056 182.245 159.96C182.608 159.864 182.96 159.704 183.301 159.48C183.45 159.384 183.584 159.341 183.701 159.352C183.829 159.352 183.93 159.389 184.005 159.464C184.08 159.528 184.128 159.613 184.149 159.72C184.181 159.816 184.17 159.923 184.117 160.04C184.074 160.157 183.984 160.259 183.845 160.344C183.493 160.6 183.077 160.797 182.597 160.936C182.117 161.075 181.642 161.144 181.173 161.144ZM186.841 161.112C186.627 161.112 186.462 161.053 186.345 160.936C186.238 160.819 186.185 160.653 186.185 160.44V153.768C186.185 153.555 186.238 153.395 186.345 153.288C186.451 153.171 186.606 153.112 186.809 153.112C187.011 153.112 187.166 153.171 187.273 153.288C187.39 153.395 187.449 153.555 187.449 153.768V155.064H187.289C187.459 154.435 187.785 153.949 188.265 153.608C188.745 153.267 189.337 153.085 190.041 153.064C190.201 153.053 190.329 153.091 190.425 153.176C190.521 153.251 190.574 153.384 190.585 153.576C190.595 153.757 190.553 153.901 190.457 154.008C190.361 154.115 190.211 154.179 190.009 154.2L189.753 154.232C189.027 154.296 188.467 154.531 188.073 154.936C187.689 155.331 187.497 155.875 187.497 156.568V160.44C187.497 160.653 187.438 160.819 187.321 160.936C187.214 161.053 187.054 161.112 186.841 161.112ZM194.132 163.992C193.972 163.992 193.844 163.949 193.748 163.864C193.652 163.779 193.593 163.661 193.572 163.512C193.561 163.373 193.588 163.229 193.652 163.08L194.756 160.6V161.16L191.684 154.024C191.62 153.864 191.598 153.715 191.62 153.576C191.641 153.437 191.705 153.325 191.812 153.24C191.918 153.155 192.068 153.112 192.26 153.112C192.43 153.112 192.564 153.149 192.66 153.224C192.756 153.299 192.841 153.432 192.916 153.624L195.54 160.056H195.108L197.764 153.624C197.849 153.432 197.94 153.299 198.036 153.224C198.132 153.149 198.27 153.112 198.452 153.112C198.622 153.112 198.75 153.155 198.836 153.24C198.932 153.325 198.985 153.437 198.996 153.576C199.017 153.704 198.996 153.848 198.932 154.008L194.836 163.48C194.75 163.672 194.654 163.805 194.548 163.88C194.452 163.955 194.313 163.992 194.132 163.992ZM203.745 161.144C202.988 161.144 202.332 160.979 201.777 160.648C201.222 160.317 200.79 159.853 200.481 159.256C200.182 158.648 200.033 157.933 200.033 157.112C200.033 156.493 200.118 155.939 200.289 155.448C200.46 154.947 200.71 154.52 201.041 154.168C201.372 153.816 201.761 153.549 202.209 153.368C202.668 153.176 203.18 153.08 203.745 153.08C204.502 153.08 205.158 153.245 205.713 153.576C206.268 153.907 206.694 154.376 206.993 154.984C207.302 155.581 207.457 156.291 207.457 157.112C207.457 157.731 207.372 158.285 207.201 158.776C207.03 159.267 206.78 159.693 206.449 160.056C206.118 160.408 205.724 160.68 205.265 160.872C204.817 161.053 204.31 161.144 203.745 161.144ZM203.745 160.104C204.225 160.104 204.646 159.987 205.009 159.752C205.372 159.517 205.649 159.176 205.841 158.728C206.044 158.28 206.145 157.741 206.145 157.112C206.145 156.141 205.926 155.4 205.489 154.888C205.062 154.376 204.481 154.12 203.745 154.12C203.254 154.12 202.828 154.237 202.465 154.472C202.113 154.696 201.836 155.032 201.633 155.48C201.441 155.917 201.345 156.461 201.345 157.112C201.345 158.072 201.564 158.813 202.001 159.336C202.438 159.848 203.02 160.104 203.745 160.104ZM210.044 161.112C209.83 161.112 209.67 161.053 209.564 160.936C209.457 160.819 209.404 160.653 209.404 160.44V153.768C209.404 153.555 209.457 153.395 209.564 153.288C209.67 153.171 209.825 153.112 210.028 153.112C210.23 153.112 210.385 153.171 210.492 153.288C210.609 153.395 210.668 153.555 210.668 153.768V155.144L210.492 154.952C210.716 154.333 211.078 153.869 211.58 153.56C212.092 153.24 212.678 153.08 213.34 153.08C213.958 153.08 214.47 153.192 214.876 153.416C215.292 153.64 215.601 153.981 215.804 154.44C216.006 154.888 216.108 155.459 216.108 156.152V160.44C216.108 160.653 216.049 160.819 215.932 160.936C215.825 161.053 215.67 161.112 215.468 161.112C215.254 161.112 215.089 161.053 214.972 160.936C214.865 160.819 214.812 160.653 214.812 160.44V156.232C214.812 155.507 214.668 154.979 214.38 154.648C214.102 154.307 213.654 154.136 213.036 154.136C212.321 154.136 211.75 154.36 211.324 154.808C210.908 155.245 210.7 155.832 210.7 156.568V160.44C210.7 160.888 210.481 161.112 210.044 161.112ZM222.001 161.144C221.18 161.144 220.471 160.984 219.873 160.664C219.287 160.333 218.828 159.869 218.497 159.272C218.177 158.675 218.017 157.96 218.017 157.128C218.017 156.317 218.177 155.613 218.497 155.016C218.817 154.408 219.255 153.933 219.809 153.592C220.375 153.251 221.025 153.08 221.761 153.08C222.284 153.08 222.753 153.171 223.169 153.352C223.585 153.523 223.937 153.773 224.225 154.104C224.524 154.435 224.748 154.835 224.897 155.304C225.057 155.773 225.137 156.301 225.137 156.888C225.137 157.059 225.089 157.187 224.993 157.272C224.897 157.347 224.759 157.384 224.577 157.384H219.009V156.536H224.273L224.017 156.744C224.017 156.168 223.932 155.683 223.761 155.288C223.591 154.883 223.34 154.573 223.009 154.36C222.689 154.147 222.284 154.04 221.793 154.04C221.249 154.04 220.785 154.168 220.401 154.424C220.028 154.669 219.745 155.016 219.553 155.464C219.361 155.901 219.265 156.413 219.265 157V157.096C219.265 158.077 219.5 158.824 219.969 159.336C220.449 159.848 221.127 160.104 222.001 160.104C222.364 160.104 222.721 160.056 223.073 159.96C223.436 159.864 223.788 159.704 224.129 159.48C224.279 159.384 224.412 159.341 224.529 159.352C224.657 159.352 224.759 159.389 224.833 159.464C224.908 159.528 224.956 159.613 224.977 159.72C225.009 159.816 224.999 159.923 224.945 160.04C224.903 160.157 224.812 160.259 224.673 160.344C224.321 160.6 223.905 160.797 223.425 160.936C222.945 161.075 222.471 161.144 222.001 161.144ZM231.778 161.08C231.565 161.08 231.405 161.021 231.298 160.904C231.191 160.776 231.138 160.6 231.138 160.376V153.832C231.138 153.608 231.191 153.437 231.298 153.32C231.405 153.203 231.565 153.144 231.778 153.144C231.981 153.144 232.141 153.203 232.258 153.32C232.375 153.437 232.434 153.608 232.434 153.832V160.376C232.434 160.6 232.375 160.776 232.258 160.904C232.151 161.021 231.991 161.08 231.778 161.08ZM231.778 151.352C231.511 151.352 231.303 151.283 231.154 151.144C231.005 150.995 230.93 150.797 230.93 150.552C230.93 150.296 231.005 150.104 231.154 149.976C231.303 149.837 231.511 149.768 231.778 149.768C232.055 149.768 232.263 149.837 232.402 149.976C232.551 150.104 232.626 150.296 232.626 150.552C232.626 150.797 232.551 150.995 232.402 151.144C232.263 151.283 232.055 151.352 231.778 151.352ZM235.497 161.112C235.283 161.112 235.123 161.053 235.017 160.936C234.91 160.819 234.857 160.653 234.857 160.44V153.768C234.857 153.555 234.91 153.395 235.017 153.288C235.123 153.171 235.278 153.112 235.481 153.112C235.683 153.112 235.838 153.171 235.945 153.288C236.062 153.395 236.121 153.555 236.121 153.768V155.144L235.945 154.952C236.169 154.333 236.531 153.869 237.033 153.56C237.545 153.24 238.131 153.08 238.793 153.08C239.411 153.08 239.923 153.192 240.329 153.416C240.745 153.64 241.054 153.981 241.257 154.44C241.459 154.888 241.561 155.459 241.561 156.152V160.44C241.561 160.653 241.502 160.819 241.385 160.936C241.278 161.053 241.123 161.112 240.921 161.112C240.707 161.112 240.542 161.053 240.425 160.936C240.318 160.819 240.265 160.653 240.265 160.44V156.232C240.265 155.507 240.121 154.979 239.833 154.648C239.555 154.307 239.107 154.136 238.489 154.136C237.774 154.136 237.203 154.36 236.777 154.808C236.361 155.245 236.153 155.832 236.153 156.568V160.44C236.153 160.888 235.934 161.112 235.497 161.112ZM246.768 161.112C246.587 161.112 246.427 161.064 246.288 160.968C246.15 160.861 246.032 160.701 245.936 160.488L243.168 154.024C243.094 153.864 243.067 153.715 243.088 153.576C243.11 153.437 243.174 153.325 243.28 153.24C243.387 153.155 243.536 153.112 243.728 153.112C243.899 153.112 244.032 153.149 244.128 153.224C244.224 153.299 244.31 153.432 244.384 153.624L247.008 160.04H246.576L249.248 153.624C249.323 153.432 249.408 153.299 249.504 153.224C249.6 153.149 249.739 153.112 249.92 153.112C250.091 153.112 250.219 153.155 250.304 153.24C250.4 153.325 250.454 153.437 250.464 153.576C250.486 153.704 250.464 153.848 250.4 154.008L247.6 160.488C247.526 160.701 247.414 160.861 247.264 160.968C247.126 161.064 246.96 161.112 246.768 161.112ZM255.229 161.144C254.472 161.144 253.816 160.979 253.261 160.648C252.707 160.317 252.275 159.853 251.965 159.256C251.667 158.648 251.517 157.933 251.517 157.112C251.517 156.493 251.603 155.939 251.773 155.448C251.944 154.947 252.195 154.52 252.525 154.168C252.856 153.816 253.245 153.549 253.693 153.368C254.152 153.176 254.664 153.08 255.229 153.08C255.987 153.08 256.643 153.245 257.197 153.576C257.752 153.907 258.179 154.376 258.477 154.984C258.787 155.581 258.941 156.291 258.941 157.112C258.941 157.731 258.856 158.285 258.685 158.776C258.515 159.267 258.264 159.693 257.933 160.056C257.603 160.408 257.208 160.68 256.749 160.872C256.301 161.053 255.795 161.144 255.229 161.144ZM255.229 160.104C255.709 160.104 256.131 159.987 256.493 159.752C256.856 159.517 257.133 159.176 257.325 158.728C257.528 158.28 257.629 157.741 257.629 157.112C257.629 156.141 257.411 155.4 256.973 154.888C256.547 154.376 255.965 154.12 255.229 154.12C254.739 154.12 254.312 154.237 253.949 154.472C253.597 154.696 253.32 155.032 253.117 155.48C252.925 155.917 252.829 156.461 252.829 157.112C252.829 158.072 253.048 158.813 253.485 159.336C253.923 159.848 254.504 160.104 255.229 160.104ZM263.256 161.144C262.488 161.144 261.901 160.909 261.496 160.44C261.091 159.971 260.888 159.299 260.888 158.424V150.264C260.888 150.051 260.941 149.891 261.048 149.784C261.155 149.667 261.315 149.608 261.528 149.608C261.731 149.608 261.891 149.667 262.008 149.784C262.125 149.891 262.184 150.051 262.184 150.264V158.328C262.184 158.904 262.296 159.336 262.52 159.624C262.755 159.901 263.096 160.04 263.544 160.04C263.64 160.04 263.725 160.035 263.8 160.024C263.875 160.013 263.949 160.008 264.024 160.008C264.141 159.997 264.221 160.024 264.264 160.088C264.317 160.152 264.344 160.28 264.344 160.472C264.344 160.664 264.301 160.808 264.216 160.904C264.131 161 263.992 161.064 263.8 161.096C263.715 161.107 263.624 161.117 263.528 161.128C263.432 161.139 263.341 161.144 263.256 161.144ZM268.346 161.112C268.165 161.112 268.005 161.064 267.866 160.968C267.728 160.861 267.61 160.701 267.514 160.488L264.746 154.024C264.672 153.864 264.645 153.715 264.666 153.576C264.688 153.437 264.752 153.325 264.858 153.24C264.965 153.155 265.114 153.112 265.306 153.112C265.477 153.112 265.61 153.149 265.706 153.224C265.802 153.299 265.888 153.432 265.962 153.624L268.586 160.04H268.154L270.826 153.624C270.901 153.432 270.986 153.299 271.082 153.224C271.178 153.149 271.317 153.112 271.498 153.112C271.669 153.112 271.797 153.155 271.882 153.24C271.978 153.325 272.032 153.437 272.042 153.576C272.064 153.704 272.042 153.848 271.978 154.008L269.178 160.488C269.104 160.701 268.992 160.861 268.842 160.968C268.704 161.064 268.538 161.112 268.346 161.112ZM277.079 161.144C276.258 161.144 275.549 160.984 274.951 160.664C274.365 160.333 273.906 159.869 273.575 159.272C273.255 158.675 273.095 157.96 273.095 157.128C273.095 156.317 273.255 155.613 273.575 155.016C273.895 154.408 274.333 153.933 274.887 153.592C275.453 153.251 276.103 153.08 276.839 153.08C277.362 153.08 277.831 153.171 278.247 153.352C278.663 153.523 279.015 153.773 279.303 154.104C279.602 154.435 279.826 154.835 279.975 155.304C280.135 155.773 280.215 156.301 280.215 156.888C280.215 157.059 280.167 157.187 280.071 157.272C279.975 157.347 279.837 157.384 279.655 157.384H274.087V156.536H279.351L279.095 156.744C279.095 156.168 279.01 155.683 278.839 155.288C278.669 154.883 278.418 154.573 278.087 154.36C277.767 154.147 277.362 154.04 276.871 154.04C276.327 154.04 275.863 154.168 275.479 154.424C275.106 154.669 274.823 155.016 274.631 155.464C274.439 155.901 274.343 156.413 274.343 157V157.096C274.343 158.077 274.578 158.824 275.047 159.336C275.527 159.848 276.205 160.104 277.079 160.104C277.442 160.104 277.799 160.056 278.151 159.96C278.514 159.864 278.866 159.704 279.207 159.48C279.357 159.384 279.49 159.341 279.607 159.352C279.735 159.352 279.837 159.389 279.911 159.464C279.986 159.528 280.034 159.613 280.055 159.72C280.087 159.816 280.077 159.923 280.023 160.04C279.981 160.157 279.89 160.259 279.751 160.344C279.399 160.6 278.983 160.797 278.503 160.936C278.023 161.075 277.549 161.144 277.079 161.144ZM285.051 161.144C284.358 161.144 283.75 160.979 283.227 160.648C282.715 160.317 282.315 159.853 282.027 159.256C281.75 158.648 281.611 157.933 281.611 157.112C281.611 156.28 281.75 155.565 282.027 154.968C282.315 154.36 282.715 153.896 283.227 153.576C283.75 153.245 284.358 153.08 285.051 153.08C285.755 153.08 286.358 153.256 286.859 153.608C287.36 153.96 287.696 154.435 287.867 155.032H287.691V150.264C287.691 150.051 287.744 149.891 287.851 149.784C287.968 149.667 288.134 149.608 288.347 149.608C288.55 149.608 288.704 149.667 288.811 149.784C288.928 149.891 288.987 150.051 288.987 150.264V160.44C288.987 160.653 288.934 160.819 288.827 160.936C288.72 161.053 288.56 161.112 288.347 161.112C288.144 161.112 287.984 161.053 287.867 160.936C287.76 160.819 287.707 160.653 287.707 160.44V158.92L287.883 159.144C287.712 159.752 287.371 160.237 286.859 160.6C286.358 160.963 285.755 161.144 285.051 161.144ZM285.323 160.104C285.803 160.104 286.224 159.987 286.587 159.752C286.95 159.517 287.227 159.176 287.419 158.728C287.622 158.28 287.723 157.741 287.723 157.112C287.723 156.141 287.504 155.4 287.067 154.888C286.64 154.376 286.059 154.12 285.323 154.12C284.832 154.12 284.406 154.237 284.043 154.472C283.691 154.696 283.414 155.032 283.211 155.48C283.019 155.917 282.923 156.461 282.923 157.112C282.923 158.072 283.142 158.813 283.579 159.336C284.016 159.848 284.598 160.104 285.323 160.104ZM292.043 161.064C291.776 161.064 291.563 160.984 291.403 160.824C291.243 160.653 291.163 160.44 291.163 160.184C291.163 159.928 291.243 159.72 291.403 159.56C291.563 159.389 291.776 159.304 292.043 159.304C292.31 159.304 292.518 159.389 292.667 159.56C292.827 159.72 292.907 159.928 292.907 160.184C292.907 160.44 292.827 160.653 292.667 160.824C292.518 160.984 292.31 161.064 292.043 161.064Z" fill="black"/>
</svg>
