<svg width="50" height="50" viewBox="0 0 50 50" fill="none" xmlns="http://www.w3.org/2000/svg">
<path d="M19.3814 8.55058C19.7498 8.55017 20.1029 8.40366 20.3633 8.14321C20.6237 7.88275 20.7701 7.52963 20.7705 7.16132C20.7705 6.39531 20.1475 5.77206 19.3814 5.77206C18.6154 5.77206 17.9922 6.39511 17.9922 7.16132C17.9922 7.92734 18.6152 8.55058 19.3814 8.55058ZM19.3814 6.84628C19.5551 6.84628 19.6963 6.98769 19.6963 7.16132C19.6963 7.33515 19.5551 7.47636 19.3814 7.47636C19.2076 7.47636 19.0664 7.33495 19.0664 7.16132C19.0664 6.98749 19.2076 6.84628 19.3814 6.84628ZM10.1816 20.2809H28.5812C28.7237 20.2809 28.8603 20.2243 28.961 20.1235C29.0618 20.0228 29.1184 19.8862 29.1184 19.7437V15.6041C29.1184 15.4616 29.0618 15.325 28.961 15.2243C28.8603 15.1236 28.7237 15.067 28.5812 15.067H10.1816C10.0392 15.067 9.90257 15.1236 9.80185 15.2243C9.70112 15.325 9.64453 15.4616 9.64453 15.6041V19.7437C9.64453 19.8862 9.70112 20.0228 9.80185 20.1235C9.90257 20.2243 10.0392 20.2809 10.1816 20.2809ZM10.7187 16.1412H28.0441V19.2066H10.7187V16.1412ZM15.9123 22.8975H28.5812V23.9717H15.9123V22.8975ZM10.1816 26.9344H13.7457C13.8882 26.9344 14.0248 26.8778 14.1255 26.7771C14.2262 26.6763 14.2828 26.5397 14.2828 26.3973V22.9375L15.0709 22.1496L14.3111 21.39L13.4057 22.2955H10.1816C10.0392 22.2955 9.90257 22.3521 9.80185 22.4528C9.70112 22.5535 9.64453 22.6902 9.64453 22.8326V26.3971C9.64453 26.5395 9.70112 26.6761 9.80185 26.7769C9.90257 26.8776 10.0392 26.9342 10.1816 26.9342V26.9344ZM10.7187 23.3699H12.3314L11.3736 24.3279L12.133 25.0877L13.2086 24.0121V25.8601H10.7187V23.3699ZM10.1816 32.9816H13.7457C13.8882 32.9816 14.0248 32.925 14.1255 32.8243C14.2262 32.7236 14.2828 32.587 14.2828 32.4445V28.9851L15.0709 28.1971L14.3111 27.4375L13.4059 28.3432H10.1816C10.0392 28.3432 9.90257 28.3997 9.80185 28.5005C9.70112 28.6012 9.64453 28.7378 9.64453 28.8803V32.4445C9.64453 32.587 9.70112 32.7236 9.80185 32.8243C9.90257 32.925 10.0392 32.9816 10.1816 32.9816ZM10.7187 29.4172H12.3316L11.3736 30.3752L12.133 31.135L13.2086 30.0592V31.9072H10.7186L10.7187 29.4172ZM10.1816 39.0289H13.7457C13.8882 39.0289 14.0248 38.9723 14.1255 38.8716C14.2262 38.7709 14.2828 38.6342 14.2828 38.4918V35.0324L15.0709 34.2443L14.3111 33.4848L13.4057 34.3904H10.1816C10.0392 34.3904 9.90257 34.447 9.80185 34.5477C9.70112 34.6485 9.64453 34.7851 9.64453 34.9275V38.4918C9.64453 38.6342 9.70112 38.7709 9.80185 38.8716C9.90257 38.9723 10.0392 39.0289 10.1816 39.0289ZM10.7187 35.4644H12.3314L11.3736 36.4225L12.133 37.1822L13.2086 36.1066V37.9547H10.7187V35.4644ZM29.1076 35.2287H30.1818V36.5443H29.1076V35.2287Z" fill="#52006A"/>
<path d="M46.1416 37.7051H45.7445C45.7283 35.4557 44.9607 33.1314 43.6303 31.317C42.3289 29.542 40.6596 28.4824 39.1652 28.4824C38.7398 28.4824 38.3004 28.5684 37.8594 28.7322C37.7131 28.6938 37.5626 28.6735 37.4113 28.6717L37.0256 28.6674C36.9219 28.6667 36.8195 28.6442 36.7251 28.6012C36.6307 28.5583 36.5464 28.4959 36.4777 28.4182C36.4083 28.3411 36.356 28.2502 36.3242 28.1515C36.2923 28.0527 36.2817 27.9484 36.293 27.8453L36.3412 27.3824C36.3754 27.0692 36.327 26.7525 36.2007 26.4638C36.0744 26.1751 35.8747 25.9246 35.6215 25.7371C35.5185 25.6601 35.4077 25.5942 35.291 25.5402V11.5207C35.291 9.44746 33.6043 7.76093 31.5313 7.76093H28.8613C28.7115 7.02617 28.0605 6.47187 27.2824 6.47187H22.8514C22.6924 5.66856 22.2594 4.94539 21.6263 4.4259C20.9933 3.90641 20.1996 3.62284 19.3807 3.62363C18.5618 3.62288 17.7681 3.90644 17.1352 4.42589C16.5022 4.94534 16.0692 5.66844 15.9102 6.47167H11.4791C10.701 6.47167 10.05 7.02636 9.90039 7.76074H7.23047C5.15723 7.76074 3.4707 9.44746 3.4707 11.5205V43.0684C3.4707 45.1414 5.15723 46.8281 7.23047 46.8281H38.0928C42.8271 46.8281 46.6787 42.9766 46.6787 38.2422C46.6787 38.0997 46.6221 37.9631 46.5214 37.8624C46.4207 37.7617 46.2841 37.7051 46.1416 37.7051ZM39.1652 29.5566C41.5791 29.5566 44.6363 33.3844 44.6703 37.7051H43.4734C43.3543 35.4318 41.4676 33.6191 39.1652 33.6191C37.8947 33.6191 36.7512 34.1715 35.9607 35.0482C35.6432 34.4107 35.2313 33.8246 34.7389 33.31C35.8529 31.0898 37.6379 29.5566 39.1652 29.5566ZM42.3965 37.7051H36.6783C36.645 37.202 36.5574 36.704 36.4172 36.2197C36.9904 35.3041 38.0076 34.6935 39.1652 34.6935C40.8748 34.6935 42.2785 36.0248 42.3965 37.7049V37.7051ZM31.9297 36.2383L30.7904 36.8959L31.2574 37.7049H28.0309L28.4977 36.8959L27.3584 36.2383L26.8213 37.1684L27.7506 37.7049H25.9174C26.1508 35.8557 27.7324 34.4203 29.6441 34.4203C31.5559 34.4203 33.1375 35.8557 33.3709 37.7049H31.5377L32.467 37.1684L31.9297 36.2383ZM29.6441 33.3461C27.1395 33.3461 25.0742 35.2619 24.8355 37.7049H23.6871C23.9293 34.6295 26.5074 32.2004 29.6441 32.2004C32.7809 32.2004 35.359 34.6295 35.6012 37.7049H34.4525C34.2139 35.2619 32.1488 33.3461 29.6439 33.3461H29.6441ZM34.9781 26.5973C35.0826 26.6734 35.1649 26.7759 35.2167 26.8943C35.2685 27.0127 35.288 27.1427 35.273 27.2711L35.2246 27.734C35.1986 27.9856 35.2252 28.24 35.3029 28.4808C35.3805 28.7216 35.5074 28.9436 35.6756 29.1326C35.859 29.3371 36.0864 29.4975 36.3406 29.6016C35.7598 30.0537 35.2025 30.6318 34.7 31.317C34.4089 31.716 34.1463 32.135 33.9141 32.5709C33.459 32.2233 32.9633 31.9325 32.4379 31.7047L33.01 29.2963L31.9648 29.0482L31.4176 31.3523C30.9672 31.2351 30.4996 31.1617 30.0193 31.1363L29.0439 29.4469L28.1137 29.984L28.8031 31.1781C26.6074 31.4404 24.718 32.7137 23.6176 34.5199C23.5916 34.5066 23.5666 34.492 23.5398 34.4801L23.1148 34.2904C22.9962 34.2392 22.8933 34.1574 22.8167 34.0534C22.7401 33.9494 22.6924 33.8269 22.6787 33.6984C22.6618 33.5703 22.6793 33.4401 22.7293 33.3209C22.7794 33.2018 22.8602 33.0981 22.9635 33.0205L23.3553 32.7182C23.5524 32.5657 23.7162 32.3745 23.8366 32.1562C23.957 31.938 24.0314 31.6975 24.0553 31.4494C24.0784 31.2013 24.0505 30.951 23.9733 30.714C23.896 30.4771 23.771 30.2585 23.6061 30.0717L23.407 29.8467C23.3174 29.7471 23.2568 29.6249 23.2315 29.4934C23.2063 29.3618 23.2175 29.2259 23.2639 29.1002C23.3083 28.9738 23.3865 28.8619 23.4899 28.7767C23.5933 28.6915 23.718 28.6362 23.8506 28.6168L24.2869 28.5492C25.2469 28.4004 25.7385 27.3008 25.6592 26.3236C25.6581 26.31 25.6565 26.2963 25.6543 26.2828C25.6535 26.2779 25.584 25.7957 26.1328 25.4787C26.6547 25.1775 27.0344 25.4414 27.0684 25.4664C27.0838 25.4801 27.0844 25.4795 27.1012 25.491C27.9078 26.0482 29.1061 26.1723 29.7146 25.4154L29.9916 25.0713C30.0747 24.9662 30.185 24.8859 30.3105 24.839C30.4359 24.792 30.5718 24.7802 30.7035 24.8049C30.8356 24.8275 30.9589 24.8858 31.0603 24.9734C31.1616 25.0611 31.2371 25.1747 31.2785 25.3021L31.3736 25.5871C31.4529 25.8234 31.5797 26.041 31.7463 26.2264C31.9129 26.4119 32.1157 26.5612 32.3422 26.6652C32.569 26.7685 32.8145 26.8243 33.0637 26.8291C33.3129 26.8339 33.5604 26.7877 33.791 26.6932L34.2486 26.5049C34.3675 26.4543 34.4977 26.4362 34.6259 26.4525C34.754 26.4687 34.8756 26.5187 34.9781 26.5973ZM28.8937 9.63828V8.83496H31.5313C33.0121 8.83496 34.2168 10.0396 34.2168 11.5205V25.4019C34.0897 25.4248 33.9633 25.4607 33.84 25.5113L33.3824 25.6996C33.2881 25.7389 33.1867 25.7582 33.0846 25.7563C32.9824 25.7543 32.8818 25.7312 32.7891 25.6883C32.696 25.6462 32.6127 25.5852 32.5445 25.5092C32.4762 25.4332 32.4245 25.3439 32.3926 25.2469L32.3117 25.0049V12.8674C32.3117 11.9789 31.5891 11.2561 30.7004 11.2561H28.5271C28.769 10.7511 28.8943 10.1982 28.8937 9.63828ZM10.942 8.083C10.9421 7.9406 10.9988 7.80407 11.0995 7.70338C11.2002 7.60269 11.3367 7.54605 11.4791 7.54589H16.3842C16.522 7.54591 16.6546 7.49295 16.7544 7.39795C16.8543 7.30296 16.9138 7.1732 16.9207 7.03554C16.9861 5.7248 18.0668 4.69785 19.3809 4.69785C20.6949 4.69785 21.7754 5.7248 21.841 7.03574C21.8479 7.17333 21.9074 7.30301 22.0073 7.39795C22.1071 7.4929 22.2396 7.54587 22.3773 7.54589H27.2824C27.4248 7.54605 27.5614 7.60269 27.662 7.70338C27.7627 7.80407 27.8194 7.9406 27.8195 8.083V9.63808C27.8195 11.1189 26.6148 12.3236 25.134 12.3236H13.6275C12.1467 12.3236 10.942 11.1189 10.942 9.63808V8.083ZM11.0068 12.3303C11.6846 12.9904 12.6092 13.3978 13.6275 13.3978H25.134C26.1523 13.3978 27.077 12.9902 27.7547 12.3303H30.7004C30.8428 12.3304 30.9793 12.3871 31.08 12.4878C31.1807 12.5884 31.2373 12.725 31.2375 12.8674V23.8439C31.126 23.801 31.0107 23.7687 30.8932 23.7477C30.2285 23.6285 29.5781 23.8715 29.1547 24.398L28.8777 24.742C28.6877 24.9779 28.0967 24.8662 27.7246 24.616C27.3592 24.3324 26.5215 24.0139 25.5957 24.5484C25.2477 24.7494 25.0104 24.9998 24.8529 25.2584H15.9115V26.3326H24.5803C24.5824 26.3654 24.5855 26.3967 24.5896 26.4262C24.6203 26.8734 24.4217 27.4412 24.1223 27.4875L23.6859 27.5553C23.018 27.6588 22.4826 28.1002 22.2533 28.7359C22.2289 28.8043 22.2084 28.874 22.192 28.9447H15.9117V30.0189H22.2691C22.3483 30.2169 22.4612 30.3996 22.6029 30.559L22.8021 30.7838C22.9309 30.9293 22.9955 31.1133 22.9877 31.3057H15.9115V32.3799H22.0787C21.9003 32.5723 21.7661 32.8014 21.6855 33.0511C21.6049 33.3008 21.5799 33.5652 21.6121 33.8256C21.6643 34.2792 21.8867 34.696 22.2344 34.992H15.9117V36.0662H22.9156C22.7843 36.4856 22.6927 36.9164 22.6422 37.3529H15.9117V38.4271H20.6713C20.7035 40.0182 21.1802 41.5686 22.0475 42.9029H8.06113C7.91873 42.9028 7.7822 42.8461 7.68151 42.7454C7.58082 42.6447 7.52418 42.5082 7.52402 42.3658V12.8672C7.52418 12.7248 7.58082 12.5883 7.68151 12.4876C7.7822 12.3869 7.91873 12.3302 8.06113 12.3301L11.0068 12.3303ZM7.23027 45.7539C5.74941 45.7539 4.54473 44.5492 4.54473 43.0684V11.5205C4.54473 10.0396 5.74941 8.83496 7.23027 8.83496H9.86777V9.63808C9.86777 10.2172 9.99961 10.7658 10.2344 11.2561H8.06113C7.17246 11.2561 6.4498 11.9789 6.4498 12.8674V42.3658C6.4498 43.2543 7.17246 43.9771 8.06113 43.9771H22.8693C23.5093 44.6888 24.2631 45.2891 25.0998 45.7537L7.23027 45.7539ZM38.0928 45.7539H29.2523C25.291 45.7539 22.0359 42.6719 21.7598 38.7793H45.5854C45.3094 42.6719 42.0541 45.7539 38.0928 45.7539Z" fill="#52006A"/>
</svg>
