<svg width="58" height="48" viewBox="0 0 58 48" fill="none" xmlns="http://www.w3.org/2000/svg">
<mask id="path-1-outside-1_2689_26800" maskUnits="userSpaceOnUse" x="21.4639" y="7.09738" width="13" height="13" fill="black">
<rect fill="white" x="21.4639" y="7.09738" width="13" height="13"/>
<path d="M33.9075 17.3347L30.4166 13.8439L33.9075 10.353C33.9232 10.3374 33.9356 10.3188 33.944 10.2984C33.9525 10.278 33.9568 10.2561 33.9568 10.234C33.9568 10.2118 33.9525 10.19 33.944 10.1695C33.9356 10.1491 33.9232 10.1305 33.9075 10.1149L31.9393 8.14672C31.9237 8.13108 31.9051 8.11867 31.8847 8.11021C31.8643 8.10174 31.8424 8.09738 31.8203 8.09738C31.7982 8.09738 31.7763 8.10173 31.7559 8.11019C31.7354 8.11866 31.7169 8.13106 31.7012 8.14669L28.2103 11.6376L24.7195 8.14672C24.6879 8.11515 24.6451 8.09742 24.6005 8.09742C24.5558 8.09742 24.513 8.11515 24.4814 8.14672L22.5132 10.1149C22.4816 10.1465 22.4639 10.1893 22.4639 10.234C22.4639 10.2786 22.4816 10.3214 22.5132 10.353L26.0041 13.8439L24.5562 15.2917C24.5246 15.3233 24.5069 15.3661 24.5069 15.4107C24.5069 15.4554 24.5246 15.4982 24.5562 15.5298C24.5878 15.5614 24.6306 15.5791 24.6753 15.5791C24.7199 15.5791 24.7627 15.5614 24.7943 15.5298L26.3612 13.9629C26.3928 13.9313 26.4105 13.8885 26.4105 13.8439C26.4105 13.7992 26.3928 13.7564 26.3612 13.7248L22.8703 10.234L24.6004 8.50385L28.0913 11.9947C28.1229 12.0263 28.1657 12.044 28.2104 12.044C28.255 12.044 28.2978 12.0263 28.3294 11.9947L31.8203 8.50385L33.5504 10.234L30.0595 13.7248C30.0439 13.7405 30.0315 13.759 30.023 13.7795C30.0145 13.7999 30.0102 13.8218 30.0102 13.8439C30.0102 13.866 30.0145 13.8879 30.023 13.9083C30.0315 13.9287 30.0439 13.9473 30.0595 13.9629L33.5504 17.4538L31.8203 19.1839L28.3294 15.693C28.2978 15.6615 28.255 15.6437 28.2104 15.6437C28.1657 15.6437 28.1229 15.6615 28.0913 15.693L24.6004 19.1839L22.8703 17.4538L24.3182 16.006C24.3338 15.9904 24.3462 15.9718 24.3547 15.9514C24.3631 15.9309 24.3675 15.909 24.3675 15.8869C24.3675 15.8648 24.3631 15.8429 24.3547 15.8225C24.3462 15.8021 24.3338 15.7835 24.3182 15.7679C24.3025 15.7523 24.284 15.7399 24.2635 15.7314C24.2431 15.7229 24.2212 15.7186 24.1991 15.7186C24.177 15.7186 24.1551 15.7229 24.1347 15.7314C24.1143 15.7399 24.0957 15.7523 24.0801 15.7679L22.5132 17.3347C22.4976 17.3504 22.4852 17.3689 22.4767 17.3894C22.4682 17.4098 22.4639 17.4317 22.4639 17.4538C22.4639 17.4759 22.4682 17.4978 22.4767 17.5182C22.4852 17.5386 22.4976 17.5572 22.5132 17.5728L24.4814 19.5411C24.5143 19.5739 24.5574 19.5903 24.6005 19.5903C24.6435 19.5903 24.6866 19.5739 24.7195 19.5411L28.2103 16.0502L31.7012 19.5411C31.7328 19.5726 31.7756 19.5904 31.8203 19.5904C31.865 19.5904 31.9078 19.5726 31.9394 19.5411L33.9075 17.5728C33.9232 17.5572 33.9356 17.5386 33.944 17.5182C33.9525 17.4978 33.9569 17.4759 33.9569 17.4538C33.9569 17.4317 33.9525 17.4098 33.944 17.3894C33.9356 17.3689 33.9232 17.3504 33.9075 17.3347Z"/>
</mask>
<path d="M33.9075 17.3347L30.4166 13.8439L33.9075 10.353C33.9232 10.3374 33.9356 10.3188 33.944 10.2984C33.9525 10.278 33.9568 10.2561 33.9568 10.234C33.9568 10.2118 33.9525 10.19 33.944 10.1695C33.9356 10.1491 33.9232 10.1305 33.9075 10.1149L31.9393 8.14672C31.9237 8.13108 31.9051 8.11867 31.8847 8.11021C31.8643 8.10174 31.8424 8.09738 31.8203 8.09738C31.7982 8.09738 31.7763 8.10173 31.7559 8.11019C31.7354 8.11866 31.7169 8.13106 31.7012 8.14669L28.2103 11.6376L24.7195 8.14672C24.6879 8.11515 24.6451 8.09742 24.6005 8.09742C24.5558 8.09742 24.513 8.11515 24.4814 8.14672L22.5132 10.1149C22.4816 10.1465 22.4639 10.1893 22.4639 10.234C22.4639 10.2786 22.4816 10.3214 22.5132 10.353L26.0041 13.8439L24.5562 15.2917C24.5246 15.3233 24.5069 15.3661 24.5069 15.4107C24.5069 15.4554 24.5246 15.4982 24.5562 15.5298C24.5878 15.5614 24.6306 15.5791 24.6753 15.5791C24.7199 15.5791 24.7627 15.5614 24.7943 15.5298L26.3612 13.9629C26.3928 13.9313 26.4105 13.8885 26.4105 13.8439C26.4105 13.7992 26.3928 13.7564 26.3612 13.7248L22.8703 10.234L24.6004 8.50385L28.0913 11.9947C28.1229 12.0263 28.1657 12.044 28.2104 12.044C28.255 12.044 28.2978 12.0263 28.3294 11.9947L31.8203 8.50385L33.5504 10.234L30.0595 13.7248C30.0439 13.7405 30.0315 13.759 30.023 13.7795C30.0145 13.7999 30.0102 13.8218 30.0102 13.8439C30.0102 13.866 30.0145 13.8879 30.023 13.9083C30.0315 13.9287 30.0439 13.9473 30.0595 13.9629L33.5504 17.4538L31.8203 19.1839L28.3294 15.693C28.2978 15.6615 28.255 15.6437 28.2104 15.6437C28.1657 15.6437 28.1229 15.6615 28.0913 15.693L24.6004 19.1839L22.8703 17.4538L24.3182 16.006C24.3338 15.9904 24.3462 15.9718 24.3547 15.9514C24.3631 15.9309 24.3675 15.909 24.3675 15.8869C24.3675 15.8648 24.3631 15.8429 24.3547 15.8225C24.3462 15.8021 24.3338 15.7835 24.3182 15.7679C24.3025 15.7523 24.284 15.7399 24.2635 15.7314C24.2431 15.7229 24.2212 15.7186 24.1991 15.7186C24.177 15.7186 24.1551 15.7229 24.1347 15.7314C24.1143 15.7399 24.0957 15.7523 24.0801 15.7679L22.5132 17.3347C22.4976 17.3504 22.4852 17.3689 22.4767 17.3894C22.4682 17.4098 22.4639 17.4317 22.4639 17.4538C22.4639 17.4759 22.4682 17.4978 22.4767 17.5182C22.4852 17.5386 22.4976 17.5572 22.5132 17.5728L24.4814 19.5411C24.5143 19.5739 24.5574 19.5903 24.6005 19.5903C24.6435 19.5903 24.6866 19.5739 24.7195 19.5411L28.2103 16.0502L31.7012 19.5411C31.7328 19.5726 31.7756 19.5904 31.8203 19.5904C31.865 19.5904 31.9078 19.5726 31.9394 19.5411L33.9075 17.5728C33.9232 17.5572 33.9356 17.5386 33.944 17.5182C33.9525 17.4978 33.9569 17.4759 33.9569 17.4538C33.9569 17.4317 33.9525 17.4098 33.944 17.3894C33.9356 17.3689 33.9232 17.3504 33.9075 17.3347Z" fill="#52006A"/>
<path d="M33.9075 17.3347L33.554 17.6883L33.554 17.6883L33.9075 17.3347ZM30.4166 13.8439L30.0631 13.4903L29.7095 13.8439L30.0631 14.1974L30.4166 13.8439ZM33.9075 10.353L33.554 9.99944L33.554 9.99945L33.9075 10.353ZM33.9075 10.1149L33.554 10.4685L33.554 10.4685L33.9075 10.1149ZM31.9393 8.14672L31.5857 8.50018L31.5858 8.50027L31.9393 8.14672ZM31.7012 8.14669L32.0548 8.50025L32.0548 8.50022L31.7012 8.14669ZM28.2103 11.6376L27.8568 11.9911L28.2103 12.3447L28.5639 11.9911L28.2103 11.6376ZM24.7195 8.14672L25.0731 7.79316L25.073 7.79308L24.7195 8.14672ZM24.6005 8.09742V7.59742V8.09742ZM24.4814 8.14672L24.1279 7.79308L24.1279 7.79316L24.4814 8.14672ZM22.5132 10.1149L22.8667 10.4685L22.8667 10.4685L22.5132 10.1149ZM22.5132 10.353L22.1596 10.7065L22.1596 10.7066L22.5132 10.353ZM26.0041 13.8439L26.3576 14.1974L26.7112 13.8439L26.3576 13.4903L26.0041 13.8439ZM24.5562 15.2917L24.2027 14.9381L24.2027 14.9381L24.5562 15.2917ZM24.5069 15.4107H25.0069H24.5069ZM24.6753 15.5791V15.0791V15.5791ZM24.7943 15.5298L24.4408 15.1762L24.4408 15.1762L24.7943 15.5298ZM26.3612 13.9629L26.7148 14.3165L26.7148 14.3164L26.3612 13.9629ZM26.3612 13.7248L26.7148 13.3713L26.7148 13.3712L26.3612 13.7248ZM22.8703 10.234L22.5168 9.88041L22.1632 10.234L22.5168 10.5875L22.8703 10.234ZM24.6004 8.50385L24.954 8.1503L24.6004 7.79674L24.2469 8.1503L24.6004 8.50385ZM28.0913 11.9947L27.7378 12.3483L27.7378 12.3484L28.0913 11.9947ZM28.2104 12.044V12.544V12.044ZM28.3294 11.9947L28.6829 12.3484L28.683 12.3483L28.3294 11.9947ZM31.8203 8.50385L32.1739 8.1503L31.8203 7.79674L31.4667 8.1503L31.8203 8.50385ZM33.5504 10.234L33.9039 10.5875L34.2575 10.234L33.9039 9.88041L33.5504 10.234ZM30.0595 13.7248L30.413 14.0784L30.413 14.0784L30.0595 13.7248ZM30.0595 13.9629L30.413 13.6094L30.413 13.6094L30.0595 13.9629ZM33.5504 17.4538L33.9039 17.8074L34.2575 17.4538L33.9039 17.1003L33.5504 17.4538ZM31.8203 19.1839L31.4667 19.5375L31.8203 19.891L32.1739 19.5375L31.8203 19.1839ZM28.3294 15.693L28.683 15.3395L28.6829 15.3394L28.3294 15.693ZM28.0913 15.693L27.7378 15.3394L27.7378 15.3395L28.0913 15.693ZM24.6004 19.1839L24.2469 19.5375L24.6004 19.891L24.954 19.5375L24.6004 19.1839ZM22.8703 17.4538L22.5168 17.1002L22.1632 17.4538L22.5168 17.8074L22.8703 17.4538ZM24.3182 16.006L24.6717 16.3595L24.6717 16.3595L24.3182 16.006ZM24.0801 15.7679L24.4336 16.1214L24.4336 16.1214L24.0801 15.7679ZM22.5132 17.3347L22.8667 17.6883L22.8667 17.6883L22.5132 17.3347ZM22.4639 17.4538H21.9639H22.4639ZM22.5132 17.5728L22.8667 17.2193L22.8667 17.2193L22.5132 17.5728ZM24.4814 19.5411L24.1279 19.8946L24.128 19.8947L24.4814 19.5411ZM24.7195 19.5411L25.073 19.8947L25.0731 19.8946L24.7195 19.5411ZM28.2103 16.0502L28.5639 15.6966L28.2103 15.3431L27.8568 15.6966L28.2103 16.0502ZM31.7012 19.5411L31.3477 19.8946L31.3477 19.8947L31.7012 19.5411ZM31.9394 19.5411L32.2929 19.8947L32.2929 19.8946L31.9394 19.5411ZM33.9075 17.5728L33.554 17.2193L33.554 17.2193L33.9075 17.5728ZM34.2611 16.9812L30.7702 13.4903L30.0631 14.1974L33.554 17.6883L34.2611 16.9812ZM30.7702 14.1974L34.2611 10.7066L33.554 9.99945L30.0631 13.4903L30.7702 14.1974ZM34.2611 10.7066C34.3231 10.6445 34.3724 10.5708 34.406 10.4897L33.4821 10.107C33.4988 10.0668 33.5232 10.0302 33.554 9.99944L34.2611 10.7066ZM34.406 10.4897C34.4395 10.4087 34.4568 10.3217 34.4568 10.234H33.4568C33.4568 10.1904 33.4654 10.1473 33.4821 10.107L34.406 10.4897ZM34.4568 10.234C34.4568 10.1462 34.4395 10.0593 34.406 9.97818L33.4821 10.3609C33.4654 10.3206 33.4568 10.2775 33.4568 10.234H34.4568ZM34.406 9.97818C34.3724 9.89708 34.3231 9.8234 34.2611 9.76134L33.554 10.4685C33.5232 10.4377 33.4988 10.4011 33.4821 10.3609L34.406 9.97818ZM34.2611 9.76135L32.2929 7.79316L31.5858 8.50027L33.554 10.4685L34.2611 9.76135ZM32.293 7.79326C32.2309 7.73117 32.1572 7.68191 32.0761 7.6483L31.6933 8.57211C31.653 8.55543 31.6165 8.53099 31.5857 8.50018L32.293 7.79326ZM32.0761 7.6483C31.995 7.61469 31.9081 7.59739 31.8203 7.59738L31.8202 8.59738C31.7767 8.59738 31.7335 8.58879 31.6933 8.57211L32.0761 7.6483ZM31.8203 7.59738C31.7326 7.59737 31.6456 7.61466 31.5645 7.64825L31.9472 8.57214C31.9069 8.58881 31.8638 8.59739 31.8202 8.59738L31.8203 7.59738ZM31.5645 7.64825C31.4834 7.68185 31.4097 7.73109 31.3477 7.79317L32.0548 8.50022C32.024 8.53103 31.9874 8.55546 31.9472 8.57214L31.5645 7.64825ZM31.3477 7.79314L27.8568 11.284L28.5639 11.9911L32.0548 8.50025L31.3477 7.79314ZM28.5639 11.284L25.0731 7.79316L24.3659 8.50027L27.8568 11.9911L28.5639 11.284ZM25.073 7.79308C24.9476 7.6678 24.7777 7.59742 24.6005 7.59742V8.59742C24.5125 8.59742 24.4282 8.5625 24.366 8.50035L25.073 7.79308ZM24.6005 7.59742C24.4232 7.59742 24.2533 7.6678 24.1279 7.79308L24.8349 8.50035C24.7727 8.56251 24.6884 8.59742 24.6005 8.59742V7.59742ZM24.1279 7.79316L22.1596 9.76135L22.8667 10.4685L24.835 8.50027L24.1279 7.79316ZM22.1597 9.76132C22.0343 9.88665 21.9639 10.0567 21.9639 10.2339L22.9639 10.234C22.9639 10.322 22.9289 10.4063 22.8667 10.4685L22.1597 9.76132ZM21.9639 10.2339C21.9639 10.4112 22.0343 10.5812 22.1596 10.7065L22.8668 9.99951C22.9289 10.0617 22.9639 10.1461 22.9639 10.234L21.9639 10.2339ZM22.1596 10.7066L25.6505 14.1974L26.3576 13.4903L22.8667 9.99947L22.1596 10.7066ZM25.6505 13.4903L24.2027 14.9381L24.9098 15.6453L26.3576 14.1974L25.6505 13.4903ZM24.2027 14.9381C24.0773 15.0635 24.0069 15.2335 24.0069 15.4107H25.0069C25.0069 15.4987 24.972 15.5831 24.9098 15.6452L24.2027 14.9381ZM24.0069 15.4107C24.0069 15.588 24.0773 15.758 24.2027 15.8833L24.9098 15.1762C24.972 15.2384 25.0069 15.3228 25.0069 15.4107H24.0069ZM24.2027 15.8833C24.328 16.0087 24.498 16.0791 24.6753 16.0791V15.0791C24.7632 15.0791 24.8476 15.114 24.9098 15.1762L24.2027 15.8833ZM24.6753 16.0791C24.8525 16.0791 25.0225 16.0087 25.1479 15.8833L24.4408 15.1762C24.503 15.114 24.5873 15.0791 24.6753 15.0791V16.0791ZM25.1479 15.8833L26.7148 14.3165L26.0077 13.6094L24.4408 15.1762L25.1479 15.8833ZM26.7148 14.3164C26.8401 14.1911 26.9105 14.0211 26.9105 13.8439H25.9105C25.9105 13.7559 25.9454 13.6716 26.0076 13.6094L26.7148 14.3164ZM26.9105 13.8439C26.9105 13.6666 26.8401 13.4966 26.7148 13.3713L26.0076 14.0783C25.9454 14.0161 25.9105 13.9318 25.9105 13.8439H26.9105ZM26.7148 13.3712L23.2239 9.88041L22.5168 10.5875L26.0077 14.0783L26.7148 13.3712ZM23.2239 10.5875L24.954 8.8574L24.2469 8.1503L22.5168 9.88041L23.2239 10.5875ZM24.2469 8.8574L27.7378 12.3483L28.4449 11.6412L24.954 8.1503L24.2469 8.8574ZM27.7378 12.3484C27.8632 12.4737 28.0331 12.544 28.2104 12.544V11.544C28.2983 11.544 28.3826 11.579 28.4448 11.6411L27.7378 12.3484ZM28.2104 12.544C28.3876 12.544 28.5575 12.4737 28.6829 12.3484L27.9759 11.6411C28.0381 11.579 28.1224 11.544 28.2104 11.544V12.544ZM28.683 12.3483L32.1738 8.8574L31.4667 8.1503L27.9759 11.6412L28.683 12.3483ZM31.4667 8.8574L33.1968 10.5875L33.9039 9.88041L32.1739 8.1503L31.4667 8.8574ZM33.1968 9.88041L29.7059 13.3713L30.413 14.0784L33.9039 10.5875L33.1968 9.88041ZM29.706 13.3713C29.6439 13.4333 29.5947 13.507 29.5611 13.5881L30.4849 13.9708C30.4683 14.011 30.4438 14.0476 30.413 14.0784L29.706 13.3713ZM29.5611 13.5881C29.5275 13.6692 29.5102 13.7561 29.5102 13.8439H30.5102C30.5102 13.8874 30.5016 13.9306 30.4849 13.9708L29.5611 13.5881ZM29.5102 13.8439C29.5102 13.9317 29.5275 14.0186 29.5611 14.0997L30.4849 13.717C30.5016 13.7572 30.5102 13.8003 30.5102 13.8439H29.5102ZM29.5611 14.0997C29.5947 14.1808 29.6439 14.2544 29.706 14.3165L30.413 13.6094C30.4438 13.6402 30.4683 13.6767 30.4849 13.717L29.5611 14.0997ZM29.7059 14.3165L33.1968 17.8074L33.9039 17.1003L30.413 13.6094L29.7059 14.3165ZM33.1968 17.1003L31.4667 18.8304L32.1739 19.5375L33.9039 17.8074L33.1968 17.1003ZM32.1738 18.8304L28.683 15.3395L27.9759 16.0466L31.4667 19.5375L32.1738 18.8304ZM28.6829 15.3394C28.5575 15.2141 28.3876 15.1437 28.2104 15.1437V16.1437C28.1224 16.1437 28.0381 16.1088 27.9759 16.0467L28.6829 15.3394ZM28.2104 15.1437C28.0331 15.1437 27.8632 15.2141 27.7378 15.3394L28.4448 16.0467C28.3826 16.1088 28.2983 16.1437 28.2104 16.1437V15.1437ZM27.7378 15.3395L24.2469 18.8304L24.954 19.5375L28.4449 16.0466L27.7378 15.3395ZM24.954 18.8304L23.2239 17.1003L22.5168 17.8074L24.2469 19.5375L24.954 18.8304ZM23.2239 17.8074L24.6717 16.3595L23.9646 15.6524L22.5168 17.1002L23.2239 17.8074ZM24.6717 16.3595C24.7338 16.2975 24.783 16.2238 24.8166 16.1427L23.8927 15.76C23.9094 15.7198 23.9338 15.6832 23.9646 15.6524L24.6717 16.3595ZM24.8166 16.1427C24.8502 16.0616 24.8675 15.9747 24.8675 15.8869H23.8675C23.8675 15.8434 23.8761 15.8003 23.8927 15.76L24.8166 16.1427ZM24.8675 15.8869C24.8675 15.7992 24.8502 15.7123 24.8166 15.6312L23.8927 16.0138C23.8761 15.9736 23.8675 15.9305 23.8675 15.8869H24.8675ZM24.8166 15.6312C24.783 15.5501 24.7338 15.4764 24.6717 15.4143L23.9646 16.1214C23.9338 16.0906 23.9094 16.0541 23.8927 16.0138L24.8166 15.6312ZM24.6717 15.4143C24.6097 15.3523 24.536 15.303 24.4549 15.2695L24.0722 16.1933C24.032 16.1767 23.9954 16.1522 23.9646 16.1214L24.6717 15.4143ZM24.4549 15.2695C24.3738 15.2359 24.2869 15.2186 24.1991 15.2186V16.2186C24.1556 16.2186 24.1124 16.21 24.0722 16.1933L24.4549 15.2695ZM24.1991 15.2186C24.1114 15.2186 24.0244 15.2359 23.9434 15.2695L24.326 16.1933C24.2858 16.21 24.2427 16.2186 24.1991 16.2186V15.2186ZM23.9434 15.2695C23.8623 15.303 23.7886 15.3523 23.7265 15.4143L24.4336 16.1214C24.4028 16.1522 24.3663 16.1767 24.326 16.1933L23.9434 15.2695ZM23.7265 15.4143L22.1596 16.9812L22.8667 17.6883L24.4336 16.1214L23.7265 15.4143ZM22.1597 16.9812C22.0976 17.0432 22.0484 17.1169 22.0148 17.198L22.9386 17.5807C22.922 17.621 22.8975 17.6575 22.8667 17.6883L22.1597 16.9812ZM22.0148 17.198C21.9812 17.2791 21.9639 17.366 21.9639 17.4538H22.9639C22.9639 17.4973 22.9553 17.5405 22.9386 17.5807L22.0148 17.198ZM21.9639 17.4538C21.9639 17.5416 21.9812 17.6285 22.0148 17.7096L22.9386 17.3269C22.9553 17.3671 22.9639 17.4102 22.9639 17.4538H21.9639ZM22.0148 17.7096C22.0484 17.7907 22.0976 17.8643 22.1597 17.9264L22.8667 17.2193C22.8975 17.2501 22.922 17.2866 22.9386 17.3269L22.0148 17.7096ZM22.1596 17.9264L24.1279 19.8946L24.835 19.1875L22.8667 17.2193L22.1596 17.9264ZM24.128 19.8947C24.2584 20.0251 24.4303 20.0903 24.6005 20.0903V19.0903C24.6845 19.0903 24.7702 19.1228 24.8348 19.1874L24.128 19.8947ZM24.6005 20.0903C24.7707 20.0903 24.9425 20.0251 25.073 19.8947L24.3661 19.1874C24.4307 19.1228 24.5164 19.0903 24.6005 19.0903V20.0903ZM25.0731 19.8946L28.5639 16.4037L27.8568 15.6966L24.366 19.1875L25.0731 19.8946ZM27.8568 16.4037L31.3477 19.8946L32.0548 19.1875L28.5639 15.6966L27.8568 16.4037ZM31.3477 19.8947C31.4731 20.02 31.6431 20.0904 31.8203 20.0904V19.0904C31.9082 19.0904 31.9926 19.1253 32.0547 19.1875L31.3477 19.8947ZM31.8203 20.0904C31.9975 20.0904 32.1675 20.02 32.2929 19.8947L31.5858 19.1875C31.648 19.1253 31.7324 19.0904 31.8203 19.0904V20.0904ZM32.2929 19.8946L34.2611 17.9264L33.554 17.2193L31.5858 19.1875L32.2929 19.8946ZM34.2611 17.9264C34.3231 17.8643 34.3724 17.7907 34.406 17.7096L33.4821 17.3269C33.4988 17.2866 33.5232 17.2501 33.554 17.2193L34.2611 17.9264ZM34.406 17.7096C34.4396 17.6285 34.4569 17.5416 34.4569 17.4538H33.4569C33.4569 17.4102 33.4654 17.3671 33.4821 17.3269L34.406 17.7096ZM34.4569 17.4538C34.4569 17.366 34.4396 17.2791 34.406 17.198L33.4821 17.5807C33.4654 17.5405 33.4569 17.4973 33.4569 17.4538H34.4569ZM34.406 17.198C34.3724 17.1169 34.3232 17.0432 34.2611 16.9812L33.554 17.6883C33.5232 17.6575 33.4988 17.621 33.4821 17.5807L34.406 17.198Z" fill="#52006A" mask="url(#path-1-outside-1_2689_26800)"/>
<mask id="path-3-outside-2_2689_26800" maskUnits="userSpaceOnUse" x="10.5342" y="28.2805" width="13" height="13" fill="black">
<rect fill="white" x="10.5342" y="28.2805" width="13" height="13"/>
<path d="M22.9779 38.5179L19.4869 35.027L22.9778 31.5362C22.9935 31.5205 23.0059 31.502 23.0143 31.4815C23.0228 31.4611 23.0271 31.4392 23.0271 31.4171C23.0271 31.395 23.0228 31.3731 23.0143 31.3527C23.0059 31.3323 22.9935 31.3137 22.9778 31.2981L21.0096 29.3299C20.994 29.3142 20.9755 29.3018 20.955 29.2934C20.9346 29.2849 20.9127 29.2806 20.8906 29.2805C20.8685 29.2805 20.8466 29.2849 20.8262 29.2934C20.8057 29.3018 20.7872 29.3142 20.7715 29.3299L17.2807 32.8208L13.7898 29.3299C13.7582 29.2983 13.7154 29.2806 13.6708 29.2806C13.6261 29.2806 13.5833 29.2983 13.5517 29.3299L11.5835 31.2981C11.5519 31.3296 11.5342 31.3725 11.5342 31.4171C11.5342 31.4618 11.5519 31.5046 11.5835 31.5362L15.0744 35.027L13.6265 36.4749C13.595 36.5064 13.5772 36.5493 13.5772 36.5939C13.5772 36.6386 13.595 36.6814 13.6265 36.713C13.6581 36.7445 13.7009 36.7623 13.7456 36.7623C13.7902 36.7623 13.8331 36.7445 13.8646 36.713L15.4315 35.1461C15.4631 35.1145 15.4808 35.0717 15.4808 35.027C15.4808 34.9824 15.4631 34.9395 15.4315 34.908L11.9406 31.4171L13.6708 29.687L17.1616 33.1779C17.1932 33.2095 17.236 33.2272 17.2807 33.2272C17.3253 33.2272 17.3681 33.2095 17.3997 33.1779L20.8906 29.687L22.6207 31.4171L19.1298 34.908C19.1142 34.9236 19.1018 34.9422 19.0933 34.9626C19.0848 34.983 19.0805 35.0049 19.0805 35.0271C19.0805 35.0492 19.0848 35.0711 19.0933 35.0915C19.1018 35.1119 19.1142 35.1305 19.1298 35.1461L22.6207 38.637L20.8906 40.3671L17.3997 36.8762C17.3681 36.8446 17.3253 36.8269 17.2807 36.8269C17.236 36.8269 17.1932 36.8446 17.1616 36.8762L13.6708 40.3671L11.9406 38.637L13.3885 37.1892C13.4041 37.1735 13.4165 37.155 13.425 37.1345C13.4334 37.1141 13.4378 37.0922 13.4378 37.0701C13.4378 37.048 13.4334 37.0261 13.425 37.0057C13.4165 36.9852 13.4041 36.9667 13.3885 36.9511C13.3728 36.9354 13.3543 36.923 13.3339 36.9146C13.3134 36.9061 13.2915 36.9017 13.2694 36.9017C13.2473 36.9017 13.2254 36.9061 13.205 36.9146C13.1846 36.923 13.166 36.9354 13.1504 36.9511L11.5835 38.5179C11.5679 38.5335 11.5555 38.5521 11.547 38.5725C11.5385 38.593 11.5342 38.6148 11.5342 38.637C11.5342 38.6591 11.5385 38.681 11.547 38.7014C11.5555 38.7218 11.5679 38.7404 11.5835 38.756L13.5517 40.7242C13.5846 40.7571 13.6277 40.7735 13.6708 40.7735C13.7139 40.7735 13.757 40.7571 13.7898 40.7242L17.2807 37.2333L20.7715 40.7242C20.8031 40.7558 20.846 40.7735 20.8906 40.7735C20.9353 40.7735 20.9781 40.7558 21.0097 40.7242L22.9779 38.756C22.9935 38.7404 23.0059 38.7218 23.0144 38.7014C23.0228 38.681 23.0272 38.6591 23.0272 38.637C23.0272 38.6148 23.0228 38.593 23.0144 38.5725C23.0059 38.5521 22.9935 38.5335 22.9779 38.5179Z"/>
</mask>
<path d="M22.9779 38.5179L19.4869 35.027L22.9778 31.5362C22.9935 31.5205 23.0059 31.502 23.0143 31.4815C23.0228 31.4611 23.0271 31.4392 23.0271 31.4171C23.0271 31.395 23.0228 31.3731 23.0143 31.3527C23.0059 31.3323 22.9935 31.3137 22.9778 31.2981L21.0096 29.3299C20.994 29.3142 20.9755 29.3018 20.955 29.2934C20.9346 29.2849 20.9127 29.2806 20.8906 29.2805C20.8685 29.2805 20.8466 29.2849 20.8262 29.2934C20.8057 29.3018 20.7872 29.3142 20.7715 29.3299L17.2807 32.8208L13.7898 29.3299C13.7582 29.2983 13.7154 29.2806 13.6708 29.2806C13.6261 29.2806 13.5833 29.2983 13.5517 29.3299L11.5835 31.2981C11.5519 31.3296 11.5342 31.3725 11.5342 31.4171C11.5342 31.4618 11.5519 31.5046 11.5835 31.5362L15.0744 35.027L13.6265 36.4749C13.595 36.5064 13.5772 36.5493 13.5772 36.5939C13.5772 36.6386 13.595 36.6814 13.6265 36.713C13.6581 36.7445 13.7009 36.7623 13.7456 36.7623C13.7902 36.7623 13.8331 36.7445 13.8646 36.713L15.4315 35.1461C15.4631 35.1145 15.4808 35.0717 15.4808 35.027C15.4808 34.9824 15.4631 34.9395 15.4315 34.908L11.9406 31.4171L13.6708 29.687L17.1616 33.1779C17.1932 33.2095 17.236 33.2272 17.2807 33.2272C17.3253 33.2272 17.3681 33.2095 17.3997 33.1779L20.8906 29.687L22.6207 31.4171L19.1298 34.908C19.1142 34.9236 19.1018 34.9422 19.0933 34.9626C19.0848 34.983 19.0805 35.0049 19.0805 35.0271C19.0805 35.0492 19.0848 35.0711 19.0933 35.0915C19.1018 35.1119 19.1142 35.1305 19.1298 35.1461L22.6207 38.637L20.8906 40.3671L17.3997 36.8762C17.3681 36.8446 17.3253 36.8269 17.2807 36.8269C17.236 36.8269 17.1932 36.8446 17.1616 36.8762L13.6708 40.3671L11.9406 38.637L13.3885 37.1892C13.4041 37.1735 13.4165 37.155 13.425 37.1345C13.4334 37.1141 13.4378 37.0922 13.4378 37.0701C13.4378 37.048 13.4334 37.0261 13.425 37.0057C13.4165 36.9852 13.4041 36.9667 13.3885 36.9511C13.3728 36.9354 13.3543 36.923 13.3339 36.9146C13.3134 36.9061 13.2915 36.9017 13.2694 36.9017C13.2473 36.9017 13.2254 36.9061 13.205 36.9146C13.1846 36.923 13.166 36.9354 13.1504 36.9511L11.5835 38.5179C11.5679 38.5335 11.5555 38.5521 11.547 38.5725C11.5385 38.593 11.5342 38.6148 11.5342 38.637C11.5342 38.6591 11.5385 38.681 11.547 38.7014C11.5555 38.7218 11.5679 38.7404 11.5835 38.756L13.5517 40.7242C13.5846 40.7571 13.6277 40.7735 13.6708 40.7735C13.7139 40.7735 13.757 40.7571 13.7898 40.7242L17.2807 37.2333L20.7715 40.7242C20.8031 40.7558 20.846 40.7735 20.8906 40.7735C20.9353 40.7735 20.9781 40.7558 21.0097 40.7242L22.9779 38.756C22.9935 38.7404 23.0059 38.7218 23.0144 38.7014C23.0228 38.681 23.0272 38.6591 23.0272 38.637C23.0272 38.6148 23.0228 38.593 23.0144 38.5725C23.0059 38.5521 22.9935 38.5335 22.9779 38.5179Z" fill="#52006A"/>
<path d="M22.9779 38.5179L22.6243 38.8715L22.6243 38.8715L22.9779 38.5179ZM19.4869 35.027L19.1334 34.6735L18.7798 35.027L19.1334 35.3806L19.4869 35.027ZM22.9778 31.5362L22.6243 31.1826L22.6243 31.1826L22.9778 31.5362ZM22.9778 31.2981L22.6243 31.6516L22.6243 31.6516L22.9778 31.2981ZM21.0096 29.3299L20.656 29.6833L20.6561 29.6834L21.0096 29.3299ZM20.7715 29.3299L21.1251 29.6834L21.1251 29.6834L20.7715 29.3299ZM17.2807 32.8208L16.9271 33.1743L17.2807 33.5279L17.6342 33.1743L17.2807 32.8208ZM13.7898 29.3299L14.1434 28.9763L14.1433 28.9762L13.7898 29.3299ZM13.6708 29.2806V28.7806V29.2806ZM13.5517 29.3299L13.1982 28.9762L13.1982 28.9763L13.5517 29.3299ZM11.5835 31.2981L11.937 31.6517L11.9371 31.6516L11.5835 31.2981ZM11.5835 31.5362L11.2299 31.8897L11.2299 31.8897L11.5835 31.5362ZM15.0744 35.027L15.4279 35.3806L15.7815 35.027L15.4279 34.6735L15.0744 35.027ZM13.6265 36.4749L13.273 36.1213L13.273 36.1213L13.6265 36.4749ZM13.5772 36.5939H14.0772H13.5772ZM13.7456 36.7623V36.2623V36.7623ZM13.8646 36.713L13.5111 36.3594L13.5111 36.3594L13.8646 36.713ZM15.4315 35.1461L15.7851 35.4996L15.7851 35.4996L15.4315 35.1461ZM15.4315 34.908L15.7851 34.5545L15.7851 34.5544L15.4315 34.908ZM11.9406 31.4171L11.5871 31.0636L11.2335 31.4171L11.5871 31.7707L11.9406 31.4171ZM13.6708 29.687L14.0243 29.3335L13.6708 28.9799L13.3172 29.3335L13.6708 29.687ZM17.1616 33.1779L16.8081 33.5315L16.8081 33.5315L17.1616 33.1779ZM17.2807 33.2272V33.7272V33.2272ZM17.3997 33.1779L17.7532 33.5315L17.7533 33.5315L17.3997 33.1779ZM20.8906 29.687L21.2442 29.3335L20.8906 28.9799L20.5371 29.3335L20.8906 29.687ZM22.6207 31.4171L22.9743 31.7707L23.3278 31.4171L22.9743 31.0636L22.6207 31.4171ZM19.1298 34.908L19.4833 35.2616L19.4834 35.2616L19.1298 34.908ZM19.1298 35.1461L19.4834 34.7925L19.4833 34.7925L19.1298 35.1461ZM22.6207 38.637L22.9743 38.9905L23.3278 38.637L22.9743 38.2834L22.6207 38.637ZM20.8906 40.3671L20.5371 40.7206L20.8906 41.0742L21.2442 40.7206L20.8906 40.3671ZM17.3997 36.8762L17.7533 36.5226L17.7532 36.5226L17.3997 36.8762ZM17.1616 36.8762L16.8081 36.5226L16.8081 36.5226L17.1616 36.8762ZM13.6708 40.3671L13.3172 40.7206L13.6708 41.0742L14.0243 40.7206L13.6708 40.3671ZM11.9406 38.637L11.5871 38.2834L11.2335 38.637L11.5871 38.9905L11.9406 38.637ZM13.3885 37.1892L13.742 37.5427L13.742 37.5427L13.3885 37.1892ZM13.1504 36.9511L13.5039 37.3046L13.5039 37.3046L13.1504 36.9511ZM11.5835 38.5179L11.937 38.8715L11.9371 38.8715L11.5835 38.5179ZM11.5342 38.637H11.0342H11.5342ZM11.5835 38.756L11.9371 38.4025L11.937 38.4024L11.5835 38.756ZM13.5517 40.7242L13.1982 41.0778L13.1983 41.0779L13.5517 40.7242ZM13.7898 40.7242L14.1433 41.0779L14.1434 41.0778L13.7898 40.7242ZM17.2807 37.2333L17.6342 36.8798L17.2807 36.5262L16.9271 36.8798L17.2807 37.2333ZM20.7715 40.7242L20.418 41.0778L20.418 41.0778L20.7715 40.7242ZM21.0097 40.7242L21.3632 41.0778L21.3632 41.0778L21.0097 40.7242ZM22.9779 38.756L22.6243 38.4024L22.6243 38.4025L22.9779 38.756ZM23.3314 38.1644L19.8405 34.6735L19.1334 35.3806L22.6243 38.8715L23.3314 38.1644ZM19.8405 35.3806L23.3314 31.8897L22.6243 31.1826L19.1334 34.6735L19.8405 35.3806ZM23.3314 31.8897C23.3934 31.8277 23.4427 31.754 23.4763 31.6729L22.5524 31.2902C22.5691 31.25 22.5935 31.2134 22.6243 31.1826L23.3314 31.8897ZM23.4763 31.6729C23.5099 31.5918 23.5271 31.5049 23.5271 31.4171H22.5271C22.5271 31.3736 22.5357 31.3304 22.5524 31.2902L23.4763 31.6729ZM23.5271 31.4171C23.5271 31.3293 23.5099 31.2424 23.4763 31.1613L22.5524 31.544C22.5357 31.5038 22.5271 31.4607 22.5271 31.4171H23.5271ZM23.4763 31.1613C23.4427 31.0802 23.3934 31.0066 23.3314 30.9445L22.6243 31.6516C22.5935 31.6208 22.5691 31.5843 22.5524 31.544L23.4763 31.1613ZM23.3314 30.9445L21.3632 28.9763L20.6561 29.6834L22.6243 31.6516L23.3314 30.9445ZM21.3633 28.9764C21.3012 28.9143 21.2276 28.8651 21.1465 28.8315L20.7636 29.7553C20.7234 29.7386 20.6868 29.7142 20.656 29.6833L21.3633 28.9764ZM21.1465 28.8315C21.0654 28.7979 20.9784 28.7806 20.8906 28.7805L20.8906 29.7805C20.847 29.7805 20.8039 29.772 20.7636 29.7553L21.1465 28.8315ZM20.8906 28.7805C20.8029 28.7805 20.7159 28.7978 20.6348 28.8314L21.0175 29.7553C20.9773 29.772 20.9341 29.7806 20.8906 29.7805L20.8906 28.7805ZM20.6348 28.8314C20.5537 28.865 20.48 28.9143 20.418 28.9763L21.1251 29.6834C21.0943 29.7142 21.0578 29.7386 21.0175 29.7553L20.6348 28.8314ZM20.418 28.9763L16.9271 32.4672L17.6342 33.1743L21.1251 29.6834L20.418 28.9763ZM17.6342 32.4672L14.1434 28.9763L13.4363 29.6834L16.9271 33.1743L17.6342 32.4672ZM14.1433 28.9762C14.0179 28.851 13.848 28.7806 13.6708 28.7806V29.7806C13.5828 29.7806 13.4985 29.7457 13.4363 29.6835L14.1433 28.9762ZM13.6708 28.7806C13.4935 28.7806 13.3236 28.851 13.1982 28.9762L13.9052 29.6835C13.843 29.7457 13.7587 29.7806 13.6708 29.7806V28.7806ZM13.1982 28.9763L11.23 30.9445L11.9371 31.6516L13.9053 29.6834L13.1982 28.9763ZM11.23 30.9445C11.1046 31.0698 11.0342 31.2398 11.0342 31.4171L12.0342 31.4172C12.0342 31.5051 11.9992 31.5895 11.937 31.6517L11.23 30.9445ZM11.0342 31.4171C11.0342 31.5943 11.1046 31.7644 11.2299 31.8897L11.9371 31.1827C11.9993 31.2449 12.0342 31.3292 12.0342 31.4172L11.0342 31.4171ZM11.2299 31.8897L14.7208 35.3806L15.4279 34.6735L11.937 31.1826L11.2299 31.8897ZM14.7208 34.6735L13.273 36.1213L13.9801 36.8284L15.4279 35.3806L14.7208 34.6735ZM13.273 36.1213C13.1476 36.2466 13.0772 36.4166 13.0772 36.5939H14.0772C14.0772 36.6819 14.0423 36.7662 13.9801 36.8284L13.273 36.1213ZM13.0772 36.5939C13.0772 36.7712 13.1476 36.9412 13.273 37.0665L13.9801 36.3594C14.0423 36.4216 14.0772 36.506 14.0772 36.5939H13.0772ZM13.273 37.0665C13.3983 37.1919 13.5683 37.2623 13.7456 37.2623V36.2623C13.8335 36.2623 13.9179 36.2972 13.9801 36.3594L13.273 37.0665ZM13.7456 37.2623C13.9228 37.2623 14.0928 37.1919 14.2182 37.0665L13.5111 36.3594C13.5733 36.2972 13.6576 36.2623 13.7456 36.2623V37.2623ZM14.2182 37.0665L15.7851 35.4996L15.078 34.7925L13.5111 36.3594L14.2182 37.0665ZM15.7851 35.4996C15.9104 35.3742 15.9808 35.2043 15.9808 35.027H14.9808C14.9808 34.9391 15.0158 34.8548 15.0779 34.7926L15.7851 35.4996ZM15.9808 35.027C15.9808 34.8498 15.9104 34.6798 15.7851 34.5545L15.0779 35.2615C15.0158 35.1993 14.9808 35.1149 14.9808 35.027H15.9808ZM15.7851 34.5544L12.2942 31.0636L11.5871 31.7707L15.078 35.2615L15.7851 34.5544ZM12.2942 31.7707L14.0243 30.0406L13.3172 29.3335L11.5871 31.0636L12.2942 31.7707ZM13.3172 30.0406L16.8081 33.5315L17.5152 32.8244L14.0243 29.3335L13.3172 30.0406ZM16.8081 33.5315C16.9335 33.6568 17.1035 33.7272 17.2807 33.7272V32.7272C17.3686 32.7272 17.4529 32.7621 17.5151 32.8243L16.8081 33.5315ZM17.2807 33.7272C17.4579 33.7272 17.6279 33.6568 17.7532 33.5315L17.0462 32.8243C17.1084 32.7621 17.1927 32.7272 17.2807 32.7272V33.7272ZM17.7533 33.5315L21.2442 30.0406L20.5371 29.3335L17.0462 32.8244L17.7533 33.5315ZM20.5371 30.0406L22.2671 31.7707L22.9743 31.0636L21.2442 29.3335L20.5371 30.0406ZM22.2671 31.0636L18.7763 34.5544L19.4834 35.2616L22.9743 31.7707L22.2671 31.0636ZM18.7763 34.5544C18.7142 34.6165 18.665 34.6902 18.6314 34.7713L19.5552 35.154C19.5386 35.1942 19.5141 35.2308 19.4833 35.2616L18.7763 34.5544ZM18.6314 34.7713C18.5978 34.8524 18.5805 34.9393 18.5805 35.0271H19.5805C19.5805 35.0706 19.5719 35.1137 19.5552 35.154L18.6314 34.7713ZM18.5805 35.0271C18.5805 35.1148 18.5978 35.2017 18.6314 35.2828L19.5552 34.9001C19.5719 34.9404 19.5805 34.9835 19.5805 35.0271H18.5805ZM18.6314 35.2828C18.665 35.3639 18.7142 35.4376 18.7763 35.4997L19.4833 34.7925C19.5141 34.8233 19.5386 34.8599 19.5552 34.9001L18.6314 35.2828ZM18.7763 35.4997L22.2671 38.9905L22.9743 38.2834L19.4834 34.7925L18.7763 35.4997ZM22.2671 38.2834L20.5371 40.0135L21.2442 40.7206L22.9743 38.9905L22.2671 38.2834ZM21.2442 40.0135L17.7533 36.5226L17.0462 37.2297L20.5371 40.7206L21.2442 40.0135ZM17.7532 36.5226C17.6279 36.3973 17.4579 36.3269 17.2807 36.3269V37.3269C17.1927 37.3269 17.1084 37.292 17.0462 37.2298L17.7532 36.5226ZM17.2807 36.3269C17.1035 36.3269 16.9335 36.3973 16.8081 36.5226L17.5151 37.2298C17.4529 37.292 17.3686 37.3269 17.2807 37.3269V36.3269ZM16.8081 36.5226L13.3172 40.0135L14.0243 40.7206L17.5152 37.2297L16.8081 36.5226ZM14.0243 40.0135L12.2942 38.2834L11.5871 38.9905L13.3172 40.7206L14.0243 40.0135ZM12.2942 38.9905L13.742 37.5427L13.0349 36.8356L11.5871 38.2834L12.2942 38.9905ZM13.742 37.5427C13.8041 37.4806 13.8533 37.407 13.8869 37.3259L12.963 36.9432C12.9797 36.903 13.0041 36.8664 13.0349 36.8356L13.742 37.5427ZM13.8869 37.3259C13.9205 37.2448 13.9378 37.1579 13.9378 37.0701H12.9378C12.9378 37.0266 12.9464 36.9834 12.963 36.9432L13.8869 37.3259ZM13.9378 37.0701C13.9378 36.9823 13.9205 36.8954 13.8869 36.8143L12.963 37.197C12.9464 37.1568 12.9378 37.1137 12.9378 37.0701H13.9378ZM13.8869 36.8143C13.8533 36.7332 13.8041 36.6596 13.742 36.5975L13.0349 37.3046C13.0041 37.2738 12.9797 37.2372 12.963 37.197L13.8869 36.8143ZM13.742 36.5975C13.68 36.5354 13.6063 36.4862 13.5252 36.4526L13.1425 37.3765C13.1023 37.3598 13.0657 37.3354 13.0349 37.3046L13.742 36.5975ZM13.5252 36.4526C13.4441 36.419 13.3572 36.4017 13.2694 36.4017V37.4017C13.2259 37.4017 13.1828 37.3932 13.1425 37.3765L13.5252 36.4526ZM13.2694 36.4017C13.1817 36.4017 13.0948 36.419 13.0137 36.4526L13.3963 37.3765C13.3561 37.3932 13.313 37.4017 13.2694 37.4017V36.4017ZM13.0137 36.4526C12.9326 36.4862 12.8589 36.5354 12.7968 36.5975L13.5039 37.3046C13.4731 37.3354 13.4366 37.3598 13.3963 37.3765L13.0137 36.4526ZM12.7968 36.5975L11.23 38.1644L11.9371 38.8715L13.5039 37.3046L12.7968 36.5975ZM11.23 38.1643C11.1679 38.2264 11.1187 38.3001 11.0851 38.3812L12.0089 38.7639C11.9923 38.8041 11.9678 38.8407 11.937 38.8715L11.23 38.1643ZM11.0851 38.3812C11.0515 38.4623 11.0342 38.5492 11.0342 38.637H12.0342C12.0342 38.6805 12.0256 38.7236 12.0089 38.7639L11.0851 38.3812ZM11.0342 38.637C11.0342 38.7247 11.0515 38.8116 11.0851 38.8927L12.0089 38.51C12.0256 38.5503 12.0342 38.5934 12.0342 38.637H11.0342ZM11.0851 38.8927C11.1187 38.9738 11.1679 39.0475 11.23 39.1096L11.937 38.4024C11.9678 38.4332 11.9923 38.4698 12.0089 38.51L11.0851 38.8927ZM11.23 39.1096L13.1982 41.0778L13.9053 40.3707L11.9371 38.4025L11.23 39.1096ZM13.1983 41.0779C13.3287 41.2082 13.5006 41.2735 13.6708 41.2735V40.2735C13.7548 40.2735 13.8405 40.3059 13.9051 40.3705L13.1983 41.0779ZM13.6708 41.2735C13.841 41.2735 14.0129 41.2082 14.1433 41.0779L13.4364 40.3705C13.501 40.3059 13.5867 40.2735 13.6708 40.2735V41.2735ZM14.1434 41.0778L17.6342 37.5869L16.9271 36.8798L13.4363 40.3707L14.1434 41.0778ZM16.9271 37.5869L20.418 41.0778L21.1251 40.3707L17.6342 36.8798L16.9271 37.5869ZM20.418 41.0778C20.5434 41.2031 20.7134 41.2735 20.8906 41.2735V40.2735C20.9785 40.2735 21.0629 40.3085 21.1251 40.3706L20.418 41.0778ZM20.8906 41.2735C21.0679 41.2735 21.2378 41.2031 21.3632 41.0778L20.6562 40.3706C20.7183 40.3085 20.8027 40.2735 20.8906 40.2735V41.2735ZM21.3632 41.0778L23.3314 39.1096L22.6243 38.4025L20.6561 40.3707L21.3632 41.0778ZM23.3314 39.1096C23.3935 39.0475 23.4427 38.9738 23.4763 38.8927L22.5524 38.51C22.5691 38.4698 22.5935 38.4332 22.6243 38.4024L23.3314 39.1096ZM23.4763 38.8927C23.5099 38.8116 23.5272 38.7247 23.5272 38.637H22.5272C22.5272 38.5934 22.5357 38.5503 22.5524 38.51L23.4763 38.8927ZM23.5272 38.637C23.5272 38.5492 23.5099 38.4623 23.4763 38.3812L22.5524 38.7639C22.5357 38.7236 22.5272 38.6805 22.5272 38.637H23.5272ZM23.4763 38.3812C23.4427 38.3001 23.3935 38.2264 23.3314 38.1643L22.6243 38.8715C22.5935 38.8407 22.5691 38.8041 22.5524 38.7639L23.4763 38.3812Z" fill="#52006A" mask="url(#path-3-outside-2_2689_26800)"/>
<mask id="path-5-outside-3_2689_26800" maskUnits="userSpaceOnUse" x="33.7456" y="28.2805" width="13" height="13" fill="black">
<rect fill="white" x="33.7456" y="28.2805" width="13" height="13"/>
<path d="M46.1893 38.5179L42.6984 35.027L46.1893 31.5362C46.2049 31.5205 46.2173 31.502 46.2258 31.4815C46.2342 31.4611 46.2386 31.4392 46.2386 31.4171C46.2386 31.395 46.2342 31.3731 46.2258 31.3527C46.2173 31.3323 46.2049 31.3137 46.1893 31.2981L44.2211 29.3299C44.2054 29.3142 44.1869 29.3018 44.1665 29.2934C44.146 29.2849 44.1241 29.2806 44.102 29.2805C44.0799 29.2805 44.058 29.2849 44.0376 29.2934C44.0172 29.3018 43.9986 29.3142 43.983 29.3299L40.4921 32.8208L37.0012 29.3299C36.9697 29.2983 36.9268 29.2806 36.8822 29.2806C36.8375 29.2806 36.7947 29.2983 36.7631 29.3299L34.7949 31.2981C34.7634 31.3296 34.7456 31.3725 34.7456 31.4171C34.7456 31.4618 34.7633 31.5046 34.7949 31.5362L38.2858 35.027L36.838 36.4749C36.8064 36.5064 36.7886 36.5493 36.7886 36.5939C36.7886 36.6386 36.8064 36.6814 36.838 36.713C36.8695 36.7445 36.9124 36.7623 36.957 36.7623C37.0017 36.7623 37.0445 36.7445 37.0761 36.713L38.643 35.1461C38.6745 35.1145 38.6923 35.0717 38.6923 35.027C38.6923 34.9824 38.6745 34.9395 38.643 34.908L35.1521 31.4171L36.8822 29.687L40.373 33.1779C40.4046 33.2095 40.4474 33.2272 40.4921 33.2272C40.5367 33.2272 40.5796 33.2095 40.6111 33.1779L44.102 29.687L45.8321 31.4171L42.3412 34.908C42.3256 34.9236 42.3132 34.9422 42.3047 34.9626C42.2963 34.983 42.2919 35.0049 42.2919 35.0271C42.2919 35.0492 42.2963 35.0711 42.3047 35.0915C42.3132 35.1119 42.3256 35.1305 42.3412 35.1461L45.8321 38.637L44.102 40.3671L40.6111 36.8762C40.5796 36.8446 40.5367 36.8269 40.4921 36.8269C40.4474 36.8269 40.4046 36.8446 40.373 36.8762L36.8822 40.3671L35.1521 38.637L36.5999 37.1892C36.6155 37.1735 36.6279 37.155 36.6364 37.1345C36.6449 37.1141 36.6492 37.0922 36.6492 37.0701C36.6492 37.048 36.6449 37.0261 36.6364 37.0057C36.6279 36.9852 36.6155 36.9667 36.5999 36.9511C36.5843 36.9354 36.5657 36.923 36.5453 36.9146C36.5249 36.9061 36.503 36.9017 36.4809 36.9017C36.4587 36.9017 36.4369 36.9061 36.4164 36.9146C36.396 36.923 36.3774 36.9354 36.3618 36.9511L34.7949 38.5179C34.7793 38.5335 34.7669 38.5521 34.7584 38.5725C34.75 38.593 34.7456 38.6148 34.7456 38.637C34.7456 38.6591 34.75 38.681 34.7584 38.7014C34.7669 38.7218 34.7793 38.7404 34.7949 38.756L36.7631 40.7242C36.796 40.7571 36.8391 40.7735 36.8822 40.7735C36.9253 40.7735 36.9684 40.7571 37.0013 40.7242L40.4921 37.2333L43.983 40.7242C44.0146 40.7558 44.0574 40.7735 44.102 40.7735C44.1467 40.7735 44.1895 40.7558 44.2211 40.7242L46.1893 38.756C46.2049 38.7404 46.2173 38.7218 46.2258 38.7014C46.2342 38.681 46.2386 38.6591 46.2386 38.637C46.2386 38.6148 46.2342 38.593 46.2258 38.5725C46.2173 38.5521 46.2049 38.5335 46.1893 38.5179Z"/>
</mask>
<path d="M46.1893 38.5179L42.6984 35.027L46.1893 31.5362C46.2049 31.5205 46.2173 31.502 46.2258 31.4815C46.2342 31.4611 46.2386 31.4392 46.2386 31.4171C46.2386 31.395 46.2342 31.3731 46.2258 31.3527C46.2173 31.3323 46.2049 31.3137 46.1893 31.2981L44.2211 29.3299C44.2054 29.3142 44.1869 29.3018 44.1665 29.2934C44.146 29.2849 44.1241 29.2806 44.102 29.2805C44.0799 29.2805 44.058 29.2849 44.0376 29.2934C44.0172 29.3018 43.9986 29.3142 43.983 29.3299L40.4921 32.8208L37.0012 29.3299C36.9697 29.2983 36.9268 29.2806 36.8822 29.2806C36.8375 29.2806 36.7947 29.2983 36.7631 29.3299L34.7949 31.2981C34.7634 31.3296 34.7456 31.3725 34.7456 31.4171C34.7456 31.4618 34.7633 31.5046 34.7949 31.5362L38.2858 35.027L36.838 36.4749C36.8064 36.5064 36.7886 36.5493 36.7886 36.5939C36.7886 36.6386 36.8064 36.6814 36.838 36.713C36.8695 36.7445 36.9124 36.7623 36.957 36.7623C37.0017 36.7623 37.0445 36.7445 37.0761 36.713L38.643 35.1461C38.6745 35.1145 38.6923 35.0717 38.6923 35.027C38.6923 34.9824 38.6745 34.9395 38.643 34.908L35.1521 31.4171L36.8822 29.687L40.373 33.1779C40.4046 33.2095 40.4474 33.2272 40.4921 33.2272C40.5367 33.2272 40.5796 33.2095 40.6111 33.1779L44.102 29.687L45.8321 31.4171L42.3412 34.908C42.3256 34.9236 42.3132 34.9422 42.3047 34.9626C42.2963 34.983 42.2919 35.0049 42.2919 35.0271C42.2919 35.0492 42.2963 35.0711 42.3047 35.0915C42.3132 35.1119 42.3256 35.1305 42.3412 35.1461L45.8321 38.637L44.102 40.3671L40.6111 36.8762C40.5796 36.8446 40.5367 36.8269 40.4921 36.8269C40.4474 36.8269 40.4046 36.8446 40.373 36.8762L36.8822 40.3671L35.1521 38.637L36.5999 37.1892C36.6155 37.1735 36.6279 37.155 36.6364 37.1345C36.6449 37.1141 36.6492 37.0922 36.6492 37.0701C36.6492 37.048 36.6449 37.0261 36.6364 37.0057C36.6279 36.9852 36.6155 36.9667 36.5999 36.9511C36.5843 36.9354 36.5657 36.923 36.5453 36.9146C36.5249 36.9061 36.503 36.9017 36.4809 36.9017C36.4587 36.9017 36.4369 36.9061 36.4164 36.9146C36.396 36.923 36.3774 36.9354 36.3618 36.9511L34.7949 38.5179C34.7793 38.5335 34.7669 38.5521 34.7584 38.5725C34.75 38.593 34.7456 38.6148 34.7456 38.637C34.7456 38.6591 34.75 38.681 34.7584 38.7014C34.7669 38.7218 34.7793 38.7404 34.7949 38.756L36.7631 40.7242C36.796 40.7571 36.8391 40.7735 36.8822 40.7735C36.9253 40.7735 36.9684 40.7571 37.0013 40.7242L40.4921 37.2333L43.983 40.7242C44.0146 40.7558 44.0574 40.7735 44.102 40.7735C44.1467 40.7735 44.1895 40.7558 44.2211 40.7242L46.1893 38.756C46.2049 38.7404 46.2173 38.7218 46.2258 38.7014C46.2342 38.681 46.2386 38.6591 46.2386 38.637C46.2386 38.6148 46.2342 38.593 46.2258 38.5725C46.2173 38.5521 46.2049 38.5335 46.1893 38.5179Z" fill="#52006A"/>
<path d="M46.1893 38.5179L45.8357 38.8715L45.8357 38.8715L46.1893 38.5179ZM42.6984 35.027L42.3448 34.6735L41.9913 35.027L42.3448 35.3806L42.6984 35.027ZM46.1893 31.5362L45.8357 31.1826L45.8357 31.1826L46.1893 31.5362ZM46.1893 31.2981L45.8357 31.6516L45.8357 31.6516L46.1893 31.2981ZM44.2211 29.3299L43.8674 29.6833L43.8675 29.6834L44.2211 29.3299ZM43.983 29.3299L44.3365 29.6834L44.3366 29.6834L43.983 29.3299ZM40.4921 32.8208L40.1385 33.1743L40.4921 33.5279L40.8456 33.1743L40.4921 32.8208ZM37.0012 29.3299L37.3548 28.9763L37.3547 28.9762L37.0012 29.3299ZM36.8822 29.2806V28.7806V29.2806ZM36.7631 29.3299L36.4097 28.9762L36.4096 28.9763L36.7631 29.3299ZM34.7949 31.2981L35.1485 31.6517L35.1485 31.6516L34.7949 31.2981ZM34.7949 31.5362L34.4413 31.8897L34.4414 31.8897L34.7949 31.5362ZM38.2858 35.027L38.6394 35.3806L38.9929 35.027L38.6394 34.6735L38.2858 35.027ZM36.838 36.4749L36.4844 36.1213L36.4844 36.1213L36.838 36.4749ZM36.7886 36.5939H37.2886H36.7886ZM36.957 36.7623V36.2623V36.7623ZM37.0761 36.713L36.7225 36.3594L36.7225 36.3594L37.0761 36.713ZM38.643 35.1461L38.9965 35.4996L38.9966 35.4996L38.643 35.1461ZM38.643 34.908L38.9966 34.5545L38.9965 34.5544L38.643 34.908ZM35.1521 31.4171L34.7985 31.0636L34.445 31.4171L34.7985 31.7707L35.1521 31.4171ZM36.8822 29.687L37.2357 29.3335L36.8822 28.9799L36.5286 29.3335L36.8822 29.687ZM40.373 33.1779L40.0195 33.5315L40.0196 33.5315L40.373 33.1779ZM40.4921 33.2272V33.7272V33.2272ZM40.6111 33.1779L40.9646 33.5315L40.9647 33.5315L40.6111 33.1779ZM44.102 29.687L44.4556 29.3335L44.102 28.9799L43.7485 29.3335L44.102 29.687ZM45.8321 31.4171L46.1857 31.7707L46.5392 31.4171L46.1857 31.0636L45.8321 31.4171ZM42.3412 34.908L42.6948 35.2616L42.6948 35.2616L42.3412 34.908ZM42.3412 35.1461L42.6948 34.7925L42.6948 34.7925L42.3412 35.1461ZM45.8321 38.637L46.1857 38.9905L46.5392 38.637L46.1857 38.2834L45.8321 38.637ZM44.102 40.3671L43.7485 40.7206L44.102 41.0742L44.4556 40.7206L44.102 40.3671ZM40.6111 36.8762L40.9647 36.5226L40.9646 36.5226L40.6111 36.8762ZM40.373 36.8762L40.0196 36.5226L40.0195 36.5226L40.373 36.8762ZM36.8822 40.3671L36.5286 40.7206L36.8822 41.0742L37.2357 40.7206L36.8822 40.3671ZM35.1521 38.637L34.7985 38.2834L34.445 38.637L34.7985 38.9905L35.1521 38.637ZM36.5999 37.1892L36.9535 37.5427L36.9535 37.5427L36.5999 37.1892ZM36.3618 36.9511L36.7154 37.3046L36.7154 37.3046L36.3618 36.9511ZM34.7949 38.5179L35.1485 38.8715L35.1485 38.8715L34.7949 38.5179ZM34.7456 38.637H34.2456H34.7456ZM34.7949 38.756L35.1485 38.4025L35.1485 38.4024L34.7949 38.756ZM36.7631 40.7242L36.4096 41.0778L36.4097 41.0779L36.7631 40.7242ZM37.0013 40.7242L37.3547 41.0779L37.3548 41.0778L37.0013 40.7242ZM40.4921 37.2333L40.8456 36.8798L40.4921 36.5262L40.1385 36.8798L40.4921 37.2333ZM43.983 40.7242L43.6294 41.0778L43.6295 41.0778L43.983 40.7242ZM44.2211 40.7242L44.5746 41.0778L44.5746 41.0778L44.2211 40.7242ZM46.1893 38.756L45.8357 38.4024L45.8357 38.4025L46.1893 38.756ZM46.5428 38.1644L43.0519 34.6735L42.3448 35.3806L45.8357 38.8715L46.5428 38.1644ZM43.0519 35.3806L46.5428 31.8897L45.8357 31.1826L42.3448 34.6735L43.0519 35.3806ZM46.5428 31.8897C46.6049 31.8277 46.6541 31.754 46.6877 31.6729L45.7638 31.2902C45.7805 31.25 45.8049 31.2134 45.8357 31.1826L46.5428 31.8897ZM46.6877 31.6729C46.7213 31.5918 46.7386 31.5049 46.7386 31.4171H45.7386C45.7386 31.3736 45.7472 31.3304 45.7638 31.2902L46.6877 31.6729ZM46.7386 31.4171C46.7386 31.3293 46.7213 31.2424 46.6877 31.1613L45.7638 31.544C45.7472 31.5038 45.7386 31.4607 45.7386 31.4171H46.7386ZM46.6877 31.1613C46.6541 31.0802 46.6049 31.0066 46.5428 30.9445L45.8357 31.6516C45.8049 31.6208 45.7805 31.5843 45.7638 31.544L46.6877 31.1613ZM46.5428 30.9445L44.5746 28.9763L43.8675 29.6834L45.8357 31.6516L46.5428 30.9445ZM44.5747 28.9764C44.5127 28.9143 44.439 28.8651 44.3579 28.8315L43.975 29.7553C43.9348 29.7386 43.8982 29.7142 43.8674 29.6833L44.5747 28.9764ZM44.3579 28.8315C44.2768 28.7979 44.1899 28.7806 44.1021 28.7805L44.102 29.7805C44.0584 29.7805 44.0153 29.772 43.975 29.7553L44.3579 28.8315ZM44.1021 28.7805C44.0143 28.7805 43.9274 28.7978 43.8463 28.8314L44.2289 29.7553C44.1887 29.772 44.1455 29.7806 44.102 29.7805L44.1021 28.7805ZM43.8463 28.8314C43.7652 28.865 43.6915 28.9143 43.6294 28.9763L44.3366 29.6834C44.3058 29.7142 44.2692 29.7386 44.2289 29.7553L43.8463 28.8314ZM43.6294 28.9763L40.1385 32.4672L40.8456 33.1743L44.3365 29.6834L43.6294 28.9763ZM40.8456 32.4672L37.3548 28.9763L36.6477 29.6834L40.1385 33.1743L40.8456 32.4672ZM37.3547 28.9762C37.2294 28.851 37.0594 28.7806 36.8822 28.7806V29.7806C36.7943 29.7806 36.7099 29.7457 36.6478 29.6835L37.3547 28.9762ZM36.8822 28.7806C36.705 28.7806 36.535 28.851 36.4097 28.9762L37.1166 29.6835C37.0544 29.7457 36.9701 29.7806 36.8822 29.7806V28.7806ZM36.4096 28.9763L34.4414 30.9445L35.1485 31.6516L37.1167 29.6834L36.4096 28.9763ZM34.4414 30.9445C34.3161 31.0698 34.2456 31.2398 34.2456 31.4171L35.2456 31.4172C35.2456 31.5051 35.2107 31.5895 35.1485 31.6517L34.4414 30.9445ZM34.2456 31.4171C34.2456 31.5943 34.316 31.7644 34.4413 31.8897L35.1485 31.1827C35.2107 31.2449 35.2456 31.3292 35.2456 31.4172L34.2456 31.4171ZM34.4414 31.8897L37.9323 35.3806L38.6394 34.6735L35.1485 31.1826L34.4414 31.8897ZM37.9323 34.6735L36.4844 36.1213L37.1915 36.8284L38.6394 35.3806L37.9323 34.6735ZM36.4844 36.1213C36.3591 36.2466 36.2886 36.4166 36.2886 36.5939H37.2886C37.2886 36.6819 37.2537 36.7662 37.1915 36.8284L36.4844 36.1213ZM36.2886 36.5939C36.2886 36.7712 36.3591 36.9412 36.4844 37.0665L37.1915 36.3594C37.2537 36.4216 37.2886 36.506 37.2886 36.5939H36.2886ZM36.4844 37.0665C36.6097 37.1919 36.7797 37.2623 36.957 37.2623V36.2623C37.045 36.2623 37.1293 36.2972 37.1915 36.3594L36.4844 37.0665ZM36.957 37.2623C37.1343 37.2623 37.3043 37.1919 37.4296 37.0665L36.7225 36.3594C36.7847 36.2972 36.8691 36.2623 36.957 36.2623V37.2623ZM37.4296 37.0665L38.9965 35.4996L38.2894 34.7925L36.7225 36.3594L37.4296 37.0665ZM38.9966 35.4996C39.1219 35.3742 39.1923 35.2043 39.1923 35.027H38.1923C38.1923 34.9391 38.2272 34.8548 38.2894 34.7926L38.9966 35.4996ZM39.1923 35.027C39.1923 34.8498 39.1219 34.6798 38.9966 34.5545L38.2894 35.2615C38.2272 35.1993 38.1923 35.1149 38.1923 35.027H39.1923ZM38.9965 34.5544L35.5056 31.0636L34.7985 31.7707L38.2894 35.2615L38.9965 34.5544ZM35.5056 31.7707L37.2357 30.0406L36.5286 29.3335L34.7985 31.0636L35.5056 31.7707ZM36.5286 30.0406L40.0195 33.5315L40.7266 32.8244L37.2357 29.3335L36.5286 30.0406ZM40.0196 33.5315C40.1449 33.6568 40.3149 33.7272 40.4921 33.7272V32.7272C40.58 32.7272 40.6643 32.7621 40.7265 32.8243L40.0196 33.5315ZM40.4921 33.7272C40.6693 33.7272 40.8393 33.6568 40.9646 33.5315L40.2577 32.8243C40.3199 32.7621 40.4042 32.7272 40.4921 32.7272V33.7272ZM40.9647 33.5315L44.4556 30.0406L43.7485 29.3335L40.2576 32.8244L40.9647 33.5315ZM43.7485 30.0406L45.4786 31.7707L46.1857 31.0636L44.4556 29.3335L43.7485 30.0406ZM45.4786 31.0636L41.9877 34.5544L42.6948 35.2616L46.1857 31.7707L45.4786 31.0636ZM41.9877 34.5544C41.9256 34.6165 41.8764 34.6902 41.8428 34.7713L42.7667 35.154C42.75 35.1942 42.7256 35.2308 42.6948 35.2616L41.9877 34.5544ZM41.8428 34.7713C41.8092 34.8524 41.7919 34.9393 41.7919 35.0271H42.7919C42.7919 35.0706 42.7833 35.1137 42.7667 35.154L41.8428 34.7713ZM41.7919 35.0271C41.7919 35.1148 41.8092 35.2017 41.8428 35.2828L42.7667 34.9001C42.7833 34.9404 42.7919 34.9835 42.7919 35.0271H41.7919ZM41.8428 35.2828C41.8764 35.3639 41.9256 35.4376 41.9877 35.4997L42.6948 34.7925C42.7256 34.8233 42.75 34.8599 42.7667 34.9001L41.8428 35.2828ZM41.9877 35.4997L45.4786 38.9905L46.1857 38.2834L42.6948 34.7925L41.9877 35.4997ZM45.4786 38.2834L43.7485 40.0135L44.4556 40.7206L46.1857 38.9905L45.4786 38.2834ZM44.4556 40.0135L40.9647 36.5226L40.2576 37.2297L43.7485 40.7206L44.4556 40.0135ZM40.9646 36.5226C40.8393 36.3973 40.6693 36.3269 40.4921 36.3269V37.3269C40.4042 37.3269 40.3199 37.292 40.2577 37.2298L40.9646 36.5226ZM40.4921 36.3269C40.3149 36.3269 40.1449 36.3973 40.0196 36.5226L40.7265 37.2298C40.6643 37.292 40.58 37.3269 40.4921 37.3269V36.3269ZM40.0195 36.5226L36.5286 40.0135L37.2357 40.7206L40.7266 37.2297L40.0195 36.5226ZM37.2357 40.0135L35.5056 38.2834L34.7985 38.9905L36.5286 40.7206L37.2357 40.0135ZM35.5056 38.9905L36.9535 37.5427L36.2464 36.8356L34.7985 38.2834L35.5056 38.9905ZM36.9535 37.5427C37.0155 37.4806 37.0648 37.407 37.0983 37.3259L36.1745 36.9432C36.1911 36.903 36.2156 36.8664 36.2464 36.8356L36.9535 37.5427ZM37.0983 37.3259C37.1319 37.2448 37.1492 37.1579 37.1492 37.0701H36.1492C36.1492 37.0266 36.1578 36.9834 36.1745 36.9432L37.0983 37.3259ZM37.1492 37.0701C37.1492 36.9823 37.1319 36.8954 37.0983 36.8143L36.1745 37.197C36.1578 37.1568 36.1492 37.1137 36.1492 37.0701H37.1492ZM37.0983 36.8143C37.0648 36.7332 37.0155 36.6596 36.9535 36.5975L36.2464 37.3046C36.2156 37.2738 36.1911 37.2372 36.1745 37.197L37.0983 36.8143ZM36.9535 36.5975C36.8914 36.5354 36.8177 36.4862 36.7366 36.4526L36.3539 37.3765C36.3137 37.3598 36.2771 37.3354 36.2464 37.3046L36.9535 36.5975ZM36.7366 36.4526C36.6555 36.419 36.5686 36.4017 36.4809 36.4017V37.4017C36.4373 37.4017 36.3942 37.3932 36.3539 37.3765L36.7366 36.4526ZM36.4809 36.4017C36.3931 36.4017 36.3062 36.419 36.2251 36.4526L36.6078 37.3765C36.5675 37.3932 36.5244 37.4017 36.4809 37.4017V36.4017ZM36.2251 36.4526C36.144 36.4862 36.0703 36.5354 36.0083 36.5975L36.7154 37.3046C36.6846 37.3354 36.648 37.3598 36.6078 37.3765L36.2251 36.4526ZM36.0083 36.5975L34.4414 38.1644L35.1485 38.8715L36.7154 37.3046L36.0083 36.5975ZM34.4414 38.1643C34.3793 38.2264 34.3301 38.3001 34.2965 38.3812L35.2204 38.7639C35.2037 38.8041 35.1793 38.8407 35.1485 38.8715L34.4414 38.1643ZM34.2965 38.3812C34.2629 38.4623 34.2456 38.5492 34.2456 38.637H35.2456C35.2456 38.6805 35.237 38.7236 35.2204 38.7639L34.2965 38.3812ZM34.2456 38.637C34.2456 38.7247 34.2629 38.8116 34.2965 38.8927L35.2204 38.51C35.237 38.5503 35.2456 38.5934 35.2456 38.637H34.2456ZM34.2965 38.8927C34.3301 38.9738 34.3793 39.0475 34.4414 39.1096L35.1485 38.4024C35.1793 38.4332 35.2037 38.4698 35.2204 38.51L34.2965 38.8927ZM34.4414 39.1096L36.4096 41.0778L37.1167 40.3707L35.1485 38.4025L34.4414 39.1096ZM36.4097 41.0779C36.5401 41.2082 36.712 41.2735 36.8822 41.2735V40.2735C36.9663 40.2735 37.0519 40.3059 37.1166 40.3705L36.4097 41.0779ZM36.8822 41.2735C37.0524 41.2735 37.2243 41.2082 37.3547 41.0779L36.6478 40.3705C36.7125 40.3059 36.7982 40.2735 36.8822 40.2735V41.2735ZM37.3548 41.0778L40.8456 37.5869L40.1385 36.8798L36.6477 40.3707L37.3548 41.0778ZM40.1385 37.5869L43.6294 41.0778L44.3365 40.3707L40.8456 36.8798L40.1385 37.5869ZM43.6295 41.0778C43.7548 41.2031 43.9248 41.2735 44.102 41.2735V40.2735C44.19 40.2735 44.2743 40.3085 44.3365 40.3706L43.6295 41.0778ZM44.102 41.2735C44.2793 41.2735 44.4493 41.2031 44.5746 41.0778L43.8676 40.3706C43.9298 40.3085 44.0141 40.2735 44.102 40.2735V41.2735ZM44.5746 41.0778L46.5428 39.1096L45.8357 38.4025L43.8675 40.3707L44.5746 41.0778ZM46.5428 39.1096C46.6049 39.0475 46.6541 38.9738 46.6877 38.8927L45.7638 38.51C45.7805 38.4698 45.8049 38.4332 45.8357 38.4024L46.5428 39.1096ZM46.6877 38.8927C46.7213 38.8116 46.7386 38.7247 46.7386 38.637H45.7386C45.7386 38.5934 45.7472 38.5503 45.7638 38.51L46.6877 38.8927ZM46.7386 38.637C46.7386 38.5492 46.7213 38.4623 46.6877 38.3812L45.7638 38.7639C45.7472 38.7236 45.7386 38.6805 45.7386 38.637H46.7386ZM46.6877 38.3812C46.6541 38.3001 46.6049 38.2264 46.5428 38.1643L45.8357 38.8715C45.8049 38.8407 45.7805 38.8041 45.7638 38.7639L46.6877 38.3812Z" fill="#52006A" mask="url(#path-5-outside-3_2689_26800)"/>
<path d="M32.578 1.00006V4.97099C32.578 5.5684 32.0892 6.05719 31.4952 6.05719H24.8614C24.2641 6.05719 23.7754 5.5684 23.7754 4.97099V1.00006" stroke="#52006A" stroke-width="1.23944" stroke-miterlimit="10" stroke-linecap="round" stroke-linejoin="round"/>
<path d="M39.8634 14.5742L39.8603 21.8356M16.7773 21.8356V3.28423C16.7773 2.02868 17.8059 0.999948 19.0642 0.999948H37.5733C38.8318 0.999948 39.8603 2.02868 39.8603 3.28423V10.5744" stroke="#52006A" stroke-width="1.23944" stroke-miterlimit="10" stroke-linecap="round" stroke-linejoin="round"/>
<path d="M21.7661 21.893V25.8641C21.7661 26.4614 21.2776 26.947 20.6834 26.947H14.0496C13.4523 26.947 12.9668 26.4614 12.9668 25.8641V21.893" stroke="#52006A" stroke-width="1.23944" stroke-miterlimit="10" stroke-linecap="round" stroke-linejoin="round"/>
<path d="M5.96582 42.6936V24.1773C5.96582 22.9219 6.99421 21.8931 8.25258 21.8931H26.7618C28.02 21.8931 29.0486 22.9219 29.0486 24.1773V42.7287" stroke="#52006A" stroke-width="1.23944" stroke-miterlimit="10" stroke-linecap="round" stroke-linejoin="round"/>
<path d="M44.8489 21.893V25.8641C44.8489 26.4614 44.3603 26.947 43.763 26.947H37.1324C36.535 26.947 36.0464 26.4614 36.0464 25.8641V21.893" stroke="#52006A" stroke-width="1.23944" stroke-miterlimit="10" stroke-linecap="round" stroke-linejoin="round"/>
<path d="M29.0488 42.7285V24.1772C29.0488 22.9218 30.0772 21.893 31.3357 21.893H49.8448C51.1031 21.893 52.1316 22.9218 52.1316 24.1772V42.7285" stroke="#52006A" stroke-width="1.23944" stroke-miterlimit="10" stroke-linecap="round" stroke-linejoin="round"/>
<path d="M18.9172 42.7574H54.974C56.0886 42.7574 56.999 43.6678 56.999 44.7796C56.999 45.8912 56.0886 46.8018 54.974 46.8018H3.02077C1.90922 46.8018 0.999023 45.8912 0.999023 44.7796C0.999023 43.6678 1.90922 42.7574 3.02077 42.7574H15.0141" stroke="#52006A" stroke-width="1.23944" stroke-miterlimit="10" stroke-linecap="round" stroke-linejoin="round"/>
<path d="M48.9607 13.0184L47.7741 14.2044V6.54554C47.7741 6.3705 47.7046 6.20264 47.5808 6.07887C47.4571 5.95511 47.2892 5.88558 47.1142 5.88558C46.9391 5.88558 46.7713 5.95511 46.6475 6.07887C46.5237 6.20264 46.4542 6.3705 46.4542 6.54554V14.2044L45.2676 13.0184C45.1431 12.8982 44.9764 12.8317 44.8034 12.8332C44.6303 12.8347 44.4648 12.9041 44.3425 13.0265C44.2201 13.1488 44.1507 13.3144 44.1492 13.4874C44.1477 13.6604 44.2142 13.8272 44.3344 13.9516L46.6469 16.2641C46.7395 16.3561 46.8571 16.4186 46.9851 16.444C47.113 16.4694 47.2457 16.4564 47.3663 16.4067C47.3861 16.536 49.8365 13.978 49.8939 13.9516C50.0141 13.8272 50.0807 13.6604 50.0792 13.4874C50.0777 13.3144 50.0083 13.1488 49.8859 13.0265C49.7635 12.9041 49.598 12.8347 49.425 12.8332C49.2519 12.8317 49.0852 12.8982 48.9607 13.0184ZM50.1982 2.80157C50.0231 2.80157 49.8553 2.87111 49.7315 2.99487C49.6077 3.11864 49.5382 3.2865 49.5382 3.46154V9.62954C49.5382 9.80457 49.6077 9.97243 49.7315 10.0962C49.8553 10.22 50.0231 10.2895 50.1982 10.2895C50.3732 10.2895 50.5411 10.22 50.6648 10.0962C50.7886 9.97243 50.8581 9.80457 50.8581 9.62954V3.46154C50.8581 3.2865 50.7886 3.11864 50.6648 2.99487C50.5411 2.87111 50.3732 2.80157 50.1982 2.80157ZM44.0302 10.2895C44.2052 10.2895 44.3731 10.22 44.4968 10.0962C44.6206 9.97243 44.6901 9.80457 44.6901 9.62954V3.46154C44.6901 3.2865 44.6206 3.11864 44.4968 2.99487C44.3731 2.87111 44.2052 2.80157 44.0302 2.80157C43.8551 2.80157 43.6873 2.87111 43.5635 2.99487C43.4397 3.11864 43.3702 3.2865 43.3702 3.46154V9.62954C43.3702 9.80457 43.4397 9.97243 43.5635 10.0962C43.6873 10.22 43.8551 10.2895 44.0302 10.2895ZM12.762 13.9516C12.8822 13.8272 12.9487 13.6604 12.9472 13.4874C12.9457 13.3144 12.8763 13.1488 12.754 13.0265C12.6316 12.9041 12.4661 12.8347 12.293 12.8332C12.12 12.8317 11.9533 12.8982 11.8288 13.0184L10.6422 14.2044V6.54554C10.6422 6.3705 10.5727 6.20264 10.4489 6.07887C10.3251 5.95511 10.1573 5.88558 9.98224 5.88558C9.80721 5.88558 9.63935 5.95511 9.51558 6.07887C9.39181 6.20264 9.32228 6.3705 9.32228 6.54554V14.2044L8.13567 13.0184C8.0112 12.8982 7.84449 12.8317 7.67145 12.8332C7.49841 12.8347 7.33289 12.9041 7.21052 13.0265C7.08816 13.1488 7.01875 13.3144 7.01725 13.4874C7.01575 13.6604 7.08227 13.8272 7.20249 13.9516L9.51499 16.2641C9.60755 16.3561 9.72518 16.4186 9.85315 16.444C9.98112 16.4694 10.1137 16.4564 10.2344 16.4067C10.2541 16.536 12.7039 13.978 12.762 13.9516ZM13.0662 10.2895C13.2413 10.2895 13.4091 10.22 13.5329 10.0962C13.6567 9.97243 13.7262 9.80457 13.7262 9.62954V3.46154C13.7262 3.2865 13.6567 3.11864 13.5329 2.99487C13.4091 2.87111 13.2413 2.80157 13.0662 2.80157C12.8912 2.80157 12.7233 2.87111 12.5996 2.99487C12.4758 3.11864 12.4063 3.2865 12.4063 3.46154V9.62954C12.4063 9.80457 12.4758 9.97243 12.5996 10.0962C12.7233 10.22 12.8912 10.2895 13.0662 10.2895ZM7.5582 9.62954V3.46154C7.5582 3.2865 7.48867 3.11864 7.36491 2.99487C7.24114 2.87111 7.07328 2.80157 6.89824 2.80157C6.72321 2.80157 6.55535 2.87111 6.43158 2.99487C6.30781 3.11864 6.23828 3.2865 6.23828 3.46154V9.62954C6.23828 9.80457 6.30781 9.97243 6.43158 10.0962C6.55535 10.22 6.72321 10.2895 6.89824 10.2895C7.07328 10.2895 7.24114 10.22 7.36491 10.0962C7.48867 9.97243 7.5582 9.80457 7.5582 9.62954Z" fill="#52006A"/>
</svg>
