<svg width="51" height="50" viewBox="0 0 51 50" fill="none" xmlns="http://www.w3.org/2000/svg">
<path d="M37.9998 5.20786C33.3975 5.20786 29.6665 8.93881 29.6665 13.5412C29.6665 18.1435 33.3975 21.8746 37.9998 21.8746C42.6 21.8694 46.3279 18.1414 46.3331 13.5413C46.3331 8.93881 42.6021 5.20786 37.9998 5.20786ZM37.9998 19.7913C34.548 19.7913 31.7498 16.993 31.7498 13.5413C31.7498 10.0895 34.548 7.29125 37.9998 7.29125C41.4502 7.29467 44.2464 10.0909 44.2498 13.5413C44.2498 16.993 41.4516 19.7913 37.9998 19.7913Z" fill="#52006A"/>
<path d="M40.3885 10.7214L36.9583 14.1516L35.6114 12.8047L34.1385 14.2777L36.2218 16.361C36.3185 16.4577 36.4333 16.5344 36.5596 16.5868C36.686 16.6391 36.8214 16.6661 36.9582 16.6661C37.095 16.6661 37.2304 16.6391 37.3568 16.5868C37.4831 16.5344 37.5979 16.4577 37.6946 16.361L41.8613 12.1943L40.3885 10.7214ZM21.3332 27.0828H35.9165V29.1661H21.3332V27.0828ZM23.4166 12.4995H11.9582C7.93301 12.5041 4.67109 15.766 4.6665 19.7912H6.7499C6.75332 16.9161 9.0832 14.5863 11.9582 14.5829H23.4165C24.5671 14.5829 25.4998 15.5156 25.4998 16.6662C25.4998 17.8168 24.5671 18.7495 23.4165 18.7495H11.9582V20.8328H23.4165C25.7177 20.8328 27.5832 18.9674 27.5832 16.6661C27.5832 14.3649 25.7178 12.4995 23.4166 12.4995Z" fill="#52006A"/>
<path d="M1.5417 16.6662C0.966406 16.6662 0.5 17.1325 0.5 17.7078V18.7495H5.7083V16.6662H1.5417ZM48.4167 30.2078V44.7911C48.4167 46.517 47.0176 47.9161 45.2917 47.9161H20.2917C18.5658 47.9161 17.1667 46.517 17.1667 44.7911V19.7911H15.0834V44.7911C15.0868 47.6662 17.4167 49.996 20.2917 49.9994H45.2917C48.1668 49.996 50.4966 47.6661 50.5 44.7911V30.2078H48.4167ZM45.2917 -0.000457764H24.4583C24.1821 -0.000363032 23.9172 0.109404 23.7219 0.304718L15.3886 8.63802L16.8615 10.111L24.8896 2.08284H45.2917C47.0176 2.08284 48.4167 3.48196 48.4167 5.20784V19.7911H50.5V5.20784C50.4966 2.33284 48.1667 0.00296021 45.2917 -0.000457764Z" fill="#52006A"/>
<path d="M25.1948 0.305005C24.7881 -0.101831 24.1285 -0.101929 23.7217 0.30481L15.3884 8.63811C15.2916 8.7348 15.2149 8.8496 15.1625 8.97596C15.1102 9.10232 15.0832 9.23776 15.0832 9.37454V13.5412H17.1665V9.80579L23.4165 3.55579V7.29124C23.4165 7.86653 22.9501 8.33294 22.3748 8.33294H20.2915V10.4162H22.3748C24.1007 10.4162 25.4998 9.01711 25.4998 7.29124V1.04124C25.4997 0.765103 25.39 0.500293 25.1948 0.305005ZM6.7498 28.1245H4.6665C4.67109 32.1497 7.93301 35.4116 11.9582 35.4162V33.3329C9.08311 33.3294 6.75322 30.9996 6.7498 28.1245Z" fill="#52006A"/>
<path d="M11.9583 33.3328H16.125V35.4161H11.9583V33.3328ZM0.5 29.1662V30.2079C0.5 30.7831 0.966406 31.2495 1.5417 31.2495H5.7084V29.1662H0.5ZM49.5958 22.7787C48.3746 21.6135 46.4534 21.6135 45.2322 22.7787L30.7791 37.2319C30.3725 37.6386 30.3725 38.298 30.7791 38.7048L33.6697 41.5954C33.7664 41.6922 33.8812 41.7689 34.0076 41.8213C34.1339 41.8736 34.2694 41.9006 34.4062 41.9006C34.5429 41.9006 34.6784 41.8736 34.8047 41.8213C34.9311 41.7689 35.0459 41.6922 35.1426 41.5954L49.5957 27.1423L49.5973 27.1408C50.8015 25.9357 50.8008 23.9828 49.5958 22.7787ZM48.1229 25.6694L34.4062 39.386L32.9886 37.9683L46.7053 24.2516C46.8962 24.0692 47.1501 23.9674 47.4141 23.9674C47.6782 23.9674 47.932 24.0692 48.1229 24.2516L48.1235 24.2522C48.5146 24.6437 48.5145 25.2782 48.1229 25.6694Z" fill="#52006A"/>
<path d="M33.9377 39.9277L30.9544 41.4183L32.4481 38.4319L30.5846 37.4995L27.6929 43.2839C27.6205 43.4286 27.5829 43.5882 27.583 43.75C27.5833 44.3253 28.0499 44.7914 28.6252 44.7912C28.7863 44.7926 28.9456 44.757 29.0908 44.687L34.8752 41.7912L33.9377 39.9277ZM41.6202 27.8675L43.0935 26.3947L45.9834 29.2853L44.5101 30.7582L41.6202 27.8675Z" fill="#52006A"/>
<path d="M21.3335 42.7078H28.6252V44.7911H21.3335V42.7078ZM21.3335 37.4995H27.5835V39.5828H21.3335V37.4995ZM21.3335 32.2912H30.7085V34.3745H21.3335V32.2912ZM34.8752 42.7078H44.2502V44.7911H34.8752V42.7078ZM40.0835 37.4995H44.2502V39.5828H40.0835V37.4995Z" fill="#52006A"/>
</svg>
