<svg width="50" height="50" viewBox="0 0 50 50" fill="none" xmlns="http://www.w3.org/2000/svg">
<path d="M47.6562 42.1875H2.34375C1.72215 42.1875 1.12601 41.9406 0.686468 41.501C0.24693 41.0615 0 40.4654 0 39.8438L0 10.1562C0 9.53465 0.24693 8.93851 0.686468 8.49897C1.12601 8.05943 1.72215 7.8125 2.34375 7.8125H8.59375V9.375H2.34375C2.13655 9.375 1.93784 9.45731 1.79132 9.60382C1.64481 9.75034 1.5625 9.94905 1.5625 10.1562V39.8438C1.5625 40.0509 1.64481 40.2497 1.79132 40.3962C1.93784 40.5427 2.13655 40.625 2.34375 40.625H47.6562C47.8634 40.625 48.0622 40.5427 48.2087 40.3962C48.3552 40.2497 48.4375 40.0509 48.4375 39.8438V10.1562C48.4375 9.94905 48.3552 9.75034 48.2087 9.60382C48.0622 9.45731 47.8634 9.375 47.6562 9.375H42.1875V7.8125H47.6562C48.2779 7.8125 48.874 8.05943 49.3135 8.49897C49.7531 8.93851 50 9.53465 50 10.1562V39.8438C50 40.4654 49.7531 41.0615 49.3135 41.501C48.874 41.9406 48.2779 42.1875 47.6562 42.1875ZM35.9375 50H14.0625C13.8553 50 13.6566 49.9177 13.5101 49.7712C13.3636 49.6247 13.2812 49.4259 13.2812 49.2188V46.0938C13.2812 45.8866 13.3636 45.6878 13.5101 45.5413C13.6566 45.3948 13.8553 45.3125 14.0625 45.3125H35.9375C36.1447 45.3125 36.3434 45.3948 36.4899 45.5413C36.6364 45.6878 36.7188 45.8866 36.7188 46.0938V49.2188C36.7188 49.4259 36.6364 49.6247 36.4899 49.7712C36.3434 49.9177 36.1447 50 35.9375 50ZM14.8438 48.4375H35.1562V46.875H14.8438V48.4375Z" fill="#52006A"/>
<path d="M32.8125 46.875H17.1875C16.9803 46.875 16.7816 46.7927 16.6351 46.6462C16.4886 46.4997 16.4062 46.3009 16.4062 46.0938V41.4062C16.4062 41.199 16.4886 41.0003 16.6351 40.8538C16.7816 40.7073 16.9803 40.625 17.1875 40.625H32.8125C33.0197 40.625 33.2184 40.7073 33.3649 40.8538C33.5114 41.0003 33.5938 41.199 33.5938 41.4062V46.0938C33.5938 46.3009 33.5114 46.4997 33.3649 46.6462C33.2184 46.7927 33.0197 46.875 32.8125 46.875ZM17.9688 45.3125H32.0312V42.1875H17.9688V45.3125ZM46.0938 35.9375H40.625V34.375H45.3125V12.5H41.4062V10.9375H46.0938C46.3009 10.9375 46.4997 11.0198 46.6462 11.1663C46.7927 11.3128 46.875 11.5115 46.875 11.7188V35.1562C46.875 35.3635 46.7927 35.5622 46.6462 35.7087C46.4997 35.8552 46.3009 35.9375 46.0938 35.9375ZM29.6875 35.9375H3.90625C3.69905 35.9375 3.50034 35.8552 3.35382 35.7087C3.20731 35.5622 3.125 35.3635 3.125 35.1562V11.7188C3.125 11.5115 3.20731 11.3128 3.35382 11.1663C3.50034 11.0198 3.69905 10.9375 3.90625 10.9375H8.59375V12.5H4.6875V34.375H29.6875V35.9375Z" fill="#52006A"/>
<path d="M10.9375 35.1562H9.375V5.46875C9.37504 5.26157 9.45738 5.06289 9.60391 4.91641L14.2914 0.228906C14.4379 0.0823833 14.6366 4.4248e-05 14.8438 0L39.8438 0C40.051 0 40.2497 0.08231 40.3962 0.228823C40.5427 0.375336 40.625 0.57405 40.625 0.78125V25.7812H39.0625V1.5625H15.1672L10.9375 5.79219V35.1562Z" fill="#52006A"/>
<path d="M14.8438 6.25H10.1562V4.6875H14.0625V0.78125H15.625V5.46875C15.625 5.67595 15.5427 5.87466 15.3962 6.02118C15.2497 6.16769 15.051 6.25 14.8438 6.25ZM36.7188 21.875H13.2812C13.074 21.875 12.8753 21.7927 12.7288 21.6462C12.5823 21.4997 12.5 21.301 12.5 21.0938V8.59375C12.5 8.38655 12.5823 8.18784 12.7288 8.04132C12.8753 7.89481 13.074 7.8125 13.2812 7.8125H36.7188C36.926 7.8125 37.1247 7.89481 37.2712 8.04132C37.4177 8.18784 37.5 8.38655 37.5 8.59375V21.0938C37.5 21.301 37.4177 21.4997 37.2712 21.6462C37.1247 21.7927 36.926 21.875 36.7188 21.875ZM14.0625 20.3125H35.9375V9.375H14.0625V20.3125Z" fill="#52006A"/>
<path d="M17.9688 8.59375H19.5312V21.0938H17.9688V8.59375Z" fill="#52006A"/>
<path d="M13.2812 11.7188H36.7188V13.2812H13.2812V11.7188ZM15.625 23.4375H25V25H15.625V23.4375ZM12.5 23.4375H14.0625V25H12.5V23.4375ZM12.5 26.5625H25V28.125H12.5V26.5625ZM12.5 29.6875H25V31.25H12.5V29.6875ZM35.1562 39.0625C33.6111 39.0625 32.1006 38.6043 30.8159 37.7459C29.5311 36.8874 28.5298 35.6673 27.9384 34.2397C27.3471 32.8122 27.1924 31.2413 27.4939 29.7259C27.7953 28.2104 28.5394 26.8183 29.632 25.7257C30.7246 24.6331 32.1166 23.8891 33.6321 23.5876C35.1476 23.2862 36.7184 23.4409 38.146 24.0322C39.5735 24.6235 40.7937 25.6248 41.6521 26.9096C42.5106 28.1944 42.9688 29.7048 42.9688 31.25C42.9665 33.3213 42.1426 35.3071 40.678 36.7718C39.2134 38.2364 37.2276 39.0602 35.1562 39.0625ZM35.1562 25C33.9201 25 32.7117 25.3666 31.6839 26.0533C30.6561 26.7401 29.855 27.7162 29.382 28.8582C28.909 30.0003 28.7852 31.2569 29.0263 32.4693C29.2675 33.6817 29.8628 34.7953 30.7368 35.6694C31.6109 36.5435 32.7246 37.1388 33.9369 37.3799C35.1493 37.6211 36.406 37.4973 37.548 37.0242C38.6901 36.5512 39.6662 35.7501 40.3529 34.7223C41.0397 33.6945 41.4062 32.4861 41.4062 31.25C41.4044 29.593 40.7453 28.0043 39.5736 26.8326C38.4019 25.6609 36.8133 25.0019 35.1562 25Z" fill="#52006A"/>
<path d="M35.9375 35.1562H34.375C33.7534 35.1562 33.1573 34.9093 32.7177 34.4698C32.2782 34.0302 32.0312 33.4341 32.0312 32.8125H33.5938C33.5938 33.0197 33.6761 33.2184 33.8226 33.3649C33.9691 33.5114 34.1678 33.5938 34.375 33.5938H35.9375C36.1447 33.5938 36.3434 33.5114 36.4899 33.3649C36.6364 33.2184 36.7188 33.0197 36.7188 32.8125C36.7188 32.6053 36.6364 32.4066 36.4899 32.2601C36.3434 32.1136 36.1447 32.0312 35.9375 32.0312H34.375C33.7534 32.0312 33.1573 31.7843 32.7177 31.3448C32.2782 30.9052 32.0312 30.3091 32.0312 29.6875C32.0312 29.0659 32.2782 28.4698 32.7177 28.0302C33.1573 27.5907 33.7534 27.3438 34.375 27.3438H35.9375C36.5591 27.3438 37.1552 27.5907 37.5948 28.0302C38.0343 28.4698 38.2812 29.0659 38.2812 29.6875H36.7188C36.7188 29.4803 36.6364 29.2816 36.4899 29.1351C36.3434 28.9886 36.1447 28.9062 35.9375 28.9062H34.375C34.1678 28.9062 33.9691 28.9886 33.8226 29.1351C33.6761 29.2816 33.5938 29.4803 33.5938 29.6875C33.5938 29.8947 33.6761 30.0934 33.8226 30.2399C33.9691 30.3864 34.1678 30.4688 34.375 30.4688H35.9375C36.5591 30.4688 37.1552 30.7157 37.5948 31.1552C38.0343 31.5948 38.2812 32.1909 38.2812 32.8125C38.2812 33.4341 38.0343 34.0302 37.5948 34.4698C37.1552 34.9093 36.5591 35.1562 35.9375 35.1562Z" fill="#52006A"/>
<path d="M34.375 26.5625H35.9375V28.125H34.375V26.5625ZM34.375 34.375H35.9375V35.9375H34.375V34.375ZM35.9375 3.125H37.5V4.6875H35.9375V3.125ZM26.5625 3.125H34.375V4.6875H26.5625V3.125Z" fill="#52006A"/>
</svg>
