<svg width="52" height="52" viewBox="0 0 52 52" fill="none" xmlns="http://www.w3.org/2000/svg">
<path d="M14.2534 16.8548L6.96047 12.6442M42.8881 13.8865L37.9282 16.7502M35.0332 16.9402L17.0149 6.53725M26.0002 34.0006V50.1389M16.3281 40.5758L22.0434 43.8755M45.4007 16.5556V14.0674M6.59971 33.663V39.0473C6.59971 39.5551 6.87064 40.0243 7.31037 40.2782L25.2896 50.6586C25.5057 50.7833 25.7508 50.849 26.0003 50.849C26.2498 50.849 26.4949 50.7833 26.711 50.6586L44.6903 40.2782C44.9063 40.1534 45.0857 39.974 45.2105 39.758C45.3352 39.5419 45.4009 39.2968 45.4009 39.0473V33.6858M38.0874 8.21351L26.7109 1.6453C26.4948 1.52054 26.2497 1.45486 26.0002 1.45486C25.7507 1.45486 25.5056 1.52054 25.2895 1.6453L7.31027 12.0256C7.0942 12.1503 6.91477 12.3297 6.79002 12.5458C6.66527 12.7619 6.5996 13.007 6.59961 13.2565V16.7723" stroke="#52006A" stroke-width="1.50905" stroke-miterlimit="10" stroke-linecap="round" stroke-linejoin="round"/>
<path d="M35.182 39.7557L30.3939 42.5231V48.532L40.5266 42.6819V36.6667L37.8486 38.2145M37.2965 22.3098V28.3496M40.5454 22.386L37.4897 25.1947L40.7599 28.3496M34.9916 22.8256C34.4931 22.4885 33.9049 22.3088 33.3031 22.3098C31.6353 22.3098 30.2832 23.6618 30.2832 25.3297C30.2832 26.9976 31.6352 28.3496 33.3031 28.3496C33.9805 28.3496 34.5376 28.1266 34.9606 27.75C35.0483 27.6718 35.1302 27.5873 35.2056 27.4971M15.0811 22.9307C15.0811 22.9307 13.9973 22.0197 12.7193 22.4046C11.5459 22.7582 11.3817 24.1113 12.2307 24.6648C12.2307 24.6648 13.0638 25.0364 13.9877 25.3773C16.212 26.1977 15.2538 28.3495 13.4633 28.3495C12.5666 28.3495 11.8141 27.9569 11.3586 27.4542M17.2994 22.3098H20.6348M18.9604 22.5026V28.3496M1 33.6859L6.5994 37.9155V33.6859H1ZM51 33.6859L45.4006 37.9155V33.6859H51Z" stroke="#52006A" stroke-width="1.50905" stroke-miterlimit="10" stroke-linecap="round" stroke-linejoin="round"/>
<path d="M25.0629 28.3496C26.7307 28.3496 28.0828 26.9976 28.0828 25.3297C28.0828 23.6618 26.7307 22.3098 25.0629 22.3098C23.395 22.3098 22.043 23.6618 22.043 25.3297C22.043 26.9976 23.395 28.3496 25.0629 28.3496Z" stroke="#52006A" stroke-width="1.50905" stroke-miterlimit="10" stroke-linecap="round" stroke-linejoin="round"/>
<path d="M11.6715 33.6859H51V17.5755C51 17.4158 50.9366 17.2627 50.8237 17.1498C50.7108 17.0369 50.5577 16.9735 50.398 16.9735H1.60201C1.44235 16.9735 1.28922 17.0369 1.17633 17.1498C1.06343 17.2627 1 17.4158 1 17.5755V33.6858H8.75402M42.2433 7.56803L43.8784 9.23041L47.022 5.80807" stroke="#52006A" stroke-width="1.50905" stroke-miterlimit="10" stroke-linecap="round" stroke-linejoin="round"/>
<path d="M39.0256 4.50083C38.541 5.39911 38.2656 6.42698 38.2656 7.51924C38.2656 11.0358 41.1164 13.8865 44.6329 13.8865C48.1494 13.8865 51.0002 11.0358 51.0002 7.51924C51.0002 4.00264 48.1494 1.15193 44.6329 1.15193C43.2654 1.15193 41.9998 1.58443 40.9622 2.31813" stroke="#52006A" stroke-width="1.50905" stroke-miterlimit="10" stroke-linecap="round" stroke-linejoin="round"/>
</svg>
