<svg width="51" height="50" viewBox="0 0 51 50" fill="none" xmlns="http://www.w3.org/2000/svg">
<path d="M25.5 0C20.5555 0 15.722 1.46622 11.6108 4.21326C7.49953 6.96029 4.29521 10.8648 2.40302 15.4329C0.510832 20.0011 0.0157488 25.0277 0.980379 29.8773C1.94501 34.7268 4.32603 39.1814 7.82234 42.6777C11.3187 46.174 15.7732 48.555 20.6227 49.5196C25.4723 50.4843 30.4989 49.9892 35.0671 48.097C39.6352 46.2048 43.5397 43.0005 46.2867 38.8892C49.0338 34.778 50.5 29.9445 50.5 25C50.4925 18.3719 47.8562 12.0174 43.1694 7.33061C38.4826 2.64383 32.1281 0.00749912 25.5 0ZM25.5 48.3333C20.8851 48.3333 16.3738 46.9649 12.5367 44.401C8.69956 41.8371 5.70887 38.1929 3.94282 33.9293C2.17678 29.6657 1.7147 24.9741 2.61502 20.4479C3.51534 15.9217 5.73763 11.7641 9.00085 8.50084C12.2641 5.23762 16.4217 3.01533 20.9479 2.11501C25.4741 1.21469 30.1657 1.67677 34.4293 3.44281C38.6929 5.20885 42.3371 8.19955 44.901 12.0367C47.4649 15.8738 48.8333 20.3851 48.8333 25C48.8263 31.1862 46.3657 37.117 41.9914 41.4914C37.617 45.8657 31.6862 48.3263 25.5 48.3333Z" fill="#52006A"/>
<path d="M40.1073 11.5642L12.0648 39.6067C11.8968 39.7745 11.7663 39.9762 11.6819 40.1983C11.5976 40.4204 11.5614 40.6579 11.5757 40.895C11.5893 41.1274 11.6523 41.3542 11.7603 41.5603C11.8684 41.7665 12.019 41.9473 12.2023 42.0908C16.3676 45.3388 21.5765 46.9522 26.8484 46.6272C32.1203 46.3023 37.0916 44.0615 40.8265 40.3266C44.5614 36.5918 46.8022 31.6204 47.1271 26.3485C47.452 21.0766 45.8386 15.8677 42.5907 11.7025C42.4472 11.5192 42.2664 11.3685 42.0602 11.2605C41.854 11.1524 41.6272 11.0895 41.3948 11.0758C41.158 11.0627 40.9211 11.0994 40.6993 11.1835C40.4775 11.2676 40.2759 11.3973 40.1073 11.5642ZM35.4998 18.51V38.3333C35.4998 38.5543 35.412 38.7663 35.2558 38.9226C35.0995 39.0789 34.8875 39.1667 34.6665 39.1667H16.3332C16.1424 39.1648 15.9582 39.0967 15.8121 38.9741C15.666 38.8514 15.5671 38.6817 15.5323 38.4942L35.4998 18.51ZM45.4315 26.6767C45.0127 31.378 42.9543 35.7824 39.6165 39.1195C36.2786 42.4566 31.8737 44.5139 27.1723 44.9316C22.1725 45.3537 17.1977 43.8731 13.2423 40.7858L14.2773 39.75C14.5067 40.0835 14.8136 40.3563 15.1717 40.545C15.5298 40.7337 15.9284 40.8327 16.3332 40.8333H34.6665C35.3295 40.8333 35.9654 40.5699 36.4343 40.1011C36.9031 39.6322 37.1665 38.9964 37.1665 38.3333V16.8417L41.2773 12.7275C44.3669 16.6887 45.8502 21.6688 45.4315 26.675V26.6767ZM39.424 9.10499C39.4103 8.87262 39.3474 8.64581 39.2394 8.43964C39.1313 8.23346 38.9806 8.05263 38.7973 7.90916C34.6321 4.66119 29.4232 3.0478 24.1513 3.37273C18.8794 3.69765 13.9081 5.93847 10.1732 9.67335C6.43831 13.4082 4.1975 18.3795 3.87257 23.6515C3.54765 28.9234 5.16103 34.1322 8.409 38.2975C8.55248 38.4808 8.73331 38.6315 8.93948 38.7395C9.14566 38.8476 9.37247 38.9105 9.60484 38.9242H9.7065C10.1513 38.924 10.5779 38.7471 10.8923 38.4325L38.9348 10.3933C39.1029 10.2254 39.2334 10.0238 39.3177 9.80168C39.4021 9.57959 39.4383 9.34212 39.424 9.10499ZM15.4998 16.6667H19.5273C20.0061 16.6662 20.4652 16.4758 20.8038 16.1373C21.1423 15.7987 21.3327 15.3396 21.3332 14.8608V10.8333H34.6665C34.8573 10.8352 35.0415 10.9032 35.1875 11.0259C35.3336 11.1486 35.4325 11.3182 35.4673 11.5058L15.4998 31.49V16.6667ZM16.6782 15L19.6665 12.0117V14.8608C19.6665 14.8791 19.6629 14.8972 19.6559 14.9141C19.6489 14.931 19.6387 14.9463 19.6257 14.9592C19.6128 14.9721 19.5975 14.9824 19.5806 14.9894C19.5637 14.9964 19.5456 15 19.5273 15H16.6782ZM37.7615 9.21332L36.7223 10.25C36.493 9.91648 36.186 9.64364 35.8279 9.45494C35.4698 9.26624 35.0713 9.16731 34.6665 9.16666H20.4998C20.2788 9.1667 20.0669 9.25453 19.9107 9.41082L14.0773 15.2442C13.921 15.4004 13.8332 15.6123 13.8332 15.8333V33.1583L9.72234 37.2725C6.72796 33.4281 5.24093 28.6224 5.54079 23.7587C5.84065 18.895 7.90676 14.3083 11.3507 10.8609C14.7946 7.41344 19.3792 5.3427 24.2426 5.03793C29.106 4.73315 33.9133 6.21533 37.7607 9.20582L37.7615 9.21332Z" fill="#52006A"/>
</svg>
