<svg width="50" height="50" viewBox="0 0 50 50" fill="none" xmlns="http://www.w3.org/2000/svg">
<path d="M46.4537 12.3851C46.358 12.3751 46.2613 12.3841 46.1691 12.4115C46.0769 12.4389 45.991 12.4843 45.9163 12.545C45.8417 12.6057 45.7797 12.6805 45.734 12.7651C45.6883 12.8498 45.6598 12.9427 45.65 13.0384C45.5105 14.3892 45.0362 15.6293 44.3125 16.6826V7.79882C44.9031 8.65433 45.3166 9.61941 45.5284 10.6372C45.6108 11.0332 45.9986 11.2879 46.3945 11.2052C46.4887 11.1856 46.5781 11.1477 46.6576 11.0936C46.7371 11.0395 46.8052 10.9702 46.8579 10.8898C46.9107 10.8093 46.9471 10.7193 46.965 10.6248C46.9829 10.5303 46.9821 10.4332 46.9625 10.3391C46.0597 5.99608 42.1454 2.84393 37.6553 2.84393C32.4165 2.84393 28.1543 7.05448 28.1543 12.2299C28.1543 17.4054 32.4164 21.6159 37.6553 21.6159C40.0184 21.6159 42.2848 20.7501 44.0371 19.1779C45.7795 17.6147 46.8697 15.4877 47.107 13.1887C47.117 13.093 47.1079 12.9963 47.0804 12.9041C47.053 12.812 47.0076 12.7261 46.9469 12.6515C46.8863 12.5769 46.8115 12.5149 46.7268 12.4692C46.6422 12.4235 46.5494 12.3949 46.4537 12.3851ZM42.8477 6.27802V18.2875C41.4442 19.4553 39.6297 20.151 37.6554 20.151C33.2242 20.151 29.6192 16.5974 29.6192 12.2298C29.6192 7.8621 33.2242 4.30868 37.6554 4.30868C39.6106 4.30868 41.4363 5.01327 42.8521 6.19716C42.8491 6.22362 42.8477 6.25067 42.8477 6.27802Z" fill="#52006A"/>
<path d="M32.7046 12.2298C32.7046 10.9234 33.218 9.69659 34.1501 8.77501C34.2862 8.638 34.3627 8.4528 34.3629 8.25969C34.3631 8.06659 34.2871 7.88121 34.1513 7.74389C34.0155 7.60657 33.831 7.52843 33.6379 7.52647C33.4448 7.52451 33.2587 7.59888 33.1202 7.7334C31.9077 8.93214 31.2398 10.529 31.2398 12.2297C31.2398 13.9305 31.9076 15.5274 33.1202 16.7263C33.2572 16.862 33.4423 16.9381 33.6352 16.9379C33.7321 16.938 33.828 16.9189 33.9174 16.8815C34.0068 16.8442 34.0879 16.7894 34.156 16.7204C34.2925 16.5823 34.3686 16.3956 34.3675 16.2013C34.3664 16.0071 34.2882 15.8212 34.1501 15.6847C33.218 14.763 32.7046 13.536 32.7046 12.2298ZM9.48047 41.4943C9.48047 41.6886 9.55763 41.8749 9.69499 42.0122C9.83235 42.1496 10.0186 42.2268 10.2129 42.2268H32.016C32.4206 42.2268 32.7484 41.8989 32.7484 41.4943C32.7484 41.0898 32.4206 40.7619 32.016 40.7619H28.9566V37.2285C28.9566 36.5633 28.4154 36.0221 27.7502 36.0221H25.8543C25.1891 36.0221 24.6479 36.5633 24.6479 37.2285V40.7619H23.2688V31.5408C23.2688 30.8756 22.7276 30.3344 22.0624 30.3344H20.1665C19.5013 30.3344 18.9601 30.8756 18.9601 31.5408V40.7619H17.5811V35.3326C17.5811 34.6674 17.0398 34.1262 16.3746 34.1262H14.4787C13.8135 34.1262 13.2723 34.6674 13.2723 35.3326V40.7619H10.9453V31.0669C10.9453 30.8727 10.8681 30.6864 10.7308 30.549C10.5934 30.4116 10.4071 30.3345 10.2129 30.3345C10.0186 30.3345 9.83235 30.4116 9.69499 30.549C9.55763 30.6864 9.48047 30.8727 9.48047 31.0669V41.4943ZM26.1126 37.487H27.4916V40.7619H26.1126V37.487ZM20.4249 31.7993H21.8039V40.7619H20.4249V31.7993ZM14.7371 35.5911H16.1161V40.7619H14.7371V35.5911ZM10.2129 24.2157H26.3281C26.7327 24.2157 27.0605 23.8879 27.0605 23.4833C27.0605 23.0787 26.7327 22.7509 26.3281 22.7509H10.2129C10.0186 22.7509 9.83235 22.8281 9.69499 22.9654C9.55763 23.1028 9.48047 23.2891 9.48047 23.4833C9.48047 23.6776 9.55763 23.8639 9.69499 24.0012C9.83235 24.1386 10.0186 24.2157 10.2129 24.2157ZM10.2129 15.6841H14.0047C14.4092 15.6841 14.7371 15.3563 14.7371 14.9517C14.7371 14.5471 14.4092 14.2192 14.0047 14.2192H10.2129C9.8084 14.2192 9.48047 14.5471 9.48047 14.9517C9.48047 15.3563 9.8084 15.6841 10.2129 15.6841ZM10.2129 21.3719H23.4842C23.8887 21.3719 24.2166 21.0441 24.2166 20.6395C24.2166 20.2349 23.8887 19.907 23.4842 19.907H10.2129C9.8084 19.907 9.48047 20.2349 9.48047 20.6395C9.48047 21.0441 9.8084 21.3719 10.2129 21.3719ZM10.2129 8.10049H21.5883C21.9928 8.10049 22.3207 7.77266 22.3207 7.36807C22.3207 6.96348 21.9928 6.63565 21.5883 6.63565H10.2129C9.8084 6.63565 9.48047 6.96348 9.48047 7.36807C9.48047 7.77266 9.8084 8.10049 10.2129 8.10049Z" fill="#52006A"/>
<path d="M50 12.2298C50 5.48633 44.4621 0 37.6552 0C35.2218 0 32.9502 0.701367 31.0361 1.91035C30.9882 1.90071 30.9394 1.89587 30.8905 1.8959H3.57627C1.6043 1.8959 0 3.5002 0 5.47217V13.0558C0 13.25 0.0771656 13.4363 0.214521 13.5737C0.351877 13.711 0.538172 13.7882 0.732422 13.7882H5.6877V44.3383C5.6877 45.2648 6.4415 46.0187 7.36807 46.0187H32.0282C32.4328 46.0187 32.7606 45.6908 32.7606 45.2862C32.7606 44.8816 32.4328 44.5538 32.0282 44.5538H7.36807C7.31093 44.5537 7.25615 44.531 7.21575 44.4906C7.17535 44.4502 7.15262 44.3954 7.15254 44.3383V5.47227C7.15254 4.6832 6.89561 3.95293 6.46113 3.36084H29.1637C26.7914 5.59092 25.3104 8.74199 25.3104 12.2299C25.3104 18.2457 29.7171 23.261 35.5009 24.2733L35.5004 31.3803C34.6394 31.6534 34.0142 32.4552 34.0142 33.3992V33.5009C34.0142 34.1229 34.2854 34.6831 34.7166 35.0714C34.2627 36.9394 34.0142 39.2828 34.0142 41.7187C34.0142 43.7503 34.1857 45.7189 34.5102 47.4119C34.7976 48.9115 36.1203 50 37.6552 50C39.1901 50 40.5128 48.9115 40.8002 47.4119C40.8882 46.9497 40.9631 46.485 41.0247 46.0186H42.6319C43.5585 46.0186 44.3123 45.2647 44.3123 44.3382V24.9049C44.3123 24.5003 43.9845 24.1725 43.5799 24.1725C43.1753 24.1725 42.8475 24.5003 42.8475 24.9049V44.3383C42.8474 44.3954 42.8247 44.4502 42.7842 44.4906C42.7438 44.531 42.6891 44.5537 42.6319 44.5538H41.1816C41.2574 43.6383 41.2962 42.6856 41.2962 41.7188C41.2962 39.2834 41.0477 36.9397 40.5939 35.072C41.0251 34.6842 41.2962 34.124 41.2962 33.5023V33.4007C41.2962 32.4561 40.6705 31.6537 39.809 31.3805L39.8095 24.2733C45.5933 23.2609 50 18.2457 50 12.2298ZM5.6877 12.3233H1.46484V5.47217C1.46484 4.30791 2.41201 3.36074 3.57627 3.36074C4.74053 3.36074 5.6877 4.30791 5.6877 5.47217V12.3233ZM39.3616 47.1361C39.2062 47.9468 38.4887 48.5352 37.6553 48.5352C36.8219 48.5352 36.1043 47.9468 35.9489 47.1361C35.6415 45.5326 35.479 43.6593 35.479 41.7187C35.479 39.4837 35.6953 37.3429 36.0919 35.6203C36.1113 35.6208 36.1308 35.6211 36.1502 35.6211H39.1616C39.1806 35.6211 39.1996 35.6208 39.2185 35.6203C39.6149 37.3428 39.8313 39.484 39.8313 41.7187C39.8313 43.6593 39.6688 45.5326 39.3616 47.1361ZM39.8313 33.4007V33.5023C39.8313 33.8629 39.531 34.1562 39.1616 34.1562H36.1502C35.7801 34.1562 35.479 33.8622 35.479 33.5009V33.3992C35.479 33.0387 35.7794 32.7453 36.1487 32.7453H39.1602C39.5303 32.7453 39.8313 33.0393 39.8313 33.4007ZM36.9652 31.2805L36.9657 24.4409C37.4224 24.4661 37.8881 24.4661 38.3447 24.4409L38.3442 31.2805H36.9652ZM37.6552 22.9948C31.656 22.9948 26.7752 18.1656 26.7752 12.2298C26.7752 6.29395 31.656 1.46484 37.6552 1.46484C43.6544 1.46484 48.5352 6.29395 48.5352 12.2298C48.5352 18.1657 43.6544 22.9948 37.6552 22.9948Z" fill="#52006A"/>
<path d="M10.2129 10.9443H17.7965C18.201 10.9443 18.5289 10.6165 18.5289 10.2119C18.5289 9.80732 18.201 9.47949 17.7965 9.47949H10.2129C9.8084 9.47949 9.48047 9.80732 9.48047 10.2119C9.48047 10.6165 9.8084 10.9443 10.2129 10.9443ZM10.2129 27.0596H23.4842C23.8887 27.0596 24.2166 26.7317 24.2166 26.3271C24.2166 25.9226 23.8887 25.5947 23.4842 25.5947H10.2129C9.8084 25.5947 9.48047 25.9226 9.48047 26.3271C9.48047 26.7317 9.8084 27.0596 10.2129 27.0596Z" fill="#52006A"/>
</svg>
