<svg xmlns="http://www.w3.org/2000/svg" width="64" height="50" viewBox="0 0 64 50" fill="none">
  <path d="M12.1394 30.4367H9.65527C8.51953 30.4367 7.55078 29.6154 7.36621 28.4953L6.41309 22.7238V22.7228M25.7822 30.4367H15.8379" stroke="#52006A" stroke-width="1.46" stroke-miterlimit="10" stroke-linecap="round" stroke-linejoin="round"/>
  <path d="M9.84375 5.72577C4.95996 5.72577 1 9.68573 1 14.5695C1 18.2375 3.23242 21.384 6.41309 22.7228V22.7238C7.46777 23.1682 8.62695 23.4142 9.84375 23.4142C12.5088 23.4142 14.8965 22.2336 16.5176 20.3703C17.2822 20.5607 18.082 20.6623 18.9063 20.6623C19.7305 20.6623 20.5303 20.5607 21.2949 20.3703C22.457 21.7062 24.0127 22.6906 25.7822 23.1418M27.9688 5.72577C32.8525 5.72577 36.8125 9.68573 36.8125 14.5695C36.8125 16.6135 36.1191 18.4943 34.9541 19.9924" stroke="#52006A" stroke-width="1.46" stroke-miterlimit="10" stroke-linecap="round" stroke-linejoin="round"/>
  <path d="M33.6387 48.633H47.7744C48.7471 48.633 49.5352 47.8449 49.5352 46.8723V21.7531C49.5352 20.7805 48.7471 19.9924 47.7744 19.9924H27.543C26.5713 19.9924 25.7822 20.7805 25.7822 21.7531V46.8723C25.7822 47.8449 26.5713 48.633 27.543 48.633H29.9443M29.6143 32.761H41.9689M29.6143 36.6816H38.8262M29.6143 40.6022H38.8262M29.6143 44.5227H41.9689" stroke="#52006A" stroke-width="1.46" stroke-miterlimit="10" stroke-linecap="round" stroke-linejoin="round"/>
  <path d="M12.9374 12.4204V13.5674M24.8757 12.4204V13.5674M17.3328 13.5332C17.7154 13.9723 18.2784 14.2501 18.9065 14.2501C19.5347 14.2501 20.0977 13.9723 20.4803 13.5332M9.0752 10.8313C9.0752 5.40166 13.4769 1 18.9065 1C24.3362 1 28.7379 5.40166 28.7379 10.8313M41.4479 28.6914H33.8702C33.6535 28.6914 33.4456 28.6053 33.2924 28.4521C33.1391 28.2988 33.053 28.091 33.053 27.8742V24.9193C33.053 24.7026 33.1391 24.4947 33.2924 24.3415C33.4456 24.1882 33.6535 24.1021 33.8702 24.1021H41.4479C41.6646 24.1021 41.8724 24.1882 42.0257 24.3415C42.1789 24.4947 42.265 24.7026 42.265 24.9193V27.8742C42.2651 27.9815 42.2439 28.0878 42.2029 28.187C42.1618 28.2861 42.1016 28.3762 42.0257 28.4521C41.9498 28.528 41.8597 28.5882 41.7606 28.6292C41.6614 28.6703 41.5552 28.6914 41.4479 28.6914Z" stroke="#52006A" stroke-width="1.46" stroke-miterlimit="10" stroke-linecap="round" stroke-linejoin="round"/>
  <rect x="46" y="29" width="9" height="12" fill="#F6F2F7"/>
  <path d="M59.3615 21.5748L59.3615 21.5748L59.4407 21.654L59.4838 21.6971L59.5267 21.6538L60.6469 20.5191L60.647 20.5191C60.7903 20.3739 60.961 20.2586 61.1492 20.1799C61.3374 20.1012 61.5394 20.0606 61.7435 20.0606L59.3615 21.5748ZM59.3615 21.5748C59.1769 21.3903 58.8773 21.3902 58.6925 21.5749L44.5161 35.7513C43.8499 36.4188 43.3555 37.238 43.0752 38.1385L42.0821 41.342C42.0566 41.4243 42.054 41.512 42.0747 41.5956C42.0954 41.6793 42.1385 41.7557 42.1994 41.8166C42.2603 41.8775 42.3367 41.9207 42.4204 41.9414C42.504 41.9621 42.5917 41.9596 42.674 41.9341L45.8773 40.9407C46.7779 40.6605 47.5971 40.166 48.2647 39.4996L53.7584 34.0059L53.7584 34.0058L54.5135 33.2512L54.5135 33.2512L55.6802 32.0843L55.6802 32.0842L62.0692 25.6954L62.1134 25.6511L62.1562 25.6967C62.77 26.3505 62.7538 27.3738 62.1194 28.008C62.1194 28.008 62.1194 28.008 62.1194 28.008L57.8485 32.2792L57.8485 32.2793C57.6637 32.464 57.6637 32.7635 57.8483 32.9481C58.0331 33.1329 58.3326 33.1329 58.5174 32.9481L62.7886 28.6771C63.0316 28.4341 63.2241 28.1454 63.3552 27.8277C63.4862 27.51 63.5532 27.1695 63.5522 26.8259L63.5522 26.8259C63.5512 26.4822 63.4823 26.1421 63.3495 25.8251C63.2166 25.5081 63.0224 25.2206 62.778 24.9789L62.778 24.9789L62.3636 24.5691L62.3202 24.5262M59.3615 21.5748L62.3202 24.5262M62.3202 24.5262L62.3633 24.4831M62.3202 24.5262L62.3633 24.4831M62.3633 24.4831L63.4898 23.3567C63.4898 23.3567 63.4898 23.3566 63.4898 23.3566C64.0863 22.7568 64.0897 21.789 63.4972 21.1852L62.84 20.5191C62.6967 20.3739 62.526 20.2586 62.3377 20.1799C62.1495 20.1012 61.9475 20.0606 61.7435 20.0606L62.3633 24.4831ZM62.8238 21.8499L62.8237 21.8498L62.1666 21.1836C62.1113 21.1276 62.0455 21.0831 61.9728 21.0527C61.9002 21.0223 61.8223 21.0067 61.7435 21.0067L62.8238 21.8499ZM62.8238 21.8499C63.0524 22.0827 63.051 22.4562 62.821 22.6873L62.8209 22.6874L61.69 23.8179L61.6472 23.8607L61.6043 23.8179L60.1955 22.4087L60.153 22.3661M62.8238 21.8499L60.153 22.3661M60.153 22.3661L60.1952 22.3233M60.153 22.3661L60.1952 22.3233M60.1952 22.3233L61.3203 21.1836C61.3203 21.1836 61.3203 21.1836 61.3203 21.1836C61.3756 21.1276 61.4415 21.0831 61.5142 21.0527C61.5868 21.0223 61.6648 21.0067 61.7435 21.0067L60.1952 22.3233ZM61.3944 24.946L61.4373 24.9889L61.3944 25.0317L55.731 30.6954L55.6881 30.7382L55.6453 30.6954L53.3205 28.3707L53.2776 28.3278L53.3205 28.2849L58.9842 22.6213L59.027 22.5784L59.0699 22.6213L61.3944 24.946ZM54.9761 31.3644L55.0189 31.4072L54.9761 31.4501L53.8441 32.5823L53.8013 32.6251L53.7584 32.5823L51.4337 30.2575L51.3908 30.2146L51.4337 30.1718L52.5658 29.0396L52.6087 28.9967L52.6515 29.0396L54.9761 31.3644ZM53.0893 33.2512L53.1322 33.294L53.0893 33.3369L47.5953 38.8307L47.5953 38.8307C47.5392 38.8867 47.4811 38.9415 47.4224 38.9947L47.3796 39.0334L47.3389 38.9926L45.0232 36.677L44.9826 36.6364L45.021 36.5937C45.0743 36.5345 45.129 36.4767 45.1852 36.4203L45.1853 36.4202L50.6788 30.9264L50.7217 30.8836L50.7645 30.9264L53.0893 33.2512ZM45.5971 40.0368L45.597 40.0369L43.3615 40.73L43.2516 40.7641L43.2857 40.6542L43.9788 38.4189L43.9788 38.4188C44.0799 38.0935 44.215 37.7797 44.3818 37.4826L44.4209 37.4128L44.4775 37.4694L46.5465 39.5384L46.603 39.595L46.5333 39.6341C46.2362 39.8008 45.9224 39.9358 45.5971 40.0368Z" fill="#52006A" stroke="#52006A" stroke-width="0.1212"/>
</svg>