<svg width="52" height="53" viewBox="0 0 52 53" fill="none" xmlns="http://www.w3.org/2000/svg">
<path d="M20.5124 11.8707C20.0206 11.8707 19.6215 12.2698 19.6215 12.7616C19.6215 13.2534 20.0206 13.6526 20.5124 13.6526C21.0042 13.6526 21.4034 13.2534 21.4034 12.7616C21.4034 12.2698 21.0042 11.8707 20.5124 11.8707ZM25.8581 18.9983C25.3669 18.9983 24.9672 18.5986 24.9672 18.1073C24.9672 17.616 25.3669 17.2164 25.8581 17.2164C26.1737 17.2164 26.5069 17.3774 26.8217 17.6821C27.1755 18.0243 27.7394 18.0149 28.0816 17.6614C28.4237 17.3078 28.4145 16.7437 28.0609 16.4015C27.6088 15.964 27.1563 15.7165 26.7491 15.5814V14.5435C26.7491 14.0514 26.3501 13.6526 25.8581 13.6526C25.3662 13.6526 24.9672 14.0514 24.9672 14.5435V15.5877C23.9302 15.9555 23.1853 16.9458 23.1853 18.1073C23.1853 19.5811 24.3843 20.7802 25.8581 20.7802C26.3494 20.7802 26.7491 21.1799 26.7491 21.6711C26.7491 22.1624 26.3494 22.5621 25.8581 22.5621C25.4775 22.5621 25.0666 22.3227 24.7012 21.8881C24.3847 21.5114 23.8226 21.4628 23.446 21.7795C23.0693 22.0961 23.0207 22.6581 23.3373 23.0347C23.8136 23.6013 24.3736 23.9961 24.9672 24.1951V25.2349C24.9672 25.727 25.3662 26.1259 25.8581 26.1259C26.3501 26.1259 26.7491 25.727 26.7491 25.2349V24.1907C27.7861 23.8229 28.531 22.8327 28.531 21.6711C28.531 20.1973 27.3319 18.9983 25.8581 18.9983ZM45.1027 19.5328C43.1376 19.5328 41.5389 21.1316 41.5389 23.0966V29.4464C40.3553 29.1416 39.0493 29.4564 38.1282 30.3774L32.1531 36.3526C31.3111 37.1933 30.8475 38.3124 30.8475 39.5035V44.7467H29.9565C29.4645 44.7467 29.0656 45.1456 29.0656 45.6377V51.2507C29.0656 51.7427 29.4645 52.1416 29.9565 52.1416H42.4298C42.9218 52.1416 43.3208 51.7427 43.3208 51.2507V45.6377C43.3208 45.1456 42.9218 44.7467 42.4298 44.7467H41.5389V44.3262C41.5389 44.092 41.634 43.8624 41.8001 43.6964L47.3614 38.1351C48.203 37.2934 48.6665 36.1745 48.6665 34.9846V23.0966C48.6665 21.1316 47.0677 19.5328 45.1027 19.5328ZM41.5389 50.3597H30.8475V46.5286H41.5389V50.3597ZM46.8846 34.9846C46.8846 35.6986 46.6064 36.37 46.1013 36.8751L40.54 42.4364C40.0423 42.9341 39.757 43.6229 39.757 44.3262V44.7467H32.6294V39.5035C32.6294 38.7888 32.9073 38.1175 33.4126 37.613L39.3882 31.6374C40.0569 30.9685 41.1313 30.9385 41.8339 31.569C41.8389 31.5734 41.844 31.578 41.8492 31.5823C41.8695 31.5997 41.8886 31.6184 41.9078 31.6376C42.2444 31.974 42.4298 32.4212 42.4298 32.8971C42.4298 33.373 42.2444 33.8202 41.9076 34.1568L37.4805 38.5839C37.1326 38.9319 37.1326 39.496 37.4805 39.844C37.8285 40.1919 38.3925 40.192 38.7406 39.844L43.1675 35.4172C43.8408 34.7441 44.2117 33.8493 44.2117 32.8971C44.2117 32.0204 43.8965 31.1925 43.3208 30.5414V23.0966C43.3208 22.1141 44.1201 21.3147 45.1027 21.3147C46.0852 21.3147 46.8846 22.1141 46.8846 23.0966V34.9846ZM21.7598 44.7467H20.8688V39.5035C20.8688 38.3124 20.4052 37.1933 19.5638 36.353L13.5881 30.3774C12.667 29.4562 11.3609 29.1416 10.1774 29.4464V23.0966C10.1774 21.1316 8.57869 19.5328 6.61361 19.5328C4.64853 19.5328 3.0498 21.1316 3.0498 23.0966V34.9846C3.0498 36.1745 3.51328 37.2934 4.35487 38.1351L9.91618 43.6963C10.0828 43.8637 10.1767 44.09 10.1774 44.3262V44.7467H9.28646C8.79448 44.7467 8.39551 45.1456 8.39551 45.6377V51.2507C8.39551 51.7427 8.79448 52.1416 9.28646 52.1416H21.7598C22.2517 52.1416 22.6507 51.7427 22.6507 51.2507V45.6377C22.6507 45.1456 22.2517 44.7467 21.7598 44.7467ZM5.61494 36.8752C5.10986 36.37 4.83171 35.6986 4.83171 34.9846V23.0966C4.83171 22.1141 5.63107 21.3147 6.61361 21.3147C7.59615 21.3147 8.39551 22.1141 8.39551 23.0966V30.5413C7.81978 31.1924 7.50456 32.0202 7.50456 32.8971C7.50456 33.8493 7.87546 34.7441 8.54866 35.4168L13.0034 39.8715C13.3514 40.2195 13.9154 40.2195 14.2635 39.8715C14.6114 39.5236 14.6114 38.9595 14.2635 38.6115L9.80847 34.1565C9.47187 33.8202 9.28646 33.373 9.28646 32.8971C9.28646 32.4212 9.47187 31.974 9.8082 31.6377C9.82762 31.6184 9.84678 31.5997 9.867 31.5823L9.88233 31.569C10.5848 30.9385 11.6592 30.9686 12.328 31.6374L18.304 37.6133C18.8088 38.1175 19.0868 38.7887 19.0868 39.5034V44.7467H11.9592V44.3262C11.9593 43.6229 11.6739 42.9341 11.1763 42.4364L5.61494 36.8752ZM20.8688 50.3597H10.1774V46.5286H20.8688V50.3597Z" fill="#52006A"/>
<path d="M25.8584 6.52496C18.4893 6.52496 12.4941 12.5202 12.4941 19.8892C12.4941 27.2583 18.4893 33.2535 25.8584 33.2535C33.2274 33.2535 39.2227 27.2583 39.2227 19.8892C39.2227 12.5202 33.2274 6.52496 25.8584 6.52496ZM25.8584 31.4716C19.4718 31.4716 14.276 26.2757 14.276 19.8892C14.276 13.5027 19.4718 8.30686 25.8584 8.30686C32.245 8.30686 37.4408 13.5027 37.4408 19.8892C37.4408 26.2757 32.245 31.4716 25.8584 31.4716Z" fill="#52006A"/>
<path d="M32.0104 12.2599C29.6921 10.388 26.6579 9.68205 23.6871 10.3226C23.2061 10.4263 22.9002 10.9002 23.0039 11.3813C23.1076 11.8622 23.5817 12.1678 24.0626 12.0644C26.5046 11.5378 28.9936 12.1143 30.8911 13.6462C32.7884 15.1782 33.8766 17.4536 33.8766 19.8892C33.8766 24.3106 30.2795 27.9078 25.8581 27.9078C21.4366 27.9078 17.8395 24.3106 17.8395 19.8892C17.8395 18.5685 18.1674 17.2593 18.7877 16.1034C19.0203 15.6699 18.8574 15.1298 18.4239 14.897C17.9903 14.6643 17.4501 14.8273 17.2175 15.2608C16.4587 16.675 16.0576 18.2754 16.0576 19.8892C16.0576 25.2932 20.4541 29.6897 25.8581 29.6897C31.262 29.6897 35.6585 25.2932 35.6585 19.8892C35.6585 16.9125 34.3289 14.1317 32.0104 12.2599Z" fill="#52006A"/>
<path d="M49.3313 12.5361L47.975 13.8916V5.13761C47.975 4.93755 47.8955 4.74569 47.7541 4.60422C47.6126 4.46276 47.4207 4.38329 47.2207 4.38329C47.0206 4.38329 46.8288 4.46276 46.6873 4.60422C46.5458 4.74569 46.4664 4.93755 46.4664 5.13761V13.8916L45.1101 12.5361C44.9678 12.3987 44.7773 12.3226 44.5795 12.3243C44.3817 12.3261 44.1925 12.4054 44.0526 12.5453C43.9128 12.6851 43.8335 12.8743 43.8317 13.0721C43.83 13.2699 43.906 13.4604 44.0435 13.6027L46.6866 16.2459C46.7924 16.3509 46.9269 16.4225 47.0731 16.4514C47.2194 16.4804 47.371 16.4656 47.5088 16.4088C47.5315 16.5566 50.3323 13.6329 50.3979 13.6027C50.5353 13.4604 50.6114 13.2699 50.6096 13.0721C50.6079 12.8743 50.5286 12.6851 50.3887 12.5453C50.2489 12.4054 50.0597 12.3261 49.8619 12.3243C49.6641 12.3226 49.4736 12.3987 49.3313 12.5361ZM50.7457 0.858307C50.5456 0.858307 50.3537 0.93778 50.2123 1.07924C50.0708 1.22071 49.9913 1.41258 49.9913 1.61264V8.66259C49.9913 8.86265 50.0708 9.05452 50.2123 9.19598C50.3537 9.33744 50.5456 9.41692 50.7457 9.41692C50.9457 9.41692 51.1376 9.33744 51.2791 9.19598C51.4205 9.05452 51.5 8.86265 51.5 8.66259V1.61264C51.5 1.41258 51.4205 1.22071 51.2791 1.07924C51.1376 0.93778 50.9457 0.858307 50.7457 0.858307ZM43.6957 9.41692C43.8958 9.41692 44.0876 9.33744 44.2291 9.19598C44.3706 9.05452 44.45 8.86265 44.45 8.66259V1.61264C44.45 1.41258 44.3706 1.22071 44.2291 1.07924C44.0876 0.93778 43.8958 0.858307 43.6957 0.858307C43.4957 0.858307 43.3038 0.93778 43.1623 1.07924C43.0209 1.22071 42.9414 1.41258 42.9414 1.61264V8.66259C42.9414 8.86265 43.0209 9.05452 43.1623 9.19598C43.3038 9.33744 43.4957 9.41692 43.6957 9.41692ZM7.95654 13.6027C8.09395 13.4604 8.16998 13.2699 8.16826 13.0721C8.16654 12.8743 8.08721 12.6851 7.94735 12.5453C7.80749 12.4054 7.6183 12.3261 7.42052 12.3243C7.22273 12.3226 7.03219 12.3987 6.88992 12.5361L5.53364 13.8916V5.13761C5.53364 4.93755 5.45416 4.74569 5.3127 4.60422C5.17124 4.46276 4.97937 4.38328 4.77931 4.38328C4.57925 4.38328 4.38738 4.46276 4.24592 4.60422C4.10445 4.74569 4.02498 4.93755 4.02498 5.13761V13.8916L2.6687 12.5361C2.52643 12.3987 2.33588 12.3226 2.1381 12.3243C1.94032 12.3261 1.75112 12.4054 1.61126 12.5453C1.4714 12.6851 1.39207 12.8743 1.39035 13.0721C1.38864 13.2699 1.46467 13.4604 1.60207 13.6027L4.24524 16.2459C4.35103 16.3509 4.48549 16.4225 4.63176 16.4514C4.77802 16.4804 4.92959 16.4656 5.06746 16.4088C5.09009 16.5566 7.89016 13.6329 7.95654 13.6027ZM8.30429 9.41692C8.50435 9.41692 8.69621 9.33744 8.83768 9.19598C8.97914 9.05452 9.05862 8.86265 9.05862 8.66259V1.61264C9.05862 1.41258 8.97914 1.22071 8.83768 1.07924C8.69621 0.93778 8.50435 0.858307 8.30429 0.858307C8.10423 0.858307 7.91236 0.93778 7.7709 1.07924C7.62943 1.22071 7.54996 1.41258 7.54996 1.61264V8.66259C7.54996 8.86265 7.62943 9.05452 7.7709 9.19598C7.91236 9.33744 8.10423 9.41692 8.30429 9.41692ZM2.00866 8.66259V1.61264C2.00866 1.41258 1.92918 1.22071 1.78772 1.07924C1.64626 0.93778 1.45439 0.858307 1.25433 0.858307C1.05427 0.858307 0.862402 0.93778 0.720938 1.07924C0.579474 1.22071 0.5 1.41258 0.5 1.61264V8.66259C0.5 8.86265 0.579474 9.05452 0.720938 9.19598C0.862402 9.33744 1.05427 9.41692 1.25433 9.41692C1.45439 9.41692 1.64626 9.33744 1.78772 9.19598C1.92918 9.05452 2.00866 8.86265 2.00866 8.66259Z" fill="#52006A"/>
</svg>
