<svg xmlns="http://www.w3.org/2000/svg" width="54" height="54" viewBox="0 0 54 54" fill="none">
  <path d="M37.0366 20.4613C27.87 20.4613 20.4574 27.9085 20.4574 37.0731C20.4574 46.238 27.8704 53.65 37.0366 53.65C46.2023 53.65 53.6506 46.2384 53.6506 37.0731C53.6506 27.9081 46.2027 20.4613 37.0366 20.4613ZM37.0366 21.8425C45.4402 21.8425 52.2693 28.6707 52.2693 37.0731C52.2693 45.4749 45.4406 52.2688 37.0366 52.2688C28.633 52.2688 21.8387 45.4754 21.8387 37.0731C21.8387 28.6702 28.6334 21.8425 37.0366 21.8425Z" fill="#52006A" stroke="#52006A" stroke-width="0.3"/>
  <path d="M32.7551 21.9943L32.6291 21.9129L32.7551 21.9943C32.8078 21.9128 32.8429 21.8213 32.8584 21.7256C33.8305 18.4806 33.8038 15.0309 32.7496 11.8105C30.6112 5.27787 24.8024 0.951384 18.3532 0.407655C16.203 0.226403 13.9834 0.469289 11.806 1.18195C3.09478 4.0327 -1.67546 13.4123 1.17589 22.1227C4.02675 30.8317 13.4057 35.6011 22.1164 32.7524C22.207 32.7269 22.2914 32.6834 22.3649 32.6247C22.4392 32.5651 22.5008 32.4911 22.5456 32.4069C22.5905 32.3228 22.6177 32.2305 22.6257 32.1355C22.6337 32.0405 22.6223 31.9449 22.5921 31.8545C22.562 31.7641 22.5138 31.6807 22.4504 31.6096C22.387 31.5384 22.3098 31.4809 22.2234 31.4405C22.1371 31.4001 22.0434 31.3777 21.9482 31.3747C21.8544 31.3717 21.7611 31.3876 21.6736 31.4212C13.6878 34.0324 5.12103 29.6996 2.50745 21.7154C-0.10674 13.7295 4.22695 5.1268 12.2132 2.51323C20.1998 -0.100323 28.804 4.26696 31.4181 12.2527C32.3829 15.1999 32.4145 18.3543 31.5246 21.3254C31.4849 21.4138 31.4638 21.5096 31.4629 21.6066C31.4619 21.7075 31.4827 21.8075 31.5239 21.8997C31.5651 21.9919 31.6257 22.0741 31.7015 22.1407C31.7773 22.2074 31.8666 22.2569 31.9633 22.2859C32.06 22.315 32.1619 22.3228 32.2618 22.3089C32.3618 22.295 32.4577 22.2597 32.5428 22.2054C32.6279 22.1511 32.7003 22.0791 32.7551 21.9943Z" fill="#52006A" stroke="#52006A" stroke-width="0.3"/>
  <path d="M24.5769 47.5503L24.51 47.6246C24.4456 47.5666 24.3934 47.4965 24.3565 47.4184C24.3196 47.3402 24.2987 47.2557 24.2951 47.1694C24.2915 47.0832 24.3053 46.9972 24.3356 46.9163C24.3659 46.8355 24.4121 46.7613 24.4715 46.6983C24.5309 46.6352 24.6023 46.5845 24.6815 46.5489C24.7606 46.5133 24.846 46.4933 24.933 46.4904C24.9502 46.4897 24.9674 46.4896 24.9846 46.4903H28.4952V26.462C28.4878 26.2986 28.5421 26.1383 28.6473 26.0129C28.7532 25.887 28.9027 25.8056 29.066 25.7852L29.0784 25.8845M24.5769 47.5503L36.8118 38.3943C36.8118 38.3943 36.8118 38.3943 36.8118 38.3943C36.6633 38.4259 36.5304 38.5083 36.4362 38.6273C36.3421 38.7461 36.2924 38.8938 36.2954 39.0452V46.4903H33.7113V31.27C33.7148 31.1805 33.6998 31.0912 33.6673 31.0078C33.6345 30.9236 33.5846 30.8472 33.5207 30.7833C33.4568 30.7194 33.3804 30.6696 33.2962 30.6368C33.2121 30.604 33.1221 30.5891 33.0319 30.5929M24.5769 47.5503L24.51 47.6246C24.5744 47.6826 24.6498 47.7275 24.7317 47.7566C24.8128 47.7855 24.8989 47.7983 24.9849 47.7946H48.981H48.9816V47.6946M24.5769 47.5503L49.507 46.9294C49.5357 46.9969 49.5504 47.0693 49.5504 47.1425C49.5504 47.2156 49.5357 47.288 49.507 47.3555C49.4783 47.423 49.4363 47.4842 49.3834 47.5356C49.3304 47.587 49.2677 47.6275 49.1987 47.6548C49.1298 47.6821 49.056 47.6956 48.9816 47.6946M29.0784 25.8845L29.0658 25.7853C29.1604 25.7732 29.2564 25.7821 29.3472 25.8112C29.4379 25.8403 29.5213 25.8889 29.5912 25.9537C29.6612 26.0185 29.7161 26.0978 29.7521 26.1861C29.7877 26.2735 29.804 26.3677 29.7996 26.462V46.4903H32.4068V31.27C32.4035 31.1851 32.4168 31.1003 32.446 31.0205C32.4755 30.94 32.5205 30.8661 32.5786 30.803C32.6366 30.7399 32.7066 30.6889 32.7844 30.6528C32.8621 30.6168 32.9462 30.5964 33.0319 30.5929M29.0784 25.8845C28.9401 25.9017 28.8135 25.9706 28.7239 26.0773C28.6343 26.1839 28.5883 26.3205 28.5952 26.4596L29.0784 25.8845ZM33.0319 30.5929C33.0319 30.5929 33.0319 30.5929 33.0319 30.5929L33.036 30.6928L33.0318 30.5929C33.0318 30.5929 33.0318 30.5929 33.0319 30.5929ZM48.9816 47.6946H24.9827H48.9816ZM45.4231 46.4903H48.981L44.635 38.3943M45.4231 46.4903V39.0452M45.4231 46.4903H45.3231M45.4231 46.4903V46.5903L45.3231 46.4903M45.4231 39.0452C45.4251 38.9472 45.405 38.8501 45.3642 38.761C45.3233 38.6715 45.2626 38.5924 45.1868 38.5297C45.111 38.467 45.022 38.4222 44.9264 38.3987C44.8309 38.3753 44.7313 38.3738 44.635 38.3943M45.4231 39.0452C45.4231 39.0456 45.4231 39.046 45.4231 39.0464L45.3231 39.0442M45.4231 39.0452V39.0442H45.3231M44.635 38.3943L44.6558 38.4921C44.7373 38.4747 44.8217 38.476 44.9026 38.4958C44.9835 38.5157 45.0589 38.5536 45.1231 38.6067C45.1873 38.6598 45.2386 38.7268 45.2733 38.8025C45.3079 38.8783 45.3249 38.9609 45.3231 39.0442M44.635 38.3943L45.3231 46.4903M45.3231 39.0442V46.4903M44.1187 39.0452C44.1156 38.8938 44.1654 38.7461 44.2594 38.6273C44.3537 38.5083 44.4865 38.4259 44.635 38.3943L44.1187 39.0452ZM44.1187 39.0452V46.4903H41.5115V35.1571C41.5135 35.0591 41.4933 34.962 41.4526 34.8728C41.4117 34.7833 41.351 34.7043 41.2752 34.6415C41.1994 34.5788 41.1104 34.5341 41.0148 34.5106C40.9193 34.4872 40.8197 34.4856 40.7234 34.5061L44.1187 39.0452ZM40.7234 34.5061C40.5749 34.5377 40.442 34.6202 40.3478 34.7392C40.2538 34.858 40.204 35.0057 40.207 35.1571V46.4903H37.5999V39.0453L40.7234 34.5061Z" fill="#52006A" stroke="#52006A" stroke-width="0.2"/>
  <path d="M5.83019 9.62313L5.83019 9.62312C5.81584 9.27882 6.11085 8.95825 6.45515 8.94387C6.47253 8.94315 6.48995 8.94312 6.50734 8.94378H9.49658H9.49856L9.49856 8.9438C9.79119 8.94961 10.0613 9.17214 10.1232 9.45809L12.9798 20.723H23.9668L24.5206 19.0825H16.3584C16.0162 19.115 15.6799 18.8406 15.6442 18.4983C15.6084 18.1543 15.884 17.8146 16.228 17.7787L16.2384 17.7776V17.7782H16.2555H16.2726H16.2897H16.3067H16.3238H16.3409H16.358H16.3751H16.3922H16.4093H16.4264H16.4435H16.4606H16.4777H16.4948H16.5119H16.529H16.5461H16.5632H16.5803H16.5974H16.6145H16.6316H16.6487H16.6659H16.683H16.7001H16.7172H16.7343H16.7514H16.7685H16.7856H16.8027H16.8198H16.837H16.8541H16.8712H16.8883H16.9054H16.9225H16.9396H16.9568H16.9739H16.991H17.0081H17.0252H17.0424H17.0595H17.0766H17.0937H17.1108H17.128H17.1451H17.1622H17.1793H17.1965H17.2136H17.2307H17.2478H17.265H17.2821H17.2992H17.3164H17.3335H17.3506H17.3678H17.3849H17.402H17.4192H17.4363H17.4534H17.4706H17.4877H17.5048H17.522H17.5391H17.5562H17.5734H17.5905H17.6076H17.6248H17.6419H17.6591H17.6762H17.6933H17.7105H17.7276H17.7448H17.7619H17.7791H17.7962H17.8133H17.8305H17.8476H17.8648H17.8819H17.8991H17.9162H17.9334H17.9505H17.9677H17.9848H18.002H18.0191H18.0363H18.0534H18.0706H18.0877H18.1049H18.122H18.1392H18.1563H18.1735H18.1906H18.2078H18.2249H18.2421H18.2593H18.2764H18.2936H18.3107H18.3279H18.345H18.3622H18.3794H18.3965H18.4137H18.4308H18.448H18.4652H18.4823H18.4995H18.5166H18.5338H18.551H18.5681H18.5853H18.6025H18.6196H18.6368H18.654H18.6711H18.6883H18.7055H18.7226H18.7398H18.757H18.7741H18.7913H18.8085H18.8256H18.8428H18.86H18.8771H18.8943H18.9115H18.9286H18.9458H18.963H18.9802H18.9973H19.0145H19.0317H19.0489H19.066H19.0832H19.1004H19.1175H19.1347H19.1519H19.1691H19.1862H19.2034H19.2206H19.2378H19.2549H19.2721H19.2893H19.3065H19.3237H19.3408H19.358H19.3752H19.3924H19.4096H19.4267H19.4439H19.4611H19.4783H19.4955H19.5126H19.5298H19.547H19.5642H19.5814H19.5985H19.6157H19.6329H19.6501H19.6673H19.6845H19.7016H19.7188H19.736H19.7532H19.7704H19.7876H19.8047H19.8219H19.8391H19.8563H19.8735H19.8907H19.9079H19.925H19.9422H19.9594H19.9766H19.9938H20.011H20.0282H20.0453H20.0625H20.0797H20.0969H20.1141H20.1313H20.1485H20.1657H20.1829H20.2H20.2172H20.2344H20.2516H20.2688H20.286H20.3032H20.3204H20.3376H20.3547H20.3719H20.3891H20.4063H20.4235H20.4407H20.4579H20.4751H20.4923H20.5095H20.5267H20.5439H20.561H20.5782H20.5954H20.6126H20.6298H20.647H20.6642H20.6814H20.6986H20.7158H20.733H20.7502H20.7674H20.7845H20.8017H20.8189H20.8361H20.8533H20.8705H20.8877H20.9049H20.9221H20.9393H20.9565H20.9737H20.9909H21.0081H21.0253H21.0425H21.0596H21.0768H21.094H21.1112H21.1284H21.1456H21.1628H21.18H21.1972H21.2144H21.2316H21.2488H21.266H21.2832H21.3004H21.3176H21.3348H21.352H21.3691H21.3863H21.4035H21.4207H21.4379H21.4551H21.4723H21.4895H21.5067H21.5239H21.5411H21.5583H21.5755H21.5927H21.6099H21.6271H21.6443H21.6615H21.6787H21.6958H21.713H21.7302H21.7474H21.7646H21.7818H21.799H21.8162H21.8334H21.8506H21.8678H21.885H21.9022H21.9194H21.9366H21.9538H21.9709H21.9881H22.0053H22.0225H22.0397H22.0569H22.0741H22.0913H22.1085H22.1257H22.1429H22.1601H22.1773H22.1945H22.2116H22.2288H22.246H22.2632H22.2804H22.2976H22.3148H22.332H22.3492H22.3664H22.3836H22.4008H22.4179H22.4351H22.4523H22.4695H22.4867H22.5039H22.5211H22.5383H22.5555H22.5727H22.5898H22.607H22.6242H22.6414H22.6586H22.6758H22.693H22.7102H22.7274H22.7445H22.7617H22.7789H22.7961H22.8133H22.8305H22.8477H22.8649H22.882H22.8992H22.9164H22.9336H22.9508H22.968H22.9852H23.0023H23.0195H23.0367H23.0539H23.0711H23.0883H23.1054H23.1226H23.1398H23.157H23.1742H23.1914H23.2085H23.2257H23.2429H23.2601H23.2773H23.2944H23.3116H23.3288H23.346H23.3632H23.3803H23.3975H23.4147H23.4319H23.4491H23.4662H23.4834H23.5006H23.5178H23.535H23.5521H23.5693H23.5865H23.6037H23.6208H23.638H23.6552H23.6724H23.6895H23.7067H23.7239H23.7411H23.7582H23.7754H23.7926H23.8097H23.8269H23.8441H23.8613H23.8784H23.8956H23.9128H23.9299H23.9471H23.9643H23.9815H23.9986H24.0158H24.033H24.0501H24.0673H24.0845H24.1016H24.1188H24.136H24.1531H24.1703H24.1875H24.2046H24.2218H24.2389H24.2561H24.2733H24.2904H24.3076H24.3248H24.3419H24.3591H24.3762H24.3934H24.4106H24.4277H24.4449H24.462H24.4792H24.4964H24.5135H24.5307H24.5478H24.565H24.5821H24.5993H24.6164H24.6336H24.6508H24.6679H24.6851H24.7022H24.7194H24.7365H24.7537H24.7708H24.788H24.8051H24.8223H24.8394H24.8566H24.8737H24.8909H24.908H24.9252H24.9423H24.9562L25.51 16.1377H14.516C14.1715 16.1598 13.8432 15.8715 13.8216 15.5266C13.8 15.1806 14.092 14.8523 14.4382 14.8336L14.4436 14.8333V14.8334H14.4662H14.4889H14.5115H14.5341H14.5567H14.5793H14.6019H14.6245H14.6471H14.6698H14.6924H14.715H14.7376H14.7602H14.7828H14.8054H14.8281H14.8507H14.8733H14.8959H14.9185H14.9411H14.9638H14.9864H15.009H15.0316H15.0542H15.0769H15.0995H15.1221H15.1447H15.1673H15.19H15.2126H15.2352H15.2578H15.2804H15.3031H15.3257H15.3483H15.3709H15.3936H15.4162H15.4388H15.4614H15.4841H15.5067H15.5293H15.5519H15.5746H15.5972H15.6198H15.6424H15.6651H15.6877H15.7103H15.733H15.7556H15.7782H15.8008H15.8235H15.8461H15.8687H15.8914H15.914H15.9366H15.9592H15.9819H16.0045H16.0271H16.0498H16.0724H16.095H16.1177H16.1403H16.1629H16.1856H16.2082H16.2308H16.2535H16.2761H16.2987H16.3214H16.344H16.3667H16.3893H16.4119H16.4346H16.4572H16.4798H16.5025H16.5251H16.5477H16.5704H16.593H16.6157H16.6383H16.6609H16.6836H16.7062H16.7289H16.7515H16.7741H16.7968H16.8194H16.8421H16.8647H16.8873H16.91H16.9326H16.9553H16.9779H17.0006H17.0232H17.0458H17.0685H17.0911H17.1138H17.1364H17.1591H17.1817H17.2043H17.227H17.2496H17.2723H17.2949H17.3176H17.3402H17.3629H17.3855H17.4082H17.4308H17.4535H17.4761H17.4987H17.5214H17.544H17.5667H17.5893H17.612H17.6346H17.6573H17.6799H17.7026H17.7252H17.7479H17.7705H17.7932H17.8158H17.8385H17.8611H17.8838H17.9064H17.9291H17.9517H17.9744H17.997H18.0197H18.0423H18.065H18.0876H18.1103H18.1329H18.1556H18.1782H18.2009H18.2235H18.2462H18.2689H18.2915H18.3142H18.3368H18.3595H18.3821H18.4048H18.4274H18.4501H18.4727H18.4954H18.518H18.5407H18.5634H18.586H18.6087H18.6313H18.654H18.6766H18.6993H18.7219H18.7446H18.7673H18.7899H18.8126H18.8352H18.8579H18.8805H18.9032H18.9259H18.9485H18.9712H18.9938H19.0165H19.0391H19.0618H19.0845H19.1071H19.1298H19.1524H19.1751H19.1978H19.2204H19.2431H19.2657H19.2884H19.311H19.3337H19.3564H19.379H19.4017H19.4243H19.447H19.4697H19.4923H19.515H19.5376H19.5603H19.583H19.6056H19.6283H19.6509H19.6736H19.6963H19.7189H19.7416H19.7643H19.7869H19.8096H19.8322H19.8549H19.8776H19.9002H19.9229H19.9455H19.9682H19.9909H20.0135H20.0362H20.0589H20.0815H20.1042H20.1268H20.1495H20.1722H20.1948H20.2175H20.2402H20.2628H20.2855H20.3081H20.3308H20.3535H20.3761H20.3988H20.4215H20.4441H20.4668H20.4894H20.5121H20.5348H20.5574H20.5801H20.6028H20.6254H20.6481H20.6708H20.6934H20.7161H20.7387H20.7614H20.7841H20.8067H20.8294H20.8521H20.8747H20.8974H20.9201H20.9427H20.9654H20.988H21.0107H21.0334H21.056H21.0787H21.1014H21.124H21.1467H21.1694H21.192H21.2147H21.2373H21.26H21.2827H21.3053H21.328H21.3507H21.3733H21.396H21.4187H21.4413H21.464H21.4866H21.5093H21.532H21.5546H21.5773H21.6H21.6226H21.6453H21.668H21.6906H21.7133H21.736H21.7586H21.7813H21.8039H21.8266H21.8493H21.8719H21.8946H21.9173H21.9399H21.9626H21.9853H22.0079H22.0306H22.0532H22.0759H22.0986H22.1212H22.1439H22.1666H22.1892H22.2119H22.2346H22.2572H22.2799H22.3025H22.3252H22.3479H22.3705H22.3932H22.4159H22.4385H22.4612H22.4838H22.5065H22.5292H22.5518H22.5745H22.5972H22.6198H22.6425H22.6651H22.6878H22.7105H22.7331H22.7558H22.7785H22.8011H22.8238H22.8464H22.8691H22.8918H22.9144H22.9371H22.9597H22.9824H23.0051H23.0277H23.0504H23.073H23.0957H23.1184H23.141H23.1637H23.1864H23.209H23.2317H23.2543H23.277H23.2997H23.3223H23.345H23.3676H23.3903H23.413H23.4356H23.4583H23.4809H23.5036H23.5262H23.5489H23.5716H23.5942H23.6169H23.6395H23.6622H23.6849H23.7075H23.7302H23.7528H23.7755H23.7981H23.8208H23.8435H23.8661H23.8888H23.9114H23.9341H23.9567H23.9794H24.0021H24.0247H24.0474H24.07H24.0927H24.1153H24.138H24.1606H24.1833H24.206H24.2286H24.2513H24.2739H24.2966H24.3192H24.3419H24.3645H24.3872H24.4098H24.4325H24.4552H24.4778H24.5005H24.5231H24.5458H24.5684H24.5911H24.6137H24.6364H24.659H24.6817H24.7043H24.727H24.7496H24.7723H24.7949H24.8176H24.8402H24.8629H24.8855H24.9082H24.9308H24.9535H24.9761H24.9988H25.0214H25.0441H25.0667H25.0894H25.112H25.1347H25.1573H25.18H25.2026H25.2253H25.2479H25.2706H25.2932H25.3159H25.3385H25.3612H25.3838H25.4064H25.4291H25.4517H25.4744H25.497H25.5197H25.5423H25.565H25.5876H25.6102H25.6329H25.6555H25.6782H25.7008H25.7235H25.7461H25.7688H25.7914H25.814H25.8367H25.8593H25.882H25.9046H25.9272H25.9499H25.9687L26.5224 13.1929H12.4885H12.4878V13.0929C12.1961 13.0971 11.9277 12.8325 11.9277 12.5408C11.9277 12.249 12.1961 11.9842 12.4878 11.9886L5.83019 9.62313ZM5.83019 9.62313C5.84451 9.9667 6.16384 10.2611 6.50732 10.2481H9.00456L11.8617 21.5378L11.8618 21.5383C11.9333 21.8152 12.2008 22.0245 12.4868 22.0273H12.4878H24.4298C24.6998 22.0273 24.9621 21.8506 25.0533 21.5926L25.0534 21.5923C25.6704 19.8291 26.2565 18.0773 26.8419 16.3274C27.24 15.1375 27.6377 13.9486 28.0447 12.7577L5.83019 9.62313ZM27.4203 11.8886H12.4885L27.9502 12.7248C28.0684 12.3906 27.7755 11.9832 27.421 11.9886V11.8886H27.4203Z" fill="#52006A" stroke="#52006A" stroke-width="0.2"/>
  <path d="M13.6988 23.6777C13.6127 23.684 13.5287 23.7073 13.4517 23.7462C13.3745 23.7852 13.3057 23.8391 13.2495 23.9048C13.1933 23.9705 13.1506 24.0467 13.124 24.1291C13.0974 24.2114 13.0875 24.2982 13.0946 24.3844C13.1018 24.4706 13.126 24.5545 13.1659 24.6313C13.2057 24.7081 13.2604 24.7762 13.3267 24.8317C13.3931 24.8872 13.4698 24.929 13.5524 24.9546C13.6334 24.9798 13.7186 24.989 13.8031 24.9817H16.789C16.8753 24.9831 16.961 24.9674 17.0412 24.9354C17.1217 24.9033 17.195 24.8556 17.2568 24.7949C17.3186 24.7342 17.3677 24.6617 17.4013 24.5819C17.4348 24.502 17.452 24.4162 17.452 24.3295C17.452 24.2429 17.4348 24.1571 17.4013 24.0773C17.3677 23.9974 17.3186 23.925 17.2568 23.8642C17.195 23.8035 17.1217 23.7558 17.0412 23.7237C16.9611 23.6917 16.8753 23.676 16.789 23.6774H13.8026C13.7681 23.6747 13.7333 23.6748 13.6988 23.6777Z" fill="#52006A" stroke="#52006A" stroke-width="0.2"/>
  <path d="M19.411 23.7516C19.4873 23.7111 19.5709 23.686 19.657 23.6779L19.411 23.7516ZM19.411 23.7516C19.3344 23.7922 19.2667 23.8477 19.2118 23.9146C19.1568 23.9816 19.1157 24.0589 19.0908 24.1418C19.0658 24.2248 19.0576 24.3119 19.0666 24.3981C19.0756 24.4843 19.1016 24.5678 19.1431 24.6439C19.1846 24.7199 19.2407 24.787 19.3083 24.8412C19.3759 24.8954 19.4535 24.9357 19.5368 24.9597C19.6182 24.9831 19.7033 24.9906 19.7874 24.9817M19.411 23.7516L19.7874 24.9817M19.7874 24.9817H22.7723C22.8586 24.9831 22.9443 24.9674 23.0245 24.9354C23.105 24.9034 23.1783 24.8556 23.2401 24.7949C23.3019 24.7342 23.351 24.6618 23.3845 24.5819C23.4181 24.502 23.4353 24.4162 23.4353 24.3295C23.4353 24.2429 23.4181 24.1572 23.3845 24.0773C23.351 23.9974 23.3019 23.925 23.2401 23.8643C23.1783 23.8036 23.105 23.7558 23.0245 23.7237C22.9443 23.6918 22.8586 23.676 22.7723 23.6774H19.7869L19.7874 24.9817Z" fill="#52006A" stroke="#52006A" stroke-width="0.2"/>
</svg>