<svg xmlns="http://www.w3.org/2000/svg" width="50" height="50" viewBox="0 0 50 50" fill="none">
  <path d="M12.5 31.25C12.2928 31.2566 12.0915 31.1807 11.9403 31.0389C11.7891 30.897 11.7004 30.701 11.6938 30.4938C11.6871 30.2866 11.7631 30.0852 11.9049 29.934C12.0467 29.7828 12.2428 29.6941 12.45 29.6875C13.2516 29.5586 18.8563 27.6664 20.3524 23.1891C20.6289 22.3609 20.8602 21.6172 21.0664 20.9516C22.1352 17.5172 22.7234 15.625 25.7813 15.625C28.9063 15.625 28.9063 20.5156 28.9063 23.4375C28.9063 26.2242 26.4938 29.2664 26.3906 29.3945C26.2601 29.553 26.0724 29.6537 25.8682 29.6748C25.664 29.696 25.4596 29.6359 25.2994 29.5076C25.1391 29.3792 25.0358 29.193 25.0118 28.9891C24.9878 28.7852 25.045 28.58 25.1711 28.418C25.193 28.3914 27.3438 25.6727 27.3438 23.4375C27.3438 21.5672 27.3438 17.1875 25.7813 17.1875C23.9383 17.1875 23.6445 17.9266 22.5586 21.4172C22.3492 22.0914 22.1149 22.8453 21.8352 23.6828C19.9875 29.2258 13.0289 31.25 12.5 31.25Z" fill="#52006A"/>
  <path d="M34.375 34.375H31.25C31.0428 34.375 30.8441 34.2927 30.6976 34.1462C30.5511 33.9997 30.4688 33.801 30.4688 33.5938C30.4688 33.3865 30.5511 33.1878 30.6976 33.0413C30.8441 32.8948 31.0428 32.8125 31.25 32.8125H34.375C34.7894 32.8125 35.1868 32.6479 35.4799 32.3549C35.7729 32.0618 35.9375 31.6644 35.9375 31.25C35.9375 30.8356 35.7729 30.4382 35.4799 30.1451C35.1868 29.8521 34.7894 29.6875 34.375 29.6875H25.7812C25.574 29.6875 25.3753 29.6052 25.2288 29.4587C25.0823 29.3122 25 29.1135 25 28.9062C25 28.699 25.0823 28.5003 25.2288 28.3538C25.3753 28.2073 25.574 28.125 25.7812 28.125H34.375C35.2038 28.125 35.9987 28.4542 36.5847 29.0403C37.1708 29.6263 37.5 30.4212 37.5 31.25C37.5 32.0788 37.1708 32.8737 36.5847 33.4597C35.9987 34.0458 35.2038 34.375 34.375 34.375Z" fill="#52006A"/>
  <path d="M33.5938 39.0625H31.25C31.0428 39.0625 30.8441 38.9802 30.6976 38.8337C30.5511 38.6872 30.4688 38.4885 30.4688 38.2812C30.4688 38.074 30.5511 37.8753 30.6976 37.7288C30.8441 37.5823 31.0428 37.5 31.25 37.5H33.5938C34.0082 37.5 34.4056 37.3354 34.6986 37.0424C34.9916 36.7493 35.1562 36.3519 35.1562 35.9375C35.1562 35.5231 34.9916 35.1257 34.6986 34.8326C34.4056 34.5396 34.0082 34.375 33.5938 34.375H31.25C31.0428 34.375 30.8441 34.2927 30.6976 34.1462C30.5511 33.9997 30.4688 33.801 30.4688 33.5938C30.4688 33.3865 30.5511 33.1878 30.6976 33.0413C30.8441 32.8948 31.0428 32.8125 31.25 32.8125H33.5938C34.4226 32.8125 35.2174 33.1417 35.8035 33.7278C36.3895 34.3138 36.7188 35.1087 36.7188 35.9375C36.7188 36.7663 36.3895 37.5612 35.8035 38.1472C35.2174 38.7333 34.4226 39.0625 33.5938 39.0625Z" fill="#52006A"/>
  <path d="M32.8125 43.75H31.25C31.0428 43.75 30.8441 43.6677 30.6976 43.5212C30.5511 43.3747 30.4688 43.176 30.4688 42.9688C30.4688 42.7615 30.5511 42.5628 30.6976 42.4163C30.8441 42.2698 31.0428 42.1875 31.25 42.1875H32.8125C33.2269 42.1875 33.6243 42.0229 33.9174 41.7299C34.2104 41.4368 34.375 41.0394 34.375 40.625C34.375 40.2106 34.2104 39.8132 33.9174 39.5201C33.6243 39.2271 33.2269 39.0625 32.8125 39.0625H31.25C31.0428 39.0625 30.8441 38.9802 30.6976 38.8337C30.5511 38.6872 30.4688 38.4885 30.4688 38.2812C30.4688 38.074 30.5511 37.8753 30.6976 37.7288C30.8441 37.5823 31.0428 37.5 31.25 37.5H32.8125C33.6413 37.5 34.4362 37.8292 35.0222 38.4153C35.6083 39.0013 35.9375 39.7962 35.9375 40.625C35.9375 41.4538 35.6083 42.2487 35.0222 42.8347C34.4362 43.4208 33.6413 43.75 32.8125 43.75Z" fill="#52006A"/>
  <path d="M32.0312 48.4375H12.5C12.2928 48.4375 12.0941 48.3552 11.9476 48.2087C11.8011 48.0622 11.7188 47.8635 11.7188 47.6562C11.7188 47.449 11.8011 47.2503 11.9476 47.1038C12.0941 46.9573 12.2928 46.875 12.5 46.875H32.0312C32.4457 46.875 32.8431 46.7104 33.1361 46.4174C33.4291 46.1243 33.5938 45.7269 33.5938 45.3125C33.5938 44.8981 33.4291 44.5007 33.1361 44.2076C32.8431 43.9146 32.4457 43.75 32.0312 43.75H31.25C31.0428 43.75 30.8441 43.6677 30.6976 43.5212C30.5511 43.3747 30.4688 43.176 30.4688 42.9688C30.4688 42.7615 30.5511 42.5628 30.6976 42.4163C30.8441 42.2698 31.0428 42.1875 31.25 42.1875H32.0312C32.8601 42.1875 33.6549 42.5167 34.241 43.1028C34.827 43.6888 35.1562 44.4837 35.1562 45.3125C35.1562 46.1413 34.827 46.9362 34.241 47.5222C33.6549 48.1083 32.8601 48.4375 32.0312 48.4375Z" fill="#52006A"/>
  <path d="M12.5 50H4.6875C4.4803 50 4.28159 49.9177 4.13507 49.7712C3.98856 49.6247 3.90625 49.4259 3.90625 49.2188V27.3438C3.90625 27.1365 3.98856 26.9378 4.13507 26.7913C4.28159 26.6448 4.4803 26.5625 4.6875 26.5625H12.5C12.7072 26.5625 12.9059 26.6448 13.0524 26.7913C13.1989 26.9378 13.2812 27.1365 13.2812 27.3438V49.2188C13.2812 49.4259 13.1989 49.6247 13.0524 49.7712C12.9059 49.9177 12.7072 50 12.5 50ZM5.46875 48.4375H11.7188V28.125H5.46875V48.4375ZM15.9375 20.3125C15.5348 20.3133 15.1477 20.1569 14.8586 19.8766L12.5 17.6039L10.1414 19.8766C9.87759 20.1308 9.53243 20.2836 9.16689 20.308C8.80135 20.3325 8.43892 20.227 8.14361 20.0101C7.84829 19.7933 7.63908 19.4791 7.55291 19.1231C7.46674 18.767 7.50915 18.3919 7.67266 18.0641L9.07891 15.2516L6.44531 14.2008C6.15636 14.0863 5.90861 13.8874 5.73441 13.63C5.56021 13.3726 5.46763 13.0686 5.46875 12.7578V12.4914C5.46937 12.0795 5.63328 11.6846 5.92456 11.3933C6.21584 11.102 6.61073 10.9381 7.02266 10.9375H10.2969L10.8281 8.28125C10.8999 7.9295 11.0907 7.61321 11.3682 7.38556C11.6458 7.15791 11.9933 7.03279 12.3523 7.03125H12.6336C12.9986 7.03094 13.352 7.15918 13.6319 7.39348C13.9118 7.62777 14.1002 7.95314 14.1641 8.3125L14.6328 10.9523L17.9688 10.9375H17.9742C18.1788 10.9371 18.3815 10.9771 18.5706 11.0552C18.7596 11.1333 18.9315 11.248 19.0761 11.3926C19.2208 11.5373 19.3355 11.7091 19.4136 11.8982C19.4917 12.0873 19.5317 12.2899 19.5312 12.4945V12.7578C19.5325 13.0689 19.4397 13.373 19.2652 13.6305C19.0907 13.8879 18.8425 14.0867 18.5531 14.2008L15.9219 15.2539L17.3281 18.0664C17.4457 18.3033 17.501 18.5663 17.4886 18.8305C17.4763 19.0947 17.3967 19.3513 17.2575 19.5762C17.1183 19.8011 16.924 19.9867 16.693 20.1156C16.462 20.2444 16.202 20.3122 15.9375 20.3125ZM9.07031 18.7617L11.9609 15.9539C12.1065 15.8136 12.3009 15.7351 12.5031 15.7351C12.7054 15.7351 12.8997 15.8136 13.0453 15.9539L15.9422 18.75L14.1453 15.1906C14.0971 15.094 14.0694 14.9884 14.064 14.8806C14.0586 14.7727 14.0757 14.6649 14.1141 14.5639C14.1525 14.463 14.2114 14.3711 14.2871 14.2941C14.3628 14.217 14.4536 14.1566 14.5539 14.1164L17.9742 12.7477L17.9688 12.4945L13.9844 12.5164C13.8011 12.5163 13.6236 12.4518 13.4831 12.3341C13.3426 12.2164 13.2479 12.0531 13.2156 11.8727L12.6305 8.58672L12.357 8.59375L11.7078 11.875C11.6716 12.0523 11.5751 12.2115 11.4346 12.3254C11.2941 12.4394 11.1184 12.5011 10.9375 12.5H7.02266L7.03125 12.7578L10.4469 14.1188C10.5471 14.1589 10.638 14.2194 10.7137 14.2964C10.7894 14.3734 10.8483 14.4653 10.8867 14.5663C10.9251 14.6672 10.9421 14.775 10.9368 14.8829C10.9314 14.9908 10.9037 15.0963 10.8555 15.193L9.07031 18.7617ZM42.5 20.3125C42.0973 20.3133 41.7102 20.1569 41.4211 19.8766L39.0625 17.6039L36.7039 19.8766C36.4401 20.1308 36.0949 20.2836 35.7294 20.308C35.3638 20.3325 35.0014 20.227 34.7061 20.0101C34.4108 19.7933 34.2016 19.4791 34.1154 19.1231C34.0292 18.767 34.0716 18.3919 34.2352 18.0641L35.6414 15.2516L33.0086 14.1984C32.7199 14.0842 32.4722 13.8857 32.2979 13.6288C32.1236 13.3718 32.0307 13.0683 32.0312 12.7578V12.4914C32.0319 12.0795 32.1958 11.6846 32.4871 11.3933C32.7783 11.102 33.1732 10.9381 33.5852 10.9375H36.8594L37.3906 8.28125C37.4624 7.9295 37.6532 7.61321 37.9307 7.38556C38.2083 7.15791 38.5558 7.03279 38.9148 7.03125H39.1961C39.5611 7.03094 39.9145 7.15918 40.1944 7.39348C40.4743 7.62777 40.6627 7.95314 40.7266 8.3125L41.1953 10.9523L44.5312 10.9375H44.5367C44.7413 10.9371 44.944 10.9771 45.1331 11.0552C45.3222 11.1333 45.494 11.248 45.6386 11.3926C45.7833 11.5373 45.898 11.7091 45.9761 11.8982C46.0542 12.0873 46.0942 12.2899 46.0938 12.4945V12.7578C46.095 13.0689 46.0022 13.373 45.8277 13.6305C45.6532 13.8879 45.405 14.0867 45.1156 14.2008L42.4844 15.2539L43.8906 18.0664C44.0082 18.3033 44.0635 18.5663 44.0511 18.8305C44.0388 19.0947 43.9592 19.3513 43.82 19.5762C43.6808 19.8011 43.4865 19.9867 43.2555 20.1156C43.0245 20.2444 42.7645 20.3122 42.5 20.3125ZM35.6328 18.7617L38.5234 15.9539C38.669 15.8136 38.8634 15.7351 39.0656 15.7351C39.2679 15.7351 39.4622 15.8136 39.6078 15.9539L42.5047 18.75L40.7078 15.1906C40.6596 15.094 40.6319 14.9884 40.6265 14.8806C40.6211 14.7727 40.6382 14.6649 40.6766 14.5639C40.715 14.463 40.7739 14.3711 40.8496 14.2941C40.9253 14.217 41.0161 14.1566 41.1164 14.1164L44.5367 12.7477L44.5312 12.4945L40.5469 12.5164C40.3636 12.5163 40.1861 12.4518 40.0456 12.3341C39.9051 12.2164 39.8104 12.0531 39.7781 11.8727L39.193 8.58672L38.9195 8.59375L38.2703 11.875C38.2341 12.0523 38.1376 12.2115 37.9971 12.3254C37.8566 12.4394 37.6809 12.5011 37.5 12.5H33.5852L33.5938 12.7578L37.0094 14.1188C37.1096 14.1589 37.2005 14.2194 37.2762 14.2964C37.3519 14.3734 37.4108 14.4653 37.4492 14.5663C37.4876 14.6672 37.5046 14.775 37.4993 14.8829C37.4939 14.9908 37.4662 15.0963 37.418 15.193L35.6328 18.7617Z" fill="#52006A"/>
  <path d="M29.9805 15.625C29.6133 15.6245 29.2572 15.4995 28.9703 15.2703L25.7813 12.7195L22.5922 15.2703C22.4139 15.4041 22.2106 15.5007 21.9943 15.5544C21.778 15.6082 21.5531 15.618 21.3329 15.5832C21.1128 15.5485 20.9018 15.4699 20.7126 15.3521C20.5233 15.2344 20.3597 15.0798 20.2313 14.8977C20.0832 14.6744 19.9931 14.4178 19.9691 14.151C19.9451 13.8842 19.9879 13.6156 20.0938 13.3695L21.6031 9.84766L18.293 8.74453C17.9708 8.63719 17.6906 8.43113 17.4922 8.15556C17.2938 7.88 17.1872 7.54895 17.1875 7.20938V6.975C17.1892 6.58602 17.3302 6.21052 17.5851 5.91667C17.8399 5.62281 18.1917 5.43007 18.5766 5.37344L22.8492 4.76563L24.068 1.10781C24.1749 0.785214 24.3808 0.504528 24.6564 0.30565C24.932 0.106773 25.2633 -0.000177721 25.6031 5.78129e-07H25.9594C26.299 -0.000286619 26.6302 0.106436 26.9057 0.305017C27.1813 0.503597 27.3873 0.783943 27.4945 1.10625L28.7133 4.76563L32.9859 5.37578C33.3705 5.43237 33.7221 5.62489 33.9769 5.91842C34.2318 6.21195 34.373 6.58707 34.375 6.97578V7.21016C34.3753 7.54983 34.2686 7.88095 34.07 8.15652C33.8714 8.4321 33.5911 8.63811 33.2688 8.74531L29.9586 9.84844L31.468 13.3703C31.5731 13.6164 31.6156 13.8848 31.5916 14.1513C31.5676 14.4178 31.4779 14.6743 31.3306 14.8977C31.1832 15.1211 30.9827 15.3044 30.7471 15.4314C30.5115 15.5583 30.2481 15.6248 29.9805 15.625ZM21.5305 13.9844C21.5261 13.9926 21.5243 14.002 21.5251 14.0112C21.5259 14.0205 21.5294 14.0294 21.5352 14.0367L22.1039 14.6617L21.6164 14.0516L25.293 11.1102C25.4315 10.9992 25.6037 10.9388 25.7813 10.9388C25.9588 10.9388 26.131 10.9992 26.2695 11.1102L29.9461 14.0516L30.0242 14.0391L28.1852 9.68438C28.1425 9.58518 28.1209 9.47822 28.1216 9.37024C28.1224 9.26226 28.1455 9.1556 28.1895 9.05701C28.2336 8.95842 28.2976 8.87003 28.3775 8.79742C28.4574 8.72481 28.5516 8.66956 28.6539 8.63516L32.7742 7.26563L32.8125 6.97578L28.0141 6.24219C27.8704 6.22162 27.7354 6.16146 27.624 6.06846C27.5127 5.97545 27.4294 5.85328 27.3836 5.71563L26.0156 1.60078L25.6031 1.5625L24.1789 5.71563C24.1331 5.85328 24.0498 5.97545 23.9385 6.06846C23.8271 6.16146 23.6921 6.22162 23.5484 6.24219L18.7977 6.92031L18.75 7.20938L22.9031 8.63359C23.0055 8.668 23.0996 8.72325 23.1795 8.79586C23.2594 8.86847 23.3235 8.95686 23.3675 9.05545C23.4115 9.15404 23.4347 9.26069 23.4354 9.36867C23.4362 9.47665 23.4145 9.58362 23.3719 9.68281L21.5305 13.9844Z" fill="#52006A"/>
</svg>