<svg xmlns="http://www.w3.org/2000/svg" width="50" height="50" viewBox="0 0 50 50" fill="none">
  <path d="M44.5313 41.032V42.1875H46.0938V41.032C46.0948 40.553 46.0009 40.0785 45.8175 39.636C45.6341 39.1934 45.3647 38.7917 45.025 38.4539L44.3031 37.7313L43.1969 38.8359L43.9195 39.5586C44.1138 39.7516 44.2679 39.9812 44.3729 40.2341C44.4778 40.487 44.5317 40.7582 44.5313 41.032ZM4.9758 38.4516C4.63558 38.7895 4.36585 39.1916 4.18225 39.6345C3.99866 40.0775 3.90485 40.5525 3.90627 41.032V42.1875H5.46877V41.032C5.46803 40.7578 5.52172 40.4862 5.62673 40.2328C5.73173 39.9795 5.88596 39.7495 6.08048 39.5562L6.80314 38.8336L5.69689 37.7289L4.9758 38.4516ZM4.68752 7.8125H6.25002V9.375H4.68752V7.8125ZM7.81252 7.8125H20.3125V9.375H7.81252V7.8125ZM4.68752 14.0625H20.3125V15.625H4.68752V14.0625ZM4.68752 10.9375H20.3125V12.5H4.68752V10.9375ZM4.68752 17.1875H20.3125V18.75H4.68752V17.1875Z" fill="#52006A"/>
  <path d="M46.0938 21.875C46.7148 21.8731 47.3099 21.6256 47.749 21.1865C48.1882 20.7473 48.4357 20.1523 48.4375 19.5312V7.03125C48.4357 6.41022 48.1882 5.81515 47.749 5.37602C47.3099 4.93688 46.7148 4.68935 46.0938 4.6875H40.625V3.90625C40.6232 3.28522 40.3757 2.69015 39.9365 2.25102C39.4974 1.81188 38.9023 1.56435 38.2813 1.5625H11.7188C11.0978 1.56435 10.5027 1.81188 10.0636 2.25102C9.62443 2.69015 9.3769 3.28522 9.37505 3.90625V4.6875H3.9063C3.28526 4.68935 2.6902 4.93688 2.25106 5.37602C1.81193 5.81515 1.5644 6.41022 1.56255 7.03125V19.5312C1.5644 20.1523 1.81193 20.7473 2.25106 21.1865C2.6902 21.6256 3.28526 21.8731 3.9063 21.875H9.37505V22.6562H8.5938C7.97276 22.6581 7.3777 22.9056 6.93856 23.3448C6.49943 23.7839 6.2519 24.379 6.25005 25V31.25C6.2519 31.871 6.49943 32.4661 6.93856 32.9052C7.3777 33.3444 7.97276 33.5919 8.5938 33.5938H9.37505V33.8672L4.10161 36.1875C4.06365 36.2026 4.02706 36.2209 3.99223 36.2422C3.24619 36.7039 2.63107 37.3493 2.20567 38.1167C1.78028 38.884 1.55885 39.7476 1.56255 40.625V47.6562C1.56255 47.8634 1.64486 48.0622 1.79137 48.2087C1.93788 48.3552 2.1366 48.4375 2.3438 48.4375H9.37505C10.411 48.4375 11.4046 48.026 12.1372 47.2934C12.8697 46.5608 13.2813 45.5673 13.2813 44.5312V44.1641C13.2813 44.1641 16.1016 40.75 16.1797 40.625H33.8125C33.8829 40.7344 36.7188 44.1641 36.7188 44.1641V44.5312C36.7188 45.5673 37.1303 46.5608 37.8629 47.2934C38.5955 48.026 39.589 48.4375 40.625 48.4375H47.6563C47.8635 48.4375 48.0622 48.3552 48.2087 48.2087C48.3552 48.0622 48.4375 47.8634 48.4375 47.6562V40.625C48.4412 39.7476 48.2198 38.884 47.7944 38.1167C47.369 37.3493 46.7539 36.7039 46.0079 36.2422C45.973 36.2209 45.9364 36.2026 45.8985 36.1875L41.6329 34.3125C41.9886 33.8934 42.185 33.3622 42.1875 32.8125V26.5625C42.1851 26.0792 42.0337 25.6084 41.7541 25.2142C41.4746 24.82 41.0803 24.5215 40.625 24.3594V21.875H46.0938ZM3.9063 20.3125C3.6991 20.3125 3.50038 20.2302 3.35387 20.0837C3.20736 19.9372 3.12505 19.7385 3.12505 19.5312V7.03125C3.12505 6.82405 3.20736 6.62534 3.35387 6.47882C3.50038 6.33231 3.6991 6.25 3.9063 6.25H21.0938C21.301 6.25 21.4997 6.33231 21.6462 6.47882C21.7927 6.62534 21.875 6.82405 21.875 7.03125V19.5312C21.875 19.7385 21.7927 19.9372 21.6462 20.0837C21.4997 20.2302 21.301 20.3125 21.0938 20.3125H3.9063ZM8.5938 32.0312C8.3866 32.0312 8.18788 31.9489 8.04137 31.8024C7.89486 31.6559 7.81255 31.4572 7.81255 31.25V25C7.81255 24.7928 7.89486 24.5941 8.04137 24.4476C8.18788 24.3011 8.3866 24.2188 8.5938 24.2188H17.9688C18.176 24.2188 18.3747 24.3011 18.5212 24.4476C18.6677 24.5941 18.75 24.7928 18.75 25V31.25C18.75 31.4572 18.6677 31.6559 18.5212 31.8024C18.3747 31.9489 18.176 32.0312 17.9688 32.0312H8.5938ZM14.7344 39.9453L11.8985 43.3906C11.7824 43.5284 11.7188 43.7027 11.7188 43.8828V44.5312C11.7169 45.1523 11.4694 45.7473 11.0303 46.1865C10.5911 46.6256 9.99608 46.8731 9.37505 46.875H3.12505V40.625C3.12035 40.0197 3.27084 39.4232 3.56215 38.8926C3.85346 38.3619 4.27588 37.9148 4.78911 37.5938L9.37505 35.5703V38.2812C9.37577 38.6475 9.46323 39.0083 9.63026 39.3342C9.79728 39.6601 10.0391 39.9418 10.336 40.1562L7.93755 42.5781L9.04692 43.6797L13.836 38.8516C13.8961 38.7874 13.9686 38.7363 14.0493 38.7013C14.1299 38.6664 14.2169 38.6483 14.3047 38.6483C14.3926 38.6483 14.4796 38.6664 14.5602 38.7013C14.6408 38.7363 14.7134 38.7874 14.7735 38.8516C14.9089 39.0039 14.9805 39.2026 14.9732 39.4063C14.9659 39.61 14.8804 39.803 14.7344 39.9453ZM33.4844 39.0625H16.5157C16.4672 38.6455 16.3018 38.2508 16.0386 37.9238C15.7754 37.5968 15.4251 37.3509 15.0281 37.2145C14.6311 37.0781 14.2036 37.0567 13.795 37.1528C13.3864 37.249 13.0133 37.4587 12.7188 37.7578L11.4766 39.0156C11.3212 38.965 11.1857 38.8669 11.089 38.7351C10.9923 38.6034 10.9393 38.4447 10.9375 38.2812V33.5938H17.9688C18.5898 33.5919 19.1849 33.3444 19.624 32.9052C20.0632 32.4661 20.3107 31.871 20.3125 31.25V25C20.3107 24.379 20.0632 23.7839 19.624 23.3448C19.1849 22.9056 18.5898 22.6581 17.9688 22.6562H10.9375V21.875H21.0938C21.7148 21.8731 22.3099 21.6256 22.749 21.1865C23.1882 20.7473 23.4357 20.1523 23.4375 19.5312V7.03125C23.4357 6.41022 23.1882 5.81515 22.749 5.37602C22.3099 4.93688 21.7148 4.68935 21.0938 4.6875H10.9375V3.90625C10.9375 3.69905 11.0199 3.50034 11.1664 3.35382C11.3129 3.20731 11.5116 3.125 11.7188 3.125H38.2813C38.4885 3.125 38.6872 3.20731 38.8337 3.35382C38.9802 3.50034 39.0625 3.69905 39.0625 3.90625V4.6875H28.9063C28.2853 4.68935 27.6902 4.93688 27.2511 5.37602C26.8119 5.81515 26.5644 6.41022 26.5625 7.03125V19.5312C26.5644 20.1523 26.8119 20.7473 27.2511 21.1865C27.6902 21.6256 28.2853 21.8731 28.9063 21.875H39.0625V24.2188H30.4688C29.8478 24.2206 29.2527 24.4681 28.8136 24.9073C28.3744 25.3464 28.1269 25.9415 28.125 26.5625V32.8125C28.1269 33.4335 28.3744 34.0286 28.8136 34.4677C29.2527 34.9069 29.8478 35.1544 30.4688 35.1562H39.0625V38.2812C39.061 38.4438 39.0081 38.6017 38.9112 38.7322C38.8144 38.8628 38.6786 38.9593 38.5235 39.0078L37.2891 37.7656C36.8649 37.3458 36.2922 37.1103 35.6954 37.1103C35.0985 37.1103 34.5258 37.3458 34.1016 37.7656C33.7635 38.1215 33.5473 38.5757 33.4844 39.0625ZM39.8438 25.7812C40.051 25.7812 40.2497 25.8636 40.3962 26.0101C40.5427 26.1566 40.625 26.3553 40.625 26.5625V32.8125C40.625 33.0197 40.5427 33.2184 40.3962 33.3649C40.2497 33.5114 40.051 33.5938 39.8438 33.5938H30.4688C30.2616 33.5938 30.0629 33.5114 29.9164 33.3649C29.7699 33.2184 29.6875 33.0197 29.6875 32.8125V26.5625C29.6875 26.3553 29.7699 26.1566 29.9164 26.0101C30.0629 25.8636 30.2616 25.7812 30.4688 25.7812H39.8438ZM45.211 37.5938C45.7242 37.9148 46.1466 38.3619 46.4379 38.8926C46.7293 39.4232 46.8797 40.0197 46.875 40.625V46.875H40.625C40.004 46.8731 39.4089 46.6256 38.9698 46.1865C38.5307 45.7473 38.2831 45.1523 38.2813 44.5312V43.8828C38.2813 43.7027 38.2176 43.5284 38.1016 43.3906L35.2266 39.8984C35.0947 39.756 35.0214 39.5691 35.0214 39.375C35.0214 39.1809 35.0947 38.994 35.2266 38.8516C35.2874 38.7868 35.3609 38.7353 35.4425 38.7003C35.5242 38.6653 35.6122 38.6477 35.701 38.6484C35.7898 38.6491 35.8775 38.6682 35.9585 38.7046C36.0396 38.7409 36.1123 38.7936 36.1719 38.8594L40.9532 43.6797L42.0625 42.5781L39.6641 40.1641C39.9606 39.9474 40.202 39.6642 40.3689 39.3371C40.5358 39.0101 40.6235 38.6484 40.625 38.2812V35.5703L45.211 37.5938ZM28.9063 20.3125C28.6991 20.3125 28.5004 20.2302 28.3539 20.0837C28.2074 19.9372 28.125 19.7385 28.125 19.5312V7.03125C28.125 6.82405 28.2074 6.62534 28.3539 6.47882C28.5004 6.33231 28.6991 6.25 28.9063 6.25H46.0938C46.301 6.25 46.4997 6.33231 46.6462 6.47882C46.7927 6.62534 46.875 6.82405 46.875 7.03125V19.5312C46.875 19.7385 46.7927 19.9372 46.6462 20.0837C46.4997 20.2302 46.301 20.3125 46.0938 20.3125H28.9063Z" fill="#52006A"/>
  <path d="M43.75 9.375H45.3125V18.75H43.75V9.375ZM40.625 10.9375H42.1875V18.75H40.625V10.9375ZM37.5 12.5H39.0625V18.75H37.5V12.5ZM34.375 14.0625H35.9375V18.75H34.375V14.0625ZM31.25 15.625H32.8125V18.75H31.25V15.625ZM29.4586 16.1773L31.5734 14.0625H32.8125C32.9411 14.0625 33.0677 14.0308 33.1811 13.9702C33.2945 13.9095 33.3911 13.8218 33.4625 13.7148L34.793 11.7188H37.5C37.7072 11.7187 37.9059 11.6364 38.0523 11.4898L40.1672 9.375H42.1875C42.3087 9.37511 42.4282 9.34703 42.5367 9.29297L45.6617 7.73047L44.9633 6.33203L42.0031 7.8125H39.8438C39.6366 7.81254 39.4379 7.89488 39.2914 8.04141L37.1766 10.1563H34.375C34.2464 10.1562 34.1198 10.188 34.0064 10.2486C33.893 10.3092 33.7964 10.3969 33.725 10.5039L32.3945 12.5H31.25C31.0428 12.5 30.8441 12.5824 30.6977 12.7289L28.3539 15.0727L29.4586 16.1773ZM25 33.5938C24.5365 33.5938 24.0833 33.7312 23.6979 33.9887C23.3125 34.2463 23.012 34.6123 22.8347 35.0406C22.6573 35.4689 22.6109 35.9401 22.7013 36.3947C22.7917 36.8494 23.0149 37.267 23.3427 37.5948C23.6705 37.9226 24.0881 38.1458 24.5428 38.2362C24.9974 38.3267 25.4686 38.2802 25.8969 38.1028C26.3252 37.9254 26.6912 37.625 26.9488 37.2396C27.2063 36.8542 27.3438 36.4011 27.3438 35.9375C27.3438 35.3159 27.0968 34.7198 26.6573 34.2802C26.2177 33.8407 25.6216 33.5938 25 33.5938ZM25 36.7188C24.8455 36.7188 24.6944 36.6729 24.566 36.5871C24.4375 36.5012 24.3373 36.3792 24.2782 36.2365C24.2191 36.0937 24.2036 35.9366 24.2338 35.7851C24.2639 35.6335 24.3383 35.4943 24.4476 35.3851C24.5568 35.2758 24.696 35.2014 24.8476 35.1713C24.9991 35.1411 25.1562 35.1566 25.299 35.2157C25.4417 35.2749 25.5637 35.375 25.6496 35.5035C25.7354 35.6319 25.7812 35.783 25.7812 35.9375C25.7812 36.1447 25.6989 36.3434 25.5524 36.4899C25.4059 36.6364 25.2072 36.7188 25 36.7188ZM9.375 25.7812H10.9375V27.3438H9.375V25.7812ZM12.5 25.7812H17.1875V27.3438H12.5V25.7812ZM9.375 28.9062H17.1875V30.4688H9.375V28.9062ZM31.25 27.3438H32.8125V28.9062H31.25V27.3438ZM34.375 27.3438H39.0625V28.9062H34.375V27.3438ZM31.25 30.4688H39.0625V32.0312H31.25V30.4688Z" fill="#52006A"/>
</svg>