<svg width="54" height="54" viewBox="0 0 54 54" fill="none" xmlns="http://www.w3.org/2000/svg">
<path d="M51.0733 25.2852C50.8809 24.6421 50.4408 24.1017 49.85 23.783C49.2592 23.4643 48.566 23.3933 47.9228 23.5857L25.2892 30.3575C25.1638 30.3951 25.0488 30.4614 24.9533 30.551L22.2035 33.135C22.0893 33.2423 22.0073 33.3793 21.9665 33.5306C21.9258 33.6819 21.928 33.8416 21.9729 33.9917C22.0178 34.1418 22.1036 34.2765 22.2207 34.3806C22.3378 34.4847 22.4816 34.5541 22.6359 34.5811L26.353 35.2304C26.482 35.2529 26.6145 35.2451 26.7401 35.2076L45.1051 29.7127L45.1846 31.4503L39.3491 33.1962L39.8327 34.813L46.2994 32.8781C46.4797 32.8242 46.6368 32.7116 46.7457 32.5581C46.8547 32.4047 46.9092 32.2193 46.9006 32.0313L46.7716 29.2149L49.3739 28.4363C50.017 28.2438 50.5574 27.8038 50.8761 27.213C51.1948 26.6221 51.2657 25.9289 51.0733 25.2857V25.2852ZM26.4474 33.5339L24.5888 33.2093L25.9637 31.9172L29.8146 30.7652L30.2983 32.3819L26.4474 33.5339ZM31.9149 31.898L31.4312 30.2814L44.9462 26.2376L45.0257 27.9753L31.9149 31.898ZM49.391 26.4112C49.3387 26.5089 49.2675 26.5952 49.1815 26.6652C49.0955 26.7352 48.9966 26.7875 48.8903 26.819L46.6922 27.4766L46.6127 25.739L48.4066 25.2023C48.5665 25.1545 48.7369 25.1551 48.8964 25.2042C49.0559 25.2532 49.1973 25.3485 49.3027 25.4779C49.4081 25.6073 49.4727 25.765 49.4884 25.9311C49.5041 26.0972 49.4703 26.2643 49.391 26.4112Z" fill="#52006A"/>
<path d="M33.75 37.125H19.4062V24.4688C19.4062 24.245 19.3174 24.0304 19.1591 23.8721C19.0009 23.7139 18.7863 23.625 18.5625 23.625H3.375C3.15122 23.625 2.93661 23.7139 2.77838 23.8721C2.62014 24.0304 2.53125 24.245 2.53125 24.4688V51.4688C2.53125 51.6925 2.62014 51.9071 2.77838 52.0654C2.93661 52.2236 3.15122 52.3125 3.375 52.3125H33.75C33.9738 52.3125 34.1884 52.2236 34.3466 52.0654C34.5049 51.9071 34.5938 51.6925 34.5938 51.4688V37.9688C34.5938 37.745 34.5049 37.5304 34.3466 37.3721C34.1884 37.2139 33.9738 37.125 33.75 37.125ZM24.4688 38.8125H27.8438V42.1875H24.4688V38.8125ZM9.28125 25.3125H12.6562V28.6875H9.28125V25.3125ZM4.21875 25.3125H7.59375V29.5312C7.59375 29.755 7.68264 29.9696 7.84088 30.1279C7.99911 30.2861 8.21372 30.375 8.4375 30.375H13.5C13.7238 30.375 13.9384 30.2861 14.0966 30.1279C14.2549 29.9696 14.3438 29.755 14.3438 29.5312V25.3125H17.7188V37.125H4.21875V25.3125ZM9.28125 38.8125H12.6562V42.1875H9.28125V38.8125ZM4.21875 38.8125H7.59375V43.0312C7.59375 43.255 7.68264 43.4696 7.84088 43.6279C7.99911 43.7861 8.21372 43.875 8.4375 43.875H13.5C13.7238 43.875 13.9384 43.7861 14.0966 43.6279C14.2549 43.4696 14.3438 43.255 14.3438 43.0312V38.8125H17.7188V50.625H4.21875V38.8125ZM32.9062 50.625H19.4062V38.8125H22.7812V43.0312C22.7812 43.255 22.8701 43.4696 23.0284 43.6279C23.1866 43.7861 23.4012 43.875 23.625 43.875H28.6875C28.9113 43.875 29.1259 43.7861 29.2841 43.6279C29.4424 43.4696 29.5312 43.255 29.5312 43.0312V38.8125H32.9062V50.625Z" fill="#52006A"/>
<path d="M29.5312 47.25H31.2188V48.9375H29.5312V47.25Z" fill="#52006A"/>
<path d="M14.3438 47.25H16.0312V48.9375H14.3438V47.25Z" fill="#52006A"/>
<path d="M14.3438 33.75H16.0312V35.4375H14.3438V33.75Z" fill="#52006A"/>
<path d="M16.0312 8.4375C16.0318 7.99011 16.2097 7.5612 16.5261 7.24484C16.8424 6.92849 17.2714 6.75053 17.7188 6.75H22.7812V8.4375H18.5625C18.3387 8.4375 18.1241 8.52639 17.9659 8.68463C17.8076 8.84286 17.7188 9.05747 17.7188 9.28125V21.9375H19.4062V10.125H39.6562V23.625H41.3438V9.28125C41.3438 9.05747 41.2549 8.84286 41.0966 8.68463C40.9384 8.52639 40.7238 8.4375 40.5 8.4375H36.2812V6.75H41.3438C41.7911 6.75053 42.2201 6.92849 42.5364 7.24484C42.8528 7.5612 43.0307 7.99011 43.0312 8.4375V22.7812H44.7188V8.4375C44.7177 7.5427 44.3618 6.68484 43.7291 6.05212C43.0964 5.41941 42.2385 5.0635 41.3438 5.0625H33.1431L33.7248 2.73586C33.7559 2.61147 33.7582 2.48163 33.7316 2.3562C33.705 2.23077 33.6502 2.11305 33.5713 2.01199C33.4924 1.91093 33.3915 1.82918 33.2762 1.77295C33.161 1.71673 33.0345 1.6875 32.9062 1.6875H26.1562C26.028 1.6875 25.9015 1.71673 25.7863 1.77295C25.671 1.82918 25.5701 1.91093 25.4912 2.01199C25.4123 2.11305 25.3575 2.23077 25.3309 2.3562C25.3043 2.48163 25.3066 2.61147 25.3377 2.73586L25.9194 5.0625H17.7188C16.824 5.0635 15.9661 5.41941 15.3334 6.05212C14.7007 6.68484 14.3448 7.5427 14.3438 8.4375V21.9375H16.0312V8.4375ZM24.4688 6.75H27C27.1282 6.75 27.2547 6.72077 27.37 6.66455C27.4852 6.60832 27.5861 6.52657 27.665 6.42551C27.7439 6.32445 27.7988 6.20673 27.8254 6.0813C27.852 5.95587 27.8496 5.82603 27.8185 5.70164L27.2369 3.375H31.8256L31.244 5.70164C31.2129 5.82603 31.2105 5.95587 31.2371 6.0813C31.2637 6.20673 31.3186 6.32445 31.3975 6.42551C31.4764 6.52657 31.5773 6.60832 31.6925 6.66455C31.8078 6.72077 31.9343 6.75 32.0625 6.75H34.5938V8.4375H24.4688V6.75Z" fill="#52006A"/>
<path d="M43.0312 43.0312C43.0307 43.4786 42.8528 43.9076 42.5364 44.2239C42.2201 44.5403 41.7911 44.7182 41.3438 44.7188H36.2812V46.4062H41.3438C42.2385 46.4052 43.0964 46.0493 43.7291 45.4166C44.3618 44.7839 44.7177 43.926 44.7188 43.0312V35.4375H43.0312V43.0312Z" fill="#52006A"/>
<path d="M41.3438 42.1875V36.2812H39.6562V41.3438H36.2812V43.0312H40.5C40.7238 43.0312 40.9384 42.9424 41.0966 42.7841C41.2549 42.6259 41.3438 42.4113 41.3438 42.1875Z" fill="#52006A"/>
<path d="M26.1562 12.6562C26.1562 12.4325 26.0674 12.2179 25.9091 12.0596C25.7509 11.9014 25.5363 11.8125 25.3125 11.8125H21.9375C21.7137 11.8125 21.4991 11.9014 21.3409 12.0596C21.1826 12.2179 21.0938 12.4325 21.0938 12.6562V16.0312C21.0938 16.255 21.1826 16.4696 21.3409 16.6279C21.4991 16.7861 21.7137 16.875 21.9375 16.875H25.3125C25.5363 16.875 25.7509 16.7861 25.9091 16.6279C26.0674 16.4696 26.1562 16.255 26.1562 16.0312V12.6562ZM24.4688 15.1875H22.7812V13.5H24.4688V15.1875Z" fill="#52006A"/>
<path d="M25.3125 19.4062H21.9375C21.7137 19.4062 21.4991 19.4951 21.3409 19.6534C21.1826 19.8116 21.0938 20.0262 21.0938 20.25V23.625C21.0938 23.8488 21.1826 24.0634 21.3409 24.2216C21.4991 24.3799 21.7137 24.4688 21.9375 24.4688H25.3125C25.5363 24.4688 25.7509 24.3799 25.9091 24.2216C26.0674 24.0634 26.1562 23.8488 26.1562 23.625V20.25C26.1562 20.0262 26.0674 19.8116 25.9091 19.6534C25.7509 19.4951 25.5363 19.4062 25.3125 19.4062ZM24.4688 22.7812H22.7812V21.0938H24.4688V22.7812Z" fill="#52006A"/>
<path d="M27.8438 11.8125H29.5312V13.5H27.8438V11.8125Z" fill="#52006A"/>
<path d="M27.8438 15.1875H37.9688V16.875H27.8438V15.1875Z" fill="#52006A"/>
<path d="M31.2188 11.8125H37.9688V13.5H31.2188V11.8125Z" fill="#52006A"/>
<path d="M27.8438 19.4062H29.5312V21.0938H27.8438V19.4062Z" fill="#52006A"/>
<path d="M27.8438 22.7812H37.9688V24.4688H27.8438V22.7812Z" fill="#52006A"/>
<path d="M31.2188 19.4062H37.9688V21.0938H31.2188V19.4062Z" fill="#52006A"/>
</svg>
