<svg width="58" height="57" viewBox="0 0 58 57" fill="none" xmlns="http://www.w3.org/2000/svg">
<mask id="mask0_2994_15439" style="mask-type:luminance" maskUnits="userSpaceOnUse" x="0" y="0" width="58" height="57">
<path d="M56.93 56.43V0.569992H1.07V56.43H56.93Z" fill="white" stroke="white" stroke-width="1.14"/>
</mask>
<g mask="url(#mask0_2994_15439)">
<path d="M46.4437 28.806C44.1427 28.806 42.277 30.6733 42.277 32.974C42.277 35.274 44.1422 37.1388 46.4437 37.1388C48.7457 37.1388 50.6136 35.2735 50.6136 32.974C50.6136 30.6738 48.7452 28.806 46.4437 28.806Z" stroke="#52006A" stroke-width="1.14"/>
<path d="M39.468 27.7384L39.4151 27.8681L39.308 27.9585C38.9223 28.2841 38.5902 28.553 38.3087 28.7802C38.2843 28.7999 38.2603 28.8192 38.2367 28.8382C37.986 29.0404 37.7837 29.2035 37.6163 29.3473C37.2356 29.6743 37.1349 29.8231 37.0978 29.9371C37.0608 30.0512 37.055 30.2309 37.1708 30.7193C37.2218 30.934 37.2895 31.1846 37.3735 31.4954C37.3814 31.5248 37.3895 31.5548 37.3978 31.5853C37.4921 31.9346 37.6027 32.3474 37.7234 32.8376L37.7563 32.9714L37.7246 33.1054C37.7168 33.138 37.7084 33.1706 37.7016 33.1972L37.7014 33.1981C37.694 33.2268 37.6882 33.2493 37.6832 33.2702L37.6832 33.2702L37.6816 33.2765C37.5605 33.7597 37.4565 34.1431 37.3691 34.4652C37.2818 34.7871 37.2111 35.0476 37.1566 35.2851C37.0513 35.7438 37.0631 35.9109 37.1009 36.0177C37.1419 36.1333 37.2503 36.2846 37.632 36.6109C37.7965 36.7516 37.9935 36.9105 38.2357 37.1057C38.2635 37.1281 38.2919 37.151 38.3209 37.1744C38.5999 37.3995 38.9279 37.6653 39.3079 37.9861L39.4147 38.0762L39.4677 38.2055C39.601 38.5307 39.73 38.8577 39.8545 39.1863C39.903 39.3118 39.9476 39.4285 39.9893 39.5372C40.1459 39.9462 40.2595 40.2427 40.3681 40.4749C40.5027 40.7626 40.5928 40.8654 40.6668 40.9193C40.7629 40.9891 40.9316 41.0499 41.4329 41.0903C41.6506 41.1078 41.9066 41.1206 42.2231 41.1364C42.257 41.1381 42.2915 41.1399 42.3268 41.1416C42.6881 41.1598 43.1146 41.1821 43.6175 41.2188L43.7574 41.2291L43.8765 41.303C44.3053 41.569 44.6637 41.8016 44.9668 41.9991C44.9932 42.0163 45.0191 42.0332 45.0445 42.0498C45.3142 42.2256 45.5317 42.3674 45.7201 42.4822C46.1487 42.743 46.3214 42.793 46.4414 42.793C46.5614 42.793 46.734 42.743 47.1626 42.4822C47.3511 42.3675 47.5686 42.2256 47.8382 42.0498C47.8637 42.0332 47.8896 42.0163 47.916 41.9991C48.219 41.8016 48.5774 41.569 49.0062 41.303L49.1254 41.229L49.2652 41.2188C49.7689 41.1821 50.1958 41.1598 50.5573 41.1416C50.5923 41.1399 50.6266 41.1382 50.6602 41.1365C50.9772 41.1206 51.2336 41.1078 51.4514 41.0903C51.949 41.0502 52.12 40.99 52.2187 40.9195C52.3164 40.8471 52.4265 40.7031 52.6185 40.2433C52.7026 40.0419 52.7941 39.8025 52.9074 39.5062C52.9194 39.4748 52.9317 39.4427 52.9442 39.41C53.0734 39.0722 53.227 38.6734 53.418 38.206L53.471 38.0764L53.5779 37.9861C53.9636 37.6605 54.2957 37.3916 54.5772 37.1644C54.6019 37.1445 54.6261 37.125 54.6498 37.1059C54.9003 36.9039 55.1023 36.741 55.2696 36.5973C55.6503 36.2703 55.7511 36.1216 55.7881 36.0078C55.8251 35.894 55.831 35.7147 55.7151 35.2268C55.6642 35.0123 55.5965 34.762 55.5125 34.4515C55.5046 34.4221 55.4964 34.3921 55.4882 34.3616C55.3939 34.0126 55.2832 33.6001 55.1625 33.1103L55.1289 32.974L55.1625 32.8376C55.2832 32.3474 55.3938 31.9346 55.4882 31.5853C55.4964 31.5548 55.5045 31.5249 55.5124 31.4955C55.5964 31.1847 55.6641 30.934 55.7151 30.7193C55.8309 30.2309 55.8251 30.0512 55.7881 29.9371C55.751 29.8231 55.6502 29.6743 55.2696 29.3473C55.1022 29.2035 54.9 29.0405 54.6493 28.8383C54.6257 28.8193 54.6017 28.7999 54.5772 28.7802C54.2957 28.553 53.9636 28.2841 53.5779 27.9585L53.4709 27.8681L53.4179 27.7384C53.2273 27.2714 53.074 26.8728 52.9448 26.5351C52.9337 26.506 52.9228 26.4775 52.9121 26.4494C52.797 26.1484 52.7043 25.9058 52.6191 25.7022C52.4256 25.2396 52.3152 25.0979 52.2181 25.0275C52.1208 24.9569 51.9515 24.8959 51.451 24.8551C51.2311 24.8372 50.9719 24.8241 50.6506 24.8079C50.62 24.8064 50.5888 24.8048 50.5571 24.8032C50.1957 24.7849 49.7688 24.7625 49.2652 24.7258L49.1252 24.7155L49.006 24.6415C48.5775 24.3754 48.2194 24.1427 47.9165 23.945C47.8897 23.9275 47.8635 23.9104 47.8377 23.8936C47.5686 23.7179 47.3515 23.5762 47.1632 23.4614C46.7363 23.2012 46.563 23.1504 46.4429 23.15C46.3206 23.151 46.1457 23.2032 45.7191 23.4628C45.5294 23.5783 45.3102 23.7212 45.0382 23.8985C45.0145 23.9139 44.9904 23.9296 44.966 23.9456C44.6631 24.143 44.3051 24.3755 43.8767 24.6415L43.7575 24.7155L43.6175 24.7258C43.1143 24.7625 42.6878 24.7849 42.3266 24.8032C42.2951 24.8048 42.2641 24.8064 42.2336 24.8079C41.9124 24.8241 41.6533 24.8372 41.4335 24.8551C40.9336 24.8959 40.7646 24.9569 40.6675 25.0273C40.5705 25.0978 40.4602 25.2395 40.2668 25.7021C40.1817 25.9056 40.089 26.148 39.9741 26.4486C39.9633 26.4769 39.9523 26.5057 39.9411 26.5351C39.8119 26.8728 39.6586 27.2713 39.468 27.7384ZM41.1347 32.9739C41.1347 30.0443 43.5102 27.6659 46.4413 27.6659C49.372 27.6659 51.7513 30.0438 51.7513 32.9739C51.7513 35.9044 49.3715 38.2787 46.4413 38.2787C43.5107 38.2787 41.1347 35.9039 41.1347 32.9739Z" stroke="#52006A" stroke-width="1.14"/>
<path d="M5.511 32.568C5.7896 21.8587 13.8959 13.0943 24.3202 11.7867C25.2094 11.6758 26.1135 11.6175 27.0329 11.6175L5.511 32.568ZM5.511 32.568H36.488C36.4229 32.3171 36.3619 32.09 36.3059 31.8827C36.2974 31.8511 36.2889 31.8198 36.2806 31.789C36.1982 31.4841 36.1256 31.2156 36.0704 30.9826C35.953 30.4878 35.8783 30.0287 36.0223 29.5852C36.1664 29.1417 36.4965 28.8141 36.8822 28.4828C37.064 28.3266 37.2806 28.152 37.5265 27.9537C37.5513 27.9337 37.5763 27.9135 37.6016 27.8931C37.8546 27.689 38.1436 27.455 38.4741 27.1779C38.6357 26.7783 38.769 26.4315 38.885 26.1281C38.8967 26.0976 38.9082 26.0675 38.9196 26.0377C39.0322 25.7429 39.1315 25.4833 39.2238 25.2625C39.4198 24.7937 39.6294 24.3788 40.0066 24.105C40.3836 23.8313 40.843 23.7604 41.3496 23.7191C41.588 23.6996 41.8654 23.6856 42.1805 23.6697C42.2125 23.6681 42.2449 23.6665 42.2777 23.6648C42.6021 23.6484 42.9732 23.6289 43.4032 23.5989C43.7685 23.3704 44.0801 23.1681 44.3522 22.9907L44.4287 22.9409C44.6951 22.7672 44.9295 22.6144 45.1353 22.4891C45.2911 22.3943 45.444 22.3062 45.5975 22.2322C42.288 16.617 36.5035 12.6345 29.7424 11.7866C28.8437 11.6742 27.9388 11.6177 27.033 11.6175L5.511 32.568Z" stroke="#52006A" stroke-width="1.14"/>
<path d="M27.0326 10.4774H27.0328C27.8894 10.4774 28.7381 10.5259 29.57 10.6183C29.9614 10.0924 30.1928 9.44196 30.1928 8.7383C30.1928 6.99353 28.7789 5.5798 27.0328 5.5798C25.2867 5.5798 23.8727 6.99353 23.8727 8.7383C23.8727 9.4416 24.104 10.0921 24.4934 10.6182C25.3365 10.5246 26.1842 10.4776 27.0326 10.4774Z" stroke="#52006A" stroke-width="1.14"/>
<path d="M36.2818 34.138C36.3184 34.0024 36.3571 33.8589 36.3973 33.708H4.74049C3.33531 33.708 2.18328 34.8599 2.18328 36.2641C2.18328 37.6682 3.33529 38.82 4.74049 38.82H38.4919C38.4848 38.8025 38.4777 38.7849 38.4705 38.7672C38.1453 38.4945 37.8602 38.2636 37.6101 38.0618C37.5809 38.0382 37.552 38.0149 37.5235 37.992C37.2849 37.7996 37.0741 37.6296 36.8962 37.4775C36.513 37.1499 36.1833 36.8276 36.0313 36.3982C35.8762 35.9601 35.9403 35.5109 36.0506 35.0302C36.1054 34.7914 36.1864 34.4915 36.2818 34.138Z" stroke="#52006A" stroke-width="1.14"/>
<path d="M40.9098 42.1778V50.8154C40.9098 51.2191 41.0707 51.3586 41.1608 51.3959C41.2618 51.4377 41.5414 51.4643 41.9827 51.1031L41.9969 51.0915L42.0118 51.0808L44.9402 48.983L44.9402 48.983L44.9456 48.9792C45.2095 48.7947 45.4443 48.635 45.6566 48.5224C45.8748 48.4066 46.1119 48.3169 46.3813 48.3118C46.6523 48.3067 46.8906 48.3884 47.1088 48.4968C47.3191 48.6013 47.5503 48.7515 47.8058 48.921L47.8118 48.925L47.8177 48.9291L50.885 51.0773L50.9025 51.0895L50.919 51.1031C51.3603 51.4643 51.6399 51.4377 51.7409 51.3959C51.8311 51.3586 51.9919 51.2191 51.9919 50.8154V42.1775C51.8498 42.1996 51.7025 42.2144 51.5509 42.2266C51.3145 42.2457 51.0397 42.2594 50.728 42.2749C50.6932 42.2767 50.658 42.2784 50.6223 42.2802C50.2977 42.2965 49.9264 42.3159 49.4961 42.3459C49.1304 42.5744 48.8186 42.7768 48.5464 42.9542C48.5191 42.972 48.4921 42.9896 48.4654 43.007C48.2008 43.1796 47.9678 43.3315 47.7633 43.456C47.329 43.7203 46.9155 43.933 46.4493 43.933C45.9831 43.933 45.5696 43.7203 45.1353 43.456C44.9307 43.3315 44.6978 43.1796 44.4333 43.0071C44.4066 42.9897 44.3795 42.9721 44.3522 42.9542C44.0799 42.7768 43.7681 42.5744 43.4024 42.3458C42.9728 42.3159 42.602 42.2965 42.2776 42.2802C42.2417 42.2784 42.2062 42.2767 42.1712 42.2749C41.86 42.2594 41.5854 42.2457 41.3492 42.2266C41.1984 42.2145 41.0516 42.1997 40.9098 42.1778Z" stroke="#52006A" stroke-width="1.14"/>
<path d="M46.4437 37.7088C49.0535 37.7088 51.1836 35.5795 51.1836 32.974C51.1836 30.3651 49.0535 28.236 46.4437 28.236C43.834 28.236 41.707 30.3651 41.707 32.974C41.707 35.5795 43.834 37.7088 46.4437 37.7088Z" stroke="#52006A" stroke-width="1.14" stroke-miterlimit="10" stroke-linecap="round" stroke-linejoin="round"/>
<path d="M49.3064 24.1573C53.2826 24.4474 52.4399 23.8354 53.9453 27.5229C56.9905 30.0938 56.6687 29.1035 55.7157 32.9739C56.6687 36.8413 56.9905 35.8507 53.9453 38.4216C52.4399 42.1092 53.2826 41.4972 49.3064 41.7873C45.9203 43.8882 46.9617 43.8882 43.5755 41.7873C39.6026 41.4972 40.4451 42.1092 38.94 38.4216C35.8946 35.8507 36.2165 36.8413 37.1695 32.9739C36.2165 29.1035 35.8946 30.0938 38.94 27.5229C40.4451 23.8354 39.6026 24.4474 43.5755 24.1573C46.9617 22.0564 45.9203 22.0564 49.3064 24.1573Z" stroke="#52006A" stroke-width="1.14" stroke-miterlimit="10" stroke-linecap="round" stroke-linejoin="round"/>
<path d="M40.3398 41.3458V50.8155C40.3398 51.9258 41.2802 52.4149 42.3438 51.5442L45.2722 49.4465C46.342 48.6988 46.4493 48.7051 47.4907 49.3961L50.558 51.5442C51.6215 52.4149 52.5619 51.9258 52.5619 50.8155V41.3806" stroke="#52006A" stroke-width="1.14" stroke-miterlimit="10" stroke-linecap="round" stroke-linejoin="round"/>
<path d="M28.2538 33.138H37.1339M39.3271 39.39H4.74049C3.02069 39.39 1.61328 37.9832 1.61328 36.2641C1.61328 34.5449 3.02069 33.138 4.74049 33.138H18.2565" stroke="#52006A" stroke-width="1.14" stroke-miterlimit="10" stroke-linecap="round" stroke-linejoin="round"/>
<path d="M46.4501 22.5801C42.7043 15.7098 35.4146 11.0475 27.033 11.0475C14.8267 11.0475 4.93359 20.9366 4.93359 33.138" stroke="#52006A" stroke-width="1.14" stroke-miterlimit="10" stroke-linecap="round" stroke-linejoin="round"/>
<path d="M27.0344 15.9432C21.4709 15.9432 16.5291 18.5802 13.3828 22.6717" stroke="#52006A" stroke-width="1.14" stroke-miterlimit="10" stroke-linecap="round" stroke-linejoin="round"/>
<path d="M24.2495 11.2209C23.6625 10.5616 23.3027 9.69104 23.3027 8.7383C23.3027 6.6785 24.9721 5.0098 27.0328 5.0098C29.0935 5.0098 30.7628 6.6785 30.7628 8.7383C30.7628 9.69104 30.403 10.5616 29.813 11.2209" stroke="#52006A" stroke-width="1.14" stroke-miterlimit="10" stroke-linecap="round" stroke-linejoin="round"/>
<path d="M10.9414 27.0404V27.0348" stroke="#52006A" stroke-width="1.14" stroke-miterlimit="10" stroke-linecap="round" stroke-linejoin="round"/>
<path d="M23.2441 33.1381H23.2497" stroke="#52006A" stroke-width="1.14" stroke-miterlimit="10" stroke-linecap="round" stroke-linejoin="round"/>
</g>
</svg>
