<svg width="55" height="61" viewBox="0 0 55 61" fill="none" xmlns="http://www.w3.org/2000/svg">
<path d="M13.3336 43.1779C13.5246 43.3256 13.6498 43.5425 13.6821 43.7818C13.7144 44.0211 13.6512 44.2635 13.5062 44.4565C13.3612 44.6496 13.146 44.7778 12.9072 44.8135C12.6684 44.8491 12.4252 44.7894 12.2301 44.6471C9.76808 42.7954 7.78014 40.3865 6.42931 37.6178C6.32282 37.3985 6.30781 37.1459 6.38759 36.9155C6.46738 36.6851 6.63542 36.4958 6.85474 36.3893C7.07407 36.2828 7.32672 36.2678 7.55711 36.3476C7.7875 36.4274 7.97676 36.5954 8.08326 36.8148C9.30553 39.3209 11.1049 41.5013 13.3336 43.1769V43.1779ZM15.5279 44.8318C15.2842 44.8318 15.0504 44.9286 14.8781 45.1009C14.7058 45.2733 14.609 45.507 14.609 45.7507C14.609 45.9944 14.7058 46.2281 14.8781 46.4004C15.0504 46.5727 15.2842 46.6695 15.5279 46.6695C15.7716 46.6695 16.0053 46.5727 16.1776 46.4004C16.3499 46.2281 16.4467 45.9944 16.4467 45.7507C16.4467 45.507 16.3499 45.2733 16.1776 45.1009C16.0053 44.9286 15.7716 44.8318 15.5279 44.8318ZM0.360245 7.47099C0.000465585 6.83819 -0.0944159 6.08878 0.0963063 5.38628C0.287029 4.68379 0.747871 4.08525 1.37827 3.72128C2.00866 3.35731 2.75743 3.25746 3.46117 3.44352C4.16491 3.62958 4.7665 4.08644 5.13464 4.71441L12.3394 17.1934C13.5518 17.0952 14.7672 17.3428 15.8445 17.9075C16.9219 18.4721 17.817 19.3308 18.4259 20.3837L21.9314 26.4546H25.8457C26.7628 21.1142 32.6609 16.5475 37.2488 18.4284L40.5695 12.6763C39.9877 12.1086 39.6115 11.3632 39.5004 10.5579C39.3892 9.75258 39.5495 8.93319 39.9557 8.22905L43.1717 2.658C43.6675 1.83064 44.4686 1.2313 45.4022 0.989259C46.3359 0.747222 47.3273 0.881887 48.1625 1.36421C48.9978 1.84653 49.61 2.63784 49.867 3.56746C50.1241 4.49709 50.0055 5.49051 49.5367 6.33344L46.3207 11.9036C45.9119 12.6075 45.2816 13.1563 44.5281 13.4643C43.7746 13.7723 42.9403 13.8222 42.1555 13.6062L38.8402 19.3472C39.8168 20.2261 40.5505 21.3418 40.9706 22.5867C41.3906 23.8316 41.4829 25.1637 41.2385 26.4546H44.0134C44.7443 26.4554 45.445 26.746 45.9618 27.2628C46.4786 27.7796 46.7693 28.4803 46.77 29.2112C46.7682 33.8176 45.3827 38.3172 42.7931 42.1268C40.2035 45.9364 36.5292 48.8801 32.2465 50.5765C32.8218 50.8333 33.2919 51.2792 33.5788 51.8401C33.8657 52.401 33.9521 53.0431 33.8237 53.6599C33.6952 54.2767 33.3596 54.8309 32.8726 55.2307C32.3857 55.6304 31.7766 55.8515 31.1466 55.8572H16.4449C15.8136 55.8513 15.2033 55.6292 14.7159 55.228C14.2284 54.8267 13.8932 54.2705 13.7661 53.6521C13.639 53.0337 13.7276 52.3904 14.0173 51.8294C14.3069 51.2684 14.7801 50.8236 15.3579 50.5692C11.0759 48.873 7.4017 45.9305 4.81087 42.1226C2.22003 38.3148 0.831879 33.8169 0.826107 29.2112C0.826837 28.4803 1.1175 27.7796 1.6343 27.2628C2.1511 26.746 2.85182 26.4554 3.58269 26.4546H7.11019C6.59944 25.4283 6.3723 24.284 6.45226 23.1404C6.53223 21.9968 6.91641 20.8953 7.56502 19.95L0.360245 7.47099ZM16.4449 52.1827C16.2012 52.1827 15.9675 52.2795 15.7951 52.4518C15.6228 52.6241 15.526 52.8579 15.526 53.1016C15.526 53.3452 15.6228 53.579 15.7951 53.7513C15.9675 53.9236 16.2012 54.0204 16.4449 54.0204H31.1466C31.3903 54.0204 31.624 53.9236 31.7964 53.7513C31.9687 53.579 32.0655 53.3452 32.0655 53.1016C32.0655 52.8579 31.9687 52.6241 31.7964 52.4518C31.624 52.2795 31.3903 52.1827 31.1466 52.1827C27.4602 52.1827 20.1387 52.1809 16.4449 52.1827ZM39.0479 22.6303C38.0536 26.8546 35.8362 30.6921 32.6729 33.6631C33.8547 33.4377 34.9708 32.9496 35.9386 32.2349C36.9064 31.5201 37.7011 30.597 38.2641 29.5337C38.9033 28.5151 39.3055 27.366 39.4412 26.1712C39.5768 24.9763 39.4424 23.7663 39.0479 22.6303ZM29.8152 33.1421C33.2867 32.7736 38.8329 21.4634 37.0577 20.3865C35.0049 20.5307 30.3187 27.402 29.7785 31.0508C29.466 32.5807 29.7463 33.1026 29.8152 33.1421ZM44.7292 10.9856L47.9452 5.4155C48.1764 4.99431 48.2334 4.49935 48.104 4.03664C47.9747 3.57394 47.6693 3.18029 47.2532 2.94001C46.8372 2.69973 46.3436 2.63193 45.8782 2.75114C45.4127 2.87035 45.0125 3.16708 44.7632 3.57778L41.5472 9.14791C41.3161 9.5691 41.2591 10.0641 41.3884 10.5268C41.5178 10.9895 41.8232 11.3831 42.2392 11.6234C42.6552 11.8637 43.1488 11.9315 43.6143 11.8123C44.0797 11.6931 44.4799 11.3963 44.7292 10.9856ZM27.938 30.9368C28.922 26.7103 31.1339 22.8692 34.2956 19.8967C29.9429 20.3341 26.0497 26.6522 27.938 30.9368ZM22.9927 28.2923C23.1817 28.6065 23.3064 28.9551 23.3594 29.3179C23.4124 29.6807 23.3926 30.0504 23.3013 30.4055C23.2099 30.7606 23.0489 31.0939 22.8274 31.3861C22.6059 31.6783 22.3285 31.9235 22.0113 32.1075L15.6455 35.7829C15.0119 36.1481 14.2593 36.2467 13.553 36.0572C12.8468 35.8677 12.2447 35.4054 11.8791 34.7721L8.13747 28.2923H3.58269C3.46161 28.2909 3.34146 28.3136 3.22931 28.3593C3.11716 28.4049 3.01528 28.4726 2.92966 28.5582C2.84404 28.6438 2.77641 28.7457 2.73076 28.8578C2.6851 28.97 2.66235 29.0901 2.66383 29.2112C2.62523 47.9008 25.5747 57.4138 38.7419 44.1537C40.7103 42.196 42.2709 39.8673 43.3333 37.3024C44.3958 34.7375 44.9389 31.9874 44.9314 29.2112C44.9311 28.9676 44.8342 28.734 44.662 28.5617C44.4897 28.3895 44.2561 28.2926 44.0125 28.2923H40.8121C38.1474 36.9719 25.9937 38.8317 25.6473 28.2923H22.9927ZM1.95171 6.55213L9.46339 19.5632C9.55821 19.7277 9.59976 19.9175 9.58232 20.1065C9.56488 20.2956 9.48931 20.4746 9.36599 20.6189C8.74977 21.3407 8.37191 22.2353 8.28423 23.1803C8.19655 24.1252 8.40334 25.0741 8.87624 25.8969L13.4705 33.8542C13.5931 34.0647 13.7939 34.2183 14.0292 34.2813C14.2646 34.3443 14.5153 34.3116 14.7266 34.1905L21.0925 30.5151C21.3033 30.393 21.4572 30.1923 21.5202 29.957C21.5833 29.7217 21.5504 29.471 21.4288 29.2599L16.8345 21.3026C16.3588 20.4811 15.6403 19.8271 14.7778 19.4306C13.9152 19.034 12.9511 18.9144 12.0178 19.0881C11.831 19.1215 11.6384 19.0967 11.466 19.0172C11.2937 18.9377 11.1498 18.8072 11.0539 18.6434L3.54317 5.63327C3.45033 5.4788 3.31439 5.35482 3.15206 5.27653C2.98972 5.19825 2.80806 5.16907 2.62938 5.19259C2.4507 5.21611 2.28278 5.2913 2.14623 5.40892C2.00968 5.52654 1.91046 5.68148 1.86074 5.85471C1.8292 5.97126 1.82108 6.09291 1.83685 6.21262C1.85262 6.33233 1.89106 6.44772 1.95171 6.55213Z" fill="#52006A"/>
<rect x="27" y="37" width="17" height="14" rx="7" fill="#F6F2F7"/>
<path d="M50.1104 51.0933C48.6792 51.0933 47.3897 51.7113 46.4947 52.6945L38.4447 47.7089C38.6658 47.1439 38.7791 46.5426 38.7788 45.936C38.7791 45.3294 38.6658 44.728 38.4447 44.1631L46.4947 39.1772C47.3897 40.1604 48.6792 40.7788 50.1104 40.7788C52.8066 40.7788 55 38.5854 55 35.8893C55 33.1931 52.8066 31 50.1104 31C47.4143 31 45.2209 33.1934 45.2209 35.8895C45.2208 36.4961 45.3341 37.0974 45.555 37.6623L37.5053 42.648C36.6103 41.6648 35.3208 41.0465 33.8896 41.0465C31.1934 41.0465 29 43.2401 29 45.936C29 48.6321 31.1934 50.8255 33.8896 50.8255C35.3208 50.8255 36.6103 50.2074 37.5053 49.224L45.5551 54.2097C45.3341 54.7747 45.2208 55.3761 45.2209 55.9827C45.2209 58.6786 47.4143 60.872 50.1104 60.872C52.8066 60.872 55 58.6786 55 55.9828C55 53.2866 52.8066 51.0933 50.1104 51.0933ZM47.0038 35.8895C47.0038 34.1765 48.3975 32.7829 50.1104 32.7829C51.8234 32.7829 53.2171 34.1765 53.2171 35.8895C53.2171 37.6025 51.8234 38.9961 50.1104 38.9961C48.3974 38.9961 47.0038 37.6024 47.0038 35.8895ZM33.8896 49.0426C32.1763 49.0426 30.7827 47.6489 30.7827 45.936C30.7827 44.2231 32.1763 42.8294 33.8896 42.8294C35.6026 42.8294 36.9959 44.2231 36.9959 45.936C36.9959 47.6489 35.6025 49.0426 33.8896 49.0426ZM47.0038 55.9826C47.0038 54.2696 48.3975 52.8759 50.1104 52.8759C51.8234 52.8759 53.2171 54.2696 53.2171 55.9825C53.2171 57.6955 51.8234 59.0891 50.1104 59.0891C48.3974 59.0891 47.0038 57.6955 47.0038 55.9825V55.9826Z" fill="#52006A"/>
</svg>
