<svg width="51" height="51" viewBox="0 0 51 51" fill="none" xmlns="http://www.w3.org/2000/svg">
<path d="M35.8633 1H46.6055C48.2236 1 49.5352 2.31152 49.5352 3.92969V19.5547C49.5352 21.1729 48.2236 22.4844 46.6055 22.4844H43.6758M10.1992 31.3906V27.2207M10.1992 42.3584V43.6758C10.1992 45.2939 11.5107 46.6055 13.1289 46.6055H20.5" stroke="#52006A" stroke-width="1.46484" stroke-miterlimit="10" stroke-linecap="round" stroke-linejoin="round"/>
<path d="M43.6758 14.3633V43.6758C43.6758 45.2939 42.3643 46.6055 40.7461 46.6055H34.4482M10.1992 11.3809V4.90625C10.1992 2.74893 11.9481 1 14.1055 1H46.6055C44.9873 1 43.6758 2.31152 43.6758 3.92969V10.9453M23.2616 23.168H35.9569M23.2616 27.0742H35.9569M23.2616 19.2617H35.9569M23.2616 30.9805H35.9569" stroke="#52006A" stroke-width="1.46484" stroke-miterlimit="10" stroke-linecap="round" stroke-linejoin="round"/>
<path d="M20.363 37.1789C19.1733 36.7459 17.8795 37.5405 17.7533 38.8004C17.3188 43.1382 19.8488 47.3841 24.1333 48.9435C28.4179 50.503 33.0852 48.8767 35.5406 45.2744C36.2537 44.2282 35.7736 42.7879 34.5838 42.3549L20.363 37.1789Z" stroke="#52006A" stroke-width="1.46484" stroke-miterlimit="10" stroke-linecap="round" stroke-linejoin="round"/>
<path d="M4.51265 35.7187C2.3359 39.3447 3.07418 43.457 3.07418 43.457C3.07418 43.457 8.75875 44.4775 12.6533 40.583C15.6513 37.5859 15.7373 33.5273 15.6171 31.8174C15.6011 31.5831 15.5007 31.3626 15.3347 31.1965C15.1686 31.0305 14.9481 30.9301 14.7138 30.9141C13.1552 30.8047 9.64644 30.8662 6.76754 33.1484M10.0504 36.4808L3.07379 43.4574M13.459 20.9736C15.8253 19.126 17.3624 16.9912 16.4913 15.4824C14.1983 11.5117 9.12213 10.1523 5.15142 12.4443C1.1817 14.7363 -0.178654 19.8125 2.11334 23.7832C2.98443 25.292 5.60064 25.0283 8.38482 23.9043M21.0502 37.4288C19.7589 40.9765 21.5881 44.8992 25.1358 46.1905C28.6835 47.4818 32.6062 45.6525 33.8975 42.1049L21.0502 37.4288Z" stroke="#52006A" stroke-width="1.46484" stroke-miterlimit="10" stroke-linecap="round" stroke-linejoin="round"/>
<path d="M7.57084 14.5479C7.23937 14.6608 6.91981 14.806 6.61674 14.9814C4.05131 16.4629 3.16947 19.7539 4.64994 22.3184C5.52689 23.8379 7.87748 24.1094 8.38431 23.9043M10.9888 14.5361C12.1968 14.9355 13.2691 15.7617 13.9536 16.9473C14.8306 18.4668 13.8902 20.6377 13.4595 20.9746" stroke="#52006A" stroke-width="1.46484" stroke-miterlimit="10" stroke-linecap="round" stroke-linejoin="round"/>
<path d="M24.1137 7.4043C24.1137 8.18398 24.7458 8.81602 25.5255 8.81602C26.3051 8.81602 26.9372 8.18398 26.9372 7.4043C26.9372 8.18398 27.5691 8.81602 28.3488 8.81602C29.1285 8.81602 29.7605 8.18398 29.7605 7.4043M22.2734 6.25049C22.2734 5.50811 21.6715 4.90625 20.9292 4.90625C20.1868 4.90625 19.5849 5.50811 19.5849 6.25049M31.6009 6.25049C31.6009 5.50811 32.2028 4.90625 32.9452 4.90625C33.6876 4.90625 34.2894 5.50811 34.2894 6.25049M14.453 26.0354L12.271 27.2952C11.2703 27.8729 9.98952 27.4604 9.51413 26.4071L7.36911 21.654C6.79899 20.3907 7.27887 18.901 8.47916 18.208C9.67946 17.515 11.2095 17.8443 12.0185 18.9696L15.0624 23.2039C15.7368 24.1422 15.4537 25.4576 14.453 26.0354Z" stroke="#52006A" stroke-width="1.46484" stroke-miterlimit="10" stroke-linecap="round" stroke-linejoin="round"/>
</svg>
