<svg width="15" height="15" viewBox="0 0 15 15" fill="none" xmlns="http://www.w3.org/2000/svg">
<path d="M4.5 3C3.67157 3 3 3.67157 3 4.5V10.5C3 11.3284 3.67157 12 4.5 12H10.5C11.3284 12 12 11.3284 12 10.5V8.625C12 8.41789 12.1679 8.25 12.375 8.25C12.5821 8.25 12.75 8.41789 12.75 8.625V10.5C12.75 11.7426 11.7426 12.75 10.5 12.75H4.5C3.25736 12.75 2.25 11.7426 2.25 10.5V4.5C2.25 3.25736 3.25736 2.25 4.5 2.25H6.375C6.58211 2.25 6.75 2.41789 6.75 2.625C6.75 2.83211 6.58211 3 6.375 3H4.5ZM8.25 2.625C8.25 2.41789 8.41789 2.25 8.625 2.25H12.375C12.5821 2.25 12.75 2.41789 12.75 2.625V6.375C12.75 6.58211 12.5821 6.75 12.375 6.75C12.1679 6.75 12 6.58211 12 6.375V3.53033L8.89017 6.64016C8.74372 6.78661 8.50628 6.78661 8.35983 6.64016C8.21339 6.49372 8.21339 6.25628 8.35983 6.10984L11.4697 3H8.625C8.41789 3 8.25 2.83211 8.25 2.625Z" fill="#52006A"/>
</svg>
