<svg xmlns="http://www.w3.org/2000/svg" width="50" height="50" viewBox="0 0 50 50" fill="none">
  <g clip-path="url(#clip0_2817_15219)">
    <path d="M47.4422 0H19.3299C18.7645 0 18.3045 0.459961 18.3045 1.02539V3.32021H16.0097C15.4442 3.32021 14.9843 3.78018 14.9843 4.34561V13.3359L4.22803 18.7116C3.64512 19.0029 3.28301 19.5887 3.28301 20.2403V25.8765C3.28301 27.7887 3.50918 29.4949 3.93984 31.0421C2.46719 32.3118 1.53223 34.1889 1.53223 36.2813C1.53223 40.0964 4.63603 43.2002 8.45107 43.2002C9.32925 43.2005 10.1994 43.0327 11.0145 42.7059V46.6345C11.0145 47.0707 11.2721 47.4669 11.6708 47.6438C11.8662 47.7304 12.0824 47.7585 12.2934 47.7247C12.5044 47.6909 12.7011 47.5967 12.8597 47.4534L15.5456 45.0236L18.2316 47.4534C18.3902 47.5967 18.5868 47.691 18.7979 47.7247C19.0089 47.7585 19.2251 47.7303 19.4205 47.6436C19.6158 47.5569 19.7818 47.4154 19.8983 47.2363C20.0148 47.0572 20.0768 46.8481 20.0769 46.6344V40.8628H25.5858C25.9904 40.8628 26.3183 40.5349 26.3183 40.1304C26.3183 39.7259 25.9904 39.3979 25.5858 39.3979H21.5448C23.0971 38.0693 24.3933 36.6442 25.3967 35.0358H38.2337C38.6383 35.0358 38.9661 34.7079 38.9661 34.3034C38.9661 33.8989 38.6383 33.571 38.2337 33.571H26.2024C26.4953 32.961 26.7471 32.332 26.956 31.6884H29.3944C29.799 31.6884 30.1269 31.3605 30.1269 30.956C30.1269 30.5515 29.799 30.2235 29.3944 30.2235H27.3572C27.492 29.6207 27.5967 28.9936 27.6714 28.3409H38.2336C38.6382 28.3409 38.966 28.013 38.966 27.6085C38.966 27.204 38.6382 26.8761 38.2336 26.8761H27.7844C27.7985 26.5485 27.8079 26.2167 27.8079 25.8764V24.9935H38.2336C38.6382 24.9935 38.966 24.6655 38.966 24.261C38.966 23.8565 38.6382 23.5286 38.2336 23.5286H27.808V21.646H31.5429C31.9475 21.646 32.2753 21.3181 32.2753 20.9136C32.2753 20.5091 31.9475 20.1812 31.5429 20.1812H27.806C27.7848 19.5534 27.4281 18.9939 26.863 18.7115L26.0367 18.2985H38.2336C38.6382 18.2985 38.966 17.9706 38.966 17.5661C38.966 17.1616 38.6382 16.8337 38.2336 16.8337H23.1057L16.449 13.5068V4.78506H43.6825V10.2539C43.6825 10.6584 44.0103 10.9863 44.4149 10.9863C44.8195 10.9863 45.1474 10.6584 45.1474 10.2539V4.34561C45.1474 3.78018 44.6874 3.32021 44.122 3.32021H19.7693V1.46484H47.0028V36.0778H45.1474V13.6719C45.1474 13.2674 44.8195 12.9395 44.4149 12.9395C44.0103 12.9395 43.6825 13.2674 43.6825 13.6719V39.398H29.0038C28.5992 39.398 28.2714 39.726 28.2714 40.1305C28.2714 40.535 28.5992 40.8629 29.0038 40.8629H44.122C44.6874 40.8629 45.1474 40.4029 45.1474 39.8375V37.5427H47.4422C48.0076 37.5427 48.4676 37.0827 48.4676 36.5173V1.02539C48.4676 0.459961 48.0076 0 47.4422 0ZM2.99707 36.2813C2.99707 33.274 5.44375 30.8273 8.45107 30.8273C11.4584 30.8273 13.9051 33.274 13.9051 36.2813C13.9051 39.2887 11.4584 41.7354 8.45107 41.7354C5.44375 41.7354 2.99707 39.2887 2.99707 36.2813ZM16.2863 43.7186C16.0836 43.5342 15.8195 43.432 15.5455 43.432C15.2715 43.432 15.0074 43.5342 14.8047 43.7186L12.4792 45.8223V41.9014C14.2278 40.6444 15.3698 38.5944 15.3698 36.2814C15.3698 35.6501 15.2832 35.039 15.124 34.4574C15.2637 34.4654 15.4039 34.471 15.5455 34.471C16.6027 34.4716 17.6479 34.2474 18.6118 33.8132V45.8223L16.2863 43.7186ZM26.3432 20.2403V25.8765C26.3432 29.7334 25.3815 32.7815 23.3171 35.4691C22.4553 36.591 21.4095 37.648 20.0767 38.726V32.9432C21.881 31.5716 23.0486 29.4039 23.0486 26.9678C23.0486 25.763 22.7544 24.5631 22.1977 23.4979C22.1077 23.3257 21.953 23.1963 21.7676 23.1382C21.5823 23.0801 21.3814 23.098 21.2093 23.188C21.0371 23.278 20.9078 23.4326 20.8496 23.618C20.7915 23.8034 20.8094 24.0042 20.8994 24.1764C21.3535 25.0453 21.5838 25.9846 21.5838 26.9679C21.5838 30.2974 18.8751 33.0062 15.5455 33.0062C15.1859 33.0062 14.8338 32.9738 14.4914 32.9131C13.5656 31.2595 11.9813 30.0233 10.0955 29.5617C9.7076 28.7521 9.50655 27.8656 9.50723 26.9679C9.50723 23.6384 12.2159 20.9296 15.5455 20.9296C16.7191 20.9284 17.8674 21.2707 18.8488 21.9143C18.9293 21.967 19.0193 22.0033 19.1138 22.0212C19.2083 22.0391 19.3054 22.0382 19.3996 22.0186C19.4937 21.999 19.5831 21.961 19.6626 21.9068C19.7421 21.8527 19.8101 21.7834 19.8628 21.7029C19.9155 21.6225 19.9519 21.5324 19.9698 21.4379C19.9877 21.3434 19.9868 21.2463 19.9672 21.1522C19.9475 21.058 19.9095 20.9686 19.8554 20.8892C19.8012 20.8097 19.7319 20.7417 19.6515 20.689C18.429 19.8881 17.0092 19.4647 15.5455 19.4647C11.4083 19.4647 8.04238 22.8306 8.04238 26.9679C8.04189 27.7824 8.1749 28.5915 8.43613 29.363C7.3168 29.3643 6.21472 29.6389 5.22568 30.1631C4.90566 28.845 4.74785 27.427 4.74785 25.8766V20.2404C4.74785 20.1474 4.79951 20.0637 4.88281 20.0221L15.5454 14.6931L26.2081 20.0221C26.2488 20.0422 26.283 20.0733 26.3069 20.1119C26.3308 20.1504 26.3433 20.195 26.3432 20.2403Z" fill="#52006A"/>
    <path d="M21.1659 14.219C21.1659 14.4132 21.2431 14.5995 21.3804 14.7369C21.5178 14.8742 21.7041 14.9514 21.8983 14.9514H38.234C38.6386 14.9514 38.9664 14.6234 38.9664 14.219C38.9664 13.8145 38.6386 13.4865 38.234 13.4865H21.8983C21.8021 13.4865 21.7069 13.5055 21.618 13.5423C21.5292 13.5791 21.4484 13.633 21.3804 13.701C21.3124 13.769 21.2584 13.8498 21.2216 13.9387C21.1848 14.0275 21.1659 14.1228 21.1659 14.219ZM38.2339 20.1814H34.2775C33.8729 20.1814 33.5451 20.5093 33.5451 20.9138C33.5451 21.3183 33.8729 21.6462 34.2775 21.6462H38.234C38.3302 21.6462 38.4254 21.6272 38.5143 21.5904C38.6031 21.5536 38.6839 21.4997 38.7519 21.4316C38.8199 21.3636 38.8738 21.2829 38.9106 21.194C38.9474 21.1052 38.9664 21.0099 38.9663 20.9137C38.9663 20.8175 38.9474 20.7223 38.9106 20.6334C38.8738 20.5446 38.8198 20.4638 38.7518 20.3958C38.6838 20.3278 38.603 20.2739 38.5142 20.2371C38.4253 20.2003 38.3301 20.1813 38.2339 20.1814ZM38.2339 30.2236H32.0314C31.6268 30.2236 31.299 30.5516 31.299 30.9561C31.299 31.3606 31.6268 31.6885 32.0314 31.6885H38.234C38.3302 31.6885 38.4254 31.6695 38.5143 31.6327C38.6031 31.5959 38.6839 31.5419 38.7519 31.4739C38.8199 31.4059 38.8738 31.3252 38.9106 31.2363C38.9474 31.1474 38.9664 31.0522 38.9663 30.956C38.9663 30.8598 38.9474 30.7646 38.9106 30.6757C38.8738 30.5869 38.8198 30.5061 38.7518 30.4381C38.6838 30.3701 38.603 30.3162 38.5142 30.2794C38.4253 30.2426 38.3301 30.2236 38.2339 30.2236ZM35.0873 10.1161C35.4919 10.1161 35.8197 9.78819 35.8197 9.3837C35.8197 8.97921 35.4919 8.65128 35.0873 8.65128H25.0449C24.8507 8.65128 24.6644 8.72844 24.527 8.8658C24.3897 9.00315 24.3125 9.18945 24.3125 9.3837C24.3125 9.57795 24.3897 9.76424 24.527 9.9016C24.6644 10.039 24.8507 10.1161 25.0449 10.1161H35.0873ZM17.8063 25.265L15.1958 27.8756L13.4877 26.1675C13.3503 26.0301 13.1641 25.953 12.9698 25.953C12.7756 25.953 12.5893 26.0301 12.4519 26.1675C12.3146 26.3048 12.2375 26.4911 12.2375 26.6854C12.2375 26.8796 12.3146 27.0659 12.4519 27.2032L14.6779 29.4292C14.8209 29.5723 15.0084 29.6438 15.1958 29.6438C15.3832 29.6438 15.5707 29.5723 15.7137 29.4292L18.8422 26.3008C18.9785 26.1632 19.0548 25.9772 19.0544 25.7835C19.054 25.5899 18.9768 25.4042 18.8399 25.2673C18.7029 25.1303 18.5173 25.0532 18.3236 25.0528C18.1299 25.0524 17.9439 25.1287 17.8063 25.265ZM28.9883 44.271L27.4876 44.0529L26.8166 42.6932L26.8165 42.6931C26.7259 42.5078 26.585 42.3518 26.4098 42.2429C26.2347 42.1341 26.0324 42.0767 25.8262 42.0775C25.6199 42.0768 25.4176 42.1341 25.2425 42.243C25.0673 42.3519 24.9264 42.5079 24.8358 42.6932L24.1647 44.0529L22.6641 44.271C22.4599 44.2999 22.2679 44.3857 22.1103 44.5186C21.9526 44.6515 21.8355 44.8262 21.7725 45.0226C21.708 45.2185 21.7001 45.4286 21.7495 45.6288C21.7989 45.8291 21.9038 46.0113 22.052 46.1547L23.1379 47.2132L22.8815 48.7077C22.8459 48.9109 22.8682 49.1199 22.9459 49.311C23.0236 49.502 23.1536 49.6673 23.3209 49.7879C23.509 49.9254 23.736 49.9997 23.969 50C24.1445 50 24.321 49.9576 24.484 49.872L25.8262 49.1663L27.1683 49.872C27.3505 49.9686 27.5562 50.012 27.7619 49.9971C27.9676 49.9822 28.165 49.9097 28.3313 49.7879C28.4987 49.6673 28.6286 49.502 28.7064 49.311C28.7841 49.1199 28.8064 48.9109 28.7707 48.7077L28.5143 47.2132L29.6003 46.1547C29.7485 46.0113 29.8533 45.8291 29.9027 45.6288C29.9521 45.4286 29.9441 45.2185 29.8797 45.0227C29.8167 44.8263 29.6997 44.6516 29.5421 44.5187C29.3844 44.3857 29.1925 44.2999 28.9883 44.271ZM27.3562 46.2966C27.228 46.4216 27.1321 46.5758 27.0767 46.7461C27.0214 46.9164 27.0083 47.0976 27.0387 47.2741L27.2035 48.2356L26.3401 47.7817C26.1817 47.6983 26.0053 47.6547 25.8262 47.6547C25.6471 47.6547 25.4707 47.6982 25.3122 47.7816L24.4488 48.2356L24.6137 47.2741C24.6439 47.0976 24.6308 46.9164 24.5755 46.7461C24.5202 46.5758 24.4242 46.4216 24.296 46.2966L23.5975 45.6157L24.5628 45.4754C24.74 45.4497 24.9083 45.3812 25.0531 45.2759C25.198 45.1707 25.3151 45.0318 25.3943 44.8712L25.826 43.9965L26.2577 44.8712C26.3369 45.0318 26.454 45.1707 26.5989 45.276C26.7438 45.3813 26.9121 45.4497 27.0893 45.4754L28.0547 45.6157L27.3562 46.2966ZM38.0513 44.271L36.5507 44.0529L35.8797 42.6932L35.8796 42.6931C35.789 42.5078 35.6481 42.3518 35.4729 42.2429C35.2978 42.1341 35.0955 42.0767 34.8892 42.0775C34.683 42.0768 34.4807 42.1341 34.3056 42.243C34.1304 42.3519 33.9895 42.5079 33.8989 42.6932L33.2279 44.0529L31.7271 44.271C31.3081 44.3319 30.9666 44.6199 30.8357 45.0227C30.7049 45.4254 30.812 45.8591 31.1151 46.1547L32.2011 47.2132L31.9447 48.7076C31.873 49.1249 32.0413 49.5388 32.3838 49.7878C32.7263 50.0368 33.172 50.069 33.5471 49.872L34.8892 49.1663L36.2313 49.872C36.3901 49.9558 36.5668 49.9998 36.7463 50C36.9742 50 37.2007 49.9285 37.3943 49.7879C37.5617 49.6673 37.6916 49.502 37.7693 49.311C37.847 49.1199 37.8693 48.9109 37.8337 48.7077L37.5773 47.2132L38.6633 46.1547C38.8115 46.0113 38.9163 45.8291 38.9657 45.6288C39.0151 45.4286 39.0071 45.2185 38.9427 45.0227C38.8797 44.8263 38.7627 44.6516 38.6051 44.5186C38.4474 44.3857 38.2555 44.2999 38.0513 44.271ZM36.4193 46.2966C36.2911 46.4216 36.1952 46.5758 36.1398 46.7461C36.0845 46.9164 36.0714 47.0976 36.1017 47.2741L36.2666 48.2356L35.4032 47.7817C35.2447 47.6983 35.0683 47.6547 34.8893 47.6547C34.7102 47.6547 34.5338 47.6982 34.3753 47.7816L33.5118 48.2356L33.6767 47.2741C33.707 47.0976 33.6939 46.9164 33.6386 46.7461C33.5832 46.5759 33.4873 46.4216 33.3591 46.2966L32.6605 45.6157L33.6259 45.4754C33.8031 45.4497 33.9714 45.3812 34.1163 45.276C34.2612 45.1707 34.3783 45.0318 34.4575 44.8712L34.8892 43.9965L35.3209 44.8712C35.4001 45.0318 35.5172 45.1707 35.6621 45.276C35.807 45.3813 35.9753 45.4497 36.1525 45.4754L37.1179 45.6157L36.4193 46.2966ZM47.1144 44.271L45.6139 44.0529L44.9429 42.6932L44.9428 42.6931C44.8522 42.5078 44.7113 42.3518 44.5361 42.2429C44.361 42.1341 44.1587 42.0768 43.9525 42.0775C43.7463 42.0767 43.544 42.1341 43.3688 42.243C43.1936 42.3518 43.0527 42.5079 42.9621 42.6932L42.2911 44.0529L40.7903 44.271C40.3713 44.3319 40.0298 44.6199 39.8989 45.0227C39.7681 45.4254 39.8752 45.8592 40.1783 46.1547L41.2642 47.2132L41.0079 48.7076C40.9722 48.9107 40.9945 49.1198 41.0721 49.3109C41.1498 49.5019 41.2798 49.6672 41.4471 49.7878C41.6352 49.9254 41.8621 49.9997 42.0952 50C42.2708 50 42.4472 49.9576 42.6101 49.872L43.9523 49.1663L45.2945 49.872C45.4767 49.9686 45.6824 50.012 45.8881 49.9971C46.0938 49.9822 46.2911 49.9097 46.4575 49.7879C46.6248 49.6673 46.7548 49.502 46.8325 49.311C46.9102 49.1199 46.9325 48.9109 46.8969 48.7077L46.6405 47.2132L47.7266 46.1546C47.8748 46.0112 47.9796 45.8289 48.0289 45.6287C48.0783 45.4285 48.0703 45.2184 48.0058 45.0226C47.9428 44.8262 47.8258 44.6515 47.6682 44.5186C47.5105 44.3857 47.3186 44.2999 47.1144 44.271ZM45.4828 46.2963C45.3545 46.4213 45.2584 46.5756 45.2031 46.7459C45.1477 46.9163 45.1346 47.0976 45.1649 47.2741L45.3298 48.2356L44.4664 47.7817C44.3079 47.6984 44.1315 47.6549 43.9524 47.6549C43.7733 47.6548 43.5969 47.6983 43.4384 47.7816L42.575 48.2356L42.7399 47.2741C42.7702 47.0976 42.7571 46.9164 42.7017 46.7461C42.6464 46.5759 42.5505 46.4216 42.4223 46.2966L41.7237 45.6157L42.6891 45.4754C42.8663 45.4496 43.0345 45.3812 43.1794 45.2759C43.3243 45.1707 43.4414 45.0318 43.5207 44.8712L43.9524 43.9965L44.3841 44.8712C44.4633 45.0318 44.5804 45.1707 44.7253 45.276C44.8702 45.3813 45.0385 45.4497 45.2157 45.4754L46.181 45.6157L45.4828 46.2963ZM11.3048 34.6191L9.99413 34.4286L9.408 33.2409C9.22694 32.8741 8.86044 32.6462 8.45136 32.6462C8.04227 32.6462 7.67567 32.8741 7.49472 33.2409L6.90858 34.4286L5.59804 34.619C5.40078 34.6469 5.21537 34.7298 5.06305 34.8582C4.91073 34.9866 4.79767 35.1553 4.73681 35.345C4.67447 35.5343 4.66673 35.7372 4.71448 35.9307C4.76222 36.1241 4.86351 36.3002 5.00673 36.4387L5.95517 37.3632L5.73134 38.6685C5.6969 38.8647 5.71845 39.0667 5.79351 39.2513C5.86857 39.4358 5.99412 39.5955 6.15575 39.712C6.33749 39.8449 6.55671 39.9166 6.78183 39.9169C6.95523 39.9167 7.12598 39.8742 7.27929 39.7932L8.45155 39.1769L9.62382 39.7932C9.98593 39.9836 10.4164 39.9524 10.7474 39.712C11.0783 39.4716 11.2409 39.0717 11.1718 38.6686L10.9479 37.3632L11.8964 36.4387C12.1893 36.1531 12.2928 35.7341 12.1663 35.345C12.1053 35.1554 11.9922 34.9867 11.8398 34.8583C11.6874 34.73 11.502 34.6471 11.3048 34.6191ZM9.77528 36.4604C9.65141 36.5811 9.55875 36.7301 9.5053 36.8946C9.45185 37.0591 9.4392 37.2341 9.46845 37.4046L9.59139 38.1214L8.94774 37.783C8.79464 37.7025 8.62427 37.6605 8.45131 37.6605C8.27834 37.6605 8.10797 37.7025 7.95487 37.783L7.31122 38.1214L7.43417 37.4046C7.46342 37.2341 7.45077 37.0591 7.39732 36.8946C7.34386 36.7302 7.2512 36.5812 7.12733 36.4605L6.60653 35.9528L7.32587 35.8482C7.4971 35.8235 7.65974 35.7574 7.79973 35.6557C7.93972 35.554 8.05286 35.4198 8.12938 35.2647L8.45126 34.6125L8.77304 35.2645C8.84952 35.4196 8.96263 35.5539 9.10258 35.6556C9.24254 35.7572 9.40514 35.8233 9.57636 35.8482L10.296 35.9527L9.77528 36.4604Z" fill="#52006A"/>
  </g>
  <defs>
    <clipPath id="clip0_2817_15219">
      <rect width="50" height="50" fill="white"/>
    </clipPath>
  </defs>
</svg>