<svg width="1120" height="200" viewBox="0 0 1120 200" fill="none" xmlns="http://www.w3.org/2000/svg">
<mask id="mask0_3406_1576" style="mask-type:alpha" maskUnits="userSpaceOnUse" x="0" y="0" width="1120" height="200">
<rect width="1120" height="200" rx="16" fill="#6A0189"/>
</mask>
<g mask="url(#mask0_3406_1576)">
<path d="M905.598 14.1912H868.161C867.666 14.1912 867.288 13.7503 867.363 13.2619C867.689 11.1445 868.341 9.14933 869.317 7.27746C870.438 5.13438 871.878 3.27579 873.643 1.70073C875.407 0.12661 877.427 -1.10708 879.703 -1.9994C881.979 -2.88886 884.407 -3.3355 886.986 -3.3355C889.567 -3.3355 891.986 -2.88033 894.242 -1.97C896.499 -1.05967 898.502 0.184456 900.245 1.75668C901.99 3.33174 903.414 5.19033 904.513 7.33435C905.473 9.20433 906.101 11.1843 906.397 13.2724C906.465 13.7569 906.088 14.1912 905.598 14.1912ZM914.244 16.9232C914.244 15.498 914.142 14.1078 913.937 12.7508C913.601 10.5319 912.993 8.40305 912.109 6.36713C910.687 3.08519 908.743 0.221436 906.278 -2.22603C904.522 -3.96704 902.56 -5.44918 900.392 -6.67244C899.514 -7.16743 898.602 -7.61975 897.656 -8.03035C894.376 -9.45274 890.856 -10.1649 887.1 -10.1649C883.383 -10.1649 879.873 -9.46127 876.574 -8.05879C873.272 -6.65442 870.399 -4.73798 867.953 -2.31042C865.505 0.117126 863.562 2.97234 862.119 6.25239C860.678 9.53432 859.939 13.0344 859.901 16.7516C859.901 17.7387 860.222 18.5627 860.867 19.2275C861.513 19.8913 862.347 20.2231 863.372 20.2231H906.334C906.334 20.2269 906.334 20.2298 906.333 20.2336C906.795 20.2336 907.162 20.6205 907.14 21.0813C906.843 26.8828 905.554 32.5117 903.296 37.8514C902.049 40.7995 900.506 43.6434 898.709 46.3042C896.927 48.9403 894.881 51.4191 892.628 53.6722C890.375 55.9253 887.896 57.9707 885.261 59.7515C882.6 61.5485 879.757 63.0922 876.808 64.3392C870.674 66.9336 864.157 68.2489 857.436 68.2489C850.716 68.2489 844.199 66.9336 838.064 64.3392C835.116 63.0922 832.272 61.5485 829.611 59.7515C826.976 57.9707 824.497 55.9253 822.244 53.6722C822.238 53.6655 822.231 53.6599 822.224 53.6532C822.063 53.4911 821.888 53.3498 821.702 53.2284C821.132 52.8083 820.43 52.5589 819.671 52.5589C817.762 52.5589 816.215 54.1264 816.215 56.0609C816.215 56.6298 816.35 57.1665 816.588 57.6416C816.746 57.9887 816.967 58.3149 817.256 58.6031C817.265 58.6126 817.274 58.6221 817.284 58.6316C819.853 61.2004 822.68 63.5332 825.686 65.5634C828.721 67.6145 831.967 69.3764 835.332 70.7997C842.335 73.7611 849.772 75.2632 857.436 75.2632C865.1 75.2632 872.537 73.7611 879.54 70.7997C882.906 69.3764 886.152 67.6145 889.187 65.5634C892.193 63.5332 895.021 61.2004 897.589 58.6316C900.157 56.0628 902.49 53.236 904.52 50.23C906.572 47.1946 908.333 43.9487 909.757 40.5833C912.719 33.5804 914.22 26.1432 914.22 18.4793C914.22 18.3674 914.219 18.2555 914.218 18.1436C914.235 17.7396 914.244 17.3328 914.244 16.9232Z" fill="white" fill-opacity="0.2"/>
<path d="M1163.81 14.1912H1126.38C1125.88 14.1912 1125.5 13.7503 1125.58 13.2619C1125.91 11.1445 1126.56 9.14933 1127.53 7.27746C1128.65 5.13438 1130.09 3.27579 1131.86 1.70073C1133.62 0.12661 1135.64 -1.10708 1137.92 -1.9994C1140.2 -2.88886 1142.62 -3.3355 1145.2 -3.3355C1147.78 -3.3355 1150.2 -2.88033 1152.46 -1.97C1154.72 -1.05967 1156.72 0.184456 1158.46 1.75668C1160.21 3.33174 1161.63 5.19033 1162.73 7.33435C1163.69 9.20433 1164.32 11.1843 1164.61 13.2724C1164.68 13.7569 1164.3 14.1912 1163.81 14.1912ZM1172.46 16.9232C1172.46 15.498 1172.36 14.1078 1172.15 12.7508C1171.82 10.5319 1171.21 8.40305 1170.33 6.36713C1168.9 3.08519 1166.96 0.221436 1164.49 -2.22603C1162.74 -3.96704 1160.78 -5.44918 1158.61 -6.67244C1157.73 -7.16743 1156.82 -7.61975 1155.87 -8.03035C1152.59 -9.45274 1149.07 -10.1649 1145.32 -10.1649C1141.6 -10.1649 1138.09 -9.46127 1134.79 -8.05879C1131.49 -6.65442 1128.62 -4.73798 1126.17 -2.31042C1123.72 0.117126 1121.78 2.97234 1120.34 6.25239C1118.89 9.53432 1118.16 13.0344 1118.12 16.7516C1118.12 17.7387 1118.44 18.5627 1119.08 19.2275C1119.73 19.8913 1120.56 20.2231 1121.59 20.2231H1164.55C1164.55 20.2269 1164.55 20.2298 1164.55 20.2336C1165.01 20.2336 1165.38 20.6205 1165.36 21.0813C1165.06 26.8828 1163.77 32.5117 1161.51 37.8514C1160.27 40.7995 1158.72 43.6434 1156.92 46.3042C1155.14 48.9403 1153.1 51.4191 1150.84 53.6722C1148.59 55.9253 1146.11 57.9707 1143.48 59.7515C1140.82 61.5485 1137.97 63.0922 1135.02 64.3392C1128.89 66.9336 1122.37 68.2489 1115.65 68.2489C1108.93 68.2489 1102.41 66.9336 1096.28 64.3392C1093.33 63.0922 1090.49 61.5485 1087.83 59.7515C1085.19 57.9707 1082.71 55.9253 1080.46 53.6722C1080.45 53.6655 1080.45 53.6599 1080.44 53.6532C1080.28 53.4911 1080.1 53.3498 1079.92 53.2284C1079.35 52.8083 1078.65 52.5589 1077.89 52.5589C1075.98 52.5589 1074.43 54.1264 1074.43 56.0609C1074.43 56.6298 1074.57 57.1665 1074.8 57.6416C1074.96 57.9887 1075.18 58.3149 1075.47 58.6031C1075.48 58.6126 1075.49 58.6221 1075.5 58.6316C1078.07 61.2004 1080.9 63.5332 1083.9 65.5634C1086.94 67.6145 1090.18 69.3764 1093.55 70.7997C1100.55 73.7611 1107.99 75.2632 1115.65 75.2632C1123.32 75.2632 1130.75 73.7611 1137.76 70.7997C1141.12 69.3764 1144.37 67.6145 1147.4 65.5634C1150.41 63.5332 1153.24 61.2004 1155.8 58.6316C1158.37 56.0628 1160.71 53.236 1162.74 50.23C1164.79 47.1946 1166.55 43.9487 1167.97 40.5833C1170.94 33.5804 1172.44 26.1432 1172.44 18.4793C1172.44 18.3674 1172.44 18.2555 1172.43 18.1436C1172.45 17.7396 1172.46 17.3328 1172.46 16.9232Z" fill="white" fill-opacity="0.2"/>
<path d="M969.636 121.61H932.199C931.704 121.61 931.326 121.169 931.401 120.681C931.727 118.563 932.379 116.568 933.355 114.696C934.476 112.553 935.916 110.694 937.681 109.119C939.445 107.545 941.465 106.312 943.741 105.419C946.017 104.53 948.445 104.083 951.024 104.083C953.605 104.083 956.024 104.538 958.28 105.449C960.537 106.359 962.54 107.603 964.283 109.175C966.029 110.75 967.452 112.609 968.551 114.753C969.512 116.623 970.139 118.603 970.435 120.691C970.503 121.176 970.126 121.61 969.636 121.61ZM978.282 124.342C978.282 122.917 978.18 121.526 977.975 120.169C977.639 117.95 977.031 115.822 976.147 113.786C974.725 110.504 972.781 107.64 970.316 105.193C968.56 103.452 966.598 101.969 964.43 100.746C963.552 100.251 962.64 99.7988 961.694 99.3882C958.414 97.9658 954.894 97.2537 951.138 97.2537C947.421 97.2537 943.911 97.9573 940.612 99.3598C937.31 100.764 934.437 102.681 931.991 105.108C929.543 107.536 927.6 110.391 926.157 113.671C924.717 116.953 923.977 120.453 923.939 124.17C923.939 125.157 924.26 125.981 924.905 126.646C925.551 127.31 926.385 127.642 927.41 127.642H970.373C970.372 127.646 970.372 127.648 970.371 127.652C970.833 127.652 971.2 128.039 971.178 128.5C970.881 134.301 969.592 139.93 967.334 145.27C966.087 148.218 964.544 151.062 962.747 153.723C960.965 156.359 958.919 158.838 956.666 161.091C954.413 163.344 951.935 165.389 949.299 167.17C946.638 168.967 943.795 170.511 940.846 171.758C934.712 174.352 928.195 175.667 921.474 175.667C914.754 175.667 908.237 174.352 902.102 171.758C899.154 170.511 896.31 168.967 893.65 167.17C891.014 165.389 888.536 163.344 886.282 161.091C886.276 161.084 886.269 161.078 886.263 161.072C886.101 160.91 885.926 160.768 885.74 160.647C885.17 160.227 884.468 159.977 883.709 159.977C881.8 159.977 880.253 161.545 880.253 163.479C880.253 164.048 880.388 164.585 880.626 165.06C880.784 165.407 881.005 165.733 881.294 166.022C881.303 166.031 881.312 166.041 881.322 166.05C883.891 168.619 886.718 170.952 889.724 172.982C892.759 175.033 896.005 176.795 899.37 178.218C906.373 181.18 913.811 182.682 921.474 182.682C929.138 182.682 936.576 181.18 943.578 178.218C946.944 176.795 950.19 175.033 953.225 172.982C956.231 170.952 959.059 168.619 961.627 166.05C964.196 163.481 966.528 160.655 968.559 157.649C970.61 154.613 972.371 151.367 973.795 148.002C976.757 140.999 978.258 133.562 978.258 125.898C978.258 125.786 978.257 125.674 978.256 125.562C978.273 125.158 978.282 124.751 978.282 124.342Z" fill="white" fill-opacity="0.2"/>
<path d="M1035.74 14.1912H998.301C997.806 14.1912 997.428 13.7503 997.503 13.2619C997.829 11.1445 998.481 9.14933 999.457 7.27746C1000.58 5.13438 1002.02 3.27579 1003.78 1.70073C1005.55 0.12661 1007.57 -1.10708 1009.84 -1.9994C1012.12 -2.88886 1014.55 -3.3355 1017.13 -3.3355C1019.71 -3.3355 1022.13 -2.88033 1024.38 -1.97C1026.64 -1.05967 1028.64 0.184456 1030.38 1.75668C1032.13 3.33174 1033.55 5.19033 1034.65 7.33435C1035.61 9.20433 1036.24 11.1843 1036.54 13.2724C1036.61 13.7569 1036.23 14.1912 1035.74 14.1912ZM1044.38 16.9232C1044.38 15.498 1044.28 14.1078 1044.08 12.7508C1043.74 10.5319 1043.13 8.40305 1042.25 6.36713C1040.83 3.08519 1038.88 0.221436 1036.42 -2.22603C1034.66 -3.96704 1032.7 -5.44918 1030.53 -6.67244C1029.65 -7.16743 1028.74 -7.61975 1027.8 -8.03035C1024.52 -9.45274 1021 -10.1649 1017.24 -10.1649C1013.52 -10.1649 1010.01 -9.46127 1006.71 -8.05879C1003.41 -6.65442 1000.54 -4.73798 998.093 -2.31042C995.645 0.117126 993.702 2.97234 992.259 6.25239C990.819 9.53432 990.079 13.0344 990.041 16.7516C990.041 17.7387 990.362 18.5627 991.007 19.2275C991.653 19.8913 992.488 20.2231 993.512 20.2231H1036.47C1036.47 20.2269 1036.47 20.2298 1036.47 20.2336C1036.94 20.2336 1037.3 20.6205 1037.28 21.0813C1036.98 26.8828 1035.69 32.5117 1033.44 37.8514C1032.19 40.7995 1030.65 43.6434 1028.85 46.3042C1027.07 48.9403 1025.02 51.4191 1022.77 53.6722C1020.52 55.9253 1018.04 57.9707 1015.4 59.7515C1012.74 61.5485 1009.9 63.0922 1006.95 64.3392C1000.81 66.9336 994.297 68.2489 987.576 68.2489C980.856 68.2489 974.339 66.9336 968.204 64.3392C965.256 63.0922 962.412 61.5485 959.752 59.7515C957.116 57.9707 954.638 55.9253 952.385 53.6722C952.378 53.6655 952.371 53.6599 952.365 53.6532C952.203 53.4911 952.028 53.3498 951.842 53.2284C951.272 52.8083 950.571 52.5589 949.811 52.5589C947.902 52.5589 946.355 54.1264 946.355 56.0609C946.355 56.6298 946.49 57.1665 946.728 57.6416C946.887 57.9887 947.107 58.3149 947.396 58.6031C947.405 58.6126 947.414 58.6221 947.424 58.6316C949.993 61.2004 952.82 63.5332 955.826 65.5634C958.861 67.6145 962.107 69.3764 965.472 70.7997C972.475 73.7611 979.913 75.2632 987.576 75.2632C995.24 75.2632 1002.68 73.7611 1009.68 70.7997C1013.05 69.3764 1016.29 67.6145 1019.33 65.5634C1022.33 63.5332 1025.16 61.2004 1027.73 58.6316C1030.3 56.0628 1032.63 53.236 1034.66 50.23C1036.71 47.1946 1038.47 43.9487 1039.9 40.5833C1042.86 33.5804 1044.36 26.1432 1044.36 18.4793C1044.36 18.3674 1044.36 18.2555 1044.36 18.1436C1044.38 17.7396 1044.38 17.3328 1044.38 16.9232Z" fill="white" fill-opacity="0.2"/>
<path d="M1099.78 121.61H1062.34C1061.84 121.61 1061.47 121.169 1061.54 120.681C1061.87 118.563 1062.52 116.568 1063.5 114.696C1064.62 112.553 1066.06 110.694 1067.82 109.119C1069.59 107.545 1071.6 106.312 1073.88 105.419C1076.16 104.53 1078.59 104.083 1081.16 104.083C1083.75 104.083 1086.16 104.538 1088.42 105.449C1090.68 106.359 1092.68 107.603 1094.42 109.175C1096.17 110.75 1097.59 112.609 1098.69 114.753C1099.65 116.623 1100.28 118.603 1100.58 120.691C1100.64 121.176 1100.27 121.61 1099.78 121.61ZM1108.42 124.342C1108.42 122.917 1108.32 121.526 1108.11 120.169C1107.78 117.95 1107.17 115.822 1106.29 113.786C1104.87 110.504 1102.92 107.64 1100.46 105.193C1098.7 103.452 1096.74 101.969 1094.57 100.746C1093.69 100.251 1092.78 99.7988 1091.83 99.3882C1088.55 97.9658 1085.03 97.2537 1081.28 97.2537C1077.56 97.2537 1074.05 97.9573 1070.75 99.3598C1067.45 100.764 1064.58 102.681 1062.13 105.108C1059.68 107.536 1057.74 110.391 1056.3 113.671C1054.86 116.953 1054.12 120.453 1054.08 124.17C1054.08 125.157 1054.4 125.981 1055.05 126.646C1055.69 127.31 1056.53 127.642 1057.55 127.642H1100.51C1100.51 127.646 1100.51 127.648 1100.51 127.652C1100.97 127.652 1101.34 128.039 1101.32 128.5C1101.02 134.301 1099.73 139.93 1097.47 145.27C1096.23 148.218 1094.68 151.062 1092.89 153.723C1091.1 156.359 1089.06 158.838 1086.81 161.091C1084.55 163.344 1082.07 165.389 1079.44 167.17C1076.78 168.967 1073.93 170.511 1070.99 171.758C1064.85 174.352 1058.33 175.667 1051.61 175.667C1044.89 175.667 1038.38 174.352 1032.24 171.758C1029.29 170.511 1026.45 168.967 1023.79 167.17C1021.15 165.389 1018.68 163.344 1016.42 161.091C1016.42 161.084 1016.41 161.078 1016.4 161.072C1016.24 160.91 1016.07 160.768 1015.88 160.647C1015.31 160.227 1014.61 159.977 1013.85 159.977C1011.94 159.977 1010.39 161.545 1010.39 163.479C1010.39 164.048 1010.53 164.585 1010.77 165.06C1010.92 165.407 1011.15 165.733 1011.43 166.022C1011.44 166.031 1011.45 166.041 1011.46 166.05C1014.03 168.619 1016.86 170.952 1019.86 172.982C1022.9 175.033 1026.15 176.795 1029.51 178.218C1036.51 181.18 1043.95 182.682 1051.61 182.682C1059.28 182.682 1066.72 181.18 1073.72 178.218C1077.08 176.795 1080.33 175.033 1083.37 172.982C1086.37 170.952 1089.2 168.619 1091.77 166.05C1094.34 163.481 1096.67 160.655 1098.7 157.649C1100.75 154.613 1102.51 151.367 1103.93 148.002C1106.9 140.999 1108.4 133.562 1108.4 125.898C1108.4 125.786 1108.4 125.674 1108.4 125.562C1108.41 125.158 1108.42 124.751 1108.42 124.342Z" fill="white" fill-opacity="0.2"/>
<path d="M808.403 14.1919C808.631 11.7634 809.294 9.47808 810.395 7.335C811.495 5.19098 812.918 3.33239 814.664 1.75732C816.407 0.185101 818.41 -1.05902 820.666 -1.96935C822.923 -2.87968 825.341 -3.33485 827.922 -3.33485C830.502 -3.33485 832.928 -2.88822 835.206 -1.99875C837.482 -1.10643 839.502 0.127258 841.266 1.70137C843.03 3.27644 844.471 5.13503 845.591 7.27811C846.71 9.42118 847.402 11.7264 847.667 14.1919H808.403ZM852.79 6.25304C851.347 2.973 849.403 0.117771 846.956 -2.30978C844.51 -4.73734 841.635 -6.65377 838.334 -8.05815C835.035 -9.46063 831.526 -10.1642 827.808 -10.1642C824.053 -10.1642 820.533 -9.4521 817.253 -8.0297C816.287 -7.61152 815.359 -7.14877 814.465 -6.6424C812.317 -5.42482 810.372 -3.95312 808.631 -2.22538C806.165 0.22208 804.222 3.08584 802.798 6.36777C801.808 8.65119 801.163 11.0503 800.862 13.5632C800.73 14.6613 800.665 15.7812 800.665 16.9238C800.665 17.0376 800.666 17.1514 800.667 17.2652C800.658 17.6692 800.653 18.0741 800.653 18.4799C800.653 26.1438 802.154 33.581 805.117 40.584C805.556 41.6204 806.026 42.6464 806.528 43.6582C806.528 43.6582 806.982 44.9716 807.794 45.5462L807.798 45.5491C809.051 46.6329 810.952 46.6794 812.289 45.5785C813.461 44.615 813.851 43.057 813.378 41.719C813.331 41.5863 813.275 41.4545 813.21 41.3264C813.193 41.2951 813.176 41.262 813.16 41.2297C812.589 40.1231 812.06 38.9947 811.577 37.852C809.209 32.2535 807.908 26.3344 807.698 20.2342H808.575C808.575 20.2304 808.574 20.2276 808.574 20.2238H851.536C852.561 20.2238 853.395 19.8919 854.041 19.2281C854.685 18.5634 855.008 17.7393 855.008 16.7522C854.97 13.035 854.23 9.53498 852.79 6.25304Z" fill="white" fill-opacity="0.2"/>
<path d="M1066.62 14.1919C1066.85 11.7634 1067.51 9.47808 1068.61 7.335C1069.71 5.19098 1071.13 3.33239 1072.88 1.75732C1074.62 0.185101 1076.63 -1.05902 1078.88 -1.96935C1081.14 -2.87968 1083.56 -3.33485 1086.14 -3.33485C1088.72 -3.33485 1091.14 -2.88822 1093.42 -1.99875C1095.7 -1.10643 1097.72 0.127258 1099.48 1.70137C1101.25 3.27644 1102.69 5.13503 1103.81 7.27811C1104.93 9.42118 1105.62 11.7264 1105.88 14.1919H1066.62ZM1111.01 6.25304C1109.56 2.973 1107.62 0.117771 1105.17 -2.30978C1102.73 -4.73734 1099.85 -6.65377 1096.55 -8.05815C1093.25 -9.46063 1089.74 -10.1642 1086.02 -10.1642C1082.27 -10.1642 1078.75 -9.4521 1075.47 -8.0297C1074.5 -7.61152 1073.58 -7.14877 1072.68 -6.6424C1070.53 -5.42482 1068.59 -3.95312 1066.85 -2.22538C1064.38 0.22208 1062.44 3.08584 1061.01 6.36777C1060.02 8.65119 1059.38 11.0503 1059.08 13.5632C1058.95 14.6613 1058.88 15.7812 1058.88 16.9238C1058.88 17.0376 1058.88 17.1514 1058.88 17.2652C1058.87 17.6692 1058.87 18.0741 1058.87 18.4799C1058.87 26.1438 1060.37 33.581 1063.33 40.584C1063.77 41.6204 1064.24 42.6464 1064.74 43.6582C1064.74 43.6582 1065.2 44.9716 1066.01 45.5462L1066.01 45.5491C1067.27 46.6329 1069.17 46.6794 1070.51 45.5785C1071.68 44.615 1072.07 43.057 1071.59 41.719C1071.55 41.5863 1071.49 41.4545 1071.43 41.3264C1071.41 41.2951 1071.39 41.262 1071.38 41.2297C1070.81 40.1231 1070.28 38.9947 1069.79 37.852C1067.43 32.2535 1066.12 26.3344 1065.91 20.2342H1066.79C1066.79 20.2304 1066.79 20.2276 1066.79 20.2238H1109.75C1110.78 20.2238 1111.61 19.8919 1112.26 19.2281C1112.9 18.5634 1113.22 17.7393 1113.22 16.7522C1113.19 13.035 1112.45 9.53498 1111.01 6.25304Z" fill="white" fill-opacity="0.2"/>
<path d="M872.441 121.609C872.669 119.181 873.331 116.896 874.432 114.752C875.532 112.608 876.956 110.75 878.702 109.175C880.444 107.603 882.447 106.358 884.704 105.448C886.961 104.538 889.379 104.083 891.959 104.083C894.539 104.083 896.966 104.529 899.244 105.419C901.52 106.311 903.539 107.545 905.303 109.119C907.068 110.694 908.508 112.553 909.628 114.696C910.747 116.839 911.439 119.144 911.705 121.609H872.441ZM916.827 113.671C915.384 110.39 913.44 107.535 910.994 105.108C908.547 102.68 905.673 100.764 902.372 99.3593C899.073 97.9568 895.564 97.2532 891.845 97.2532C888.09 97.2532 884.57 97.9654 881.29 99.3878C880.325 99.806 879.397 100.269 878.502 100.775C876.355 101.993 874.41 103.464 872.669 105.192C870.202 107.64 868.259 110.503 866.836 113.785C865.846 116.069 865.2 118.468 864.9 120.981C864.768 122.079 864.702 123.199 864.702 124.341C864.702 124.455 864.703 124.569 864.704 124.683C864.696 125.087 864.691 125.492 864.691 125.897C864.691 133.561 866.192 140.999 869.154 148.001C869.593 149.038 870.064 150.064 870.565 151.076C870.565 151.076 871.02 152.389 871.831 152.964L871.835 152.967C873.089 154.05 874.99 154.097 876.327 152.996C877.498 152.032 877.889 150.475 877.416 149.137C877.368 149.004 877.312 148.872 877.248 148.744C877.231 148.713 877.214 148.679 877.198 148.647C876.627 147.541 876.098 146.412 875.615 145.269C873.247 139.671 871.945 133.752 871.736 127.652H872.613C872.613 127.648 872.612 127.645 872.612 127.641H915.574C916.599 127.641 917.432 127.309 918.079 126.646C918.723 125.981 919.045 125.157 919.045 124.17C919.007 120.452 918.268 116.952 916.827 113.671Z" fill="white" fill-opacity="0.2"/>
<path d="M938.545 14.1919C938.772 11.7634 939.435 9.47808 940.536 7.335C941.636 5.19098 943.059 3.33239 944.805 1.75732C946.548 0.185101 948.551 -1.05902 950.808 -1.96935C953.064 -2.87968 955.482 -3.33485 958.063 -3.33485C960.643 -3.33485 963.07 -2.88822 965.347 -1.99875C967.623 -1.10643 969.643 0.127258 971.407 1.70137C973.171 3.27644 974.612 5.13503 975.732 7.27811C976.851 9.42118 977.543 11.7264 977.808 14.1919H938.545ZM982.931 6.25304C981.488 2.973 979.544 0.117771 977.097 -2.30978C974.651 -4.73734 971.776 -6.65377 968.476 -8.05815C965.177 -9.46063 961.667 -10.1642 957.949 -10.1642C954.194 -10.1642 950.674 -9.4521 947.394 -8.0297C946.428 -7.61152 945.5 -7.14877 944.606 -6.6424C942.458 -5.42482 940.513 -3.95312 938.772 -2.22538C936.306 0.22208 934.363 3.08584 932.939 6.36777C931.949 8.65119 931.304 11.0503 931.003 13.5632C930.871 14.6613 930.806 15.7812 930.806 16.9238C930.806 17.0376 930.807 17.1514 930.808 17.2652C930.799 17.6692 930.794 18.0741 930.794 18.4799C930.794 26.1438 932.296 33.581 935.258 40.584C935.697 41.6204 936.167 42.6464 936.669 43.6582C936.669 43.6582 937.123 44.9716 937.935 45.5462L937.939 45.5491C939.192 46.6329 941.094 46.6794 942.431 45.5785C943.602 44.615 943.992 43.057 943.519 41.719C943.472 41.5863 943.416 41.4545 943.351 41.3264C943.334 41.2951 943.317 41.262 943.301 41.2297C942.73 40.1231 942.201 38.9947 941.718 37.852C939.351 32.2535 938.049 26.3344 937.839 20.2342H938.716C938.716 20.2304 938.715 20.2276 938.715 20.2238H981.677C982.702 20.2238 983.536 19.8919 984.183 19.2281C984.826 18.5634 985.149 17.7393 985.149 16.7522C985.111 13.035 984.371 9.53498 982.931 6.25304Z" fill="white" fill-opacity="0.2"/>
<path d="M1002.58 121.609C1002.81 119.181 1003.47 116.896 1004.57 114.752C1005.67 112.608 1007.1 110.75 1008.84 109.175C1010.59 107.603 1012.59 106.358 1014.84 105.448C1017.1 104.538 1019.52 104.083 1022.1 104.083C1024.68 104.083 1027.11 104.529 1029.38 105.419C1031.66 106.311 1033.68 107.545 1035.44 109.119C1037.21 110.694 1038.65 112.553 1039.77 114.696C1040.89 116.839 1041.58 119.144 1041.85 121.609H1002.58ZM1046.97 113.671C1045.52 110.39 1043.58 107.535 1041.13 105.108C1038.69 102.68 1035.81 100.764 1032.51 99.3593C1029.21 97.9568 1025.7 97.2532 1021.99 97.2532C1018.23 97.2532 1014.71 97.9654 1011.43 99.3878C1010.47 99.806 1009.54 100.269 1008.64 100.775C1006.5 101.993 1004.55 103.464 1002.81 105.192C1000.34 107.64 998.4 110.503 996.977 113.785C995.987 116.069 995.341 118.468 995.04 120.981C994.908 122.079 994.843 123.199 994.843 124.341C994.843 124.455 994.844 124.569 994.845 124.683C994.836 125.087 994.832 125.492 994.832 125.897C994.832 133.561 996.333 140.999 999.295 148.001C999.734 149.038 1000.2 150.064 1000.71 151.076C1000.71 151.076 1001.16 152.389 1001.97 152.964L1001.98 152.967C1003.23 154.05 1005.13 154.097 1006.47 152.996C1007.64 152.032 1008.03 150.475 1007.56 149.137C1007.51 149.004 1007.45 148.872 1007.39 148.744C1007.37 148.713 1007.35 148.679 1007.34 148.647C1006.77 147.541 1006.24 146.412 1005.76 145.269C1003.39 139.671 1002.09 133.752 1001.88 127.652H1002.75C1002.75 127.648 1002.75 127.645 1002.75 127.641H1045.71C1046.74 127.641 1047.57 127.309 1048.22 126.646C1048.86 125.981 1049.19 125.157 1049.19 124.17C1049.15 120.452 1048.41 116.952 1046.97 113.671Z" fill="white" fill-opacity="0.2"/>
</g>
</svg>
