<svg width="51" height="46" viewBox="0 0 51 46" fill="none" xmlns="http://www.w3.org/2000/svg">
<path d="M7.34385 20.123C7.24375 19.8053 6.83496 19.6506 6.41699 19.6506C5.99922 19.6506 5.59023 19.8053 5.49033 20.123L3.80059 25.6652C3.79141 25.7013 3.78223 25.7379 3.78223 25.7653C3.78223 26.1014 4.3 26.3467 4.69082 26.3467C4.91787 26.3467 5.09971 26.2738 5.1542 26.0831L5.46309 24.9474H7.37998L7.68887 26.0831C7.74365 26.2738 7.9252 26.3467 8.15225 26.3467C8.54307 26.3467 9.06084 26.1014 9.06084 25.7653C9.06084 25.7379 9.05186 25.7013 9.04268 25.6652L7.34385 20.123ZM5.75381 23.8571L6.41699 21.422L7.08047 23.8571H5.75381ZM17.7303 19.7052H15.8496C15.5316 19.7052 15.3227 19.9051 15.3227 20.1322V25.9103C15.3227 26.2013 15.6771 26.3468 16.0314 26.3468C16.3856 26.3468 16.7401 26.2013 16.7401 25.9103V23.9482H17.6396C18.8933 23.9482 19.8746 23.3665 19.8746 21.8402V21.7948C19.8745 20.2685 18.9297 19.7052 17.7303 19.7052ZM18.4572 21.9488C18.4572 22.5668 18.1484 22.8577 17.6396 22.8577H16.7401V20.9408H17.6396C18.1484 20.9408 18.4572 21.2313 18.4572 21.8491V21.9488ZM35.8587 19.7052C35.6316 19.7052 35.45 19.7778 35.3954 19.9685L34.1325 24.6292L32.8606 19.9685C32.8062 19.7778 32.6244 19.7052 32.3973 19.7052C32.0066 19.7052 31.4887 19.9503 31.4887 20.2865C31.4887 20.3138 31.4979 20.35 31.507 20.3866L33.206 25.9286C33.3059 26.2466 33.7147 26.4011 34.1325 26.4011C34.5506 26.4011 34.9593 26.2466 35.0592 25.9286L36.7492 20.3866C36.7584 20.35 36.7674 20.3138 36.7674 20.2865C36.7674 19.9502 36.2495 19.7052 35.8587 19.7052ZM12.2783 19.7052H10.3973C10.0795 19.7052 9.87061 19.9051 9.87061 20.1322V25.9103C9.87061 26.2013 10.2248 26.3468 10.5791 26.3468C10.9336 26.3468 11.2878 26.2013 11.2878 25.9103V23.9482H12.1873C13.441 23.9482 14.4223 23.3665 14.4223 21.8402V21.7948C14.4223 20.2685 13.4773 19.7052 12.2783 19.7052ZM13.0049 21.9488C13.0049 22.5668 12.6962 22.8577 12.1874 22.8577H11.2879V20.9408H12.1874C12.6962 20.9408 13.0049 21.2313 13.0049 21.8491V21.9488ZM44.9826 19.7052H43.3744C43.002 19.7052 42.7566 19.9051 42.7566 20.1322V25.9195C42.7566 26.1469 43.002 26.3468 43.3744 26.3468H44.9826C46.2363 26.3468 47.2176 25.7654 47.2176 24.2025V21.8492C47.2176 20.2865 46.2363 19.7052 44.9826 19.7052ZM45.8004 24.2023C45.8004 24.8203 45.4912 25.1108 44.9826 25.1108H44.174V20.9408H44.9826C45.4912 20.9408 45.8004 21.2313 45.8004 21.8491V24.2023ZM41.4292 20.9409C41.7018 20.9408 41.8562 20.6499 41.8562 20.3137C41.8562 20.0227 41.7289 19.7051 41.4292 19.7051H38.1948C37.8858 19.7051 37.577 19.8504 37.577 20.1409V25.9102C37.577 26.2012 37.8858 26.3467 38.1948 26.3467H41.4292C41.7289 26.3467 41.8562 26.0287 41.8562 25.7379C41.8562 25.4018 41.7018 25.1109 41.4292 25.1109H38.9943V23.5664H40.357C40.6568 23.5664 40.784 23.2759 40.784 23.0303C40.784 22.7397 40.6297 22.4764 40.357 22.4764H38.9943V20.9409H41.4292ZM28.5169 19.7052C27.263 19.7052 26.2908 20.2865 26.2908 21.8492V24.2568C26.2908 25.8197 27.263 26.4011 28.5169 26.4011C29.7705 26.4011 30.7519 25.8197 30.7519 24.2568V21.8492C30.7518 20.2865 29.7704 19.7052 28.5169 19.7052ZM29.3345 24.2567C29.3345 24.8839 29.0257 25.1652 28.5169 25.1652C28.0081 25.1652 27.7083 24.8839 27.7083 24.2567V21.8491C27.7083 21.2222 28.0081 20.9408 28.5169 20.9408C29.0257 20.9408 29.3345 21.2222 29.3345 21.8491V24.2567ZM24.2275 23.4934C24.8635 23.2483 25.3268 22.667 25.3268 21.6494C25.3268 20.1683 24.3363 19.7051 23.0918 19.7051H21.211C20.9477 19.7051 20.775 19.905 20.775 20.1321V25.9102C20.775 26.2012 21.1294 26.3467 21.4837 26.3467C21.838 26.3467 22.1924 26.2012 22.1924 25.9102V23.7208H22.7921L24.0368 26.1376C24.1365 26.3283 24.3092 26.401 24.4909 26.401C24.909 26.401 25.3813 26.0195 25.3813 25.6651C25.3813 25.6197 25.3723 25.5562 25.3358 25.5013L24.2275 23.4934ZM23.0918 22.6304H22.1924V20.9408H23.0918C23.6006 20.9408 23.9094 21.1499 23.9094 21.7855C23.9094 22.4213 23.6006 22.6304 23.0918 22.6304Z" fill="#52006A"/>
<path d="M48.046 13.7357H46.4909C44.7612 9.8293 41.9902 6.49718 38.4431 4.07023C34.6224 1.45598 30.1467 0.0743408 25.5001 0.0743408C20.8532 0.0743408 16.3776 1.45598 12.5568 4.07023C9.00985 6.49718 6.23876 9.8293 4.50907 13.7357H2.9539C1.60078 13.7357 0.5 14.8364 0.5 16.1896V29.8621C0.5 31.2153 1.60078 32.3161 2.9539 32.3161H4.50888C6.23856 36.2225 9.00965 39.5548 12.5566 41.9818C16.3774 44.596 20.8532 45.9779 25.5001 45.9779C30.1468 45.9779 34.6225 44.596 38.4433 41.9818C41.9902 39.5548 44.7611 36.2225 46.4909 32.3161H48.046C49.399 32.3161 50.5 31.2154 50.5 29.8621V16.1896C50.5 14.8364 49.399 13.7357 48.046 13.7357ZM25.5001 2.02746C33.5717 2.02746 40.8126 6.57667 44.336 13.7357H37.4524C34.593 10.0643 30.1629 7.88653 25.5001 7.88653C20.8372 7.88653 16.4072 10.0644 13.5474 13.7357H11.1533C14.2851 8.88575 19.643 5.93351 25.5 5.93351C27.591 5.93351 29.6412 6.31134 31.5933 7.05675C32.0974 7.24884 32.6616 6.9965 32.8538 6.49259C33.0462 5.98888 32.7937 5.42433 32.2899 5.23205C30.1145 4.40158 27.8299 3.98049 25.5 3.98049C22.1114 3.98022 18.7842 4.88417 15.8617 6.59904C12.9392 8.31392 10.5272 10.7776 8.87469 13.7358H6.66395C10.1873 6.57657 17.4282 2.02746 25.5001 2.02746ZM34.8529 13.7357H16.1468C18.6048 11.2684 21.9761 9.83965 25.5 9.83965C29.0238 9.83965 32.3951 11.2684 34.8529 13.7357ZM25.5001 44.0246C17.4282 44.0246 10.1873 39.4752 6.66376 32.316H13.5474C16.4068 35.9875 20.837 38.1651 25.5001 38.1651C30.1629 38.1651 34.5931 35.9875 37.4525 32.316H39.8465C36.7147 37.166 31.3568 40.1182 25.5001 40.1182C23.4172 40.1197 21.3518 39.739 19.4064 38.995C18.9025 38.8029 18.3381 39.0552 18.1458 39.5591C17.9535 40.063 18.206 40.6274 18.7099 40.8197C20.8856 41.6501 23.1703 42.0712 25.5001 42.0712C28.8885 42.0714 32.2156 41.1674 35.1381 39.4525C38.0606 37.7377 40.4726 35.2741 42.1252 32.316H44.336C40.8125 39.4752 33.5717 44.0246 25.5001 44.0246ZM16.1468 32.3161H34.8533C32.3954 34.7835 29.0242 36.2121 25.5001 36.2121C21.9759 36.212 18.6047 34.7835 16.1468 32.3161ZM48.5469 29.8622C48.5469 30.1338 48.3175 30.3631 48.046 30.3631H2.9539C2.68252 30.3631 2.45312 30.1338 2.45312 29.8622V16.1896C2.45312 15.9181 2.68252 15.6888 2.9539 15.6888H48.046C48.3175 15.6888 48.5469 15.9181 48.5469 16.1896V29.8622Z" fill="#52006A"/>
<path d="M34.0168 8.20627L34.0586 8.2301C34.1706 8.29271 34.2938 8.33265 34.4211 8.34762C34.5485 8.36259 34.6776 8.3523 34.801 8.31735C34.9244 8.28239 35.0397 8.22345 35.1403 8.1439C35.2409 8.06435 35.3249 7.96575 35.3874 7.85373C35.6504 7.38303 35.482 6.78811 35.0111 6.52482L35.0028 6.52023C34.5372 6.24768 33.939 6.40441 33.6668 6.87023C33.3946 7.33596 33.5513 7.9341 34.0168 8.20627ZM16.9751 37.8406L16.95 37.8263C16.4817 37.5587 15.8852 37.7214 15.6175 38.1897C15.3501 38.6579 15.5127 39.2545 15.981 39.5222L16.006 39.5364C16.1173 39.6001 16.2402 39.6413 16.3674 39.6575C16.4946 39.6737 16.6238 39.6646 16.7476 39.6309C16.8713 39.5971 16.9872 39.5393 17.0886 39.4607C17.19 39.3821 17.2749 39.2843 17.3384 39.1729C17.606 38.7045 17.4433 38.1081 16.9751 37.8406Z" fill="#52006A"/>
</svg>
