<svg width="30" height="30" viewBox="0 0 30 30" fill="none" xmlns="http://www.w3.org/2000/svg">
<path d="M1.91992 8.09864C1.91992 6.44178 3.26307 5.09863 4.91992 5.09863H25.0826C26.7395 5.09863 28.0826 6.44178 28.0826 8.09863V21.9016C28.0826 23.5585 26.7395 24.9016 25.0826 24.9016H4.91992C3.26307 24.9016 1.91992 23.5585 1.91992 21.9016V8.09864Z" fill="#128807"/>
<path d="M19.8498 10.4748C20.0838 10.7625 20.3232 11.0685 20.5635 11.388C20.6142 12.0393 20.6277 12.6366 20.679 13.2888C20.6718 13.5678 20.586 13.9386 20.5044 13.9737C20.5044 13.9737 20.3802 14.0451 20.2971 13.9659C20.2368 13.9416 19.9953 13.563 19.9953 13.563C19.8717 13.4496 19.7895 13.482 19.7016 13.563C19.4592 13.797 19.3494 14.2356 19.1847 14.5377C19.1421 14.6052 19.0224 14.6625 18.8895 14.5323C18.6126 14.154 18.6951 13.6455 18.711 13.5666C18.7099 13.5719 18.7086 13.5772 18.7071 13.5825C18.4062 13.9215 18.5394 14.4837 18.6075 14.6046C18.7068 14.8032 18.7869 14.9301 18.9801 15.0285C19.1559 15.1578 19.293 15.0771 19.3683 14.9865C19.5453 14.8032 19.5477 14.334 19.6308 14.2413C19.689 14.0709 19.8351 14.1003 19.9062 14.1756C19.9752 14.2749 20.0568 14.3394 20.1582 14.3934C20.3232 14.5389 20.5203 14.5653 20.7144 14.4327C20.847 14.3583 20.9331 14.2614 21.0108 14.0706C21.0942 13.8477 21.0531 12.6792 21.0345 12.0294C21.1602 12.2066 21.2835 12.3856 21.4044 12.5661C21.4581 13.1367 21.4824 13.6986 21.4647 14.2374C21.4521 14.3445 21.8385 13.9176 21.8361 13.7151C21.8343 13.5381 21.8364 13.3776 21.8361 13.2285C22.0236 13.5279 22.2051 13.8321 22.3767 14.1402C22.4829 14.0838 22.4466 13.482 22.3794 13.3989C22.1997 13.0974 21.9699 12.7719 21.7917 12.5199C21.7566 12.2019 21.7086 11.8266 21.6867 11.7117C21.6528 11.5326 21.6186 11.2632 21.5673 11.0505C21.5532 10.9674 21.5106 10.7022 21.5241 10.6767C21.5451 10.6173 21.6243 10.6785 21.6633 10.6098C21.7215 10.5462 21.4611 9.8709 21.3288 9.6783C21.2814 9.5919 21.1953 9.6219 21.0888 9.7623C20.9901 9.8547 21.0261 10.0656 21.0639 10.266C21.1617 10.7772 21.2493 11.2977 21.3183 11.8167C21.1902 11.6262 21.0339 11.3961 20.88 11.1738L20.8602 11.0727C20.8602 11.0634 20.8389 10.6545 20.8209 10.557C20.8176 10.5174 20.8083 10.506 20.8497 10.5111C20.8935 10.548 20.8998 10.5501 20.9271 10.5624C20.9715 10.5705 21.0102 10.4955 20.9835 10.4259L20.5716 9.6651C20.5551 9.6489 20.5365 9.6318 20.5152 9.6285C20.4939 9.6252 20.4705 9.6357 20.4444 9.6744C20.4122 9.70246 20.3863 9.73713 20.3687 9.77606C20.351 9.81499 20.342 9.85726 20.3421 9.9C20.3544 10.08 20.3862 10.2645 20.3985 10.4445L20.4117 10.5168C20.3972 10.4982 20.3819 10.4803 20.3658 10.4631C20.0148 10.0944 20.5269 10.4028 20.2989 10.1181C20.106 9.9063 20.0496 9.8388 19.8843 9.7113C19.8015 9.6579 19.7514 9.5556 19.7241 9.7296C19.7133 9.8826 19.7019 10.0599 19.7124 10.1889C19.7115 10.2606 19.7859 10.3956 19.8498 10.4748ZM11.2056 13.1835C11.2017 13.2501 11.3898 13.3311 11.4012 13.4853C11.4282 13.5489 11.361 13.7523 11.4168 13.7712C11.4681 13.7925 11.5395 13.6305 11.5665 13.4799C11.5815 13.3974 11.502 13.1091 11.367 13.0575C11.346 13.0526 11.3243 13.0509 11.3028 13.0524C11.2377 13.0566 11.1795 13.0917 11.2056 13.1835Z" fill="white"/>
<path d="M20.4129 12.0677C20.4081 12.0668 20.4031 12.0672 20.3985 12.0689C20.3985 12.0689 19.5984 12.638 19.5786 12.6578C19.4991 12.7283 19.539 12.9764 19.5786 12.9476C19.6359 12.9695 20.4414 12.4238 20.4261 12.3599C20.4612 12.3623 20.478 12.0794 20.4129 12.0677ZM21.8844 10.7702C21.9126 10.8566 21.8418 11.1353 21.9 11.1611C21.9537 11.1899 22.0293 10.9685 22.0575 10.7636C22.0731 10.6514 21.99 10.2578 21.849 10.1876C21.8378 10.1846 21.8263 10.1828 21.8148 10.1822C21.7341 10.1795 21.6462 10.2407 21.681 10.3607C21.6606 10.4264 21.8532 10.6487 21.8844 10.7702ZM19.9626 12.0743C19.9656 11.9117 19.9812 11.6957 19.9902 11.5613C19.9941 11.5106 20.0058 11.4548 20.0544 11.4419C20.103 11.4293 20.1873 11.4908 20.1882 11.438C20.1792 11.3345 20.1588 11.1821 20.1003 11.1101C20.0857 11.089 20.0663 11.0716 20.0437 11.0593C20.0212 11.047 19.9961 11.0401 19.9704 11.0393C19.8858 11.0351 19.7955 11.09 19.7724 11.2058C19.7727 11.2742 19.8033 11.3117 19.7973 11.3738C19.7883 11.4092 19.752 11.4326 19.6647 11.3909C19.6782 11.3783 19.6083 11.2793 19.6083 11.2793C19.5402 11.2379 19.4496 11.2814 19.3905 11.3201C19.3693 11.3604 19.3567 11.4046 19.3533 11.4499C19.3499 11.4953 19.3558 11.5408 19.3707 11.5838C19.4685 11.7638 19.803 12.0713 19.9626 12.0743ZM16.5597 13.1345L16.5609 13.1333L16.5621 13.1321L16.5633 13.1309V13.1282C16.5635 13.1238 16.5631 13.1193 16.5621 13.115L16.4859 13.0703L14.9865 13.0637C14.972 13.0586 14.9582 13.0516 14.9457 13.0427L14.943 13.04L14.9418 13.0388L14.9406 13.0376L14.9394 13.0349L14.9382 13.0337V13.0325L14.937 13.0313V13.0217L14.9382 13.0205C14.9386 13.0196 14.939 13.0187 14.9394 13.0178C14.9466 13.0079 14.9643 12.9986 14.9865 12.9902C15.3444 12.9413 15.9807 12.8372 16.023 12.2255C16.0164 11.9069 15.8868 11.6981 15.4956 11.6405C15.2082 11.6627 15.0033 11.9405 15.0363 12.2465C15.0225 12.329 15.0642 12.4907 14.9799 12.509C14.4288 12.5594 13.8273 12.9047 13.8072 13.1519H13.806L13.8048 13.1531C13.8039 13.1536 13.803 13.154 13.8021 13.1543H13.7994L13.7955 13.1555H13.7877L13.7826 13.1543C13.7466 13.1444 13.7007 13.0853 13.7079 13.0022C13.6869 12.575 13.548 12.0914 13.3302 11.7191C13.2525 11.6414 13.2186 11.6099 13.1964 11.6063H13.1862C13.1838 11.6072 13.1817 11.609 13.1796 11.6102L13.1757 11.6129C13.1589 11.6255 13.1388 11.6549 13.0944 11.6864C13.0194 11.7719 13.0059 11.8313 13.0104 12.0026C13.0146 12.0206 13.1529 12.4052 13.2702 12.6755C13.3491 12.9566 13.4223 13.2782 13.3686 13.5821C13.1835 13.9838 12.8118 14.3441 12.453 14.5397C12.2703 14.5982 12.1122 14.5784 12.0699 14.5385L12.0687 14.5373C11.9637 14.4668 11.9613 14.3411 11.9676 14.3195V14.3183L11.9688 14.3171C12.2715 14.1062 12.6177 13.9355 12.8883 13.3661C12.9684 13.1486 12.9927 13.0178 12.9132 12.6812C12.8823 12.5558 12.8439 12.4526 12.7584 12.3638L12.7596 12.3626C12.8112 12.338 12.945 12.4364 12.9657 12.3743C12.9339 12.2135 12.8253 11.9978 12.702 11.8877C12.594 11.7896 12.4767 11.7782 12.378 11.8679C12.2667 11.9297 12.243 12.152 12.2967 12.3467C12.3561 12.4931 12.5169 12.5189 12.6312 12.8138V12.815C12.6336 12.8336 12.6705 13.0352 12.6129 13.1168C12.5661 13.2626 11.9655 13.7363 11.9229 13.7648C11.9223 13.7654 11.9193 13.7669 11.919 13.7675L11.9178 13.7687L11.9166 13.7699L11.9154 13.7711H11.913L11.9118 13.7699V13.7687L11.9106 13.766C11.9088 13.7543 11.9121 13.724 11.9106 13.6754C11.9067 13.5866 11.9433 13.3859 11.9409 13.3514V13.3502L11.9397 13.349V13.3478H11.9385C11.7399 13.4759 11.6742 13.8689 11.6382 13.9853C11.1354 14.3327 10.5645 14.591 10.2357 14.9429C10.0644 15.2102 11.4156 14.6357 11.5725 14.5664L11.5764 14.5703C11.6061 14.603 11.6088 14.7176 11.6985 14.8208C11.8389 15.011 12.1374 15.1283 12.4278 15.0557C12.915 14.8796 13.1955 14.5478 13.4814 14.1794C13.5222 14.12 13.5861 14.0732 13.6455 14.1191C13.8417 14.5586 14.4078 14.8715 15.1398 14.9036C15.3093 14.6978 15.2283 14.5964 15.1596 14.5532C15.1383 14.5391 14.7957 14.4056 14.7423 14.2724C14.7087 14.1485 14.7903 14.0387 14.9535 13.9562C15.4233 13.8995 15.8853 13.8362 16.3323 13.6925C16.3368 13.5422 16.4253 13.3178 16.4844 13.2203C16.5234 13.1507 16.5498 13.1441 16.5597 13.1345ZM15.3231 12.1928C15.3241 12.1881 15.3259 12.1837 15.3285 12.1796C15.3294 12.1781 15.33 12.1757 15.3312 12.1742L15.3324 12.173C15.3344 12.1707 15.3366 12.1685 15.339 12.1664C15.3501 12.1582 15.3633 12.1532 15.3771 12.152C15.4183 12.1503 15.459 12.1613 15.4938 12.1835C15.5535 12.218 15.5904 12.2702 15.5856 12.308V12.3119L15.5829 12.3158L15.5817 12.3197L15.5805 12.3224L15.5793 12.3251C15.577 12.3285 15.5744 12.3316 15.5715 12.3344C15.5427 12.3611 15.4764 12.3575 15.414 12.3212C15.3549 12.287 15.3183 12.2345 15.3222 12.1967C15.3219 12.1958 15.3228 12.1937 15.3231 12.1928ZM14.7237 13.6946C14.5629 13.7498 14.4081 13.7927 14.4075 14.0252C14.4285 14.1404 14.4243 14.2007 14.4063 14.2286C14.4046 14.2309 14.4028 14.2332 14.4009 14.2352L14.3997 14.2364L14.3985 14.2376L14.3973 14.2388L14.3961 14.24L14.3934 14.2412C14.3909 14.2428 14.3883 14.2441 14.3856 14.2451C14.3835 14.246 14.3802 14.246 14.3778 14.2463C14.3394 14.252 14.2839 14.2154 14.2428 14.1938C14.1435 14.1227 13.8651 13.9502 13.8255 13.5797C13.8198 13.496 13.8825 13.424 13.983 13.4171H14.0001C14.1672 13.4624 14.4135 13.4672 14.6271 13.4894C14.8008 13.5011 14.8866 13.6373 14.7237 13.6946Z" fill="white"/>
<path d="M14.2274 12.2434C14.4002 12.3256 14.8115 12.2773 14.7116 12.0112C14.7099 11.9679 14.7068 11.9245 14.7023 11.8813C14.6846 11.8402 14.6522 11.8246 14.621 11.83C14.5898 11.8354 14.5598 11.8612 14.549 11.9035C14.5421 11.9314 14.5622 11.9773 14.5373 11.9914C14.5229 12.0061 14.4668 11.9974 14.4692 11.9206C14.4692 11.896 14.4512 11.8693 14.4404 11.8537C14.4296 11.8465 14.4233 11.8444 14.4035 11.8444C14.3795 11.8453 14.3786 11.8516 14.3654 11.872C14.3597 11.8927 14.3522 11.9128 14.3522 11.9362C14.3492 11.9635 14.3396 11.9728 14.3195 11.977C14.297 11.977 14.3024 11.9794 14.2841 11.9677C14.2733 11.956 14.2592 11.9512 14.2592 11.9311C14.2594 11.908 14.2558 11.885 14.2487 11.863C14.2391 11.8504 14.2226 11.845 14.2055 11.8408C14.1113 11.8411 14.1056 11.9482 14.111 11.989C14.1035 11.9965 14.0987 12.19 14.2274 12.2434ZM20.4566 19.4212C20.3534 19.4368 20.0642 19.4659 20.0642 19.4659C19.7297 19.426 19.484 19.4221 19.1078 19.4083C19.1426 19.3642 19.2038 19.1857 19.1288 19.1209C19.1093 19.1047 19.0799 19.0957 19.0397 19.0987H19.0358L19.0346 19.0975C19.0334 19.0972 19.0316 19.0969 19.0307 19.0963C19.0282 19.0945 19.026 19.0922 19.0241 19.0897L19.0214 19.087C19.0025 19.0594 18.992 18.9913 18.9794 18.9742L18.9782 18.973L18.977 18.9718L18.9743 18.9706H18.9719L18.9707 18.9718C18.7217 19.0357 18.7295 19.294 18.8894 19.4074C16.2617 19.4074 12.2291 19.3627 11.3642 19.3627C10.8803 19.3627 9.34971 19.3051 9.32031 19.3051C9.64851 19.7851 10.124 19.8829 10.7465 19.8928C11.9138 19.8928 17.3216 19.8784 18.8606 19.8784C18.7511 20.0728 18.8705 20.3854 18.9563 20.4424L18.9629 20.4463L18.9734 20.4502H18.9773C19.0793 20.4742 19.124 20.4004 19.1582 20.3467C19.3235 20.3614 20.2538 20.3746 20.339 20.3455L20.3402 20.3443C20.3978 20.4289 20.4548 20.509 20.5646 20.4952C20.7563 20.4541 20.9075 20.4331 20.9123 20.044C20.912 20.0431 20.8922 19.3795 20.4566 19.4212ZM20.2691 20.1322C20.267 20.1333 20.2648 20.1342 20.2625 20.1349H20.2523C20.1275 20.1319 20.0555 20.1289 19.9307 20.1256C19.9306 20.1195 19.9297 20.1133 19.928 20.1073C19.8983 20.0197 19.6844 20.0257 19.634 20.0941L19.6313 20.098L19.6286 20.1034C19.6276 20.1056 19.6267 20.1078 19.6259 20.11C19.625 20.1127 19.625 20.1163 19.6247 20.1193C19.6244 20.1223 19.6232 20.1265 19.6235 20.1298C19.4552 20.1499 19.3037 20.1241 19.1354 20.1181C19.0859 20.0566 19.0919 19.9453 19.1498 19.9186H19.151C19.5344 19.9372 19.8947 19.9222 20.2778 19.9408C20.339 19.9924 20.3087 20.1106 20.2691 20.1322ZM15.7682 14.806C15.7682 14.8126 15.8357 14.8705 15.9152 14.8243C16.0826 14.7604 16.187 14.6983 16.4216 14.6473C16.4831 14.6461 16.4795 14.4814 16.3823 14.4754C16.2554 14.4817 16.1381 14.4883 16.0109 14.5882C15.9329 14.6062 15.9194 14.5588 15.902 14.5159C15.8822 14.41 15.9467 14.3356 15.9335 14.2561C15.9371 14.2597 15.8942 14.221 15.839 14.218C15.8191 14.2168 15.7993 14.2209 15.7814 14.2297C15.7775 14.2297 15.6047 14.3464 15.5492 14.4277C15.5153 14.4535 15.5192 14.476 15.5297 14.5207C15.5561 14.5816 15.6026 14.5624 15.6557 14.5339C15.7259 14.5243 15.7598 14.5702 15.7541 14.6545C15.7214 14.7604 15.7682 14.7994 15.7682 14.806ZM21.5618 14.764C21.5291 14.7265 21.4553 14.749 21.4058 14.743C21.3821 14.743 21.3047 14.7316 21.3416 14.6629C21.3725 14.6203 21.3836 14.5948 21.4046 14.5423C21.428 14.491 21.4076 14.4562 21.3233 14.4283C21.2893 14.4214 21.2545 14.4183 21.2198 14.419C21.1886 14.4199 21.1559 14.4244 21.1082 14.4283C21.0569 14.4391 21.0389 14.4616 21.0296 14.524C21.0332 14.6185 21.0911 14.6137 21.1502 14.6512C21.1844 14.6947 21.2069 14.7343 21.1475 14.806C21.0914 14.8573 21.0515 14.8858 20.9954 14.9371C20.969 14.9824 20.9525 15.0517 21.0335 15.0736C21.1832 15.1156 21.5294 14.8906 21.5294 14.8861C21.5849 14.8441 21.5663 14.764 21.5618 14.764ZM18.8867 14.3173C19.007 14.3182 19.1462 14.0422 19.2056 13.7689C19.2383 13.3927 19.184 13.1635 19.1741 12.9424C19.1645 12.7213 18.9236 10.9267 18.875 10.7593C18.8162 10.4428 19.109 10.7176 19.0769 10.5337C18.9758 10.3018 18.7232 9.96405 18.644 9.76245C18.6143 9.70845 18.6107 9.65865 18.5864 9.66285C18.5717 9.66525 18.5504 9.68745 18.5102 9.74025C18.4115 10.063 18.3767 10.3267 18.4145 10.5274C18.6683 11.851 18.9281 13.057 18.8867 14.3173Z" fill="white"/>
<path d="M22.6373 10.8119C22.6259 10.7285 22.589 10.5365 22.6031 10.5116C22.6259 10.4528 22.7417 10.5176 22.7828 10.4498C22.8431 10.388 22.4837 9.92784 22.3577 9.73104C22.3325 9.68154 22.3172 9.64104 22.2947 9.64314C22.2773 9.64494 22.2563 9.67284 22.2239 9.74154C22.1459 9.86904 22.1192 10.0973 22.1504 10.2992C22.3379 11.5673 22.4771 12.7949 22.5059 13.9187C22.4897 14.0255 22.4852 14.0822 22.4351 14.2166C22.3244 14.3585 22.2023 14.5361 22.0874 14.6219C21.9725 14.7077 21.728 14.7893 21.6479 14.8529C21.3941 14.9996 21.3929 15.1682 21.5981 15.1742C21.9515 15.1331 22.37 15.1043 22.658 14.669C22.7351 14.5472 22.826 14.2166 22.8299 14.0144C22.8569 12.8285 22.8149 11.669 22.6373 10.8119ZM20.3003 13.6106C20.354 13.6394 20.4956 13.4654 20.4905 13.2473C20.5061 13.1351 20.4506 12.7217 20.3096 12.6518C20.2929 12.6472 20.2755 12.6459 20.2583 12.6479C20.1845 12.6569 20.1146 12.7268 20.1467 12.8381C20.1263 12.9035 20.2466 13.1324 20.2778 13.2539C20.306 13.3403 20.2418 13.5848 20.3003 13.6106ZM9.16607 10.0997C9.33887 10.1819 9.66257 10.1471 9.64877 9.86874C9.64877 9.84414 9.64337 9.76134 9.64097 9.73884C9.62327 9.69804 9.59087 9.68244 9.55997 9.68784C9.52877 9.69324 9.49877 9.71904 9.48797 9.76134C9.48107 9.78924 9.49997 9.83514 9.47477 9.84924C9.46037 9.86364 9.40547 9.85404 9.40787 9.77694C9.40787 9.75234 9.38987 9.72684 9.37907 9.71124C9.36827 9.70404 9.36077 9.70194 9.34097 9.70194C9.31697 9.70284 9.31727 9.70914 9.30407 9.72954C9.29807 9.75024 9.29057 9.77034 9.29057 9.79374C9.28757 9.82104 9.27647 9.83034 9.25637 9.83454C9.23387 9.83454 9.23927 9.83694 9.22097 9.82524C9.21017 9.81354 9.19727 9.80874 9.19727 9.78864C9.19707 9.76546 9.19312 9.74246 9.18557 9.72054C9.17597 9.70794 9.16097 9.70134 9.14357 9.69684C9.04937 9.69714 9.04247 9.80544 9.04787 9.84654C9.04097 9.85404 9.03767 10.0463 9.16607 10.0997ZM11.7749 11.0012C11.7458 11.0009 11.7174 11.0096 11.6936 11.0261C11.5409 11.1086 11.4818 11.3537 11.5769 11.4971C11.6657 11.6234 11.8061 11.5772 11.8247 11.5772C11.9744 11.5958 12.0635 11.2964 12.0635 11.2964C12.0635 11.2964 12.068 11.2121 11.8904 11.3711C11.8157 11.3852 11.8055 11.3582 11.7869 11.3159C11.769 11.2372 11.7773 11.1547 11.8106 11.081C11.8268 11.0345 11.8103 11.0048 11.7749 11.0012ZM17.9852 14.0471C17.7074 14.3369 17.3072 14.6945 16.8713 14.8592C16.8245 14.9117 16.988 15.1361 17.1992 15.1361C17.5526 15.095 17.8634 14.8967 18.1517 14.3738C18.2288 14.252 18.3641 13.991 18.368 13.7888C18.395 12.6029 18.3083 11.681 18.1304 10.8239C18.119 10.7405 18.1268 10.6418 18.1409 10.6166C18.1637 10.5893 18.2414 10.6172 18.2825 10.5497C18.3428 10.4879 18.1211 9.97644 17.9951 9.77964C17.9699 9.73014 17.9546 9.69084 17.9321 9.69294C17.9147 9.69474 17.8937 9.72144 17.8613 9.79014C17.7833 9.91764 17.7305 10.1396 17.7365 10.3478C17.9051 11.5154 17.957 12.5372 18.0671 13.7051C18.0767 13.8176 18.0602 13.9817 17.9852 14.0471ZM8.37077 12.2963C7.95617 12.3038 7.34897 12.8399 7.33307 13.1372C7.77047 12.9272 8.20037 12.725 8.64497 12.5075C8.57327 12.4004 8.64077 12.3041 8.37077 12.2963ZM7.56677 14.4962C7.45787 14.7176 7.41227 14.5661 7.40267 14.4425C7.38587 14.2079 7.40867 13.9919 7.43417 13.8206C7.44767 13.733 7.44737 13.7021 7.43687 13.7024C7.42637 13.7027 7.40567 13.7339 7.37777 13.7693C7.13117 14.1623 7.10927 14.7488 7.24517 14.9237C7.31747 15.0065 7.43657 15.0428 7.52447 15.0167C7.67957 14.9495 7.74767 14.6357 7.71077 14.5208C7.65947 14.4401 7.61837 14.4275 7.56677 14.4962Z" fill="white"/>
<path d="M7.61326 11.9378C8.11726 11.9861 7.83886 11.0858 8.02126 10.9223C8.05576 10.8416 8.11966 10.8401 8.12476 10.9421V11.7068C8.12026 11.9555 8.28376 12.0293 8.41066 12.0806C8.54266 12.0704 8.63026 12.074 8.68216 12.2027L8.74516 13.5263C8.74516 13.5263 9.05056 13.6142 9.06526 12.7823C9.07996 12.2939 8.96806 11.8841 9.03376 11.7893C9.03616 11.696 9.15556 11.6912 9.23836 11.7368C9.37006 11.8298 9.42856 11.9441 9.63316 11.8982C9.94456 11.8124 10.1324 11.6612 10.1369 11.4221C10.1186 11.1947 10.0925 10.9673 9.99376 10.7399C10.0076 10.6985 9.93406 10.5911 9.94786 10.5497C10.004 10.6373 10.0886 10.6301 10.1081 10.5497C10.055 10.3751 9.97246 10.2077 9.83926 10.1351C9.72916 10.0379 9.56776 10.0586 9.50866 10.2611C9.48136 10.4945 9.59326 10.7711 9.76306 10.997C9.79906 11.0852 9.84976 11.2322 9.82726 11.3642C9.73696 11.4158 9.64726 11.3942 9.57136 11.3144C9.57136 11.3144 9.32326 11.1287 9.32326 11.0873C9.38896 10.6661 9.33736 10.6178 9.30106 10.5008C9.27556 10.3394 9.19906 10.2884 9.13696 10.178C9.07486 10.1123 8.99086 10.1123 8.95066 10.178C8.84116 10.3679 8.89246 10.7759 8.97166 10.9586C9.02896 11.1266 9.11656 11.2316 9.07516 11.2316C9.04126 11.3267 8.97016 11.3045 8.91916 11.195C8.84596 10.9685 8.83126 10.631 8.83126 10.4786C8.80936 10.2899 8.78476 9.88697 8.66086 9.78467C8.62786 9.73967 8.58856 9.72377 8.55076 9.72827C8.50186 9.73397 8.45596 9.77357 8.43406 9.82667C8.42596 10.0139 8.42476 10.2011 8.44576 10.3736C8.53096 10.6763 8.55796 10.9427 8.59936 11.2526C8.61076 11.6678 8.35966 11.4323 8.37106 11.2265C8.42896 10.9592 8.41336 10.5383 8.36176 10.4315C8.32096 10.3247 8.27356 10.2986 8.17426 10.316C8.09536 10.3112 7.89136 10.5332 7.83436 10.901C7.83436 10.901 7.78696 11.0897 7.76626 11.2577C7.73836 11.4476 7.61266 11.5823 7.52476 11.2316C7.44886 10.9766 7.40236 10.3487 7.27546 10.4957C7.23976 10.9865 7.19656 11.8493 7.61326 11.9378Z" fill="white"/>
<path d="M7.78148 10.089C7.80788 10.155 7.75538 10.3671 7.81028 10.3869C7.86098 10.4088 7.93058 10.2399 7.95728 10.0839C7.97198 9.99837 7.96088 9.70557 7.76168 9.64557C7.75134 9.6432 7.74079 9.64189 7.73018 9.64167C7.65398 9.63957 7.57028 9.68667 7.60298 9.77817C7.58408 9.82767 7.75208 9.99627 7.78148 10.089ZM10.6588 13.9059C10.8385 13.3077 10.6552 12.8568 10.7152 12.8013L10.7179 12.8001L10.7206 12.7989L10.7233 12.7977C10.7258 12.797 10.7284 12.7966 10.7311 12.7965C10.9528 13.0353 11.2639 12.8268 11.332 12.744C11.3611 12.7026 11.4343 12.6759 11.4856 12.7296C11.6584 12.8538 11.9617 12.7953 12.0247 12.576C12.0613 12.3618 12.0922 12.141 12.0994 11.9121C11.9869 11.9472 11.896 11.9733 11.8594 12.0117C11.8508 12.0203 11.8448 12.0312 11.8423 12.0432C11.8324 12.1065 11.8231 12.1701 11.8135 12.2334C11.8125 12.2384 11.8107 12.2432 11.8084 12.2478C11.8031 12.256 11.7959 12.2628 11.7874 12.2676C11.7475 12.2892 11.6782 12.2769 11.6746 12.219C11.6209 11.9754 11.4007 11.9439 11.2666 12.3213C11.1766 12.3942 11.0122 12.4086 10.9951 12.2991C11.017 12.0459 10.915 12.0117 10.7104 12.1311C10.6447 11.6295 10.5793 11.1504 10.5136 10.6488C10.5988 10.6464 10.6771 10.7082 10.7551 10.6107C10.6708 10.3485 10.4923 9.81447 10.3918 9.76437L10.3891 9.76317C10.3828 9.75592 10.3758 9.74938 10.3681 9.74367C10.3659 9.74226 10.3637 9.74096 10.3615 9.73977C10.3576 9.73767 10.3525 9.73587 10.3483 9.73437C10.3394 9.73152 10.33 9.7306 10.3207 9.73167C10.2958 9.73497 10.2679 9.74907 10.2355 9.75657C10.1284 9.79077 10.0282 9.88317 10.0597 10.0635C10.1863 10.833 10.2688 11.4204 10.3954 12.1902C10.4149 12.2802 10.3393 12.399 10.2421 12.387C10.0765 12.2748 10.0354 12.048 9.75278 12.0576C9.54818 12.06 9.31478 12.2826 9.28568 12.4971C9.25148 12.6675 9.23948 12.8523 9.28568 13.0008C9.42938 13.1736 9.60158 13.1553 9.75278 13.1163C9.87698 13.0653 9.97928 12.9429 10.0231 12.972H10.0243V12.9732C10.0513 13.0206 10.0216 13.4208 9.43928 13.7301C9.08138 13.8909 8.79638 13.9293 8.64308 13.6371C8.54798 13.4544 8.64998 12.7587 8.41598 12.9195C7.72448 14.7024 10.0363 14.9511 10.2946 12.993C10.3114 12.9378 10.3624 12.8823 10.3981 12.8958C10.414 12.9024 10.4284 12.924 10.4335 12.9639C10.3798 14.7369 8.64488 14.8584 8.35028 14.3007C8.27708 14.1693 8.25518 13.8765 8.24798 13.7013C8.23478 13.5951 8.20808 13.5339 8.17718 13.5099C8.10698 13.4571 8.01248 13.5948 7.99208 13.8339C7.96268 14.0262 7.97108 14.079 7.97108 14.2641C8.06318 15.6645 10.2958 15.0627 10.6588 13.9059ZM9.79628 12.6942V12.6954L9.79508 12.6981C9.77768 12.7206 9.71648 12.7113 9.67298 12.7113C9.62048 12.7089 9.59438 12.7002 9.56288 12.6576C9.54788 12.6099 9.59378 12.5631 9.61418 12.5277L9.61538 12.5265C9.61805 12.5226 9.62117 12.5191 9.62468 12.516C9.64507 12.4986 9.67011 12.4877 9.69668 12.4845C9.70238 12.4839 9.70778 12.483 9.71378 12.4833C9.75428 12.4839 9.79718 12.5037 9.81998 12.5607C9.82822 12.583 9.83036 12.6072 9.8262 12.6306C9.82204 12.6541 9.81171 12.676 9.79628 12.6942ZM17.179 11.3568C17.3518 11.439 17.6767 11.403 17.6632 11.1246C17.6615 11.0812 17.6584 11.0379 17.6539 10.9947C17.6362 10.9536 17.6038 10.938 17.5726 10.9434C17.5414 10.9488 17.5114 10.9758 17.5006 11.0181C17.4937 11.046 17.5138 11.0907 17.4889 11.1048C17.4745 11.1195 17.4184 11.1108 17.4208 11.034C17.4208 11.0094 17.4028 10.9827 17.392 10.9671C17.3812 10.9599 17.3737 10.9578 17.3539 10.9578C17.3299 10.9587 17.3305 10.965 17.3173 10.9854C17.3116 11.0061 17.3041 11.0262 17.3041 11.0496C17.3011 11.0769 17.2915 11.0862 17.2714 11.0904C17.2489 11.0904 17.2528 11.0928 17.2348 11.0811C17.224 11.0694 17.2111 11.0646 17.2111 11.0445C17.2109 11.0213 17.2069 10.9983 17.1994 10.9764C17.1898 10.9638 17.1748 10.9584 17.1574 10.9542C17.0632 10.9545 17.0575 11.0616 17.0629 11.1024C17.0551 11.1099 17.0503 11.3034 17.179 11.3568ZM17.2957 10.2771C17.3572 10.4496 17.2486 10.614 17.3128 10.638C17.3719 10.6647 17.4538 10.4598 17.4847 10.2708C17.5204 10.1178 17.4112 9.80427 17.2564 9.73947C17.2443 9.73694 17.2321 9.73563 17.2198 9.73557C17.1313 9.73287 17.0335 9.78867 17.0716 9.89967C17.0491 9.95967 17.2612 10.1649 17.2957 10.2771Z" fill="white"/>
<path d="M10.8585 11.1058H10.8597L10.8609 11.107H10.8621L10.8633 11.1082C10.896 11.1301 11.3001 11.1298 11.3448 11.1094L11.346 11.1082H11.3472V11.107C11.4861 11.0557 12.1449 10.3027 12.1449 10.3027C12.1107 10.2736 12.0792 10.252 12.045 10.2226C12.0084 10.1908 12.0123 10.1599 12.045 10.1281C12.2082 10.033 12.1566 9.82422 12.0714 9.72942C12.0009 9.69762 11.9343 9.68712 11.8746 9.69012C11.8149 9.69312 11.7621 9.71022 11.7171 9.73332C11.6028 9.84282 11.5758 10.0186 11.6661 10.1281C11.7537 10.1695 11.8413 10.2577 11.7828 10.3066C11.5347 10.5715 10.8891 11.0143 10.8567 11.095L10.8555 11.0977V11.1016L10.8567 11.1043L10.8585 11.1058ZM11.8356 9.92532C11.8381 9.92477 11.8407 9.92437 11.8434 9.92412C11.8836 9.91992 11.9325 9.95712 11.9562 10.0093C11.9817 10.0651 11.9688 10.1185 11.9274 10.1287C11.886 10.1389 11.832 10.102 11.8068 10.0459C11.7816 9.98982 11.7942 9.93552 11.8356 9.92532ZM15.6888 10.342C15.9782 10.7294 16.2573 11.1245 16.5258 11.5267C16.5681 11.827 16.599 12.121 16.6188 12.4135C16.6623 13.0552 16.6755 13.8538 16.6359 14.5297C16.7562 14.5345 16.9488 14.3356 17.0163 14.0443C17.0601 13.6414 17.0007 12.8194 16.9965 12.5815C16.9935 12.4828 16.9875 12.3649 16.9809 12.2416C17.309 12.7776 17.6141 13.3273 17.8953 13.8892C18.0039 13.8376 17.9799 13.2259 17.9163 13.1401C17.6778 12.6268 17.3484 12.1201 17.2434 11.9254C17.2056 11.8549 17.0763 11.6587 16.9233 11.4322C16.8951 11.1091 16.8645 10.8352 16.8447 10.7527C16.7955 10.411 16.9851 10.7911 16.9587 10.5925C16.8972 10.2514 16.7088 10.0195 16.4865 9.70692C16.4148 9.60522 16.4163 9.58452 16.3056 9.73182C16.2393 9.88182 16.2402 10.0069 16.2597 10.1239C16.2232 10.0706 16.1842 10.0189 16.143 9.96912C15.951 9.80442 15.939 9.79542 15.7797 9.66072C15.7293 9.62502 15.6336 9.57012 15.5607 9.57672C15.5169 9.58062 15.4818 9.60642 15.4689 9.67122C15.4515 9.82362 15.4605 9.90642 15.486 10.0333C15.5049 10.1182 15.6282 10.2598 15.6888 10.342ZM16.3017 10.3189C16.3092 10.3519 16.3164 10.3849 16.3215 10.4185C16.338 10.4911 16.3524 10.5634 16.3674 10.6348C16.3232 10.572 16.2767 10.5107 16.2282 10.4512C16.0842 10.2802 16.2312 10.339 16.3017 10.3189Z" fill="white"/>
<path d="M12.7466 11.548C12.9482 11.6314 13.076 11.2477 13.1585 10.8277C13.2149 10.7098 13.2581 10.6963 13.2872 10.7569C13.2797 11.3155 13.3274 11.44 13.4708 11.6095C13.7912 11.8567 14.0561 11.6407 14.0768 11.62L14.3261 11.3707C14.3816 11.3122 14.4551 11.3089 14.5334 11.3602C14.6096 11.4295 14.5997 11.5489 14.7629 11.6317C14.9003 11.6866 15.1934 11.6452 15.2615 11.5267C15.353 11.3698 15.3752 11.3158 15.4175 11.2564C15.4829 11.1694 15.5945 11.2081 15.5945 11.2354C15.584 11.284 15.5183 11.3317 15.563 11.419C15.6407 11.4772 15.6587 11.4397 15.7046 11.4268C15.8672 11.3491 15.9893 10.9966 15.9893 10.9966C15.9965 10.8652 15.9218 10.8751 15.8738 10.9021C15.8114 10.9402 15.8075 10.9531 15.7451 10.9912C15.6656 11.0029 15.5117 11.0554 15.4355 10.9375C15.3578 10.7956 15.3572 10.5979 15.2978 10.4548C15.2978 10.4443 15.194 10.2298 15.29 10.216C15.3386 10.225 15.4427 10.252 15.4592 10.1647C15.5102 10.0798 15.3494 9.83888 15.2402 9.71738C15.1454 9.61328 15.0143 9.60038 14.8874 9.70688C14.7986 9.78878 14.8118 9.87998 14.7941 9.96668C14.7716 10.0663 14.7758 10.1893 14.8769 10.321C14.9657 10.4959 15.1268 10.7203 15.0737 11.0374C15.0737 11.0374 14.9801 11.1883 14.8154 11.1685C14.7467 11.1535 14.6348 11.1238 14.5754 10.6843C14.5304 10.3516 14.5868 9.88568 14.4455 9.66758C14.4137 9.58538 14.3864 9.50528 14.3405 9.51158C14.3132 9.51518 14.2796 9.55028 14.2328 9.63488C14.1995 9.72338 14.0555 9.85718 14.1593 10.1335C14.2442 10.3087 14.2793 10.5931 14.2406 10.9102C14.1818 11.0002 14.1683 11.0314 14.0909 11.1214C13.9823 11.2381 13.865 11.2081 13.7747 11.1646C13.6904 11.1079 13.6241 11.0788 13.5857 10.8982C13.5926 10.6108 13.6094 10.1401 13.5569 10.0402C13.4795 9.88538 13.3517 9.94088 13.2971 9.98768C13.0349 10.2274 12.9053 10.6324 12.8261 10.9546C12.7535 11.1895 12.6758 11.1214 12.6215 11.0266C12.4889 10.9024 12.4796 9.93158 12.3197 10.0912C12.0641 10.8238 12.4673 11.626 12.7466 11.548Z" fill="white"/>
<path d="M13.8805 10.1675C13.9798 9.89963 13.9801 9.78533 13.9867 9.67163C13.9711 9.58493 13.9336 9.54323 13.891 9.54713C13.8484 9.55073 13.801 9.60053 13.7623 9.69683C13.7293 9.77003 13.6888 10.1519 13.6954 10.1519C13.669 10.2656 13.8142 10.3136 13.8805 10.1675ZM12.844 10.1048C12.9004 10.0634 12.9196 10.0367 12.9385 9.96713C12.9619 9.85013 12.8155 10.0223 12.7969 9.89243C12.7642 9.77153 12.8578 9.72203 12.9466 9.60503C12.9487 9.55013 12.9496 9.50513 12.9139 9.50393C12.8977 9.50333 12.8734 9.51263 12.8392 9.53273C12.7624 9.58433 12.6103 9.74273 12.6058 9.92483C12.601 10.0277 12.5818 10.0274 12.649 10.0928C12.6973 10.163 12.7459 10.1561 12.844 10.1048Z" fill="white"/>
</svg>
