<svg xmlns="http://www.w3.org/2000/svg" width="58" height="57" viewBox="0 0 58 57" fill="none">
  <path fill-rule="evenodd" clip-rule="evenodd" d="M32.2539 20.3111C32.2291 20.0672 32.1293 19.8369 31.9684 19.6519C31.8074 19.4669 31.5931 19.3363 31.355 19.278C29.8662 18.9121 28.311 18.9121 26.8223 19.278C26.5841 19.3363 26.3699 19.4669 26.2089 19.6519C26.0479 19.8369 25.9482 20.0672 25.9234 20.3111L25.7749 21.7694C25.4763 21.9161 25.1879 22.0827 24.9116 22.2681L23.5745 21.6661C23.3508 21.5659 23.1016 21.5372 22.861 21.5839C22.6204 21.6307 22.4001 21.7506 22.2302 21.9273C21.1691 23.0343 20.3917 24.3817 19.9645 25.8544C19.8961 26.0897 19.9021 26.3404 19.9819 26.5722C20.0616 26.8039 20.2111 27.0053 20.4098 27.1488L21.5973 28.0061C21.5771 28.3386 21.5771 28.6711 21.5973 29.0036L20.4098 29.861C20.2108 30.0045 20.0612 30.2061 19.9815 30.4381C19.9017 30.6701 19.8958 30.9211 19.9645 31.1566C20.3919 32.6288 21.1693 33.9758 22.2302 35.0824C22.5782 35.4446 23.1161 35.5503 23.5745 35.3437L24.9116 34.7428C25.1883 34.9269 25.4769 35.0955 25.7749 35.2416L25.9234 36.6998C25.9482 36.9438 26.0479 37.174 26.2089 37.359C26.3699 37.544 26.5841 37.6746 26.8223 37.7329C28.311 38.0989 29.8662 38.0989 31.355 37.7329C31.5931 37.6746 31.8074 37.544 31.9684 37.359C32.1293 37.174 32.2291 36.9438 32.2539 36.6998L32.4024 35.2416C32.701 35.0948 32.9894 34.9282 33.2657 34.7428L34.6028 35.3449C35.0612 35.5503 35.6003 35.4446 35.947 35.0836C37.0082 33.9767 37.7855 32.6293 38.2128 31.1566C38.2812 30.9212 38.2751 30.6705 38.1954 30.4388C38.1157 30.207 37.9662 30.0056 37.7675 29.8622L36.58 29.0048C36.6002 28.6723 36.6002 28.3398 36.58 28.0073L37.7675 27.1499C37.9664 27.0064 38.1161 26.8048 38.1958 26.5729C38.2755 26.3409 38.2815 26.0899 38.2128 25.8544C37.7854 24.3821 37.008 23.0351 35.947 21.9285C35.7772 21.7518 35.5569 21.6319 35.3163 21.5851C35.0757 21.5384 34.8265 21.567 34.6028 21.6673L33.2657 22.2681C32.989 22.0833 32.7007 21.9167 32.4024 21.7694L32.2539 20.3111ZM29.981 21.4357L30.1093 22.7039C30.1568 23.1552 30.4537 23.5376 30.8764 23.6967C31.4155 23.8962 31.9167 24.1848 32.3608 24.5517C32.5315 24.6929 32.7383 24.7835 32.9578 24.8133C33.1773 24.8431 33.4008 24.8109 33.6029 24.7203L34.7667 24.1978C35.1265 24.6728 35.4257 25.1918 35.6573 25.7416L34.6242 26.4897C34.4445 26.6194 34.3048 26.7969 34.2209 27.0019C34.1369 27.207 34.1121 27.4314 34.1492 27.6499C34.2442 28.2163 34.2442 28.7946 34.1492 29.3611C34.1119 29.5797 34.1366 29.8044 34.2206 30.0097C34.3045 30.215 34.4443 30.3926 34.6242 30.5224L35.6585 31.2694C35.4263 31.8189 35.1268 32.3375 34.7667 32.8131L33.6029 32.2906C33.4007 32.1997 33.1771 32.1672 32.9573 32.1968C32.7376 32.2264 32.5306 32.3169 32.3596 32.4581C31.9167 32.8262 31.4155 33.1148 30.8764 33.3131C30.6688 33.391 30.4869 33.5253 30.3514 33.7009C30.2159 33.8765 30.132 34.0864 30.1093 34.307L29.981 35.5753C29.3885 35.6509 28.7888 35.6509 28.1962 35.5753L28.068 34.307C28.0205 33.8558 27.7236 33.4734 27.3009 33.3143C26.7614 33.115 26.2595 32.8259 25.8165 32.4593C25.6458 32.3181 25.439 32.2275 25.2195 32.1977C25 32.1679 24.7765 32.2001 24.5744 32.2906L23.4106 32.8131C23.0503 32.3378 22.7511 31.8192 22.52 31.2694L23.5531 30.5213C23.7327 30.3915 23.8724 30.2141 23.9564 30.009C24.0403 29.804 24.0652 29.5795 24.0281 29.3611C23.9329 28.7946 23.9329 28.2163 24.0281 27.6499C24.0654 27.4313 24.0407 27.2065 23.9567 27.0013C23.8728 26.796 23.7329 26.6183 23.5531 26.4885L22.5188 25.7416C22.7515 25.1918 23.0508 24.6728 23.4106 24.1978L24.5744 24.7203C24.7766 24.8113 25.0002 24.8438 25.2199 24.8142C25.4397 24.7846 25.6467 24.6941 25.8177 24.5529C26.2606 24.1848 26.7617 23.8962 27.3009 23.6979C27.7236 23.5376 28.0217 23.154 28.068 22.7039L28.1962 21.4357C28.7888 21.36 29.3885 21.36 29.981 21.4357ZM29.088 24.4899C26.8722 24.4899 25.0743 26.289 25.0743 28.5049C25.0743 30.7208 26.8722 32.521 29.088 32.521C31.3039 32.521 33.1042 30.7219 33.1042 28.5049C33.1042 26.2878 31.3051 24.4911 29.088 24.4911V24.4899ZM29.088 26.8673C29.5119 26.8835 29.913 27.0632 30.2071 27.3687C30.5013 27.6743 30.6656 28.0819 30.6656 28.5061C30.6656 28.9302 30.5013 29.3378 30.2071 29.6434C29.913 29.949 29.5119 30.1287 29.088 30.1448C28.6642 30.1287 28.2631 29.949 27.969 29.6434C27.6748 29.3378 27.5105 28.9302 27.5105 28.5061C27.5105 28.0819 27.6748 27.6743 27.969 27.3687C28.2631 27.0632 28.6642 26.8835 29.088 26.8673Z" fill="#52006A"/>
  <path d="M28.9971 4.75009C29.6529 4.75009 30.1846 4.21843 30.1846 3.56259C30.1846 2.90675 29.6529 2.37509 28.9971 2.37509C28.3412 2.37509 27.8096 2.90675 27.8096 3.56259C27.8096 4.21843 28.3412 4.75009 28.9971 4.75009Z" fill="#52006A"/>
  <path d="M52.748 24.9376C52.748 25.5934 53.2797 26.1251 53.9355 26.1251C54.5914 26.1251 55.123 25.5934 55.123 24.9376C55.123 24.2818 54.5914 23.7501 53.9355 23.7501C53.2797 23.7501 52.748 24.2818 52.748 24.9376Z" fill="#52006A"/>
  <path d="M47.7612 43.6924C47.2975 44.1561 47.2975 44.908 47.7612 45.3717C48.225 45.8355 48.9768 45.8355 49.4406 45.3717C49.9043 44.908 49.9043 44.1561 49.4406 43.6924C48.9768 43.2286 48.225 43.2286 47.7612 43.6924Z" fill="#52006A"/>
  <path d="M10.202 43.7418C9.73825 43.278 8.98636 43.278 8.52262 43.7418C8.05887 44.2055 8.05887 44.9574 8.52262 45.4212C8.98636 45.8849 9.73825 45.8849 10.202 45.4212C10.6657 44.9574 10.6657 44.2055 10.202 43.7418Z" fill="#52006A"/>
  <path d="M5.24707 24.9376C5.24707 25.5934 4.71541 26.1251 4.05957 26.1251C3.40373 26.1251 2.87207 25.5934 2.87207 24.9376C2.87207 24.2818 3.40373 23.7501 4.05957 23.7501C4.71541 23.7501 5.24707 24.2818 5.24707 24.9376Z" fill="#52006A"/>
  <path d="M12.2059 8.13708C11.7422 8.60083 10.9903 8.60083 10.5265 8.13708C10.0628 7.67333 10.0628 6.92145 10.5265 6.4577C10.9903 5.99395 11.7422 5.99395 12.2059 6.4577C12.6696 6.92145 12.6696 7.67333 12.2059 8.13708Z" fill="#52006A"/>
  <path d="M45.8071 8.14508C45.3434 7.68133 45.3434 6.92945 45.8071 6.4657C46.2709 6.00195 47.0227 6.00195 47.4865 6.4657C47.9502 6.92945 47.9502 7.68133 47.4865 8.14508C47.0227 8.60883 46.2709 8.60883 45.8071 8.14508Z" fill="#52006A"/>
  <path fill-rule="evenodd" clip-rule="evenodd" d="M39.6205 46.3127C39.6205 45.3678 39.2451 44.4617 38.577 43.7936C37.9089 43.1255 37.0028 42.7502 36.058 42.7502H21.8115C20.8667 42.7502 19.9606 43.1255 19.2925 43.7936C18.6244 44.4617 18.249 45.3678 18.249 46.3127C18.249 47.2575 18.6244 48.1636 19.2925 48.8317C19.9606 49.4998 20.8667 49.8752 21.8115 49.8752H36.058C37.0028 49.8752 37.9089 49.4998 38.577 48.8317C39.2451 48.1636 39.6205 47.2575 39.6205 46.3127ZM37.2455 46.3127C37.2455 46.6276 37.1203 46.9296 36.8976 47.1523C36.6749 47.375 36.3729 47.5002 36.058 47.5002H21.8115C21.1548 47.5002 20.624 46.9682 20.624 46.3127C20.624 45.9977 20.7491 45.6957 20.9718 45.473C21.1945 45.2503 21.4966 45.1252 21.8115 45.1252H36.058C36.3729 45.1252 36.6749 45.2503 36.8976 45.473C37.1203 45.6957 37.2455 45.9977 37.2455 46.3127Z" fill="#52006A"/>
  <path fill-rule="evenodd" clip-rule="evenodd" d="M31.1861 49.8751C31.1665 50.492 30.9078 51.0771 30.4645 51.5066C30.0212 51.9361 29.4283 52.1762 28.8111 52.1762C28.1939 52.1762 27.6009 51.9361 27.1576 51.5066C26.7143 51.0771 26.4556 50.492 26.4361 49.8751C26.4361 49.5602 26.3109 49.2582 26.0882 49.0355C25.8655 48.8128 25.5635 48.6876 25.2486 48.6876C24.9336 48.6876 24.6316 48.8128 24.4089 49.0355C24.1862 49.2582 24.0611 49.5602 24.0611 49.8751C24.0611 51.1349 24.5615 52.3431 25.4523 53.2339C26.3431 54.1247 27.5513 54.6251 28.8111 54.6251C30.0708 54.6251 31.279 54.1247 32.1698 53.2339C33.0606 52.3431 33.5611 51.1349 33.5611 49.8751C33.5611 49.5602 33.4359 49.2582 33.2132 49.0355C32.9905 48.8128 32.6885 48.6876 32.3736 48.6876C32.0586 48.6876 31.7566 48.8128 31.5339 49.0355C31.3112 49.2582 31.1861 49.5602 31.1861 49.8751ZM39.3026 36.2284C37.3539 38.3316 35.9441 40.8758 35.1939 43.6431C35.1154 43.9457 35.1594 44.267 35.3164 44.5374C35.4733 44.8077 35.7306 45.0053 36.0322 45.0872C36.3339 45.1691 36.6557 45.1287 36.9278 44.9749C37.1999 44.821 37.4004 44.5661 37.4857 44.2654C38.136 41.8684 39.3571 39.6645 41.0447 37.8422C41.2444 37.6088 41.3461 37.3071 41.3282 37.0004C41.3104 36.6937 41.1745 36.4058 40.9491 36.197C40.7236 35.9883 40.4261 35.875 40.1189 35.8809C39.8118 35.8867 39.52 36.0113 39.3026 36.2284ZM23.5682 43.6111C22.8735 41.047 21.5512 38.6963 19.7207 36.7711H19.7184C17.4769 34.427 16.2278 31.3076 16.2319 28.0643C16.2319 25.3818 17.0691 22.8951 18.4976 20.8491C18.6702 20.5906 18.7345 20.2749 18.6769 19.9695C18.6193 19.6641 18.4443 19.3935 18.1894 19.2157C17.9345 19.038 17.6201 18.9672 17.3137 19.0185C17.0072 19.0699 16.7331 19.2394 16.5501 19.4906C14.7929 22.004 13.8525 24.9976 13.8569 28.0643C13.8524 31.9179 15.3373 35.6241 18.0012 38.4086C19.5591 40.0483 20.6849 42.0495 21.2776 44.2321C21.3161 44.385 21.3846 44.5285 21.4793 44.6546C21.5739 44.7806 21.6927 44.8865 21.8287 44.9661C21.9647 45.0457 22.1152 45.0974 22.2714 45.1181C22.4276 45.1389 22.5864 45.1284 22.7385 45.0871C22.8906 45.0459 23.0329 44.9747 23.1572 44.8779C23.2815 44.781 23.3852 44.6603 23.4624 44.5229C23.5395 44.3855 23.5885 44.2341 23.6065 44.0775C23.6244 43.921 23.6122 43.7624 23.5682 43.6111ZM22.3522 17.2427C24.2522 16.0955 26.48 15.4365 28.8597 15.4365C35.8304 15.4365 41.4876 21.0949 41.4876 28.0643C41.4876 29.3314 41.3012 30.5557 40.9532 31.71C40.8731 32.0081 40.9123 32.3257 41.0624 32.5955C41.2125 32.8652 41.4617 33.0659 41.7573 33.1551C42.0529 33.2442 42.3715 33.2147 42.6457 33.0728C42.9199 32.9309 43.1281 32.6879 43.2261 32.3951C43.6394 31.0236 43.8626 29.5701 43.8626 28.0643C43.8626 19.7839 37.1402 13.0615 28.8597 13.0615C26.0311 13.0615 23.3842 13.8464 21.1256 15.2108C20.8719 15.3808 20.6935 15.6419 20.6273 15.9399C20.5612 16.238 20.6123 16.55 20.7702 16.8114C20.928 17.0727 21.1805 17.2631 21.4751 17.3432C21.7697 17.4233 22.0838 17.3869 22.3522 17.2415V17.2427ZM27.8076 8.31265V9.50015C27.8076 9.8151 27.9327 10.1171 28.1554 10.3398C28.3781 10.5625 28.6802 10.6877 28.9951 10.6877C29.3101 10.6877 29.6121 10.5625 29.8348 10.3398C30.0575 10.1171 30.1826 9.8151 30.1826 9.50015V8.31265C30.1826 7.99771 30.0575 7.69566 29.8348 7.47296C29.6121 7.25026 29.3101 7.12515 28.9951 7.12515C28.6802 7.12515 28.3781 7.25026 28.1554 7.47296C27.9327 7.69566 27.8076 7.99771 27.8076 8.31265ZM49.1826 23.7501H47.9951C47.6802 23.7501 47.3781 23.8753 47.1554 24.098C46.9327 24.3207 46.8076 24.6227 46.8076 24.9376C46.8076 25.2526 46.9327 25.5546 47.1554 25.7773C47.3781 26 47.6802 26.1251 47.9951 26.1251H49.1826C49.4976 26.1251 49.7996 26 50.0223 25.7773C50.245 25.5546 50.3701 25.2526 50.3701 24.9376C50.3701 24.6227 50.245 24.3207 50.0223 24.098C49.7996 23.8753 49.4976 23.7501 49.1826 23.7501ZM46.1331 40.3241L45.2936 39.4845C45.0696 39.2682 44.7696 39.1485 44.4583 39.1512C44.1469 39.1539 43.8491 39.2788 43.6289 39.499C43.4087 39.7192 43.2838 40.017 43.2811 40.3284C43.2784 40.6397 43.3981 40.9397 43.6144 41.1636L44.454 42.0032C44.678 42.2195 44.9779 42.3392 45.2893 42.3365C45.6006 42.3338 45.8985 42.2089 46.1187 41.9887C46.3388 41.7686 46.4637 41.4707 46.4664 41.1594C46.4691 40.848 46.3494 40.548 46.1331 40.3241ZM13.5671 42.1172L14.4067 41.2776C14.623 41.0537 14.7427 40.7537 14.74 40.4424C14.7373 40.131 14.6124 39.8332 14.3922 39.613C14.172 39.3928 13.8742 39.2679 13.5628 39.2652C13.2515 39.2625 12.9515 39.3822 12.7276 39.5985L11.888 40.4381C11.6717 40.662 11.552 40.962 11.5547 41.2734C11.5574 41.5847 11.6823 41.8826 11.9025 42.1027C12.1226 42.3229 12.4205 42.4478 12.7318 42.4505C13.0432 42.4532 13.3432 42.3335 13.5671 42.1172ZM8.80762 26.1251H9.99512C10.3101 26.1251 10.6121 26 10.8348 25.7773C11.0575 25.5546 11.1826 25.2526 11.1826 24.9376C11.1826 24.6227 11.0575 24.3207 10.8348 24.098C10.6121 23.8753 10.3101 23.7501 9.99512 23.7501H8.80762C8.49267 23.7501 8.19063 23.8753 7.96793 24.098C7.74523 24.3207 7.62012 24.6227 7.62012 24.9376C7.62012 25.2526 7.74523 25.5546 7.96793 25.7773C8.19063 26 8.49267 26.1251 8.80762 26.1251ZM13.8901 11.4393L14.7297 12.2789C14.9536 12.4952 15.2536 12.6149 15.565 12.6122C15.8763 12.6095 16.1742 12.4846 16.3943 12.2644C16.6145 12.0443 16.7394 11.7464 16.7421 11.4351C16.7448 11.1237 16.6251 10.8237 16.4088 10.5998L15.5692 9.76021C15.3453 9.5439 15.0453 9.42421 14.734 9.42691C14.4226 9.42962 14.1248 9.55451 13.9046 9.77468C13.6844 9.99485 13.5595 10.2927 13.5568 10.6041C13.5541 10.9154 13.6738 11.2154 13.8901 11.4393ZM42.4934 9.83265L41.6539 10.6722C41.4376 10.8962 41.3179 11.1961 41.3206 11.5075C41.3233 11.8189 41.4482 12.1167 41.6683 12.3369C41.8885 12.557 42.1863 12.6819 42.4977 12.6846C42.8091 12.6873 43.109 12.5677 43.333 12.3513L44.1726 11.5118C44.3889 11.2878 44.5086 10.9878 44.5059 10.6765C44.5031 10.3651 44.3783 10.0673 44.1581 9.84712C43.9379 9.62695 43.6401 9.50206 43.3287 9.49935C43.0174 9.49665 42.7174 9.61634 42.4934 9.83265Z" fill="#52006A"/>
</svg>