<svg width="54" height="54" viewBox="0 0 54 54" fill="none" xmlns="http://www.w3.org/2000/svg">
<g clip-path="url(#clip0_2214_52962)">
<path d="M45.629 22.5636C40.7376 22.5636 36.7581 26.5431 36.7581 31.4346C36.7581 36.326 40.7376 40.3055 45.629 40.3055C50.5205 40.3055 54.5 36.326 54.5 31.4346C54.5 26.5431 50.5205 22.5636 45.629 22.5636ZM45.629 38.5313C41.716 38.5313 38.5323 35.3475 38.5323 31.4346C38.5323 27.5216 41.716 24.3378 45.629 24.3378C49.542 24.3378 52.7258 27.5216 52.7258 31.4346C52.7258 35.3475 49.542 38.5313 45.629 38.5313Z" fill="#52006A"/>
<path d="M46.5161 27.1623V26.112H44.7419V27.1623C44.2245 27.3447 43.7763 27.6827 43.4586 28.13C43.141 28.5772 42.9695 29.1118 42.9677 29.6604C42.9677 31.1276 44.1618 32.3217 45.629 32.3217C45.8047 32.3215 45.9765 32.3735 46.1227 32.471C46.2689 32.5685 46.3828 32.7071 46.4501 32.8694C46.5175 33.0317 46.5351 33.2104 46.5009 33.3827C46.4666 33.555 46.382 33.7133 46.2578 33.8376C46.1336 33.9618 45.9753 34.0464 45.8029 34.0806C45.6306 34.1149 45.452 34.0972 45.2897 34.0299C45.1274 33.9626 44.9887 33.8486 44.8912 33.7024C44.7937 33.5563 44.7418 33.3845 44.7419 33.2088V32.8539H42.9677V33.2088C42.9677 34.3638 43.712 35.3396 44.7419 35.7068V36.7572H46.5161V35.7068C47.0335 35.5245 47.4818 35.1865 47.7994 34.7392C48.1171 34.292 48.2886 33.7574 48.2903 33.2088C48.2903 31.7415 47.0963 30.5475 45.629 30.5475C45.4006 30.5373 45.1849 30.4393 45.0269 30.2741C44.8689 30.1089 44.7807 29.889 44.7807 29.6604C44.7807 29.4318 44.8689 29.2119 45.0269 29.0467C45.1849 28.8814 45.4006 28.7835 45.629 28.7733C46.1187 28.7733 46.5161 29.1716 46.5161 29.6604V30.0152H48.2903V29.6604C48.2886 29.1118 48.1171 28.5772 47.7994 28.13C47.4818 27.6827 47.0335 27.3447 46.5161 27.1623ZM45.629 -0.500885C40.7376 -0.500885 36.7581 3.47863 36.7581 8.37008C36.7581 13.2615 40.7376 17.241 45.629 17.241C50.5205 17.241 54.5 13.2615 54.5 8.37008C54.5 3.47863 50.5205 -0.500885 45.629 -0.500885ZM45.629 15.4669C41.716 15.4669 38.5323 12.2831 38.5323 8.37008C38.5323 4.4571 41.716 1.27331 45.629 1.27331C49.542 1.27331 52.7258 4.4571 52.7258 8.37008C52.7258 12.2831 49.542 15.4669 45.629 15.4669Z" fill="#52006A"/>
<path d="M44.6098 9.82312L41.7258 7.66038L40.6613 9.07973L44.2097 11.741C44.3897 11.8766 44.6146 11.9383 44.8386 11.9138C45.0626 11.8892 45.2688 11.7802 45.4152 11.6088L50.7378 5.39917L49.3912 4.24417L44.6098 9.82312ZM17.2419 13.6926C12.8393 13.6926 9.25806 17.2747 9.25806 21.6765C9.25806 26.0783 12.8393 29.6604 17.2419 29.6604C21.6446 29.6604 25.2258 26.0783 25.2258 21.6765C25.2258 17.2747 21.6446 13.6926 17.2419 13.6926ZM17.2419 27.8862C13.8186 27.8862 11.0323 25.1007 11.0323 21.6765C11.0323 18.2523 13.8186 15.4668 17.2419 15.4668C20.6652 15.4668 23.4516 18.2523 23.4516 21.6765C23.4516 25.1007 20.6652 27.8862 17.2419 27.8862Z" fill="#52006A"/>
<path d="M30.8269 24.7414C31.0041 24.6828 31.1583 24.5698 31.2676 24.4185C31.3768 24.2672 31.4356 24.0853 31.4355 23.8987V19.4534C31.4355 19.2669 31.3767 19.0852 31.2675 18.934C31.1582 18.7829 31.0041 18.67 30.8269 18.6116L28.3573 17.7937C28.21 17.3732 28.0379 16.9589 27.8427 16.5553L28.8851 14.3597C28.9528 14.2172 28.9812 14.0591 28.9673 13.9019C28.9535 13.7447 28.8978 13.594 28.8061 13.4655C27.8842 12.1681 26.751 11.0346 25.4538 10.1123C25.3249 10.0211 25.1741 9.96573 25.0168 9.95201C24.8595 9.93829 24.7014 9.96668 24.5587 10.0343L22.3623 11.0766C21.9598 10.881 21.5463 10.7089 21.1239 10.5612L20.306 8.09151C20.2479 7.91432 20.1353 7.76002 19.9843 7.65071C19.8332 7.54141 19.6515 7.48269 19.465 7.48296H15.0189C14.8324 7.48291 14.6506 7.5417 14.4994 7.65096C14.3483 7.76023 14.2355 7.91439 14.177 8.09151L13.3458 10.6011L12.1589 11.0934L9.92516 10.0334C9.78248 9.9657 9.62435 9.93726 9.46703 9.95098C9.30971 9.9647 9.15889 10.0201 9.03008 10.1114C7.73286 11.0337 6.59966 12.1672 5.67774 13.4647C5.58607 13.5931 5.53041 13.7438 5.51653 13.901C5.50265 14.0582 5.53105 14.2163 5.59879 14.3588L6.65887 16.5917L6.16564 17.7795L3.65605 18.6107C3.4791 18.6696 3.32517 18.7827 3.2161 18.9339C3.10703 19.0852 3.04835 19.267 3.04839 19.4534V23.8987C3.04839 24.281 3.29323 24.6208 3.65694 24.7405L6.16653 25.5718L6.65976 26.7596L5.59968 28.9915C5.53195 29.1342 5.50356 29.2924 5.51744 29.4498C5.53132 29.6071 5.58697 29.7579 5.67863 29.8866C6.60039 31.1845 7.73395 32.3181 9.03185 33.2398C9.16042 33.3313 9.31111 33.3868 9.46832 33.4006C9.62554 33.4143 9.78357 33.3857 9.92605 33.3179L12.1598 32.2578L13.3476 32.751L14.1788 35.2606C14.2364 35.438 14.3487 35.5925 14.4997 35.702C14.6506 35.8115 14.8324 35.8704 15.0189 35.8701H19.465C19.6515 35.8701 19.8333 35.8113 19.9844 35.7021C20.1356 35.5928 20.2484 35.4386 20.3069 35.2615L21.1248 32.7918C21.5452 32.6446 21.9595 32.4725 22.3631 32.2764L24.5596 33.3188C24.7022 33.3868 24.8604 33.4154 25.0178 33.4017C25.1752 33.388 25.326 33.3324 25.4547 33.2407C26.7521 32.3183 27.8853 31.1845 28.807 29.8866C28.8987 29.7579 28.9543 29.6071 28.9682 29.4498C28.9821 29.2924 28.9537 29.1342 28.886 28.9915L27.8436 26.7968C28.0388 26.3932 28.2109 25.9789 28.3581 25.5584L30.8269 24.7414ZM27.3752 24.0158C27.2406 24.0603 27.1187 24.1365 27.0196 24.2379C26.9205 24.3393 26.8472 24.463 26.8057 24.5986C26.6181 25.2107 26.3722 25.8033 26.0712 26.3684C26.0064 26.4907 25.971 26.6265 25.9677 26.7649C25.9645 26.9033 25.9935 27.0406 26.0526 27.1659L27.0532 29.2727C26.4112 30.1018 25.6669 30.8463 24.8381 31.4887L22.7295 30.488C22.6044 30.4286 22.467 30.3993 22.3285 30.4025C22.1901 30.4058 22.0542 30.4414 21.932 30.5067C21.3652 30.8092 20.7699 31.0558 20.164 31.2412C20.0283 31.2824 19.9045 31.3556 19.803 31.4547C19.7016 31.5539 19.6255 31.676 19.5812 31.8107L18.8236 34.0959H15.6602L14.9027 31.8098C14.8627 31.6891 14.7972 31.5784 14.7107 31.4852C14.6243 31.392 14.5188 31.3185 14.4015 31.2696L12.4747 30.4694C12.3601 30.4218 12.2367 30.3988 12.1126 30.4019C11.9886 30.4049 11.8665 30.434 11.7544 30.4872L9.64573 31.4878C8.81672 30.8457 8.07243 30.1011 7.43064 29.2718L8.43129 27.165C8.53863 26.9379 8.54572 26.6762 8.44992 26.4447L7.65064 24.5179C7.60188 24.4003 7.52839 24.2947 7.43518 24.208C7.34196 24.1214 7.2312 24.0558 7.1104 24.0158L4.82258 23.2582V20.0939L7.10863 19.3372C7.22942 19.2972 7.34019 19.2316 7.4334 19.145C7.52662 19.0584 7.6001 18.9527 7.64887 18.8351L8.44814 16.9084C8.49566 16.7937 8.51855 16.6703 8.51534 16.5462C8.51214 16.4221 8.48289 16.3001 8.42952 16.188L7.42887 14.0803C8.07113 13.2515 8.81537 12.5069 9.64395 11.8643L11.7526 12.865C11.8647 12.9183 11.9867 12.9475 12.1108 12.9507C12.2348 12.9539 12.3582 12.9311 12.4729 12.8836L14.3997 12.0843C14.5172 12.0357 14.6228 11.9622 14.7093 11.869C14.7958 11.7757 14.8611 11.6649 14.9009 11.5441L15.6602 9.25716H18.8236L19.5812 11.5432C19.6258 11.6778 19.702 11.7998 19.8034 11.8988C19.9048 11.9979 20.0284 12.0713 20.164 12.1127C20.7708 12.2972 21.3652 12.5447 21.932 12.8472C22.1786 12.9785 22.4758 12.9865 22.7295 12.8659L24.8381 11.8652C25.6669 12.5076 26.4112 13.2521 27.0532 14.0812L26.0526 16.1889C25.9931 16.3139 25.9639 16.4511 25.9671 16.5895C25.9703 16.7278 26.006 16.8635 26.0712 16.9855C26.3737 17.5533 26.6203 18.1485 26.8057 18.7553C26.8472 18.8909 26.9205 19.0146 27.0196 19.116C27.1187 19.2174 27.2406 19.2936 27.3752 19.3381L29.6613 20.0939V23.2582L27.3752 24.0158ZM0.387097 50.9507H3.93548C4.17076 50.9507 4.39639 50.8572 4.56276 50.6909C4.72912 50.5245 4.82258 50.2989 4.82258 50.0636H6.53911L16.1224 54.4192C16.2567 54.4803 16.4041 54.507 16.5512 54.4967C16.6984 54.4865 16.8406 54.4398 16.9652 54.3607L33.8599 43.6188C34.2914 43.373 34.6285 42.9903 34.8178 42.5312C35.0071 42.0721 35.0378 41.5629 34.9049 41.0844C34.7799 40.6044 34.4982 40.1798 34.1045 39.878C33.7108 39.5762 33.2276 39.4145 32.7315 39.4184C32.6885 39.4181 32.6454 39.4214 32.6029 39.4282L15.2602 41.9688L11.6577 39.5675C11.5122 39.4703 11.3412 39.4184 11.1662 39.4184H4.82258C4.82258 39.1832 4.72912 38.9575 4.56276 38.7912C4.39639 38.6248 4.17076 38.5313 3.93548 38.5313H0.387097C0.151824 38.5313 -0.0738125 38.6248 -0.240175 38.7912C-0.406538 38.9575 -0.5 39.1832 -0.5 39.4184V50.0636C-0.5 50.2989 -0.406538 50.5245 -0.240175 50.6909C-0.0738125 50.8572 0.151824 50.9507 0.387097 50.9507ZM10.8983 41.1926L14.5585 43.633L16.7115 45.0746C17.0184 45.2768 17.2215 45.5855 17.2845 45.9457C17.3162 46.1234 17.3108 46.3057 17.2688 46.4812C17.2269 46.6567 17.1492 46.8217 17.0406 46.9659C16.6307 47.5114 15.8066 47.6498 15.2344 47.2772L11.6603 44.8909L10.6748 46.3662L14.2577 48.7587C14.7767 49.0958 15.371 49.275 15.976 49.275C16.458 49.2732 16.933 49.1602 17.364 48.9446C17.795 48.729 18.1704 48.4167 18.4608 48.0321C18.9709 47.3491 19.1802 46.4771 19.0339 45.6405C18.963 45.2262 18.8075 44.831 18.577 44.4795C18.3465 44.128 18.0461 43.8277 17.6944 43.5976L17.461 43.4414L32.7848 41.1971C33.0731 41.221 33.1662 41.4472 33.1928 41.5475C33.2212 41.6539 33.2576 41.9201 32.9409 42.1055L16.4187 52.6051L7.09798 48.3692C6.98269 48.3167 6.85745 48.2894 6.73073 48.2894H4.82258V41.1926H10.8983ZM1.27419 40.3055H3.04839V49.1765H1.27419V40.3055ZM26.1129 5.70877H27.8871V7.48296H26.1129V5.70877ZM29.6613 5.70877H31.4355V7.48296H29.6613V5.70877ZM33.2097 5.70877H34.9839V7.48296H33.2097V5.70877ZM34.0968 35.8701H35.871V37.6442H34.0968V35.8701ZM30.5484 35.8701H32.3226V37.6442H30.5484V35.8701ZM27 35.8701H28.7742V37.6442H27V35.8701Z" fill="#52006A"/>
</g>
<defs>
<clipPath id="clip0_2214_52962">
<rect width="54" height="54" fill="white"/>
</clipPath>
</defs>
</svg>
