<svg width="52" height="52" viewBox="0 0 52 52" fill="none" xmlns="http://www.w3.org/2000/svg">
<path d="M15.3256 16.4292C13.0484 18.967 11.6626 22.3213 11.6626 26.0001C11.6626 33.9187 18.0802 40.3362 25.9987 40.3362C33.9172 40.3362 40.3347 33.9187 40.3347 26.0001C40.3347 18.0816 33.9172 11.6641 25.9987 11.6641C22.3199 11.6641 18.9655 13.0497 16.4277 15.327M25.9987 8.64594C35.5831 8.64594 43.3529 16.4157 43.3529 26.0001C43.3529 35.5846 35.5831 43.3543 25.9987 43.3543C16.4143 43.3543 8.64453 35.5846 8.64453 26.0001C8.64453 16.4157 16.4143 8.64594 25.9987 8.64594Z" stroke="#52006A" stroke-width="1.7" stroke-miterlimit="22.9256"/>
<path d="M43.1423 44.2113L41.4275 45.9262C41.0453 46.3084 40.4285 46.3177 40.0349 45.9472L38.1763 44.1975C37.839 43.8799 37.329 43.8378 36.9328 44.0781C35.1303 45.1711 33.1514 46.0024 31.0488 46.5187C30.5989 46.6292 30.2681 47.0195 30.2542 47.4825L30.1773 50.0304C30.161 50.5707 29.7183 51.0002 29.1777 51.0002H22.8185C22.2779 51.0002 21.8352 50.5707 21.8189 50.0304L21.742 47.4827C21.7281 47.0196 21.3972 46.6293 20.9473 46.5188C18.8446 46.0026 16.866 45.1711 15.0633 44.0781C14.6672 43.8379 14.1572 43.88 13.8199 44.1975L11.9613 45.9473C11.5677 46.3178 10.9509 46.3085 10.5687 45.9263L6.07207 41.4296C5.68985 41.0474 5.68055 40.4306 6.05106 40.037L7.80075 38.1785C8.11832 37.8411 8.16039 37.3311 7.92015 36.9349C6.82708 35.1324 5.99584 33.1535 5.47954 31.0509C5.36908 30.601 4.97876 30.2702 4.51575 30.2562L1.96786 30.1793C1.42758 30.163 0.998047 29.7203 0.998047 29.1798V22.8205C0.998047 22.2799 1.42759 21.8372 1.96788 21.8209L4.51554 21.744C4.9786 21.7301 5.36895 21.3992 5.4794 20.9493C5.99559 18.8466 6.82713 16.8679 7.92017 15.0653C8.16036 14.6692 8.11826 14.1592 7.80072 13.8219L6.05096 11.9633C5.68045 11.5697 5.68975 10.9529 6.07197 10.5707L10.5686 6.07404C10.9508 5.69182 11.5676 5.68251 11.9612 6.05303L13.8198 7.80271C14.1571 8.12029 14.6671 8.16236 15.0633 7.92212C16.8658 6.82904 18.8447 5.9978 20.9473 5.48151C21.3972 5.37104 21.728 4.98072 21.742 4.51771L21.8189 1.96982C21.8352 1.42953 22.2779 1 22.8184 1H29.1777C29.7183 1 30.161 1.42954 30.1773 1.96984L30.2541 4.5175C30.2681 4.98056 30.599 5.37092 31.0489 5.48137C33.1516 5.99755 35.1302 6.8291 36.9329 7.92213C37.329 8.16233 37.839 8.12023 38.1763 7.80268L40.0349 6.05293C40.4285 5.68241 41.0453 5.69172 41.4275 6.07394L45.9241 10.5706C46.3063 10.9528 46.3156 11.5696 45.9451 11.9632L44.1954 13.8217C43.8779 14.1591 43.8358 14.6691 44.076 15.0653C45.1691 16.8677 46.0004 18.8466 46.5166 20.9493C46.6271 21.3991 47.0174 21.73 47.4805 21.7439L50.0282 21.8208C50.5685 21.8371 50.998 22.2798 50.998 22.8204V29.1796C50.998 29.7202 50.5685 30.1629 50.0282 30.1792L47.4806 30.2561C47.0175 30.27 46.6271 30.6009 46.5167 31.0508C46.0005 33.1535 45.169 35.1322 44.0759 36.9348C43.8357 37.3309 43.8778 37.8409 44.1954 38.1782L45.9451 40.0368C46.3156 40.4304 46.3063 41.0472 45.9241 41.4294L44.2093 43.1442" stroke="#52006A" stroke-width="1.7" stroke-miterlimit="22.9256"/>
<path d="M29.7715 16.2554V14.7464M32.7896 17.7645V16.2554M19.7299 23.9993C20.4635 23.2657 21.6639 23.2657 22.3976 23.9993L24.0914 25.6931C24.4819 26.0836 25.115 26.0836 25.5056 25.6931L29.6003 21.5984C30.3339 20.8648 31.5343 20.8648 32.2679 21.5984C33.0015 22.332 33.0016 23.5324 32.2679 24.266L26.1323 30.4017C25.3987 31.1354 24.1983 31.1354 23.4647 30.4017L19.7298 26.6669C18.9962 25.9333 18.9963 24.7329 19.7299 23.9993Z" stroke="#52006A" stroke-width="1.7" stroke-miterlimit="22.9256"/>
</svg>
