<svg width="54" height="54" viewBox="0 0 54 54" fill="none" xmlns="http://www.w3.org/2000/svg">
<path d="M53.0876 48.4188L47.4261 42.925C47.0815 42.5904 46.6246 42.4116 46.144 42.4175C45.9063 42.421 45.6766 42.4704 45.4645 42.5605L43.261 40.4222C44.2866 38.7338 44.8776 36.7537 44.8776 34.6381C44.8776 30.3816 42.4852 26.6738 38.9746 24.7875V9.85553C38.9746 9.40549 38.8064 8.99945 38.4883 8.6812L34.02 4.21303C33.7018 3.89488 33.2957 3.72667 32.8458 3.72667H30.5417C29.7699 1.55648 27.714 0 25.3047 0H6.19704C3.12948 0 0.633789 2.52261 0.633789 5.62336V7.05098C0.633789 7.28035 0.724905 7.50033 0.887093 7.66251C1.04928 7.8247 1.26925 7.91582 1.49862 7.91582H1.61343V12.1847H1.49862C1.26925 12.1847 1.04928 12.2759 0.887093 12.438C0.724905 12.6002 0.633789 12.8202 0.633789 13.0496V14.4772C0.633789 17.5779 3.12948 20.1007 6.19704 20.1007H6.78913V43.2692C6.78913 44.185 7.53418 44.9298 8.44982 44.9298H29.3502C30.6886 45.498 32.1598 45.8125 33.7029 45.8125C36.1864 45.8125 38.4829 44.9978 40.3401 43.6222L42.4487 45.6683C42.364 45.886 42.3224 46.1182 42.3262 46.3518C42.3334 46.8338 42.5273 47.2836 42.872 47.618L48.5337 53.1119C48.8697 53.4384 49.3199 53.6206 49.7884 53.6198C50.0296 53.6202 50.2685 53.5721 50.4908 53.4782C50.713 53.3844 50.9141 53.2467 51.082 53.0735L53.126 50.967C53.8178 50.254 53.8006 49.1108 53.0876 48.4188ZM44.159 43.7038L43.5523 44.3291L41.6512 42.4844C41.8554 42.2775 42.0515 42.0628 42.2391 41.8407L44.159 43.7038ZM34.0402 6.67954L36.0218 8.66109H34.0402V6.67954ZM14.9089 12.1847L15.6419 10.9152H28.1586V12.1847H14.9089ZM9.27358 10.9152H13.6448L11.4592 14.7008L9.27358 10.9152ZM2.36345 5.62336C2.36345 3.47641 4.08317 1.72967 6.19704 1.72967H8.23005C7.7599 2.29581 7.49332 2.91665 7.43808 3.58981C7.42828 3.70902 7.44332 3.82896 7.48225 3.94205C7.52118 4.05515 7.58314 4.15894 7.66423 4.24686C7.74531 4.33478 7.84376 4.40493 7.95334 4.45286C8.06292 4.5008 8.18125 4.52548 8.30086 4.52535C8.51781 4.5251 8.72675 4.44331 8.88623 4.29621C9.0457 4.14911 9.14406 3.94745 9.1618 3.73121C9.2205 3.01502 9.86069 2.3424 11.0624 1.72956H14.4947C14.0245 2.2957 13.758 2.91654 13.7027 3.58971C13.6929 3.70891 13.708 3.82885 13.7469 3.94194C13.7858 4.05504 13.8478 4.15883 13.9289 4.24675C14.0099 4.33467 14.1084 4.40482 14.218 4.45276C14.3276 4.50069 14.4459 4.52537 14.5655 4.52524C14.7824 4.52499 14.9914 4.4432 15.1509 4.2961C15.3103 4.149 15.4087 3.94734 15.4264 3.73111C15.4852 3.01492 16.1253 2.34229 17.327 1.72945H20.7593C20.2892 2.29559 20.0226 2.91643 19.9673 3.5896C19.9575 3.7088 19.9726 3.82874 20.0115 3.94184C20.0504 4.05493 20.1124 4.15872 20.1935 4.24664C20.2746 4.33457 20.373 4.40471 20.4826 4.45265C20.5922 4.50058 20.7105 4.52526 20.8301 4.52513C21.0471 4.52488 21.256 4.44309 21.4155 4.296C21.575 4.1489 21.6733 3.94723 21.6911 3.731C21.7498 3.01481 22.39 2.34218 23.5916 1.72934H25.3048C27.4187 1.72934 29.1385 3.47609 29.1385 5.62314V6.18594H2.36345V5.62336ZM28.1586 7.91582V9.1855H3.34309V7.91582H28.1586ZM3.34309 10.9152H7.27646L8.00941 12.1847H3.34309V10.9152ZM2.36345 14.4772V13.9144H9.00807L10.7103 16.8627C10.8648 17.1304 11.1502 17.2951 11.4592 17.2951C11.7683 17.2951 12.0537 17.1304 12.2082 16.8627L13.9104 13.9144H29.1384V14.4772C29.1384 16.6241 27.4186 18.371 25.3047 18.371H6.19704C4.08317 18.371 2.36345 16.6243 2.36345 14.4772ZM8.51869 43.2003V20.1007H33.7029C33.9323 20.1007 34.1523 20.0096 34.3145 19.8474C34.4767 19.6852 34.5678 19.4652 34.5678 19.2358C34.5678 19.0065 34.4767 18.7865 34.3145 18.6243C34.1523 18.4621 33.9323 18.371 33.7029 18.371H29.3129C30.1608 17.4797 30.7215 16.3081 30.8426 15.0083H33.7029C33.9323 15.0083 34.1523 14.9172 34.3145 14.755C34.4767 14.5928 34.5678 14.3728 34.5678 14.1435C34.5678 13.9141 34.4767 13.6941 34.3145 13.532C34.1523 13.3698 33.9323 13.2786 33.7029 13.2786H30.868V13.0497C30.868 12.8203 30.7769 12.6003 30.6147 12.4382C30.4525 12.276 30.2326 12.1848 30.0032 12.1848H29.8884V7.91582H30.0032C30.2326 7.91582 30.4525 7.8247 30.6147 7.66251C30.7769 7.50033 30.868 7.28035 30.868 7.05098V5.62336C30.868 5.56736 30.8654 5.51201 30.8638 5.45634H32.3106V9.12799C32.3106 9.82418 32.8769 10.3908 33.5732 10.3908H37.245V24.0391C36.1032 23.6568 34.9069 23.4624 33.7028 23.4634H12.0609C11.8316 23.4634 11.6116 23.5545 11.4494 23.7167C11.2872 23.8788 11.1961 24.0988 11.1961 24.3282C11.1961 24.5576 11.2872 24.7775 11.4494 24.9397C11.6116 25.1019 11.8316 25.193 12.0609 25.193H27.7374C26.3749 26.0572 25.2139 27.2039 24.333 28.5557H12.0609C11.8316 28.5557 11.6116 28.6468 11.4494 28.809C11.2872 28.9712 11.1961 29.1912 11.1961 29.4205C11.1961 29.6499 11.2872 29.8699 11.4494 30.0321C11.6116 30.1943 11.8316 30.2854 12.0609 30.2854H23.4109C22.957 31.3554 22.6741 32.4902 22.5727 33.6481H12.061C11.8317 33.6481 11.6117 33.7392 11.4495 33.9014C11.2873 34.0636 11.1962 34.2835 11.1962 34.5129C11.1962 34.7423 11.2873 34.9622 11.4495 35.1244C11.6117 35.2866 11.8317 35.3777 12.061 35.3777H22.5534C22.6284 36.5311 22.8831 37.6657 23.3084 38.7404H12.0609C11.8316 38.7404 11.6116 38.8315 11.4494 38.9937C11.2872 39.1559 11.1961 39.3759 11.1961 39.6052C11.1961 39.8346 11.2872 40.0546 11.4494 40.2168C11.6116 40.379 11.8316 40.4701 12.0609 40.4701H24.1748C24.8084 41.5007 25.604 42.4225 26.531 43.2H8.51869V43.2003ZM24.2579 34.6381C24.2579 29.4301 28.4948 25.1931 33.7028 25.1931C38.9109 25.1931 43.1478 29.4301 43.1478 34.6381C43.1478 39.846 38.9109 44.0829 33.7028 44.0829C28.4948 44.0829 24.2579 39.8459 24.2579 34.6381ZM51.8846 49.7625L49.8406 51.869C49.8269 51.8822 49.8087 51.8896 49.7897 51.8899C49.7708 51.8902 49.7524 51.8833 49.7382 51.8706L44.0764 46.3767C44.0696 46.37 44.0643 46.3621 44.0607 46.3533C44.0572 46.3445 44.0554 46.3351 44.0556 46.3257C44.0552 46.3162 44.0567 46.3068 44.06 46.2979C44.0633 46.2891 44.0684 46.281 44.0749 46.2742L46.1189 44.1677C46.1256 44.1609 46.1335 44.1555 46.1423 44.152C46.1511 44.1484 46.1606 44.1466 46.17 44.1468H46.1715C46.1916 44.1468 46.2082 44.1533 46.2215 44.1662L51.883 49.6599C51.8962 49.6737 51.9037 49.6919 51.904 49.7109C51.9043 49.7299 51.8974 49.7483 51.8846 49.7625ZM33.7028 26.3702C29.1439 26.3702 25.435 30.0791 25.435 34.638C25.435 39.1968 29.144 42.9058 33.7028 42.9058C38.2617 42.9058 41.9706 39.1968 41.9706 34.638C41.9706 30.0791 38.2618 26.3702 33.7028 26.3702ZM33.7028 41.1762C30.0977 41.1762 27.1647 38.2431 27.1647 34.6381C27.1647 31.033 30.0978 28.0999 33.7028 28.0999C37.3079 28.0999 40.241 31.033 40.241 34.6381C40.241 38.2431 37.308 41.1762 33.7028 41.1762Z" fill="#52006A"/>
</svg>
