<svg width="58" height="48" viewBox="0 0 58 48" fill="none" xmlns="http://www.w3.org/2000/svg">
<path d="M32.625 38.0625C31.1261 38.0625 29.9062 39.2823 29.9062 40.7812C29.9062 42.2802 31.1261 43.5 32.625 43.5C34.1239 43.5 35.3438 42.2802 35.3438 40.7812C35.3438 39.2823 34.1239 38.0625 32.625 38.0625ZM32.625 41.6875C32.1257 41.6875 31.7188 41.2806 31.7188 40.7812C31.7188 40.2819 32.1257 39.875 32.625 39.875C33.1243 39.875 33.5312 40.2819 33.5312 40.7812C33.5312 41.2806 33.1243 41.6875 32.625 41.6875ZM36.25 40.7812C36.25 42.2802 37.4698 43.5 38.9688 43.5C40.4677 43.5 41.6875 42.2802 41.6875 40.7812C41.6875 39.2823 40.4677 38.0625 38.9688 38.0625C37.4698 38.0625 36.25 39.2823 36.25 40.7812ZM39.875 40.7812C39.875 41.2806 39.4681 41.6875 38.9688 41.6875C38.4694 41.6875 38.0625 41.2806 38.0625 40.7812C38.0625 40.2819 38.4694 39.875 38.9688 39.875C39.4681 39.875 39.875 40.2819 39.875 40.7812ZM45.3125 43.5C46.8114 43.5 48.0312 42.2802 48.0312 40.7812C48.0312 39.2823 46.8114 38.0625 45.3125 38.0625C43.8136 38.0625 42.5938 39.2823 42.5938 40.7812C42.5938 42.2802 43.8136 43.5 45.3125 43.5ZM45.3125 39.875C45.8118 39.875 46.2188 40.2819 46.2188 40.7812C46.2188 41.2806 45.8118 41.6875 45.3125 41.6875C44.8132 41.6875 44.4062 41.2806 44.4062 40.7812C44.4062 40.2819 44.8132 39.875 45.3125 39.875ZM20.8438 37.1562H6.34375C4.84481 37.1562 3.625 38.3761 3.625 39.875C3.625 41.3739 4.84481 42.5938 6.34375 42.5938H20.8438C22.3427 42.5938 23.5625 41.3739 23.5625 39.875C23.5625 38.3761 22.3427 37.1562 20.8438 37.1562ZM20.8438 40.7812H6.34375C5.84441 40.7812 5.4375 40.3743 5.4375 39.875C5.4375 39.3757 5.84441 38.9688 6.34375 38.9688H20.8438C21.3431 38.9688 21.75 39.3757 21.75 39.875C21.75 40.3743 21.3431 40.7812 20.8438 40.7812ZM6.34375 35.3438H14.5C15.9989 35.3438 17.2188 34.1239 17.2188 32.625C17.2188 31.1261 15.9989 29.9062 14.5 29.9062H6.34375C4.84481 29.9062 3.625 31.1261 3.625 32.625C3.625 34.1239 4.84481 35.3438 6.34375 35.3438ZM6.34375 31.7188H14.5C14.9993 31.7188 15.4062 32.1257 15.4062 32.625C15.4062 33.1243 14.9993 33.5312 14.5 33.5312H6.34375C5.84441 33.5312 5.4375 33.1243 5.4375 32.625C5.4375 32.1257 5.84441 31.7188 6.34375 31.7188Z" fill="#52006A"/>
<path d="M55.2812 9.96875H54.375V8.15625C54.375 3.65944 50.7156 0 46.2188 0C42.0283 0 38.5691 3.17822 38.116 7.25H4.53125C2.03272 7.25 0 9.28272 0 11.7812V42.5938C0 45.0923 2.03272 47.125 4.53125 47.125H47.125C49.6235 47.125 51.6562 45.0923 51.6562 42.5938V32.625H53.4688C55.9673 32.625 58 30.5923 58 28.0938V12.6875C58 11.1886 56.7802 9.96875 55.2812 9.96875ZM46.2188 1.8125C49.7169 1.8125 52.5625 4.65812 52.5625 8.15625V9.96875H50.75V8.15625C50.75 5.65772 48.7173 3.625 46.2188 3.625C43.7202 3.625 41.6875 5.65772 41.6875 8.15625V9.96875H39.875V8.15625C39.875 4.65812 42.7206 1.8125 46.2188 1.8125ZM48.9375 9.96875H43.5V8.15625C43.5 6.65731 44.7198 5.4375 46.2188 5.4375C47.7177 5.4375 48.9375 6.65731 48.9375 8.15625V9.96875ZM4.53125 9.0625H38.0625V9.96875H37.1562C35.6573 9.96875 34.4375 11.1886 34.4375 12.6875V18.125H1.8125V11.7812C1.8125 10.2823 3.03231 9.0625 4.53125 9.0625ZM49.8438 42.5938C49.8438 44.0927 48.6239 45.3125 47.125 45.3125H4.53125C3.03231 45.3125 1.8125 44.0927 1.8125 42.5938V19.9375H34.4375V28.0938C34.4375 30.5923 36.4702 32.625 38.9688 32.625H49.8438V42.5938ZM56.1875 28.0938C56.1875 29.5927 54.9677 30.8125 53.4688 30.8125H38.9688C37.4698 30.8125 36.25 29.5927 36.25 28.0938V12.6875C36.25 12.1882 36.6569 11.7812 37.1562 11.7812H55.2812C55.7806 11.7812 56.1875 12.1882 56.1875 12.6875V28.0938Z" fill="#52006A"/>
<path d="M49.0272 15.4742C47.9325 14.6087 46.5079 14.3024 45.1195 14.6296C44.3237 14.8223 43.5959 15.2292 43.015 15.8063C42.4341 16.3833 42.0223 17.1085 41.8244 17.903C41.4211 19.5632 41.9168 21.2298 43.1493 22.3626C43.2807 22.4831 43.5 22.7351 43.5 23.0758V25.375C43.5 26.11 43.7873 26.7933 44.2921 27.2854C44.5706 27.571 44.9093 27.7908 45.2835 27.929C45.6577 28.0671 46.058 28.12 46.4553 28.0838C47.8473 27.966 48.9375 26.7316 48.9375 25.2735V23.0786C48.9375 22.7387 49.165 22.4768 49.3 22.3517C49.7793 21.9069 50.1566 21.3637 50.4061 20.7593C50.6557 20.1548 50.7714 19.5036 50.7455 18.8502C50.7196 18.1969 50.5526 17.5568 50.256 16.9741C49.9594 16.3913 49.5402 15.8797 49.0272 15.4742ZM48.0693 21.0214C47.4603 21.5841 47.125 22.3155 47.125 23.0786V25.2735C47.125 25.7891 46.7562 26.2396 46.303 26.2776C46.1685 26.2921 46.0325 26.2748 45.9058 26.2273C45.7791 26.1798 45.6653 26.1033 45.5735 26.0039C45.4898 25.9221 45.4236 25.8242 45.3787 25.7161C45.3338 25.6081 45.3113 25.492 45.3125 25.375V23.0758C45.3125 22.3091 44.979 21.5814 44.3745 21.0277C43.635 20.348 43.3396 19.3403 43.5852 18.3307C43.8118 17.3955 44.5966 16.617 45.5373 16.3941C45.7684 16.3388 45.9985 16.3116 46.2242 16.3116C46.835 16.3116 47.415 16.511 47.9026 16.8961C48.226 17.15 48.4873 17.4742 48.6666 17.8442C48.846 18.2141 48.9386 18.6201 48.9375 19.0312C48.9375 19.797 48.6294 20.5039 48.0693 21.0214ZM4.53125 24.4687H19.0313C19.2716 24.4687 19.5021 24.3733 19.6721 24.2033C19.842 24.0334 19.9375 23.8028 19.9375 23.5625C19.9375 23.3221 19.842 23.0916 19.6721 22.9217C19.5021 22.7517 19.2716 22.6562 19.0313 22.6562H4.53125C4.2909 22.6562 4.06039 22.7517 3.89043 22.9217C3.72048 23.0916 3.625 23.3221 3.625 23.5625C3.625 23.8028 3.72048 24.0334 3.89043 24.2033C4.06039 24.3733 4.2909 24.4687 4.53125 24.4687ZM4.53125 28.0937H11.7813C12.0216 28.0937 12.2521 27.9983 12.4221 27.8283C12.592 27.6584 12.6875 27.4278 12.6875 27.1875C12.6875 26.9471 12.592 26.7166 12.4221 26.5467C12.2521 26.3767 12.0216 26.2812 11.7813 26.2812H4.53125C4.2909 26.2812 4.06039 26.3767 3.89043 26.5467C3.72048 26.7166 3.625 26.9471 3.625 27.1875C3.625 27.4278 3.72048 27.6584 3.89043 27.8283C4.06039 27.9983 4.2909 28.0937 4.53125 28.0937ZM19.0313 26.2812H15.4063C15.1659 26.2812 14.9354 26.3767 14.7654 26.5467C14.5955 26.7166 14.5 26.9471 14.5 27.1875C14.5 27.4278 14.5955 27.6584 14.7654 27.8283C14.9354 27.9983 15.1659 28.0937 15.4063 28.0937H19.0313C19.2716 28.0937 19.5021 27.9983 19.6721 27.8283C19.842 27.6584 19.9375 27.4278 19.9375 27.1875C19.9375 26.9471 19.842 26.7166 19.6721 26.5467C19.5021 26.3767 19.2716 26.2812 19.0313 26.2812Z" fill="#52006A"/>
</svg>
