<svg width="66" height="52" viewBox="0 0 66 52" fill="none" xmlns="http://www.w3.org/2000/svg">
<mask id="path-1-outside-1_2529_15331" maskUnits="userSpaceOnUse" x="-0.000244141" y="-0.699341" width="47" height="48" fill="black">
<rect fill="white" x="-0.000244141" y="-0.699341" width="47" height="48"/>
<path d="M35.0285 45.619C35.0285 45.8155 34.9505 46.0039 34.8116 46.1428C34.6727 46.2817 34.4843 46.3597 34.2878 46.3597H10.4546C10.2582 46.3597 10.0698 46.2817 9.93084 46.1428C9.79192 46.0039 9.71388 45.8155 9.71388 45.619V31.6651C9.71388 31.4687 9.79192 31.2803 9.93084 31.1413C10.0698 31.0024 10.2582 30.9244 10.4546 30.9244C10.6511 30.9244 10.8395 31.0024 10.9784 31.1413C11.1173 31.2803 11.1954 31.4687 11.1954 31.6651V44.3449C11.1954 44.6395 11.4341 44.8783 11.7287 44.8783H34.2878C34.4843 44.8783 34.6727 44.9563 34.8116 45.0952C34.9505 45.2341 35.0285 45.4226 35.0285 45.619ZM9.71388 5.75248V1.0414C9.71388 0.844958 9.79191 0.656565 9.9308 0.517653C10.0697 0.378741 10.2581 0.300687 10.4545 0.300659H33.4264C34.3555 0.300659 35.2083 0.674308 35.8932 1.38108L45.0288 10.5166C45.7357 11.2012 46.1091 12.054 46.1091 12.9834V15.2365C46.1091 15.433 46.0311 15.6214 45.8922 15.7603C45.7532 15.8992 45.5648 15.9773 45.3684 15.9773C45.1719 15.9773 44.9835 15.8992 44.8446 15.7603C44.7057 15.6214 44.6276 15.433 44.6276 15.2365V12.9834C44.6276 12.4485 44.4207 11.9886 43.9948 11.5775L43.9855 11.5684L43.9174 11.5003C43.4821 11.0803 42.9117 10.849 42.3107 10.849H36.3015C36.1051 10.849 35.9167 10.7709 35.7778 10.632C35.6389 10.4931 35.5608 10.3047 35.5608 10.1082V4.09915C35.5608 3.49831 35.3296 2.92794 34.9099 2.49292L34.8415 2.42446L34.8324 2.41525C34.4211 1.98943 33.9612 1.78234 33.4264 1.78234H11.7287C11.4341 1.78234 11.1954 2.02112 11.1954 2.31567V5.75258C11.1954 5.94904 11.1173 6.13745 10.9784 6.27636C10.8395 6.41528 10.6511 6.49332 10.4546 6.49332C10.2582 6.49332 10.0698 6.41528 9.93084 6.27636C9.79192 6.13745 9.71388 5.94893 9.71388 5.75248ZM40.4971 9.36759C40.9723 9.36759 41.2102 8.79312 40.8742 8.45714L37.9528 5.53574C37.6169 5.19976 37.0424 5.43771 37.0424 5.91286V8.83426C37.0424 9.12881 37.2812 9.36759 37.5757 9.36759H40.4971ZM29.151 6.82633H16.6853C16.4888 6.82633 16.3004 6.90438 16.1615 7.04329C16.0226 7.18221 15.9445 7.37061 15.9445 7.56707C15.9445 7.76353 16.0226 7.95193 16.1615 8.09085C16.3004 8.22976 16.4888 8.30781 16.6853 8.30781H29.151C29.3475 8.30781 29.5359 8.22976 29.6748 8.09085C29.8137 7.95193 29.8917 7.76353 29.8917 7.56707C29.8917 7.37061 29.8137 7.18221 29.6748 7.04329C29.5359 6.90438 29.3475 6.82633 29.151 6.82633ZM10.4546 29.6956C10.5897 29.6957 10.7223 29.6587 10.8379 29.5887L12.1271 28.8094C12.3752 28.6593 12.6297 28.508 12.888 28.3545C15.0725 27.0556 17.5483 25.5835 18.8897 23.3249C19.5665 22.1853 19.9097 20.9274 19.9097 19.5861V11.5481C19.9097 11.3835 19.8549 11.2237 19.7539 11.0937C19.6529 10.9638 19.5116 10.8711 19.3521 10.8304L17.4766 10.3517C15.296 9.79531 13.5095 9.08801 12.1667 8.24961L10.847 7.4257C10.7294 7.35221 10.5934 7.31324 10.4547 7.31324C10.316 7.31324 10.1801 7.35221 10.0625 7.4257L8.74278 8.24961C7.40003 9.08801 5.61359 9.79531 3.43297 10.3518L1.55732 10.8304C1.39787 10.8711 1.25651 10.9638 1.15554 11.0937C1.05458 11.2237 0.99977 11.3835 0.999756 11.5481V16.7645C0.999756 16.8617 1.01892 16.9581 1.05614 17.0479C1.09337 17.1378 1.14793 17.2195 1.21671 17.2883C1.2855 17.357 1.36715 17.4116 1.45702 17.4488C1.54689 17.4861 1.64322 17.5052 1.74049 17.5052C1.83777 17.5052 1.93409 17.4861 2.02396 17.4488C2.11383 17.4116 2.19549 17.357 2.26427 17.2883C2.33306 17.2195 2.38762 17.1378 2.42484 17.0479C2.46207 16.9581 2.48123 16.8617 2.48123 16.7645V12.5379C2.48123 12.2941 2.64649 12.0814 2.88267 12.0211L3.79932 11.7872C6.12787 11.1929 8.05516 10.4255 9.52743 9.50611L10.1724 9.10348C10.3452 8.99559 10.5644 8.99559 10.7373 9.1035L11.3821 9.50611C12.8545 10.4255 14.7817 11.1929 17.1103 11.7872L18.0269 12.0211C18.2631 12.0814 18.4283 12.2941 18.4283 12.5379V19.5861C18.4283 20.6575 18.155 21.6607 17.6161 22.5684C16.4673 24.5027 14.1636 25.8725 12.1311 27.081C11.8738 27.2336 11.6171 27.3871 11.3609 27.5416L10.7309 27.9224C10.5612 28.025 10.3487 28.025 10.179 27.9224L9.54902 27.5416C9.29286 27.3871 9.03614 27.2337 8.77886 27.0811C6.74628 25.8726 4.44259 24.5028 3.29371 22.5684C2.76599 21.6798 2.49276 20.6989 2.48176 19.6535C2.4797 19.4584 2.40077 19.272 2.26213 19.1348C2.12348 18.9976 1.9363 18.9206 1.74123 18.9205H1.7333C1.53686 18.9226 1.34928 19.0026 1.21184 19.143C1.07439 19.2834 0.998331 19.4726 1.00039 19.669C1.01415 20.9788 1.35721 22.2089 2.01996 23.3248C3.36133 25.5834 5.83729 27.0555 8.02172 28.3545C8.27992 28.508 8.53442 28.6593 8.78246 28.8093L10.0717 29.5886C10.1873 29.6586 10.3195 29.6956 10.4546 29.6956ZM4.16206 22.0525C3.71074 21.2926 3.49138 20.4858 3.49138 19.5863V13.4839C3.49139 13.3193 3.54621 13.1594 3.64717 13.0295C3.74813 12.8995 3.88949 12.8069 4.04894 12.7662C5.7193 12.3398 8.11844 11.5769 10.0623 10.3632C10.18 10.2898 10.3159 10.2508 10.4546 10.2508C10.5933 10.2508 10.7292 10.2898 10.8469 10.3632C12.7908 11.5769 15.1899 12.3398 16.8603 12.7662C17.0197 12.8069 17.1611 12.8995 17.2621 13.0295C17.363 13.1594 17.4178 13.3193 17.4179 13.4839V19.5863C17.4179 20.4858 17.1985 21.2926 16.7472 22.0525C15.7233 23.7765 13.5222 25.082 11.5804 26.2338C11.3257 26.3849 11.0768 26.5326 10.8378 26.677C10.7222 26.747 10.5896 26.7839 10.4545 26.7839C10.3194 26.7839 10.1868 26.747 10.0712 26.677C9.82431 26.5282 9.57676 26.3805 9.32859 26.2338C7.3867 25.082 5.18597 23.7765 4.16206 22.0525ZM4.97285 19.5863C4.97285 20.2122 5.12428 20.7714 5.43581 21.2961C6.26681 22.6952 8.29505 23.8983 10.0846 24.9598C10.117 24.979 10.1493 24.9981 10.1815 25.0173C10.3498 25.1172 10.5594 25.1171 10.7278 25.0173C10.76 24.9981 10.7923 24.979 10.8247 24.9598C12.6142 23.8983 14.6425 22.6952 15.4734 21.2961C15.785 20.7714 15.9364 20.2122 15.9364 19.5863V14.4604C15.9364 14.2202 15.7761 14.0103 15.5454 13.9436C14.0858 13.5221 12.3191 12.8951 10.7242 12.0094C10.5566 11.9163 10.3526 11.9163 10.185 12.0094C8.59009 12.8951 6.82335 13.5221 5.36385 13.9436C5.13315 14.0103 4.97285 14.2202 4.97285 14.4604V19.5863Z"/>
</mask>
<path d="M35.0285 45.619C35.0285 45.8155 34.9505 46.0039 34.8116 46.1428C34.6727 46.2817 34.4843 46.3597 34.2878 46.3597H10.4546C10.2582 46.3597 10.0698 46.2817 9.93084 46.1428C9.79192 46.0039 9.71388 45.8155 9.71388 45.619V31.6651C9.71388 31.4687 9.79192 31.2803 9.93084 31.1413C10.0698 31.0024 10.2582 30.9244 10.4546 30.9244C10.6511 30.9244 10.8395 31.0024 10.9784 31.1413C11.1173 31.2803 11.1954 31.4687 11.1954 31.6651V44.3449C11.1954 44.6395 11.4341 44.8783 11.7287 44.8783H34.2878C34.4843 44.8783 34.6727 44.9563 34.8116 45.0952C34.9505 45.2341 35.0285 45.4226 35.0285 45.619ZM9.71388 5.75248V1.0414C9.71388 0.844958 9.79191 0.656565 9.9308 0.517653C10.0697 0.378741 10.2581 0.300687 10.4545 0.300659H33.4264C34.3555 0.300659 35.2083 0.674308 35.8932 1.38108L45.0288 10.5166C45.7357 11.2012 46.1091 12.054 46.1091 12.9834V15.2365C46.1091 15.433 46.0311 15.6214 45.8922 15.7603C45.7532 15.8992 45.5648 15.9773 45.3684 15.9773C45.1719 15.9773 44.9835 15.8992 44.8446 15.7603C44.7057 15.6214 44.6276 15.433 44.6276 15.2365V12.9834C44.6276 12.4485 44.4207 11.9886 43.9948 11.5775L43.9855 11.5684L43.9174 11.5003C43.4821 11.0803 42.9117 10.849 42.3107 10.849H36.3015C36.1051 10.849 35.9167 10.7709 35.7778 10.632C35.6389 10.4931 35.5608 10.3047 35.5608 10.1082V4.09915C35.5608 3.49831 35.3296 2.92794 34.9099 2.49292L34.8415 2.42446L34.8324 2.41525C34.4211 1.98943 33.9612 1.78234 33.4264 1.78234H11.7287C11.4341 1.78234 11.1954 2.02112 11.1954 2.31567V5.75258C11.1954 5.94904 11.1173 6.13745 10.9784 6.27636C10.8395 6.41528 10.6511 6.49332 10.4546 6.49332C10.2582 6.49332 10.0698 6.41528 9.93084 6.27636C9.79192 6.13745 9.71388 5.94893 9.71388 5.75248ZM40.4971 9.36759C40.9723 9.36759 41.2102 8.79312 40.8742 8.45714L37.9528 5.53574C37.6169 5.19976 37.0424 5.43771 37.0424 5.91286V8.83426C37.0424 9.12881 37.2812 9.36759 37.5757 9.36759H40.4971ZM29.151 6.82633H16.6853C16.4888 6.82633 16.3004 6.90438 16.1615 7.04329C16.0226 7.18221 15.9445 7.37061 15.9445 7.56707C15.9445 7.76353 16.0226 7.95193 16.1615 8.09085C16.3004 8.22976 16.4888 8.30781 16.6853 8.30781H29.151C29.3475 8.30781 29.5359 8.22976 29.6748 8.09085C29.8137 7.95193 29.8917 7.76353 29.8917 7.56707C29.8917 7.37061 29.8137 7.18221 29.6748 7.04329C29.5359 6.90438 29.3475 6.82633 29.151 6.82633ZM10.4546 29.6956C10.5897 29.6957 10.7223 29.6587 10.8379 29.5887L12.1271 28.8094C12.3752 28.6593 12.6297 28.508 12.888 28.3545C15.0725 27.0556 17.5483 25.5835 18.8897 23.3249C19.5665 22.1853 19.9097 20.9274 19.9097 19.5861V11.5481C19.9097 11.3835 19.8549 11.2237 19.7539 11.0937C19.6529 10.9638 19.5116 10.8711 19.3521 10.8304L17.4766 10.3517C15.296 9.79531 13.5095 9.08801 12.1667 8.24961L10.847 7.4257C10.7294 7.35221 10.5934 7.31324 10.4547 7.31324C10.316 7.31324 10.1801 7.35221 10.0625 7.4257L8.74278 8.24961C7.40003 9.08801 5.61359 9.79531 3.43297 10.3518L1.55732 10.8304C1.39787 10.8711 1.25651 10.9638 1.15554 11.0937C1.05458 11.2237 0.99977 11.3835 0.999756 11.5481V16.7645C0.999756 16.8617 1.01892 16.9581 1.05614 17.0479C1.09337 17.1378 1.14793 17.2195 1.21671 17.2883C1.2855 17.357 1.36715 17.4116 1.45702 17.4488C1.54689 17.4861 1.64322 17.5052 1.74049 17.5052C1.83777 17.5052 1.93409 17.4861 2.02396 17.4488C2.11383 17.4116 2.19549 17.357 2.26427 17.2883C2.33306 17.2195 2.38762 17.1378 2.42484 17.0479C2.46207 16.9581 2.48123 16.8617 2.48123 16.7645V12.5379C2.48123 12.2941 2.64649 12.0814 2.88267 12.0211L3.79932 11.7872C6.12787 11.1929 8.05516 10.4255 9.52743 9.50611L10.1724 9.10348C10.3452 8.99559 10.5644 8.99559 10.7373 9.1035L11.3821 9.50611C12.8545 10.4255 14.7817 11.1929 17.1103 11.7872L18.0269 12.0211C18.2631 12.0814 18.4283 12.2941 18.4283 12.5379V19.5861C18.4283 20.6575 18.155 21.6607 17.6161 22.5684C16.4673 24.5027 14.1636 25.8725 12.1311 27.081C11.8738 27.2336 11.6171 27.3871 11.3609 27.5416L10.7309 27.9224C10.5612 28.025 10.3487 28.025 10.179 27.9224L9.54902 27.5416C9.29286 27.3871 9.03614 27.2337 8.77886 27.0811C6.74628 25.8726 4.44259 24.5028 3.29371 22.5684C2.76599 21.6798 2.49276 20.6989 2.48176 19.6535C2.4797 19.4584 2.40077 19.272 2.26213 19.1348C2.12348 18.9976 1.9363 18.9206 1.74123 18.9205H1.7333C1.53686 18.9226 1.34928 19.0026 1.21184 19.143C1.07439 19.2834 0.998331 19.4726 1.00039 19.669C1.01415 20.9788 1.35721 22.2089 2.01996 23.3248C3.36133 25.5834 5.83729 27.0555 8.02172 28.3545C8.27992 28.508 8.53442 28.6593 8.78246 28.8093L10.0717 29.5886C10.1873 29.6586 10.3195 29.6956 10.4546 29.6956ZM4.16206 22.0525C3.71074 21.2926 3.49138 20.4858 3.49138 19.5863V13.4839C3.49139 13.3193 3.54621 13.1594 3.64717 13.0295C3.74813 12.8995 3.88949 12.8069 4.04894 12.7662C5.7193 12.3398 8.11844 11.5769 10.0623 10.3632C10.18 10.2898 10.3159 10.2508 10.4546 10.2508C10.5933 10.2508 10.7292 10.2898 10.8469 10.3632C12.7908 11.5769 15.1899 12.3398 16.8603 12.7662C17.0197 12.8069 17.1611 12.8995 17.2621 13.0295C17.363 13.1594 17.4178 13.3193 17.4179 13.4839V19.5863C17.4179 20.4858 17.1985 21.2926 16.7472 22.0525C15.7233 23.7765 13.5222 25.082 11.5804 26.2338C11.3257 26.3849 11.0768 26.5326 10.8378 26.677C10.7222 26.747 10.5896 26.7839 10.4545 26.7839C10.3194 26.7839 10.1868 26.747 10.0712 26.677C9.82431 26.5282 9.57676 26.3805 9.32859 26.2338C7.3867 25.082 5.18597 23.7765 4.16206 22.0525ZM4.97285 19.5863C4.97285 20.2122 5.12428 20.7714 5.43581 21.2961C6.26681 22.6952 8.29505 23.8983 10.0846 24.9598C10.117 24.979 10.1493 24.9981 10.1815 25.0173C10.3498 25.1172 10.5594 25.1171 10.7278 25.0173C10.76 24.9981 10.7923 24.979 10.8247 24.9598C12.6142 23.8983 14.6425 22.6952 15.4734 21.2961C15.785 20.7714 15.9364 20.2122 15.9364 19.5863V14.4604C15.9364 14.2202 15.7761 14.0103 15.5454 13.9436C14.0858 13.5221 12.3191 12.8951 10.7242 12.0094C10.5566 11.9163 10.3526 11.9163 10.185 12.0094C8.59009 12.8951 6.82335 13.5221 5.36385 13.9436C5.13315 14.0103 4.97285 14.2202 4.97285 14.4604V19.5863Z" fill="#52006A"/>
<path d="M35.0285 45.619C35.0285 45.8155 34.9505 46.0039 34.8116 46.1428C34.6727 46.2817 34.4843 46.3597 34.2878 46.3597H10.4546C10.2582 46.3597 10.0698 46.2817 9.93084 46.1428C9.79192 46.0039 9.71388 45.8155 9.71388 45.619V31.6651C9.71388 31.4687 9.79192 31.2803 9.93084 31.1413C10.0698 31.0024 10.2582 30.9244 10.4546 30.9244C10.6511 30.9244 10.8395 31.0024 10.9784 31.1413C11.1173 31.2803 11.1954 31.4687 11.1954 31.6651V44.3449C11.1954 44.6395 11.4341 44.8783 11.7287 44.8783H34.2878C34.4843 44.8783 34.6727 44.9563 34.8116 45.0952C34.9505 45.2341 35.0285 45.4226 35.0285 45.619ZM9.71388 5.75248V1.0414C9.71388 0.844958 9.79191 0.656565 9.9308 0.517653C10.0697 0.378741 10.2581 0.300687 10.4545 0.300659H33.4264C34.3555 0.300659 35.2083 0.674308 35.8932 1.38108L45.0288 10.5166C45.7357 11.2012 46.1091 12.054 46.1091 12.9834V15.2365C46.1091 15.433 46.0311 15.6214 45.8922 15.7603C45.7532 15.8992 45.5648 15.9773 45.3684 15.9773C45.1719 15.9773 44.9835 15.8992 44.8446 15.7603C44.7057 15.6214 44.6276 15.433 44.6276 15.2365V12.9834C44.6276 12.4485 44.4207 11.9886 43.9948 11.5775L43.9855 11.5684L43.9174 11.5003C43.4821 11.0803 42.9117 10.849 42.3107 10.849H36.3015C36.1051 10.849 35.9167 10.7709 35.7778 10.632C35.6389 10.4931 35.5608 10.3047 35.5608 10.1082V4.09915C35.5608 3.49831 35.3296 2.92794 34.9099 2.49292L34.8415 2.42446L34.8324 2.41525C34.4211 1.98943 33.9612 1.78234 33.4264 1.78234H11.7287C11.4341 1.78234 11.1954 2.02112 11.1954 2.31567V5.75258C11.1954 5.94904 11.1173 6.13745 10.9784 6.27636C10.8395 6.41528 10.6511 6.49332 10.4546 6.49332C10.2582 6.49332 10.0698 6.41528 9.93084 6.27636C9.79192 6.13745 9.71388 5.94893 9.71388 5.75248ZM40.4971 9.36759C40.9723 9.36759 41.2102 8.79312 40.8742 8.45714L37.9528 5.53574C37.6169 5.19976 37.0424 5.43771 37.0424 5.91286V8.83426C37.0424 9.12881 37.2812 9.36759 37.5757 9.36759H40.4971ZM29.151 6.82633H16.6853C16.4888 6.82633 16.3004 6.90438 16.1615 7.04329C16.0226 7.18221 15.9445 7.37061 15.9445 7.56707C15.9445 7.76353 16.0226 7.95193 16.1615 8.09085C16.3004 8.22976 16.4888 8.30781 16.6853 8.30781H29.151C29.3475 8.30781 29.5359 8.22976 29.6748 8.09085C29.8137 7.95193 29.8917 7.76353 29.8917 7.56707C29.8917 7.37061 29.8137 7.18221 29.6748 7.04329C29.5359 6.90438 29.3475 6.82633 29.151 6.82633ZM10.4546 29.6956C10.5897 29.6957 10.7223 29.6587 10.8379 29.5887L12.1271 28.8094C12.3752 28.6593 12.6297 28.508 12.888 28.3545C15.0725 27.0556 17.5483 25.5835 18.8897 23.3249C19.5665 22.1853 19.9097 20.9274 19.9097 19.5861V11.5481C19.9097 11.3835 19.8549 11.2237 19.7539 11.0937C19.6529 10.9638 19.5116 10.8711 19.3521 10.8304L17.4766 10.3517C15.296 9.79531 13.5095 9.08801 12.1667 8.24961L10.847 7.4257C10.7294 7.35221 10.5934 7.31324 10.4547 7.31324C10.316 7.31324 10.1801 7.35221 10.0625 7.4257L8.74278 8.24961C7.40003 9.08801 5.61359 9.79531 3.43297 10.3518L1.55732 10.8304C1.39787 10.8711 1.25651 10.9638 1.15554 11.0937C1.05458 11.2237 0.99977 11.3835 0.999756 11.5481V16.7645C0.999756 16.8617 1.01892 16.9581 1.05614 17.0479C1.09337 17.1378 1.14793 17.2195 1.21671 17.2883C1.2855 17.357 1.36715 17.4116 1.45702 17.4488C1.54689 17.4861 1.64322 17.5052 1.74049 17.5052C1.83777 17.5052 1.93409 17.4861 2.02396 17.4488C2.11383 17.4116 2.19549 17.357 2.26427 17.2883C2.33306 17.2195 2.38762 17.1378 2.42484 17.0479C2.46207 16.9581 2.48123 16.8617 2.48123 16.7645V12.5379C2.48123 12.2941 2.64649 12.0814 2.88267 12.0211L3.79932 11.7872C6.12787 11.1929 8.05516 10.4255 9.52743 9.50611L10.1724 9.10348C10.3452 8.99559 10.5644 8.99559 10.7373 9.1035L11.3821 9.50611C12.8545 10.4255 14.7817 11.1929 17.1103 11.7872L18.0269 12.0211C18.2631 12.0814 18.4283 12.2941 18.4283 12.5379V19.5861C18.4283 20.6575 18.155 21.6607 17.6161 22.5684C16.4673 24.5027 14.1636 25.8725 12.1311 27.081C11.8738 27.2336 11.6171 27.3871 11.3609 27.5416L10.7309 27.9224C10.5612 28.025 10.3487 28.025 10.179 27.9224L9.54902 27.5416C9.29286 27.3871 9.03614 27.2337 8.77886 27.0811C6.74628 25.8726 4.44259 24.5028 3.29371 22.5684C2.76599 21.6798 2.49276 20.6989 2.48176 19.6535C2.4797 19.4584 2.40077 19.272 2.26213 19.1348C2.12348 18.9976 1.9363 18.9206 1.74123 18.9205H1.7333C1.53686 18.9226 1.34928 19.0026 1.21184 19.143C1.07439 19.2834 0.998331 19.4726 1.00039 19.669C1.01415 20.9788 1.35721 22.2089 2.01996 23.3248C3.36133 25.5834 5.83729 27.0555 8.02172 28.3545C8.27992 28.508 8.53442 28.6593 8.78246 28.8093L10.0717 29.5886C10.1873 29.6586 10.3195 29.6956 10.4546 29.6956ZM4.16206 22.0525C3.71074 21.2926 3.49138 20.4858 3.49138 19.5863V13.4839C3.49139 13.3193 3.54621 13.1594 3.64717 13.0295C3.74813 12.8995 3.88949 12.8069 4.04894 12.7662C5.7193 12.3398 8.11844 11.5769 10.0623 10.3632C10.18 10.2898 10.3159 10.2508 10.4546 10.2508C10.5933 10.2508 10.7292 10.2898 10.8469 10.3632C12.7908 11.5769 15.1899 12.3398 16.8603 12.7662C17.0197 12.8069 17.1611 12.8995 17.2621 13.0295C17.363 13.1594 17.4178 13.3193 17.4179 13.4839V19.5863C17.4179 20.4858 17.1985 21.2926 16.7472 22.0525C15.7233 23.7765 13.5222 25.082 11.5804 26.2338C11.3257 26.3849 11.0768 26.5326 10.8378 26.677C10.7222 26.747 10.5896 26.7839 10.4545 26.7839C10.3194 26.7839 10.1868 26.747 10.0712 26.677C9.82431 26.5282 9.57676 26.3805 9.32859 26.2338C7.3867 25.082 5.18597 23.7765 4.16206 22.0525ZM4.97285 19.5863C4.97285 20.2122 5.12428 20.7714 5.43581 21.2961C6.26681 22.6952 8.29505 23.8983 10.0846 24.9598C10.117 24.979 10.1493 24.9981 10.1815 25.0173C10.3498 25.1172 10.5594 25.1171 10.7278 25.0173C10.76 24.9981 10.7923 24.979 10.8247 24.9598C12.6142 23.8983 14.6425 22.6952 15.4734 21.2961C15.785 20.7714 15.9364 20.2122 15.9364 19.5863V14.4604C15.9364 14.2202 15.7761 14.0103 15.5454 13.9436C14.0858 13.5221 12.3191 12.8951 10.7242 12.0094C10.5566 11.9163 10.3526 11.9163 10.185 12.0094C8.59009 12.8951 6.82335 13.5221 5.36385 13.9436C5.13315 14.0103 4.97285 14.2202 4.97285 14.4604V19.5863Z" stroke="#52006A" stroke-width="0.213332" mask="url(#path-1-outside-1_2529_15331)"/>
<rect x="15.6668" y="6.5711" width="14.3999" height="1.59999" rx="0.799994" fill="#52006A" stroke="#52006A" stroke-width="0.533329"/>
<rect x="22.0668" y="11.9044" width="9.06659" height="1.59999" rx="0.799994" fill="#52006A" stroke="#52006A" stroke-width="0.533329"/>
<rect x="22.0668" y="17.2377" width="15.4665" height="1.59999" rx="0.799994" fill="#52006A" stroke="#52006A" stroke-width="0.533329"/>
<rect x="21.0001" y="22.571" width="12.2666" height="1.59999" rx="0.799994" fill="#52006A" stroke="#52006A" stroke-width="0.533329"/>
<rect x="15.6668" y="27.9043" width="18.6665" height="1.59999" rx="0.799994" fill="#52006A" stroke="#52006A" stroke-width="0.533329"/>
<rect x="15.6668" y="33.2375" width="14.3999" height="1.59999" rx="0.799994" fill="#52006A" stroke="#52006A" stroke-width="0.533329"/>
<rect x="15.6668" y="38.5709" width="18.6665" height="1.59999" rx="0.799994" fill="#52006A" stroke="#52006A" stroke-width="0.533329"/>
<path d="M50.9199 19.3351C52.195 19.6643 53.4174 20.1716 54.5508 20.8422L55.6964 19.6964C55.9144 19.4784 56.1731 19.3054 56.4579 19.1875C56.7427 19.0695 57.0479 19.0088 57.3562 19.0089C57.6643 19.0089 57.9694 19.0696 58.2541 19.1876C58.5388 19.3055 58.7974 19.4785 59.0152 19.6964L60.6743 21.3556C60.8923 21.5734 61.0652 21.832 61.1832 22.1167C61.3012 22.4013 61.3619 22.7065 61.3619 23.0146C61.3619 23.3229 61.3013 23.6281 61.1833 23.9129C61.0653 24.1977 60.8923 24.4564 60.6743 24.6743L59.5285 25.82C60.1991 26.9535 60.7065 28.1758 61.0357 29.4509H62.6531C63.949 29.4509 64.9998 30.5016 64.9998 31.7975V34.1442C64.9998 35.4401 63.949 36.4909 62.6531 36.4909H61.0357C60.7065 37.766 60.1991 38.9883 59.5285 40.1217L60.6743 41.2674C60.8923 41.4853 61.0653 41.7441 61.1833 42.0288C61.3013 42.3136 61.3619 42.6189 61.3619 42.9271C61.3619 43.2353 61.3012 43.5404 61.1832 43.8251C61.0652 44.1098 60.8923 44.3684 60.6743 44.5862L59.0152 46.2453C58.7974 46.4633 58.5388 46.6362 58.2541 46.7542C57.9695 46.8721 57.6643 46.9328 57.3562 46.9328C57.0479 46.9329 56.7427 46.8722 56.4579 46.7543C56.1731 46.6363 55.9143 46.4633 55.6964 46.2453L54.5508 45.0995C53.4174 45.7701 52.195 46.2775 50.9199 46.6066V48.224C50.9199 49.52 49.8691 50.5707 48.5732 50.5707H46.2266C44.9306 50.5707 43.8799 49.52 43.8799 48.224V46.6066C42.6048 46.2775 41.3825 45.7701 40.249 45.0995L39.1033 46.2453C38.8854 46.4633 38.6267 46.6363 38.3419 46.7542C38.0571 46.8722 37.7519 46.9329 37.4436 46.9328C37.1355 46.9329 36.8304 46.8722 36.5457 46.7542C36.261 46.6362 36.0024 46.4633 35.7846 46.2453L34.1255 44.5862C33.9075 44.3684 33.7346 44.1098 33.6166 43.8251C33.4986 43.5404 33.4379 43.2353 33.4379 42.9271C33.4378 42.6189 33.4985 42.3136 33.6165 42.0289C33.7345 41.7441 33.9074 41.4853 34.1255 41.2674L35.2713 40.1217C34.6007 38.9883 34.0933 37.766 33.7641 36.4909H32.1467C30.8508 36.4909 29.8 35.4401 29.8 34.1442V31.7975C29.8 30.5016 30.8508 29.4509 32.1467 29.4509H33.7641C34.0933 28.1758 34.6007 26.9534 35.2713 25.82L34.1255 24.6743C33.9074 24.4564 33.7345 24.1977 33.6165 23.9129C33.4985 23.6281 33.4378 23.3229 33.4379 23.0146C33.4379 22.7065 33.4986 22.4013 33.6166 22.1167C33.7346 21.832 33.9075 21.5734 34.1255 21.3556L35.7846 19.6964C36.0024 19.4784 36.261 19.3055 36.5457 19.1875C36.8304 19.0696 37.1355 19.0088 37.4436 19.0089C37.7519 19.0088 38.0571 19.0695 38.3419 19.1875C38.6267 19.3054 38.8854 19.4784 39.1033 19.6964L40.249 20.8422C41.3825 20.1716 42.6048 19.6643 43.8799 19.3351V17.7176C43.8799 16.4217 44.9306 15.371 46.2266 15.371H48.5732C49.8691 15.371 50.9199 16.4217 50.9199 17.7176V19.3351Z" stroke="#52006A" stroke-width="1.6" stroke-miterlimit="10" stroke-linecap="round" stroke-linejoin="round"/>
<path d="M47.5 23C52.7432 23 57 27.2568 57 32.5C57 37.7431 52.7432 42 47.5 42C42.2568 42 38 37.7431 38 32.5C38 27.2568 42.2568 23 47.5 23Z" stroke="#52006A" stroke-width="1.6" stroke-miterlimit="10" stroke-linecap="round" stroke-linejoin="round"/>
</svg>
