<svg width="60" height="46" viewBox="0 0 60 46" fill="none" xmlns="http://www.w3.org/2000/svg">
<path d="M59.2119 25.2548L47.0048 13.0477C46.7315 12.7726 46.4063 12.5546 46.0481 12.4062C45.69 12.2578 45.3059 12.1821 44.9182 12.1833H28.0333V14.15H32.95V28.9H34.9167V14.15H44.9182C45.0474 14.1499 45.1755 14.1753 45.2949 14.2247C45.4144 14.2741 45.5229 14.3467 45.6144 14.4381L47.2929 16.1166H42.7833C42.2617 16.1166 41.7615 16.3238 41.3927 16.6927C41.0239 17.0615 40.8167 17.5617 40.8167 18.0833V26.9333C40.8167 27.4549 41.0239 27.9551 41.3927 28.3239C41.7615 28.6928 42.2617 28.9 42.7833 28.9H57.5333V36.7666C57.5333 37.0274 57.4297 37.2775 57.2453 37.462C57.0609 37.6464 56.8108 37.75 56.55 37.75H54.5047C54.2696 36.1129 53.4521 34.6154 52.2022 33.5322C50.9524 32.449 49.3539 31.8527 47.7 31.8527C46.0461 31.8527 44.4476 32.449 43.1978 33.5322C41.9479 34.6154 41.1305 36.1129 40.8953 37.75H26.9713C26.7362 36.1129 25.9188 34.6154 24.6689 33.5322C23.4191 32.449 21.8206 31.8527 20.1667 31.8527C18.5128 31.8527 16.9143 32.449 15.6644 33.5322C14.4146 34.6154 13.5971 36.1129 13.362 37.75H11.3167C11.0559 37.75 10.8058 37.6464 10.6213 37.462C10.4369 37.2775 10.3333 37.0274 10.3333 36.7666V27.9166H8.36667V36.7666C8.36667 37.549 8.67747 38.2994 9.2307 38.8526C9.78393 39.4058 10.5343 39.7166 11.3167 39.7166H13.362C13.5766 41.2118 14.2786 42.5944 15.3591 43.65H0.5V45.6166H47.7C49.3535 45.6135 50.9507 45.0157 52.1999 43.9325C53.4492 42.8494 54.2672 41.353 54.5047 39.7166H56.55C57.3324 39.7166 58.0827 39.4058 58.636 38.8526C59.1892 38.2994 59.5 37.549 59.5 36.7666V25.95C59.4999 25.6892 59.3963 25.4391 59.2119 25.2548ZM15.25 38.7333C15.25 37.7609 15.5384 36.8103 16.0786 36.0018C16.6189 35.1932 17.3867 34.563 18.2851 34.1909C19.1835 33.8188 20.1721 33.7214 21.1259 33.9111C22.0796 34.1008 22.9557 34.5691 23.6433 35.2567C24.3309 35.9443 24.7992 36.8204 24.9889 37.7741C25.1786 38.7278 25.0812 39.7164 24.7091 40.6148C24.3369 41.5132 23.7068 42.2811 22.8982 42.8214C22.0897 43.3616 21.1391 43.65 20.1667 43.65C18.8632 43.6484 17.6135 43.1299 16.6918 42.2082C15.7701 41.2865 15.2516 40.0368 15.25 38.7333ZM24.9742 43.65C26.0547 42.5944 26.7567 41.2118 26.9713 39.7166H40.8953C41.11 41.2118 41.812 42.5944 42.8925 43.65H24.9742ZM47.7 43.65C46.7276 43.65 45.777 43.3616 44.9684 42.8214C44.1599 42.2811 43.5297 41.5132 43.1576 40.6148C42.7855 39.7164 42.6881 38.7278 42.8778 37.7741C43.0675 36.8204 43.5358 35.9443 44.2234 35.2567C44.911 34.5691 45.7871 34.1008 46.7408 33.9111C47.6945 33.7214 48.6831 33.8188 49.5815 34.1909C50.4799 34.563 51.2478 35.1932 51.7881 36.0018C52.3283 36.8103 52.6167 37.7609 52.6167 38.7333C52.6151 40.0368 52.0966 41.2865 51.1749 42.2082C50.2532 43.1299 49.0035 43.6484 47.7 43.65ZM42.7833 26.9333V18.0833H49.2596L57.5333 26.3571V26.9333H42.7833Z" fill="#52006A"/>
<path d="M21.1498 37.75H19.1831V39.7166H21.1498V37.75Z" fill="#52006A"/>
<path d="M48.6835 37.75H46.7168V39.7166H48.6835V37.75Z" fill="#52006A"/>
<path d="M5.41667 34.8H0.5V36.7666H5.41667V34.8Z" fill="#52006A"/>
<path d="M5.4168 30.8666H2.4668V32.8333H5.4168V30.8666Z" fill="#52006A"/>
<path d="M5.41686 26.9333H3.4502V28.9H5.41686V26.9333Z" fill="#52006A"/>
<path d="M13.2833 25.95C15.8116 25.95 18.2832 25.2003 20.3854 23.7957C22.4876 22.391 24.1261 20.3945 25.0936 18.0587C26.0611 15.7228 26.3143 13.1525 25.821 10.6728C25.3278 8.19307 24.1103 5.9153 22.3225 4.12752C20.5347 2.33974 18.257 1.12224 15.7772 0.628996C13.2975 0.135748 10.7272 0.388901 8.39137 1.35644C6.05552 2.32398 4.05903 3.96245 2.65438 6.06466C1.24973 8.16687 0.5 10.6384 0.5 13.1667C0.503904 16.5559 1.85197 19.8051 4.24846 22.2016C6.64496 24.5981 9.89418 25.9461 13.2833 25.95ZM13.2833 2.35003C15.4227 2.35003 17.514 2.98442 19.2928 4.17297C21.0716 5.36152 22.4579 7.05086 23.2766 9.02734C24.0953 11.0038 24.3095 13.1787 23.8922 15.2769C23.4748 17.3752 22.4446 19.3025 20.9319 20.8152C19.4191 22.328 17.4918 23.3582 15.3936 23.7755C13.2953 24.1929 11.1205 23.9787 9.14398 23.16C7.16749 22.3413 5.47816 20.9549 4.2896 19.1761C3.10105 17.3973 2.46667 15.306 2.46667 13.1667C2.47005 10.299 3.61075 7.54969 5.63853 5.5219C7.66632 3.49411 10.4156 2.35342 13.2833 2.35003Z" fill="#52006A"/>
<path d="M13.2832 22.0166C13.544 22.0166 13.7941 21.9129 13.9785 21.7285C14.6117 21.0952 20.1666 15.4185 20.1666 11.2C20.1666 9.37438 19.4414 7.62358 18.1505 6.3327C16.8596 5.04183 15.1088 4.31662 13.2832 4.31662C11.4577 4.31662 9.70686 5.04183 8.41598 6.3327C7.12511 7.62358 6.3999 9.37438 6.3999 11.2C6.3999 15.4185 11.9548 21.0952 12.588 21.7285C12.7724 21.9129 13.0225 22.0166 13.2832 22.0166ZM13.2832 6.28329C14.5867 6.28485 15.8364 6.80335 16.7581 7.72507C17.6798 8.64678 18.1983 9.89645 18.1999 11.2C18.1999 13.7232 15.1054 17.6221 13.2832 19.6084C11.4611 17.6221 8.36657 13.7232 8.36657 11.2C8.36813 9.89645 8.88664 8.64678 9.80835 7.72507C10.7301 6.80335 11.9797 6.28485 13.2832 6.28329Z" fill="#52006A"/>
<path d="M16.2335 11.2C16.2335 10.6165 16.0605 10.0462 15.7363 9.56104C15.4122 9.07591 14.9515 8.6978 14.4124 8.47453C13.8734 8.25125 13.2802 8.19283 12.708 8.30665C12.1357 8.42048 11.6101 8.70144 11.1975 9.11401C10.785 9.52657 10.504 10.0522 10.3902 10.6245C10.2764 11.1967 10.3348 11.7898 10.5581 12.3289C10.7813 12.8679 11.1594 13.3287 11.6446 13.6528C12.1297 13.977 12.7 14.15 13.2835 14.15C14.0659 14.15 14.8162 13.8392 15.3695 13.2859C15.9227 12.7327 16.2335 11.9824 16.2335 11.2ZM12.3002 11.2C12.3002 11.0055 12.3578 10.8154 12.4659 10.6537C12.5739 10.492 12.7275 10.3659 12.9072 10.2915C13.0869 10.2171 13.2846 10.1976 13.4753 10.2355C13.6661 10.2735 13.8413 10.3671 13.9788 10.5046C14.1163 10.6422 14.21 10.8174 14.2479 11.0081C14.2859 11.1989 14.2664 11.3966 14.192 11.5763C14.1176 11.756 13.9915 11.9095 13.8298 12.0176C13.6681 12.1256 13.478 12.1833 13.2835 12.1833C13.0227 12.1833 12.7726 12.0797 12.5882 11.8953C12.4038 11.7109 12.3002 11.4608 12.3002 11.2Z" fill="#52006A"/>
<path d="M41.8 30.8666H37.8667V32.8333H41.8V30.8666Z" fill="#52006A"/>
</svg>
