<svg width="52" height="54" viewBox="0 0 52 54" fill="none" xmlns="http://www.w3.org/2000/svg">
<path d="M10.8765 11.5323H32.0122V6.12335H21.6128M10.8765 11.5323V34.0189M10.8765 11.5323V7.15563C10.8765 6.5855 11.3386 6.12335 11.9087 6.12335H17.9998M38.9361 20.5169V17.1572M16.5256 42.0793H32.7377" stroke="#52006A" stroke-width="1.54842" stroke-miterlimit="10" stroke-linecap="round" stroke-linejoin="round"/>
<path d="M27.6873 35.2714H16.5257M33.3843 35.2714H30.297M16.4285 30.9835H33.3843M16.4285 26.5571H32.5033M18.8128 19.1949V26.5571M22.8752 20.6973V26.5571M26.9376 16.1899V26.5571M31 22.1998V26.5571M13.6866 29.0332C13.6866 26.3139 11.4822 24.1094 8.76283 24.1094C6.0435 24.1094 3.83907 26.3139 3.83907 29.0332V34.0189H13.6867M1 41.9717V45.6419C1 46.212 1.46215 46.6742 2.03228 46.6742H15.4934C16.0635 46.6742 16.5257 46.212 16.5257 45.6419V35.0511C16.5257 34.481 16.0635 34.0189 15.4934 34.0189H2.03228C1.46215 34.0189 1 34.481 1 35.0511V38.3589M8.76283 40.5289V37.6373M35.4857 6.37966H40.6649M35.4857 9.54245H40.6649M35.4857 12.7051H37.9638M44.2059 32.6177C45.6113 31.3434 46.4941 29.5035 46.4941 27.4569C46.4941 23.6093 43.375 20.4902 39.5274 20.4902C35.6798 20.4902 32.5606 23.6093 32.5606 27.4569C32.5606 30.7605 34.8609 33.525 37.9465 34.2413M11.9311 6.12335C11.3487 6.12335 10.8765 6.59551 10.8765 7.17792V11.5323H16.4284V6.12335H11.9311ZM40.9571 1.34793H32.838C32.619 1.34793 32.4089 1.43494 32.2541 1.58981C32.0992 1.74468 32.0122 1.95473 32.0122 2.17375V16.3313C32.0122 16.5503 32.0992 16.7604 32.2541 16.9153C32.4089 17.0701 32.619 17.1571 32.838 17.1571H43.3125C43.5315 17.1571 43.7416 17.0701 43.8965 16.9153C44.0513 16.7604 44.1383 16.5503 44.1383 16.3313V4.5292C44.1384 4.42075 44.117 4.31336 44.0755 4.21317C44.034 4.11297 43.9732 4.02193 43.8965 3.94524L41.541 1.58979C41.4643 1.51311 41.3733 1.45228 41.2731 1.41078C41.1729 1.36928 41.0655 1.34793 40.9571 1.34793Z" stroke="#52006A" stroke-width="1.54842" stroke-miterlimit="10" stroke-linecap="round" stroke-linejoin="round"/>
<path d="M41.2098 30.4425C42.2511 29.8544 42.9546 28.7381 42.9546 27.457C42.9546 25.5641 41.4201 24.0297 39.5274 24.0297C37.6346 24.0297 36.1001 25.5642 36.1001 27.457C36.1001 28.7794 36.8495 29.9262 37.9465 30.4977" stroke="#52006A" stroke-width="1.54842" stroke-miterlimit="10" stroke-linecap="round" stroke-linejoin="round"/>
<path d="M36.4347 46.1659L38.4344 48.3765C39.0854 49.0961 39.4459 50.0318 39.4459 51.0021L39.446 51.6199C39.4461 52.1899 39.9082 52.6521 40.4782 52.6521H46.8369C47.407 52.6521 47.8691 52.1899 47.8691 51.6198V50.5554C47.8691 49.9229 48.1689 49.3202 48.6906 48.9625C50.085 48.0067 51.0001 46.4031 51.0001 44.5849V36.2513C51.0001 35.3501 50.2696 34.6196 49.3684 34.6196C48.4672 34.6196 47.7367 35.3501 47.7367 36.2513V34.9042C47.7367 34.003 47.0062 33.2724 46.105 33.2724C45.2038 33.2724 44.4733 34.003 44.4733 34.9042V33.5115C44.4733 32.6103 43.7427 31.8798 42.8415 31.8798C41.9404 31.8798 41.2098 32.6103 41.2098 33.5115V28.6454C41.2098 27.7442 40.4793 27.0136 39.5781 27.0136C38.6769 27.0136 37.9464 27.7442 37.9464 28.6454V40.2934C37.9464 40.4235 37.9193 40.5523 37.8668 40.6714C37.8143 40.7905 37.7376 40.8974 37.6416 40.9853C37.5455 41.0731 37.4323 41.14 37.309 41.1817C37.1856 41.2234 37.055 41.2389 36.9254 41.2274C36.6974 41.2077 36.4866 41.0973 36.3249 40.9354L34.927 39.5374C34.0137 38.6242 32.5301 38.6286 31.6224 39.5507C31.2651 39.9138 31.2754 40.501 31.6357 40.8611L34.0076 43.4833M41.21 33.5114V34.9042" stroke="#52006A" stroke-width="1.54842" stroke-miterlimit="10" stroke-linecap="round" stroke-linejoin="round"/>
</svg>
