<svg xmlns="http://www.w3.org/2000/svg" width="51" height="54" viewBox="0 0 51 54" fill="none">
  <path d="M21.6272 5.03271C17.7257 5.03271 14.5516 8.20692 14.5516 12.1084C14.5516 16.0098 17.7257 19.184 21.6272 19.184C25.5288 19.184 28.7029 16.0098 28.7029 12.1084C28.7029 8.20692 25.5288 5.03271 21.6272 5.03271ZM21.6272 17.4653C18.6734 17.4653 16.2703 15.0622 16.2703 12.1084C16.2703 9.1546 18.6735 6.75146 21.6272 6.75146C24.581 6.75146 26.9842 9.1546 26.9842 12.1084C26.9842 15.0622 24.5811 17.4653 21.6272 17.4653ZM24.4637 13.4599C24.5379 14.0714 24.372 14.632 23.9835 15.0812C23.632 15.4877 23.0995 15.7834 22.4867 15.9265V16.0421C22.4867 16.27 22.3962 16.4886 22.235 16.6497C22.0739 16.8109 21.8553 16.9014 21.6274 16.9014C21.3994 16.9014 21.1808 16.8109 21.0197 16.6497C20.8585 16.4886 20.768 16.27 20.768 16.0421V15.9113C19.7844 15.6499 19.0381 14.9465 18.7993 13.9885C18.772 13.879 18.7665 13.7652 18.7832 13.6535C18.7998 13.5419 18.8383 13.4347 18.8965 13.3379C18.9546 13.2412 19.0312 13.1569 19.1219 13.0897C19.2126 13.0226 19.3157 12.974 19.4252 12.9467C19.8856 12.8326 20.3521 13.1121 20.467 13.5726C20.6061 14.1304 21.2108 14.3169 21.688 14.3037C22.1063 14.2937 22.5157 14.1511 22.6837 13.9568C22.7334 13.8993 22.7768 13.8246 22.7576 13.6671C22.7381 13.5067 22.6925 13.1308 21.4939 12.9341C19.3864 12.5879 19.0156 11.3782 18.9822 10.6878C18.9287 9.58665 19.639 8.65777 20.7681 8.32176V8.1748C20.7681 7.94688 20.8586 7.7283 21.0198 7.56713C21.181 7.40597 21.3995 7.31543 21.6275 7.31543C21.8554 7.31543 22.074 7.40597 22.2351 7.56713C22.3963 7.7283 22.4868 7.94688 22.4868 8.1748V8.31402C23.212 8.52242 23.8848 9.01785 24.25 9.88743C24.3363 10.0972 24.3362 10.3326 24.2496 10.5424C24.1631 10.7521 23.9971 10.919 23.7879 11.0069C23.5788 11.0947 23.3434 11.0962 23.133 11.0112C22.9227 10.9261 22.7546 10.7613 22.6653 10.5528C22.3911 9.9 21.7071 9.86401 21.3463 9.94619C21.1888 9.98196 20.6762 10.1351 20.699 10.6047C20.7045 10.7188 20.7214 11.0656 21.7725 11.2382C23.4117 11.507 24.3173 12.2546 24.4637 13.4599ZM47.4031 21.7762V6.89906C47.4031 6.41889 47.2236 5.98555 46.884 5.64577L41.7571 0.519062C41.4176 0.179502 40.9843 0 40.5041 0H12.5137C11.5364 0 10.7412 0.795137 10.7412 1.77246V20.8529H10.147C9.9733 20.8529 9.80371 20.9056 9.66054 21.0039C9.51737 21.1022 9.40734 21.2415 9.34495 21.4036L8.81783 22.7731C8.08931 22.9822 7.38691 23.2733 6.72418 23.6411L5.38205 23.045C5.22335 22.9745 5.04699 22.9537 4.87623 22.9854C4.70548 23.0171 4.54835 23.0998 4.42557 23.2227L2.36983 25.2785C2.24704 25.4013 2.16434 25.5585 2.13262 25.7292C2.1009 25.8999 2.12166 26.0763 2.19216 26.235L2.78814 27.5769C2.4204 28.2397 2.12913 28.9422 1.91995 29.6708L0.550644 30.1978C0.388573 30.2602 0.249206 30.3702 0.15091 30.5134C0.0526128 30.6565 -1.50029e-06 30.8261 0 30.9998V33.9071C-1.50029e-06 34.0807 0.0526128 34.2503 0.15091 34.3935C0.249206 34.5367 0.388573 34.6467 0.550644 34.7091L1.91974 35.2361C2.12883 35.9649 2.42013 36.6675 2.78803 37.3305L2.19227 38.672C2.12175 38.8307 2.10099 39.007 2.13271 39.1778C2.16442 39.3485 2.24714 39.5057 2.36994 39.6285L4.42578 41.6842C4.54861 41.807 4.70574 41.8896 4.87647 41.9213C5.04721 41.9531 5.22354 41.9323 5.38227 41.8619L6.72429 41.2659C7.38706 41.6336 8.08949 41.9248 8.81805 42.1339L9.34517 43.5033C9.40756 43.6654 9.51758 43.8047 9.66075 43.903C9.80392 44.0013 9.97351 44.0539 10.1472 44.0539H10.7414V45.2355C10.7414 46.2128 11.5366 47.0079 12.5139 47.0079H24.3083V49.2161C24.3083 51.4574 26.1318 53.281 28.3731 53.281H46.7221C48.9634 53.281 50.787 51.4574 50.787 49.2161V25.7829C50.7867 23.7738 49.3211 22.1014 47.4031 21.7762ZM44.469 5.66146H41.7417V2.93412L44.469 5.66146ZM10.2638 41.1062C10.2137 40.9759 10.1326 40.8598 10.0276 40.768C9.92251 40.6761 9.79665 40.6112 9.66088 40.5789C8.80145 40.3744 7.98022 40.0339 7.2282 39.5702C7.10935 39.497 6.97445 39.4539 6.83517 39.4445C6.69589 39.4352 6.55644 39.46 6.42888 39.5166L5.22393 40.0517L4.00254 38.8305L4.5375 37.626C4.59416 37.4984 4.61889 37.359 4.60955 37.2197C4.60021 37.0804 4.55708 36.9455 4.4839 36.8266C4.02014 36.0744 3.67958 35.2529 3.4751 34.3933C3.44277 34.2575 3.37786 34.1316 3.28598 34.0266C3.1941 33.9215 3.07802 33.8404 2.94776 33.7903L1.71886 33.3172V31.5901L2.94798 31.117C3.07824 31.0669 3.19433 30.9858 3.28622 30.8807C3.3781 30.7756 3.443 30.6497 3.47531 30.5139C3.67976 29.6545 4.02029 28.8332 4.484 28.0813C4.55719 27.9624 4.60032 27.8275 4.60966 27.6882C4.619 27.5489 4.59427 27.4094 4.53761 27.2818L4.00243 26.0767L5.22382 24.8554L6.42888 25.3906C6.55645 25.4472 6.6959 25.4719 6.83517 25.4626C6.97444 25.4533 7.10934 25.4101 7.2282 25.337C7.98027 24.8734 8.80149 24.5329 9.66088 24.3283C9.79665 24.296 9.92251 24.2311 10.0276 24.1392C10.1326 24.0474 10.2137 23.9313 10.2638 23.801L10.737 22.5717H12.4643L12.9375 23.801C12.9876 23.9313 13.0687 24.0474 13.1737 24.1392C13.2788 24.2311 13.4047 24.296 13.5404 24.3283C14.3998 24.5328 15.2211 24.8733 15.9731 25.337C16.092 25.4101 16.2269 25.4532 16.3661 25.4625C16.5054 25.4719 16.6448 25.4472 16.7724 25.3906L17.9775 24.8554L19.1989 26.0767L18.664 27.2812C18.6073 27.4088 18.5826 27.5482 18.592 27.6875C18.6013 27.8268 18.6445 27.9618 18.7177 28.0806C19.1814 28.8328 19.5219 29.6542 19.7264 30.5138C19.7587 30.6496 19.8236 30.7755 19.9155 30.8806C20.0074 30.9856 20.1235 31.0668 20.2537 31.1169L21.4825 31.5899V33.317L20.2533 33.7902C20.1231 33.8403 20.007 33.9214 19.9151 34.0265C19.8232 34.1316 19.7583 34.2575 19.726 34.3933C19.5215 35.2527 19.181 36.0739 18.7174 36.8259C18.6442 36.9448 18.6011 37.0797 18.5917 37.219C18.5824 37.3582 18.6071 37.4977 18.6638 37.6253L19.199 38.8303L17.9777 40.0516L16.7733 39.5167C16.6457 39.46 16.5062 39.4353 16.3669 39.4446C16.2276 39.454 16.0927 39.4972 15.9738 39.5705C15.2216 40.0341 14.4001 40.3746 13.5405 40.5793C13.4047 40.6115 13.2789 40.6764 13.1738 40.7683C13.0687 40.8601 12.9876 40.9762 12.9375 41.1065L12.4645 42.3353H10.7372L10.2638 41.1062ZM24.3081 25.7829V45.2895H12.5137C12.4996 45.289 12.4863 45.2831 12.4763 45.2732C12.4663 45.2632 12.4605 45.2499 12.46 45.2358V44.0542H13.0543C13.228 44.0543 13.3976 44.0016 13.5408 43.9033C13.6839 43.805 13.794 43.6657 13.8563 43.5036L14.3833 42.1347C15.1121 41.9256 15.8148 41.6343 16.4778 41.2664L17.8193 41.8622C17.978 41.9327 18.1543 41.9535 18.3251 41.9218C18.4958 41.89 18.6529 41.8073 18.7757 41.6845L20.8315 39.6287C20.9543 39.5059 21.037 39.3488 21.0687 39.178C21.1004 39.0073 21.0797 38.8309 21.0092 38.6722L20.4132 37.3302C20.7809 36.6674 21.0721 35.965 21.2812 35.2365L22.6507 34.7094C22.8127 34.647 22.9521 34.537 23.0504 34.3938C23.1487 34.2507 23.2013 34.0811 23.2013 33.9074V31.0001C23.2013 30.8265 23.1487 30.6569 23.0504 30.5137C22.9521 30.3705 22.8127 30.2605 22.6507 30.1981L21.2818 29.6712C21.0727 28.9424 20.7814 28.2398 20.4135 27.5768L21.0092 26.2353C21.0797 26.0766 21.1005 25.9003 21.0688 25.7295C21.0371 25.5588 20.9544 25.4016 20.8316 25.2788L18.7757 23.223C18.6529 23.1003 18.4958 23.0176 18.325 22.9859C18.1543 22.9542 17.978 22.9749 17.8193 23.0453L16.4771 23.6414C15.8144 23.2737 15.112 22.9825 14.3835 22.7734L13.8563 21.4039C13.794 21.2418 13.6839 21.1025 13.5408 21.0042C13.3976 20.9059 13.228 20.8533 13.0543 20.8533H12.4601V1.77246C12.4601 1.74432 12.4856 1.71875 12.5138 1.71875H40.023V6.06429C40.023 6.78992 40.6133 7.38021 41.3389 7.38021H45.6845V21.718H28.3729C26.1316 21.718 24.3081 23.5414 24.3081 25.7829ZM49.068 49.2163C49.068 50.51 48.0154 51.5625 46.7217 51.5625H28.3729C27.0793 51.5625 26.0268 50.51 26.0268 49.2163V25.7829C26.0268 24.4892 27.0792 23.4368 28.3729 23.4368H46.7219C48.0155 23.4368 49.0681 24.4892 49.0681 25.7829V49.2163H49.068ZM45.6533 26.319H29.4414C28.5612 26.319 27.8451 27.0351 27.8451 27.9152V30.8076C27.8451 31.6877 28.5612 32.4038 29.4414 32.4038H45.6533C46.5334 32.4038 47.2495 31.6877 47.2495 30.8076V27.9152C47.2495 27.0351 46.5334 26.319 45.6533 26.319ZM45.5308 30.6851H29.5639V28.0376H45.5308V30.6851ZM32.8726 34.1946H30.1184C29.2382 34.1946 28.5221 34.9107 28.5221 35.7908V36.7488C28.5221 37.629 29.2382 38.3451 30.1184 38.3451H32.8726C33.7528 38.3451 34.4689 37.629 34.4689 36.7488V35.7908C34.4689 34.9107 33.7528 34.1946 32.8726 34.1946ZM32.7501 36.6265H30.2409V35.9134H32.7501V36.6265ZM38.9244 34.1946H36.1702C35.29 34.1946 34.5739 34.9107 34.5739 35.7908V36.7488C34.5739 37.629 35.29 38.3451 36.1702 38.3451H38.9244C39.8046 38.3451 40.5207 37.629 40.5207 36.7488V35.7908C40.5207 34.9107 39.8046 34.1946 38.9244 34.1946ZM38.802 36.6265H36.2927V35.9134H38.802V36.6265ZM44.9763 34.1946H42.2221C41.3418 34.1946 40.6258 34.9107 40.6258 35.7908V36.7488C40.6258 37.629 41.3418 38.3451 42.2221 38.3451H44.9763C45.8565 38.3451 46.5725 37.629 46.5725 36.7488V35.7908C46.5725 34.9107 45.8565 34.1946 44.9763 34.1946ZM44.8538 36.6265H42.3445V35.9134H44.8538V36.6265ZM32.8726 39.3622H30.1184C29.2382 39.3622 28.5221 40.0782 28.5221 40.9585V41.9164C28.5221 42.7967 29.2382 43.5127 30.1184 43.5127H32.8726C33.7528 43.5127 34.4689 42.7967 34.4689 41.9164V40.9585C34.4689 40.0782 33.7528 39.3622 32.8726 39.3622ZM32.7501 41.794H30.2409V41.0808H32.7501V41.794ZM38.9244 39.3622H36.1702C35.29 39.3622 34.5739 40.0782 34.5739 40.9585V41.9164C34.5739 42.7967 35.29 43.5127 36.1702 43.5127H38.9244C39.8046 43.5127 40.5207 42.7967 40.5207 41.9164V40.9585C40.5207 40.0782 39.8046 39.3622 38.9244 39.3622ZM38.802 41.794H36.2927V41.0808H38.802V41.794ZM44.9763 39.3622H42.2221C41.3418 39.3622 40.6258 40.0782 40.6258 40.9585V41.9164C40.6258 42.7967 41.3418 43.5127 42.2221 43.5127H44.9763C45.8565 43.5127 46.5725 42.7967 46.5725 41.9164V40.9585C46.5725 40.0782 45.8565 39.3622 44.9763 39.3622ZM44.8538 41.794H42.3445V41.0808H44.8538V41.794ZM32.8726 44.5297H30.1184C29.2382 44.5297 28.5221 45.2458 28.5221 46.1259V47.084C28.5221 47.9641 29.2382 48.6802 30.1184 48.6802H32.8726C33.7528 48.6802 34.4689 47.9641 34.4689 47.084V46.1259C34.4689 45.2458 33.7528 44.5297 32.8726 44.5297ZM32.7501 46.9615H30.2409V46.2484H32.7501V46.9615ZM38.9244 44.5297H36.1702C35.29 44.5297 34.5739 45.2458 34.5739 46.1259V47.084C34.5739 47.9641 35.29 48.6802 36.1702 48.6802H38.9244C39.8046 48.6802 40.5207 47.9641 40.5207 47.084V46.1259C40.5207 45.2458 39.8046 44.5297 38.9244 44.5297ZM38.802 46.9615H36.2927V46.2484H38.802V46.9615ZM44.9763 44.5297H42.2221C41.3418 44.5297 40.6258 45.2458 40.6258 46.1259V47.084C40.6258 47.9641 41.3418 48.6802 42.2221 48.6802H44.9763C45.8565 48.6802 46.5725 47.9641 46.5725 47.084V46.1259C46.5725 45.2458 45.8565 44.5297 44.9763 44.5297ZM44.8538 46.9615H42.3445V46.2484H44.8538V46.9615ZM17.5304 32.4537C17.5304 29.1839 14.8703 26.524 11.6006 26.524C8.331 26.524 5.67091 29.1841 5.67091 32.4537C5.67091 35.7233 8.331 38.3832 11.6006 38.3832C14.8703 38.3832 17.5304 35.7233 17.5304 32.4537ZM11.6006 36.6645C9.27867 36.6645 7.38966 34.7755 7.38966 32.4537C7.38966 30.1317 9.27867 28.2427 11.6006 28.2427C13.9225 28.2427 15.8116 30.1317 15.8116 32.4537C15.8116 34.7756 13.9225 36.6645 11.6006 36.6645ZM30.2092 12.1084C30.2092 11.8805 30.2997 11.6619 30.4609 11.5007C30.622 11.3395 30.8406 11.249 31.0686 11.249H38.6344C38.8623 11.249 39.0809 11.3395 39.2421 11.5007C39.4032 11.6619 39.4938 11.8805 39.4938 12.1084C39.4938 12.3363 39.4032 12.5549 39.2421 12.716C39.0809 12.8772 38.8623 12.9678 38.6344 12.9678H31.0686C30.8406 12.9678 30.622 12.8772 30.4609 12.716C30.2997 12.5549 30.2092 12.3363 30.2092 12.1084ZM30.2092 7.97607C30.2092 7.74815 30.2997 7.52957 30.4609 7.3684C30.622 7.20724 30.8406 7.1167 31.0686 7.1167H38.6344C38.8623 7.1167 39.0809 7.20724 39.2421 7.3684C39.4032 7.52957 39.4938 7.74815 39.4938 7.97607C39.4938 8.20399 39.4032 8.42258 39.2421 8.58374C39.0809 8.74491 38.8623 8.83545 38.6344 8.83545H31.0686C30.8406 8.83545 30.622 8.74491 30.4609 8.58374C30.2997 8.42258 30.2092 8.20399 30.2092 7.97607ZM30.2092 16.2407C30.2092 16.0128 30.2997 15.7942 30.4609 15.633C30.622 15.4718 30.8406 15.3813 31.0686 15.3813H38.6344C38.8623 15.3813 39.0809 15.4718 39.2421 15.633C39.4032 15.7942 39.4938 16.0128 39.4938 16.2407C39.4938 16.4686 39.4032 16.6872 39.2421 16.8484C39.0809 17.0095 38.8623 17.1001 38.6344 17.1001H31.0686C30.8406 17.1001 30.622 17.0095 30.4609 16.8484C30.2997 16.6872 30.2092 16.4686 30.2092 16.2407Z" fill="#52006A"/>
</svg>