<svg width="56" height="56" viewBox="0 0 56 56" fill="none" xmlns="http://www.w3.org/2000/svg">
<path d="M26.6494 34.6659C28.8016 34.9452 33.1734 35.6089 35.4861 36.6387C38.0264 37.7697 39.6631 40.29 39.6631 43.0708V44.6002" stroke="#52006A" stroke-width="1.62114" stroke-miterlimit="10" stroke-linecap="round" stroke-linejoin="round"/>
<path d="M7.31689 54.5346V49.3219" stroke="#52006A" stroke-width="1.62114" stroke-miterlimit="10" stroke-linecap="round" stroke-linejoin="round"/>
<path d="M33.3501 54.5346V49.3218" stroke="#52006A" stroke-width="1.62114" stroke-miterlimit="10" stroke-linecap="round" stroke-linejoin="round"/>
<path d="M10.0005 15.1851V17.5603C10.0005 17.5603 12.6083 17.5293 13.4904 18.3991C13.6759 18.582 13.9891 18.453 13.9891 18.1926V14.1187C13.9891 12.7042 15.1359 11.5575 16.5504 11.5575H16.5812C17.0049 11.5575 17.424 11.6229 17.8247 11.7491C18.5869 11.9892 19.3762 12.1331 20.1754 12.1331H20.4918C21.291 12.1331 22.0803 11.9892 22.8425 11.7491C23.2448 11.6222 23.6642 11.5576 24.0861 11.5575H24.1168C25.5313 11.5575 26.6781 12.7042 26.6781 14.1187V17.8975C26.6781 17.9882 26.6959 18.078 26.7307 18.1619C26.7654 18.2457 26.8163 18.3218 26.8804 18.386C26.9445 18.4501 27.0207 18.501 27.1045 18.5357C27.1883 18.5704 27.2781 18.5883 27.3689 18.5883H27.3718C27.9572 18.5883 28.5262 18.4181 29.0311 18.1217C29.8212 17.658 30.6667 17.5603 30.6667 17.5603V12.5377C30.6667 8.76078 27.6049 5.69908 23.8279 5.69908H16.7751C15.4875 5.69908 14.3933 6.52439 13.9915 7.67479C13.8409 8.10598 13.4293 8.3911 12.9725 8.3911C11.3311 8.3911 10.0005 9.72171 10.0005 11.3632" stroke="#52006A" stroke-width="1.62114" stroke-miterlimit="10" stroke-linecap="round" stroke-linejoin="round"/>
<path d="M10.0012 17.5604C9.48046 17.8309 9.12402 18.3741 9.12402 19.0015V20.801C9.12402 21.6978 9.85111 22.4249 10.7481 22.4249H11.3621C11.4128 24.7817 12.4031 27.0501 14.1924 28.5907C15.6328 29.8309 17.6576 30.9135 20.3323 30.9434C23.0069 30.9135 25.0318 29.8309 26.4721 28.5907C28.2613 27.0501 29.2517 24.7817 29.3024 22.4249H29.9166C30.8133 22.4249 31.5404 21.6978 31.5404 20.801V19.0015C31.5404 18.3743 31.1843 17.8311 30.6638 17.5607" stroke="#52006A" stroke-width="1.62114" stroke-miterlimit="10" stroke-linecap="round" stroke-linejoin="round"/>
<path d="M12.8091 34.8322C11.5422 35.0175 11.081 36.6076 12.0525 37.4414L15.6839 40.5583C15.9379 40.7764 16.2578 40.9027 16.5923 40.9169C16.9267 40.9312 17.2562 40.8327 17.5279 40.6371L20.3326 38.6177" stroke="#52006A" stroke-width="1.62114" stroke-miterlimit="10" stroke-linecap="round" stroke-linejoin="round"/>
<path d="M20.3335 38.6177L23.1382 40.637C23.4098 40.8326 23.7393 40.9312 24.0738 40.9169C24.4082 40.9027 24.7281 40.7764 24.9821 40.5584L28.6136 37.4415C29.5851 36.6075 29.1238 35.0175 27.857 34.8322L26.6518 34.666" stroke="#52006A" stroke-width="1.62114" stroke-miterlimit="10" stroke-linecap="round" stroke-linejoin="round"/>
<path d="M15.2755 29.4073V33.2309C15.2755 33.9585 14.7353 34.5724 14.0137 34.666" stroke="#52006A" stroke-width="1.62114" stroke-miterlimit="10" stroke-linecap="round" stroke-linejoin="round"/>
<path d="M26.6499 34.666C25.9283 34.5724 25.3882 33.9585 25.3882 33.2309V29.4074" stroke="#52006A" stroke-width="1.62114" stroke-miterlimit="10" stroke-linecap="round" stroke-linejoin="round"/>
<path d="M39.6641 48.3751V51.1031C39.6641 52.9982 38.1277 54.5346 36.2325 54.5346H4.4314C2.53625 54.5346 1 52.9982 1 51.1031V43.0708C1 40.29 2.63664 37.7698 5.17691 36.6387C7.48968 35.609 11.8614 34.9452 14.0136 34.666L20.332 38.6177L26.6503 34.666" stroke="#52006A" stroke-width="1.62114" stroke-miterlimit="10" stroke-linecap="round" stroke-linejoin="round"/>
<path d="M21.8096 42.5007L23.1361 40.6372" stroke="#52006A" stroke-width="1.62114" stroke-miterlimit="10" stroke-linecap="round" stroke-linejoin="round"/>
<path d="M17.5283 40.6371L18.8548 42.5006" stroke="#52006A" stroke-width="1.62114" stroke-miterlimit="10" stroke-linecap="round" stroke-linejoin="round"/>
<path d="M23.4387 54.5345L21.8105 42.5005H18.8542L17.2261 54.5345" stroke="#52006A" stroke-width="1.62114" stroke-miterlimit="10" stroke-linecap="round" stroke-linejoin="round"/>
<path d="M28.7315 25.3475C28.8071 25.4549 28.8914 25.5558 28.9836 25.6492L29.8807 26.5463C30.8036 27.4692 32.3 27.4692 33.2229 26.5463C34.5541 25.2149 36.8305 26.1579 36.8305 28.0405C36.8305 29.3456 37.8886 30.4038 39.1937 30.4038H40.4625C41.7676 30.4038 42.8257 29.3457 42.8257 28.0406C42.8257 26.1579 45.1019 25.2149 46.4333 26.5463C47.3562 27.4692 48.8525 27.4692 49.7754 26.5463L50.6725 25.6492C51.5955 24.7263 51.5955 23.23 50.6725 22.3071C49.3432 20.9779 50.2811 18.7065 52.1581 18.6994C53.4631 18.6946 54.5301 17.6926 54.5301 16.3877V15.0162C54.5301 13.7113 53.4631 12.7093 52.1581 12.7043C50.2811 12.6972 49.3432 10.4259 50.6725 9.09673H50.6726C51.5955 8.17382 51.5955 6.67755 50.6726 5.75465L49.7391 4.82119C48.8163 3.89839 47.3533 3.94449 46.427 4.86374C45.0948 6.18594 42.8257 5.243 42.8257 3.36326C42.8257 2.05808 41.7676 0.99999 40.4625 0.99999H39.1937C37.8886 0.99999 36.8305 2.05808 36.8305 3.36326C36.8305 5.24602 34.5541 6.18885 33.2229 4.85749C32.3 3.93458 30.8036 3.93458 29.8807 4.85749L28.9836 5.75465C28.5381 6.20016 28.3097 6.77934 28.2944 7.36316M46.1697 16.1147C45.9699 19.2774 43.4036 21.8438 40.2408 22.0436C36.4058 22.2859 33.244 19.1242 33.4864 15.2891C33.6863 12.1264 36.2526 9.56012 39.4153 9.36031C43.2504 9.11795 46.4121 12.2796 46.1697 16.1147Z" stroke="#52006A" stroke-width="1.62114" stroke-miterlimit="10" stroke-linecap="round" stroke-linejoin="round"/>
</svg>