<svg width="51" height="50" viewBox="0 0 51 50" fill="none" xmlns="http://www.w3.org/2000/svg">
<path d="M23.0808 36.2903C23.0808 31.3992 19.101 27.4193 14.2098 27.4193C9.31871 27.4193 5.33887 31.3992 5.33887 36.2903C5.33887 41.1814 9.31871 45.1613 14.2098 45.1613C19.101 45.1613 23.0808 41.1814 23.0808 36.2903ZM14.2098 43.5484C10.2082 43.5484 6.95177 40.2927 6.95177 36.2903C6.95177 32.2879 10.2082 29.0322 14.2098 29.0322C18.2114 29.0322 21.4679 32.2879 21.4679 36.2903C21.4679 40.2927 18.2114 43.5484 14.2098 43.5484Z" fill="#52006A"/>
<path d="M14.2096 33.871C14.654 33.871 15.0161 34.2323 15.0161 34.6774H16.629C16.6274 34.1787 16.4715 33.6927 16.1827 33.2861C15.8939 32.8795 15.4864 32.5723 15.0161 32.4065V30.6452H13.4032V32.2581H11.7903V34.6774C11.7903 36.0113 12.8757 37.0968 14.2096 37.0968C14.654 37.0968 15.0161 37.4581 15.0161 37.9032V38.7097H14.2096C13.7653 38.7097 13.4032 38.3484 13.4032 37.9032H11.7903C11.7903 38.9532 12.4669 39.8403 13.4032 40.1742V41.9355H15.0161V40.3226H16.629V37.9032C16.629 36.5694 15.5435 35.4839 14.2096 35.4839C13.7653 35.4839 13.4032 35.1226 13.4032 34.6774V33.871H14.2096ZM8.56445 35.4839H10.1774V37.0968H8.56445V35.4839ZM18.2419 35.4839H19.8548V37.0968H18.2419V35.4839Z" fill="#52006A"/>
<path d="M48.8871 33.871C48.8871 28.8718 45.6185 24.6274 41.1081 23.1468C42.0097 22.5623 42.751 21.7616 43.2645 20.8177C43.778 19.8738 44.0475 18.8165 44.0484 17.7419C44.0484 14.1847 41.154 11.2903 37.5968 11.2903C34.0395 11.2903 31.1452 14.1847 31.1452 17.7419C31.146 18.8159 31.4152 19.8727 31.9281 20.8162C32.441 21.7598 33.1815 22.5604 34.0823 23.1452C32.3969 23.6939 30.8654 24.6338 29.6129 25.8879C27.7586 27.732 26.6077 30.1667 26.3597 32.7702L25.7073 32.5524C25.513 31.9499 25.2713 31.3637 24.9847 30.7992L26.0258 28.7177L25.5 28.1919V22.5806C25.5 17.5815 22.2315 13.3371 17.721 11.8565C18.6226 11.2719 19.3639 10.4713 19.8774 9.52739C20.3909 8.58347 20.6604 7.52617 20.6613 6.45161C20.6613 2.89436 17.7669 0 14.2097 0C10.6524 0 7.75806 2.89436 7.75806 6.45161C7.75896 7.52617 8.02841 8.58347 8.54192 9.52739C9.05543 10.4713 9.79671 11.2719 10.6984 11.8565C6.1879 13.3371 2.91935 17.5815 2.91935 22.5806V28.1919L2.39355 28.7177L3.43468 30.7992C3.14788 31.3636 2.90626 31.9498 2.7121 32.5524L0.5 33.2895V39.2903L2.7121 40.0274C2.90887 40.6363 3.15081 41.2226 3.43468 41.7806L2.39355 43.8629L6.6371 48.1065L8.71855 47.0661C9.27581 47.35 9.8629 47.5911 10.4718 47.7887L11.2089 50H48.8871V38.7097C49.7766 38.7097 50.5 37.9863 50.5 37.0968V35.4839C50.5 34.5944 49.7766 33.871 48.8871 33.871ZM47.2742 33.871H44.8548V30.6452H43.2419V33.871H38.9863L43.4008 26.1452C45.7476 27.9129 47.2742 30.7137 47.2742 33.871ZM37.5968 24.1935C38.246 24.1935 38.8798 24.2605 39.4935 24.3823L37.5968 26.279L35.6968 24.379C36.3161 24.2565 36.9516 24.1935 37.5968 24.1935ZM39.9048 29.0129L38.6774 27.479L41.2444 24.9121C41.5153 25.0226 41.779 25.1468 42.0371 25.2815L39.9048 29.0129ZM36.5161 27.479L35.2887 29.0129L33.1524 25.2742C33.4113 25.1403 33.6742 25.0153 33.9436 24.9056L36.5161 27.479ZM37.5968 28.7105L39.0435 30.5194L37.5968 33.0524L36.15 30.5194L37.5968 28.7105ZM32.7581 17.7419C32.7581 15.0734 34.9282 12.9032 37.5968 12.9032C40.2653 12.9032 42.4355 15.0734 42.4355 17.7419C42.4355 20.4105 40.2653 22.5806 37.5968 22.5806C34.9282 22.5806 32.7581 20.4105 32.7581 17.7419ZM30.7532 27.0282C31.0782 26.7032 31.429 26.4137 31.7903 26.1411L36.2073 33.871H31.9516V30.6452H30.3387V33.871H27.9194C27.9194 31.2863 28.9258 28.8556 30.7532 27.0282ZM23.8871 22.5806V26.579L21.7823 24.4734L21.4677 24.6315V19.3548H19.8548V25.4379L19.7008 25.5153C19.1362 25.2289 18.55 24.9873 17.9476 24.7927L17.2105 22.5806H15.5992L20.0137 14.8548C22.3605 16.6226 23.8871 19.4234 23.8871 22.5806ZM9.76935 13.9911C10.5497 13.5832 11.3826 13.2847 12.2444 13.104L11.5395 17.0895L9.76935 13.9911ZM13.9161 12.9177C14.0145 12.9153 14.1105 12.9032 14.2097 12.9032C14.3089 12.9032 14.4048 12.9153 14.5032 12.9177L15.6282 19.2782L14.2097 21.7621L12.7911 19.279L13.9161 12.9177ZM16.879 17.0895L16.1742 13.104C17.0492 13.2855 17.8774 13.5903 18.6492 13.9911L16.879 17.0895ZM9.37097 6.45161C9.37097 3.78306 11.5411 1.6129 14.2097 1.6129C16.8782 1.6129 19.0484 3.78306 19.0484 6.45161C19.0484 9.12016 16.8782 11.2903 14.2097 11.2903C11.5411 11.2903 9.37097 9.12016 9.37097 6.45161ZM4.53226 22.5806C4.53226 19.4234 6.05887 16.6226 8.40565 14.8548L12.8202 22.5806H11.2089L10.471 24.7927C9.8621 24.9895 9.27581 25.2315 8.71774 25.5153L8.56452 25.4379V19.3548H6.95161V24.6315L6.6371 24.4742L4.53226 26.579V22.5806ZM14.2097 48.3871H12.3718L11.7355 46.4798L11.3266 46.3621C10.5591 46.145 9.81927 45.8401 9.12177 45.4532L8.75 45.246L6.95484 46.1427L4.35565 43.5435L5.25242 41.7484L5.04516 41.3766C4.65908 40.679 4.35414 39.9395 4.13629 39.1726L4.01935 38.7629L2.1129 38.1282V34.4516L4.02016 33.8161L4.1371 33.4065C4.35968 32.6266 4.66613 31.8847 5.04597 31.2024L5.25323 30.8306L4.35645 29.0355L6.95565 26.4355L8.75 27.3331L9.12177 27.1258C9.81927 26.739 10.5591 26.434 11.3266 26.2169L11.7355 26.0992L12.3718 24.1935H16.0484L16.6847 26.1008L17.0935 26.2185C17.8742 26.4411 18.6161 26.7468 19.2984 27.1274L19.6702 27.3347L21.4645 26.4371L24.0637 29.0371L23.1669 30.8323L23.3742 31.204C23.754 31.8871 24.0605 32.629 24.2831 33.4081L24.4 33.8177L26.3065 34.4524V38.1282L24.3992 38.7637L24.2823 39.1734C24.0647 39.9404 23.7598 40.68 23.3734 41.3774L23.1661 41.7492L24.0629 43.5444L21.4637 46.1435L19.6685 45.2468L19.2968 45.454C18.6145 45.8347 17.8726 46.1403 17.0919 46.3629L16.6831 46.4806L16.0476 48.3871H14.2097ZM47.2742 48.3871H17.7484L17.9484 47.7879C18.551 47.5937 19.1372 47.3521 19.7016 47.0653L21.7831 48.1056L26.0266 43.8621L24.9855 41.7806C25.2694 41.2234 25.5113 40.6363 25.7081 40.0274L27.9194 39.2911V38.7097H47.2742V48.3871ZM48.8871 37.0968H27.9194V35.4839H48.8871V37.0968Z" fill="#52006A"/>
<path d="M44.0483 45.1613H45.6612V46.7742H44.0483V45.1613ZM40.8225 45.1613H42.4354V46.7742H40.8225V45.1613ZM37.5967 45.1613H39.2096V46.7742H37.5967V45.1613Z" fill="#52006A"/>
</svg>
