<svg width="52" height="52" viewBox="0 0 52 52" fill="none" xmlns="http://www.w3.org/2000/svg">
<path d="M8.05904 51H25.704L22.8968 45.1742C22.6061 44.5709 22.1511 44.062 21.5841 43.7058C21.0171 43.3496 20.3611 43.1607 19.6915 43.1607H5.6351C3.67011 43.1607 2.07715 44.7536 2.07715 46.7186V51H4.52111" stroke="#52006A" stroke-width="1.5" stroke-miterlimit="10" stroke-linecap="round" stroke-linejoin="round"/>
<path d="M9.64357 15.7039H15.5981C16.6255 15.7039 17.4585 16.5368 17.4585 17.5642V25.5833C17.4585 26.6108 16.6255 27.4437 15.5981 27.4437H9.64357C8.6161 27.4437 7.7832 26.6108 7.7832 25.5833V17.5642C7.7832 16.5368 8.6161 15.7039 9.64357 15.7039Z" stroke="#52006A" stroke-width="1.5" stroke-miterlimit="10" stroke-linecap="round" stroke-linejoin="round"/>
<path d="M14.774 27.4437H10.4678V21.4555C10.4678 21.2078 10.5661 20.9704 10.7412 20.7952C10.9164 20.6201 11.1538 20.5218 11.4015 20.5218H13.8403C13.9629 20.5218 14.0843 20.5459 14.1976 20.5928C14.3109 20.6397 14.4139 20.7085 14.5006 20.7952C14.5873 20.8819 14.656 20.9849 14.703 21.0981C14.7499 21.2114 14.774 21.3329 14.774 21.4555V27.4437Z" stroke="#52006A" stroke-width="1.5" stroke-miterlimit="10" stroke-linecap="round" stroke-linejoin="round"/>
<path d="M14.1678 15.7039H11.0752V10.2503H14.1678V15.7039Z" stroke="#52006A" stroke-width="1.5" stroke-miterlimit="10" stroke-linecap="round" stroke-linejoin="round"/>
<path d="M15.2194 7.83445V10.2502H10.0234V1.86444C10.0234 1.76239 10.0435 1.66135 10.0826 1.56707C10.1216 1.47279 10.1789 1.38713 10.251 1.31497C10.3232 1.24282 10.4089 1.18558 10.5031 1.14653C10.5974 1.10748 10.6985 1.08738 10.8005 1.08738H14.4423C14.5443 1.08736 14.6454 1.10745 14.7397 1.1465C14.8339 1.18554 14.9196 1.24278 14.9918 1.31494C15.0639 1.3871 15.1212 1.47276 15.1603 1.56705C15.1993 1.66133 15.2194 1.76239 15.2194 1.86444V4.26303" stroke="#52006A" stroke-width="1.5" stroke-miterlimit="10" stroke-linecap="round" stroke-linejoin="round"/>
<path d="M29.5477 16.2204L29.23 18.5924C29.0921 19.6221 29.3488 20.6659 29.9486 21.5141L33.2979 26.4124C33.7565 27.0831 33.4605 28.0064 32.6973 28.2852L30.3226 29.1532C30.1037 29.2332 29.9133 29.3762 29.7754 29.564C29.6375 29.7519 29.5582 29.9764 29.5474 30.2092L29.4782 31.712C29.3376 34.7719 26.8153 37.1805 23.7524 37.1805C22.9767 37.1797 22.2245 37.4466 21.6228 37.9361C21.0203 38.4247 20.6045 39.1059 20.4453 39.8651L19.6912 43.1607H5.63477L6.85267 38.8386C7.39842 36.6767 7.67446 34.4555 7.67451 32.2258" stroke="#52006A" stroke-width="1.5" stroke-miterlimit="10" stroke-linecap="round" stroke-linejoin="round"/>
<path d="M15.2188 2.36616H31.1508C35.0072 2.36616 38.1273 5.51696 38.0774 9.38486C38.0282 13.1917 34.8549 16.2204 31.0476 16.2204H16.8836" stroke="#52006A" stroke-width="1.5" stroke-miterlimit="10" stroke-linecap="round" stroke-linejoin="round"/>
<path d="M10.4773 27.4437V29.4234C10.4773 30.9711 9.22257 32.2258 7.67488 32.2258C7.43293 32.2258 7.17065 32.1873 6.89963 32.1218C2.72518 31.114 2.51291 23.9587 1.83393 20.5218C-1.05591 6.20709 4.02438 2.98919 10.023 2.45649" stroke="#52006A" stroke-width="1.5" stroke-miterlimit="10" stroke-linecap="round" stroke-linejoin="round"/>
<path d="M26.1559 32.1423C25.9705 32.3281 25.7503 32.4755 25.5077 32.576C25.2652 32.6764 25.0052 32.728 24.7427 32.7276C23.6389 32.7276 22.7441 31.8328 22.7441 30.7291" stroke="#52006A" stroke-width="1.5" stroke-miterlimit="10" stroke-linecap="round" stroke-linejoin="round"/>
<path d="M14.7744 27.4437L22.3665 37.2979C23.0149 38.1396 23.8479 38.8211 24.8012 39.2901C25.7546 39.7591 26.8029 40.003 27.8654 40.003H31.6694" stroke="#52006A" stroke-width="1.5" stroke-miterlimit="10" stroke-linecap="round" stroke-linejoin="round"/>
<path d="M35.6316 41.9326H33.5986C32.5328 41.9326 31.6689 41.0687 31.6689 40.0029C31.6689 38.9372 32.5328 38.0734 33.5986 38.0734H35.6316C36.6973 38.0734 37.5613 38.9372 37.5613 40.0029C37.5613 41.0687 36.6973 41.9326 35.6316 41.9326Z" stroke="#52006A" stroke-width="1.5" stroke-miterlimit="10" stroke-linecap="round" stroke-linejoin="round"/>
<path d="M38.0785 26.0269V23.5186C38.0785 22.4447 38.949 21.5741 40.0229 21.5741H49.0557C50.1297 21.5741 51.0002 22.4447 51.0002 23.5186V31.5115C51.0002 32.5853 50.1297 33.456 49.0557 33.456H34.7478C34.227 33.456 34.0013 32.7965 34.413 32.4774L38.0785 29.6362" stroke="#52006A" stroke-width="1.5" stroke-miterlimit="10" stroke-linecap="round" stroke-linejoin="round"/>
<path d="M42.0068 26.014H47.1755" stroke="#52006A" stroke-width="1.5" stroke-miterlimit="10" stroke-linecap="round" stroke-linejoin="round"/>
<path d="M42.0068 29.4119H47.1755" stroke="#52006A" stroke-width="1.5" stroke-miterlimit="10" stroke-linecap="round" stroke-linejoin="round"/>
</svg>
