<svg width="189" height="83" viewBox="0 0 189 83" fill="none" xmlns="http://www.w3.org/2000/svg">
<path d="M147.411 47.8719L148.705 50.416C147.489 51.2003 145.983 51.9081 144.129 51.9081C140.77 51.9081 138.762 50.1291 138.762 46.1694V39.7229H135.75V36.7387H138.762V31H142.044V36.7387H147.759V39.6464H142.044V46.0163C142.044 48.0058 143.125 48.7709 144.399 48.7709C145.403 48.8666 146.465 48.3692 147.411 47.8719ZM40.2212 31.0191H57.8867V34.2711H50.8012V51.4107H47.3067V34.3285H40.2212V31.0191ZM74.973 51.4873V31.0191H78.2551V51.4873H74.973Z" fill="#FF6F00"/>
<path d="M125.517 49.0766C122.448 49.0766 120.807 46.8003 120.807 44.1222C120.807 41.4441 122.448 39.1678 125.517 39.1678C128.298 39.1678 130.228 41.4441 130.228 44.1222C130.248 46.8194 128.317 49.0766 125.517 49.0766ZM129.958 37.8861L129.823 38.02L129.688 37.8861C128.684 36.8914 127.12 36.2601 125.46 36.2601C121.231 36.2601 117.66 39.4547 117.66 44.1222C117.66 48.7897 121.231 51.9843 125.46 51.9843C127.101 51.9843 128.684 51.353 129.688 50.3583L129.823 50.2244L129.958 50.3583L130.325 51.6399H133.259V36.6236H130.325L129.958 37.8861Z" fill="#FF6F00"/>
<path d="M88.9889 49.0766C85.9192 49.0766 84.2781 46.8003 84.2781 44.1222C84.2781 41.4441 85.9192 39.1678 88.9889 39.1678C91.769 39.1678 93.6997 41.4441 93.6997 44.1222C93.6997 46.8194 91.769 49.0766 88.9889 49.0766ZM93.4101 37.8861L93.275 38.02L93.1398 37.8861C92.1359 36.8914 90.572 36.2601 88.9117 36.2601C84.6835 36.2601 81.1118 39.4547 81.1118 44.1222C81.1118 48.7897 84.6063 51.9843 88.8344 51.9843C90.4755 51.9843 92.0586 51.353 93.0626 50.3583L93.1977 50.2244L93.3329 50.3583L93.6997 51.6399H96.6343V36.6236H93.6997L93.4101 37.8861Z" fill="#FF6F00"/>
<path d="M63.7367 49.0766C60.6669 49.0766 59.0259 46.8003 59.0259 44.1222C59.0259 41.4441 60.6669 39.1678 63.7367 39.1678C66.5168 39.1678 68.4475 41.4441 68.4475 44.1222C68.4668 46.8194 66.5361 49.0766 63.7367 49.0766ZM68.1772 37.8861L68.042 38.02L67.9069 37.8861C66.903 36.8914 65.3391 36.2601 63.6788 36.2601C59.4506 36.2601 55.8789 39.4547 55.8789 44.1222C55.8789 48.7897 59.3734 51.9843 63.6015 51.9843C65.2426 51.9843 66.8257 51.353 67.8297 50.3583L67.9648 50.2244L68.1 50.3583L68.4668 51.6399H71.4014V36.6236H68.4668L68.1772 37.8861Z" fill="#FF6F00"/>
<path d="M107.582 49.077C104.802 49.077 102.871 46.8007 102.871 44.1226C102.871 41.4445 104.802 39.1682 107.582 39.1682C110.651 39.1682 112.293 41.4445 112.293 44.1226C112.293 46.8198 110.651 49.077 107.582 49.077ZM107.717 36.2605C106.076 36.2605 104.493 36.8918 103.489 37.8865L103.354 38.0204L103.141 37.8865V31.0192H99.917V51.6403H102.852L103.218 50.3587L103.354 50.2248L103.489 50.3587C104.493 51.3534 106.056 51.9847 107.717 51.9847C111.945 51.9847 115.517 48.7901 115.517 44.1226C115.517 39.4551 111.945 36.2605 107.717 36.2605Z" fill="#FF6F00"/>
</svg>
