<svg xmlns="http://www.w3.org/2000/svg" width="54" height="54" viewBox="0 0 54 54" fill="none">
  <path d="M26.7795 6.97677C25.7889 6.97677 24.8206 7.27051 23.997 7.82084C23.1734 8.37117 22.5314 9.15337 22.1524 10.0685C21.7733 10.9837 21.6741 11.9907 21.8674 12.9623C22.0606 13.9338 22.5376 14.8262 23.238 15.5266C23.9385 16.2271 24.8309 16.7041 25.8024 16.8973C26.774 17.0906 27.781 16.9914 28.6961 16.6123C29.6113 16.2332 30.3935 15.5913 30.9438 14.7677C31.4942 13.9441 31.7879 12.9757 31.7879 11.9852C31.7864 10.6573 31.2582 9.38429 30.3193 8.44536C29.3804 7.50643 28.1074 6.97828 26.7795 6.97677ZM26.7795 15.4224C26.0997 15.4225 25.4351 15.221 24.8697 14.8434C24.3044 14.4658 23.8638 13.929 23.6035 13.3009C23.3433 12.6728 23.2752 11.9817 23.4077 11.3149C23.5403 10.6481 23.8676 10.0356 24.3483 9.55486C24.829 9.0741 25.4415 8.74668 26.1082 8.61402C26.775 8.48135 27.4661 8.54939 28.0942 8.80953C28.7224 9.06967 29.2592 9.51023 29.6369 10.0755C30.0146 10.6407 30.2162 11.3053 30.2162 11.9852C30.2152 12.8964 29.8528 13.77 29.2085 14.4143C28.5643 15.0587 27.6907 15.4212 26.7795 15.4224ZM34.5394 16.9176L33.5221 15.5753C33.7539 15.1412 33.9428 14.6855 34.0862 14.2148L35.754 13.9851C35.942 13.9592 36.1143 13.8661 36.239 13.7231C36.3637 13.58 36.4324 13.3966 36.4324 13.2069V13.0565H38.1476C38.2515 13.0576 38.3546 13.0382 38.451 12.9993C38.5473 12.9603 38.635 12.9027 38.7089 12.8296C38.7828 12.7565 38.8415 12.6695 38.8815 12.5736C38.9216 12.4777 38.9422 12.3748 38.9422 12.2709C38.9422 12.167 38.9216 12.0641 38.8815 11.9682C38.8415 11.8723 38.7828 11.7853 38.7089 11.7123C38.635 11.6392 38.5473 11.5815 38.451 11.5426C38.3546 11.5036 38.2515 11.4842 38.1476 11.4854H36.4324V10.7639C36.4324 10.5741 36.3637 10.3907 36.239 10.2477C36.1143 10.1046 35.942 10.0115 35.754 9.98566L34.0862 9.75596C33.9429 9.28514 33.754 8.82943 33.5221 8.39535L34.5394 7.05317C34.654 6.90192 34.71 6.71428 34.697 6.52495C34.684 6.33562 34.6029 6.15738 34.4688 6.02319L32.7415 4.29592C32.6073 4.16175 32.4291 4.08069 32.2397 4.06771C32.0504 4.05473 31.8628 4.11072 31.7115 4.22533L30.3693 5.24257C29.9352 5.01074 29.4795 4.82179 29.0087 4.67841L28.779 3.01067C28.7531 2.82267 28.6601 2.65039 28.517 2.5257C28.3739 2.401 28.1906 2.33231 28.0008 2.33234H25.5578C25.368 2.33231 25.1847 2.401 25.0416 2.5257C24.8986 2.65039 24.8055 2.82267 24.7796 3.01067L24.5499 4.67852C24.0791 4.82189 23.6235 5.0108 23.1894 5.24257L21.8471 4.22533C21.6958 4.11074 21.5082 4.05477 21.3189 4.06774C21.1296 4.08072 20.9513 4.16177 20.8171 4.29592L19.0903 6.02319C18.9561 6.15738 18.875 6.3356 18.862 6.52493C18.849 6.71426 18.905 6.9019 19.0196 7.05317L20.0368 8.39545C19.805 8.82955 19.6161 9.28521 19.4728 9.75596L17.8049 9.98566C17.6169 10.0116 17.4447 10.1046 17.32 10.2477C17.1953 10.3907 17.1266 10.574 17.1266 10.7638V11.1996H8.43747C8.22913 11.1996 8.02933 11.2824 7.88201 11.4297L2.38637 16.9254C2.3134 16.9984 2.25552 17.085 2.21603 17.1803C2.17655 17.2756 2.15623 17.3778 2.15625 17.4809V39.5391C2.15624 39.6422 2.17655 39.7444 2.21602 39.8397C2.2555 39.935 2.31336 40.0216 2.38631 40.0946C2.45926 40.1675 2.54587 40.2254 2.64119 40.2649C2.7365 40.3043 2.83866 40.3247 2.94183 40.3246H16.752C17.3303 41.6305 18.2429 42.7606 19.3977 43.6009C20.5525 44.4412 21.9086 44.962 23.329 45.1105C24.7495 45.2591 26.184 45.0303 27.4876 44.4471C28.7913 43.8639 29.9181 42.9471 30.7541 41.7892C31.5901 40.6313 32.1058 39.2732 32.2491 37.8523C32.3924 36.4313 32.1582 34.9977 31.5702 33.6962C30.9822 32.3946 30.0612 31.2713 28.9002 30.4396C27.7392 29.6079 26.3792 29.0973 24.9577 28.9592V21.3584C25.0313 21.4461 25.1232 21.5166 25.2269 21.565C25.3306 21.6134 25.4437 21.6385 25.5581 21.6385H28.0011C28.1909 21.6385 28.3742 21.5698 28.5173 21.4451C28.6603 21.3204 28.7534 21.1481 28.7793 20.9601L29.0089 19.2922C29.4797 19.1489 29.9354 18.96 30.3695 18.7282L31.7117 19.7454C31.863 19.8601 32.0506 19.9161 32.2399 19.9031C32.4293 19.8902 32.6075 19.8091 32.7417 19.6749L34.469 17.9477C34.6032 17.8134 34.6842 17.6352 34.6971 17.4458C34.7101 17.2565 34.654 17.0688 34.5394 16.9176ZM3.72741 38.7535V17.8064L8.76293 12.7707H17.127V13.2065C17.127 13.3963 17.1957 13.5797 17.3204 13.7227C17.4451 13.8658 17.6173 13.9589 17.8053 13.9848L19.4732 14.2145C19.6165 14.6853 19.8054 15.141 20.0372 15.5751L19.0196 16.9176C18.905 17.0689 18.849 17.2565 18.862 17.4458C18.875 17.6351 18.9561 17.8134 19.0903 17.9476L20.8174 19.6748C20.9516 19.809 21.1298 19.8901 21.3192 19.9031C21.5085 19.9161 21.6962 19.8601 21.8474 19.7454L23.1897 18.7281C23.2545 18.7627 23.3206 18.7943 23.3864 18.827V28.9596C22.2463 29.0699 21.1425 29.4203 20.1476 29.9878C19.1527 30.5553 18.2892 31.3271 17.614 32.2523C16.9387 33.1775 16.467 34.2351 16.2299 35.3557C15.9928 36.4763 15.9956 37.6344 16.2382 38.7538L3.72741 38.7535ZM30.7185 37.0383C30.7185 38.3331 30.3345 39.5989 29.6152 40.6754C28.8958 41.752 27.8734 42.5911 26.6771 43.0866C25.4809 43.5821 24.1646 43.7118 22.8947 43.4592C21.6247 43.2066 20.4582 42.5831 19.5427 41.6675C18.6271 40.7519 18.0036 39.5854 17.751 38.3155C17.4984 37.0456 17.628 35.7293 18.1235 34.533C18.619 33.3368 19.4581 32.3144 20.5347 31.595C21.6113 30.8756 22.877 30.4917 24.1719 30.4917C25.9075 30.4937 27.5715 31.184 28.7988 32.4113C30.0261 33.6386 30.7165 35.3027 30.7185 37.0383ZM32.6956 13.3338C32.5445 14.0003 32.2808 14.6363 31.916 15.2142C31.8308 15.3494 31.7889 15.5073 31.7958 15.6669C31.8027 15.8265 31.8581 15.9803 31.9546 16.1076L32.8738 17.3205L32.115 18.0792L30.902 17.16C30.7747 17.0635 30.621 17.0081 30.4614 17.0012C30.3018 16.9944 30.1438 17.0363 30.0087 17.1215C29.4307 17.4863 28.7948 17.7499 28.1283 17.901C27.9725 17.9363 27.8312 18.0183 27.7232 18.1361C27.6152 18.2538 27.5457 18.4017 27.5239 18.56L27.3169 20.0668H26.243L26.0354 18.5601C26.0136 18.4018 25.9441 18.254 25.8361 18.1363C25.7282 18.0186 25.5869 17.9366 25.4311 17.9013C24.7645 17.75 24.1285 17.4863 23.5504 17.1214C23.4153 17.0362 23.2574 16.9943 23.0978 17.0012C22.9382 17.0081 22.7844 17.0634 22.6571 17.1599L21.4442 18.0792L20.6855 17.3205L21.6047 16.1076C21.7012 15.9803 21.7565 15.8266 21.7634 15.667C21.7703 15.5074 21.7284 15.3495 21.6432 15.2143C21.2784 14.6363 21.0148 14.0004 20.8637 13.3338C20.8283 13.178 20.7463 13.0367 20.6286 12.9287C20.5109 12.8207 20.3631 12.7512 20.2048 12.7293L18.698 12.5217V11.4486L20.2051 11.2416C20.3634 11.2198 20.5112 11.1503 20.6289 11.0423C20.7467 10.9343 20.8287 10.793 20.864 10.6372C21.0152 9.9706 21.2788 9.33464 21.6436 8.75662C21.7287 8.62147 21.7707 8.46358 21.7638 8.30399C21.7569 8.1444 21.7015 7.99071 21.6051 7.86338L20.6855 6.64997L21.4443 5.8911L22.6573 6.81042C22.7847 6.90688 22.9384 6.96223 23.098 6.96911C23.2576 6.97599 23.4155 6.93407 23.5507 6.84893C24.1286 6.48407 24.7645 6.22036 25.431 6.06915C25.5868 6.03376 25.7281 5.95173 25.8361 5.834C25.9441 5.71627 26.0136 5.56842 26.0354 5.41017L26.2425 3.90319H27.3156L27.5227 5.40996C27.5445 5.56843 27.6142 5.71647 27.7224 5.83426C27.8306 5.95206 27.9723 6.03401 28.1283 6.06915C28.7949 6.22037 29.4309 6.48411 30.0089 6.84903C30.144 6.9342 30.302 6.97614 30.4616 6.96926C30.6212 6.96238 30.7749 6.90701 30.9022 6.81053L32.1152 5.8912L32.874 6.65008L31.9548 7.86286C31.8583 7.99017 31.8029 8.14387 31.796 8.30345C31.7891 8.46304 31.831 8.62095 31.9162 8.7561C32.281 9.33414 32.5447 9.97014 32.6958 10.6368C32.7312 10.7926 32.8132 10.9339 32.9309 11.0419C33.0486 11.1499 33.1965 11.2194 33.3547 11.2412L34.8617 11.4482V12.5213L33.3547 12.7289C33.1963 12.7507 33.0483 12.8202 32.9305 12.9283C32.8127 13.0364 32.7307 13.1778 32.6954 13.3338H32.6956ZM8.02838 18.836C8.02838 18.6277 8.11115 18.4279 8.25847 18.2805C8.4058 18.1332 8.60561 18.0505 8.81396 18.0505H13.5568C13.7652 18.0505 13.965 18.1332 14.1123 18.2805C14.2597 18.4279 14.3424 18.6277 14.3424 18.836C14.3424 19.0444 14.2597 19.2442 14.1123 19.3915C13.965 19.5389 13.7652 19.6216 13.5568 19.6216H8.81396C8.71079 19.6216 8.60863 19.6013 8.51332 19.5618C8.418 19.5224 8.33139 19.4645 8.25844 19.3916C8.18549 19.3186 8.12763 19.232 8.08815 19.1367C8.04868 19.0414 8.02837 18.9392 8.02838 18.836ZM8.02838 22.299C8.02844 22.0907 8.11123 21.891 8.25854 21.7437C8.40586 21.5964 8.60565 21.5137 8.81396 21.5137H18.2997C18.5081 21.5137 18.7079 21.5964 18.8552 21.7438C19.0025 21.8911 19.0853 22.0909 19.0853 22.2993C19.0853 22.5076 19.0025 22.7074 18.8552 22.8547C18.7079 23.0021 18.5081 23.0848 18.2997 23.0848H8.81396C8.71078 23.0849 8.6086 23.0645 8.51327 23.025C8.41794 22.9856 8.33132 22.9277 8.25837 22.8547C8.18542 22.7817 8.12755 22.6951 8.08809 22.5998C8.04863 22.5044 8.02834 22.4022 8.02838 22.299ZM8.02838 25.7622C8.02837 25.659 8.04868 25.5568 8.08815 25.4615C8.12763 25.3662 8.18549 25.2796 8.25844 25.2066C8.33139 25.1337 8.418 25.0758 8.51332 25.0364C8.60863 24.9969 8.71079 24.9766 8.81396 24.9766H18.2997C18.5081 24.9766 18.7079 25.0594 18.8552 25.2067C19.0025 25.354 19.0853 25.5538 19.0853 25.7622C19.0853 25.9705 19.0025 26.1703 18.8552 26.3177C18.7079 26.465 18.5081 26.5477 18.2997 26.5477H8.81396C8.60561 26.5477 8.4058 26.465 8.25847 26.3177C8.11115 26.1703 8.02838 25.9705 8.02838 25.7622ZM8.02838 29.2252C8.02838 29.0168 8.11115 28.817 8.25847 28.6697C8.4058 28.5224 8.60561 28.4396 8.81396 28.4396H18.2997C18.5081 28.4396 18.7079 28.5224 18.8552 28.6697C19.0025 28.817 19.0853 29.0168 19.0853 29.2252C19.0853 29.4335 19.0025 29.6333 18.8552 29.7807C18.7079 29.928 18.5081 30.0108 18.2997 30.0108H8.81396C8.60568 30.0108 8.40591 29.9281 8.25859 29.7808C8.11127 29.6336 8.02846 29.4339 8.02838 29.2256V29.2252ZM23.1892 38.3832L27.5453 34.0271C27.618 33.953 27.7047 33.8941 27.8003 33.8537C27.8959 33.8133 27.9985 33.7923 28.1023 33.7918C28.2061 33.7913 28.3089 33.8114 28.4049 33.8509C28.5009 33.8904 28.5881 33.9485 28.6615 34.0219C28.7348 34.0952 28.793 34.1824 28.8324 34.2784C28.8719 34.3744 28.892 34.4772 28.8915 34.581C28.8911 34.6848 28.87 34.7874 28.8296 34.883C28.7892 34.9786 28.7303 35.0653 28.6562 35.138L23.7445 40.0497C23.6716 40.1227 23.585 40.1805 23.4897 40.22C23.3944 40.2595 23.2922 40.2798 23.1891 40.2798C23.0859 40.2798 22.9838 40.2595 22.8885 40.22C22.7931 40.1805 22.7065 40.1227 22.6336 40.0497L19.6874 37.1031C19.5401 36.9558 19.4573 36.756 19.4573 36.5476C19.4573 36.3393 19.5401 36.1395 19.6874 35.9921C19.8347 35.8448 20.0345 35.762 20.2429 35.762C20.4512 35.762 20.651 35.8448 20.7984 35.9921L23.1892 38.3832ZM51.0582 28.6598H43.5533V26.923C43.5533 26.7146 43.4705 26.5148 43.3232 26.3675C43.1759 26.2202 42.9761 26.1374 42.7677 26.1374C42.5594 26.1374 42.3595 26.2202 42.2122 26.3675C42.0649 26.5148 41.9821 26.7146 41.9821 26.923V28.6598H34.4772C34.2689 28.6598 34.0691 28.7425 33.9218 28.8899C33.7744 29.0372 33.6917 29.237 33.6917 29.4454V34.8775C33.6917 35.0859 33.7744 35.2857 33.9218 35.433C34.0691 35.5804 34.2689 35.6631 34.4772 35.6631H51.0582C51.2665 35.6631 51.4663 35.5804 51.6137 35.433C51.761 35.2857 51.8438 35.0859 51.8438 34.8775V29.4454C51.8438 29.3422 51.8235 29.24 51.784 29.1447C51.7445 29.0494 51.6866 28.9628 51.6137 28.8898C51.5407 28.8169 51.4541 28.759 51.3588 28.7195C51.2635 28.6801 51.1613 28.6598 51.0582 28.6598ZM50.2726 34.0915H35.2628V30.2304H50.2726V34.0915ZM37.5031 32.1612C37.5031 31.9528 37.5859 31.753 37.7332 31.6057C37.8805 31.4584 38.0803 31.3756 38.2887 31.3756H47.2464C47.4548 31.3756 47.6546 31.4584 47.8019 31.6057C47.9492 31.753 48.032 31.9528 48.032 32.1612C48.032 32.3695 47.9492 32.5694 47.8019 32.7167C47.6546 32.864 47.4548 32.9468 47.2464 32.9468H38.2887C38.1855 32.9468 38.0834 32.9265 37.988 32.887C37.8927 32.8475 37.8061 32.7897 37.7332 32.7167C37.6602 32.6438 37.6024 32.5572 37.5629 32.4618C37.5234 32.3665 37.5031 32.2644 37.5031 32.1612ZM43.5532 18.5879C43.5532 18.7963 43.4704 18.9961 43.3231 19.1434C43.1758 19.2907 42.976 19.3735 42.7676 19.3735C42.5593 19.3735 42.3594 19.2907 42.2121 19.1434C42.0648 18.9961 41.982 18.7963 41.982 18.5879V16.4385C41.982 16.2302 42.0648 16.0303 42.2121 15.883C42.3594 15.7357 42.5593 15.6529 42.7676 15.6529C42.976 15.6529 43.1758 15.7357 43.3231 15.883C43.4704 16.0303 43.5532 16.2302 43.5532 16.4385V18.5879ZM40.9072 12.271C40.9072 12.0626 40.99 11.8629 41.1373 11.7156C41.2847 11.5683 41.4845 11.4855 41.6928 11.4855H42.7676C42.9759 11.4855 43.1757 11.5683 43.3231 11.7156C43.4704 11.8629 43.5532 12.0626 43.5532 12.271V13.3457C43.5532 13.554 43.4704 13.7538 43.3231 13.9012C43.1758 14.0485 42.976 14.1313 42.7676 14.1313C42.5593 14.1313 42.3594 14.0485 42.2121 13.9012C42.0648 13.7538 41.982 13.554 41.982 13.3457V13.0565H41.6928C41.4845 13.0565 41.2847 12.9737 41.1373 12.8264C40.99 12.6791 40.9072 12.4793 40.9072 12.271ZM14.3424 32.6882C14.3424 32.8965 14.2597 33.0964 14.1123 33.2437C13.965 33.391 13.7652 33.4738 13.5568 33.4738H8.81396C8.60561 33.4738 8.4058 33.391 8.25847 33.2437C8.11115 33.0964 8.02838 32.8965 8.02838 32.6882C8.02838 32.4798 8.11115 32.28 8.25847 32.1327C8.4058 31.9854 8.60561 31.9026 8.81396 31.9026H13.5568C13.7652 31.9026 13.965 31.9854 14.1123 32.1327C14.2597 32.28 14.3424 32.4798 14.3424 32.6882ZM51.0582 36.6623H34.4768C34.2685 36.6623 34.0687 36.745 33.9213 36.8923C33.774 37.0397 33.6913 37.2395 33.6913 37.4478V42.8793C33.6913 43.0877 33.774 43.2875 33.9213 43.4348C34.0687 43.5821 34.2685 43.6649 34.4768 43.6649H51.0582C51.1613 43.6649 51.2635 43.6446 51.3588 43.6051C51.4541 43.5656 51.5407 43.5078 51.6137 43.4348C51.6866 43.3619 51.7445 43.2753 51.784 43.1799C51.8235 43.0846 51.8438 42.9825 51.8438 42.8793V37.4478C51.8438 37.2395 51.761 37.0397 51.6137 36.8923C51.4663 36.745 51.2665 36.6623 51.0582 36.6623ZM50.2726 42.094H35.2628V38.2329H50.2726V42.094ZM37.5031 40.1638C37.5031 40.0606 37.5234 39.9585 37.5629 39.8631C37.6024 39.7678 37.6602 39.6812 37.7332 39.6083C37.8061 39.5353 37.8927 39.4774 37.988 39.438C38.0834 39.3985 38.1855 39.3782 38.2887 39.3782H47.2464C47.4548 39.3782 47.6546 39.461 47.8019 39.6083C47.9492 39.7556 48.032 39.9554 48.032 40.1638C48.032 40.3721 47.9492 40.5719 47.8019 40.7193C47.6546 40.8666 47.4548 40.9494 47.2464 40.9494H38.2887C38.0803 40.9494 37.8805 40.8666 37.7332 40.7193C37.5859 40.5719 37.5031 40.3721 37.5031 40.1638ZM51.0582 44.6647H34.4768C34.2685 44.6647 34.0687 44.7475 33.9213 44.8948C33.774 45.0422 33.6913 45.242 33.6913 45.4503V50.8821C33.6913 51.0904 33.774 51.2903 33.9213 51.4376C34.0687 51.5849 34.2685 51.6677 34.4768 51.6677H51.0582C51.1613 51.6677 51.2635 51.6474 51.3588 51.6079C51.4541 51.5684 51.5407 51.5106 51.6137 51.4376C51.6866 51.3647 51.7445 51.2781 51.784 51.1827C51.8235 51.0874 51.8438 50.9853 51.8438 50.8821V45.4503C51.8438 45.242 51.761 45.0422 51.6137 44.8948C51.4663 44.7475 51.2665 44.6647 51.0582 44.6647ZM50.2726 50.0966H35.2628V46.2355H50.2726V50.0966ZM37.5031 48.1663C37.5031 48.0631 37.5234 47.9609 37.5629 47.8656C37.6024 47.7703 37.6602 47.6837 37.7332 47.6107C37.8061 47.5378 37.8927 47.4799 37.988 47.4404C38.0834 47.401 38.1855 47.3807 38.2887 47.3807H47.2464C47.4548 47.3807 47.6546 47.4634 47.8019 47.6108C47.9492 47.7581 48.032 47.9579 48.032 48.1663C48.032 48.3746 47.9492 48.5744 47.8019 48.7217C47.6546 48.8691 47.4548 48.9518 47.2464 48.9518H38.2887C38.0803 48.9518 37.8805 48.8691 37.7332 48.7217C37.5859 48.5744 37.5031 48.3746 37.5031 48.1663ZM43.5532 21.6807V23.8301C43.5532 24.0385 43.4704 24.2383 43.3231 24.3856C43.1758 24.533 42.976 24.6157 42.7676 24.6157C42.5593 24.6157 42.3594 24.533 42.2121 24.3856C42.0648 24.2383 41.982 24.0385 41.982 23.8301V21.6807C41.982 21.4724 42.0648 21.2726 42.2121 21.1253C42.3594 20.9779 42.5593 20.8952 42.7676 20.8952C42.976 20.8952 43.1758 20.9779 43.3231 21.1253C43.4704 21.2726 43.5532 21.4724 43.5532 21.6807ZM21.9656 48.1663C21.9656 48.3746 21.8829 48.5744 21.7355 48.7217C21.5882 48.8691 21.3884 48.9518 21.18 48.9518H19.0306C18.8223 48.9518 18.6225 48.8691 18.4752 48.7217C18.3278 48.5744 18.2451 48.3746 18.2451 48.1663C18.2451 47.9579 18.3278 47.7581 18.4752 47.6108C18.6225 47.4634 18.8223 47.3807 19.0306 47.3807H21.18C21.2832 47.3807 21.3854 47.401 21.4807 47.4404C21.576 47.4799 21.6626 47.5378 21.7356 47.6107C21.8085 47.6837 21.8664 47.7703 21.9058 47.8656C21.9453 47.9609 21.9656 48.0631 21.9656 48.1663ZM16.7234 48.1663C16.7234 48.3746 16.6406 48.5744 16.4933 48.7217C16.346 48.869 16.1462 48.9518 15.9379 48.9518H14.8632C14.6549 48.9518 14.455 48.8691 14.3077 48.7217C14.1604 48.5744 14.0776 48.3746 14.0776 48.1663V47.0916C14.0776 46.8832 14.1604 46.6834 14.3077 46.5361C14.455 46.3887 14.6549 46.306 14.8632 46.306C15.0716 46.306 15.2714 46.3887 15.4187 46.5361C15.566 46.6834 15.6488 46.8832 15.6488 47.0916V47.3807H15.9379C16.0411 47.3807 16.1432 47.401 16.2385 47.4405C16.3338 47.48 16.4204 47.5378 16.4934 47.6108C16.5663 47.6837 16.6242 47.7703 16.6636 47.8656C16.7031 47.9609 16.7234 48.0631 16.7234 48.1663ZM14.0776 43.5464V41.397C14.0776 41.1886 14.1604 40.9888 14.3077 40.8415C14.455 40.6941 14.6549 40.6114 14.8632 40.6114C15.0716 40.6114 15.2714 40.6941 15.4187 40.8415C15.566 40.9888 15.6488 41.1886 15.6488 41.397V43.5464C15.6488 43.7547 15.566 43.9545 15.4187 44.1018C15.2714 44.2492 15.0716 44.3319 14.8632 44.3319C14.6549 44.3319 14.455 44.2492 14.3077 44.1018C14.1604 43.9545 14.0776 43.7547 14.0776 43.5464ZM27.2079 48.1663C27.2079 48.3746 27.1251 48.5744 26.9778 48.7217C26.8304 48.8691 26.6306 48.9518 26.4223 48.9518H24.2729C24.0645 48.9518 23.8647 48.8691 23.7174 48.7217C23.5701 48.5744 23.4873 48.3746 23.4873 48.1663C23.4873 47.9579 23.5701 47.7581 23.7174 47.6108C23.8647 47.4634 24.0645 47.3807 24.2729 47.3807H26.4223C26.6306 47.3807 26.8304 47.4634 26.9778 47.6108C27.1251 47.7581 27.2079 47.9579 27.2079 48.1663ZM32.4501 48.1663C32.4501 48.3746 32.3673 48.5744 32.22 48.7217C32.0727 48.8691 31.8729 48.9518 31.6645 48.9518H29.5154C29.3071 48.9518 29.1073 48.8691 28.9599 48.7217C28.8126 48.5744 28.7298 48.3746 28.7298 48.1663C28.7298 47.9579 28.8126 47.7581 28.9599 47.6108C29.1073 47.4634 29.3071 47.3807 29.5154 47.3807H31.6648C31.8731 47.3808 32.0729 47.4636 32.2201 47.6109C32.3674 47.7582 32.4501 47.958 32.4501 48.1663Z" fill="#52006A"/>
</svg>