<svg width="50" height="50" viewBox="0 0 50 50" fill="none" xmlns="http://www.w3.org/2000/svg">
<path d="M48.4375 44.5315H46.8555C46.4648 33.8838 38.1492 25.2299 27.6437 24.3057C27.9564 23.8123 28.1232 23.2406 28.125 22.6565C28.125 22.4493 28.0427 22.2505 27.8962 22.104C27.7497 21.9575 27.551 21.8752 27.3438 21.8752C27.1365 21.8752 26.9378 21.9575 26.7913 22.104C26.6448 22.2505 26.5625 22.4493 26.5625 22.6565C26.5625 23.5182 25.8617 24.219 25 24.219C24.1383 24.219 23.4375 23.5182 23.4375 22.6565C23.4375 21.7947 24.1383 21.094 25 21.094C25.2072 21.094 25.4059 21.0117 25.5524 20.8651C25.6989 20.7186 25.7812 20.5199 25.7812 20.3127C25.7812 20.1055 25.6989 19.9068 25.5524 19.7603C25.4059 19.6138 25.2072 19.5315 25 19.5315C23.2766 19.5315 21.875 20.933 21.875 22.6565C21.875 23.2635 22.0562 23.826 22.357 24.3057C11.8516 25.2299 3.53516 33.8838 3.14453 44.5315H1.5625C0.700781 44.5315 0 45.2322 0 46.094C0 48.2479 1.75234 50.0002 3.90625 50.0002H46.0938C48.2477 50.0002 50 48.2479 50 46.094C50 45.2322 49.2992 44.5315 48.4375 44.5315ZM46.0938 48.4377H3.90625C2.61406 48.4377 1.5625 47.3862 1.5625 46.094H6.21719C6.42439 46.094 6.6231 46.0117 6.76961 45.8651C6.91613 45.7186 6.99844 45.5199 6.99844 45.3127C6.99844 45.1055 6.91613 44.9068 6.76961 44.7603C6.6231 44.6138 6.42439 44.5315 6.21719 44.5315H4.70703C5.11953 34.1229 13.7109 25.7815 24.2188 25.7815H25.7812C36.2891 25.7815 44.8805 34.1229 45.293 44.5315H9.43984C9.23264 44.5315 9.03393 44.6138 8.88742 44.7603C8.7409 44.9068 8.65859 45.1055 8.65859 45.3127C8.65859 45.5199 8.7409 45.7186 8.88742 45.8651C9.03393 46.0117 9.23264 46.094 9.43984 46.094H48.4375C48.4375 47.3862 47.3859 48.4377 46.0938 48.4377Z" fill="#52006A"/>
<path d="M14.8442 31.694C14.9958 31.6939 15.144 31.6497 15.2708 31.5666C17.9308 29.8278 21.0405 28.9033 24.2184 28.9065C24.4256 28.9065 24.6244 28.8242 24.7709 28.6776C24.9174 28.5311 24.9997 28.3324 24.9997 28.1252C24.9997 27.918 24.9174 27.7193 24.7709 27.5728C24.6244 27.4263 24.4256 27.344 24.2184 27.344C20.7369 27.3402 17.33 28.3533 14.4161 30.2588C14.2758 30.3512 14.1689 30.4864 14.1114 30.6443C14.0539 30.8022 14.0488 30.9745 14.0968 31.1355C14.1449 31.2965 14.2435 31.4378 14.3781 31.5384C14.5127 31.639 14.6762 31.6935 14.8442 31.694ZM10.3591 35.9377C10.4818 35.9378 10.6029 35.9091 10.7124 35.8537C10.8219 35.7983 10.9169 35.7179 10.9895 35.619C11.5977 34.7916 12.2817 34.0226 13.0325 33.3221C13.1841 33.1808 13.2733 32.985 13.2806 32.778C13.2878 32.5709 13.2125 32.3694 13.0712 32.2178C12.9299 32.0662 12.7341 31.977 12.527 31.9698C12.3199 31.9625 12.1185 32.0378 11.9669 32.1791C11.145 32.9463 10.3964 33.7885 9.73095 34.6947C9.64574 34.811 9.59438 34.9486 9.58254 35.0923C9.57071 35.236 9.59886 35.3802 9.66388 35.5088C9.7289 35.6375 9.82826 35.7457 9.95096 35.8214C10.0737 35.8971 10.2149 35.9373 10.3591 35.9377ZM12.5419 5.46975C12.0372 5.46975 11.5942 5.79162 11.438 6.27131L10.6833 8.59397H8.2411C7.99576 8.59358 7.75661 8.67097 7.55802 8.81504C7.35943 8.9591 7.21162 9.16241 7.13584 9.39575C7.06005 9.6291 7.06019 9.88046 7.13624 10.1137C7.21228 10.347 7.36032 10.5501 7.55907 10.694L9.53485 12.1283L8.78017 14.4526C8.7042 14.6858 8.7042 14.937 8.78015 15.1702C8.8561 15.4034 9.0041 15.6065 9.20282 15.7502C9.4009 15.8947 9.63979 15.9725 9.88498 15.9724C10.1302 15.9723 10.369 15.8942 10.5669 15.7494L12.5427 14.3135L14.5184 15.7494C14.7164 15.8941 14.9552 15.9721 15.2003 15.9722C15.4455 15.9724 15.6844 15.8946 15.8825 15.7502C16.2903 15.4533 16.4606 14.9322 16.3052 14.4526L15.5505 12.1283L16.7075 11.2877L20.0364 13.6822L18.3794 18.7815C18.1716 19.4221 18.3888 20.0916 18.9333 20.4877C19.2059 20.6854 19.5177 20.7846 19.8294 20.7846C20.1419 20.7846 20.4536 20.6854 20.7263 20.4869L25.0208 17.3354L29.3583 20.4869C29.6174 20.6799 29.9319 20.7843 30.255 20.7844C30.5782 20.7845 30.8927 20.6805 31.152 20.4877C31.4154 20.3008 31.6116 20.0339 31.7113 19.7267C31.8111 19.4195 31.8092 19.0883 31.7059 18.7822L30.0356 13.7229L33.3833 11.2908L34.5349 12.1276L33.7802 14.4518C33.7042 14.685 33.7042 14.9362 33.7802 15.1694C33.8561 15.4026 34.0041 15.6057 34.2028 15.7494C34.4009 15.894 34.6398 15.9718 34.885 15.9716C35.1302 15.9715 35.369 15.8934 35.5669 15.7487L37.5427 14.3127L39.5184 15.7487C39.7164 15.8933 39.9552 15.9713 40.2004 15.9714C40.4455 15.9716 40.6844 15.8938 40.8825 15.7494C41.2903 15.4526 41.4606 14.9315 41.3052 14.4518L40.5505 12.1276L42.5263 10.6924C42.7254 10.5488 42.8738 10.3457 42.9501 10.1124C43.0263 9.87904 43.0265 9.6275 42.9505 9.39405C42.8745 9.16061 42.7264 8.95732 42.5274 8.81352C42.3284 8.66972 42.0889 8.59284 41.8434 8.59397H39.4013L38.6466 6.27053C38.5709 6.03746 38.4233 5.83439 38.2249 5.69051C38.0266 5.54662 37.7877 5.46933 37.5427 5.46975C37.038 5.46975 36.5942 5.79162 36.438 6.27131L35.5934 8.87131C35.5344 9.067 35.5544 9.27804 35.6492 9.45915C35.7439 9.64027 35.9059 9.77703 36.1003 9.8401C36.2948 9.90317 36.5062 9.88753 36.6892 9.79653C36.8722 9.70553 37.0123 9.54643 37.0794 9.35334L37.5419 7.9299L38.0044 9.3549C38.0803 9.58805 38.228 9.79117 38.4265 9.93517C38.6249 10.0792 38.8639 10.1566 39.1091 10.1565H40.6067L39.3942 11.0369C39.1958 11.1807 39.0482 11.3838 38.9725 11.6168C38.8969 11.8499 38.8971 12.1009 38.9731 12.3338L39.4364 13.7588L38.2224 12.8768C38.0241 12.7334 37.7855 12.6564 37.5409 12.6567C37.2962 12.6569 37.0578 12.7345 36.8599 12.8783L35.6481 13.7588L36.1114 12.3338C36.1873 12.1008 36.1873 11.8497 36.1115 11.6167C36.0357 11.3837 35.888 11.1807 35.6895 11.0369L34.6591 10.2885C34.9802 9.89475 35.0927 9.37443 34.927 8.86662C34.8308 8.5584 34.6378 8.28941 34.3766 8.09956C34.1154 7.90972 33.7999 7.80913 33.477 7.81271L28.1505 7.8385L26.4934 2.73928C26.397 2.43098 26.2038 2.16194 25.9425 1.97198C25.6812 1.78203 25.3657 1.68126 25.0427 1.68459C24.3692 1.68459 23.7997 2.09787 23.5919 2.73928L21.97 7.81271H16.6075C15.9349 7.81271 15.3653 8.226 15.1575 8.86662C15.0779 9.1069 15.0607 9.36347 15.1076 9.61221C15.1545 9.86095 15.2639 10.0937 15.4255 10.2885L14.395 11.0369C14.1966 11.1807 14.049 11.3838 13.9733 11.6168C13.8976 11.8499 13.8978 12.1009 13.9739 12.3338L14.4372 13.7588L13.2231 12.8768C13.0248 12.7334 12.7863 12.6564 12.5416 12.6567C12.2969 12.6569 12.0586 12.7345 11.8606 12.8783L10.6489 13.7588L11.1122 12.3338C11.188 12.1007 11.188 11.8495 11.1122 11.6164C11.0364 11.3833 10.8887 11.1801 10.6903 11.0362L9.47782 10.1565H10.9755C11.4794 10.1565 11.9224 9.83459 12.0802 9.35412L12.5427 7.93068L13.0052 9.35412C13.0764 9.54179 13.2171 9.69486 13.3981 9.78165C13.5792 9.86844 13.7866 9.8823 13.9776 9.82036C14.1685 9.75842 14.3283 9.62542 14.4239 9.4489C14.5195 9.27238 14.5436 9.06586 14.4911 8.87209L13.6466 6.27131C13.571 6.03797 13.4233 5.83464 13.2248 5.6906C13.0263 5.54655 12.7872 5.46922 12.5419 5.46975ZM21.97 9.37522C22.6333 9.37522 23.2161 8.95178 23.4208 8.32053L25.0059 3.21818L25.0067 3.22131L26.6638 8.32053C26.7626 8.62738 26.9564 8.89489 27.2172 9.08446C27.4779 9.27403 27.7922 9.37584 28.1145 9.37522L33.4544 9.30881L29.1169 12.4596C28.8555 12.6483 28.6608 12.9152 28.5611 13.2218C28.4614 13.5284 28.4618 13.8587 28.5622 14.1651L30.2763 19.2244L25.9372 16.0721C25.677 15.8822 25.3631 15.78 25.041 15.7801C24.7188 15.7803 24.4051 15.8828 24.145 16.0729L19.8645 19.2658L21.5216 14.1658C21.6216 13.8597 21.6219 13.5296 21.5224 13.2232C21.4228 12.9169 21.2286 12.65 20.9677 12.4612L17.3489 9.90022C17.3419 9.89006 17.3411 9.87756 17.3341 9.86818C17.2272 9.72653 17.0745 9.62631 16.902 9.58459L16.6075 9.37522H21.97Z" fill="#52006A"/>
<path d="M18.8805 3.68302C18.9116 3.78167 18.9619 3.87317 19.0286 3.95223C19.0952 4.03128 19.1769 4.09631 19.2689 4.14354C19.3609 4.19078 19.4614 4.21928 19.5645 4.22739C19.6676 4.2355 19.7713 4.22305 19.8695 4.19079C19.9678 4.15852 20.0587 4.10706 20.1369 4.03941C20.2151 3.97175 20.2791 3.88924 20.3252 3.79666C20.3713 3.70407 20.3985 3.60326 20.4053 3.50007C20.4121 3.39688 20.3984 3.29336 20.3649 3.19552L19.4923 0.537708C19.4603 0.440243 19.4095 0.350026 19.3426 0.27221C19.2758 0.194393 19.1943 0.130501 19.1028 0.0841804C19.0113 0.03786 18.9115 0.0100186 18.8093 0.00224587C18.707 -0.00552682 18.6042 0.0069214 18.5067 0.0388798C18.4092 0.0708382 18.319 0.121681 18.2412 0.188505C18.1634 0.255329 18.0995 0.336826 18.0532 0.428343C18.0069 0.519859 17.979 0.619603 17.9712 0.721879C17.9635 0.824156 17.9759 0.926961 18.0079 1.02443L18.8805 3.68302ZM15.286 2.48146C15.2014 2.42339 15.1062 2.38255 15.0058 2.36127C14.9055 2.33999 14.8019 2.3387 14.701 2.35745C14.4973 2.39532 14.317 2.51257 14.1997 2.68341C14.0824 2.85425 14.0378 3.06467 14.0757 3.2684C14.1135 3.47213 14.2308 3.65246 14.4016 3.76974L16.7813 5.40255C16.8658 5.46108 16.961 5.50229 17.0615 5.5238C17.162 5.54531 17.2658 5.5467 17.3668 5.52789C17.4679 5.50907 17.5642 5.47043 17.6502 5.41419C17.7362 5.35794 17.8103 5.28522 17.868 5.20021C17.9852 5.02936 18.0296 4.81898 17.9917 4.61534C17.9538 4.4117 17.8365 4.23147 17.6657 4.11427L15.286 2.48146Z" fill="#52006A"/>
</svg>
