<svg xmlns="http://www.w3.org/2000/svg" width="58" height="58" viewBox="0 0 58 58" fill="none">
  <path d="M11.7813 43.5C11.2435 43.5 10.7179 43.3405 10.2708 43.0418C9.8237 42.7431 9.47523 42.3185 9.26945 41.8217C9.06368 41.3249 9.00984 40.7782 9.11474 40.2508C9.21964 39.7235 9.47858 39.239 9.8588 38.8588C10.239 38.4786 10.7235 38.2196 11.2508 38.1147C11.7782 38.0098 12.3249 38.0637 12.8217 38.2695C13.3185 38.4752 13.7431 38.8237 14.0418 39.2708C14.3405 39.7179 14.5 40.2435 14.5 40.7812C14.4993 41.5021 14.2126 42.1932 13.7029 42.7029C13.1932 43.2126 12.5021 43.4993 11.7813 43.5ZM11.7813 39.875C11.602 39.875 11.4268 39.9282 11.2778 40.0277C11.1287 40.1273 11.0126 40.2688 10.944 40.4344C10.8754 40.6 10.8574 40.7823 10.8924 40.9581C10.9274 41.1338 11.0137 41.2953 11.1404 41.4221C11.2672 41.5488 11.4287 41.6351 11.6045 41.6701C11.7802 41.7051 11.9625 41.6871 12.1281 41.6185C12.2937 41.5499 12.4352 41.4338 12.5348 41.2847C12.6344 41.1357 12.6875 40.9605 12.6875 40.7812C12.6873 40.541 12.5917 40.3106 12.4218 40.1407C12.2519 39.9708 12.0215 39.8752 11.7813 39.875ZM46.2188 43.5C45.681 43.5 45.1554 43.3405 44.7083 43.0418C44.2612 42.7431 43.9127 42.3185 43.707 41.8217C43.5012 41.3249 43.4473 40.7782 43.5522 40.2508C43.6571 39.7235 43.9161 39.239 44.2963 38.8588C44.6765 38.4786 45.161 38.2196 45.6884 38.1147C46.2157 38.0098 46.7624 38.0637 47.2592 38.2695C47.756 38.4752 48.1806 38.8237 48.4793 39.2708C48.778 39.7179 48.9375 40.2435 48.9375 40.7812C48.9368 41.5021 48.6501 42.1932 48.1404 42.7029C47.6307 43.2126 46.9396 43.4993 46.2188 43.5ZM46.2188 39.875C46.0395 39.875 45.8643 39.9282 45.7153 40.0277C45.5662 40.1273 45.4501 40.2688 45.3815 40.4344C45.3129 40.6 45.2949 40.7823 45.3299 40.9581C45.3649 41.1338 45.4512 41.2953 45.5779 41.4221C45.7047 41.5488 45.8662 41.6351 46.042 41.6701C46.2177 41.7051 46.4 41.6871 46.5656 41.6185C46.7312 41.5499 46.8727 41.4338 46.9723 41.2847C47.0718 41.1357 47.125 40.9605 47.125 40.7812C47.1248 40.541 47.0292 40.3106 46.8593 40.1407C46.6894 39.9708 46.459 39.8752 46.2188 39.875ZM26.2813 29C26.1622 29.0001 26.0444 28.9767 25.9344 28.9312C25.8244 28.8856 25.7246 28.8187 25.6405 28.7345L23.828 26.922C23.6581 26.7521 23.5626 26.5216 23.5625 26.2812V20.8438C23.5625 20.6034 23.658 20.3729 23.8279 20.2029C23.9979 20.033 24.2284 19.9375 24.4688 19.9375C24.7091 19.9375 24.9396 20.033 25.1096 20.2029C25.2795 20.3729 25.375 20.6034 25.375 20.8438V25.9061L26.922 27.453C27.0487 27.5798 27.135 27.7412 27.1699 27.917C27.2049 28.0928 27.1869 28.275 27.1183 28.4405C27.0498 28.6061 26.9336 28.7476 26.7846 28.8472C26.6356 28.9468 26.4605 29 26.2813 29Z" fill="#52006A"/>
  <path d="M24.4687 16.3125H6.34375C6.1034 16.3125 5.87289 16.408 5.70293 16.5779C5.53298 16.7479 5.4375 16.9784 5.4375 17.2188C5.4375 17.4591 5.53298 17.6896 5.70293 17.8596C5.87289 18.0295 6.1034 18.125 6.34375 18.125H18.7548C18.029 18.6405 17.3748 19.25 16.8091 19.9375H12.6875C12.4471 19.9375 12.2166 20.033 12.0467 20.2029C11.8767 20.3729 11.7812 20.6034 11.7812 20.8437C11.7812 21.0841 11.8767 21.3146 12.0467 21.4846C12.2166 21.6545 12.4471 21.75 12.6875 21.75H15.6029C15.3067 22.3293 15.0684 22.9364 14.8915 23.5625H8.15625C7.9159 23.5625 7.68539 23.658 7.51543 23.8279C7.34548 23.9979 7.25 24.2284 7.25 24.4687C7.25 24.7091 7.34548 24.9396 7.51543 25.1096C7.68539 25.2795 7.9159 25.375 8.15625 25.375H14.5562C14.529 25.6741 14.5 25.974 14.5 26.2812C14.5 26.5876 14.5181 26.8884 14.5453 27.1875H9.96875C9.7284 27.1875 9.49789 27.283 9.32793 27.4529C9.15798 27.6229 9.0625 27.8534 9.0625 28.0937C9.0625 28.3341 9.15798 28.5646 9.32793 28.7346C9.49789 28.9045 9.7284 29 9.96875 29H14.8861C15.0639 29.6262 15.3031 30.2333 15.6002 30.8125H11.7812C11.5409 30.8125 11.3104 30.908 11.1404 31.0779C10.9705 31.2479 10.875 31.4784 10.875 31.7187C10.875 31.9591 10.9705 32.1896 11.1404 32.3596C11.3104 32.5295 11.5409 32.625 11.7812 32.625H16.7847C17.8538 33.92 19.2328 34.9238 20.7937 35.5434C22.3546 36.1629 24.0467 36.378 25.7129 36.1686C27.3791 35.9593 28.9654 35.3324 30.3246 34.3461C31.6837 33.3597 32.7716 32.046 33.4872 30.5268C34.2029 29.0076 34.523 27.3322 34.418 25.6561C34.313 23.9801 33.7862 22.3578 32.8865 20.9398C31.9869 19.5218 30.7435 18.3541 29.2719 17.5452C27.8002 16.7362 26.1481 16.3122 24.4687 16.3125ZM24.4687 34.4375C22.8556 34.4375 21.2787 33.9591 19.9374 33.0629C18.5961 32.1667 17.5507 30.8929 16.9334 29.4025C16.316 27.9121 16.1545 26.2722 16.4692 24.69C16.7839 23.1079 17.5607 21.6546 18.7014 20.5139C19.8421 19.3732 21.2954 18.5964 22.8775 18.2817C24.4597 17.967 26.0996 18.1285 27.59 18.7459C29.0804 19.3632 30.3542 20.4086 31.2504 21.7499C32.1466 23.0912 32.625 24.6681 32.625 26.2812C32.6226 28.4437 31.7625 30.5169 30.2334 32.0459C28.7044 33.575 26.6312 34.4351 24.4687 34.4375Z" fill="#52006A"/>
  <path d="M29.9062 27.1875C30.4068 27.1875 30.8125 26.7818 30.8125 26.2812C30.8125 25.7807 30.4068 25.375 29.9062 25.375C29.4057 25.375 29 25.7807 29 26.2812C29 26.7818 29.4057 27.1875 29.9062 27.1875Z" fill="#52006A"/>
  <path d="M19.0312 27.1875C19.5318 27.1875 19.9375 26.7818 19.9375 26.2812C19.9375 25.7807 19.5318 25.375 19.0312 25.375C18.5307 25.375 18.125 25.7807 18.125 26.2812C18.125 26.7818 18.5307 27.1875 19.0312 27.1875Z" fill="#52006A"/>
  <path d="M9.0625 21.75C9.56301 21.75 9.96875 21.3443 9.96875 20.8438C9.96875 20.3432 9.56301 19.9375 9.0625 19.9375C8.56199 19.9375 8.15625 20.3432 8.15625 20.8438C8.15625 21.3443 8.56199 21.75 9.0625 21.75Z" fill="#52006A"/>
  <path d="M8.15625 32.625C8.65676 32.625 9.0625 32.2193 9.0625 31.7188C9.0625 31.2182 8.65676 30.8125 8.15625 30.8125C7.65574 30.8125 7.25 31.2182 7.25 31.7188C7.25 32.2193 7.65574 32.625 8.15625 32.625Z" fill="#52006A"/>
  <path d="M24.4688 32.625C24.9693 32.625 25.375 32.2193 25.375 31.7188C25.375 31.2182 24.9693 30.8125 24.4688 30.8125C23.9682 30.8125 23.5625 31.2182 23.5625 31.7188C23.5625 32.2193 23.9682 32.625 24.4688 32.625Z" fill="#52006A"/>
  <path d="M56.1177 27.7448L51.5865 16.8698C51.5176 16.7048 51.4014 16.5638 51.2526 16.4646C51.1037 16.3654 50.9289 16.3125 50.75 16.3125H38.0625V11.7812C38.0625 11.5409 37.967 11.3104 37.7971 11.1404C37.6271 10.9705 37.3966 10.875 37.1562 10.875H2.71875C2.4784 10.875 2.24789 10.9705 2.07793 11.1404C1.90798 11.3104 1.8125 11.5409 1.8125 11.7812V40.7812C1.8125 41.0216 1.90798 41.2521 2.07793 41.4221C2.24789 41.592 2.4784 41.6875 2.71875 41.6875H5.51C5.7253 43.1974 6.4781 44.5789 7.63014 45.5783C8.78218 46.5777 10.2561 47.1279 11.7812 47.1279C13.3064 47.1279 14.7803 46.5777 15.9324 45.5783C17.0844 44.5789 17.8372 43.1974 18.0525 41.6875H39.9475C40.1628 43.1974 40.9156 44.5789 42.0676 45.5783C43.2197 46.5777 44.6936 47.1279 46.2188 47.1279C47.7439 47.1279 49.2178 46.5777 50.3699 45.5783C51.5219 44.5789 52.2747 43.1974 52.49 41.6875H55.2812C55.5216 41.6875 55.7521 41.592 55.9221 41.4221C56.092 41.2521 56.1875 41.0216 56.1875 40.7812V28.0937C56.1875 27.974 56.1638 27.8554 56.1177 27.7448ZM11.7812 45.3125C10.8851 45.3125 10.009 45.0467 9.26382 44.5488C8.51866 44.0509 7.93788 43.3433 7.59492 42.5153C7.25196 41.6873 7.16223 40.7762 7.33707 39.8972C7.51191 39.0183 7.94347 38.2109 8.57717 37.5772C9.21088 36.9435 10.0183 36.5119 10.8972 36.3371C11.7762 36.1622 12.6873 36.252 13.5153 36.5949C14.3433 36.9379 15.0509 37.5187 15.5488 38.2638C16.0467 39.009 16.3125 39.885 16.3125 40.7812C16.3111 41.9826 15.8332 43.1343 14.9837 43.9837C14.1343 44.8332 12.9826 45.3111 11.7812 45.3125ZM36.25 39.875H18.0525C17.8372 38.3651 17.0844 36.9836 15.9324 35.9842C14.7803 34.9848 13.3064 34.4346 11.7812 34.4346C10.2561 34.4346 8.78218 34.9848 7.63014 35.9842C6.4781 36.9836 5.7253 38.3651 5.51 39.875H3.625V12.6875H36.25V39.875ZM53.9219 27.1875H41.6875V21.75H51.6562L53.9219 27.1875ZM46.2188 45.3125C45.3226 45.3125 44.4465 45.0467 43.7013 44.5488C42.9562 44.0509 42.3754 43.3433 42.0324 42.5153C41.6895 41.6873 41.5997 40.7762 41.7746 39.8972C41.9494 39.0183 42.381 38.2109 43.0147 37.5772C43.6484 36.9435 44.4558 36.5119 45.3347 36.3371C46.2137 36.1622 47.1248 36.252 47.9528 36.5949C48.7808 36.9379 49.4884 37.5187 49.9863 38.2638C50.4842 39.009 50.75 39.885 50.75 40.7812C50.7486 41.9826 50.2707 43.1343 49.4212 43.9837C48.5718 44.8332 47.4201 45.3111 46.2188 45.3125ZM52.49 39.875C52.2747 38.3651 51.5219 36.9836 50.3699 35.9842C49.2178 34.9848 47.7439 34.4346 46.2188 34.4346C44.6936 34.4346 43.2197 34.9848 42.0676 35.9842C40.9156 36.9836 40.1628 38.3651 39.9475 39.875H38.0625V18.125H50.1455L50.9004 19.9375H40.7812C40.5409 19.9375 40.3104 20.033 40.1404 20.2029C39.9705 20.3729 39.875 20.6034 39.875 20.8437V28.0937C39.875 28.3341 39.9705 28.5646 40.1404 28.7346C40.3104 28.9045 40.5409 29 40.7812 29H54.375V39.875H52.49Z" fill="#52006A"/>
</svg>