<svg width="57" height="43" viewBox="0 0 57 43" fill="none" xmlns="http://www.w3.org/2000/svg">
<path d="M23.7246 24.006C24.4053 24.4512 24.7677 24.5005 25.5426 24.4953C27.5284 24.4821 28.2501 21.7291 26.2979 21.039C25.4256 20.7307 24.7785 20.4533 24.3483 20.116C23.5992 19.5284 23.8729 18.0202 24.9753 17.6882C26.1759 17.3265 26.9547 18.0449 26.9547 18.0449L27.0558 18.1403M25.5426 24.6983V25.5003M25.5426 16.657V17.4772" stroke="#52006A" stroke-width="1.6298" stroke-miterlimit="10" stroke-linecap="round" stroke-linejoin="round"/>
<path d="M25.5847 28.1161C29.4716 28.1161 32.6225 24.9653 32.6225 21.0785C32.6225 17.1917 29.4716 14.0409 25.5847 14.0409C21.6978 14.0409 18.5469 17.1917 18.5469 21.0785C18.5469 24.9653 21.6978 28.1161 25.5847 28.1161Z" stroke="#52006A" stroke-width="1.6298" stroke-miterlimit="10" stroke-linecap="round" stroke-linejoin="round"/>
<path d="M37.4043 30.141V34.6277H40.1637" stroke="#52006A" stroke-width="1.6298" stroke-miterlimit="10" stroke-linecap="round" stroke-linejoin="round"/>
<path d="M29.7948 34.6278H2.56645C1.97754 34.6278 1.5 34.1504 1.5 33.5615V8.59576C1.5 8.00676 1.97743 7.52945 2.56645 7.52945H48.603C49.1919 7.52945 49.6694 8.00687 49.6694 8.59576V33.5614C49.6694 34.1504 49.192 34.6277 48.603 34.6277H44.7513" stroke="#52006A" stroke-width="1.6298" stroke-miterlimit="10" stroke-linecap="round" stroke-linejoin="round"/>
<path d="M42.2515 29.3146C42.6902 27.9961 43.9339 27.0452 45.3999 27.0452C45.5413 27.0452 45.6769 26.989 45.7769 26.889C45.8769 26.789 45.9331 26.6534 45.9331 26.512V15.6452C45.9331 15.5038 45.8769 15.3682 45.7769 15.2682C45.6769 15.1682 45.5413 15.112 45.3999 15.112C43.5679 15.112 42.0827 13.6269 42.0827 11.7949C42.0827 11.6535 42.0265 11.5179 41.9265 11.4179C41.8265 11.3179 41.6909 11.2617 41.5495 11.2617H9.61211C9.4707 11.2617 9.33509 11.3179 9.2351 11.4179C9.13511 11.5179 9.07894 11.6535 9.07894 11.7949C9.07894 13.6269 7.59373 15.112 5.76169 15.112C5.62028 15.112 5.48467 15.1682 5.38468 15.2682C5.28469 15.3682 5.22852 15.5038 5.22852 15.6452V26.512C5.22852 26.6534 5.28469 26.789 5.38468 26.889C5.48467 26.989 5.62028 27.0452 5.76169 27.0452C7.59373 27.0452 9.07894 28.5303 9.07894 30.3623C9.07894 30.5037 9.13511 30.6393 9.2351 30.7393C9.33509 30.8393 9.4707 30.8955 9.61211 30.8955H31.2075M52.5816 22.8167V30.2967C52.5816 30.8857 52.1042 31.363 51.5152 31.363H49.8025" stroke="#52006A" stroke-width="1.6298" stroke-miterlimit="10" stroke-linecap="round" stroke-linejoin="round"/>
<path d="M4.41797 7.23845V5.33107C4.41797 4.74206 4.8954 4.26465 5.48442 4.26465H51.5209C52.1098 4.26465 52.5874 4.74206 52.5874 5.33096V19.2652" stroke="#52006A" stroke-width="1.6298" stroke-miterlimit="10" stroke-linecap="round" stroke-linejoin="round"/>
<path d="M17.6216 1H54.4329C55.0218 1 55.4994 1.47742 55.4994 2.06631V27.0319C55.4994 27.6209 55.0219 28.0983 54.4329 28.0983H52.7413M7.33008 3.86613V2.06642C7.33008 1.47742 7.80751 1.00011 8.39653 1.00011H14.0701M31.4847 38.6197C30.7141 37.4805 30.264 36.1067 30.264 34.6278C30.264 30.688 33.4579 27.4941 37.3977 27.4941C41.3377 27.4941 44.5316 30.6879 44.5316 34.6278C44.5316 38.5676 41.3377 41.7613 37.3977 41.7613C36.2373 41.7613 35.1416 41.4842 34.1732 40.9927" stroke="#52006A" stroke-width="1.6298" stroke-miterlimit="10" stroke-linecap="round" stroke-linejoin="round"/>
</svg>
