<svg width="71" height="59" viewBox="0 0 71 59" fill="none" xmlns="http://www.w3.org/2000/svg">
<g clip-path="url(#clip0_1850_13192)">
<path d="M50.9175 27.3454H69.1334C69.7009 27.3454 70.1548 26.892 70.1548 26.3252V26.0702C70.1548 25.5034 69.7009 25.05 69.1334 25.05H50.9175C50.35 25.05 49.896 25.5034 49.896 26.0702V26.3252C49.896 26.892 50.35 27.3454 50.9175 27.3454Z" fill="#003462" stroke="#003462" stroke-width="1.05504" stroke-miterlimit="10"/>
<path d="M60.1389 58.0063C53.6413 58.0063 49.896 54.5491 49.896 48.5416V32.5878C49.896 31.9077 50.2649 31.5676 50.9742 31.5676H51.7403C52.3929 31.5676 52.7618 31.936 52.7618 32.5878V48.5416C52.7618 52.9339 55.3721 55.3709 60.1389 55.3709C64.8773 55.3709 67.4877 52.9339 67.4877 48.5416V32.5878C67.4877 31.936 67.8566 31.5676 68.5092 31.5676H69.3036C69.9562 31.5676 70.3251 31.936 70.3251 32.5878V48.5416C70.3535 54.5775 66.6365 58.0063 60.1389 58.0063ZM12.6129 57.7512H11.8468C11.1375 57.7512 10.7686 57.4112 10.7686 56.7311V47.1248L0.9797 33.1545C0.781084 32.8145 0.781084 32.5028 0.922953 32.2477C1.00807 32.1344 1.23506 31.851 1.74579 31.851H2.73887C3.30635 31.851 3.76033 31.9077 4.10081 32.5311L12.2441 44.2911L20.4157 32.4744C20.7846 31.8793 21.2102 31.8227 21.7776 31.8227H22.6856C23.1963 31.8227 23.4233 32.106 23.5084 32.2194C23.6787 32.4744 23.6503 32.8145 23.4801 33.1262L23.4517 33.1545L13.6344 47.1531V56.7311C13.6344 57.3828 13.2655 57.7512 12.6129 57.7512ZM43.2849 33.8063C41.469 32.1627 38.887 31.3409 35.5956 31.3409C28.9562 31.3409 25.1257 34.6847 25.1257 40.5222V49.0234C25.1257 54.8608 28.9278 58.2046 35.5956 58.2046C38.887 58.2046 41.469 57.3828 43.2849 55.7393C45.0441 54.1524 45.9804 51.8288 45.9804 49.0234V40.5222C45.9804 37.7452 45.0441 35.4215 43.2849 33.8063ZM43.1147 49.0517C43.1147 53.274 40.4476 55.5976 35.5956 55.5976C30.687 55.5976 27.9915 53.274 27.9915 49.0517V40.5505C27.9915 36.3283 30.687 34.0046 35.5956 34.0046C40.4476 34.0046 43.1147 36.3283 43.1147 40.5505V49.0517Z" fill="url(#paint0_linear_1850_13192)"/>
<path d="M43.2852 2.32374C41.4692 0.680178 38.8872 -0.141602 35.5959 -0.141602C28.9281 -0.141602 25.126 3.23053 25.126 9.068V17.5692C25.126 23.4066 28.9281 26.7504 35.5959 26.7504C38.8872 26.7504 41.4692 25.9286 43.2852 24.2851C45.0443 22.6982 45.9807 20.3745 45.9807 17.5692V9.068C45.9807 6.23427 45.0443 3.91062 43.2852 2.32374ZM43.1149 17.5692C43.1149 21.7914 40.4478 24.1151 35.5959 24.1151C30.6872 24.1151 27.9917 21.7914 27.9917 17.5692V9.068C27.9917 4.84575 30.6872 2.5221 35.5959 2.5221C40.4478 2.5221 43.1149 4.84575 43.1149 9.068V17.5692Z" fill="#003462"/>
<path d="M12.6414 26.5522H11.8753C11.166 26.5522 10.7971 26.2121 10.7971 25.5321V3.28734H3.44832C2.76735 3.28734 2.37012 2.94729 2.37012 2.29554V1.67212C2.37012 0.992024 2.73898 0.651978 3.44832 0.651978H20.9833C21.6926 0.651978 22.0615 0.992024 22.0615 1.67212V2.29554C22.0615 2.91895 21.6926 3.28734 20.9833 3.28734H13.6629V25.5321C13.6629 26.2121 13.294 26.5522 12.6414 26.5522Z" fill="#003462"/>
</g>
<defs>
<linearGradient id="paint0_linear_1850_13192" x1="0.833126" y1="44.8021" x2="70.3488" y2="44.8021" gradientUnits="userSpaceOnUse">
<stop stop-color="#7BC580"/>
<stop offset="1" stop-color="#00B0DF"/>
</linearGradient>
<clipPath id="clip0_1850_13192">
<rect width="69.5156" height="58.1196" fill="white" transform="translate(0.837891)"/>
</clipPath>
</defs>
</svg>
