<svg xmlns="http://www.w3.org/2000/svg" width="50" height="47" viewBox="0 0 50 47" fill="none">
  <path d="M45.8447 0H4.15527C1.86426 0 0 1.86426 0 4.15527V42.7002C0 44.9912 1.86426 46.8555 4.15527 46.8555H45.8447C48.1357 46.8555 50 44.9912 50 42.7002V4.15527C50 1.86426 48.1357 0 45.8447 0ZM4.15527 1.56152H45.8447C47.2754 1.56152 48.4385 2.72559 48.4385 4.15527V8.21387H1.56152V4.15527C1.56152 2.72559 2.72559 1.56152 4.15527 1.56152ZM45.8447 45.2939H4.15527C2.72461 45.2939 1.56152 44.1299 1.56152 42.7002V9.77539H48.4385V42.7002C48.4385 44.1299 47.2744 45.2939 45.8447 45.2939ZM7.10059 6.93164C8.22754 6.93164 9.14355 6.01563 9.14355 4.88867C9.14355 3.76074 8.22754 2.84277 7.10059 2.84277C5.97266 2.84277 5.05469 3.76074 5.05469 4.88867C5.05469 6.01563 5.97266 6.93164 7.10059 6.93164ZM7.10059 4.4043C7.36621 4.4043 7.58203 4.62207 7.58203 4.88867C7.58203 5.1543 7.36621 5.37012 7.10059 5.37012C6.83301 5.37012 6.61621 5.1543 6.61621 4.88867C6.61621 4.62207 6.83398 4.4043 7.10059 4.4043ZM11.9951 6.93164C13.123 6.93164 14.041 6.01563 14.041 4.88867C14.041 3.76074 13.123 2.84277 11.9951 2.84277C10.8682 2.84277 9.95215 3.76074 9.95215 4.88867C9.95215 6.01563 10.8682 6.93164 11.9951 6.93164ZM11.9951 4.4043C12.2627 4.4043 12.4795 4.62207 12.4795 4.88867C12.4795 5.1543 12.2617 5.37012 11.9951 5.37012C11.7295 5.37012 11.5137 5.1543 11.5137 4.88867C11.5137 4.62207 11.7295 4.4043 11.9951 4.4043ZM16.8916 6.93164C18.0195 6.93164 18.9375 6.01563 18.9375 4.88867C18.9375 3.76074 18.0195 2.84277 16.8916 2.84277C15.7646 2.84277 14.8486 3.76074 14.8486 4.88867C14.8486 6.01563 15.7656 6.93164 16.8916 6.93164ZM16.8916 4.4043C17.1592 4.4043 17.376 4.62207 17.376 4.88867C17.376 5.1543 17.1582 5.37012 16.8916 5.37012C16.626 5.37012 16.4102 5.1543 16.4102 4.88867C16.4102 4.62207 16.626 4.4043 16.8916 4.4043ZM21.5342 4.88867C21.5342 4.45703 21.8838 4.1084 22.3145 4.1084H44.1641C44.5957 4.1084 44.9443 4.45801 44.9443 4.88867C44.9443 5.31934 44.5947 5.66895 44.1641 5.66895H22.3145C21.8838 5.66992 21.5342 5.32031 21.5342 4.88867ZM37.333 29.0576C37.3066 29.0312 37.2783 29.0078 37.249 28.9863C34.0967 25.874 29.7686 23.9492 24.999 23.9492C20.2285 23.9492 15.9004 25.875 12.749 28.9893C12.7217 29.0107 12.6943 29.0332 12.6689 29.0586C12.6436 29.084 12.6211 29.1113 12.5996 29.1387C9.48535 32.29 7.55957 36.6191 7.55957 41.3887C7.55957 41.8203 7.90918 42.1689 8.33984 42.1689H14.3223C14.7539 42.1689 15.1025 41.8193 15.1025 41.3887C15.1025 35.9316 19.542 31.4922 24.999 31.4922C25.6602 31.4922 26.3154 31.5586 26.96 31.6875L24.0518 36.0195C22.7783 36.4229 21.8516 37.6152 21.8516 39.0205C21.8516 40.7559 23.2637 42.168 24.999 42.168C26.7344 42.168 28.1465 40.7559 28.1465 39.0205C28.1465 38.6787 28.0908 38.3486 27.9893 38.04L29.9326 32.8096C32.9717 34.5635 34.8955 37.8428 34.8955 41.3867C34.8955 41.8184 35.2451 42.167 35.6758 42.167H41.6611C42.0918 42.167 42.4414 41.8174 42.4414 41.3867C42.4414 36.6182 40.5166 32.291 37.4043 29.1396C37.3828 29.1113 37.3604 29.084 37.333 29.0576ZM27.8926 30.3008C27.2012 30.1211 26.4951 30.0059 25.7812 29.958V25.5283C27.418 25.6084 28.9912 25.9375 30.4619 26.4775L27.8926 30.3008ZM17.4727 32.7568L14.3428 29.627C16.9824 27.2334 20.4277 25.7129 24.2188 25.5283V29.957C21.6465 30.1309 19.3047 31.1582 17.4727 32.7568ZM13.5684 40.6074H9.14062C9.3252 36.8164 10.8457 33.3711 13.2393 30.7314L16.3691 33.8613C14.7705 35.6924 13.7422 38.0342 13.5684 40.6074ZM25 40.6074C24.125 40.6074 23.4141 39.8955 23.4141 39.0215C23.4141 38.2588 23.9551 37.6211 24.6738 37.4697C24.6807 37.4688 24.6885 37.4668 24.6953 37.4658C24.7939 37.4463 24.8965 37.4355 25.001 37.4355C25.876 37.4355 26.5869 38.1475 26.5869 39.0215C26.5869 39.8955 25.875 40.6074 25 40.6074ZM26.8936 36.5088C26.605 36.2905 26.2809 36.1236 25.9355 36.0156L28.4922 32.207L26.8936 36.5088ZM32.0361 27.1543C33.352 27.808 34.5712 28.6404 35.6592 29.6279L32.5283 32.7588C31.9062 32.2139 31.2227 31.7334 30.4844 31.3291L32.0361 27.1543ZM36.4307 40.6074C36.2568 38.0898 35.249 35.7266 33.6299 33.8643L36.7627 30.7314C39.1572 33.3711 40.6777 36.8164 40.8623 40.6074H36.4307ZM16.7119 20.2412V13.6807C16.7119 13.249 17.0615 12.9004 17.4922 12.9004C17.9229 12.9004 18.2725 13.25 18.2725 13.6807V15.3125L21.0029 13.0762C21.3369 12.8027 21.8281 12.8516 22.1016 13.1855C22.375 13.5195 22.3262 14.0107 21.9922 14.2842L18.7236 16.9609L21.9922 19.6377C22.0716 19.7026 22.1374 19.7825 22.1859 19.8729C22.2343 19.9633 22.2645 20.0623 22.2747 20.1643C22.2848 20.2664 22.2748 20.3694 22.2451 20.4676C22.2154 20.5657 22.1666 20.657 22.1016 20.7363C22.0283 20.8259 21.9361 20.898 21.8316 20.9475C21.727 20.997 21.6127 21.0226 21.4971 21.0225C21.3232 21.0225 21.1484 20.9648 21.0029 20.8457L18.2725 18.6094V20.2412C18.2725 20.6719 17.9229 21.0215 17.4922 21.0215C17.0615 21.0215 16.7119 20.6728 16.7119 20.2412ZM25.0859 21.0225C25.5176 21.0225 25.8662 20.6729 25.8662 20.2422V18.2295H27.5049C28.9746 18.2295 30.1709 17.0352 30.1709 15.5664C30.1709 14.0967 28.9746 12.9004 27.5049 12.9004H25.0859C24.6543 12.9004 24.3057 13.25 24.3057 13.6807V20.2412C24.3057 20.6728 24.6543 21.0225 25.0859 21.0225ZM25.8662 14.4619H27.5049C28.1143 14.4619 28.6094 14.957 28.6094 15.5664C28.6094 16.1738 28.1143 16.668 27.5049 16.668H25.8662V14.4619ZM31.7295 20.2412V13.6807C31.7295 13.249 32.0791 12.9004 32.5098 12.9004C32.9404 12.9004 33.29 13.25 33.29 13.6807V20.2412C33.29 20.6719 32.9404 21.0215 32.5098 21.0215C32.0791 21.0215 31.7295 20.6728 31.7295 20.2412Z" fill="#52006A"/>
</svg>