<svg width="52" height="56" viewBox="0 0 52 56" fill="none" xmlns="http://www.w3.org/2000/svg">
<path d="M14.4672 10.8228V15.2101C14.4672 16.5519 15.5548 17.6396 16.8967 17.6396H22.3203C23.6621 17.6396 24.7498 16.5519 24.7498 15.2101V10.7687M22.3136 4.96177V3.70509C22.3136 2.21112 21.1025 1 19.6085 1C18.1145 1 16.9034 2.21112 16.9034 3.70509V4.90767M11.7959 28.2076L9.53468 22.2412L7.27344 28.2076M8.08475 27.0729H11.0074M13.4595 22.241V26.2255C13.4595 27.3201 14.3468 28.2075 15.4414 28.2075C16.536 28.2075 17.4234 27.3201 17.4234 26.2255V22.241M28.1672 22.241H31.9436M30.0555 28.2076V22.6509M25.7932 22.241V28.2076M16.3083 34.4113H22.9087M9.05859 37.982H30.1584M9.05859 41.5617H30.1584M9.05859 45.1415H30.1584M27.0407 5.19625H12.1764C11.4703 5.19625 10.8981 5.76854 10.8981 6.47457V9.32823C10.8981 10.0343 11.4703 10.6065 12.1764 10.6065H27.0407C27.7467 10.6065 28.319 10.0343 28.319 9.32823V6.47457C28.3189 5.76854 27.7466 5.19625 27.0407 5.19625ZM20.608 22.241H19.7627V28.2075H20.608C22.1951 28.2075 23.4819 26.9209 23.4819 25.3336V25.1148C23.4819 23.5278 22.1952 22.241 20.608 22.241ZM45.3844 7.90134C44.1095 7.90134 43.0761 8.9348 43.0761 10.2097V45.5162C43.0761 46.2817 43.2173 47.0406 43.4927 47.7548L44.5127 50.4007C44.8202 51.1982 45.9486 51.1982 46.256 50.4007L47.2761 47.7548C47.5515 47.0406 47.6927 46.2817 47.6927 45.5162V10.2097C47.6927 8.9348 46.6593 7.90134 45.3844 7.90134Z" stroke="#52006A" stroke-width="1.62306" stroke-miterlimit="10" stroke-linecap="round" stroke-linejoin="round"/>
<path d="M51.0466 32.6259V17.3962C51.0466 16.0368 49.9444 14.9346 48.5849 14.9346H41.6328" stroke="#52006A" stroke-width="1.62306" stroke-miterlimit="10" stroke-linecap="round" stroke-linejoin="round"/>
<path d="M21.2109 50.9304H33.2009C33.8314 50.9304 34.3425 50.4193 34.3425 49.7888V15.4631C34.3425 14.8326 33.8314 14.3214 33.2009 14.3214H6.01666C5.38616 14.3214 4.875 14.8326 4.875 15.4631V49.7886C4.875 50.4192 5.38616 50.9303 6.01666 50.9303H17.4237M43.0763 25.4293H47.6931V44.0054H43.0763V25.4293Z" stroke="#52006A" stroke-width="1.62306" stroke-miterlimit="10" stroke-linecap="round" stroke-linejoin="round"/>
<path d="M38.17 31.2018V11.6165C38.17 9.57319 36.4982 7.90134 34.4549 7.90134H28.3188V9.32811C28.3188 10.0341 27.7465 10.6064 27.0406 10.6064H12.1763C11.4703 10.6064 10.898 10.0341 10.898 9.32811V7.90134H4.76206C2.71873 7.90134 1.04688 9.57319 1.04688 11.6165V51.0615C1.04688 53.1049 2.71873 54.7767 4.76206 54.7767H34.455C36.4983 54.7767 38.1702 53.1049 38.1702 51.0615V34.989" stroke="#52006A" stroke-width="1.62306" stroke-miterlimit="10" stroke-linecap="round" stroke-linejoin="round"/>
</svg>
