<svg width="367" height="214" viewBox="0 0 367 214" fill="none" xmlns="http://www.w3.org/2000/svg">
<path d="M0 0H367V214H0V0Z" fill="white"/>
<rect x="159.5" y="26" width="48" height="48" rx="24" fill="white"/>
<rect x="159.5" y="26" width="48" height="48" rx="24" stroke="#FF7600" stroke-opacity="0.09" stroke-width="8"/>
<g clip-path="url(#clip0_1896_44615)">
<path d="M183.845 42.749H182.387C181.159 42.749 180.16 43.748 180.16 44.976V46.434C180.16 46.8172 180.471 47.1291 180.855 47.1291H182.313C183.541 47.1291 184.54 46.1301 184.54 44.9021V43.4441C184.54 43.0609 184.228 42.749 183.845 42.749H183.845ZM183.866 44.9021C183.866 45.7586 183.169 46.4553 182.313 46.4553H181.291L182.578 45.1676C182.609 45.1363 182.634 45.0992 182.651 45.0583C182.668 45.0175 182.677 44.9736 182.677 44.9294C182.677 44.8852 182.668 44.8413 182.651 44.8005C182.634 44.7596 182.609 44.7225 182.578 44.6912C182.547 44.6599 182.51 44.6351 182.469 44.6181C182.428 44.6012 182.384 44.5925 182.34 44.5925C182.296 44.5925 182.252 44.6012 182.211 44.6181C182.17 44.6351 182.133 44.6599 182.102 44.6912L180.833 45.9595V44.976C180.833 44.1197 181.53 43.4229 182.387 43.4229H183.845C183.856 43.4229 183.866 43.4323 183.866 43.4441L183.866 44.9021ZM188.805 49.0774C188.761 49.0774 188.717 49.0861 188.676 49.103C188.636 49.1199 188.598 49.1447 188.567 49.176C188.536 49.2073 188.511 49.2445 188.494 49.2854C188.477 49.3262 188.469 49.3701 188.469 49.4143V54.1679C188.469 54.3541 188.619 54.5049 188.805 54.5049C188.895 54.5049 188.981 54.4694 189.044 54.4062C189.107 54.343 189.142 54.2573 189.142 54.1679V49.4143C189.142 49.325 189.107 49.2393 189.044 49.1761C188.981 49.1129 188.895 49.0774 188.805 49.0774Z" fill="#FF7600"/>
<path d="M188.805 55.3663C188.761 55.3663 188.717 55.375 188.676 55.392C188.636 55.4089 188.598 55.4337 188.567 55.465C188.536 55.4963 188.511 55.5334 188.494 55.5743C188.477 55.6152 188.469 55.659 188.469 55.7033V57.073H177.729C177.774 56.8654 177.796 56.6537 177.796 56.4413V53.5723H178.255V54.1868C178.255 54.6202 178.608 54.9729 179.041 54.9729H185.658C186.092 54.9729 186.444 54.6202 186.444 54.1868V53.0804C186.444 52.647 186.092 52.2943 185.658 52.2943H180.235C180.289 52.1341 180.32 51.9674 180.328 51.7987H186.178C186.612 51.7987 186.964 51.446 186.964 51.0126V49.9062C186.964 49.4728 186.612 49.1201 186.178 49.1201H178.521C178.088 49.1201 177.735 49.4728 177.735 49.9062V50.4728H176.62C176.487 50.4728 176.357 50.4855 176.231 50.5086V44.338C176.231 44.1518 176.08 44.0011 175.894 44.0011C175.708 44.0011 175.557 44.1518 175.557 44.338V47.306H174.536C172.862 47.306 171.5 48.6677 171.5 50.3414V60.6406C171.5 60.8266 171.651 60.9775 171.837 60.9775C172.023 60.9775 172.174 60.8266 172.174 60.6406V50.3414C172.174 49.0392 173.233 47.9798 174.536 47.9798H175.557V50.7547C174.907 51.1253 174.468 51.8243 174.468 52.6245V54.9615C174.468 55.1475 174.619 55.2984 174.805 55.2984C174.991 55.2984 175.142 55.1475 175.142 54.9615V52.6245C175.142 51.8097 175.805 51.1467 176.62 51.1467H179.544C179.606 51.1467 179.656 51.197 179.656 51.259V51.71C179.656 52.3654 179.123 52.8984 178.467 52.8984H177.46C177.37 52.8984 177.284 52.9339 177.221 52.9971C177.158 53.0603 177.123 53.146 177.123 53.2353V56.4415C177.123 57.7289 176.083 58.7765 174.805 58.7765C174.715 58.7765 174.63 58.812 174.566 58.8752C174.503 58.9384 174.468 59.0241 174.468 59.1134V60.6408C174.468 60.8268 174.619 60.9777 174.805 60.9777C174.991 60.9777 175.142 60.8268 175.142 60.6408V59.4312C175.29 59.4144 175.436 59.3864 175.58 59.3474C175.725 60.2821 176.535 61 177.51 61H187.189C188.266 61 189.142 60.124 189.142 59.0471V55.7033C189.142 55.6139 189.107 55.5282 189.044 55.465C188.98 55.4018 188.895 55.3663 188.805 55.3663ZM179.544 50.4728H178.409V49.9061C178.409 49.8443 178.459 49.7938 178.521 49.7938H186.178C186.24 49.7938 186.29 49.8443 186.29 49.9061V51.0127C186.29 51.0746 186.24 51.125 186.178 51.125H180.317C180.254 50.7553 179.931 50.4729 179.544 50.4729L179.544 50.4728ZM179.839 52.9681H185.658C185.72 52.9681 185.77 53.0185 185.77 53.0804V54.1868C185.77 54.2487 185.72 54.2991 185.658 54.2991H179.041C179.011 54.2991 178.983 54.2872 178.962 54.2662C178.941 54.2451 178.929 54.2166 178.929 54.1868V53.5144C179.284 53.4235 179.598 53.2303 179.839 52.9681ZM187.19 60.3262H177.51C176.817 60.3262 176.252 59.7726 176.232 59.0845C176.783 58.7815 177.226 58.3138 177.499 57.7468H188.468V59.0471C188.469 59.7524 187.895 60.3262 187.19 60.3262ZM187.19 38H177.51C176.433 38 175.557 38.876 175.557 39.9529V42.8026C175.557 42.9888 175.708 43.1395 175.894 43.1395C175.983 43.1395 176.069 43.104 176.132 43.0408C176.195 42.9776 176.231 42.892 176.231 42.8026V41.5676H188.469V47.8788C188.469 48.065 188.619 48.2157 188.805 48.2157C188.895 48.2157 188.98 48.1802 189.044 48.117C189.107 48.0538 189.142 47.9681 189.142 47.8788V39.9529C189.142 38.876 188.266 38 187.19 38ZM176.231 40.8938V39.9529C176.231 39.2476 176.804 38.6738 177.51 38.6738H187.19C187.895 38.6738 188.469 39.2476 188.469 39.9529V40.8938H176.231Z" fill="#FF7600"/>
<path d="M182.325 57.9479C181.731 57.9479 181.249 58.4307 181.249 59.024C181.249 59.6174 181.731 60.1 182.325 60.1C182.918 60.1 183.401 59.6174 183.401 59.024C183.401 58.4307 182.918 57.9479 182.325 57.9479ZM182.325 59.4261C182.103 59.4261 181.922 59.2457 181.922 59.024C181.922 58.8022 182.103 58.6218 182.325 58.6218C182.546 58.6218 182.727 58.8021 182.727 59.024C182.727 59.2458 182.546 59.4261 182.325 59.4261ZM182.931 39.6173H181.618C181.528 39.6173 181.443 39.6528 181.379 39.716C181.316 39.7792 181.281 39.8649 181.281 39.9543C181.281 40.0436 181.316 40.1293 181.379 40.1925C181.443 40.2557 181.528 40.2912 181.618 40.2912H182.931C183.117 40.2912 183.268 40.1402 183.268 39.9543C183.268 39.7683 183.117 39.6173 182.931 39.6173ZM184.372 39.6195L183.968 39.6152H183.964C183.876 39.6153 183.79 39.6503 183.727 39.7128C183.664 39.7753 183.628 39.8601 183.628 39.9488C183.627 39.9931 183.635 40.037 183.652 40.078C183.668 40.119 183.693 40.1564 183.724 40.188C183.755 40.2196 183.792 40.2448 183.832 40.2621C183.873 40.2795 183.917 40.2886 183.961 40.2891L184.365 40.2933H184.369C184.458 40.2937 184.544 40.2587 184.607 40.1958C184.671 40.133 184.707 40.0475 184.707 39.9581C184.708 39.8688 184.673 39.7829 184.61 39.7194C184.547 39.6559 184.462 39.6199 184.372 39.6195ZM180.302 39.6173C180.115 39.6184 179.965 39.7721 179.966 39.9581C179.967 40.0472 180.003 40.1324 180.066 40.1952C180.129 40.258 180.214 40.2932 180.303 40.2932H180.305C180.394 40.2928 180.48 40.2568 180.543 40.1933C180.606 40.1298 180.641 40.044 180.64 39.9546V39.9504C180.639 39.7644 180.488 39.6166 180.302 39.6173ZM178.206 48.6826H179.115C179.204 48.6826 179.29 48.6471 179.353 48.5839C179.416 48.5207 179.452 48.435 179.452 48.3457C179.452 48.2563 179.416 48.1706 179.353 48.1074C179.29 48.0442 179.204 48.0088 179.115 48.0088H178.206C178.117 48.0088 178.031 48.0442 177.968 48.1074C177.905 48.1706 177.869 48.2563 177.869 48.3457C177.869 48.435 177.905 48.5207 177.968 48.5839C178.031 48.6471 178.117 48.6826 178.206 48.6826ZM184.258 48.3457C184.258 48.435 184.294 48.5207 184.357 48.5839C184.42 48.6471 184.506 48.6826 184.595 48.6826H186.587C186.676 48.6826 186.762 48.6471 186.825 48.5839C186.888 48.5207 186.923 48.435 186.923 48.3457C186.923 48.2563 186.888 48.1706 186.825 48.1074C186.762 48.0442 186.676 48.0088 186.587 48.0088H184.595C184.551 48.0087 184.507 48.0174 184.466 48.0344C184.425 48.0513 184.388 48.0761 184.357 48.1074C184.326 48.1387 184.301 48.1758 184.284 48.2167C184.267 48.2576 184.258 48.3014 184.258 48.3457Z" fill="#FF7600"/>
</g>
<path d="M83.693 110.2C82.7196 110.2 81.8596 110.073 81.113 109.82C80.3796 109.567 79.7596 109.193 79.253 108.7C78.7463 108.193 78.3663 107.567 78.113 106.82C77.8596 106.073 77.733 105.207 77.733 104.22V97.04C77.733 96.6 77.8396 96.2733 78.053 96.06C78.2796 95.8467 78.5996 95.74 79.013 95.74C79.4263 95.74 79.7396 95.8467 79.953 96.06C80.1796 96.2733 80.293 96.6 80.293 97.04V104.2C80.293 105.467 80.5796 106.42 81.153 107.06C81.7396 107.687 82.5863 108 83.693 108C84.7996 108 85.6396 107.687 86.213 107.06C86.7863 106.42 87.073 105.467 87.073 104.2V97.04C87.073 96.6 87.1796 96.2733 87.393 96.06C87.6196 95.8467 87.9396 95.74 88.353 95.74C88.753 95.74 89.0596 95.8467 89.273 96.06C89.4996 96.2733 89.613 96.6 89.613 97.04V104.22C89.613 105.527 89.3863 106.627 88.933 107.52C88.493 108.413 87.833 109.087 86.953 109.54C86.073 109.98 84.9863 110.2 83.693 110.2ZM95.9386 110.2C95.3653 110.2 94.7586 110.14 94.1186 110.02C93.4786 109.9 92.9053 109.693 92.3986 109.4C92.1853 109.267 92.0319 109.113 91.9386 108.94C91.8586 108.753 91.8253 108.573 91.8386 108.4C91.8653 108.213 91.9319 108.053 92.0386 107.92C92.1586 107.787 92.3053 107.7 92.4786 107.66C92.6653 107.62 92.8653 107.653 93.0786 107.76C93.6119 108.013 94.1119 108.193 94.5786 108.3C95.0453 108.393 95.5053 108.44 95.9586 108.44C96.5986 108.44 97.0719 108.333 97.3786 108.12C97.6986 107.893 97.8586 107.6 97.8586 107.24C97.8586 106.933 97.7519 106.7 97.5386 106.54C97.3386 106.367 97.0319 106.24 96.6186 106.16L94.6186 105.78C93.7919 105.62 93.1586 105.32 92.7186 104.88C92.2919 104.427 92.0786 103.847 92.0786 103.14C92.0786 102.5 92.2519 101.947 92.5986 101.48C92.9586 101.013 93.4519 100.653 94.0786 100.4C94.7053 100.147 95.4253 100.02 96.2386 100.02C96.8253 100.02 97.3719 100.087 97.8786 100.22C98.3986 100.34 98.8986 100.533 99.3786 100.8C99.5786 100.907 99.7119 101.047 99.7786 101.22C99.8586 101.393 99.8786 101.573 99.8386 101.76C99.7986 101.933 99.7186 102.093 99.5986 102.24C99.4786 102.373 99.3253 102.46 99.1386 102.5C98.9653 102.527 98.7653 102.487 98.5386 102.38C98.1253 102.167 97.7253 102.013 97.3386 101.92C96.9653 101.827 96.6053 101.78 96.2586 101.78C95.6053 101.78 95.1186 101.893 94.7986 102.12C94.4919 102.347 94.3386 102.647 94.3386 103.02C94.3386 103.3 94.4319 103.533 94.6186 103.72C94.8053 103.907 95.0919 104.033 95.4786 104.1L97.4786 104.48C98.3453 104.64 98.9986 104.933 99.4386 105.36C99.8919 105.787 100.119 106.36 100.119 107.08C100.119 108.053 99.7386 108.82 98.9786 109.38C98.2186 109.927 97.2053 110.2 95.9386 110.2ZM106.944 110.2C105.838 110.2 104.884 109.993 104.084 109.58C103.284 109.167 102.664 108.58 102.224 107.82C101.798 107.06 101.584 106.16 101.584 105.12C101.584 104.107 101.791 103.22 102.204 102.46C102.631 101.7 103.211 101.107 103.944 100.68C104.691 100.24 105.538 100.02 106.484 100.02C107.178 100.02 107.798 100.133 108.344 100.36C108.904 100.587 109.378 100.913 109.764 101.34C110.164 101.767 110.464 102.287 110.664 102.9C110.878 103.5 110.984 104.18 110.984 104.94C110.984 105.18 110.898 105.367 110.724 105.5C110.564 105.62 110.331 105.68 110.024 105.68H103.604V104.24H109.224L108.904 104.54C108.904 103.927 108.811 103.413 108.624 103C108.451 102.587 108.191 102.273 107.844 102.06C107.511 101.833 107.091 101.72 106.584 101.72C106.024 101.72 105.544 101.853 105.144 102.12C104.758 102.373 104.458 102.74 104.244 103.22C104.044 103.687 103.944 104.247 103.944 104.9V105.04C103.944 106.133 104.198 106.953 104.704 107.5C105.224 108.033 105.984 108.3 106.984 108.3C107.331 108.3 107.718 108.26 108.144 108.18C108.584 108.087 108.998 107.933 109.384 107.72C109.664 107.56 109.911 107.493 110.124 107.52C110.338 107.533 110.504 107.607 110.624 107.74C110.758 107.873 110.838 108.04 110.864 108.24C110.891 108.427 110.851 108.62 110.744 108.82C110.651 109.02 110.484 109.193 110.244 109.34C109.778 109.633 109.238 109.853 108.624 110C108.024 110.133 107.464 110.2 106.944 110.2ZM114.244 110.16C113.831 110.16 113.511 110.053 113.284 109.84C113.071 109.613 112.964 109.293 112.964 108.88V101.32C112.964 100.907 113.071 100.593 113.284 100.38C113.497 100.167 113.797 100.06 114.184 100.06C114.571 100.06 114.871 100.167 115.084 100.38C115.297 100.593 115.404 100.907 115.404 101.32V102.58H115.204C115.391 101.78 115.757 101.173 116.304 100.76C116.851 100.347 117.577 100.1 118.484 100.02C118.764 99.9933 118.984 100.067 119.144 100.24C119.317 100.4 119.417 100.653 119.444 101C119.471 101.333 119.391 101.607 119.204 101.82C119.031 102.02 118.764 102.14 118.404 102.18L117.964 102.22C117.151 102.3 116.537 102.553 116.124 102.98C115.711 103.393 115.504 103.98 115.504 104.74V108.88C115.504 109.293 115.397 109.613 115.184 109.84C114.971 110.053 114.657 110.16 114.244 110.16ZM121.306 105.64C121.013 105.64 120.766 105.547 120.566 105.36C120.379 105.16 120.286 104.92 120.286 104.64C120.286 104.347 120.379 104.107 120.566 103.92C120.766 103.733 121.013 103.64 121.306 103.64H125.566C125.846 103.64 126.079 103.733 126.266 103.92C126.466 104.107 126.566 104.347 126.566 104.64C126.566 104.92 126.466 105.16 126.266 105.36C126.079 105.547 125.846 105.64 125.566 105.64H121.306ZM130.618 110.16C130.204 110.16 129.878 110.047 129.638 109.82C129.411 109.58 129.298 109.24 129.298 108.8V97.26C129.298 96.82 129.411 96.4867 129.638 96.26C129.878 96.02 130.218 95.9 130.658 95.9H137.638C137.984 95.9 138.244 95.9867 138.418 96.16C138.591 96.3333 138.678 96.58 138.678 96.9C138.678 97.2333 138.591 97.4933 138.418 97.68C138.244 97.8533 137.984 97.94 137.638 97.94H131.858V101.92H137.218C137.551 101.92 137.804 102.007 137.978 102.18C138.164 102.353 138.258 102.6 138.258 102.92C138.258 103.253 138.164 103.513 137.978 103.7C137.804 103.873 137.551 103.96 137.218 103.96H131.858V108.8C131.858 109.707 131.444 110.16 130.618 110.16ZM141.373 110.16C140.96 110.16 140.64 110.053 140.413 109.84C140.2 109.613 140.093 109.293 140.093 108.88V101.32C140.093 100.907 140.2 100.593 140.413 100.38C140.626 100.167 140.926 100.06 141.313 100.06C141.7 100.06 142 100.167 142.213 100.38C142.426 100.593 142.533 100.907 142.533 101.32V102.58H142.333C142.52 101.78 142.886 101.173 143.433 100.76C143.98 100.347 144.706 100.1 145.613 100.02C145.893 99.9933 146.113 100.067 146.273 100.24C146.446 100.4 146.546 100.653 146.573 101C146.6 101.333 146.52 101.607 146.333 101.82C146.16 102.02 145.893 102.14 145.533 102.18L145.093 102.22C144.28 102.3 143.666 102.553 143.253 102.98C142.84 103.393 142.633 103.98 142.633 104.74V108.88C142.633 109.293 142.526 109.613 142.313 109.84C142.1 110.053 141.786 110.16 141.373 110.16ZM149.165 110.14C148.765 110.14 148.458 110.02 148.245 109.78C148.032 109.54 147.925 109.207 147.925 108.78V101.44C147.925 101 148.032 100.667 148.245 100.44C148.458 100.2 148.765 100.08 149.165 100.08C149.565 100.08 149.872 100.2 150.085 100.44C150.312 100.667 150.425 101 150.425 101.44V108.78C150.425 109.207 150.318 109.54 150.105 109.78C149.892 110.02 149.578 110.14 149.165 110.14ZM149.165 98.22C148.698 98.22 148.332 98.1067 148.065 97.88C147.812 97.64 147.685 97.3133 147.685 96.9C147.685 96.4733 147.812 96.1467 148.065 95.92C148.332 95.6933 148.698 95.58 149.165 95.58C149.645 95.58 150.012 95.6933 150.265 95.92C150.518 96.1467 150.645 96.4733 150.645 96.9C150.645 97.3133 150.518 97.64 150.265 97.88C150.012 98.1067 149.645 98.22 149.165 98.22ZM157.843 110.2C156.736 110.2 155.783 109.993 154.983 109.58C154.183 109.167 153.563 108.58 153.123 107.82C152.696 107.06 152.483 106.16 152.483 105.12C152.483 104.107 152.689 103.22 153.103 102.46C153.529 101.7 154.109 101.107 154.843 100.68C155.589 100.24 156.436 100.02 157.383 100.02C158.076 100.02 158.696 100.133 159.243 100.36C159.803 100.587 160.276 100.913 160.663 101.34C161.063 101.767 161.363 102.287 161.563 102.9C161.776 103.5 161.883 104.18 161.883 104.94C161.883 105.18 161.796 105.367 161.623 105.5C161.463 105.62 161.229 105.68 160.923 105.68H154.503V104.24H160.123L159.803 104.54C159.803 103.927 159.709 103.413 159.523 103C159.349 102.587 159.089 102.273 158.743 102.06C158.409 101.833 157.989 101.72 157.483 101.72C156.923 101.72 156.443 101.853 156.043 102.12C155.656 102.373 155.356 102.74 155.143 103.22C154.943 103.687 154.843 104.247 154.843 104.9V105.04C154.843 106.133 155.096 106.953 155.603 107.5C156.123 108.033 156.883 108.3 157.883 108.3C158.229 108.3 158.616 108.26 159.043 108.18C159.483 108.087 159.896 107.933 160.283 107.72C160.563 107.56 160.809 107.493 161.023 107.52C161.236 107.533 161.403 107.607 161.523 107.74C161.656 107.873 161.736 108.04 161.763 108.24C161.789 108.427 161.749 108.62 161.643 108.82C161.549 109.02 161.383 109.193 161.143 109.34C160.676 109.633 160.136 109.853 159.523 110C158.923 110.133 158.363 110.2 157.843 110.2ZM165.103 110.16C164.703 110.16 164.396 110.053 164.183 109.84C163.969 109.613 163.863 109.293 163.863 108.88V101.32C163.863 100.907 163.969 100.593 164.183 100.38C164.396 100.167 164.696 100.06 165.083 100.06C165.469 100.06 165.769 100.167 165.983 100.38C166.196 100.593 166.303 100.907 166.303 101.32V102.68L166.083 102.18C166.376 101.473 166.829 100.94 167.443 100.58C168.069 100.207 168.776 100.02 169.563 100.02C170.349 100.02 170.996 100.167 171.503 100.46C172.009 100.753 172.389 101.2 172.643 101.8C172.896 102.387 173.023 103.133 173.023 104.04V108.88C173.023 109.293 172.916 109.613 172.703 109.84C172.489 110.053 172.183 110.16 171.783 110.16C171.383 110.16 171.069 110.053 170.843 109.84C170.629 109.613 170.523 109.293 170.523 108.88V104.16C170.523 103.4 170.376 102.847 170.083 102.5C169.803 102.153 169.363 101.98 168.763 101.98C168.029 101.98 167.443 102.213 167.003 102.68C166.576 103.133 166.363 103.74 166.363 104.5V108.88C166.363 109.733 165.943 110.16 165.103 110.16ZM179.322 110.2C178.468 110.2 177.715 109.993 177.062 109.58C176.422 109.167 175.922 108.58 175.562 107.82C175.202 107.047 175.022 106.14 175.022 105.1C175.022 104.047 175.202 103.147 175.562 102.4C175.922 101.64 176.422 101.053 177.062 100.64C177.715 100.227 178.468 100.02 179.322 100.02C180.135 100.02 180.842 100.22 181.442 100.62C182.055 101.02 182.468 101.547 182.682 102.2H182.462V97C182.462 96.5867 182.568 96.2733 182.782 96.06C182.995 95.8467 183.302 95.74 183.702 95.74C184.102 95.74 184.408 95.8467 184.622 96.06C184.848 96.2733 184.962 96.5867 184.962 97V108.88C184.962 109.293 184.855 109.613 184.642 109.84C184.428 110.053 184.122 110.16 183.722 110.16C183.322 110.16 183.015 110.053 182.802 109.84C182.588 109.613 182.482 109.293 182.482 108.88V107.32L182.702 107.92C182.502 108.613 182.095 109.167 181.482 109.58C180.868 109.993 180.148 110.2 179.322 110.2ZM180.022 108.3C180.515 108.3 180.948 108.18 181.322 107.94C181.695 107.7 181.982 107.347 182.182 106.88C182.395 106.4 182.502 105.807 182.502 105.1C182.502 104.033 182.275 103.24 181.822 102.72C181.368 102.187 180.768 101.92 180.022 101.92C179.528 101.92 179.095 102.04 178.722 102.28C178.348 102.507 178.055 102.86 177.842 103.34C177.642 103.807 177.542 104.393 177.542 105.1C177.542 106.153 177.768 106.953 178.222 107.5C178.675 108.033 179.275 108.3 180.022 108.3ZM190.894 110.2C189.787 110.2 188.954 109.887 188.394 109.26C187.834 108.62 187.554 107.687 187.554 106.46V97C187.554 96.5867 187.661 96.2733 187.874 96.06C188.087 95.8467 188.394 95.74 188.794 95.74C189.194 95.74 189.501 95.8467 189.714 96.06C189.941 96.2733 190.054 96.5867 190.054 97V106.34C190.054 106.953 190.181 107.407 190.434 107.7C190.701 107.993 191.074 108.14 191.554 108.14C191.661 108.14 191.761 108.14 191.854 108.14C191.947 108.127 192.041 108.113 192.134 108.1C192.321 108.073 192.447 108.127 192.514 108.26C192.581 108.38 192.614 108.633 192.614 109.02C192.614 109.353 192.547 109.613 192.414 109.8C192.281 109.987 192.061 110.1 191.754 110.14C191.621 110.153 191.481 110.167 191.334 110.18C191.187 110.193 191.041 110.2 190.894 110.2ZM196.167 113.76C195.873 113.76 195.633 113.68 195.447 113.52C195.26 113.373 195.147 113.173 195.107 112.92C195.08 112.667 195.127 112.4 195.247 112.12L196.607 109.1V110.14L192.967 101.72C192.847 101.427 192.807 101.153 192.847 100.9C192.887 100.647 193.007 100.447 193.207 100.3C193.42 100.14 193.707 100.06 194.067 100.06C194.373 100.06 194.62 100.133 194.807 100.28C194.993 100.413 195.16 100.673 195.307 101.06L198.007 107.8H197.407L200.167 101.04C200.313 100.667 200.487 100.413 200.687 100.28C200.887 100.133 201.153 100.06 201.487 100.06C201.78 100.06 202.013 100.14 202.187 100.3C202.36 100.447 202.467 100.647 202.507 100.9C202.547 101.14 202.5 101.407 202.367 101.7L197.507 112.8C197.333 113.173 197.147 113.427 196.947 113.56C196.747 113.693 196.487 113.76 196.167 113.76ZM211.164 110.16C210.75 110.16 210.43 110.047 210.204 109.82C209.99 109.58 209.884 109.253 209.884 108.84V97.06C209.884 96.6333 209.99 96.3067 210.204 96.08C210.43 95.8533 210.75 95.74 211.164 95.74C211.577 95.74 211.89 95.8533 212.104 96.08C212.33 96.3067 212.444 96.6333 212.444 97.06V108.84C212.444 109.253 212.337 109.58 212.124 109.82C211.91 110.047 211.59 110.16 211.164 110.16ZM216.528 110.16C216.128 110.16 215.822 110.053 215.608 109.84C215.395 109.613 215.288 109.293 215.288 108.88V101.32C215.288 100.907 215.395 100.593 215.608 100.38C215.822 100.167 216.122 100.06 216.508 100.06C216.895 100.06 217.195 100.167 217.408 100.38C217.622 100.593 217.728 100.907 217.728 101.32V102.68L217.508 102.18C217.802 101.473 218.255 100.94 218.868 100.58C219.495 100.207 220.202 100.02 220.988 100.02C221.775 100.02 222.422 100.167 222.928 100.46C223.435 100.753 223.815 101.2 224.068 101.8C224.322 102.387 224.448 103.133 224.448 104.04V108.88C224.448 109.293 224.342 109.613 224.128 109.84C223.915 110.053 223.608 110.16 223.208 110.16C222.808 110.16 222.495 110.053 222.268 109.84C222.055 109.613 221.948 109.293 221.948 108.88V104.16C221.948 103.4 221.802 102.847 221.508 102.5C221.228 102.153 220.788 101.98 220.188 101.98C219.455 101.98 218.868 102.213 218.428 102.68C218.002 103.133 217.788 103.74 217.788 104.5V108.88C217.788 109.733 217.368 110.16 216.528 110.16ZM231.468 110.2C230.601 110.2 229.874 110.053 229.288 109.76C228.714 109.467 228.288 109.04 228.008 108.48C227.728 107.907 227.588 107.2 227.588 106.36V102.1H226.548C226.228 102.1 225.981 102.02 225.808 101.86C225.634 101.687 225.547 101.453 225.547 101.16C225.547 100.853 225.634 100.62 225.808 100.46C225.981 100.3 226.228 100.22 226.548 100.22H227.588V98.4C227.588 97.9867 227.694 97.6733 227.908 97.46C228.134 97.2467 228.448 97.14 228.848 97.14C229.248 97.14 229.554 97.2467 229.768 97.46C229.981 97.6733 230.088 97.9867 230.088 98.4V100.22H232.208C232.528 100.22 232.774 100.3 232.948 100.46C233.121 100.62 233.208 100.853 233.208 101.16C233.208 101.453 233.121 101.687 232.948 101.86C232.774 102.02 232.528 102.1 232.208 102.1H230.088V106.22C230.088 106.86 230.228 107.34 230.508 107.66C230.788 107.98 231.241 108.14 231.868 108.14C232.094 108.14 232.294 108.12 232.468 108.08C232.641 108.04 232.794 108.013 232.928 108C233.088 107.987 233.221 108.04 233.328 108.16C233.434 108.267 233.488 108.493 233.488 108.84C233.488 109.107 233.441 109.347 233.348 109.56C233.268 109.76 233.114 109.9 232.888 109.98C232.714 110.033 232.488 110.08 232.208 110.12C231.928 110.173 231.681 110.2 231.468 110.2ZM239.386 110.2C238.279 110.2 237.326 109.993 236.526 109.58C235.726 109.167 235.106 108.58 234.666 107.82C234.239 107.06 234.026 106.16 234.026 105.12C234.026 104.107 234.232 103.22 234.646 102.46C235.072 101.7 235.652 101.107 236.386 100.68C237.132 100.24 237.979 100.02 238.926 100.02C239.619 100.02 240.239 100.133 240.786 100.36C241.346 100.587 241.819 100.913 242.206 101.34C242.606 101.767 242.906 102.287 243.106 102.9C243.319 103.5 243.426 104.18 243.426 104.94C243.426 105.18 243.339 105.367 243.166 105.5C243.006 105.62 242.772 105.68 242.466 105.68H236.046V104.24H241.666L241.346 104.54C241.346 103.927 241.252 103.413 241.066 103C240.892 102.587 240.632 102.273 240.286 102.06C239.952 101.833 239.532 101.72 239.026 101.72C238.466 101.72 237.986 101.853 237.586 102.12C237.199 102.373 236.899 102.74 236.686 103.22C236.486 103.687 236.386 104.247 236.386 104.9V105.04C236.386 106.133 236.639 106.953 237.146 107.5C237.666 108.033 238.426 108.3 239.426 108.3C239.772 108.3 240.159 108.26 240.586 108.18C241.026 108.087 241.439 107.933 241.826 107.72C242.106 107.56 242.352 107.493 242.566 107.52C242.779 107.533 242.946 107.607 243.066 107.74C243.199 107.873 243.279 108.04 243.306 108.24C243.332 108.427 243.292 108.62 243.186 108.82C243.092 109.02 242.926 109.193 242.686 109.34C242.219 109.633 241.679 109.853 241.066 110C240.466 110.133 239.906 110.2 239.386 110.2ZM246.685 110.16C246.272 110.16 245.952 110.053 245.725 109.84C245.512 109.613 245.405 109.293 245.405 108.88V101.32C245.405 100.907 245.512 100.593 245.725 100.38C245.939 100.167 246.239 100.06 246.625 100.06C247.012 100.06 247.312 100.167 247.525 100.38C247.739 100.593 247.845 100.907 247.845 101.32V102.58H247.645C247.832 101.78 248.199 101.173 248.745 100.76C249.292 100.347 250.019 100.1 250.925 100.02C251.205 99.9933 251.425 100.067 251.585 100.24C251.759 100.4 251.859 100.653 251.885 101C251.912 101.333 251.832 101.607 251.645 101.82C251.472 102.02 251.205 102.14 250.845 102.18L250.405 102.22C249.592 102.3 248.979 102.553 248.565 102.98C248.152 103.393 247.945 103.98 247.945 104.74V108.88C247.945 109.293 247.839 109.613 247.625 109.84C247.412 110.053 247.099 110.16 246.685 110.16ZM255.724 110.16C255.324 110.16 255.011 110.053 254.784 109.84C254.571 109.613 254.464 109.293 254.464 108.88V102.1H253.544C253.224 102.1 252.977 102.02 252.804 101.86C252.631 101.687 252.544 101.453 252.544 101.16C252.544 100.853 252.631 100.62 252.804 100.46C252.977 100.3 253.224 100.22 253.544 100.22H255.184L254.464 100.88V100.2C254.464 98.8267 254.811 97.8 255.504 97.12C256.197 96.4267 257.197 96.02 258.504 95.9L259.184 95.84C259.451 95.8133 259.664 95.86 259.824 95.98C259.984 96.0867 260.091 96.2333 260.144 96.42C260.197 96.5933 260.204 96.7733 260.164 96.96C260.124 97.1467 260.037 97.3133 259.904 97.46C259.784 97.5933 259.624 97.6667 259.424 97.68L259.144 97.7C258.384 97.7533 257.831 97.9467 257.484 98.28C257.137 98.6133 256.964 99.12 256.964 99.8V100.54L256.644 100.22H258.664C258.984 100.22 259.231 100.3 259.404 100.46C259.577 100.62 259.664 100.853 259.664 101.16C259.664 101.453 259.577 101.687 259.404 101.86C259.231 102.02 258.984 102.1 258.664 102.1H256.964V108.88C256.964 109.733 256.551 110.16 255.724 110.16ZM264.211 110.2C263.505 110.2 262.871 110.067 262.311 109.8C261.765 109.52 261.331 109.147 261.011 108.68C260.705 108.213 260.551 107.687 260.551 107.1C260.551 106.38 260.738 105.813 261.111 105.4C261.485 104.973 262.091 104.667 262.931 104.48C263.771 104.293 264.898 104.2 266.311 104.2H267.311V105.64H266.331C265.505 105.64 264.845 105.68 264.351 105.76C263.858 105.84 263.505 105.98 263.291 106.18C263.091 106.367 262.991 106.633 262.991 106.98C262.991 107.42 263.145 107.78 263.451 108.06C263.758 108.34 264.185 108.48 264.731 108.48C265.171 108.48 265.558 108.38 265.891 108.18C266.238 107.967 266.511 107.68 266.711 107.32C266.911 106.96 267.011 106.547 267.011 106.08V103.78C267.011 103.113 266.865 102.633 266.571 102.34C266.278 102.047 265.785 101.9 265.091 101.9C264.705 101.9 264.285 101.947 263.831 102.04C263.391 102.133 262.925 102.293 262.431 102.52C262.178 102.64 261.951 102.673 261.751 102.62C261.565 102.567 261.418 102.46 261.311 102.3C261.205 102.127 261.151 101.94 261.151 101.74C261.151 101.54 261.205 101.347 261.311 101.16C261.418 100.96 261.598 100.813 261.851 100.72C262.465 100.467 263.051 100.287 263.611 100.18C264.185 100.073 264.705 100.02 265.171 100.02C266.131 100.02 266.918 100.167 267.531 100.46C268.158 100.753 268.625 101.2 268.931 101.8C269.238 102.387 269.391 103.147 269.391 104.08V108.88C269.391 109.293 269.291 109.613 269.091 109.84C268.891 110.053 268.605 110.16 268.231 110.16C267.858 110.16 267.565 110.053 267.351 109.84C267.151 109.613 267.051 109.293 267.051 108.88V107.92H267.211C267.118 108.387 266.931 108.793 266.651 109.14C266.385 109.473 266.045 109.733 265.631 109.92C265.218 110.107 264.745 110.2 264.211 110.2ZM276.449 110.2C275.422 110.2 274.529 109.993 273.769 109.58C273.009 109.153 272.422 108.553 272.009 107.78C271.596 107.007 271.389 106.1 271.389 105.06C271.389 104.273 271.502 103.573 271.729 102.96C271.969 102.333 272.309 101.807 272.749 101.38C273.189 100.94 273.722 100.607 274.349 100.38C274.976 100.14 275.676 100.02 276.449 100.02C276.889 100.02 277.362 100.08 277.869 100.2C278.389 100.32 278.876 100.52 279.329 100.8C279.542 100.933 279.682 101.093 279.749 101.28C279.816 101.467 279.829 101.66 279.789 101.86C279.749 102.047 279.662 102.213 279.529 102.36C279.409 102.493 279.256 102.58 279.069 102.62C278.882 102.647 278.676 102.6 278.449 102.48C278.156 102.307 277.856 102.18 277.549 102.1C277.242 102.007 276.949 101.96 276.669 101.96C276.229 101.96 275.842 102.033 275.509 102.18C275.176 102.313 274.889 102.513 274.649 102.78C274.422 103.033 274.249 103.353 274.129 103.74C274.009 104.127 273.949 104.573 273.949 105.08C273.949 106.067 274.182 106.847 274.649 107.42C275.129 107.98 275.802 108.26 276.669 108.26C276.949 108.26 277.236 108.22 277.529 108.14C277.836 108.06 278.142 107.933 278.449 107.76C278.676 107.64 278.876 107.6 279.049 107.64C279.236 107.68 279.389 107.773 279.509 107.92C279.629 108.053 279.702 108.22 279.729 108.42C279.756 108.607 279.729 108.793 279.649 108.98C279.582 109.167 279.449 109.32 279.249 109.44C278.809 109.707 278.342 109.9 277.849 110.02C277.356 110.14 276.889 110.2 276.449 110.2ZM285.987 110.2C284.881 110.2 283.927 109.993 283.127 109.58C282.327 109.167 281.707 108.58 281.267 107.82C280.841 107.06 280.627 106.16 280.627 105.12C280.627 104.107 280.834 103.22 281.247 102.46C281.674 101.7 282.254 101.107 282.987 100.68C283.734 100.24 284.581 100.02 285.527 100.02C286.221 100.02 286.841 100.133 287.387 100.36C287.947 100.587 288.421 100.913 288.807 101.34C289.207 101.767 289.507 102.287 289.707 102.9C289.921 103.5 290.027 104.18 290.027 104.94C290.027 105.18 289.941 105.367 289.767 105.5C289.607 105.62 289.374 105.68 289.067 105.68H282.647V104.24H288.267L287.947 104.54C287.947 103.927 287.854 103.413 287.667 103C287.494 102.587 287.234 102.273 286.887 102.06C286.554 101.833 286.134 101.72 285.627 101.72C285.067 101.72 284.587 101.853 284.187 102.12C283.801 102.373 283.501 102.74 283.287 103.22C283.087 103.687 282.987 104.247 282.987 104.9V105.04C282.987 106.133 283.241 106.953 283.747 107.5C284.267 108.033 285.027 108.3 286.027 108.3C286.374 108.3 286.761 108.26 287.187 108.18C287.627 108.087 288.041 107.933 288.427 107.72C288.707 107.56 288.954 107.493 289.167 107.52C289.381 107.533 289.547 107.607 289.667 107.74C289.801 107.873 289.881 108.04 289.907 108.24C289.934 108.427 289.894 108.62 289.787 108.82C289.694 109.02 289.527 109.193 289.287 109.34C288.821 109.633 288.281 109.853 287.667 110C287.067 110.133 286.507 110.2 285.987 110.2Z" fill="black"/>
<path d="M16.4732 139.08C16.2599 139.08 16.0999 139.021 15.9932 138.904C15.8865 138.776 15.8332 138.6 15.8332 138.376V131.832C15.8332 131.608 15.8865 131.437 15.9932 131.32C16.0999 131.203 16.2599 131.144 16.4732 131.144C16.6759 131.144 16.8359 131.203 16.9532 131.32C17.0705 131.437 17.1292 131.608 17.1292 131.832V138.376C17.1292 138.6 17.0705 138.776 16.9532 138.904C16.8465 139.021 16.6865 139.08 16.4732 139.08ZM16.4732 129.352C16.2065 129.352 15.9985 129.283 15.8492 129.144C15.6999 128.995 15.6252 128.797 15.6252 128.552C15.6252 128.296 15.6999 128.104 15.8492 127.976C15.9985 127.837 16.2065 127.768 16.4732 127.768C16.7505 127.768 16.9585 127.837 17.0972 127.976C17.2465 128.104 17.3212 128.296 17.3212 128.552C17.3212 128.797 17.2465 128.995 17.0972 129.144C16.9585 129.283 16.7505 129.352 16.4732 129.352ZM20.1919 139.112C19.9786 139.112 19.8186 139.053 19.7119 138.936C19.6053 138.819 19.5519 138.653 19.5519 138.44V131.768C19.5519 131.555 19.6053 131.395 19.7119 131.288C19.8186 131.171 19.9733 131.112 20.1759 131.112C20.3786 131.112 20.5333 131.171 20.6399 131.288C20.7573 131.395 20.8159 131.555 20.8159 131.768V133.144L20.6399 132.952C20.8639 132.333 21.2266 131.869 21.7279 131.56C22.2399 131.24 22.8266 131.08 23.4879 131.08C24.1066 131.08 24.6186 131.192 25.0239 131.416C25.4399 131.64 25.7493 131.981 25.9519 132.44C26.1546 132.888 26.2559 133.459 26.2559 134.152V138.44C26.2559 138.653 26.1973 138.819 26.0799 138.936C25.9733 139.053 25.8186 139.112 25.6159 139.112C25.4026 139.112 25.2373 139.053 25.1199 138.936C25.0133 138.819 24.9599 138.653 24.9599 138.44V134.232C24.9599 133.507 24.8159 132.979 24.5279 132.648C24.2506 132.307 23.8026 132.136 23.1839 132.136C22.4693 132.136 21.8986 132.36 21.4719 132.808C21.0559 133.245 20.8479 133.832 20.8479 134.568V138.44C20.8479 138.888 20.6293 139.112 20.1919 139.112ZM31.7657 139.144C31.1577 139.144 30.6457 139.037 30.2297 138.824C29.8244 138.6 29.5204 138.28 29.3177 137.864C29.115 137.437 29.0137 136.92 29.0137 136.312V132.232H27.9417C27.7604 132.232 27.6217 132.189 27.5257 132.104C27.4297 132.008 27.3817 131.88 27.3817 131.72C27.3817 131.56 27.4297 131.437 27.5257 131.352C27.6217 131.267 27.7604 131.224 27.9417 131.224H29.0137V129.384C29.0137 129.171 29.0724 129.011 29.1897 128.904C29.307 128.787 29.467 128.728 29.6697 128.728C29.8724 128.728 30.027 128.787 30.1337 128.904C30.251 129.011 30.3097 129.171 30.3097 129.384V131.224H32.3257C32.507 131.224 32.6457 131.267 32.7417 131.352C32.8377 131.437 32.8857 131.56 32.8857 131.72C32.8857 131.88 32.8377 132.008 32.7417 132.104C32.6457 132.189 32.507 132.232 32.3257 132.232H30.3097V136.184C30.3097 136.792 30.4377 137.256 30.6937 137.576C30.9497 137.885 31.3657 138.04 31.9417 138.04C32.1444 138.04 32.315 138.019 32.4537 137.976C32.603 137.933 32.7257 137.912 32.8217 137.912C32.9177 137.901 32.9977 137.933 33.0617 138.008C33.1257 138.083 33.1577 138.211 33.1577 138.392C33.1577 138.52 33.131 138.637 33.0777 138.744C33.035 138.851 32.955 138.925 32.8377 138.968C32.7097 139.011 32.539 139.048 32.3257 139.08C32.123 139.123 31.9364 139.144 31.7657 139.144ZM36.9914 139.144C36.3621 139.144 35.8394 139.032 35.4234 138.808C35.0181 138.573 34.7088 138.227 34.4954 137.768C34.2928 137.309 34.1914 136.739 34.1914 136.056V131.768C34.1914 131.544 34.2448 131.379 34.3514 131.272C34.4688 131.165 34.6288 131.112 34.8314 131.112C35.0448 131.112 35.2048 131.165 35.3114 131.272C35.4288 131.379 35.4874 131.544 35.4874 131.768V136.04C35.4874 136.723 35.6261 137.235 35.9034 137.576C36.1914 137.907 36.6394 138.072 37.2474 138.072C37.9088 138.072 38.4474 137.848 38.8634 137.4C39.2794 136.952 39.4874 136.365 39.4874 135.64V131.768C39.4874 131.544 39.5408 131.379 39.6474 131.272C39.7648 131.165 39.9301 131.112 40.1434 131.112C40.3461 131.112 40.5008 131.165 40.6074 131.272C40.7248 131.379 40.7834 131.544 40.7834 131.768V138.44C40.7834 138.888 40.5754 139.112 40.1594 139.112C39.9568 139.112 39.7968 139.053 39.6794 138.936C39.5728 138.819 39.5194 138.653 39.5194 138.44V136.984L39.7274 137.208C39.5141 137.837 39.1621 138.317 38.6714 138.648C38.1914 138.979 37.6314 139.144 36.9914 139.144ZM43.8482 139.08C43.6349 139.08 43.4749 139.021 43.3682 138.904C43.2615 138.776 43.2082 138.6 43.2082 138.376V131.832C43.2082 131.608 43.2615 131.437 43.3682 131.32C43.4749 131.203 43.6349 131.144 43.8482 131.144C44.0509 131.144 44.2109 131.203 44.3282 131.32C44.4455 131.437 44.5042 131.608 44.5042 131.832V138.376C44.5042 138.6 44.4455 138.776 44.3282 138.904C44.2215 139.021 44.0615 139.08 43.8482 139.08ZM43.8482 129.352C43.5815 129.352 43.3735 129.283 43.2242 129.144C43.0749 128.995 43.0002 128.797 43.0002 128.552C43.0002 128.296 43.0749 128.104 43.2242 127.976C43.3735 127.837 43.5815 127.768 43.8482 127.768C44.1255 127.768 44.3335 127.837 44.4722 127.976C44.6215 128.104 44.6962 128.296 44.6962 128.552C44.6962 128.797 44.6215 128.995 44.4722 129.144C44.3335 129.283 44.1255 129.352 43.8482 129.352ZM50.0469 139.144C49.4389 139.144 48.9269 139.037 48.5109 138.824C48.1056 138.6 47.8016 138.28 47.5989 137.864C47.3963 137.437 47.2949 136.92 47.2949 136.312V132.232H46.2229C46.0416 132.232 45.9029 132.189 45.8069 132.104C45.7109 132.008 45.6629 131.88 45.6629 131.72C45.6629 131.56 45.7109 131.437 45.8069 131.352C45.9029 131.267 46.0416 131.224 46.2229 131.224H47.2949V129.384C47.2949 129.171 47.3536 129.011 47.4709 128.904C47.5883 128.787 47.7483 128.728 47.9509 128.728C48.1536 128.728 48.3083 128.787 48.4149 128.904C48.5323 129.011 48.5909 129.171 48.5909 129.384V131.224H50.6069C50.7883 131.224 50.9269 131.267 51.0229 131.352C51.1189 131.437 51.1669 131.56 51.1669 131.72C51.1669 131.88 51.1189 132.008 51.0229 132.104C50.9269 132.189 50.7883 132.232 50.6069 132.232H48.5909V136.184C48.5909 136.792 48.7189 137.256 48.9749 137.576C49.2309 137.885 49.6469 138.04 50.2229 138.04C50.4256 138.04 50.5963 138.019 50.7349 137.976C50.8843 137.933 51.0069 137.912 51.1029 137.912C51.1989 137.901 51.2789 137.933 51.3429 138.008C51.4069 138.083 51.4389 138.211 51.4389 138.392C51.4389 138.52 51.4123 138.637 51.3589 138.744C51.3163 138.851 51.2363 138.925 51.1189 138.968C50.9909 139.011 50.8203 139.048 50.6069 139.08C50.4043 139.123 50.2176 139.144 50.0469 139.144ZM53.2544 139.08C53.0411 139.08 52.8811 139.021 52.7744 138.904C52.6678 138.776 52.6144 138.6 52.6144 138.376V131.832C52.6144 131.608 52.6678 131.437 52.7744 131.32C52.8811 131.203 53.0411 131.144 53.2544 131.144C53.4571 131.144 53.6171 131.203 53.7344 131.32C53.8518 131.437 53.9104 131.608 53.9104 131.832V138.376C53.9104 138.6 53.8518 138.776 53.7344 138.904C53.6278 139.021 53.4678 139.08 53.2544 139.08ZM53.2544 129.352C52.9878 129.352 52.7798 129.283 52.6304 129.144C52.4811 128.995 52.4064 128.797 52.4064 128.552C52.4064 128.296 52.4811 128.104 52.6304 127.976C52.7798 127.837 52.9878 127.768 53.2544 127.768C53.5318 127.768 53.7398 127.837 53.8784 127.976C54.0278 128.104 54.1024 128.296 54.1024 128.552C54.1024 128.797 54.0278 128.995 53.8784 129.144C53.7398 129.283 53.5318 129.352 53.2544 129.352ZM59.2292 139.112C59.0479 139.112 58.8879 139.064 58.7492 138.968C58.6105 138.861 58.4932 138.701 58.3972 138.488L55.6292 132.024C55.5545 131.864 55.5279 131.715 55.5492 131.576C55.5705 131.437 55.6345 131.325 55.7412 131.24C55.8479 131.155 55.9972 131.112 56.1892 131.112C56.3599 131.112 56.4932 131.149 56.5892 131.224C56.6852 131.299 56.7705 131.432 56.8452 131.624L59.4692 138.04H59.0372L61.7092 131.624C61.7839 131.432 61.8692 131.299 61.9652 131.224C62.0612 131.149 62.1999 131.112 62.3812 131.112C62.5519 131.112 62.6799 131.155 62.7652 131.24C62.8612 131.325 62.9145 131.437 62.9252 131.576C62.9465 131.704 62.9252 131.848 62.8612 132.008L60.0612 138.488C59.9865 138.701 59.8745 138.861 59.7252 138.968C59.5865 139.064 59.4212 139.112 59.2292 139.112ZM67.9622 139.144C67.1409 139.144 66.4315 138.984 65.8342 138.664C65.2475 138.333 64.7889 137.869 64.4582 137.272C64.1382 136.675 63.9782 135.96 63.9782 135.128C63.9782 134.317 64.1382 133.613 64.4582 133.016C64.7782 132.408 65.2155 131.933 65.7702 131.592C66.3355 131.251 66.9862 131.08 67.7222 131.08C68.2449 131.08 68.7142 131.171 69.1302 131.352C69.5462 131.523 69.8982 131.773 70.1862 132.104C70.4849 132.435 70.7089 132.835 70.8582 133.304C71.0182 133.773 71.0982 134.301 71.0982 134.888C71.0982 135.059 71.0502 135.187 70.9542 135.272C70.8582 135.347 70.7195 135.384 70.5382 135.384H64.9702V134.536H70.2342L69.9782 134.744C69.9782 134.168 69.8929 133.683 69.7222 133.288C69.5515 132.883 69.3009 132.573 68.9702 132.36C68.6502 132.147 68.2449 132.04 67.7542 132.04C67.2102 132.04 66.7462 132.168 66.3622 132.424C65.9889 132.669 65.7062 133.016 65.5142 133.464C65.3222 133.901 65.2262 134.413 65.2262 135V135.096C65.2262 136.077 65.4609 136.824 65.9302 137.336C66.4102 137.848 67.0875 138.104 67.9622 138.104C68.3249 138.104 68.6822 138.056 69.0342 137.96C69.3969 137.864 69.7489 137.704 70.0902 137.48C70.2395 137.384 70.3729 137.341 70.4902 137.352C70.6182 137.352 70.7195 137.389 70.7942 137.464C70.8689 137.528 70.9169 137.613 70.9382 137.72C70.9702 137.816 70.9595 137.923 70.9062 138.04C70.8635 138.157 70.7729 138.259 70.6342 138.344C70.2822 138.6 69.8662 138.797 69.3862 138.936C68.9062 139.075 68.4315 139.144 67.9622 139.144ZM80.0588 139.144C79.3655 139.144 78.7575 138.979 78.2348 138.648C77.7228 138.317 77.3228 137.853 77.0348 137.256C76.7575 136.648 76.6188 135.933 76.6188 135.112C76.6188 134.28 76.7575 133.565 77.0348 132.968C77.3228 132.36 77.7228 131.896 78.2348 131.576C78.7575 131.245 79.3655 131.08 80.0588 131.08C80.7628 131.08 81.3655 131.256 81.8668 131.608C82.3681 131.96 82.7041 132.435 82.8748 133.032H82.6988V128.264C82.6988 128.051 82.7521 127.891 82.8588 127.784C82.9761 127.667 83.1415 127.608 83.3548 127.608C83.5575 127.608 83.7121 127.667 83.8188 127.784C83.9361 127.891 83.9948 128.051 83.9948 128.264V138.44C83.9948 138.653 83.9415 138.819 83.8348 138.936C83.7281 139.053 83.5681 139.112 83.3548 139.112C83.1521 139.112 82.9921 139.053 82.8748 138.936C82.7681 138.819 82.7148 138.653 82.7148 138.44V136.92L82.8908 137.144C82.7201 137.752 82.3788 138.237 81.8668 138.6C81.3655 138.963 80.7628 139.144 80.0588 139.144ZM80.3308 138.104C80.8108 138.104 81.2321 137.987 81.5948 137.752C81.9575 137.517 82.2348 137.176 82.4268 136.728C82.6295 136.28 82.7308 135.741 82.7308 135.112C82.7308 134.141 82.5121 133.4 82.0748 132.888C81.6481 132.376 81.0668 132.12 80.3308 132.12C79.8401 132.12 79.4135 132.237 79.0508 132.472C78.6988 132.696 78.4215 133.032 78.2188 133.48C78.0268 133.917 77.9308 134.461 77.9308 135.112C77.9308 136.072 78.1495 136.813 78.5868 137.336C79.0241 137.848 79.6055 138.104 80.3308 138.104ZM89.9309 139.144C89.1096 139.144 88.4003 138.984 87.8029 138.664C87.2163 138.333 86.7576 137.869 86.4269 137.272C86.1069 136.675 85.9469 135.96 85.9469 135.128C85.9469 134.317 86.1069 133.613 86.4269 133.016C86.7469 132.408 87.1843 131.933 87.7389 131.592C88.3043 131.251 88.9549 131.08 89.6909 131.08C90.2136 131.08 90.6829 131.171 91.0989 131.352C91.5149 131.523 91.8669 131.773 92.1549 132.104C92.4536 132.435 92.6776 132.835 92.8269 133.304C92.9869 133.773 93.0669 134.301 93.0669 134.888C93.0669 135.059 93.0189 135.187 92.9229 135.272C92.8269 135.347 92.6883 135.384 92.5069 135.384H86.9389V134.536H92.2029L91.9469 134.744C91.9469 134.168 91.8616 133.683 91.6909 133.288C91.5203 132.883 91.2696 132.573 90.9389 132.36C90.6189 132.147 90.2136 132.04 89.7229 132.04C89.1789 132.04 88.7149 132.168 88.3309 132.424C87.9576 132.669 87.6749 133.016 87.4829 133.464C87.2909 133.901 87.1949 134.413 87.1949 135V135.096C87.1949 136.077 87.4296 136.824 87.8989 137.336C88.3789 137.848 89.0563 138.104 89.9309 138.104C90.2936 138.104 90.6509 138.056 91.0029 137.96C91.3656 137.864 91.7176 137.704 92.0589 137.48C92.2083 137.384 92.3416 137.341 92.4589 137.352C92.5869 137.352 92.6883 137.389 92.7629 137.464C92.8376 137.528 92.8856 137.613 92.9069 137.72C92.9389 137.816 92.9283 137.923 92.8749 138.04C92.8323 138.157 92.7416 138.259 92.6029 138.344C92.2509 138.6 91.8349 138.797 91.3549 138.936C90.8749 139.075 90.4003 139.144 89.9309 139.144ZM97.5666 139.144C97.0866 139.144 96.6012 139.085 96.1106 138.968C95.6306 138.851 95.1826 138.648 94.7666 138.36C94.6599 138.285 94.5852 138.2 94.5426 138.104C94.4999 137.997 94.4839 137.896 94.4946 137.8C94.5159 137.693 94.5586 137.603 94.6226 137.528C94.6972 137.453 94.7826 137.411 94.8786 137.4C94.9852 137.379 95.1026 137.4 95.2306 137.464C95.6466 137.72 96.0466 137.901 96.4306 138.008C96.8252 138.104 97.2146 138.152 97.5986 138.152C98.2066 138.152 98.6652 138.04 98.9746 137.816C99.2839 137.592 99.4386 137.288 99.4386 136.904C99.4386 136.605 99.3372 136.371 99.1346 136.2C98.9319 136.019 98.6119 135.88 98.1746 135.784L96.7186 135.464C96.0466 135.325 95.5452 135.085 95.2146 134.744C94.8946 134.403 94.7346 133.96 94.7346 133.416C94.7346 132.936 94.8572 132.525 95.1026 132.184C95.3586 131.832 95.7159 131.56 96.1746 131.368C96.6332 131.176 97.1666 131.08 97.7746 131.08C98.2439 131.08 98.6866 131.144 99.1026 131.272C99.5292 131.389 99.9132 131.581 100.255 131.848C100.361 131.923 100.431 132.013 100.463 132.12C100.505 132.216 100.511 132.317 100.479 132.424C100.457 132.52 100.409 132.605 100.335 132.68C100.26 132.744 100.169 132.781 100.063 132.792C99.9559 132.803 99.8439 132.771 99.7266 132.696C99.4066 132.483 99.0812 132.328 98.7506 132.232C98.4199 132.125 98.0946 132.072 97.7746 132.072C97.1772 132.072 96.7239 132.189 96.4146 132.424C96.1052 132.659 95.9506 132.968 95.9506 133.352C95.9506 133.651 96.0466 133.896 96.2386 134.088C96.4306 134.28 96.7292 134.419 97.1346 134.504L98.5906 134.808C99.2839 134.957 99.8012 135.197 100.143 135.528C100.495 135.848 100.671 136.285 100.671 136.84C100.671 137.544 100.388 138.104 99.8226 138.52C99.2572 138.936 98.5052 139.144 97.5666 139.144ZM103.286 139.08C103.072 139.08 102.912 139.021 102.806 138.904C102.699 138.776 102.646 138.6 102.646 138.376V131.832C102.646 131.608 102.699 131.437 102.806 131.32C102.912 131.203 103.072 131.144 103.286 131.144C103.488 131.144 103.648 131.203 103.766 131.32C103.883 131.437 103.942 131.608 103.942 131.832V138.376C103.942 138.6 103.883 138.776 103.766 138.904C103.659 139.021 103.499 139.08 103.286 139.08ZM103.286 129.352C103.019 129.352 102.811 129.283 102.662 129.144C102.512 128.995 102.438 128.797 102.438 128.552C102.438 128.296 102.512 128.104 102.662 127.976C102.811 127.837 103.019 127.768 103.286 127.768C103.563 127.768 103.771 127.837 103.91 127.976C104.059 128.104 104.134 128.296 104.134 128.552C104.134 128.797 104.059 128.995 103.91 129.144C103.771 129.283 103.563 129.352 103.286 129.352ZM109.804 142.024C109.239 142.024 108.684 141.955 108.14 141.816C107.607 141.688 107.122 141.48 106.684 141.192C106.556 141.117 106.471 141.027 106.428 140.92C106.396 140.813 106.391 140.707 106.412 140.6C106.434 140.504 106.482 140.413 106.556 140.328C106.631 140.253 106.716 140.205 106.812 140.184C106.919 140.163 107.026 140.179 107.132 140.232C107.602 140.52 108.05 140.717 108.476 140.824C108.903 140.931 109.324 140.984 109.74 140.984C110.498 140.984 111.068 140.781 111.452 140.376C111.847 139.971 112.044 139.384 112.044 138.616V136.808H112.204C112.044 137.427 111.703 137.917 111.18 138.28C110.668 138.643 110.066 138.824 109.372 138.824C108.658 138.824 108.039 138.664 107.516 138.344C106.994 138.013 106.588 137.555 106.3 136.968C106.023 136.381 105.884 135.704 105.884 134.936C105.884 134.36 105.964 133.837 106.124 133.368C106.284 132.888 106.514 132.483 106.812 132.152C107.122 131.811 107.49 131.549 107.916 131.368C108.354 131.176 108.839 131.08 109.372 131.08C110.076 131.08 110.684 131.261 111.196 131.624C111.708 131.976 112.039 132.456 112.188 133.064L112.028 133.256V131.768C112.028 131.555 112.082 131.395 112.188 131.288C112.306 131.171 112.466 131.112 112.668 131.112C112.882 131.112 113.042 131.171 113.148 131.288C113.255 131.395 113.308 131.555 113.308 131.768V138.44C113.308 139.624 113.01 140.515 112.412 141.112C111.826 141.72 110.956 142.024 109.804 142.024ZM109.612 137.768C110.114 137.768 110.546 137.656 110.908 137.432C111.271 137.197 111.548 136.867 111.74 136.44C111.943 136.013 112.044 135.512 112.044 134.936C112.044 134.072 111.826 133.389 111.388 132.888C110.951 132.376 110.359 132.12 109.612 132.12C109.122 132.12 108.695 132.237 108.332 132.472C107.97 132.696 107.687 133.021 107.484 133.448C107.292 133.864 107.196 134.36 107.196 134.936C107.196 135.8 107.415 136.488 107.852 137C108.29 137.512 108.876 137.768 109.612 137.768ZM116.379 139.112C116.166 139.112 116.006 139.053 115.899 138.936C115.793 138.819 115.739 138.653 115.739 138.44V131.768C115.739 131.555 115.793 131.395 115.899 131.288C116.006 131.171 116.161 131.112 116.363 131.112C116.566 131.112 116.721 131.171 116.827 131.288C116.945 131.395 117.003 131.555 117.003 131.768V133.144L116.827 132.952C117.051 132.333 117.414 131.869 117.915 131.56C118.427 131.24 119.014 131.08 119.675 131.08C120.294 131.08 120.806 131.192 121.211 131.416C121.627 131.64 121.937 131.981 122.139 132.44C122.342 132.888 122.443 133.459 122.443 134.152V138.44C122.443 138.653 122.385 138.819 122.267 138.936C122.161 139.053 122.006 139.112 121.803 139.112C121.59 139.112 121.425 139.053 121.307 138.936C121.201 138.819 121.147 138.653 121.147 138.44V134.232C121.147 133.507 121.003 132.979 120.715 132.648C120.438 132.307 119.99 132.136 119.371 132.136C118.657 132.136 118.086 132.36 117.659 132.808C117.243 133.245 117.035 133.832 117.035 134.568V138.44C117.035 138.888 116.817 139.112 116.379 139.112ZM129.63 139.112C129.417 139.112 129.257 139.053 129.15 138.936C129.044 138.819 128.99 138.653 128.99 138.44V131.768C128.99 131.555 129.044 131.395 129.15 131.288C129.257 131.171 129.412 131.112 129.614 131.112C129.817 131.112 129.972 131.171 130.078 131.288C130.196 131.395 130.254 131.555 130.254 131.768V133.176L130.078 132.952C130.281 132.355 130.606 131.896 131.054 131.576C131.513 131.245 132.057 131.08 132.686 131.08C133.348 131.08 133.881 131.24 134.286 131.56C134.702 131.869 134.98 132.355 135.118 133.016H134.878C135.07 132.419 135.412 131.949 135.902 131.608C136.404 131.256 136.985 131.08 137.646 131.08C138.233 131.08 138.713 131.192 139.086 131.416C139.47 131.64 139.758 131.981 139.95 132.44C140.142 132.888 140.238 133.459 140.238 134.152V138.44C140.238 138.653 140.18 138.819 140.062 138.936C139.956 139.053 139.796 139.112 139.582 139.112C139.38 139.112 139.22 139.053 139.102 138.936C138.996 138.819 138.942 138.653 138.942 138.44V134.216C138.942 133.501 138.82 132.979 138.574 132.648C138.329 132.307 137.913 132.136 137.326 132.136C136.686 132.136 136.18 132.36 135.806 132.808C135.444 133.245 135.262 133.843 135.262 134.6V138.44C135.262 138.653 135.204 138.819 135.086 138.936C134.98 139.053 134.82 139.112 134.606 139.112C134.404 139.112 134.244 139.053 134.126 138.936C134.02 138.819 133.966 138.653 133.966 138.44V134.216C133.966 133.501 133.838 132.979 133.582 132.648C133.337 132.307 132.926 132.136 132.35 132.136C131.71 132.136 131.204 132.36 130.83 132.808C130.468 133.245 130.286 133.843 130.286 134.6V138.44C130.286 138.888 130.068 139.112 129.63 139.112ZM145.109 139.144C144.576 139.144 144.096 139.043 143.669 138.84C143.253 138.627 142.923 138.339 142.677 137.976C142.432 137.613 142.309 137.208 142.309 136.76C142.309 136.184 142.453 135.731 142.741 135.4C143.04 135.069 143.525 134.835 144.197 134.696C144.88 134.557 145.808 134.488 146.981 134.488H147.701V135.336H146.997C146.133 135.336 145.451 135.379 144.949 135.464C144.459 135.539 144.112 135.672 143.909 135.864C143.717 136.056 143.621 136.328 143.621 136.68C143.621 137.117 143.771 137.475 144.069 137.752C144.379 138.029 144.795 138.168 145.317 138.168C145.744 138.168 146.117 138.067 146.437 137.864C146.768 137.661 147.024 137.384 147.205 137.032C147.397 136.68 147.493 136.275 147.493 135.816V133.992C147.493 133.331 147.36 132.856 147.093 132.568C146.827 132.269 146.389 132.12 145.781 132.12C145.408 132.12 145.035 132.168 144.661 132.264C144.288 132.36 143.893 132.515 143.477 132.728C143.328 132.803 143.2 132.829 143.093 132.808C142.987 132.776 142.901 132.717 142.837 132.632C142.773 132.547 142.736 132.451 142.725 132.344C142.715 132.227 142.736 132.115 142.789 132.008C142.853 131.901 142.949 131.816 143.077 131.752C143.547 131.517 144.011 131.347 144.469 131.24C144.928 131.133 145.365 131.08 145.781 131.08C146.453 131.08 147.008 131.192 147.445 131.416C147.883 131.629 148.208 131.96 148.421 132.408C148.635 132.845 148.741 133.411 148.741 134.104V138.44C148.741 138.653 148.688 138.819 148.581 138.936C148.485 139.053 148.341 139.112 148.149 139.112C147.947 139.112 147.792 139.053 147.685 138.936C147.579 138.819 147.525 138.653 147.525 138.44V137.192H147.669C147.584 137.597 147.419 137.944 147.173 138.232C146.939 138.52 146.645 138.744 146.293 138.904C145.941 139.064 145.547 139.144 145.109 139.144ZM151.786 139.112C151.572 139.112 151.412 139.053 151.306 138.936C151.199 138.819 151.146 138.653 151.146 138.44V128.264C151.146 128.051 151.199 127.891 151.306 127.784C151.412 127.667 151.572 127.608 151.786 127.608C151.988 127.608 152.148 127.667 152.266 127.784C152.383 127.891 152.442 128.051 152.442 128.264V134.68H152.474L155.754 131.544C155.903 131.405 156.031 131.299 156.138 131.224C156.255 131.149 156.41 131.112 156.602 131.112C156.772 131.112 156.906 131.16 157.002 131.256C157.098 131.341 157.14 131.453 157.13 131.592C157.13 131.72 157.066 131.859 156.938 132.008L153.45 135.32V134.616L157.242 138.184C157.391 138.333 157.466 138.477 157.466 138.616C157.466 138.755 157.412 138.872 157.306 138.968C157.21 139.064 157.082 139.112 156.922 139.112C156.73 139.112 156.575 139.075 156.458 139C156.34 138.915 156.196 138.792 156.026 138.632L152.474 135.352H152.442V138.44C152.442 138.888 152.223 139.112 151.786 139.112ZM162.447 139.144C161.625 139.144 160.916 138.984 160.319 138.664C159.732 138.333 159.273 137.869 158.943 137.272C158.623 136.675 158.463 135.96 158.463 135.128C158.463 134.317 158.623 133.613 158.943 133.016C159.263 132.408 159.7 131.933 160.255 131.592C160.82 131.251 161.471 131.08 162.207 131.08C162.729 131.08 163.199 131.171 163.615 131.352C164.031 131.523 164.383 131.773 164.671 132.104C164.969 132.435 165.193 132.835 165.343 133.304C165.503 133.773 165.583 134.301 165.583 134.888C165.583 135.059 165.535 135.187 165.439 135.272C165.343 135.347 165.204 135.384 165.023 135.384H159.455V134.536H164.719L164.463 134.744C164.463 134.168 164.377 133.683 164.207 133.288C164.036 132.883 163.785 132.573 163.455 132.36C163.135 132.147 162.729 132.04 162.239 132.04C161.695 132.04 161.231 132.168 160.847 132.424C160.473 132.669 160.191 133.016 159.999 133.464C159.807 133.901 159.711 134.413 159.711 135V135.096C159.711 136.077 159.945 136.824 160.415 137.336C160.895 137.848 161.572 138.104 162.447 138.104C162.809 138.104 163.167 138.056 163.519 137.96C163.881 137.864 164.233 137.704 164.575 137.48C164.724 137.384 164.857 137.341 164.975 137.352C165.103 137.352 165.204 137.389 165.279 137.464C165.353 137.528 165.401 137.613 165.423 137.72C165.455 137.816 165.444 137.923 165.391 138.04C165.348 138.157 165.257 138.259 165.119 138.344C164.767 138.6 164.351 138.797 163.871 138.936C163.391 139.075 162.916 139.144 162.447 139.144ZM170.082 139.144C169.602 139.144 169.117 139.085 168.626 138.968C168.146 138.851 167.698 138.648 167.282 138.36C167.176 138.285 167.101 138.2 167.058 138.104C167.016 137.997 167 137.896 167.01 137.8C167.032 137.693 167.074 137.603 167.138 137.528C167.213 137.453 167.298 137.411 167.394 137.4C167.501 137.379 167.618 137.4 167.746 137.464C168.162 137.72 168.562 137.901 168.946 138.008C169.341 138.104 169.73 138.152 170.114 138.152C170.722 138.152 171.181 138.04 171.49 137.816C171.8 137.592 171.954 137.288 171.954 136.904C171.954 136.605 171.853 136.371 171.65 136.2C171.448 136.019 171.128 135.88 170.69 135.784L169.234 135.464C168.562 135.325 168.061 135.085 167.73 134.744C167.41 134.403 167.25 133.96 167.25 133.416C167.25 132.936 167.373 132.525 167.618 132.184C167.874 131.832 168.232 131.56 168.69 131.368C169.149 131.176 169.682 131.08 170.29 131.08C170.76 131.08 171.202 131.144 171.618 131.272C172.045 131.389 172.429 131.581 172.77 131.848C172.877 131.923 172.946 132.013 172.978 132.12C173.021 132.216 173.026 132.317 172.994 132.424C172.973 132.52 172.925 132.605 172.85 132.68C172.776 132.744 172.685 132.781 172.578 132.792C172.472 132.803 172.36 132.771 172.242 132.696C171.922 132.483 171.597 132.328 171.266 132.232C170.936 132.125 170.61 132.072 170.29 132.072C169.693 132.072 169.24 132.189 168.93 132.424C168.621 132.659 168.466 132.968 168.466 133.352C168.466 133.651 168.562 133.896 168.754 134.088C168.946 134.28 169.245 134.419 169.65 134.504L171.106 134.808C171.8 134.957 172.317 135.197 172.658 135.528C173.01 135.848 173.186 136.285 173.186 136.84C173.186 137.544 172.904 138.104 172.338 138.52C171.773 138.936 171.021 139.144 170.082 139.144ZM181.974 139.112C181.793 139.112 181.633 139.064 181.494 138.968C181.356 138.872 181.244 138.717 181.158 138.504L178.774 132.024C178.71 131.843 178.689 131.683 178.71 131.544C178.742 131.405 178.812 131.299 178.918 131.224C179.025 131.149 179.158 131.112 179.318 131.112C179.478 131.112 179.606 131.149 179.702 131.224C179.809 131.299 179.894 131.437 179.958 131.64L182.198 138.04H181.814L184.118 131.64C184.193 131.448 184.284 131.315 184.39 131.24C184.508 131.155 184.657 131.112 184.838 131.112C185.009 131.112 185.153 131.155 185.27 131.24C185.388 131.325 185.478 131.459 185.542 131.64L187.798 138.04H187.43L189.702 131.608C189.777 131.416 189.868 131.288 189.974 131.224C190.081 131.149 190.209 131.112 190.358 131.112C190.529 131.112 190.657 131.155 190.742 131.24C190.838 131.325 190.892 131.437 190.902 131.576C190.913 131.715 190.886 131.864 190.822 132.024L188.438 138.504C188.364 138.707 188.252 138.861 188.102 138.968C187.964 139.064 187.804 139.112 187.622 139.112C187.441 139.112 187.281 139.064 187.142 138.968C187.004 138.861 186.897 138.707 186.822 138.504L184.454 132.008H185.142L182.79 138.504C182.716 138.707 182.609 138.861 182.47 138.968C182.332 139.064 182.166 139.112 181.974 139.112ZM195.031 139.144C194.498 139.144 194.018 139.043 193.591 138.84C193.175 138.627 192.845 138.339 192.599 137.976C192.354 137.613 192.231 137.208 192.231 136.76C192.231 136.184 192.375 135.731 192.663 135.4C192.962 135.069 193.447 134.835 194.119 134.696C194.802 134.557 195.73 134.488 196.903 134.488H197.623V135.336H196.919C196.055 135.336 195.373 135.379 194.871 135.464C194.381 135.539 194.034 135.672 193.831 135.864C193.639 136.056 193.543 136.328 193.543 136.68C193.543 137.117 193.693 137.475 193.991 137.752C194.301 138.029 194.717 138.168 195.239 138.168C195.666 138.168 196.039 138.067 196.359 137.864C196.69 137.661 196.946 137.384 197.127 137.032C197.319 136.68 197.415 136.275 197.415 135.816V133.992C197.415 133.331 197.282 132.856 197.015 132.568C196.749 132.269 196.311 132.12 195.703 132.12C195.33 132.12 194.957 132.168 194.583 132.264C194.21 132.36 193.815 132.515 193.399 132.728C193.25 132.803 193.122 132.829 193.015 132.808C192.909 132.776 192.823 132.717 192.759 132.632C192.695 132.547 192.658 132.451 192.647 132.344C192.637 132.227 192.658 132.115 192.711 132.008C192.775 131.901 192.871 131.816 192.999 131.752C193.469 131.517 193.933 131.347 194.391 131.24C194.85 131.133 195.287 131.08 195.703 131.08C196.375 131.08 196.93 131.192 197.367 131.416C197.805 131.629 198.13 131.96 198.343 132.408C198.557 132.845 198.663 133.411 198.663 134.104V138.44C198.663 138.653 198.61 138.819 198.503 138.936C198.407 139.053 198.263 139.112 198.071 139.112C197.869 139.112 197.714 139.053 197.607 138.936C197.501 138.819 197.447 138.653 197.447 138.44V137.192H197.591C197.506 137.597 197.341 137.944 197.095 138.232C196.861 138.52 196.567 138.744 196.215 138.904C195.863 139.064 195.469 139.144 195.031 139.144ZM204.188 139.144C203.58 139.144 203.068 139.037 202.652 138.824C202.246 138.6 201.942 138.28 201.74 137.864C201.537 137.437 201.436 136.92 201.436 136.312V132.232H200.364C200.182 132.232 200.044 132.189 199.948 132.104C199.852 132.008 199.804 131.88 199.804 131.72C199.804 131.56 199.852 131.437 199.948 131.352C200.044 131.267 200.182 131.224 200.364 131.224H201.436V129.384C201.436 129.171 201.494 129.011 201.612 128.904C201.729 128.787 201.889 128.728 202.092 128.728C202.294 128.728 202.449 128.787 202.556 128.904C202.673 129.011 202.732 129.171 202.732 129.384V131.224H204.748C204.929 131.224 205.068 131.267 205.164 131.352C205.26 131.437 205.308 131.56 205.308 131.72C205.308 131.88 205.26 132.008 205.164 132.104C205.068 132.189 204.929 132.232 204.748 132.232H202.732V136.184C202.732 136.792 202.86 137.256 203.116 137.576C203.372 137.885 203.788 138.04 204.364 138.04C204.566 138.04 204.737 138.019 204.876 137.976C205.025 137.933 205.148 137.912 205.244 137.912C205.34 137.901 205.42 137.933 205.484 138.008C205.548 138.083 205.58 138.211 205.58 138.392C205.58 138.52 205.553 138.637 205.5 138.744C205.457 138.851 205.377 138.925 205.26 138.968C205.132 139.011 204.961 139.048 204.748 139.08C204.545 139.123 204.358 139.144 204.188 139.144ZM210.087 139.144C209.266 139.144 208.557 138.984 207.959 138.664C207.373 138.333 206.914 137.869 206.583 137.272C206.263 136.675 206.103 135.96 206.103 135.128C206.103 134.317 206.263 133.613 206.583 133.016C206.903 132.408 207.341 131.933 207.895 131.592C208.461 131.251 209.111 131.08 209.847 131.08C210.37 131.08 210.839 131.171 211.255 131.352C211.671 131.523 212.023 131.773 212.311 132.104C212.61 132.435 212.834 132.835 212.983 133.304C213.143 133.773 213.223 134.301 213.223 134.888C213.223 135.059 213.175 135.187 213.079 135.272C212.983 135.347 212.845 135.384 212.663 135.384H207.095V134.536H212.359L212.103 134.744C212.103 134.168 212.018 133.683 211.847 133.288C211.677 132.883 211.426 132.573 211.095 132.36C210.775 132.147 210.37 132.04 209.879 132.04C209.335 132.04 208.871 132.168 208.487 132.424C208.114 132.669 207.831 133.016 207.639 133.464C207.447 133.901 207.351 134.413 207.351 135V135.096C207.351 136.077 207.586 136.824 208.055 137.336C208.535 137.848 209.213 138.104 210.087 138.104C210.45 138.104 210.807 138.056 211.159 137.96C211.522 137.864 211.874 137.704 212.215 137.48C212.365 137.384 212.498 137.341 212.615 137.352C212.743 137.352 212.845 137.389 212.919 137.464C212.994 137.528 213.042 137.613 213.063 137.72C213.095 137.816 213.085 137.923 213.031 138.04C212.989 138.157 212.898 138.259 212.759 138.344C212.407 138.6 211.991 138.797 211.511 138.936C211.031 139.075 210.557 139.144 210.087 139.144ZM218.603 139.144C217.781 139.144 217.072 138.984 216.475 138.664C215.888 138.333 215.429 137.869 215.099 137.272C214.779 136.675 214.619 135.96 214.619 135.128C214.619 134.317 214.779 133.613 215.099 133.016C215.419 132.408 215.856 131.933 216.411 131.592C216.976 131.251 217.627 131.08 218.363 131.08C218.885 131.08 219.355 131.171 219.771 131.352C220.187 131.523 220.539 131.773 220.827 132.104C221.125 132.435 221.349 132.835 221.499 133.304C221.659 133.773 221.739 134.301 221.739 134.888C221.739 135.059 221.691 135.187 221.595 135.272C221.499 135.347 221.36 135.384 221.179 135.384H215.611V134.536H220.875L220.619 134.744C220.619 134.168 220.533 133.683 220.363 133.288C220.192 132.883 219.941 132.573 219.611 132.36C219.291 132.147 218.885 132.04 218.395 132.04C217.851 132.04 217.387 132.168 217.003 132.424C216.629 132.669 216.347 133.016 216.155 133.464C215.963 133.901 215.867 134.413 215.867 135V135.096C215.867 136.077 216.101 136.824 216.571 137.336C217.051 137.848 217.728 138.104 218.603 138.104C218.965 138.104 219.323 138.056 219.675 137.96C220.037 137.864 220.389 137.704 220.731 137.48C220.88 137.384 221.013 137.341 221.131 137.352C221.259 137.352 221.36 137.389 221.435 137.464C221.509 137.528 221.557 137.613 221.579 137.72C221.611 137.816 221.6 137.923 221.547 138.04C221.504 138.157 221.413 138.259 221.275 138.344C220.923 138.6 220.507 138.797 220.027 138.936C219.547 139.075 219.072 139.144 218.603 139.144ZM224.254 139.112C224.041 139.112 223.881 139.053 223.774 138.936C223.668 138.819 223.614 138.653 223.614 138.44V131.768C223.614 131.555 223.668 131.395 223.774 131.288C223.881 131.171 224.036 131.112 224.238 131.112C224.441 131.112 224.596 131.171 224.702 131.288C224.82 131.395 224.878 131.555 224.878 131.768V133.144L224.702 132.952C224.926 132.333 225.289 131.869 225.79 131.56C226.302 131.24 226.889 131.08 227.55 131.08C228.169 131.08 228.681 131.192 229.086 131.416C229.502 131.64 229.812 131.981 230.014 132.44C230.217 132.888 230.318 133.459 230.318 134.152V138.44C230.318 138.653 230.26 138.819 230.142 138.936C230.036 139.053 229.881 139.112 229.678 139.112C229.465 139.112 229.3 139.053 229.182 138.936C229.076 138.819 229.022 138.653 229.022 138.44V134.232C229.022 133.507 228.878 132.979 228.59 132.648C228.313 132.307 227.865 132.136 227.246 132.136C226.532 132.136 225.961 132.36 225.534 132.808C225.118 133.245 224.91 133.832 224.91 134.568V138.44C224.91 138.888 224.692 139.112 224.254 139.112ZM240.337 139.144C239.516 139.144 238.807 138.984 238.209 138.664C237.623 138.333 237.164 137.869 236.833 137.272C236.513 136.675 236.353 135.96 236.353 135.128C236.353 134.317 236.513 133.613 236.833 133.016C237.153 132.408 237.591 131.933 238.145 131.592C238.711 131.251 239.361 131.08 240.097 131.08C240.62 131.08 241.089 131.171 241.505 131.352C241.921 131.523 242.273 131.773 242.561 132.104C242.86 132.435 243.084 132.835 243.233 133.304C243.393 133.773 243.473 134.301 243.473 134.888C243.473 135.059 243.425 135.187 243.329 135.272C243.233 135.347 243.095 135.384 242.913 135.384H237.345V134.536H242.609L242.353 134.744C242.353 134.168 242.268 133.683 242.097 133.288C241.927 132.883 241.676 132.573 241.345 132.36C241.025 132.147 240.62 132.04 240.129 132.04C239.585 132.04 239.121 132.168 238.737 132.424C238.364 132.669 238.081 133.016 237.889 133.464C237.697 133.901 237.601 134.413 237.601 135V135.096C237.601 136.077 237.836 136.824 238.305 137.336C238.785 137.848 239.463 138.104 240.337 138.104C240.7 138.104 241.057 138.056 241.409 137.96C241.772 137.864 242.124 137.704 242.465 137.48C242.615 137.384 242.748 137.341 242.865 137.352C242.993 137.352 243.095 137.389 243.169 137.464C243.244 137.528 243.292 137.613 243.313 137.72C243.345 137.816 243.335 137.923 243.281 138.04C243.239 138.157 243.148 138.259 243.009 138.344C242.657 138.6 242.241 138.797 241.761 138.936C241.281 139.075 240.807 139.144 240.337 139.144ZM247.797 139.144C247.263 139.144 246.783 139.043 246.357 138.84C245.941 138.627 245.61 138.339 245.365 137.976C245.119 137.613 244.997 137.208 244.997 136.76C244.997 136.184 245.141 135.731 245.429 135.4C245.727 135.069 246.213 134.835 246.885 134.696C247.567 134.557 248.495 134.488 249.669 134.488H250.389V135.336H249.685C248.821 135.336 248.138 135.379 247.637 135.464C247.146 135.539 246.799 135.672 246.597 135.864C246.405 136.056 246.309 136.328 246.309 136.68C246.309 137.117 246.458 137.475 246.757 137.752C247.066 138.029 247.482 138.168 248.005 138.168C248.431 138.168 248.805 138.067 249.125 137.864C249.455 137.661 249.711 137.384 249.893 137.032C250.085 136.68 250.181 136.275 250.181 135.816V133.992C250.181 133.331 250.047 132.856 249.781 132.568C249.514 132.269 249.077 132.12 248.469 132.12C248.095 132.12 247.722 132.168 247.349 132.264C246.975 132.36 246.581 132.515 246.165 132.728C246.015 132.803 245.887 132.829 245.781 132.808C245.674 132.776 245.589 132.717 245.525 132.632C245.461 132.547 245.423 132.451 245.413 132.344C245.402 132.227 245.423 132.115 245.477 132.008C245.541 131.901 245.637 131.816 245.765 131.752C246.234 131.517 246.698 131.347 247.157 131.24C247.615 131.133 248.053 131.08 248.469 131.08C249.141 131.08 249.695 131.192 250.133 131.416C250.57 131.629 250.895 131.96 251.109 132.408C251.322 132.845 251.429 133.411 251.429 134.104V138.44C251.429 138.653 251.375 138.819 251.269 138.936C251.173 139.053 251.029 139.112 250.837 139.112C250.634 139.112 250.479 139.053 250.373 138.936C250.266 138.819 250.213 138.653 250.213 138.44V137.192H250.357C250.271 137.597 250.106 137.944 249.861 138.232C249.626 138.52 249.333 138.744 248.981 138.904C248.629 139.064 248.234 139.144 247.797 139.144ZM256.457 139.144C255.977 139.144 255.492 139.085 255.001 138.968C254.521 138.851 254.073 138.648 253.657 138.36C253.551 138.285 253.476 138.2 253.433 138.104C253.391 137.997 253.375 137.896 253.385 137.8C253.407 137.693 253.449 137.603 253.513 137.528C253.588 137.453 253.673 137.411 253.769 137.4C253.876 137.379 253.993 137.4 254.121 137.464C254.537 137.72 254.937 137.901 255.321 138.008C255.716 138.104 256.105 138.152 256.489 138.152C257.097 138.152 257.556 138.04 257.865 137.816C258.175 137.592 258.329 137.288 258.329 136.904C258.329 136.605 258.228 136.371 258.025 136.2C257.823 136.019 257.503 135.88 257.065 135.784L255.609 135.464C254.937 135.325 254.436 135.085 254.105 134.744C253.785 134.403 253.625 133.96 253.625 133.416C253.625 132.936 253.748 132.525 253.993 132.184C254.249 131.832 254.607 131.56 255.065 131.368C255.524 131.176 256.057 131.08 256.665 131.08C257.135 131.08 257.577 131.144 257.993 131.272C258.42 131.389 258.804 131.581 259.145 131.848C259.252 131.923 259.321 132.013 259.353 132.12C259.396 132.216 259.401 132.317 259.369 132.424C259.348 132.52 259.3 132.605 259.225 132.68C259.151 132.744 259.06 132.781 258.953 132.792C258.847 132.803 258.735 132.771 258.617 132.696C258.297 132.483 257.972 132.328 257.641 132.232C257.311 132.125 256.985 132.072 256.665 132.072C256.068 132.072 255.615 132.189 255.305 132.424C254.996 132.659 254.841 132.968 254.841 133.352C254.841 133.651 254.937 133.896 255.129 134.088C255.321 134.28 255.62 134.419 256.025 134.504L257.481 134.808C258.175 134.957 258.692 135.197 259.033 135.528C259.385 135.848 259.561 136.285 259.561 136.84C259.561 137.544 259.279 138.104 258.713 138.52C258.148 138.936 257.396 139.144 256.457 139.144ZM263.108 141.992C262.948 141.992 262.82 141.949 262.724 141.864C262.628 141.779 262.569 141.661 262.548 141.512C262.537 141.373 262.564 141.229 262.628 141.08L263.732 138.6V139.16L260.66 132.024C260.596 131.864 260.575 131.715 260.596 131.576C260.617 131.437 260.681 131.325 260.788 131.24C260.895 131.155 261.044 131.112 261.236 131.112C261.407 131.112 261.54 131.149 261.636 131.224C261.732 131.299 261.817 131.432 261.892 131.624L264.516 138.056H264.084L266.74 131.624C266.825 131.432 266.916 131.299 267.012 131.224C267.108 131.149 267.247 131.112 267.428 131.112C267.599 131.112 267.727 131.155 267.812 131.24C267.908 131.325 267.961 131.437 267.972 131.576C267.993 131.704 267.972 131.848 267.908 132.008L263.812 141.48C263.727 141.672 263.631 141.805 263.524 141.88C263.428 141.955 263.289 141.992 263.108 141.992ZM276.844 139.144C276.236 139.144 275.724 139.037 275.308 138.824C274.902 138.6 274.598 138.28 274.396 137.864C274.193 137.437 274.092 136.92 274.092 136.312V132.232H273.02C272.838 132.232 272.7 132.189 272.604 132.104C272.508 132.008 272.46 131.88 272.46 131.72C272.46 131.56 272.508 131.437 272.604 131.352C272.7 131.267 272.838 131.224 273.02 131.224H274.092V129.384C274.092 129.171 274.15 129.011 274.268 128.904C274.385 128.787 274.545 128.728 274.748 128.728C274.95 128.728 275.105 128.787 275.212 128.904C275.329 129.011 275.388 129.171 275.388 129.384V131.224H277.404C277.585 131.224 277.724 131.267 277.82 131.352C277.916 131.437 277.964 131.56 277.964 131.72C277.964 131.88 277.916 132.008 277.82 132.104C277.724 132.189 277.585 132.232 277.404 132.232H275.388V136.184C275.388 136.792 275.516 137.256 275.772 137.576C276.028 137.885 276.444 138.04 277.02 138.04C277.222 138.04 277.393 138.019 277.532 137.976C277.681 137.933 277.804 137.912 277.9 137.912C277.996 137.901 278.076 137.933 278.14 138.008C278.204 138.083 278.236 138.211 278.236 138.392C278.236 138.52 278.209 138.637 278.156 138.744C278.113 138.851 278.033 138.925 277.916 138.968C277.788 139.011 277.617 139.048 277.404 139.08C277.201 139.123 277.014 139.144 276.844 139.144ZM282.471 139.144C281.714 139.144 281.058 138.979 280.503 138.648C279.949 138.317 279.517 137.853 279.207 137.256C278.909 136.648 278.759 135.933 278.759 135.112C278.759 134.493 278.845 133.939 279.015 133.448C279.186 132.947 279.437 132.52 279.767 132.168C280.098 131.816 280.487 131.549 280.935 131.368C281.394 131.176 281.906 131.08 282.471 131.08C283.229 131.08 283.885 131.245 284.439 131.576C284.994 131.907 285.421 132.376 285.719 132.984C286.029 133.581 286.183 134.291 286.183 135.112C286.183 135.731 286.098 136.285 285.927 136.776C285.757 137.267 285.506 137.693 285.175 138.056C284.845 138.408 284.45 138.68 283.991 138.872C283.543 139.053 283.037 139.144 282.471 139.144ZM282.471 138.104C282.951 138.104 283.373 137.987 283.735 137.752C284.098 137.517 284.375 137.176 284.567 136.728C284.77 136.28 284.871 135.741 284.871 135.112C284.871 134.141 284.653 133.4 284.215 132.888C283.789 132.376 283.207 132.12 282.471 132.12C281.981 132.12 281.554 132.237 281.191 132.472C280.839 132.696 280.562 133.032 280.359 133.48C280.167 133.917 280.071 134.461 280.071 135.112C280.071 136.072 280.29 136.813 280.727 137.336C281.165 137.848 281.746 138.104 282.471 138.104ZM292.895 139.112C292.682 139.112 292.522 139.053 292.415 138.936C292.308 138.819 292.255 138.653 292.255 138.44V131.768C292.255 131.555 292.308 131.395 292.415 131.288C292.522 131.171 292.676 131.112 292.879 131.112C293.082 131.112 293.236 131.171 293.343 131.288C293.46 131.395 293.519 131.555 293.519 131.768V133.144L293.343 132.952C293.567 132.333 293.93 131.869 294.431 131.56C294.943 131.24 295.53 131.08 296.191 131.08C296.81 131.08 297.322 131.192 297.727 131.416C298.143 131.64 298.452 131.981 298.655 132.44C298.858 132.888 298.959 133.459 298.959 134.152V138.44C298.959 138.653 298.9 138.819 298.783 138.936C298.676 139.053 298.522 139.112 298.319 139.112C298.106 139.112 297.94 139.053 297.823 138.936C297.716 138.819 297.663 138.653 297.663 138.44V134.232C297.663 133.507 297.519 132.979 297.231 132.648C296.954 132.307 296.506 132.136 295.887 132.136C295.172 132.136 294.602 132.36 294.175 132.808C293.759 133.245 293.551 133.832 293.551 134.568V138.44C293.551 138.888 293.332 139.112 292.895 139.112ZM303.797 139.144C303.263 139.144 302.783 139.043 302.357 138.84C301.941 138.627 301.61 138.339 301.365 137.976C301.119 137.613 300.997 137.208 300.997 136.76C300.997 136.184 301.141 135.731 301.429 135.4C301.727 135.069 302.213 134.835 302.885 134.696C303.567 134.557 304.495 134.488 305.669 134.488H306.389V135.336H305.685C304.821 135.336 304.138 135.379 303.637 135.464C303.146 135.539 302.799 135.672 302.597 135.864C302.405 136.056 302.309 136.328 302.309 136.68C302.309 137.117 302.458 137.475 302.757 137.752C303.066 138.029 303.482 138.168 304.005 138.168C304.431 138.168 304.805 138.067 305.125 137.864C305.455 137.661 305.711 137.384 305.893 137.032C306.085 136.68 306.181 136.275 306.181 135.816V133.992C306.181 133.331 306.047 132.856 305.781 132.568C305.514 132.269 305.077 132.12 304.469 132.12C304.095 132.12 303.722 132.168 303.349 132.264C302.975 132.36 302.581 132.515 302.165 132.728C302.015 132.803 301.887 132.829 301.781 132.808C301.674 132.776 301.589 132.717 301.525 132.632C301.461 132.547 301.423 132.451 301.413 132.344C301.402 132.227 301.423 132.115 301.477 132.008C301.541 131.901 301.637 131.816 301.765 131.752C302.234 131.517 302.698 131.347 303.157 131.24C303.615 131.133 304.053 131.08 304.469 131.08C305.141 131.08 305.695 131.192 306.133 131.416C306.57 131.629 306.895 131.96 307.109 132.408C307.322 132.845 307.429 133.411 307.429 134.104V138.44C307.429 138.653 307.375 138.819 307.269 138.936C307.173 139.053 307.029 139.112 306.837 139.112C306.634 139.112 306.479 139.053 306.373 138.936C306.266 138.819 306.213 138.653 306.213 138.44V137.192H306.357C306.271 137.597 306.106 137.944 305.861 138.232C305.626 138.52 305.333 138.744 304.981 138.904C304.629 139.064 304.234 139.144 303.797 139.144ZM312.651 139.112C312.47 139.112 312.31 139.064 312.171 138.968C312.032 138.861 311.915 138.701 311.819 138.488L309.051 132.024C308.976 131.864 308.95 131.715 308.971 131.576C308.992 131.437 309.056 131.325 309.163 131.24C309.27 131.155 309.419 131.112 309.611 131.112C309.782 131.112 309.915 131.149 310.011 131.224C310.107 131.299 310.192 131.432 310.267 131.624L312.891 138.04H312.459L315.131 131.624C315.206 131.432 315.291 131.299 315.387 131.224C315.483 131.149 315.622 131.112 315.803 131.112C315.974 131.112 316.102 131.155 316.187 131.24C316.283 131.325 316.336 131.437 316.347 131.576C316.368 131.704 316.347 131.848 316.283 132.008L313.483 138.488C313.408 138.701 313.296 138.861 313.147 138.968C313.008 139.064 312.843 139.112 312.651 139.112ZM318.629 139.08C318.416 139.08 318.256 139.021 318.149 138.904C318.043 138.776 317.989 138.6 317.989 138.376V131.832C317.989 131.608 318.043 131.437 318.149 131.32C318.256 131.203 318.416 131.144 318.629 131.144C318.832 131.144 318.992 131.203 319.109 131.32C319.227 131.437 319.285 131.608 319.285 131.832V138.376C319.285 138.6 319.227 138.776 319.109 138.904C319.003 139.021 318.843 139.08 318.629 139.08ZM318.629 129.352C318.363 129.352 318.155 129.283 318.005 129.144C317.856 128.995 317.781 128.797 317.781 128.552C317.781 128.296 317.856 128.104 318.005 127.976C318.155 127.837 318.363 127.768 318.629 127.768C318.907 127.768 319.115 127.837 319.253 127.976C319.403 128.104 319.477 128.296 319.477 128.552C319.477 128.797 319.403 128.995 319.253 129.144C319.115 129.283 318.907 129.352 318.629 129.352ZM325.148 142.024C324.583 142.024 324.028 141.955 323.484 141.816C322.951 141.688 322.466 141.48 322.028 141.192C321.9 141.117 321.815 141.027 321.772 140.92C321.74 140.813 321.735 140.707 321.756 140.6C321.778 140.504 321.826 140.413 321.9 140.328C321.975 140.253 322.06 140.205 322.156 140.184C322.263 140.163 322.37 140.179 322.476 140.232C322.946 140.52 323.394 140.717 323.82 140.824C324.247 140.931 324.668 140.984 325.084 140.984C325.842 140.984 326.412 140.781 326.796 140.376C327.191 139.971 327.388 139.384 327.388 138.616V136.808H327.548C327.388 137.427 327.047 137.917 326.524 138.28C326.012 138.643 325.41 138.824 324.716 138.824C324.002 138.824 323.383 138.664 322.86 138.344C322.338 138.013 321.932 137.555 321.644 136.968C321.367 136.381 321.228 135.704 321.228 134.936C321.228 134.36 321.308 133.837 321.468 133.368C321.628 132.888 321.858 132.483 322.156 132.152C322.466 131.811 322.834 131.549 323.26 131.368C323.698 131.176 324.183 131.08 324.716 131.08C325.42 131.08 326.028 131.261 326.54 131.624C327.052 131.976 327.383 132.456 327.532 133.064L327.372 133.256V131.768C327.372 131.555 327.426 131.395 327.532 131.288C327.65 131.171 327.81 131.112 328.012 131.112C328.226 131.112 328.386 131.171 328.492 131.288C328.599 131.395 328.652 131.555 328.652 131.768V138.44C328.652 139.624 328.354 140.515 327.756 141.112C327.17 141.72 326.3 142.024 325.148 142.024ZM324.956 137.768C325.458 137.768 325.89 137.656 326.252 137.432C326.615 137.197 326.892 136.867 327.084 136.44C327.287 136.013 327.388 135.512 327.388 134.936C327.388 134.072 327.17 133.389 326.732 132.888C326.295 132.376 325.703 132.12 324.956 132.12C324.466 132.12 324.039 132.237 323.676 132.472C323.314 132.696 323.031 133.021 322.828 133.448C322.636 133.864 322.54 134.36 322.54 134.936C322.54 135.8 322.759 136.488 323.196 137C323.634 137.512 324.22 137.768 324.956 137.768ZM333.531 139.144C332.998 139.144 332.518 139.043 332.091 138.84C331.675 138.627 331.345 138.339 331.099 137.976C330.854 137.613 330.731 137.208 330.731 136.76C330.731 136.184 330.875 135.731 331.163 135.4C331.462 135.069 331.947 134.835 332.619 134.696C333.302 134.557 334.23 134.488 335.403 134.488H336.123V135.336H335.419C334.555 135.336 333.873 135.379 333.371 135.464C332.881 135.539 332.534 135.672 332.331 135.864C332.139 136.056 332.043 136.328 332.043 136.68C332.043 137.117 332.193 137.475 332.491 137.752C332.801 138.029 333.217 138.168 333.739 138.168C334.166 138.168 334.539 138.067 334.859 137.864C335.19 137.661 335.446 137.384 335.627 137.032C335.819 136.68 335.915 136.275 335.915 135.816V133.992C335.915 133.331 335.782 132.856 335.515 132.568C335.249 132.269 334.811 132.12 334.203 132.12C333.83 132.12 333.457 132.168 333.083 132.264C332.71 132.36 332.315 132.515 331.899 132.728C331.75 132.803 331.622 132.829 331.515 132.808C331.409 132.776 331.323 132.717 331.259 132.632C331.195 132.547 331.158 132.451 331.147 132.344C331.137 132.227 331.158 132.115 331.211 132.008C331.275 131.901 331.371 131.816 331.499 131.752C331.969 131.517 332.433 131.347 332.891 131.24C333.35 131.133 333.787 131.08 334.203 131.08C334.875 131.08 335.43 131.192 335.867 131.416C336.305 131.629 336.63 131.96 336.843 132.408C337.057 132.845 337.163 133.411 337.163 134.104V138.44C337.163 138.653 337.11 138.819 337.003 138.936C336.907 139.053 336.763 139.112 336.571 139.112C336.369 139.112 336.214 139.053 336.107 138.936C336.001 138.819 335.947 138.653 335.947 138.44V137.192H336.091C336.006 137.597 335.841 137.944 335.595 138.232C335.361 138.52 335.067 138.744 334.715 138.904C334.363 139.064 333.969 139.144 333.531 139.144ZM342.688 139.144C342.08 139.144 341.568 139.037 341.152 138.824C340.746 138.6 340.442 138.28 340.24 137.864C340.037 137.437 339.936 136.92 339.936 136.312V132.232H338.864C338.682 132.232 338.544 132.189 338.448 132.104C338.352 132.008 338.304 131.88 338.304 131.72C338.304 131.56 338.352 131.437 338.448 131.352C338.544 131.267 338.682 131.224 338.864 131.224H339.936V129.384C339.936 129.171 339.994 129.011 340.112 128.904C340.229 128.787 340.389 128.728 340.592 128.728C340.794 128.728 340.949 128.787 341.056 128.904C341.173 129.011 341.232 129.171 341.232 129.384V131.224H343.248C343.429 131.224 343.568 131.267 343.664 131.352C343.76 131.437 343.808 131.56 343.808 131.72C343.808 131.88 343.76 132.008 343.664 132.104C343.568 132.189 343.429 132.232 343.248 132.232H341.232V136.184C341.232 136.792 341.36 137.256 341.616 137.576C341.872 137.885 342.288 138.04 342.864 138.04C343.066 138.04 343.237 138.019 343.376 137.976C343.525 137.933 343.648 137.912 343.744 137.912C343.84 137.901 343.92 137.933 343.984 138.008C344.048 138.083 344.08 138.211 344.08 138.392C344.08 138.52 344.053 138.637 344 138.744C343.957 138.851 343.877 138.925 343.76 138.968C343.632 139.011 343.461 139.048 343.248 139.08C343.045 139.123 342.858 139.144 342.688 139.144ZM348.587 139.144C347.766 139.144 347.057 138.984 346.459 138.664C345.873 138.333 345.414 137.869 345.083 137.272C344.763 136.675 344.603 135.96 344.603 135.128C344.603 134.317 344.763 133.613 345.083 133.016C345.403 132.408 345.841 131.933 346.395 131.592C346.961 131.251 347.611 131.08 348.347 131.08C348.87 131.08 349.339 131.171 349.755 131.352C350.171 131.523 350.523 131.773 350.811 132.104C351.11 132.435 351.334 132.835 351.483 133.304C351.643 133.773 351.723 134.301 351.723 134.888C351.723 135.059 351.675 135.187 351.579 135.272C351.483 135.347 351.345 135.384 351.163 135.384H345.595V134.536H350.859L350.603 134.744C350.603 134.168 350.518 133.683 350.347 133.288C350.177 132.883 349.926 132.573 349.595 132.36C349.275 132.147 348.87 132.04 348.379 132.04C347.835 132.04 347.371 132.168 346.987 132.424C346.614 132.669 346.331 133.016 346.139 133.464C345.947 133.901 345.851 134.413 345.851 135V135.096C345.851 136.077 346.086 136.824 346.555 137.336C347.035 137.848 347.713 138.104 348.587 138.104C348.95 138.104 349.307 138.056 349.659 137.96C350.022 137.864 350.374 137.704 350.715 137.48C350.865 137.384 350.998 137.341 351.115 137.352C351.243 137.352 351.345 137.389 351.419 137.464C351.494 137.528 351.542 137.613 351.563 137.72C351.595 137.816 351.585 137.923 351.531 138.04C351.489 138.157 351.398 138.259 351.259 138.344C350.907 138.6 350.491 138.797 350.011 138.936C349.531 139.075 349.057 139.144 348.587 139.144ZM141.749 161.112C141.546 161.112 141.386 161.053 141.269 160.936C141.162 160.819 141.109 160.653 141.109 160.44V154.232H140.085C139.914 154.232 139.775 154.189 139.669 154.104C139.573 154.008 139.525 153.88 139.525 153.72C139.525 153.56 139.573 153.437 139.669 153.352C139.775 153.267 139.914 153.224 140.085 153.224H141.461L141.109 153.56V152.952C141.109 151.939 141.354 151.165 141.845 150.632C142.346 150.099 143.077 149.789 144.037 149.704L144.501 149.656C144.65 149.645 144.767 149.672 144.853 149.736C144.949 149.8 145.007 149.88 145.029 149.976C145.061 150.072 145.066 150.173 145.045 150.28C145.023 150.376 144.975 150.461 144.901 150.536C144.826 150.611 144.735 150.653 144.629 150.664L144.261 150.696C143.61 150.749 143.135 150.947 142.837 151.288C142.549 151.629 142.405 152.131 142.405 152.792V153.464L142.213 153.224H144.133C144.314 153.224 144.453 153.267 144.549 153.352C144.645 153.437 144.693 153.56 144.693 153.72C144.693 153.88 144.645 154.008 144.549 154.104C144.453 154.189 144.314 154.232 144.133 154.232H142.405V160.44C142.405 160.888 142.186 161.112 141.749 161.112ZM149.034 161.144C148.277 161.144 147.621 160.979 147.066 160.648C146.511 160.317 146.079 159.853 145.77 159.256C145.471 158.648 145.322 157.933 145.322 157.112C145.322 156.493 145.407 155.939 145.578 155.448C145.749 154.947 145.999 154.52 146.33 154.168C146.661 153.816 147.05 153.549 147.498 153.368C147.957 153.176 148.469 153.08 149.034 153.08C149.791 153.08 150.447 153.245 151.002 153.576C151.557 153.907 151.983 154.376 152.282 154.984C152.591 155.581 152.746 156.291 152.746 157.112C152.746 157.731 152.661 158.285 152.49 158.776C152.319 159.267 152.069 159.693 151.738 160.056C151.407 160.408 151.013 160.68 150.554 160.872C150.106 161.053 149.599 161.144 149.034 161.144ZM149.034 160.104C149.514 160.104 149.935 159.987 150.298 159.752C150.661 159.517 150.938 159.176 151.13 158.728C151.333 158.28 151.434 157.741 151.434 157.112C151.434 156.141 151.215 155.4 150.778 154.888C150.351 154.376 149.77 154.12 149.034 154.12C148.543 154.12 148.117 154.237 147.754 154.472C147.402 154.696 147.125 155.032 146.922 155.48C146.73 155.917 146.634 156.461 146.634 157.112C146.634 158.072 146.853 158.813 147.29 159.336C147.727 159.848 148.309 160.104 149.034 160.104ZM155.349 161.112C155.135 161.112 154.97 161.053 154.853 160.936C154.746 160.819 154.693 160.653 154.693 160.44V153.768C154.693 153.555 154.746 153.395 154.853 153.288C154.959 153.171 155.114 153.112 155.317 153.112C155.519 153.112 155.674 153.171 155.781 153.288C155.898 153.395 155.957 153.555 155.957 153.768V155.064H155.797C155.967 154.435 156.293 153.949 156.773 153.608C157.253 153.267 157.845 153.085 158.549 153.064C158.709 153.053 158.837 153.091 158.933 153.176C159.029 153.251 159.082 153.384 159.093 153.576C159.103 153.757 159.061 153.901 158.965 154.008C158.869 154.115 158.719 154.179 158.517 154.2L158.261 154.232C157.535 154.296 156.975 154.531 156.581 154.936C156.197 155.331 156.005 155.875 156.005 156.568V160.44C156.005 160.653 155.946 160.819 155.829 160.936C155.722 161.053 155.562 161.112 155.349 161.112ZM167 161.144C166.467 161.144 165.987 161.043 165.56 160.84C165.144 160.627 164.813 160.339 164.568 159.976C164.323 159.613 164.2 159.208 164.2 158.76C164.2 158.184 164.344 157.731 164.632 157.4C164.931 157.069 165.416 156.835 166.088 156.696C166.771 156.557 167.699 156.488 168.872 156.488H169.592V157.336H168.888C168.024 157.336 167.341 157.379 166.84 157.464C166.349 157.539 166.003 157.672 165.8 157.864C165.608 158.056 165.512 158.328 165.512 158.68C165.512 159.117 165.661 159.475 165.96 159.752C166.269 160.029 166.685 160.168 167.208 160.168C167.635 160.168 168.008 160.067 168.328 159.864C168.659 159.661 168.915 159.384 169.096 159.032C169.288 158.68 169.384 158.275 169.384 157.816V155.992C169.384 155.331 169.251 154.856 168.984 154.568C168.717 154.269 168.28 154.12 167.672 154.12C167.299 154.12 166.925 154.168 166.552 154.264C166.179 154.36 165.784 154.515 165.368 154.728C165.219 154.803 165.091 154.829 164.984 154.808C164.877 154.776 164.792 154.717 164.728 154.632C164.664 154.547 164.627 154.451 164.616 154.344C164.605 154.227 164.627 154.115 164.68 154.008C164.744 153.901 164.84 153.816 164.968 153.752C165.437 153.517 165.901 153.347 166.36 153.24C166.819 153.133 167.256 153.08 167.672 153.08C168.344 153.08 168.899 153.192 169.336 153.416C169.773 153.629 170.099 153.96 170.312 154.408C170.525 154.845 170.632 155.411 170.632 156.104V160.44C170.632 160.653 170.579 160.819 170.472 160.936C170.376 161.053 170.232 161.112 170.04 161.112C169.837 161.112 169.683 161.053 169.576 160.936C169.469 160.819 169.416 160.653 169.416 160.44V159.192H169.56C169.475 159.597 169.309 159.944 169.064 160.232C168.829 160.52 168.536 160.744 168.184 160.904C167.832 161.064 167.437 161.144 167 161.144ZM175.404 161.144C174.636 161.144 174.05 160.909 173.644 160.44C173.239 159.971 173.036 159.299 173.036 158.424V150.264C173.036 150.051 173.09 149.891 173.196 149.784C173.303 149.667 173.463 149.608 173.676 149.608C173.879 149.608 174.039 149.667 174.156 149.784C174.274 149.891 174.332 150.051 174.332 150.264V158.328C174.332 158.904 174.444 159.336 174.668 159.624C174.903 159.901 175.244 160.04 175.692 160.04C175.788 160.04 175.874 160.035 175.948 160.024C176.023 160.013 176.098 160.008 176.172 160.008C176.29 159.997 176.37 160.024 176.412 160.088C176.466 160.152 176.492 160.28 176.492 160.472C176.492 160.664 176.45 160.808 176.364 160.904C176.279 161 176.14 161.064 175.948 161.096C175.863 161.107 175.772 161.117 175.676 161.128C175.58 161.139 175.49 161.144 175.404 161.144ZM180.139 161.144C179.371 161.144 178.784 160.909 178.379 160.44C177.973 159.971 177.771 159.299 177.771 158.424V150.264C177.771 150.051 177.824 149.891 177.931 149.784C178.037 149.667 178.197 149.608 178.411 149.608C178.613 149.608 178.773 149.667 178.891 149.784C179.008 149.891 179.067 150.051 179.067 150.264V158.328C179.067 158.904 179.179 159.336 179.403 159.624C179.637 159.901 179.979 160.04 180.427 160.04C180.523 160.04 180.608 160.035 180.683 160.024C180.757 160.013 180.832 160.008 180.907 160.008C181.024 159.997 181.104 160.024 181.147 160.088C181.2 160.152 181.227 160.28 181.227 160.472C181.227 160.664 181.184 160.808 181.099 160.904C181.013 161 180.875 161.064 180.683 161.096C180.597 161.107 180.507 161.117 180.411 161.128C180.315 161.139 180.224 161.144 180.139 161.144ZM189.382 161.144C188.753 161.144 188.23 161.032 187.814 160.808C187.409 160.573 187.099 160.227 186.886 159.768C186.683 159.309 186.582 158.739 186.582 158.056V153.768C186.582 153.544 186.635 153.379 186.742 153.272C186.859 153.165 187.019 153.112 187.222 153.112C187.435 153.112 187.595 153.165 187.702 153.272C187.819 153.379 187.878 153.544 187.878 153.768V158.04C187.878 158.723 188.017 159.235 188.294 159.576C188.582 159.907 189.03 160.072 189.638 160.072C190.299 160.072 190.838 159.848 191.254 159.4C191.67 158.952 191.878 158.365 191.878 157.64V153.768C191.878 153.544 191.931 153.379 192.038 153.272C192.155 153.165 192.321 153.112 192.534 153.112C192.737 153.112 192.891 153.165 192.998 153.272C193.115 153.379 193.174 153.544 193.174 153.768V160.44C193.174 160.888 192.966 161.112 192.55 161.112C192.347 161.112 192.187 161.053 192.07 160.936C191.963 160.819 191.91 160.653 191.91 160.44V158.984L192.118 159.208C191.905 159.837 191.553 160.317 191.062 160.648C190.582 160.979 190.022 161.144 189.382 161.144ZM198.223 161.144C197.743 161.144 197.257 161.085 196.767 160.968C196.287 160.851 195.839 160.648 195.423 160.36C195.316 160.285 195.241 160.2 195.199 160.104C195.156 159.997 195.14 159.896 195.151 159.8C195.172 159.693 195.215 159.603 195.279 159.528C195.353 159.453 195.439 159.411 195.535 159.4C195.641 159.379 195.759 159.4 195.887 159.464C196.303 159.72 196.703 159.901 197.087 160.008C197.481 160.104 197.871 160.152 198.255 160.152C198.863 160.152 199.321 160.04 199.631 159.816C199.94 159.592 200.095 159.288 200.095 158.904C200.095 158.605 199.993 158.371 199.791 158.2C199.588 158.019 199.268 157.88 198.831 157.784L197.375 157.464C196.703 157.325 196.201 157.085 195.871 156.744C195.551 156.403 195.391 155.96 195.391 155.416C195.391 154.936 195.513 154.525 195.759 154.184C196.015 153.832 196.372 153.56 196.831 153.368C197.289 153.176 197.823 153.08 198.431 153.08C198.9 153.08 199.343 153.144 199.759 153.272C200.185 153.389 200.569 153.581 200.911 153.848C201.017 153.923 201.087 154.013 201.119 154.12C201.161 154.216 201.167 154.317 201.135 154.424C201.113 154.52 201.065 154.605 200.991 154.68C200.916 154.744 200.825 154.781 200.719 154.792C200.612 154.803 200.5 154.771 200.383 154.696C200.063 154.483 199.737 154.328 199.407 154.232C199.076 154.125 198.751 154.072 198.431 154.072C197.833 154.072 197.38 154.189 197.071 154.424C196.761 154.659 196.607 154.968 196.607 155.352C196.607 155.651 196.703 155.896 196.895 156.088C197.087 156.28 197.385 156.419 197.791 156.504L199.247 156.808C199.94 156.957 200.457 157.197 200.799 157.528C201.151 157.848 201.327 158.285 201.327 158.84C201.327 159.544 201.044 160.104 200.479 160.52C199.913 160.936 199.161 161.144 198.223 161.144ZM206.806 161.144C205.985 161.144 205.275 160.984 204.678 160.664C204.091 160.333 203.633 159.869 203.302 159.272C202.982 158.675 202.822 157.96 202.822 157.128C202.822 156.317 202.982 155.613 203.302 155.016C203.622 154.408 204.059 153.933 204.614 153.592C205.179 153.251 205.83 153.08 206.566 153.08C207.089 153.08 207.558 153.171 207.974 153.352C208.39 153.523 208.742 153.773 209.03 154.104C209.329 154.435 209.553 154.835 209.702 155.304C209.862 155.773 209.942 156.301 209.942 156.888C209.942 157.059 209.894 157.187 209.798 157.272C209.702 157.347 209.563 157.384 209.382 157.384H203.814V156.536H209.078L208.822 156.744C208.822 156.168 208.737 155.683 208.566 155.288C208.395 154.883 208.145 154.573 207.814 154.36C207.494 154.147 207.089 154.04 206.598 154.04C206.054 154.04 205.59 154.168 205.206 154.424C204.833 154.669 204.55 155.016 204.358 155.464C204.166 155.901 204.07 156.413 204.07 157V157.096C204.07 158.077 204.305 158.824 204.774 159.336C205.254 159.848 205.931 160.104 206.806 160.104C207.169 160.104 207.526 160.056 207.878 159.96C208.241 159.864 208.593 159.704 208.934 159.48C209.083 159.384 209.217 159.341 209.334 159.352C209.462 159.352 209.563 159.389 209.638 159.464C209.713 159.528 209.761 159.613 209.782 159.72C209.814 159.816 209.803 159.923 209.75 160.04C209.707 160.157 209.617 160.259 209.478 160.344C209.126 160.6 208.71 160.797 208.23 160.936C207.75 161.075 207.275 161.144 206.806 161.144ZM212.474 161.112C212.26 161.112 212.095 161.053 211.978 160.936C211.871 160.819 211.818 160.653 211.818 160.44V153.768C211.818 153.555 211.871 153.395 211.978 153.288C212.084 153.171 212.239 153.112 212.442 153.112C212.644 153.112 212.799 153.171 212.906 153.288C213.023 153.395 213.082 153.555 213.082 153.768V155.064H212.922C213.092 154.435 213.418 153.949 213.898 153.608C214.378 153.267 214.97 153.085 215.674 153.064C215.834 153.053 215.962 153.091 216.058 153.176C216.154 153.251 216.207 153.384 216.218 153.576C216.228 153.757 216.186 153.901 216.09 154.008C215.994 154.115 215.844 154.179 215.642 154.2L215.386 154.232C214.66 154.296 214.1 154.531 213.706 154.936C213.322 155.331 213.13 155.875 213.13 156.568V160.44C213.13 160.653 213.071 160.819 212.954 160.936C212.847 161.053 212.687 161.112 212.474 161.112ZM220.098 161.144C219.618 161.144 219.132 161.085 218.642 160.968C218.162 160.851 217.714 160.648 217.298 160.36C217.191 160.285 217.116 160.2 217.074 160.104C217.031 159.997 217.015 159.896 217.026 159.8C217.047 159.693 217.09 159.603 217.154 159.528C217.228 159.453 217.314 159.411 217.41 159.4C217.516 159.379 217.634 159.4 217.762 159.464C218.178 159.72 218.578 159.901 218.962 160.008C219.356 160.104 219.746 160.152 220.13 160.152C220.738 160.152 221.196 160.04 221.506 159.816C221.815 159.592 221.97 159.288 221.97 158.904C221.97 158.605 221.868 158.371 221.666 158.2C221.463 158.019 221.143 157.88 220.706 157.784L219.25 157.464C218.578 157.325 218.076 157.085 217.746 156.744C217.426 156.403 217.266 155.96 217.266 155.416C217.266 154.936 217.388 154.525 217.634 154.184C217.89 153.832 218.247 153.56 218.706 153.368C219.164 153.176 219.698 153.08 220.306 153.08C220.775 153.08 221.218 153.144 221.634 153.272C222.06 153.389 222.444 153.581 222.786 153.848C222.892 153.923 222.962 154.013 222.994 154.12C223.036 154.216 223.042 154.317 223.01 154.424C222.988 154.52 222.94 154.605 222.866 154.68C222.791 154.744 222.7 154.781 222.594 154.792C222.487 154.803 222.375 154.771 222.258 154.696C221.938 154.483 221.612 154.328 221.282 154.232C220.951 154.125 220.626 154.072 220.306 154.072C219.708 154.072 219.255 154.189 218.946 154.424C218.636 154.659 218.482 154.968 218.482 155.352C218.482 155.651 218.578 155.896 218.77 156.088C218.962 156.28 219.26 156.419 219.666 156.504L221.122 156.808C221.815 156.957 222.332 157.197 222.674 157.528C223.026 157.848 223.202 158.285 223.202 158.84C223.202 159.544 222.919 160.104 222.354 160.52C221.788 160.936 221.036 161.144 220.098 161.144ZM225.723 161.064C225.456 161.064 225.243 160.984 225.083 160.824C224.923 160.653 224.843 160.44 224.843 160.184C224.843 159.928 224.923 159.72 225.083 159.56C225.243 159.389 225.456 159.304 225.723 159.304C225.989 159.304 226.197 159.389 226.347 159.56C226.507 159.72 226.587 159.928 226.587 160.184C226.587 160.44 226.507 160.653 226.347 160.824C226.197 160.984 225.989 161.064 225.723 161.064Z" fill="black"/>
<defs>
<clipPath id="clip0_1896_44615">
<rect width="23" height="23" fill="white" transform="translate(171.5 38)"/>
</clipPath>
</defs>
</svg>
