<svg width="40" height="54" viewBox="0 0 40 54" fill="none" xmlns="http://www.w3.org/2000/svg">
<path d="M36.6016 0H3.57843C2.76226 0.000918492 1.97978 0.325547 1.40267 0.902665C0.825547 1.47978 0.500918 2.26226 0.5 3.07843V45.6167C0.500918 46.4329 0.825547 47.2154 1.40267 47.7925C1.97978 48.3696 2.76226 48.6942 3.57843 48.6951H10.8693C11.0919 48.6951 11.3055 48.6067 11.4629 48.4492C11.6204 48.2918 11.7088 48.0782 11.7088 47.8556C11.7088 47.6329 11.6204 47.4194 11.4629 47.2619C11.3055 47.1045 11.0919 47.016 10.8693 47.016H3.57843C3.20744 47.0156 2.85177 46.868 2.58944 46.6057C2.32712 46.3434 2.17956 45.9877 2.17914 45.6167V3.07843C2.17956 2.70744 2.32712 2.35177 2.58944 2.08944C2.85177 1.82712 3.20744 1.67956 3.57843 1.67914H36.6016C36.9726 1.67956 37.3282 1.82712 37.5906 2.08944C37.8529 2.35177 38.0004 2.70744 38.0009 3.07843V45.6167C38.0004 45.9877 37.8529 46.3434 37.5906 46.6057C37.3282 46.868 36.9726 47.0156 36.6016 47.016H32.4305C32.6757 46.2954 32.7955 45.4634 32.7955 44.0607V40.8591H33.803C34.3224 40.8585 34.8203 40.6519 35.1875 40.2847C35.5548 39.9174 35.7614 39.4195 35.762 38.9001V13.4525C35.762 13.2298 35.6735 13.0163 35.5161 12.8588C35.3586 12.7014 35.1451 12.6129 34.9224 12.6129C34.6998 12.6129 34.4862 12.7014 34.3288 12.8588C34.1713 13.0163 34.0829 13.2298 34.0829 13.4525V38.9001C34.0829 38.9744 34.0534 39.0455 34.0009 39.098C33.9484 39.1505 33.8772 39.18 33.803 39.18H32.7955V36.293C32.7851 35.4598 32.4497 34.6636 31.8608 34.0741C31.2719 33.4846 30.4761 33.1483 29.6429 33.137H29.5933C29.0625 33.1459 28.5431 33.2925 28.086 33.5624C27.9413 32.9899 27.6415 32.4685 27.2194 32.0556C26.9218 31.7625 26.569 31.5313 26.1816 31.3752C25.7941 31.2192 25.3796 31.1414 24.9619 31.1463C24.2866 31.1618 23.6352 31.3988 23.1078 31.8207C22.8881 31.4562 22.5984 31.1388 22.2555 30.8867C21.863 30.5942 21.4066 30.3993 20.9239 30.3179C20.4412 30.2365 19.9461 30.271 19.4794 30.4187C19.2943 30.4765 19.115 30.5515 18.9438 30.6426V25.6562C18.944 25.3397 18.8954 25.025 18.7999 24.7233C20.8758 25.0391 22.9959 24.5928 24.7684 23.467C26.5408 22.3411 27.8459 20.6118 28.4424 18.5984C29.0389 16.5851 28.8865 14.424 28.0134 12.5143C27.1402 10.6046 25.6054 9.07549 23.6924 8.20952C21.7795 7.34355 19.6178 7.19925 17.6067 7.80329C15.5956 8.40732 13.8712 9.71887 12.752 11.4956C11.6328 13.2722 11.1945 15.394 11.5181 17.4687C11.8417 19.5435 12.9053 21.4309 14.5124 22.7824C13.9551 23.0428 13.4836 23.4568 13.1532 23.9757C12.8228 24.4946 12.6471 25.097 12.6469 25.7122V36.6464C11.5321 35.9965 10.37 35.8803 9.27643 36.3106C8.88161 36.4673 8.52478 36.7065 8.22979 37.0122C7.9348 37.3179 7.70844 37.683 7.56583 38.0832C7.43974 38.4348 7.37867 38.8065 7.3856 39.18H6.377C6.30278 39.18 6.2316 39.1505 6.17911 39.098C6.12663 39.0455 6.09714 38.9744 6.09714 38.9001V5.877C6.09714 5.80278 6.12663 5.73159 6.17911 5.67911C6.2316 5.62663 6.30278 5.59714 6.377 5.59714H33.803C33.8772 5.59714 33.9484 5.62663 34.0009 5.67911C34.0534 5.73159 34.0829 5.80278 34.0829 5.877V10.0942C34.0829 10.3169 34.1713 10.5304 34.3288 10.6879C34.4862 10.8453 34.6998 10.9338 34.9224 10.9338C35.1451 10.9338 35.3586 10.8453 35.5161 10.6879C35.6735 10.5304 35.762 10.3169 35.762 10.0942V5.877C35.7614 5.35762 35.5548 4.85969 35.1876 4.49243C34.8203 4.12518 34.3224 3.91859 33.803 3.918H6.377C5.85762 3.91859 5.35969 4.12518 4.99243 4.49243C4.62518 4.85969 4.41859 5.35762 4.418 5.877V38.9001C4.41862 39.4195 4.62522 39.9174 4.99246 40.2847C5.35971 40.6519 5.85763 40.8585 6.377 40.8591H7.93054L14.3955 50.398V52.4452C14.3955 52.6679 14.4839 52.8814 14.6414 53.0389C14.7988 53.1963 15.0124 53.2848 15.235 53.2848H29.9331C30.1558 53.2848 30.3694 53.1963 30.5268 53.0389C30.6843 52.8814 30.7727 52.6679 30.7727 52.4452V50.5467C30.7732 50.5069 30.7816 50.4675 30.7976 50.431C31.1175 49.6854 31.3921 49.1542 31.6371 48.6951H36.6016C37.4177 48.6942 38.2002 48.3696 38.7773 47.7924C39.3544 47.2153 39.6791 46.4329 39.68 45.6167V3.07843C39.6791 2.26226 39.3545 1.47978 38.7773 0.902665C38.2002 0.325547 37.4177 0.000918492 36.6016 0ZM13.0936 16.1442C13.0936 14.7604 13.5039 13.4077 14.2727 12.2572C15.0415 11.1066 16.1342 10.2099 17.4126 9.68032C18.691 9.15077 20.0978 9.01222 21.4549 9.28218C22.8121 9.55214 24.0588 10.2185 25.0372 11.197C26.0157 12.1754 26.682 13.4221 26.952 14.7792C27.222 16.1364 27.0834 17.5432 26.5539 18.8216C26.0243 20.1 25.1276 21.1927 23.977 21.9615C22.8265 22.7303 21.4738 23.1406 20.09 23.1406C18.2351 23.1385 16.4567 22.4007 15.1451 21.0891C13.8335 19.7774 13.0957 17.9991 13.0936 16.1442ZM30.264 47.7019C29.9907 48.2116 29.6506 48.8458 29.2543 49.7692C29.1484 50.0147 29.0937 50.2793 29.0936 50.5467V51.6057H16.0746V50.1403C16.0746 49.9724 16.0242 49.8083 15.93 49.6693L9.22259 39.7726C9.13304 39.6012 9.08001 39.413 9.06685 39.22C9.05369 39.027 9.08069 38.8334 9.14613 38.6514C9.20692 38.4756 9.30505 38.315 9.43379 38.1807C9.56252 38.0464 9.7188 37.9416 9.89189 37.8734C10.5145 37.6281 11.1778 37.7157 11.8632 38.134C12.2252 38.358 12.5509 38.6357 12.8292 38.9578C12.9375 39.0942 13.0856 39.1935 13.253 39.2419C13.4203 39.2904 13.5986 39.2856 13.763 39.2282C13.9275 39.1708 14.0701 39.0637 14.171 38.9217C14.2718 38.7797 14.326 38.6098 14.3261 38.4356V25.7122C14.3261 24.8832 14.972 24.1956 15.7653 24.1794C16.1583 24.182 16.5347 24.3377 16.8147 24.6135C17.0947 24.8892 17.2561 25.2633 17.2646 25.6562V33.4866C17.2646 33.7093 17.353 33.9228 17.5105 34.0803C17.6679 34.2377 17.8815 34.3262 18.1041 34.3262C18.3268 34.3262 18.5403 34.2377 18.6978 34.0803C18.8552 33.9228 18.9437 33.7093 18.9437 33.4866C18.9399 33.1644 19.0382 32.8492 19.2243 32.5862C19.4105 32.3232 19.675 32.1257 19.9802 32.0222C20.1956 31.9534 20.4243 31.9374 20.6472 31.9754C20.8701 32.0134 21.0806 32.1043 21.261 32.2406C21.4503 32.3769 21.6049 32.5556 21.7126 32.7625C21.8203 32.9693 21.878 33.1985 21.8811 33.4317V34.3586C21.8811 34.5813 21.9695 34.7948 22.127 34.9523C22.2844 35.1097 22.498 35.1982 22.7207 35.1982C22.9433 35.1982 23.1569 35.1097 23.3143 34.9523C23.4718 34.7948 23.5602 34.5813 23.5602 34.3586C23.5602 33.5302 24.205 32.8428 24.9976 32.826C25.3908 32.8282 25.7676 32.9838 26.048 33.2595C26.3283 33.5353 26.49 33.9095 26.4987 34.3027V36.3467C26.4987 36.5694 26.5872 36.7829 26.7446 36.9404C26.9021 37.0978 27.1156 37.1863 27.3383 37.1863C27.561 37.1863 27.7745 37.0978 27.932 36.9404C28.0894 36.7829 28.1779 36.5694 28.1779 36.3467C28.1779 35.5162 28.8255 34.8297 29.6219 34.8164C30.0134 34.8221 30.3876 34.9789 30.6661 35.2541C30.9447 35.5293 31.106 35.9016 31.1164 36.293V44.0607C31.1164 46.1124 30.8668 46.5777 30.264 47.7019Z" fill="#52006A"/>
<path d="M20.0897 21.6853C21.3639 21.6847 22.602 21.2624 23.6108 20.4842C24.6196 19.706 25.3425 18.6157 25.6665 17.3835C25.6961 17.2763 25.7042 17.1643 25.6902 17.054C25.6762 16.9437 25.6405 16.8373 25.585 16.7409C25.5296 16.6446 25.4556 16.5602 25.3672 16.4927C25.2789 16.4251 25.1781 16.3758 25.0705 16.3476C24.963 16.3194 24.8509 16.3128 24.7408 16.3282C24.6307 16.3436 24.5248 16.3808 24.4291 16.4375C24.3335 16.4942 24.2501 16.5693 24.1837 16.6585C24.1174 16.7477 24.0694 16.8492 24.0426 16.9571C23.8132 17.8306 23.301 18.6036 22.5858 19.1552C21.8707 19.7069 20.993 20.0061 20.0898 20.0061C19.1866 20.0061 18.3089 19.7069 17.5938 19.1552C16.8786 18.6036 16.3664 17.8306 16.137 16.9571C16.0805 16.7417 15.9407 16.5576 15.7485 16.4453C15.5562 16.3329 15.3272 16.3016 15.1118 16.3581C14.8964 16.4146 14.7123 16.5544 14.6 16.7467C14.4877 16.9389 14.4563 17.168 14.5129 17.3833C14.8369 18.6156 15.5598 19.7059 16.5687 20.4841C17.5775 21.2623 18.8156 21.6847 20.0897 21.6853ZM22.3286 15.7135C22.5513 15.7135 22.7648 15.625 22.9223 15.4676C23.0797 15.3101 23.1682 15.0966 23.1682 14.8739V13.7545C23.1682 13.5318 23.0797 13.3183 22.9223 13.1608C22.7648 13.0034 22.5513 12.9149 22.3286 12.9149C22.1059 12.9149 21.8924 13.0034 21.7349 13.1608C21.5775 13.3183 21.489 13.5318 21.489 13.7545V14.8739C21.489 15.0966 21.5775 15.3101 21.7349 15.4676C21.8924 15.625 22.1059 15.7135 22.3286 15.7135ZM17.8509 15.7135C17.9611 15.7135 18.0703 15.6918 18.1722 15.6496C18.274 15.6074 18.3666 15.5455 18.4445 15.4676C18.5225 15.3896 18.5844 15.2971 18.6265 15.1952C18.6687 15.0933 18.6905 14.9842 18.6905 14.8739V13.7545C18.6905 13.5318 18.602 13.3183 18.4445 13.1608C18.2871 13.0034 18.0736 12.9149 17.8509 12.9149C17.6282 12.9149 17.4147 13.0034 17.2572 13.1608C17.0998 13.3183 17.0113 13.5318 17.0113 13.7545V14.8739C17.0113 15.0966 17.0998 15.3101 17.2572 15.4676C17.4147 15.625 17.6282 15.7135 17.8509 15.7135Z" fill="#52006A"/>
</svg>
