<svg width="50" height="50" viewBox="0 0 50 50" fill="none" xmlns="http://www.w3.org/2000/svg">
<g clip-path="url(#clip0_2994_15466)">
<path d="M48.262 30.1302H28.3086C27.9936 28.419 27.3362 27.2682 26.349 26.7096C25.6831 26.3328 25.0148 26.3143 24.537 26.3791C24.313 25.5573 23.7146 24.1797 22.1502 23.4464C20.7675 22.7981 19.6856 23.1277 19.0188 23.6104C18.2263 22.5529 16.6661 21.3143 14.4632 21.6429C13.0611 21.8521 12.0693 22.7307 11.8102 23.9933C11.5066 25.4724 12.2326 27.1041 13.6439 28.2296C13.2866 28.6953 13.0014 29.3552 13.119 30.1302H1.74034C1.09629 30.1302 0.570609 30.6535 0.568461 31.2966C0.561625 33.3168 0.892777 38.4139 4.10635 42.1061C6.31504 44.6437 9.43418 45.9839 13.3821 46.0961C13.6636 48.0791 15.3717 49.6092 17.4313 49.6092H32.5714C34.6309 49.6092 36.339 48.0791 36.6204 46.0961C40.5684 45.9839 43.6875 44.6437 45.8962 42.1061C49.1098 38.4139 49.4409 33.3168 49.4341 31.2966C49.4319 30.6535 48.9062 30.1302 48.2622 30.1302H48.262ZM14.8888 28.629C14.9677 28.573 15.0315 28.4983 15.0745 28.4116C15.1175 28.3249 15.1383 28.229 15.1352 28.1323C15.1321 28.0356 15.1051 27.9411 15.0566 27.8574C15.0081 27.7737 14.9396 27.7033 14.8572 27.6525C13.2705 26.6735 12.7606 25.1915 12.9581 24.2288C13.1188 23.4461 13.7147 22.9392 14.636 22.8019C17.156 22.4251 18.3379 24.7029 18.3861 24.7981C18.4791 24.9854 18.6632 25.1117 18.8719 25.125C18.974 25.1321 19.0761 25.112 19.168 25.0669C19.2598 25.0217 19.3381 24.9531 19.3948 24.8679C19.4714 24.7585 20.1851 23.8193 21.6528 24.5074C23.3039 25.2813 23.4915 27.069 23.4984 27.1422C23.5146 27.3296 23.6173 27.4988 23.7787 27.5956C23.8578 27.6434 23.947 27.6716 24.0392 27.6781C24.1313 27.6845 24.2237 27.6689 24.3086 27.6326C24.3396 27.62 25.0755 27.3274 25.7841 27.7364C26.4057 28.0952 26.8599 28.9176 27.1148 30.1302H23.1644C22.4716 29.7724 18.9786 27.9273 16.8069 26.0061C16.7493 25.9551 16.6822 25.9159 16.6095 25.8909C16.5367 25.8658 16.4597 25.8553 16.3829 25.86C16.3061 25.8647 16.231 25.8845 16.1618 25.9182C16.0927 25.952 16.0308 25.999 15.9799 26.0567C15.9289 26.1143 15.8898 26.1814 15.8647 26.2542C15.8396 26.3269 15.8292 26.4039 15.8339 26.4807C15.8386 26.5575 15.8583 26.6326 15.8921 26.7018C15.9258 26.7709 15.9728 26.8328 16.0305 26.8838C17.4355 28.1267 19.312 29.3107 20.7275 30.1302H14.3198C14.075 29.2601 14.7992 28.6947 14.8888 28.629ZM32.5712 48.4374H17.4312C16.0225 48.4374 14.8436 47.4341 14.5716 46.1046H35.4309C35.1589 47.4341 33.9801 48.4374 32.5713 48.4374H32.5712ZM45.0121 41.3367C42.9352 43.7229 39.9285 44.9328 36.0759 44.9328H13.9265C10.0737 44.9328 7.06719 43.7229 4.99024 41.3367C3.28887 39.382 2.47237 36.9283 2.08399 34.8898H38.1126C38.268 34.8898 38.417 34.8281 38.5269 34.7182C38.6368 34.6083 38.6985 34.4593 38.6985 34.3039C38.6985 34.1485 38.6368 33.9994 38.5269 33.8895C38.417 33.7797 38.268 33.7179 38.1126 33.7179H1.89834C1.76172 32.6492 1.73868 31.7827 1.74024 31.3021L48.262 31.3005C48.2637 31.7817 48.2405 32.6487 48.1038 33.7179H42.6046C42.4492 33.7179 42.3002 33.7797 42.1903 33.8895C42.0804 33.9994 42.0187 34.1485 42.0187 34.3039C42.0187 34.4593 42.0804 34.6083 42.1903 34.7182C42.3002 34.8281 42.4492 34.8898 42.6046 34.8898H47.9182C47.5298 36.9285 46.7134 39.3821 45.0121 41.3367ZM35.592 26.2962C35.9141 26.2915 37.1147 26.1136 38.8574 25.1915C40.9642 24.0205 42.1826 22.2498 42.3818 20.0706L42.3821 20.0679L42.3831 20.059C42.7868 15.559 40.2066 12.5535 40.0966 12.4277C40.0943 12.4252 40.0917 12.4229 40.0895 12.4205C40.0801 12.4102 40.0703 12.4003 40.0603 12.3908C39.9299 12.2641 39.7514 12.1971 39.5707 12.2251C39.3875 12.2534 39.234 12.3591 39.1482 12.52L39.1476 12.5213C39.1416 12.5324 39.1352 12.5431 39.1299 12.5548C39.0878 12.6296 38.5072 13.6093 36.1174 15.4189C35.8037 15.6558 35.5028 15.9092 35.2158 16.1778C31.7262 15.0135 27.7389 16.82 27.565 16.9001C27.3647 16.9914 27.2277 17.2006 27.2247 17.4209C27.2232 17.5003 27.199 19.3889 28.217 21.4301C29.1609 23.3227 31.2065 25.7032 35.5921 26.2963L35.592 26.2962ZM31.2591 17.0675L31.6271 19.0073C30.7094 18.5135 29.7943 17.9706 29.1297 17.5645C29.692 17.3839 30.4342 17.1856 31.2592 17.0676L31.2591 17.0675ZM29.2866 20.9487C28.8402 20.067 28.6178 19.2064 28.5066 18.5585C29.6525 19.2596 31.5409 20.3665 32.9827 20.9722C33.0205 22.2159 33.4707 23.5155 34.3273 24.8557C31.981 24.238 30.2887 22.9283 29.2865 20.9487H29.2866ZM38.3175 24.1508C37.809 24.4363 37.3038 24.6448 36.868 24.795C37.2959 23.9905 37.6843 23.1657 38.0317 22.3233C38.5597 22.1833 39.6918 21.8381 40.959 21.1776C40.541 22.4013 39.6574 23.3985 38.3175 24.1508ZM41.2368 19.6709C40.2559 20.2817 39.2786 20.6852 38.5659 20.9318C39.4884 18.3354 39.9046 16.0337 40.0912 14.5516C40.6948 15.6905 41.366 17.4819 41.2368 19.6709ZM36.8248 16.3532C37.7332 15.6653 38.4019 15.0845 38.8934 14.6104C38.5898 16.8249 37.774 20.7589 35.6072 24.6583C34.4996 23.0904 34.0195 21.6206 34.1829 20.2812C34.3549 18.8719 35.2437 17.5504 36.8248 16.3532ZM34.3248 17.1437C33.6811 17.9615 33.2665 18.8285 33.0857 19.7383C33.0395 19.7173 32.9935 19.6966 32.9465 19.6748L32.4327 16.966C33.0568 16.9495 33.6991 16.9975 34.3249 17.1437H34.3248Z" fill="#52006A"/>
<path d="M5.00176 27.9946C7.40322 27.9946 9.35703 26.0408 9.35703 23.6393C9.35703 21.2379 7.40332 19.2841 5.00176 19.2841C2.6002 19.2841 0.646484 21.2379 0.646484 23.6393C0.646484 26.0408 2.60029 27.9946 5.00176 27.9946ZM5.00176 20.4559C6.75713 20.4559 8.18516 21.884 8.18516 23.6393C8.18516 25.3947 6.75713 26.8227 5.00176 26.8227C3.24639 26.8227 1.81836 25.3946 1.81836 23.6393C1.81836 21.8841 3.24648 20.4559 5.00176 20.4559Z" fill="#52006A"/>
<path d="M5.00195 25.3971C5.97119 25.3971 6.75977 24.6085 6.75977 23.6392C6.75977 22.67 5.97119 21.8814 5.00195 21.8814C4.03271 21.8814 3.24414 22.67 3.24414 23.6392C3.24414 24.6085 4.03271 25.3971 5.00195 25.3971ZM5.00195 23.0533C5.325 23.0533 5.58789 23.3161 5.58789 23.6392C5.58789 23.9624 5.3251 24.2252 5.00195 24.2252C4.67881 24.2252 4.41602 23.9624 4.41602 23.6392C4.41602 23.3161 4.67891 23.0533 5.00195 23.0533ZM21.5592 20.3558C22.5284 20.3558 23.3169 19.5672 23.3169 18.5979C23.3169 17.6287 22.5284 16.8401 21.5592 16.8401C20.5899 16.8401 19.8014 17.6287 19.8014 18.5979C19.8014 19.5672 20.5899 20.3558 21.5592 20.3558ZM21.5592 18.012C21.8822 18.012 22.145 18.2748 22.145 18.5979C22.145 18.9211 21.8822 19.1839 21.5592 19.1839C21.2361 19.1839 20.9732 18.9211 20.9732 18.5979C20.9732 18.2748 21.236 18.012 21.5592 18.012ZM46.2508 14.6175C45.2815 14.6175 44.493 15.406 44.493 16.3753C44.493 17.3445 45.2815 18.1331 46.2508 18.1331C47.22 18.1331 48.0085 17.3445 48.0085 16.3753C48.0085 15.406 47.22 14.6175 46.2508 14.6175ZM46.2508 16.9612C45.9276 16.9612 45.6648 16.6984 45.6648 16.3753C45.6648 16.0521 45.9276 15.7893 46.2508 15.7893C46.5739 15.7893 46.8366 16.0521 46.8366 16.3753C46.8366 16.6984 46.5738 16.9612 46.2508 16.9612ZM45.0789 11.6492C47.4804 11.6492 49.4342 9.6955 49.4342 7.29393C49.4342 4.89237 47.4804 2.93866 45.0789 2.93866C42.6774 2.93866 40.7236 4.89237 40.7236 7.29393C40.7236 9.6955 42.6773 11.6492 45.0789 11.6492ZM45.0789 4.11063C46.8343 4.11063 48.2623 5.53866 48.2623 7.29403C48.2623 9.0494 46.8342 10.4774 45.0789 10.4774C43.3236 10.4774 41.8955 9.0494 41.8955 7.29403C41.8955 5.53866 43.3235 4.11063 45.0789 4.11063Z" fill="#52006A"/>
<path d="M45.0794 9.05173C46.0486 9.05173 46.8372 8.26316 46.8372 7.29392C46.8372 6.32468 46.0486 5.53611 45.0794 5.53611C44.1101 5.53611 43.3216 6.32468 43.3216 7.29392C43.3216 8.26316 44.1101 9.05173 45.0794 9.05173ZM45.0794 6.70798C45.4024 6.70798 45.6653 6.97078 45.6653 7.29392C45.6653 7.61707 45.4025 7.87986 45.0794 7.87986C44.7562 7.87986 44.4934 7.61707 44.4934 7.29392C44.4934 6.97078 44.7563 6.70798 45.0794 6.70798ZM12.2063 10.3091C10.2515 11.1083 9.62214 12.281 9.43826 13.1241C9.1655 14.3748 9.70798 15.6432 10.3666 16.3456C11.188 17.2216 12.3886 16.9803 13.2197 16.6663C13.3201 17.7735 13.4389 19.4668 15.0813 19.4711C15.647 19.4698 16.1891 19.2448 16.5894 18.8452C17.7356 17.6842 16.6346 16.4137 15.9371 15.5552C16.7498 15.1971 17.7759 14.5278 17.7482 13.3274C17.726 12.3649 17.2244 11.0797 16.1536 10.3784C15.4318 9.90574 14.1612 9.50974 12.2063 10.3091ZM15.5116 11.3587C16.2225 11.8243 16.5621 12.7196 16.5766 13.3544C16.5888 13.8835 16.0107 14.3324 14.8092 14.7266C14.8064 14.7275 14.8036 14.7285 14.8009 14.7295C14.8003 14.7295 14.7994 14.73 14.7988 14.7302C14.6657 14.7761 14.5537 14.8685 14.4835 14.9905C14.3696 15.1798 14.3802 15.4441 14.5149 15.6261C14.6908 15.882 14.8959 16.1331 15.0943 16.376C15.9278 17.396 16.0584 17.7182 15.7596 18.0178C15.5787 18.1993 15.3313 18.3002 15.0717 18.2991C14.6487 18.2946 14.5161 17.9732 14.3961 16.6615C14.3671 16.3443 14.3371 16.0163 14.2816 15.7063C14.2492 15.525 14.1323 15.3699 13.9677 15.2869C13.8032 15.2039 13.6082 15.2036 13.443 15.2852C12.3101 15.8452 11.5834 15.93 11.2214 15.5439C10.7871 15.0807 10.4021 14.2041 10.5832 13.3737C10.7635 12.5469 11.4588 11.8806 12.6498 11.3937C13.8407 10.9067 14.8036 10.8949 15.5116 11.3587ZM31.7084 7.60955L31.6475 7.69187C31.008 8.55466 30.0414 9.85867 31.2118 10.9267C31.6326 11.3112 32.2023 11.5128 32.7698 11.4797C34.3516 11.3883 34.4233 9.76677 34.4707 8.69382L34.4754 8.59129C34.8471 8.71209 35.2893 8.8157 35.7351 8.8157C36.302 8.8157 36.8738 8.64841 37.3101 8.13679C37.9348 7.40427 38.417 6.1116 38.0856 4.87517C37.8623 4.04168 37.1782 2.89998 35.1881 2.19373C33.1978 1.48748 31.947 1.94256 31.2483 2.4489C30.2117 3.19988 29.7712 4.5072 29.7944 5.4698C29.8234 6.67078 30.8802 7.29041 31.7084 7.60955ZM31.9358 3.39783C32.6212 2.90125 33.5836 2.86775 34.7962 3.29802C36.0088 3.72839 36.7346 4.36101 36.9537 5.17849C37.1736 5.99939 36.8304 6.89324 36.4185 7.37625C36.0748 7.77908 35.3443 7.72849 34.185 7.22166C33.837 7.05906 33.3974 7.31423 33.3676 7.69783C33.3283 8.00554 33.3137 8.32898 33.3 8.64207C33.2419 9.95798 33.1246 10.2853 32.7022 10.3097C32.5748 10.3166 32.4474 10.2982 32.3272 10.2556C32.2069 10.2129 32.0964 10.1469 32.0018 10.0612C31.6894 9.77605 31.8047 9.44802 32.5891 8.38982C32.7788 8.13396 32.9749 7.86941 33.1401 7.60144C33.3474 7.27625 33.1672 6.82547 32.7953 6.72869C31.5772 6.39158 30.9789 5.97049 30.9661 5.44138C30.9508 4.80662 31.2477 3.89646 31.936 3.39783H31.9358ZM9.84949 7.31873C11.6802 7.33211 13.4632 6.25779 14.2895 4.61326C14.903 3.42644 15.0176 2.07166 14.6122 0.79861C14.5888 0.725293 14.5513 0.657293 14.5016 0.598494C14.452 0.539694 14.3913 0.491247 14.3229 0.455917C14.2546 0.420587 14.1799 0.399067 14.1032 0.392585C14.0266 0.386104 13.9494 0.394788 13.876 0.418141L5.46072 3.09822C5.3874 3.12157 5.3194 3.15914 5.2606 3.20877C5.2018 3.2584 5.15335 3.31913 5.11802 3.38749C5.08269 3.45584 5.06117 3.53049 5.05469 3.60716C5.04821 3.68384 5.0569 3.76103 5.08025 3.83435C5.7571 5.95945 7.72966 7.31873 9.84949 7.31873ZM11.4646 2.41599C11.4511 2.64113 11.3906 2.86095 11.2871 3.06131C11.1898 3.25086 11.0558 3.41923 10.893 3.55667C10.7301 3.69411 10.5417 3.79789 10.3385 3.86199C9.68328 4.07078 8.99265 3.83855 8.58455 3.33318L11.4646 2.41599ZM7.42292 3.7031C7.92185 4.57537 8.85515 5.11062 9.84802 5.11062C10.1282 5.11062 10.4132 5.06804 10.694 4.97859C11.4051 4.75213 11.9854 4.26228 12.3281 3.59939C12.5792 3.11355 12.6801 2.57742 12.6272 2.04568L13.6312 1.72595C13.7577 2.52576 13.6273 3.34226 13.2486 4.07507C12.7788 4.98386 11.9833 5.65525 11.0086 5.9657C9.18601 6.54607 7.24373 5.68572 6.41746 4.02332L7.42302 3.7031H7.42292ZM45.848 22.0009C45.7514 21.9649 45.6469 21.955 45.5452 21.9723C45.4436 21.9896 45.3482 22.0334 45.2689 22.0994C44.4684 22.7649 44.0793 23.8139 44.2534 24.8369C44.4275 25.8598 45.1417 26.721 46.1173 27.0844C46.2139 27.1203 46.3184 27.1301 46.42 27.1128C46.5217 27.0955 46.617 27.0517 46.6964 26.9858C47.497 26.3202 47.8861 25.2713 47.712 24.2483C47.5379 23.2254 46.8237 22.3642 45.8481 22.0009H45.848ZM46.2009 25.8249C45.7853 25.562 45.4924 25.1323 45.4087 24.6403C45.325 24.1483 45.4593 23.646 45.7644 23.2604C46.18 23.5233 46.4729 23.953 46.5567 24.445C46.6404 24.937 46.506 25.4393 46.2009 25.8249ZM21.5573 12.1671C21.7521 12.2075 21.9505 12.2278 22.1495 12.2278C22.9731 12.2278 23.773 11.88 24.3311 11.2556C25.0228 10.4821 25.2513 9.38689 24.9276 8.39734C24.8956 8.29931 24.8382 8.21148 24.7613 8.14273C24.6844 8.07399 24.5907 8.02676 24.4897 8.00584C23.4701 7.79422 22.4075 8.14363 21.7158 8.91726C21.0242 9.6908 20.7957 10.7861 21.1194 11.7756C21.1515 11.8736 21.2088 11.9614 21.2857 12.0302C21.3626 12.0989 21.4563 12.1461 21.5573 12.1671ZM22.5894 9.69832C22.9221 9.32625 23.3987 9.11834 23.8904 9.11677C23.9436 9.60554 23.7902 10.1025 23.4576 10.4745C23.1249 10.8466 22.6483 11.0545 22.1566 11.056C22.1034 10.5673 22.2568 10.0704 22.5894 9.69832ZM5.01628 15.7761C5.11933 15.7803 5.22166 15.7573 5.31293 15.7093C5.40421 15.6613 5.48119 15.59 5.53611 15.5027C6.0904 14.6215 6.13455 13.5036 5.65144 12.5852C5.16824 11.6669 4.22195 11.0701 3.18171 11.0276C3.07863 11.0233 2.97623 11.0463 2.88492 11.0944C2.79361 11.1424 2.71663 11.2138 2.66179 11.3011C2.10759 12.1824 2.06345 13.3004 2.54656 14.2186C3.02966 15.137 3.97605 15.7338 5.01628 15.7761ZM3.49343 12.2508C3.97009 12.3717 4.38201 12.689 4.61433 13.1307C4.84666 13.5724 4.87498 14.0917 4.70457 14.5529C4.228 14.4321 3.81609 14.1146 3.58367 13.673C3.35124 13.2313 3.32302 12.7121 3.49333 12.2509L3.49343 12.2508ZM46.7924 44.9998C46.6822 44.8914 46.5336 44.8309 46.379 44.8315C46.2245 44.8322 46.0764 44.8938 45.9671 45.0031C45.8578 45.1124 45.7961 45.2605 45.7955 45.4151C45.7949 45.5696 45.8553 45.7182 45.9637 45.8284L46.6561 46.5208C46.7705 46.6351 46.9205 46.6924 47.0705 46.6924C47.2205 46.6924 47.3704 46.6351 47.4848 46.5208C47.5947 46.4109 47.6564 46.2619 47.6564 46.1065C47.6564 45.9511 47.5947 45.802 47.4848 45.6922L46.7925 44.9998H46.7924ZM48.1929 42.8106H47.2138C47.0584 42.8106 46.9094 42.8724 46.7995 42.9822C46.6896 43.0921 46.6279 43.2412 46.6279 43.3966C46.6279 43.552 46.6896 43.701 46.7995 43.8109C46.9094 43.9208 47.0584 43.9825 47.2138 43.9825H48.1929C48.3483 43.9825 48.4974 43.9208 48.6073 43.8109C48.7172 43.701 48.7789 43.552 48.7789 43.3966C48.7789 43.2412 48.7172 43.0921 48.6073 42.9822C48.4974 42.8724 48.3483 42.8106 48.1929 42.8106ZM44.3095 45.7148C44.1541 45.7148 44.0051 45.7766 43.8952 45.8864C43.7853 45.9963 43.7236 46.1454 43.7236 46.3008V47.28C43.7236 47.4354 43.7853 47.5844 43.8952 47.6943C44.0051 47.8042 44.1541 47.8659 44.3095 47.8659C44.4649 47.8659 44.614 47.8042 44.7239 47.6943C44.8338 47.5844 44.8955 47.4354 44.8955 47.28V46.3008C44.8955 46.1454 44.8338 45.9963 44.7239 45.8864C44.614 45.7766 44.4649 45.7148 44.3095 45.7148Z" fill="#52006A"/>
<path d="M40.3594 34.8898C40.683 34.8898 40.9453 34.6275 40.9453 34.3039C40.9453 33.9803 40.683 33.718 40.3594 33.718C40.0358 33.718 39.7734 33.9803 39.7734 34.3039C39.7734 34.6275 40.0358 34.8898 40.3594 34.8898Z" fill="#52006A"/>
</g>
<defs>
<clipPath id="clip0_2994_15466">
<rect width="50" height="50" fill="white"/>
</clipPath>
</defs>
</svg>
