<svg width="99" height="76" viewBox="0 0 99 76" fill="none" xmlns="http://www.w3.org/2000/svg">
<path d="M89.5977 14.1912H52.1612C51.6662 14.1912 51.2878 13.7503 51.3628 13.2619C51.689 11.1445 52.3414 9.14933 53.3171 7.27746C54.438 5.13438 55.8784 3.27579 57.6431 1.70073C59.4069 0.12661 61.4267 -1.10708 63.7025 -1.9994C65.9793 -2.88886 68.4068 -3.3355 70.9861 -3.3355C73.5673 -3.3355 75.9863 -2.88033 78.2422 -1.97C80.4991 -1.05967 82.5018 0.184456 84.2447 1.75668C85.9905 3.33174 87.4138 5.19033 88.5129 7.33435C89.4734 9.20433 90.1012 11.1843 90.3971 13.2724C90.4653 13.7569 90.0879 14.1912 89.5977 14.1912ZM98.2439 16.9232C98.2439 15.498 98.1415 14.1078 97.9367 12.7508C97.601 10.5319 96.9932 8.40305 96.1094 6.36713C94.687 3.08519 92.7431 0.221436 90.2776 -2.22603C88.5223 -3.96704 86.5604 -5.44918 84.3917 -6.67244C83.5136 -7.16743 82.6023 -7.61975 81.656 -8.03035C78.3759 -9.45274 74.856 -10.1649 71.0999 -10.1649C67.3827 -10.1649 63.8732 -9.46127 60.5742 -8.05879C57.2723 -6.65442 54.3991 -4.73798 51.9526 -2.31042C49.5051 0.117126 47.5621 2.97234 46.1189 6.25239C44.6784 9.53432 43.9388 13.0344 43.9009 16.7516C43.9009 17.7387 44.2223 18.5627 44.8671 19.2275C45.5129 19.8913 46.3474 20.2231 47.3715 20.2231H90.3345C90.3335 20.2269 90.3335 20.2298 90.3326 20.2336C90.7953 20.2336 91.1623 20.6205 91.1395 21.0813C90.8427 26.8828 89.5541 32.5117 87.2962 37.8514C86.0493 40.7995 84.5055 43.6434 82.7085 46.3042C80.9268 48.9403 78.8813 51.4191 76.6283 53.6722C74.3752 55.9253 71.8964 57.9707 69.2612 59.7515C66.6004 61.5485 63.7566 63.0922 60.8084 64.3392C54.6741 66.9336 48.1567 68.2489 41.4363 68.2489C34.716 68.2489 28.1986 66.9336 22.0643 64.3392C19.1161 63.0922 16.2723 61.5485 13.6114 59.7515C10.9762 57.9707 8.49746 55.9253 6.24439 53.6722C6.23775 53.6655 6.23112 53.6599 6.22448 53.6532C6.06328 53.4911 5.88785 53.3498 5.70199 53.2284C5.13208 52.8083 4.43037 52.5589 3.67081 52.5589C1.76195 52.5589 0.215332 54.1264 0.215332 56.0609C0.215332 56.6298 0.349991 57.1665 0.588005 57.6416C0.746364 57.9887 0.967305 58.3149 1.25558 58.6031C1.26506 58.6126 1.27359 58.6221 1.28402 58.6316C3.85287 61.2004 6.67964 63.5332 9.68564 65.5634C12.721 67.6145 15.9669 69.3764 19.3323 70.7997C26.3352 73.7611 33.7725 75.2632 41.4363 75.2632C49.1002 75.2632 56.5374 73.7611 63.5403 70.7997C66.9057 69.3764 70.1516 67.6145 73.187 65.5634C76.193 63.5332 79.0207 61.2004 81.5886 58.6316C84.1575 56.0628 86.4902 53.236 88.5204 50.23C90.5715 47.1946 92.3334 43.9487 93.7568 40.5833C96.7191 33.5804 98.2202 26.1432 98.2202 18.4793C98.2202 18.3674 98.2193 18.2555 98.2183 18.1436C98.2354 17.7396 98.2439 17.3328 98.2439 16.9232Z" fill="white" fill-opacity="0.2"/>
</svg>
