<svg width="55" height="47" viewBox="0 0 55 47" fill="none" xmlns="http://www.w3.org/2000/svg">
<path d="M8.40347 14.1919C8.63106 11.7634 9.29389 9.47808 10.3948 7.335C11.4948 5.19098 12.9182 3.33239 14.6639 1.75732C16.4068 0.185101 18.4095 -1.05902 20.6664 -1.96935C22.9233 -2.87968 25.3413 -3.33485 27.9216 -3.33485C30.5018 -3.33485 32.9284 -2.88822 35.2061 -1.99875C37.482 -1.10643 39.5018 0.127258 41.2655 1.70137C43.0302 3.27644 44.4707 5.13503 45.5906 7.27811C46.7095 9.42118 47.4017 11.7264 47.6673 14.1919H8.40347ZM52.7898 6.25304C51.3465 2.973 49.4026 0.117771 46.9561 -2.30978C44.5095 -4.73734 41.6354 -6.65377 38.3344 -8.05815C35.0354 -9.46063 31.5259 -10.1642 27.8078 -10.1642C24.0527 -10.1642 20.5327 -9.4521 17.2527 -8.0297C16.2873 -7.61152 15.359 -7.14877 14.4648 -6.6424C12.317 -5.42482 10.3721 -3.95312 8.63106 -2.22538C6.16463 0.22208 4.22163 3.08584 2.79829 6.36777C1.80831 8.65119 1.16254 11.0503 0.861938 13.5632C0.73013 14.6613 0.6647 15.7812 0.6647 16.9238C0.6647 17.0376 0.665648 17.1514 0.666596 17.2652C0.658062 17.6692 0.65332 18.0741 0.65332 18.4799C0.65332 26.1438 2.15442 33.581 5.11679 40.584C5.55584 41.6204 6.02618 42.6464 6.52781 43.6582C6.52781 43.6582 6.98203 44.9716 7.79374 45.5462L7.79753 45.5491C9.05114 46.6329 10.9524 46.6794 12.2895 45.5785C13.4606 44.615 13.8512 43.057 13.3781 41.719C13.3306 41.5863 13.2747 41.4545 13.2102 41.3264C13.1932 41.2951 13.1761 41.262 13.16 41.2297C12.5891 40.1231 12.06 38.9947 11.5773 37.852C9.2095 32.2535 7.90753 26.3344 7.69797 20.2342H8.57511C8.57511 20.2304 8.57416 20.2276 8.57416 20.2238H51.5362C52.5612 20.2238 53.3948 19.8919 54.0415 19.2281C54.6853 18.5634 55.0078 17.7393 55.0078 16.7522C54.9698 13.035 54.2302 9.53498 52.7898 6.25304Z" fill="white" fill-opacity="0.2"/>
</svg>
